<svg xmlns="http://www.w3.org/2000/svg" width="900" height="290" style="font-family: -apple-system, BlinkMacSystemFont, 'Segoe UI', Helvetica, Arial, sans-serif;">
  <rect width="100%" height="100%" fill="white"/>
  <g>
    <line x1="40" y1="220.00" x2="860" y2="220.00" stroke="#e5e7eb"/><text x="32" y="224.00" font-size="10" fill="#111827" text-anchor="end">0</text><line x1="40" y1="175.00" x2="860" y2="175.00" stroke="#e5e7eb"/><text x="32" y="179.00" font-size="10" fill="#111827" text-anchor="end">500</text><line x1="40" y1="130.00" x2="860" y2="130.00" stroke="#e5e7eb"/><text x="32" y="134.00" font-size="10" fill="#111827" text-anchor="end">1k</text><line x1="40" y1="85.00" x2="860" y2="85.00" stroke="#e5e7eb"/><text x="32" y="89.00" font-size="10" fill="#111827" text-anchor="end">1.5k</text><line x1="40" y1="40.00" x2="860" y2="40.00" stroke="#e5e7eb"/><text x="32" y="44.00" font-size="10" fill="#111827" text-anchor="end">2k</text>
    <line x1="40.00" y1="40" x2="40.00" y2="220" stroke="#e5e7eb" opacity="0.5"/><line x1="116.88" y1="40" x2="116.88" y2="220" stroke="#e5e7eb" opacity="0.5"/><line x1="193.75" y1="40" x2="193.75" y2="220" stroke="#e5e7eb" opacity="0.5"/><line x1="270.62" y1="40" x2="270.62" y2="220" stroke="#e5e7eb" opacity="0.5"/><line x1="347.50" y1="40" x2="347.50" y2="220" stroke="#e5e7eb" opacity="0.5"/><line x1="424.38" y1="40" x2="424.38" y2="220" stroke="#e5e7eb" opacity="0.5"/><line x1="501.25" y1="40" x2="501.25" y2="220" stroke="#e5e7eb" opacity="0.5"/><line x1="578.12" y1="40" x2="578.12" y2="220" stroke="#e5e7eb" opacity="0.5"/><line x1="655.00" y1="40" x2="655.00" y2="220" stroke="#e5e7eb" opacity="0.5"/><line x1="731.88" y1="40" x2="731.88" y2="220" stroke="#e5e7eb" opacity="0.5"/><line x1="808.75" y1="40" x2="808.75" y2="220" stroke="#e5e7eb" opacity="0.5"/>
    <line x1="40" y1="220" x2="860" y2="220" stroke="#9ca3af"/>
    <line x1="40" y1="40"   x2="40"   y2="220" stroke="#9ca3af"/>
    <path d="M 40.00 166.63 L 65.62 166.00 L 91.25 166.00 L 116.88 121.18 L 142.50 115.78 L 168.12 115.78 L 193.75 112.00 L 219.38 108.22 L 245.00 108.22 L 270.62 108.22 L 296.25 108.22 L 321.88 108.22 L 347.50 108.22 L 373.12 108.22 L 398.75 108.22 L 424.38 108.22 L 450.00 108.22 L 475.62 108.22 L 501.25 108.22 L 526.88 108.22 L 552.50 108.22 L 578.12 108.22 L 603.75 109.21 L 629.38 109.12 L 655.00 108.76 L 680.62 108.76 L 706.25 108.76 L 731.88 108.76 L 757.50 108.76 L 783.12 108.76 L 808.75 108.76 L 834.38 108.76 L 860.00 108.76" fill="none" stroke="#111827" stroke-width="2"/>
    <circle cx="860.00" cy="108.76" r="3" fill="#111827"/>
    <text x="40.00" y="235.00" font-size="9" fill="#111827" text-anchor="middle" transform="rotate(-45 40.00 235.00)">28.08.2025</text><text x="116.88" y="235.00" font-size="9" fill="#111827" text-anchor="middle" transform="rotate(-45 116.88 235.00)">28.08.2025</text><text x="193.75" y="235.00" font-size="9" fill="#111827" text-anchor="middle" transform="rotate(-45 193.75 235.00)">28.08.2025</text><text x="270.62" y="235.00" font-size="9" fill="#111827" text-anchor="middle" transform="rotate(-45 270.62 235.00)">28.08.2025</text><text x="347.50" y="235.00" font-size="9" fill="#111827" text-anchor="middle" transform="rotate(-45 347.50 235.00)">28.08.2025</text><text x="424.38" y="235.00" font-size="9" fill="#111827" text-anchor="middle" transform="rotate(-45 424.38 235.00)">28.08.2025</text><text x="501.25" y="235.00" font-size="9" fill="#111827" text-anchor="middle" transform="rotate(-45 501.25 235.00)">28.08.2025</text><text x="578.12" y="235.00" font-size="9" fill="#111827" text-anchor="middle" transform="rotate(-45 578.12 235.00)">28.08.2025</text><text x="655.00" y="235.00" font-size="9" fill="#111827" text-anchor="middle" transform="rotate(-45 655.00 235.00)">28.08.2025</text><text x="731.88" y="235.00" font-size="9" fill="#111827" text-anchor="middle" transform="rotate(-45 731.88 235.00)">29.08.2025</text><text x="808.75" y="235.00" font-size="9" fill="#111827" text-anchor="middle" transform="rotate(-45 808.75 235.00)">01.09.2025</text>
  </g>
</svg>