<svg xmlns="http://www.w3.org/2000/svg" width="900" height="290" style="font-family: -apple-system, BlinkMacSystemFont, 'Segoe UI', Helvetica, Arial, sans-serif;">
  <rect width="100%" height="100%" fill="#0d1117"/>
  <g>
    <line x1="40" y1="220.00" x2="860" y2="220.00" stroke="#30363d"/><text x="32" y="224.00" font-size="10" fill="#c9d1d9" text-anchor="end">0</text><line x1="40" y1="175.00" x2="860" y2="175.00" stroke="#30363d"/><text x="32" y="179.00" font-size="10" fill="#c9d1d9" text-anchor="end">500</text><line x1="40" y1="130.00" x2="860" y2="130.00" stroke="#30363d"/><text x="32" y="134.00" font-size="10" fill="#c9d1d9" text-anchor="end">1k</text><line x1="40" y1="85.00" x2="860" y2="85.00" stroke="#30363d"/><text x="32" y="89.00" font-size="10" fill="#c9d1d9" text-anchor="end">1.5k</text><line x1="40" y1="40.00" x2="860" y2="40.00" stroke="#30363d"/><text x="32" y="44.00" font-size="10" fill="#c9d1d9" text-anchor="end">2k</text>
    <line x1="40.00" y1="40" x2="40.00" y2="220" stroke="#30363d" opacity="0.5"/><line x1="115.93" y1="40" x2="115.93" y2="220" stroke="#30363d" opacity="0.5"/><line x1="191.85" y1="40" x2="191.85" y2="220" stroke="#30363d" opacity="0.5"/><line x1="267.78" y1="40" x2="267.78" y2="220" stroke="#30363d" opacity="0.5"/><line x1="343.70" y1="40" x2="343.70" y2="220" stroke="#30363d" opacity="0.5"/><line x1="419.63" y1="40" x2="419.63" y2="220" stroke="#30363d" opacity="0.5"/><line x1="495.56" y1="40" x2="495.56" y2="220" stroke="#30363d" opacity="0.5"/><line x1="571.48" y1="40" x2="571.48" y2="220" stroke="#30363d" opacity="0.5"/><line x1="647.41" y1="40" x2="647.41" y2="220" stroke="#30363d" opacity="0.5"/><line x1="723.33" y1="40" x2="723.33" y2="220" stroke="#30363d" opacity="0.5"/><line x1="799.26" y1="40" x2="799.26" y2="220" stroke="#30363d" opacity="0.5"/>
    <line x1="40" y1="220" x2="860" y2="220" stroke="#30363d"/>
    <line x1="40" y1="40"   x2="40"   y2="220" stroke="#30363d"/>
    <path d="M 40.00 166.63 L 55.19 166.00 L 70.37 166.00 L 85.56 121.18 L 100.74 115.78 L 115.93 115.78 L 131.11 112.00 L 146.30 108.22 L 161.48 108.22 L 176.67 108.22 L 191.85 108.22 L 207.04 108.22 L 222.22 108.22 L 237.41 108.22 L 252.59 108.22 L 267.78 108.22 L 282.96 108.22 L 298.15 108.22 L 313.33 108.22 L 328.52 108.22 L 343.70 108.22 L 358.89 108.22 L 374.07 109.21 L 389.26 109.12 L 404.44 108.76 L 419.63 108.76 L 434.81 108.76 L 450.00 108.76 L 465.19 108.76 L 480.37 108.76 L 495.56 108.76 L 510.74 108.76 L 525.93 108.76 L 541.11 108.76 L 556.30 108.76 L 571.48 108.76 L 586.67 108.76 L 601.85 108.76 L 617.04 108.76 L 632.22 108.76 L 647.41 108.76 L 662.59 108.76 L 677.78 108.76 L 692.96 108.76 L 708.15 108.76 L 723.33 108.76 L 738.52 108.76 L 753.70 108.76 L 768.89 108.76 L 784.07 108.76 L 799.26 108.76 L 814.44 108.76 L 829.63 108.76 L 844.81 108.76 L 860.00 108.76" fill="none" stroke="#3fb950" stroke-width="2"/>
    <circle cx="860.00" cy="108.76" r="3" fill="#3fb950"/>
    <text x="40.00" y="235.00" font-size="9" fill="#c9d1d9" text-anchor="middle" transform="rotate(-45 40.00 235.00)">28.08.2025</text><text x="115.93" y="235.00" font-size="9" fill="#c9d1d9" text-anchor="middle" transform="rotate(-45 115.93 235.00)">28.08.2025</text><text x="191.85" y="235.00" font-size="9" fill="#c9d1d9" text-anchor="middle" transform="rotate(-45 191.85 235.00)">28.08.2025</text><text x="267.78" y="235.00" font-size="9" fill="#c9d1d9" text-anchor="middle" transform="rotate(-45 267.78 235.00)">28.08.2025</text><text x="343.70" y="235.00" font-size="9" fill="#c9d1d9" text-anchor="middle" transform="rotate(-45 343.70 235.00)">28.08.2025</text><text x="419.63" y="235.00" font-size="9" fill="#c9d1d9" text-anchor="middle" transform="rotate(-45 419.63 235.00)">28.08.2025</text><text x="495.56" y="235.00" font-size="9" fill="#c9d1d9" text-anchor="middle" transform="rotate(-45 495.56 235.00)">01.09.2025</text><text x="571.48" y="235.00" font-size="9" fill="#c9d1d9" text-anchor="middle" transform="rotate(-45 571.48 235.00)">06.09.2025</text><text x="647.41" y="235.00" font-size="9" fill="#c9d1d9" text-anchor="middle" transform="rotate(-45 647.41 235.00)">09.09.2025</text><text x="723.33" y="235.00" font-size="9" fill="#c9d1d9" text-anchor="middle" transform="rotate(-45 723.33 235.00)">14.09.2025</text><text x="799.26" y="235.00" font-size="9" fill="#c9d1d9" text-anchor="middle" transform="rotate(-45 799.26 235.00)">15.09.2025</text>
  </g>
</svg>