<svg xmlns="http://www.w3.org/2000/svg" width="900" height="290" style="font-family: -apple-system, BlinkMacSystemFont, 'Segoe UI', Helvetica, Arial, sans-serif;">
  <rect width="100%" height="100%" fill="white"/>
  <g>
    <line x1="40" y1="220.00" x2="860" y2="220.00" stroke="#e5e7eb"/><text x="32" y="224.00" font-size="10" fill="#111827" text-anchor="end">0</text><line x1="40" y1="175.00" x2="860" y2="175.00" stroke="#e5e7eb"/><text x="32" y="179.00" font-size="10" fill="#111827" text-anchor="end">500</text><line x1="40" y1="130.00" x2="860" y2="130.00" stroke="#e5e7eb"/><text x="32" y="134.00" font-size="10" fill="#111827" text-anchor="end">1k</text><line x1="40" y1="85.00" x2="860" y2="85.00" stroke="#e5e7eb"/><text x="32" y="89.00" font-size="10" fill="#111827" text-anchor="end">1.5k</text><line x1="40" y1="40.00" x2="860" y2="40.00" stroke="#e5e7eb"/><text x="32" y="44.00" font-size="10" fill="#111827" text-anchor="end">2k</text>
    <line x1="40.00" y1="40" x2="40.00" y2="220" stroke="#e5e7eb" opacity="0.5"/><line x1="113.59" y1="40" x2="113.59" y2="220" stroke="#e5e7eb" opacity="0.5"/><line x1="187.18" y1="40" x2="187.18" y2="220" stroke="#e5e7eb" opacity="0.5"/><line x1="260.77" y1="40" x2="260.77" y2="220" stroke="#e5e7eb" opacity="0.5"/><line x1="334.36" y1="40" x2="334.36" y2="220" stroke="#e5e7eb" opacity="0.5"/><line x1="407.95" y1="40" x2="407.95" y2="220" stroke="#e5e7eb" opacity="0.5"/><line x1="481.54" y1="40" x2="481.54" y2="220" stroke="#e5e7eb" opacity="0.5"/><line x1="555.13" y1="40" x2="555.13" y2="220" stroke="#e5e7eb" opacity="0.5"/><line x1="628.72" y1="40" x2="628.72" y2="220" stroke="#e5e7eb" opacity="0.5"/><line x1="702.31" y1="40" x2="702.31" y2="220" stroke="#e5e7eb" opacity="0.5"/><line x1="775.90" y1="40" x2="775.90" y2="220" stroke="#e5e7eb" opacity="0.5"/><line x1="849.49" y1="40" x2="849.49" y2="220" stroke="#e5e7eb" opacity="0.5"/>
    <line x1="40" y1="220" x2="860" y2="220" stroke="#9ca3af"/>
    <line x1="40" y1="40"   x2="40"   y2="220" stroke="#9ca3af"/>
    <path d="M 40.00 166.63 L 50.51 166.00 L 61.03 166.00 L 71.54 121.18 L 82.05 115.78 L 92.56 115.78 L 103.08 112.00 L 113.59 108.22 L 124.10 108.22 L 134.62 108.22 L 145.13 108.22 L 155.64 108.22 L 166.15 108.22 L 176.67 108.22 L 187.18 108.22 L 197.69 108.22 L 208.21 108.22 L 218.72 108.22 L 229.23 108.22 L 239.74 108.22 L 250.26 108.22 L 260.77 108.22 L 271.28 109.21 L 281.79 109.12 L 292.31 108.76 L 302.82 108.76 L 313.33 108.76 L 323.85 108.76 L 334.36 108.76 L 344.87 108.76 L 355.38 108.76 L 365.90 108.76 L 376.41 108.76 L 386.92 108.76 L 397.44 108.76 L 407.95 108.76 L 418.46 108.76 L 428.97 108.76 L 439.49 108.76 L 450.00 108.76 L 460.51 108.76 L 471.03 108.76 L 481.54 108.76 L 492.05 108.76 L 502.56 108.76 L 513.08 108.76 L 523.59 108.76 L 534.10 108.76 L 544.62 108.76 L 555.13 108.76 L 565.64 108.76 L 576.15 108.76 L 586.67 108.76 L 597.18 108.76 L 607.69 108.76 L 618.21 108.76 L 628.72 108.76 L 639.23 108.76 L 649.74 108.76 L 660.26 108.76 L 670.77 108.76 L 681.28 108.76 L 691.79 108.76 L 702.31 108.76 L 712.82 108.76 L 723.33 108.76 L 733.85 108.76 L 744.36 108.76 L 754.87 108.76 L 765.38 108.76 L 775.90 108.76 L 786.41 108.76 L 796.92 108.76 L 807.44 108.76 L 817.95 108.76 L 828.46 108.76 L 838.97 108.76 L 849.49 108.76 L 860.00 108.76" fill="none" stroke="#111827" stroke-width="2"/>
    <circle cx="860.00" cy="108.76" r="3" fill="#111827"/>
    <text x="40.00" y="235.00" font-size="9" fill="#111827" text-anchor="middle" transform="rotate(-45 40.00 235.00)">28.08.2025</text><text x="113.59" y="235.00" font-size="9" fill="#111827" text-anchor="middle" transform="rotate(-45 113.59 235.00)">28.08.2025</text><text x="187.18" y="235.00" font-size="9" fill="#111827" text-anchor="middle" transform="rotate(-45 187.18 235.00)">28.08.2025</text><text x="260.77" y="235.00" font-size="9" fill="#111827" text-anchor="middle" transform="rotate(-45 260.77 235.00)">28.08.2025</text><text x="334.36" y="235.00" font-size="9" fill="#111827" text-anchor="middle" transform="rotate(-45 334.36 235.00)">30.08.2025</text><text x="407.95" y="235.00" font-size="9" fill="#111827" text-anchor="middle" transform="rotate(-45 407.95 235.00)">06.09.2025</text><text x="481.54" y="235.00" font-size="9" fill="#111827" text-anchor="middle" transform="rotate(-45 481.54 235.00)">11.09.2025</text><text x="555.13" y="235.00" font-size="9" fill="#111827" text-anchor="middle" transform="rotate(-45 555.13 235.00)">15.09.2025</text><text x="628.72" y="235.00" font-size="9" fill="#111827" text-anchor="middle" transform="rotate(-45 628.72 235.00)">21.09.2025</text><text x="702.31" y="235.00" font-size="9" fill="#111827" text-anchor="middle" transform="rotate(-45 702.31 235.00)">28.09.2025</text><text x="775.90" y="235.00" font-size="9" fill="#111827" text-anchor="middle" transform="rotate(-45 775.90 235.00)">05.10.2025</text><text x="849.49" y="235.00" font-size="9" fill="#111827" text-anchor="middle" transform="rotate(-45 849.49 235.00)">12.10.2025</text>
  </g>
</svg>