<svg xmlns="http://www.w3.org/2000/svg" width="900" height="290" style="font-family: -apple-system, BlinkMacSystemFont, 'Segoe UI', Helvetica, Arial, sans-serif;">
  <rect width="100%" height="100%" fill="white"/>
  <g>
    <line x1="40" y1="220.00" x2="860" y2="220.00" stroke="#e5e7eb"/><text x="32" y="224.00" font-size="10" fill="#111827" text-anchor="end">0</text><line x1="40" y1="175.00" x2="860" y2="175.00" stroke="#e5e7eb"/><text x="32" y="179.00" font-size="10" fill="#111827" text-anchor="end">500</text><line x1="40" y1="130.00" x2="860" y2="130.00" stroke="#e5e7eb"/><text x="32" y="134.00" font-size="10" fill="#111827" text-anchor="end">1k</text><line x1="40" y1="85.00" x2="860" y2="85.00" stroke="#e5e7eb"/><text x="32" y="89.00" font-size="10" fill="#111827" text-anchor="end">1.5k</text><line x1="40" y1="40.00" x2="860" y2="40.00" stroke="#e5e7eb"/><text x="32" y="44.00" font-size="10" fill="#111827" text-anchor="end">2k</text>
    <line x1="40.00" y1="40" x2="40.00" y2="220" stroke="#e5e7eb" opacity="0.5"/><line x1="118.99" y1="40" x2="118.99" y2="220" stroke="#e5e7eb" opacity="0.5"/><line x1="197.98" y1="40" x2="197.98" y2="220" stroke="#e5e7eb" opacity="0.5"/><line x1="276.97" y1="40" x2="276.97" y2="220" stroke="#e5e7eb" opacity="0.5"/><line x1="355.96" y1="40" x2="355.96" y2="220" stroke="#e5e7eb" opacity="0.5"/><line x1="434.95" y1="40" x2="434.95" y2="220" stroke="#e5e7eb" opacity="0.5"/><line x1="513.94" y1="40" x2="513.94" y2="220" stroke="#e5e7eb" opacity="0.5"/><line x1="592.94" y1="40" x2="592.94" y2="220" stroke="#e5e7eb" opacity="0.5"/><line x1="671.93" y1="40" x2="671.93" y2="220" stroke="#e5e7eb" opacity="0.5"/><line x1="750.92" y1="40" x2="750.92" y2="220" stroke="#e5e7eb" opacity="0.5"/><line x1="829.91" y1="40" x2="829.91" y2="220" stroke="#e5e7eb" opacity="0.5"/>
    <line x1="40" y1="220" x2="860" y2="220" stroke="#9ca3af"/>
    <line x1="40" y1="40"   x2="40"   y2="220" stroke="#9ca3af"/>
    <path d="M 40.00 166.63 L 43.76 166.00 L 47.52 166.00 L 51.28 121.18 L 55.05 115.78 L 58.81 115.78 L 62.57 112.00 L 66.33 108.22 L 70.09 108.22 L 73.85 108.22 L 77.61 108.22 L 81.38 108.22 L 85.14 108.22 L 88.90 108.22 L 92.66 108.22 L 96.42 108.22 L 100.18 108.22 L 103.94 108.22 L 107.71 108.22 L 111.47 108.22 L 115.23 108.22 L 118.99 108.22 L 122.75 109.21 L 126.51 109.12 L 130.28 108.76 L 134.04 108.76 L 137.80 108.76 L 141.56 108.76 L 145.32 108.76 L 149.08 108.76 L 152.84 108.76 L 156.61 108.76 L 160.37 108.76 L 164.13 108.76 L 167.89 108.76 L 171.65 108.76 L 175.41 108.76 L 179.17 108.76 L 182.94 108.76 L 186.70 108.76 L 190.46 108.76 L 194.22 108.76 L 197.98 108.76 L 201.74 108.76 L 205.50 108.76 L 209.27 108.76 L 213.03 108.76 L 216.79 108.76 L 220.55 108.76 L 224.31 108.76 L 228.07 108.76 L 231.83 108.76 L 235.60 108.76 L 239.36 108.76 L 243.12 108.76 L 246.88 108.76 L 250.64 108.76 L 254.40 108.76 L 258.17 108.76 L 261.93 108.76 L 265.69 108.76 L 269.45 108.76 L 273.21 108.76 L 276.97 108.76 L 280.73 108.76 L 284.50 108.76 L 288.26 108.76 L 292.02 108.76 L 295.78 108.76 L 299.54 108.76 L 303.30 108.76 L 307.06 108.76 L 310.83 108.76 L 314.59 108.76 L 318.35 108.76 L 322.11 108.76 L 325.87 108.76 L 329.63 108.76 L 333.39 108.76 L 337.16 108.76 L 340.92 108.76 L 344.68 108.76 L 348.44 108.76 L 352.20 108.76 L 355.96 108.76 L 359.72 108.76 L 363.49 108.76 L 367.25 108.76 L 371.01 108.76 L 374.77 108.76 L 378.53 108.76 L 382.29 108.76 L 386.06 108.76 L 389.82 108.76 L 393.58 108.76 L 397.34 108.76 L 401.10 108.76 L 404.86 108.76 L 408.62 108.76 L 412.39 108.76 L 416.15 108.76 L 419.91 108.76 L 423.67 108.76 L 427.43 108.76 L 431.19 108.76 L 434.95 108.76 L 438.72 108.76 L 442.48 108.76 L 446.24 108.76 L 450.00 108.76 L 453.76 108.76 L 457.52 108.76 L 461.28 108.76 L 465.05 108.76 L 468.81 108.76 L 472.57 108.76 L 476.33 108.76 L 480.09 108.76 L 483.85 108.76 L 487.61 108.76 L 491.38 108.76 L 495.14 108.76 L 498.90 108.76 L 502.66 108.76 L 506.42 108.76 L 510.18 108.76 L 513.94 108.76 L 517.71 108.76 L 521.47 108.76 L 525.23 108.76 L 528.99 108.76 L 532.75 108.76 L 536.51 108.76 L 540.28 108.76 L 544.04 108.76 L 547.80 108.76 L 551.56 108.76 L 555.32 108.76 L 559.08 108.76 L 562.84 108.76 L 566.61 108.76 L 570.37 108.76 L 574.13 108.76 L 577.89 108.94 L 581.65 100.39 L 585.41 81.40 L 589.17 81.40 L 592.94 81.40 L 596.70 81.40 L 600.46 81.40 L 604.22 70.78 L 607.98 70.78 L 611.74 70.78 L 615.50 70.78 L 619.27 70.78 L 623.03 70.78 L 626.79 70.78 L 630.55 70.78 L 634.31 70.78 L 638.07 70.78 L 641.83 70.78 L 645.60 70.78 L 649.36 70.78 L 653.12 70.78 L 656.88 70.78 L 660.64 70.78 L 664.40 70.78 L 668.17 70.78 L 671.93 70.78 L 675.69 70.78 L 679.45 70.78 L 683.21 70.78 L 686.97 70.78 L 690.73 70.78 L 694.50 70.78 L 698.26 70.78 L 702.02 70.78 L 705.78 70.78 L 709.54 70.78 L 713.30 70.78 L 717.06 70.78 L 720.83 70.78 L 724.59 70.78 L 728.35 70.78 L 732.11 70.78 L 735.87 70.78 L 739.63 70.78 L 743.39 70.78 L 747.16 70.78 L 750.92 70.78 L 754.68 70.78 L 758.44 70.78 L 762.20 70.78 L 765.96 70.78 L 769.72 70.78 L 773.49 70.78 L 777.25 70.78 L 781.01 70.78 L 784.77 70.78 L 788.53 70.78 L 792.29 70.78 L 796.06 70.78 L 799.82 70.78 L 803.58 70.78 L 807.34 70.78 L 811.10 70.78 L 814.86 70.78 L 818.62 70.78 L 822.39 70.78 L 826.15 70.78 L 829.91 70.78 L 833.67 70.78 L 837.43 70.78 L 841.19 70.78 L 844.95 70.78 L 848.72 70.78 L 852.48 70.78 L 856.24 70.78 L 860.00 70.78" fill="none" stroke="#111827" stroke-width="2"/>
    <circle cx="860.00" cy="70.78" r="3" fill="#111827"/>
    <text x="40.00" y="235.00" font-size="9" fill="#111827" text-anchor="middle" transform="rotate(-45 40.00 235.00)">28.08.2025</text><text x="118.99" y="235.00" font-size="9" fill="#111827" text-anchor="middle" transform="rotate(-45 118.99 235.00)">28.08.2025</text><text x="197.98" y="235.00" font-size="9" fill="#111827" text-anchor="middle" transform="rotate(-45 197.98 235.00)">11.09.2025</text><text x="276.97" y="235.00" font-size="9" fill="#111827" text-anchor="middle" transform="rotate(-45 276.97 235.00)">26.09.2025</text><text x="355.96" y="235.00" font-size="9" fill="#111827" text-anchor="middle" transform="rotate(-45 355.96 235.00)">16.10.2025</text><text x="434.95" y="235.00" font-size="9" fill="#111827" text-anchor="middle" transform="rotate(-45 434.95 235.00)">04.11.2025</text><text x="513.94" y="235.00" font-size="9" fill="#111827" text-anchor="middle" transform="rotate(-45 513.94 235.00)">24.11.2025</text><text x="592.94" y="235.00" font-size="9" fill="#111827" text-anchor="middle" transform="rotate(-45 592.94 235.00)">05.12.2025</text><text x="671.93" y="235.00" font-size="9" fill="#111827" text-anchor="middle" transform="rotate(-45 671.93 235.00)">19.12.2025</text><text x="750.92" y="235.00" font-size="9" fill="#111827" text-anchor="middle" transform="rotate(-45 750.92 235.00)">08.01.2026</text><text x="829.91" y="235.00" font-size="9" fill="#111827" text-anchor="middle" transform="rotate(-45 829.91 235.00)">27.01.2026</text>
  </g>
</svg>