<svg xmlns="http://www.w3.org/2000/svg" width="900" height="290" style="font-family: -apple-system, BlinkMacSystemFont, 'Segoe UI', Helvetica, Arial, sans-serif;">
  <rect width="100%" height="100%" fill="#0d1117"/>
  <g>
    <line x1="40" y1="220.00" x2="860" y2="220.00" stroke="#30363d"/><text x="32" y="224.00" font-size="10" fill="#c9d1d9" text-anchor="end">0</text><line x1="40" y1="175.00" x2="860" y2="175.00" stroke="#30363d"/><text x="32" y="179.00" font-size="10" fill="#c9d1d9" text-anchor="end">500</text><line x1="40" y1="130.00" x2="860" y2="130.00" stroke="#30363d"/><text x="32" y="134.00" font-size="10" fill="#c9d1d9" text-anchor="end">1k</text><line x1="40" y1="85.00" x2="860" y2="85.00" stroke="#30363d"/><text x="32" y="89.00" font-size="10" fill="#c9d1d9" text-anchor="end">1.5k</text><line x1="40" y1="40.00" x2="860" y2="40.00" stroke="#30363d"/><text x="32" y="44.00" font-size="10" fill="#c9d1d9" text-anchor="end">2k</text>
    <line x1="40.00" y1="40" x2="40.00" y2="220" stroke="#30363d" opacity="0.5"/><line x1="118.10" y1="40" x2="118.10" y2="220" stroke="#30363d" opacity="0.5"/><line x1="196.19" y1="40" x2="196.19" y2="220" stroke="#30363d" opacity="0.5"/><line x1="274.29" y1="40" x2="274.29" y2="220" stroke="#30363d" opacity="0.5"/><line x1="352.38" y1="40" x2="352.38" y2="220" stroke="#30363d" opacity="0.5"/><line x1="430.48" y1="40" x2="430.48" y2="220" stroke="#30363d" opacity="0.5"/><line x1="508.57" y1="40" x2="508.57" y2="220" stroke="#30363d" opacity="0.5"/><line x1="586.67" y1="40" x2="586.67" y2="220" stroke="#30363d" opacity="0.5"/><line x1="664.76" y1="40" x2="664.76" y2="220" stroke="#30363d" opacity="0.5"/><line x1="742.86" y1="40" x2="742.86" y2="220" stroke="#30363d" opacity="0.5"/><line x1="820.95" y1="40" x2="820.95" y2="220" stroke="#30363d" opacity="0.5"/>
    <line x1="40" y1="220" x2="860" y2="220" stroke="#30363d"/>
    <line x1="40" y1="40"   x2="40"   y2="220" stroke="#30363d"/>
    <path d="M 40.00 166.63 L 45.58 166.00 L 51.16 166.00 L 56.73 121.18 L 62.31 115.78 L 67.89 115.78 L 73.47 112.00 L 79.05 108.22 L 84.63 108.22 L 90.20 108.22 L 95.78 108.22 L 101.36 108.22 L 106.94 108.22 L 112.52 108.22 L 118.10 108.22 L 123.67 108.22 L 129.25 108.22 L 134.83 108.22 L 140.41 108.22 L 145.99 108.22 L 151.56 108.22 L 157.14 108.22 L 162.72 109.21 L 168.30 109.12 L 173.88 108.76 L 179.46 108.76 L 185.03 108.76 L 190.61 108.76 L 196.19 108.76 L 201.77 108.76 L 207.35 108.76 L 212.93 108.76 L 218.50 108.76 L 224.08 108.76 L 229.66 108.76 L 235.24 108.76 L 240.82 108.76 L 246.39 108.76 L 251.97 108.76 L 257.55 108.76 L 263.13 108.76 L 268.71 108.76 L 274.29 108.76 L 279.86 108.76 L 285.44 108.76 L 291.02 108.76 L 296.60 108.76 L 302.18 108.76 L 307.76 108.76 L 313.33 108.76 L 318.91 108.76 L 324.49 108.76 L 330.07 108.76 L 335.65 108.76 L 341.22 108.76 L 346.80 108.76 L 352.38 108.76 L 357.96 108.76 L 363.54 108.76 L 369.12 108.76 L 374.69 108.76 L 380.27 108.76 L 385.85 108.76 L 391.43 108.76 L 397.01 108.76 L 402.59 108.76 L 408.16 108.76 L 413.74 108.76 L 419.32 108.76 L 424.90 108.76 L 430.48 108.76 L 436.05 108.76 L 441.63 108.76 L 447.21 108.76 L 452.79 108.76 L 458.37 108.76 L 463.95 108.76 L 469.52 108.76 L 475.10 108.76 L 480.68 108.76 L 486.26 108.76 L 491.84 108.76 L 497.41 108.76 L 502.99 108.76 L 508.57 108.76 L 514.15 108.76 L 519.73 108.76 L 525.31 108.76 L 530.88 108.76 L 536.46 108.76 L 542.04 108.76 L 547.62 108.76 L 553.20 108.76 L 558.78 108.76 L 564.35 108.76 L 569.93 108.76 L 575.51 108.76 L 581.09 108.76 L 586.67 108.76 L 592.24 108.76 L 597.82 108.76 L 603.40 108.76 L 608.98 108.76 L 614.56 108.76 L 620.14 108.76 L 625.71 108.76 L 631.29 108.76 L 636.87 108.76 L 642.45 108.76 L 648.03 108.76 L 653.61 108.76 L 659.18 108.76 L 664.76 108.76 L 670.34 108.76 L 675.92 108.76 L 681.50 108.76 L 687.07 108.76 L 692.65 108.76 L 698.23 108.76 L 703.81 108.76 L 709.39 108.76 L 714.97 108.76 L 720.54 108.76 L 726.12 108.76 L 731.70 108.76 L 737.28 108.76 L 742.86 108.76 L 748.44 108.76 L 754.01 108.76 L 759.59 108.76 L 765.17 108.76 L 770.75 108.76 L 776.33 108.76 L 781.90 108.76 L 787.48 108.76 L 793.06 108.76 L 798.64 108.76 L 804.22 108.76 L 809.80 108.76 L 815.37 108.76 L 820.95 108.76 L 826.53 108.76 L 832.11 108.76 L 837.69 108.94 L 843.27 100.39 L 848.84 81.40 L 854.42 81.40 L 860.00 81.40" fill="none" stroke="#3fb950" stroke-width="2"/>
    <circle cx="860.00" cy="81.40" r="3" fill="#3fb950"/>
    <text x="40.00" y="235.00" font-size="9" fill="#c9d1d9" text-anchor="middle" transform="rotate(-45 40.00 235.00)">28.08.2025</text><text x="118.10" y="235.00" font-size="9" fill="#c9d1d9" text-anchor="middle" transform="rotate(-45 118.10 235.00)">28.08.2025</text><text x="196.19" y="235.00" font-size="9" fill="#c9d1d9" text-anchor="middle" transform="rotate(-45 196.19 235.00)">30.08.2025</text><text x="274.29" y="235.00" font-size="9" fill="#c9d1d9" text-anchor="middle" transform="rotate(-45 274.29 235.00)">11.09.2025</text><text x="352.38" y="235.00" font-size="9" fill="#c9d1d9" text-anchor="middle" transform="rotate(-45 352.38 235.00)">19.09.2025</text><text x="430.48" y="235.00" font-size="9" fill="#c9d1d9" text-anchor="middle" transform="rotate(-45 430.48 235.00)">03.10.2025</text><text x="508.57" y="235.00" font-size="9" fill="#c9d1d9" text-anchor="middle" transform="rotate(-45 508.57 235.00)">16.10.2025</text><text x="586.67" y="235.00" font-size="9" fill="#c9d1d9" text-anchor="middle" transform="rotate(-45 586.67 235.00)">28.10.2025</text><text x="664.76" y="235.00" font-size="9" fill="#c9d1d9" text-anchor="middle" transform="rotate(-45 664.76 235.00)">11.11.2025</text><text x="742.86" y="235.00" font-size="9" fill="#c9d1d9" text-anchor="middle" transform="rotate(-45 742.86 235.00)">24.11.2025</text><text x="820.95" y="235.00" font-size="9" fill="#c9d1d9" text-anchor="middle" transform="rotate(-45 820.95 235.00)">02.12.2025</text>
  </g>
</svg>