<svg xmlns="http://www.w3.org/2000/svg" width="900" height="290" style="font-family: -apple-system, BlinkMacSystemFont, 'Segoe UI', Helvetica, Arial, sans-serif;">
  <rect width="100%" height="100%" fill="#0d1117"/>
  <g>
    <line x1="40" y1="220.00" x2="860" y2="220.00" stroke="#30363d"/><text x="32" y="224.00" font-size="10" fill="#c9d1d9" text-anchor="end">0</text><line x1="40" y1="175.00" x2="860" y2="175.00" stroke="#30363d"/><text x="32" y="179.00" font-size="10" fill="#c9d1d9" text-anchor="end">500</text><line x1="40" y1="130.00" x2="860" y2="130.00" stroke="#30363d"/><text x="32" y="134.00" font-size="10" fill="#c9d1d9" text-anchor="end">1k</text><line x1="40" y1="85.00" x2="860" y2="85.00" stroke="#30363d"/><text x="32" y="89.00" font-size="10" fill="#c9d1d9" text-anchor="end">1.5k</text><line x1="40" y1="40.00" x2="860" y2="40.00" stroke="#30363d"/><text x="32" y="44.00" font-size="10" fill="#c9d1d9" text-anchor="end">2k</text>
    <line x1="40.00" y1="40" x2="40.00" y2="220" stroke="#30363d" opacity="0.5"/><line x1="120.54" y1="40" x2="120.54" y2="220" stroke="#30363d" opacity="0.5"/><line x1="201.07" y1="40" x2="201.07" y2="220" stroke="#30363d" opacity="0.5"/><line x1="281.61" y1="40" x2="281.61" y2="220" stroke="#30363d" opacity="0.5"/><line x1="362.14" y1="40" x2="362.14" y2="220" stroke="#30363d" opacity="0.5"/><line x1="442.68" y1="40" x2="442.68" y2="220" stroke="#30363d" opacity="0.5"/><line x1="523.21" y1="40" x2="523.21" y2="220" stroke="#30363d" opacity="0.5"/><line x1="603.75" y1="40" x2="603.75" y2="220" stroke="#30363d" opacity="0.5"/><line x1="684.29" y1="40" x2="684.29" y2="220" stroke="#30363d" opacity="0.5"/><line x1="764.82" y1="40" x2="764.82" y2="220" stroke="#30363d" opacity="0.5"/><line x1="845.36" y1="40" x2="845.36" y2="220" stroke="#30363d" opacity="0.5"/>
    <line x1="40" y1="220" x2="860" y2="220" stroke="#30363d"/>
    <line x1="40" y1="40"   x2="40"   y2="220" stroke="#30363d"/>
    <path d="M 40.00 166.63 L 43.66 166.00 L 47.32 166.00 L 50.98 121.18 L 54.64 115.78 L 58.30 115.78 L 61.96 112.00 L 65.62 108.22 L 69.29 108.22 L 72.95 108.22 L 76.61 108.22 L 80.27 108.22 L 83.93 108.22 L 87.59 108.22 L 91.25 108.22 L 94.91 108.22 L 98.57 108.22 L 102.23 108.22 L 105.89 108.22 L 109.55 108.22 L 113.21 108.22 L 116.88 108.22 L 120.54 109.21 L 124.20 109.12 L 127.86 108.76 L 131.52 108.76 L 135.18 108.76 L 138.84 108.76 L 142.50 108.76 L 146.16 108.76 L 149.82 108.76 L 153.48 108.76 L 157.14 108.76 L 160.80 108.76 L 164.46 108.76 L 168.12 108.76 L 171.79 108.76 L 175.45 108.76 L 179.11 108.76 L 182.77 108.76 L 186.43 108.76 L 190.09 108.76 L 193.75 108.76 L 197.41 108.76 L 201.07 108.76 L 204.73 108.76 L 208.39 108.76 L 212.05 108.76 L 215.71 108.76 L 219.38 108.76 L 223.04 108.76 L 226.70 108.76 L 230.36 108.76 L 234.02 108.76 L 237.68 108.76 L 241.34 108.76 L 245.00 108.76 L 248.66 108.76 L 252.32 108.76 L 255.98 108.76 L 259.64 108.76 L 263.30 108.76 L 266.96 108.76 L 270.62 108.76 L 274.29 108.76 L 277.95 108.76 L 281.61 108.76 L 285.27 108.76 L 288.93 108.76 L 292.59 108.76 L 296.25 108.76 L 299.91 108.76 L 303.57 108.76 L 307.23 108.76 L 310.89 108.76 L 314.55 108.76 L 318.21 108.76 L 321.88 108.76 L 325.54 108.76 L 329.20 108.76 L 332.86 108.76 L 336.52 108.76 L 340.18 108.76 L 343.84 108.76 L 347.50 108.76 L 351.16 108.76 L 354.82 108.76 L 358.48 108.76 L 362.14 108.76 L 365.80 108.76 L 369.46 108.76 L 373.12 108.76 L 376.79 108.76 L 380.45 108.76 L 384.11 108.76 L 387.77 108.76 L 391.43 108.76 L 395.09 108.76 L 398.75 108.76 L 402.41 108.76 L 406.07 108.76 L 409.73 108.76 L 413.39 108.76 L 417.05 108.76 L 420.71 108.76 L 424.38 108.76 L 428.04 108.76 L 431.70 108.76 L 435.36 108.76 L 439.02 108.76 L 442.68 108.76 L 446.34 108.76 L 450.00 108.76 L 453.66 108.76 L 457.32 108.76 L 460.98 108.76 L 464.64 108.76 L 468.30 108.76 L 471.96 108.76 L 475.62 108.76 L 479.29 108.76 L 482.95 108.76 L 486.61 108.76 L 490.27 108.76 L 493.93 108.76 L 497.59 108.76 L 501.25 108.76 L 504.91 108.76 L 508.57 108.76 L 512.23 108.76 L 515.89 108.76 L 519.55 108.76 L 523.21 108.76 L 526.88 108.76 L 530.54 108.76 L 534.20 108.76 L 537.86 108.76 L 541.52 108.76 L 545.18 108.76 L 548.84 108.76 L 552.50 108.76 L 556.16 108.76 L 559.82 108.76 L 563.48 108.94 L 567.14 100.39 L 570.80 81.40 L 574.46 81.40 L 578.12 81.40 L 581.79 81.40 L 585.45 81.40 L 589.11 70.78 L 592.77 70.78 L 596.43 70.78 L 600.09 70.78 L 603.75 70.78 L 607.41 70.78 L 611.07 70.78 L 614.73 70.78 L 618.39 70.78 L 622.05 70.78 L 625.71 70.78 L 629.38 70.78 L 633.04 70.78 L 636.70 70.78 L 640.36 70.78 L 644.02 70.78 L 647.68 70.78 L 651.34 70.78 L 655.00 70.78 L 658.66 70.78 L 662.32 70.78 L 665.98 70.78 L 669.64 70.78 L 673.30 70.78 L 676.96 70.78 L 680.62 70.78 L 684.29 70.78 L 687.95 70.78 L 691.61 70.78 L 695.27 70.78 L 698.93 70.78 L 702.59 70.78 L 706.25 70.78 L 709.91 70.78 L 713.57 70.78 L 717.23 70.78 L 720.89 70.78 L 724.55 70.78 L 728.21 70.78 L 731.88 70.78 L 735.54 70.78 L 739.20 70.78 L 742.86 70.78 L 746.52 70.78 L 750.18 70.78 L 753.84 70.78 L 757.50 70.78 L 761.16 70.78 L 764.82 70.78 L 768.48 70.78 L 772.14 70.78 L 775.80 70.78 L 779.46 70.78 L 783.12 70.78 L 786.79 70.78 L 790.45 70.78 L 794.11 70.78 L 797.77 70.78 L 801.43 70.78 L 805.09 70.78 L 808.75 70.78 L 812.41 70.78 L 816.07 70.78 L 819.73 70.78 L 823.39 70.78 L 827.05 70.78 L 830.71 70.78 L 834.38 70.78 L 838.04 70.78 L 841.70 70.78 L 845.36 70.78 L 849.02 70.78 L 852.68 70.78 L 856.34 70.78 L 860.00 70.78" fill="none" stroke="#3fb950" stroke-width="2"/>
    <circle cx="860.00" cy="70.78" r="3" fill="#3fb950"/>
    <text x="40.00" y="235.00" font-size="9" fill="#c9d1d9" text-anchor="middle" transform="rotate(-45 40.00 235.00)">28.08.2025</text><text x="120.54" y="235.00" font-size="9" fill="#c9d1d9" text-anchor="middle" transform="rotate(-45 120.54 235.00)">28.08.2025</text><text x="201.07" y="235.00" font-size="9" fill="#c9d1d9" text-anchor="middle" transform="rotate(-45 201.07 235.00)">13.09.2025</text><text x="281.61" y="235.00" font-size="9" fill="#c9d1d9" text-anchor="middle" transform="rotate(-45 281.61 235.00)">29.09.2025</text><text x="362.14" y="235.00" font-size="9" fill="#c9d1d9" text-anchor="middle" transform="rotate(-45 362.14 235.00)">20.10.2025</text><text x="442.68" y="235.00" font-size="9" fill="#c9d1d9" text-anchor="middle" transform="rotate(-45 442.68 235.00)">09.11.2025</text><text x="523.21" y="235.00" font-size="9" fill="#c9d1d9" text-anchor="middle" transform="rotate(-45 523.21 235.00)">28.11.2025</text><text x="603.75" y="235.00" font-size="9" fill="#c9d1d9" text-anchor="middle" transform="rotate(-45 603.75 235.00)">11.12.2025</text><text x="684.29" y="235.00" font-size="9" fill="#c9d1d9" text-anchor="middle" transform="rotate(-45 684.29 235.00)">26.12.2025</text><text x="764.82" y="235.00" font-size="9" fill="#c9d1d9" text-anchor="middle" transform="rotate(-45 764.82 235.00)">15.01.2026</text><text x="845.36" y="235.00" font-size="9" fill="#c9d1d9" text-anchor="middle" transform="rotate(-45 845.36 235.00)">06.02.2026</text>
  </g>
</svg>