<svg xmlns="http://www.w3.org/2000/svg" width="900" height="290" style="font-family: -apple-system, BlinkMacSystemFont, 'Segoe UI', Helvetica, Arial, sans-serif;">
  <rect width="100%" height="100%" fill="white"/>
  <g>
    <line x1="40" y1="220.00" x2="860" y2="220.00" stroke="#e5e7eb"/><text x="32" y="224.00" font-size="10" fill="#111827" text-anchor="end">0</text><line x1="40" y1="175.00" x2="860" y2="175.00" stroke="#e5e7eb"/><text x="32" y="179.00" font-size="10" fill="#111827" text-anchor="end">500</text><line x1="40" y1="130.00" x2="860" y2="130.00" stroke="#e5e7eb"/><text x="32" y="134.00" font-size="10" fill="#111827" text-anchor="end">1k</text><line x1="40" y1="85.00" x2="860" y2="85.00" stroke="#e5e7eb"/><text x="32" y="89.00" font-size="10" fill="#111827" text-anchor="end">1.5k</text><line x1="40" y1="40.00" x2="860" y2="40.00" stroke="#e5e7eb"/><text x="32" y="44.00" font-size="10" fill="#111827" text-anchor="end">2k</text>
    <line x1="40.00" y1="40" x2="40.00" y2="220" stroke="#e5e7eb" opacity="0.5"/><line x1="117.36" y1="40" x2="117.36" y2="220" stroke="#e5e7eb" opacity="0.5"/><line x1="194.72" y1="40" x2="194.72" y2="220" stroke="#e5e7eb" opacity="0.5"/><line x1="272.08" y1="40" x2="272.08" y2="220" stroke="#e5e7eb" opacity="0.5"/><line x1="349.43" y1="40" x2="349.43" y2="220" stroke="#e5e7eb" opacity="0.5"/><line x1="426.79" y1="40" x2="426.79" y2="220" stroke="#e5e7eb" opacity="0.5"/><line x1="504.15" y1="40" x2="504.15" y2="220" stroke="#e5e7eb" opacity="0.5"/><line x1="581.51" y1="40" x2="581.51" y2="220" stroke="#e5e7eb" opacity="0.5"/><line x1="658.87" y1="40" x2="658.87" y2="220" stroke="#e5e7eb" opacity="0.5"/><line x1="736.23" y1="40" x2="736.23" y2="220" stroke="#e5e7eb" opacity="0.5"/><line x1="813.58" y1="40" x2="813.58" y2="220" stroke="#e5e7eb" opacity="0.5"/>
    <line x1="40" y1="220" x2="860" y2="220" stroke="#9ca3af"/>
    <line x1="40" y1="40"   x2="40"   y2="220" stroke="#9ca3af"/>
    <path d="M 40.00 166.63 L 47.74 166.00 L 55.47 166.00 L 63.21 121.18 L 70.94 115.78 L 78.68 115.78 L 86.42 112.00 L 94.15 108.22 L 101.89 108.22 L 109.62 108.22 L 117.36 108.22 L 125.09 108.22 L 132.83 108.22 L 140.57 108.22 L 148.30 108.22 L 156.04 108.22 L 163.77 108.22 L 171.51 108.22 L 179.25 108.22 L 186.98 108.22 L 194.72 108.22 L 202.45 108.22 L 210.19 109.21 L 217.92 109.12 L 225.66 108.76 L 233.40 108.76 L 241.13 108.76 L 248.87 108.76 L 256.60 108.76 L 264.34 108.76 L 272.08 108.76 L 279.81 108.76 L 287.55 108.76 L 295.28 108.76 L 303.02 108.76 L 310.75 108.76 L 318.49 108.76 L 326.23 108.76 L 333.96 108.76 L 341.70 108.76 L 349.43 108.76 L 357.17 108.76 L 364.91 108.76 L 372.64 108.76 L 380.38 108.76 L 388.11 108.76 L 395.85 108.76 L 403.58 108.76 L 411.32 108.76 L 419.06 108.76 L 426.79 108.76 L 434.53 108.76 L 442.26 108.76 L 450.00 108.76 L 457.74 108.76 L 465.47 108.76 L 473.21 108.76 L 480.94 108.76 L 488.68 108.76 L 496.42 108.76 L 504.15 108.76 L 511.89 108.76 L 519.62 108.76 L 527.36 108.76 L 535.09 108.76 L 542.83 108.76 L 550.57 108.76 L 558.30 108.76 L 566.04 108.76 L 573.77 108.76 L 581.51 108.76 L 589.25 108.76 L 596.98 108.76 L 604.72 108.76 L 612.45 108.76 L 620.19 108.76 L 627.92 108.76 L 635.66 108.76 L 643.40 108.76 L 651.13 108.76 L 658.87 108.76 L 666.60 108.76 L 674.34 108.76 L 682.08 108.76 L 689.81 108.76 L 697.55 108.76 L 705.28 108.76 L 713.02 108.76 L 720.75 108.76 L 728.49 108.76 L 736.23 108.76 L 743.96 108.76 L 751.70 108.76 L 759.43 108.76 L 767.17 108.76 L 774.91 108.76 L 782.64 108.76 L 790.38 108.76 L 798.11 108.76 L 805.85 108.76 L 813.58 108.76 L 821.32 108.76 L 829.06 108.76 L 836.79 108.76 L 844.53 108.76 L 852.26 108.76 L 860.00 108.76" fill="none" stroke="#111827" stroke-width="2"/>
    <circle cx="860.00" cy="108.76" r="3" fill="#111827"/>
    <text x="40.00" y="235.00" font-size="9" fill="#111827" text-anchor="middle" transform="rotate(-45 40.00 235.00)">28.08.2025</text><text x="117.36" y="235.00" font-size="9" fill="#111827" text-anchor="middle" transform="rotate(-45 117.36 235.00)">28.08.2025</text><text x="194.72" y="235.00" font-size="9" fill="#111827" text-anchor="middle" transform="rotate(-45 194.72 235.00)">28.08.2025</text><text x="272.08" y="235.00" font-size="9" fill="#111827" text-anchor="middle" transform="rotate(-45 272.08 235.00)">01.09.2025</text><text x="349.43" y="235.00" font-size="9" fill="#111827" text-anchor="middle" transform="rotate(-45 349.43 235.00)">09.09.2025</text><text x="426.79" y="235.00" font-size="9" fill="#111827" text-anchor="middle" transform="rotate(-45 426.79 235.00)">15.09.2025</text><text x="504.15" y="235.00" font-size="9" fill="#111827" text-anchor="middle" transform="rotate(-45 504.15 235.00)">25.09.2025</text><text x="581.51" y="235.00" font-size="9" fill="#111827" text-anchor="middle" transform="rotate(-45 581.51 235.00)">05.10.2025</text><text x="658.87" y="235.00" font-size="9" fill="#111827" text-anchor="middle" transform="rotate(-45 658.87 235.00)">15.10.2025</text><text x="736.23" y="235.00" font-size="9" fill="#111827" text-anchor="middle" transform="rotate(-45 736.23 235.00)">25.10.2025</text><text x="813.58" y="235.00" font-size="9" fill="#111827" text-anchor="middle" transform="rotate(-45 813.58 235.00)">04.11.2025</text>
  </g>
</svg>