<svg xmlns="http://www.w3.org/2000/svg" width="900" height="290" style="font-family: -apple-system, BlinkMacSystemFont, 'Segoe UI', Helvetica, Arial, sans-serif;">
  <rect width="100%" height="100%" fill="#0d1117"/>
  <g>
    <line x1="40" y1="220.00" x2="860" y2="220.00" stroke="#30363d"/><text x="32" y="224.00" font-size="10" fill="#c9d1d9" text-anchor="end">0</text><line x1="40" y1="175.00" x2="860" y2="175.00" stroke="#30363d"/><text x="32" y="179.00" font-size="10" fill="#c9d1d9" text-anchor="end">500</text><line x1="40" y1="130.00" x2="860" y2="130.00" stroke="#30363d"/><text x="32" y="134.00" font-size="10" fill="#c9d1d9" text-anchor="end">1k</text><line x1="40" y1="85.00" x2="860" y2="85.00" stroke="#30363d"/><text x="32" y="89.00" font-size="10" fill="#c9d1d9" text-anchor="end">1.5k</text><line x1="40" y1="40.00" x2="860" y2="40.00" stroke="#30363d"/><text x="32" y="44.00" font-size="10" fill="#c9d1d9" text-anchor="end">2k</text>
    <line x1="40.00" y1="40" x2="40.00" y2="220" stroke="#30363d" opacity="0.5"/><line x1="119.52" y1="40" x2="119.52" y2="220" stroke="#30363d" opacity="0.5"/><line x1="199.03" y1="40" x2="199.03" y2="220" stroke="#30363d" opacity="0.5"/><line x1="278.55" y1="40" x2="278.55" y2="220" stroke="#30363d" opacity="0.5"/><line x1="358.06" y1="40" x2="358.06" y2="220" stroke="#30363d" opacity="0.5"/><line x1="437.58" y1="40" x2="437.58" y2="220" stroke="#30363d" opacity="0.5"/><line x1="517.09" y1="40" x2="517.09" y2="220" stroke="#30363d" opacity="0.5"/><line x1="596.61" y1="40" x2="596.61" y2="220" stroke="#30363d" opacity="0.5"/><line x1="676.12" y1="40" x2="676.12" y2="220" stroke="#30363d" opacity="0.5"/><line x1="755.64" y1="40" x2="755.64" y2="220" stroke="#30363d" opacity="0.5"/><line x1="835.15" y1="40" x2="835.15" y2="220" stroke="#30363d" opacity="0.5"/>
    <line x1="40" y1="220" x2="860" y2="220" stroke="#30363d"/>
    <line x1="40" y1="40"   x2="40"   y2="220" stroke="#30363d"/>
    <path d="M 40.00 166.63 L 44.97 166.00 L 49.94 166.00 L 54.91 121.18 L 59.88 115.78 L 64.85 115.78 L 69.82 112.00 L 74.79 108.22 L 79.76 108.22 L 84.73 108.22 L 89.70 108.22 L 94.67 108.22 L 99.64 108.22 L 104.61 108.22 L 109.58 108.22 L 114.55 108.22 L 119.52 108.22 L 124.48 108.22 L 129.45 108.22 L 134.42 108.22 L 139.39 108.22 L 144.36 108.22 L 149.33 109.21 L 154.30 109.12 L 159.27 108.76 L 164.24 108.76 L 169.21 108.76 L 174.18 108.76 L 179.15 108.76 L 184.12 108.76 L 189.09 108.76 L 194.06 108.76 L 199.03 108.76 L 204.00 108.76 L 208.97 108.76 L 213.94 108.76 L 218.91 108.76 L 223.88 108.76 L 228.85 108.76 L 233.82 108.76 L 238.79 108.76 L 243.76 108.76 L 248.73 108.76 L 253.70 108.76 L 258.67 108.76 L 263.64 108.76 L 268.61 108.76 L 273.58 108.76 L 278.55 108.76 L 283.52 108.76 L 288.48 108.76 L 293.45 108.76 L 298.42 108.76 L 303.39 108.76 L 308.36 108.76 L 313.33 108.76 L 318.30 108.76 L 323.27 108.76 L 328.24 108.76 L 333.21 108.76 L 338.18 108.76 L 343.15 108.76 L 348.12 108.76 L 353.09 108.76 L 358.06 108.76 L 363.03 108.76 L 368.00 108.76 L 372.97 108.76 L 377.94 108.76 L 382.91 108.76 L 387.88 108.76 L 392.85 108.76 L 397.82 108.76 L 402.79 108.76 L 407.76 108.76 L 412.73 108.76 L 417.70 108.76 L 422.67 108.76 L 427.64 108.76 L 432.61 108.76 L 437.58 108.76 L 442.55 108.76 L 447.52 108.76 L 452.48 108.76 L 457.45 108.76 L 462.42 108.76 L 467.39 108.76 L 472.36 108.76 L 477.33 108.76 L 482.30 108.76 L 487.27 108.76 L 492.24 108.76 L 497.21 108.76 L 502.18 108.76 L 507.15 108.76 L 512.12 108.76 L 517.09 108.76 L 522.06 108.76 L 527.03 108.76 L 532.00 108.76 L 536.97 108.76 L 541.94 108.76 L 546.91 108.76 L 551.88 108.76 L 556.85 108.76 L 561.82 108.76 L 566.79 108.76 L 571.76 108.76 L 576.73 108.76 L 581.70 108.76 L 586.67 108.76 L 591.64 108.76 L 596.61 108.76 L 601.58 108.76 L 606.55 108.76 L 611.52 108.76 L 616.48 108.76 L 621.45 108.76 L 626.42 108.76 L 631.39 108.76 L 636.36 108.76 L 641.33 108.76 L 646.30 108.76 L 651.27 108.76 L 656.24 108.76 L 661.21 108.76 L 666.18 108.76 L 671.15 108.76 L 676.12 108.76 L 681.09 108.76 L 686.06 108.76 L 691.03 108.76 L 696.00 108.76 L 700.97 108.76 L 705.94 108.76 L 710.91 108.76 L 715.88 108.76 L 720.85 108.76 L 725.82 108.76 L 730.79 108.76 L 735.76 108.76 L 740.73 108.76 L 745.70 108.76 L 750.67 108.94 L 755.64 100.39 L 760.61 81.40 L 765.58 81.40 L 770.55 81.40 L 775.52 81.40 L 780.48 81.40 L 785.45 70.78 L 790.42 70.78 L 795.39 70.78 L 800.36 70.78 L 805.33 70.78 L 810.30 70.78 L 815.27 70.78 L 820.24 70.78 L 825.21 70.78 L 830.18 70.78 L 835.15 70.78 L 840.12 70.78 L 845.09 70.78 L 850.06 70.78 L 855.03 70.78 L 860.00 70.78" fill="none" stroke="#3fb950" stroke-width="2"/>
    <circle cx="860.00" cy="70.78" r="3" fill="#3fb950"/>
    <text x="40.00" y="235.00" font-size="9" fill="#c9d1d9" text-anchor="middle" transform="rotate(-45 40.00 235.00)">28.08.2025</text><text x="119.52" y="235.00" font-size="9" fill="#c9d1d9" text-anchor="middle" transform="rotate(-45 119.52 235.00)">28.08.2025</text><text x="199.03" y="235.00" font-size="9" fill="#c9d1d9" text-anchor="middle" transform="rotate(-45 199.03 235.00)">03.09.2025</text><text x="278.55" y="235.00" font-size="9" fill="#c9d1d9" text-anchor="middle" transform="rotate(-45 278.55 235.00)">15.09.2025</text><text x="358.06" y="235.00" font-size="9" fill="#c9d1d9" text-anchor="middle" transform="rotate(-45 358.06 235.00)">27.09.2025</text><text x="437.58" y="235.00" font-size="9" fill="#c9d1d9" text-anchor="middle" transform="rotate(-45 437.58 235.00)">12.10.2025</text><text x="517.09" y="235.00" font-size="9" fill="#c9d1d9" text-anchor="middle" transform="rotate(-45 517.09 235.00)">27.10.2025</text><text x="596.61" y="235.00" font-size="9" fill="#c9d1d9" text-anchor="middle" transform="rotate(-45 596.61 235.00)">11.11.2025</text><text x="676.12" y="235.00" font-size="9" fill="#c9d1d9" text-anchor="middle" transform="rotate(-45 676.12 235.00)">26.11.2025</text><text x="755.64" y="235.00" font-size="9" fill="#c9d1d9" text-anchor="middle" transform="rotate(-45 755.64 235.00)">04.12.2025</text><text x="835.15" y="235.00" font-size="9" fill="#c9d1d9" text-anchor="middle" transform="rotate(-45 835.15 235.00)">12.12.2025</text>
  </g>
</svg>