<svg xmlns="http://www.w3.org/2000/svg" width="900" height="290" style="font-family: -apple-system, BlinkMacSystemFont, 'Segoe UI', Helvetica, Arial, sans-serif;">
  <rect width="100%" height="100%" fill="#0d1117"/>
  <g>
    <line x1="40" y1="220.00" x2="860" y2="220.00" stroke="#30363d"/><text x="32" y="224.00" font-size="10" fill="#c9d1d9" text-anchor="end">0</text><line x1="40" y1="175.00" x2="860" y2="175.00" stroke="#30363d"/><text x="32" y="179.00" font-size="10" fill="#c9d1d9" text-anchor="end">500</text><line x1="40" y1="130.00" x2="860" y2="130.00" stroke="#30363d"/><text x="32" y="134.00" font-size="10" fill="#c9d1d9" text-anchor="end">1k</text><line x1="40" y1="85.00" x2="860" y2="85.00" stroke="#30363d"/><text x="32" y="89.00" font-size="10" fill="#c9d1d9" text-anchor="end">1.5k</text><line x1="40" y1="40.00" x2="860" y2="40.00" stroke="#30363d"/><text x="32" y="44.00" font-size="10" fill="#c9d1d9" text-anchor="end">2k</text>
    <line x1="40.00" y1="40" x2="40.00" y2="220" stroke="#30363d" opacity="0.5"/><line x1="106.49" y1="40" x2="106.49" y2="220" stroke="#30363d" opacity="0.5"/><line x1="172.97" y1="40" x2="172.97" y2="220" stroke="#30363d" opacity="0.5"/><line x1="239.46" y1="40" x2="239.46" y2="220" stroke="#30363d" opacity="0.5"/><line x1="305.95" y1="40" x2="305.95" y2="220" stroke="#30363d" opacity="0.5"/><line x1="372.43" y1="40" x2="372.43" y2="220" stroke="#30363d" opacity="0.5"/><line x1="438.92" y1="40" x2="438.92" y2="220" stroke="#30363d" opacity="0.5"/><line x1="505.41" y1="40" x2="505.41" y2="220" stroke="#30363d" opacity="0.5"/><line x1="571.89" y1="40" x2="571.89" y2="220" stroke="#30363d" opacity="0.5"/><line x1="638.38" y1="40" x2="638.38" y2="220" stroke="#30363d" opacity="0.5"/><line x1="704.86" y1="40" x2="704.86" y2="220" stroke="#30363d" opacity="0.5"/><line x1="771.35" y1="40" x2="771.35" y2="220" stroke="#30363d" opacity="0.5"/><line x1="837.84" y1="40" x2="837.84" y2="220" stroke="#30363d" opacity="0.5"/>
    <line x1="40" y1="220" x2="860" y2="220" stroke="#30363d"/>
    <line x1="40" y1="40"   x2="40"   y2="220" stroke="#30363d"/>
    <path d="M 40.00 166.63 L 62.16 166.00 L 84.32 166.00 L 106.49 121.18 L 128.65 115.78 L 150.81 115.78 L 172.97 112.00 L 195.14 108.22 L 217.30 108.22 L 239.46 108.22 L 261.62 108.22 L 283.78 108.22 L 305.95 108.22 L 328.11 108.22 L 350.27 108.22 L 372.43 108.22 L 394.59 108.22 L 416.76 108.22 L 438.92 108.22 L 461.08 108.22 L 483.24 108.22 L 505.41 108.22 L 527.57 109.21 L 549.73 109.12 L 571.89 108.76 L 594.05 108.76 L 616.22 108.76 L 638.38 108.76 L 660.54 108.76 L 682.70 108.76 L 704.86 108.76 L 727.03 108.76 L 749.19 108.76 L 771.35 108.76 L 793.51 108.76 L 815.68 108.76 L 837.84 108.76 L 860.00 108.76" fill="none" stroke="#3fb950" stroke-width="2"/>
    <circle cx="860.00" cy="108.76" r="3" fill="#3fb950"/>
    <text x="40.00" y="235.00" font-size="9" fill="#c9d1d9" text-anchor="middle" transform="rotate(-45 40.00 235.00)">28.08.2025</text><text x="106.49" y="235.00" font-size="9" fill="#c9d1d9" text-anchor="middle" transform="rotate(-45 106.49 235.00)">28.08.2025</text><text x="172.97" y="235.00" font-size="9" fill="#c9d1d9" text-anchor="middle" transform="rotate(-45 172.97 235.00)">28.08.2025</text><text x="239.46" y="235.00" font-size="9" fill="#c9d1d9" text-anchor="middle" transform="rotate(-45 239.46 235.00)">28.08.2025</text><text x="305.95" y="235.00" font-size="9" fill="#c9d1d9" text-anchor="middle" transform="rotate(-45 305.95 235.00)">28.08.2025</text><text x="372.43" y="235.00" font-size="9" fill="#c9d1d9" text-anchor="middle" transform="rotate(-45 372.43 235.00)">28.08.2025</text><text x="438.92" y="235.00" font-size="9" fill="#c9d1d9" text-anchor="middle" transform="rotate(-45 438.92 235.00)">28.08.2025</text><text x="505.41" y="235.00" font-size="9" fill="#c9d1d9" text-anchor="middle" transform="rotate(-45 505.41 235.00)">28.08.2025</text><text x="571.89" y="235.00" font-size="9" fill="#c9d1d9" text-anchor="middle" transform="rotate(-45 571.89 235.00)">28.08.2025</text><text x="638.38" y="235.00" font-size="9" fill="#c9d1d9" text-anchor="middle" transform="rotate(-45 638.38 235.00)">29.08.2025</text><text x="704.86" y="235.00" font-size="9" fill="#c9d1d9" text-anchor="middle" transform="rotate(-45 704.86 235.00)">01.09.2025</text><text x="771.35" y="235.00" font-size="9" fill="#c9d1d9" text-anchor="middle" transform="rotate(-45 771.35 235.00)">04.09.2025</text><text x="837.84" y="235.00" font-size="9" fill="#c9d1d9" text-anchor="middle" transform="rotate(-45 837.84 235.00)">07.09.2025</text>
  </g>
</svg>