<svg xmlns="http://www.w3.org/2000/svg" width="900" height="290" style="font-family: -apple-system, BlinkMacSystemFont, 'Segoe UI', Helvetica, Arial, sans-serif;">
  <rect width="100%" height="100%" fill="#0d1117"/>
  <g>
    <line x1="40" y1="220.00" x2="860" y2="220.00" stroke="#30363d"/><text x="32" y="224.00" font-size="10" fill="#c9d1d9" text-anchor="end">0</text><line x1="40" y1="175.00" x2="860" y2="175.00" stroke="#30363d"/><text x="32" y="179.00" font-size="10" fill="#c9d1d9" text-anchor="end">500</text><line x1="40" y1="130.00" x2="860" y2="130.00" stroke="#30363d"/><text x="32" y="134.00" font-size="10" fill="#c9d1d9" text-anchor="end">1k</text><line x1="40" y1="85.00" x2="860" y2="85.00" stroke="#30363d"/><text x="32" y="89.00" font-size="10" fill="#c9d1d9" text-anchor="end">1.5k</text><line x1="40" y1="40.00" x2="860" y2="40.00" stroke="#30363d"/><text x="32" y="44.00" font-size="10" fill="#c9d1d9" text-anchor="end">2k</text>
    <line x1="40.00" y1="40" x2="40.00" y2="220" stroke="#30363d" opacity="0.5"/><line x1="120.92" y1="40" x2="120.92" y2="220" stroke="#30363d" opacity="0.5"/><line x1="201.84" y1="40" x2="201.84" y2="220" stroke="#30363d" opacity="0.5"/><line x1="282.76" y1="40" x2="282.76" y2="220" stroke="#30363d" opacity="0.5"/><line x1="363.68" y1="40" x2="363.68" y2="220" stroke="#30363d" opacity="0.5"/><line x1="444.61" y1="40" x2="444.61" y2="220" stroke="#30363d" opacity="0.5"/><line x1="525.53" y1="40" x2="525.53" y2="220" stroke="#30363d" opacity="0.5"/><line x1="606.45" y1="40" x2="606.45" y2="220" stroke="#30363d" opacity="0.5"/><line x1="687.37" y1="40" x2="687.37" y2="220" stroke="#30363d" opacity="0.5"/><line x1="768.29" y1="40" x2="768.29" y2="220" stroke="#30363d" opacity="0.5"/><line x1="849.21" y1="40" x2="849.21" y2="220" stroke="#30363d" opacity="0.5"/>
    <line x1="40" y1="220" x2="860" y2="220" stroke="#30363d"/>
    <line x1="40" y1="40"   x2="40"   y2="220" stroke="#30363d"/>
    <path d="M 40.00 166.63 L 45.39 166.00 L 50.79 166.00 L 56.18 121.18 L 61.58 115.78 L 66.97 115.78 L 72.37 112.00 L 77.76 108.22 L 83.16 108.22 L 88.55 108.22 L 93.95 108.22 L 99.34 108.22 L 104.74 108.22 L 110.13 108.22 L 115.53 108.22 L 120.92 108.22 L 126.32 108.22 L 131.71 108.22 L 137.11 108.22 L 142.50 108.22 L 147.89 108.22 L 153.29 108.22 L 158.68 109.21 L 164.08 109.12 L 169.47 108.76 L 174.87 108.76 L 180.26 108.76 L 185.66 108.76 L 191.05 108.76 L 196.45 108.76 L 201.84 108.76 L 207.24 108.76 L 212.63 108.76 L 218.03 108.76 L 223.42 108.76 L 228.82 108.76 L 234.21 108.76 L 239.61 108.76 L 245.00 108.76 L 250.39 108.76 L 255.79 108.76 L 261.18 108.76 L 266.58 108.76 L 271.97 108.76 L 277.37 108.76 L 282.76 108.76 L 288.16 108.76 L 293.55 108.76 L 298.95 108.76 L 304.34 108.76 L 309.74 108.76 L 315.13 108.76 L 320.53 108.76 L 325.92 108.76 L 331.32 108.76 L 336.71 108.76 L 342.11 108.76 L 347.50 108.76 L 352.89 108.76 L 358.29 108.76 L 363.68 108.76 L 369.08 108.76 L 374.47 108.76 L 379.87 108.76 L 385.26 108.76 L 390.66 108.76 L 396.05 108.76 L 401.45 108.76 L 406.84 108.76 L 412.24 108.76 L 417.63 108.76 L 423.03 108.76 L 428.42 108.76 L 433.82 108.76 L 439.21 108.76 L 444.61 108.76 L 450.00 108.76 L 455.39 108.76 L 460.79 108.76 L 466.18 108.76 L 471.58 108.76 L 476.97 108.76 L 482.37 108.76 L 487.76 108.76 L 493.16 108.76 L 498.55 108.76 L 503.95 108.76 L 509.34 108.76 L 514.74 108.76 L 520.13 108.76 L 525.53 108.76 L 530.92 108.76 L 536.32 108.76 L 541.71 108.76 L 547.11 108.76 L 552.50 108.76 L 557.89 108.76 L 563.29 108.76 L 568.68 108.76 L 574.08 108.76 L 579.47 108.76 L 584.87 108.76 L 590.26 108.76 L 595.66 108.76 L 601.05 108.76 L 606.45 108.76 L 611.84 108.76 L 617.24 108.76 L 622.63 108.76 L 628.03 108.76 L 633.42 108.76 L 638.82 108.76 L 644.21 108.76 L 649.61 108.76 L 655.00 108.76 L 660.39 108.76 L 665.79 108.76 L 671.18 108.76 L 676.58 108.76 L 681.97 108.76 L 687.37 108.76 L 692.76 108.76 L 698.16 108.76 L 703.55 108.76 L 708.95 108.76 L 714.34 108.76 L 719.74 108.76 L 725.13 108.76 L 730.53 108.76 L 735.92 108.76 L 741.32 108.76 L 746.71 108.76 L 752.11 108.76 L 757.50 108.76 L 762.89 108.76 L 768.29 108.76 L 773.68 108.76 L 779.08 108.76 L 784.47 108.76 L 789.87 108.76 L 795.26 108.76 L 800.66 108.76 L 806.05 108.76 L 811.45 108.94 L 816.84 100.39 L 822.24 81.40 L 827.63 81.40 L 833.03 81.40 L 838.42 81.40 L 843.82 81.40 L 849.21 70.78 L 854.61 70.78 L 860.00 70.78" fill="none" stroke="#3fb950" stroke-width="2"/>
    <circle cx="860.00" cy="70.78" r="3" fill="#3fb950"/>
    <text x="40.00" y="235.00" font-size="9" fill="#c9d1d9" text-anchor="middle" transform="rotate(-45 40.00 235.00)">28.08.2025</text><text x="120.92" y="235.00" font-size="9" fill="#c9d1d9" text-anchor="middle" transform="rotate(-45 120.92 235.00)">28.08.2025</text><text x="201.84" y="235.00" font-size="9" fill="#c9d1d9" text-anchor="middle" transform="rotate(-45 201.84 235.00)">01.09.2025</text><text x="282.76" y="235.00" font-size="9" fill="#c9d1d9" text-anchor="middle" transform="rotate(-45 282.76 235.00)">14.09.2025</text><text x="363.68" y="235.00" font-size="9" fill="#c9d1d9" text-anchor="middle" transform="rotate(-45 363.68 235.00)">23.09.2025</text><text x="444.61" y="235.00" font-size="9" fill="#c9d1d9" text-anchor="middle" transform="rotate(-45 444.61 235.00)">07.10.2025</text><text x="525.53" y="235.00" font-size="9" fill="#c9d1d9" text-anchor="middle" transform="rotate(-45 525.53 235.00)">22.10.2025</text><text x="606.45" y="235.00" font-size="9" fill="#c9d1d9" text-anchor="middle" transform="rotate(-45 606.45 235.00)">04.11.2025</text><text x="687.37" y="235.00" font-size="9" fill="#c9d1d9" text-anchor="middle" transform="rotate(-45 687.37 235.00)">19.11.2025</text><text x="768.29" y="235.00" font-size="9" fill="#c9d1d9" text-anchor="middle" transform="rotate(-45 768.29 235.00)">28.11.2025</text><text x="849.21" y="235.00" font-size="9" fill="#c9d1d9" text-anchor="middle" transform="rotate(-45 849.21 235.00)">07.12.2025</text>
  </g>
</svg>