<svg xmlns="http://www.w3.org/2000/svg" width="900" height="290" style="font-family: -apple-system, BlinkMacSystemFont, 'Segoe UI', Helvetica, Arial, sans-serif;">
  <rect width="100%" height="100%" fill="#0d1117"/>
  <g>
    <line x1="40" y1="220.00" x2="860" y2="220.00" stroke="#30363d"/><text x="32" y="224.00" font-size="10" fill="#c9d1d9" text-anchor="end">0</text><line x1="40" y1="175.00" x2="860" y2="175.00" stroke="#30363d"/><text x="32" y="179.00" font-size="10" fill="#c9d1d9" text-anchor="end">500</text><line x1="40" y1="130.00" x2="860" y2="130.00" stroke="#30363d"/><text x="32" y="134.00" font-size="10" fill="#c9d1d9" text-anchor="end">1k</text><line x1="40" y1="85.00" x2="860" y2="85.00" stroke="#30363d"/><text x="32" y="89.00" font-size="10" fill="#c9d1d9" text-anchor="end">1.5k</text><line x1="40" y1="40.00" x2="860" y2="40.00" stroke="#30363d"/><text x="32" y="44.00" font-size="10" fill="#c9d1d9" text-anchor="end">2k</text>
    <line x1="40.00" y1="40" x2="40.00" y2="220" stroke="#30363d" opacity="0.5"/><line x1="114.55" y1="40" x2="114.55" y2="220" stroke="#30363d" opacity="0.5"/><line x1="189.09" y1="40" x2="189.09" y2="220" stroke="#30363d" opacity="0.5"/><line x1="263.64" y1="40" x2="263.64" y2="220" stroke="#30363d" opacity="0.5"/><line x1="338.18" y1="40" x2="338.18" y2="220" stroke="#30363d" opacity="0.5"/><line x1="412.73" y1="40" x2="412.73" y2="220" stroke="#30363d" opacity="0.5"/><line x1="487.27" y1="40" x2="487.27" y2="220" stroke="#30363d" opacity="0.5"/><line x1="561.82" y1="40" x2="561.82" y2="220" stroke="#30363d" opacity="0.5"/><line x1="636.36" y1="40" x2="636.36" y2="220" stroke="#30363d" opacity="0.5"/><line x1="710.91" y1="40" x2="710.91" y2="220" stroke="#30363d" opacity="0.5"/><line x1="785.45" y1="40" x2="785.45" y2="220" stroke="#30363d" opacity="0.5"/><line x1="860.00" y1="40" x2="860.00" y2="220" stroke="#30363d" opacity="0.5"/>
    <line x1="40" y1="220" x2="860" y2="220" stroke="#30363d"/>
    <line x1="40" y1="40"   x2="40"   y2="220" stroke="#30363d"/>
    <path d="M 40.00 166.63 L 54.91 166.00 L 69.82 166.00 L 84.73 121.18 L 99.64 115.78 L 114.55 115.78 L 129.45 112.00 L 144.36 108.22 L 159.27 108.22 L 174.18 108.22 L 189.09 108.22 L 204.00 108.22 L 218.91 108.22 L 233.82 108.22 L 248.73 108.22 L 263.64 108.22 L 278.55 108.22 L 293.45 108.22 L 308.36 108.22 L 323.27 108.22 L 338.18 108.22 L 353.09 108.22 L 368.00 109.21 L 382.91 109.12 L 397.82 108.76 L 412.73 108.76 L 427.64 108.76 L 442.55 108.76 L 457.45 108.76 L 472.36 108.76 L 487.27 108.76 L 502.18 108.76 L 517.09 108.76 L 532.00 108.76 L 546.91 108.76 L 561.82 108.76 L 576.73 108.76 L 591.64 108.76 L 606.55 108.76 L 621.45 108.76 L 636.36 108.76 L 651.27 108.76 L 666.18 108.76 L 681.09 108.76 L 696.00 108.76 L 710.91 108.76 L 725.82 108.76 L 740.73 108.76 L 755.64 108.76 L 770.55 108.76 L 785.45 108.76 L 800.36 108.76 L 815.27 108.76 L 830.18 108.76 L 845.09 108.76 L 860.00 108.76" fill="none" stroke="#3fb950" stroke-width="2"/>
    <circle cx="860.00" cy="108.76" r="3" fill="#3fb950"/>
    <text x="40.00" y="235.00" font-size="9" fill="#c9d1d9" text-anchor="middle" transform="rotate(-45 40.00 235.00)">28.08.2025</text><text x="114.55" y="235.00" font-size="9" fill="#c9d1d9" text-anchor="middle" transform="rotate(-45 114.55 235.00)">28.08.2025</text><text x="189.09" y="235.00" font-size="9" fill="#c9d1d9" text-anchor="middle" transform="rotate(-45 189.09 235.00)">28.08.2025</text><text x="263.64" y="235.00" font-size="9" fill="#c9d1d9" text-anchor="middle" transform="rotate(-45 263.64 235.00)">28.08.2025</text><text x="338.18" y="235.00" font-size="9" fill="#c9d1d9" text-anchor="middle" transform="rotate(-45 338.18 235.00)">28.08.2025</text><text x="412.73" y="235.00" font-size="9" fill="#c9d1d9" text-anchor="middle" transform="rotate(-45 412.73 235.00)">28.08.2025</text><text x="487.27" y="235.00" font-size="9" fill="#c9d1d9" text-anchor="middle" transform="rotate(-45 487.27 235.00)">01.09.2025</text><text x="561.82" y="235.00" font-size="9" fill="#c9d1d9" text-anchor="middle" transform="rotate(-45 561.82 235.00)">06.09.2025</text><text x="636.36" y="235.00" font-size="9" fill="#c9d1d9" text-anchor="middle" transform="rotate(-45 636.36 235.00)">09.09.2025</text><text x="710.91" y="235.00" font-size="9" fill="#c9d1d9" text-anchor="middle" transform="rotate(-45 710.91 235.00)">14.09.2025</text><text x="785.45" y="235.00" font-size="9" fill="#c9d1d9" text-anchor="middle" transform="rotate(-45 785.45 235.00)">15.09.2025</text><text x="860.00" y="235.00" font-size="9" fill="#c9d1d9" text-anchor="middle" transform="rotate(-45 860.00 235.00)">20.09.2025</text>
  </g>
</svg>