<svg xmlns="http://www.w3.org/2000/svg" width="900" height="290" style="font-family: -apple-system, BlinkMacSystemFont, 'Segoe UI', Helvetica, Arial, sans-serif;">
  <rect width="100%" height="100%" fill="#0d1117"/>
  <g>
    <line x1="40" y1="220.00" x2="860" y2="220.00" stroke="#30363d"/><text x="32" y="224.00" font-size="10" fill="#c9d1d9" text-anchor="end">0</text><line x1="40" y1="175.00" x2="860" y2="175.00" stroke="#30363d"/><text x="32" y="179.00" font-size="10" fill="#c9d1d9" text-anchor="end">500</text><line x1="40" y1="130.00" x2="860" y2="130.00" stroke="#30363d"/><text x="32" y="134.00" font-size="10" fill="#c9d1d9" text-anchor="end">1k</text><line x1="40" y1="85.00" x2="860" y2="85.00" stroke="#30363d"/><text x="32" y="89.00" font-size="10" fill="#c9d1d9" text-anchor="end">1.5k</text><line x1="40" y1="40.00" x2="860" y2="40.00" stroke="#30363d"/><text x="32" y="44.00" font-size="10" fill="#c9d1d9" text-anchor="end">2k</text>
    <line x1="40.00" y1="40" x2="40.00" y2="220" stroke="#30363d" opacity="0.5"/><line x1="120.00" y1="40" x2="120.00" y2="220" stroke="#30363d" opacity="0.5"/><line x1="200.00" y1="40" x2="200.00" y2="220" stroke="#30363d" opacity="0.5"/><line x1="280.00" y1="40" x2="280.00" y2="220" stroke="#30363d" opacity="0.5"/><line x1="360.00" y1="40" x2="360.00" y2="220" stroke="#30363d" opacity="0.5"/><line x1="440.00" y1="40" x2="440.00" y2="220" stroke="#30363d" opacity="0.5"/><line x1="520.00" y1="40" x2="520.00" y2="220" stroke="#30363d" opacity="0.5"/><line x1="600.00" y1="40" x2="600.00" y2="220" stroke="#30363d" opacity="0.5"/><line x1="680.00" y1="40" x2="680.00" y2="220" stroke="#30363d" opacity="0.5"/><line x1="760.00" y1="40" x2="760.00" y2="220" stroke="#30363d" opacity="0.5"/><line x1="840.00" y1="40" x2="840.00" y2="220" stroke="#30363d" opacity="0.5"/>
    <line x1="40" y1="220" x2="860" y2="220" stroke="#30363d"/>
    <line x1="40" y1="40"   x2="40"   y2="220" stroke="#30363d"/>
    <path d="M 40.00 166.63 L 50.00 166.00 L 60.00 166.00 L 70.00 121.18 L 80.00 115.78 L 90.00 115.78 L 100.00 112.00 L 110.00 108.22 L 120.00 108.22 L 130.00 108.22 L 140.00 108.22 L 150.00 108.22 L 160.00 108.22 L 170.00 108.22 L 180.00 108.22 L 190.00 108.22 L 200.00 108.22 L 210.00 108.22 L 220.00 108.22 L 230.00 108.22 L 240.00 108.22 L 250.00 108.22 L 260.00 109.21 L 270.00 109.12 L 280.00 108.76 L 290.00 108.76 L 300.00 108.76 L 310.00 108.76 L 320.00 108.76 L 330.00 108.76 L 340.00 108.76 L 350.00 108.76 L 360.00 108.76 L 370.00 108.76 L 380.00 108.76 L 390.00 108.76 L 400.00 108.76 L 410.00 108.76 L 420.00 108.76 L 430.00 108.76 L 440.00 108.76 L 450.00 108.76 L 460.00 108.76 L 470.00 108.76 L 480.00 108.76 L 490.00 108.76 L 500.00 108.76 L 510.00 108.76 L 520.00 108.76 L 530.00 108.76 L 540.00 108.76 L 550.00 108.76 L 560.00 108.76 L 570.00 108.76 L 580.00 108.76 L 590.00 108.76 L 600.00 108.76 L 610.00 108.76 L 620.00 108.76 L 630.00 108.76 L 640.00 108.76 L 650.00 108.76 L 660.00 108.76 L 670.00 108.76 L 680.00 108.76 L 690.00 108.76 L 700.00 108.76 L 710.00 108.76 L 720.00 108.76 L 730.00 108.76 L 740.00 108.76 L 750.00 108.76 L 760.00 108.76 L 770.00 108.76 L 780.00 108.76 L 790.00 108.76 L 800.00 108.76 L 810.00 108.76 L 820.00 108.76 L 830.00 108.76 L 840.00 108.76 L 850.00 108.76 L 860.00 108.76" fill="none" stroke="#3fb950" stroke-width="2"/>
    <circle cx="860.00" cy="108.76" r="3" fill="#3fb950"/>
    <text x="40.00" y="235.00" font-size="9" fill="#c9d1d9" text-anchor="middle" transform="rotate(-45 40.00 235.00)">28.08.2025</text><text x="120.00" y="235.00" font-size="9" fill="#c9d1d9" text-anchor="middle" transform="rotate(-45 120.00 235.00)">28.08.2025</text><text x="200.00" y="235.00" font-size="9" fill="#c9d1d9" text-anchor="middle" transform="rotate(-45 200.00 235.00)">28.08.2025</text><text x="280.00" y="235.00" font-size="9" fill="#c9d1d9" text-anchor="middle" transform="rotate(-45 280.00 235.00)">28.08.2025</text><text x="360.00" y="235.00" font-size="9" fill="#c9d1d9" text-anchor="middle" transform="rotate(-45 360.00 235.00)">03.09.2025</text><text x="440.00" y="235.00" font-size="9" fill="#c9d1d9" text-anchor="middle" transform="rotate(-45 440.00 235.00)">09.09.2025</text><text x="520.00" y="235.00" font-size="9" fill="#c9d1d9" text-anchor="middle" transform="rotate(-45 520.00 235.00)">15.09.2025</text><text x="600.00" y="235.00" font-size="9" fill="#c9d1d9" text-anchor="middle" transform="rotate(-45 600.00 235.00)">21.09.2025</text><text x="680.00" y="235.00" font-size="9" fill="#c9d1d9" text-anchor="middle" transform="rotate(-45 680.00 235.00)">29.09.2025</text><text x="760.00" y="235.00" font-size="9" fill="#c9d1d9" text-anchor="middle" transform="rotate(-45 760.00 235.00)">07.10.2025</text><text x="840.00" y="235.00" font-size="9" fill="#c9d1d9" text-anchor="middle" transform="rotate(-45 840.00 235.00)">15.10.2025</text>
  </g>
</svg>