<svg xmlns="http://www.w3.org/2000/svg" width="900" height="290" style="font-family: -apple-system, BlinkMacSystemFont, 'Segoe UI', Helvetica, Arial, sans-serif;">
  <rect width="100%" height="100%" fill="white"/>
  <g>
    <line x1="40" y1="220.00" x2="860" y2="220.00" stroke="#e5e7eb"/><text x="32" y="224.00" font-size="10" fill="#111827" text-anchor="end">0</text><line x1="40" y1="175.00" x2="860" y2="175.00" stroke="#e5e7eb"/><text x="32" y="179.00" font-size="10" fill="#111827" text-anchor="end">500</text><line x1="40" y1="130.00" x2="860" y2="130.00" stroke="#e5e7eb"/><text x="32" y="134.00" font-size="10" fill="#111827" text-anchor="end">1k</text><line x1="40" y1="85.00" x2="860" y2="85.00" stroke="#e5e7eb"/><text x="32" y="89.00" font-size="10" fill="#111827" text-anchor="end">1.5k</text><line x1="40" y1="40.00" x2="860" y2="40.00" stroke="#e5e7eb"/><text x="32" y="44.00" font-size="10" fill="#111827" text-anchor="end">2k</text>
    <line x1="40.00" y1="40" x2="40.00" y2="220" stroke="#e5e7eb" opacity="0.5"/><line x1="120.54" y1="40" x2="120.54" y2="220" stroke="#e5e7eb" opacity="0.5"/><line x1="201.07" y1="40" x2="201.07" y2="220" stroke="#e5e7eb" opacity="0.5"/><line x1="281.61" y1="40" x2="281.61" y2="220" stroke="#e5e7eb" opacity="0.5"/><line x1="362.14" y1="40" x2="362.14" y2="220" stroke="#e5e7eb" opacity="0.5"/><line x1="442.68" y1="40" x2="442.68" y2="220" stroke="#e5e7eb" opacity="0.5"/><line x1="523.21" y1="40" x2="523.21" y2="220" stroke="#e5e7eb" opacity="0.5"/><line x1="603.75" y1="40" x2="603.75" y2="220" stroke="#e5e7eb" opacity="0.5"/><line x1="684.29" y1="40" x2="684.29" y2="220" stroke="#e5e7eb" opacity="0.5"/><line x1="764.82" y1="40" x2="764.82" y2="220" stroke="#e5e7eb" opacity="0.5"/><line x1="845.36" y1="40" x2="845.36" y2="220" stroke="#e5e7eb" opacity="0.5"/>
    <line x1="40" y1="220" x2="860" y2="220" stroke="#9ca3af"/>
    <line x1="40" y1="40"   x2="40"   y2="220" stroke="#9ca3af"/>
    <path d="M 40.00 166.63 L 47.32 166.00 L 54.64 166.00 L 61.96 121.18 L 69.29 115.78 L 76.61 115.78 L 83.93 112.00 L 91.25 108.22 L 98.57 108.22 L 105.89 108.22 L 113.21 108.22 L 120.54 108.22 L 127.86 108.22 L 135.18 108.22 L 142.50 108.22 L 149.82 108.22 L 157.14 108.22 L 164.46 108.22 L 171.79 108.22 L 179.11 108.22 L 186.43 108.22 L 193.75 108.22 L 201.07 109.21 L 208.39 109.12 L 215.71 108.76 L 223.04 108.76 L 230.36 108.76 L 237.68 108.76 L 245.00 108.76 L 252.32 108.76 L 259.64 108.76 L 266.96 108.76 L 274.29 108.76 L 281.61 108.76 L 288.93 108.76 L 296.25 108.76 L 303.57 108.76 L 310.89 108.76 L 318.21 108.76 L 325.54 108.76 L 332.86 108.76 L 340.18 108.76 L 347.50 108.76 L 354.82 108.76 L 362.14 108.76 L 369.46 108.76 L 376.79 108.76 L 384.11 108.76 L 391.43 108.76 L 398.75 108.76 L 406.07 108.76 L 413.39 108.76 L 420.71 108.76 L 428.04 108.76 L 435.36 108.76 L 442.68 108.76 L 450.00 108.76 L 457.32 108.76 L 464.64 108.76 L 471.96 108.76 L 479.29 108.76 L 486.61 108.76 L 493.93 108.76 L 501.25 108.76 L 508.57 108.76 L 515.89 108.76 L 523.21 108.76 L 530.54 108.76 L 537.86 108.76 L 545.18 108.76 L 552.50 108.76 L 559.82 108.76 L 567.14 108.76 L 574.46 108.76 L 581.79 108.76 L 589.11 108.76 L 596.43 108.76 L 603.75 108.76 L 611.07 108.76 L 618.39 108.76 L 625.71 108.76 L 633.04 108.76 L 640.36 108.76 L 647.68 108.76 L 655.00 108.76 L 662.32 108.76 L 669.64 108.76 L 676.96 108.76 L 684.29 108.76 L 691.61 108.76 L 698.93 108.76 L 706.25 108.76 L 713.57 108.76 L 720.89 108.76 L 728.21 108.76 L 735.54 108.76 L 742.86 108.76 L 750.18 108.76 L 757.50 108.76 L 764.82 108.76 L 772.14 108.76 L 779.46 108.76 L 786.79 108.76 L 794.11 108.76 L 801.43 108.76 L 808.75 108.76 L 816.07 108.76 L 823.39 108.76 L 830.71 108.76 L 838.04 108.76 L 845.36 108.76 L 852.68 108.76 L 860.00 108.76" fill="none" stroke="#111827" stroke-width="2"/>
    <circle cx="860.00" cy="108.76" r="3" fill="#111827"/>
    <text x="40.00" y="235.00" font-size="9" fill="#111827" text-anchor="middle" transform="rotate(-45 40.00 235.00)">28.08.2025</text><text x="120.54" y="235.00" font-size="9" fill="#111827" text-anchor="middle" transform="rotate(-45 120.54 235.00)">28.08.2025</text><text x="201.07" y="235.00" font-size="9" fill="#111827" text-anchor="middle" transform="rotate(-45 201.07 235.00)">28.08.2025</text><text x="281.61" y="235.00" font-size="9" fill="#111827" text-anchor="middle" transform="rotate(-45 281.61 235.00)">04.09.2025</text><text x="362.14" y="235.00" font-size="9" fill="#111827" text-anchor="middle" transform="rotate(-45 362.14 235.00)">13.09.2025</text><text x="442.68" y="235.00" font-size="9" fill="#111827" text-anchor="middle" transform="rotate(-45 442.68 235.00)">20.09.2025</text><text x="523.21" y="235.00" font-size="9" fill="#111827" text-anchor="middle" transform="rotate(-45 523.21 235.00)">01.10.2025</text><text x="603.75" y="235.00" font-size="9" fill="#111827" text-anchor="middle" transform="rotate(-45 603.75 235.00)">12.10.2025</text><text x="684.29" y="235.00" font-size="9" fill="#111827" text-anchor="middle" transform="rotate(-45 684.29 235.00)">23.10.2025</text><text x="764.82" y="235.00" font-size="9" fill="#111827" text-anchor="middle" transform="rotate(-45 764.82 235.00)">03.11.2025</text><text x="845.36" y="235.00" font-size="9" fill="#111827" text-anchor="middle" transform="rotate(-45 845.36 235.00)">14.11.2025</text>
  </g>
</svg>