<svg xmlns="http://www.w3.org/2000/svg" width="900" height="290" style="font-family: -apple-system, BlinkMacSystemFont, 'Segoe UI', Helvetica, Arial, sans-serif;">
  <rect width="100%" height="100%" fill="#0d1117"/>
  <g>
    <line x1="40" y1="220.00" x2="860" y2="220.00" stroke="#30363d"/><text x="32" y="224.00" font-size="10" fill="#c9d1d9" text-anchor="end">0</text><line x1="40" y1="175.00" x2="860" y2="175.00" stroke="#30363d"/><text x="32" y="179.00" font-size="10" fill="#c9d1d9" text-anchor="end">500</text><line x1="40" y1="130.00" x2="860" y2="130.00" stroke="#30363d"/><text x="32" y="134.00" font-size="10" fill="#c9d1d9" text-anchor="end">1k</text><line x1="40" y1="85.00" x2="860" y2="85.00" stroke="#30363d"/><text x="32" y="89.00" font-size="10" fill="#c9d1d9" text-anchor="end">1.5k</text><line x1="40" y1="40.00" x2="860" y2="40.00" stroke="#30363d"/><text x="32" y="44.00" font-size="10" fill="#c9d1d9" text-anchor="end">2k</text>
    <line x1="40.00" y1="40" x2="40.00" y2="220" stroke="#30363d" opacity="0.5"/><line x1="120.39" y1="40" x2="120.39" y2="220" stroke="#30363d" opacity="0.5"/><line x1="200.78" y1="40" x2="200.78" y2="220" stroke="#30363d" opacity="0.5"/><line x1="281.18" y1="40" x2="281.18" y2="220" stroke="#30363d" opacity="0.5"/><line x1="361.57" y1="40" x2="361.57" y2="220" stroke="#30363d" opacity="0.5"/><line x1="441.96" y1="40" x2="441.96" y2="220" stroke="#30363d" opacity="0.5"/><line x1="522.35" y1="40" x2="522.35" y2="220" stroke="#30363d" opacity="0.5"/><line x1="602.75" y1="40" x2="602.75" y2="220" stroke="#30363d" opacity="0.5"/><line x1="683.14" y1="40" x2="683.14" y2="220" stroke="#30363d" opacity="0.5"/><line x1="763.53" y1="40" x2="763.53" y2="220" stroke="#30363d" opacity="0.5"/><line x1="843.92" y1="40" x2="843.92" y2="220" stroke="#30363d" opacity="0.5"/>
    <line x1="40" y1="220" x2="860" y2="220" stroke="#30363d"/>
    <line x1="40" y1="40"   x2="40"   y2="220" stroke="#30363d"/>
    <path d="M 40.00 166.63 L 45.36 166.00 L 50.72 166.00 L 56.08 121.18 L 61.44 115.78 L 66.80 115.78 L 72.16 112.00 L 77.52 108.22 L 82.88 108.22 L 88.24 108.22 L 93.59 108.22 L 98.95 108.22 L 104.31 108.22 L 109.67 108.22 L 115.03 108.22 L 120.39 108.22 L 125.75 108.22 L 131.11 108.22 L 136.47 108.22 L 141.83 108.22 L 147.19 108.22 L 152.55 108.22 L 157.91 109.21 L 163.27 109.12 L 168.63 108.76 L 173.99 108.76 L 179.35 108.76 L 184.71 108.76 L 190.07 108.76 L 195.42 108.76 L 200.78 108.76 L 206.14 108.76 L 211.50 108.76 L 216.86 108.76 L 222.22 108.76 L 227.58 108.76 L 232.94 108.76 L 238.30 108.76 L 243.66 108.76 L 249.02 108.76 L 254.38 108.76 L 259.74 108.76 L 265.10 108.76 L 270.46 108.76 L 275.82 108.76 L 281.18 108.76 L 286.54 108.76 L 291.90 108.76 L 297.25 108.76 L 302.61 108.76 L 307.97 108.76 L 313.33 108.76 L 318.69 108.76 L 324.05 108.76 L 329.41 108.76 L 334.77 108.76 L 340.13 108.76 L 345.49 108.76 L 350.85 108.76 L 356.21 108.76 L 361.57 108.76 L 366.93 108.76 L 372.29 108.76 L 377.65 108.76 L 383.01 108.76 L 388.37 108.76 L 393.73 108.76 L 399.08 108.76 L 404.44 108.76 L 409.80 108.76 L 415.16 108.76 L 420.52 108.76 L 425.88 108.76 L 431.24 108.76 L 436.60 108.76 L 441.96 108.76 L 447.32 108.76 L 452.68 108.76 L 458.04 108.76 L 463.40 108.76 L 468.76 108.76 L 474.12 108.76 L 479.48 108.76 L 484.84 108.76 L 490.20 108.76 L 495.56 108.76 L 500.92 108.76 L 506.27 108.76 L 511.63 108.76 L 516.99 108.76 L 522.35 108.76 L 527.71 108.76 L 533.07 108.76 L 538.43 108.76 L 543.79 108.76 L 549.15 108.76 L 554.51 108.76 L 559.87 108.76 L 565.23 108.76 L 570.59 108.76 L 575.95 108.76 L 581.31 108.76 L 586.67 108.76 L 592.03 108.76 L 597.39 108.76 L 602.75 108.76 L 608.10 108.76 L 613.46 108.76 L 618.82 108.76 L 624.18 108.76 L 629.54 108.76 L 634.90 108.76 L 640.26 108.76 L 645.62 108.76 L 650.98 108.76 L 656.34 108.76 L 661.70 108.76 L 667.06 108.76 L 672.42 108.76 L 677.78 108.76 L 683.14 108.76 L 688.50 108.76 L 693.86 108.76 L 699.22 108.76 L 704.58 108.76 L 709.93 108.76 L 715.29 108.76 L 720.65 108.76 L 726.01 108.76 L 731.37 108.76 L 736.73 108.76 L 742.09 108.76 L 747.45 108.76 L 752.81 108.76 L 758.17 108.76 L 763.53 108.76 L 768.89 108.76 L 774.25 108.76 L 779.61 108.76 L 784.97 108.76 L 790.33 108.76 L 795.69 108.76 L 801.05 108.76 L 806.41 108.94 L 811.76 100.39 L 817.12 81.40 L 822.48 81.40 L 827.84 81.40 L 833.20 81.40 L 838.56 81.40 L 843.92 70.78 L 849.28 70.78 L 854.64 70.78 L 860.00 70.78" fill="none" stroke="#3fb950" stroke-width="2"/>
    <circle cx="860.00" cy="70.78" r="3" fill="#3fb950"/>
    <text x="40.00" y="235.00" font-size="9" fill="#c9d1d9" text-anchor="middle" transform="rotate(-45 40.00 235.00)">28.08.2025</text><text x="120.39" y="235.00" font-size="9" fill="#c9d1d9" text-anchor="middle" transform="rotate(-45 120.39 235.00)">28.08.2025</text><text x="200.78" y="235.00" font-size="9" fill="#c9d1d9" text-anchor="middle" transform="rotate(-45 200.78 235.00)">01.09.2025</text><text x="281.18" y="235.00" font-size="9" fill="#c9d1d9" text-anchor="middle" transform="rotate(-45 281.18 235.00)">14.09.2025</text><text x="361.57" y="235.00" font-size="9" fill="#c9d1d9" text-anchor="middle" transform="rotate(-45 361.57 235.00)">23.09.2025</text><text x="441.96" y="235.00" font-size="9" fill="#c9d1d9" text-anchor="middle" transform="rotate(-45 441.96 235.00)">07.10.2025</text><text x="522.35" y="235.00" font-size="9" fill="#c9d1d9" text-anchor="middle" transform="rotate(-45 522.35 235.00)">22.10.2025</text><text x="602.75" y="235.00" font-size="9" fill="#c9d1d9" text-anchor="middle" transform="rotate(-45 602.75 235.00)">04.11.2025</text><text x="683.14" y="235.00" font-size="9" fill="#c9d1d9" text-anchor="middle" transform="rotate(-45 683.14 235.00)">19.11.2025</text><text x="763.53" y="235.00" font-size="9" fill="#c9d1d9" text-anchor="middle" transform="rotate(-45 763.53 235.00)">28.11.2025</text><text x="843.92" y="235.00" font-size="9" fill="#c9d1d9" text-anchor="middle" transform="rotate(-45 843.92 235.00)">07.12.2025</text>
  </g>
</svg>