<svg xmlns="http://www.w3.org/2000/svg" width="900" height="290" style="font-family: -apple-system, BlinkMacSystemFont, 'Segoe UI', Helvetica, Arial, sans-serif;">
  <rect width="100%" height="100%" fill="#0d1117"/>
  <g>
    <line x1="40" y1="220.00" x2="860" y2="220.00" stroke="#30363d"/><text x="32" y="224.00" font-size="10" fill="#c9d1d9" text-anchor="end">0</text><line x1="40" y1="175.00" x2="860" y2="175.00" stroke="#30363d"/><text x="32" y="179.00" font-size="10" fill="#c9d1d9" text-anchor="end">500</text><line x1="40" y1="130.00" x2="860" y2="130.00" stroke="#30363d"/><text x="32" y="134.00" font-size="10" fill="#c9d1d9" text-anchor="end">1k</text><line x1="40" y1="85.00" x2="860" y2="85.00" stroke="#30363d"/><text x="32" y="89.00" font-size="10" fill="#c9d1d9" text-anchor="end">1.5k</text><line x1="40" y1="40.00" x2="860" y2="40.00" stroke="#30363d"/><text x="32" y="44.00" font-size="10" fill="#c9d1d9" text-anchor="end">2k</text>
    <line x1="40.00" y1="40" x2="40.00" y2="220" stroke="#30363d" opacity="0.5"/><line x1="122.59" y1="40" x2="122.59" y2="220" stroke="#30363d" opacity="0.5"/><line x1="205.18" y1="40" x2="205.18" y2="220" stroke="#30363d" opacity="0.5"/><line x1="287.77" y1="40" x2="287.77" y2="220" stroke="#30363d" opacity="0.5"/><line x1="370.36" y1="40" x2="370.36" y2="220" stroke="#30363d" opacity="0.5"/><line x1="452.95" y1="40" x2="452.95" y2="220" stroke="#30363d" opacity="0.5"/><line x1="535.54" y1="40" x2="535.54" y2="220" stroke="#30363d" opacity="0.5"/><line x1="618.13" y1="40" x2="618.13" y2="220" stroke="#30363d" opacity="0.5"/><line x1="700.72" y1="40" x2="700.72" y2="220" stroke="#30363d" opacity="0.5"/><line x1="783.31" y1="40" x2="783.31" y2="220" stroke="#30363d" opacity="0.5"/>
    <line x1="40" y1="220" x2="860" y2="220" stroke="#30363d"/>
    <line x1="40" y1="40"   x2="40"   y2="220" stroke="#30363d"/>
    <path d="M 40.00 166.63 L 45.90 166.00 L 51.80 166.00 L 57.70 121.18 L 63.60 115.78 L 69.50 115.78 L 75.40 112.00 L 81.29 108.22 L 87.19 108.22 L 93.09 108.22 L 98.99 108.22 L 104.89 108.22 L 110.79 108.22 L 116.69 108.22 L 122.59 108.22 L 128.49 108.22 L 134.39 108.22 L 140.29 108.22 L 146.19 108.22 L 152.09 108.22 L 157.99 108.22 L 163.88 108.22 L 169.78 109.21 L 175.68 109.12 L 181.58 108.76 L 187.48 108.76 L 193.38 108.76 L 199.28 108.76 L 205.18 108.76 L 211.08 108.76 L 216.98 108.76 L 222.88 108.76 L 228.78 108.76 L 234.68 108.76 L 240.58 108.76 L 246.47 108.76 L 252.37 108.76 L 258.27 108.76 L 264.17 108.76 L 270.07 108.76 L 275.97 108.76 L 281.87 108.76 L 287.77 108.76 L 293.67 108.76 L 299.57 108.76 L 305.47 108.76 L 311.37 108.76 L 317.27 108.76 L 323.17 108.76 L 329.06 108.76 L 334.96 108.76 L 340.86 108.76 L 346.76 108.76 L 352.66 108.76 L 358.56 108.76 L 364.46 108.76 L 370.36 108.76 L 376.26 108.76 L 382.16 108.76 L 388.06 108.76 L 393.96 108.76 L 399.86 108.76 L 405.76 108.76 L 411.65 108.76 L 417.55 108.76 L 423.45 108.76 L 429.35 108.76 L 435.25 108.76 L 441.15 108.76 L 447.05 108.76 L 452.95 108.76 L 458.85 108.76 L 464.75 108.76 L 470.65 108.76 L 476.55 108.76 L 482.45 108.76 L 488.35 108.76 L 494.24 108.76 L 500.14 108.76 L 506.04 108.76 L 511.94 108.76 L 517.84 108.76 L 523.74 108.76 L 529.64 108.76 L 535.54 108.76 L 541.44 108.76 L 547.34 108.76 L 553.24 108.76 L 559.14 108.76 L 565.04 108.76 L 570.94 108.76 L 576.83 108.76 L 582.73 108.76 L 588.63 108.76 L 594.53 108.76 L 600.43 108.76 L 606.33 108.76 L 612.23 108.76 L 618.13 108.76 L 624.03 108.76 L 629.93 108.76 L 635.83 108.76 L 641.73 108.76 L 647.63 108.76 L 653.53 108.76 L 659.42 108.76 L 665.32 108.76 L 671.22 108.76 L 677.12 108.76 L 683.02 108.76 L 688.92 108.76 L 694.82 108.76 L 700.72 108.76 L 706.62 108.76 L 712.52 108.76 L 718.42 108.76 L 724.32 108.76 L 730.22 108.76 L 736.12 108.76 L 742.01 108.76 L 747.91 108.76 L 753.81 108.76 L 759.71 108.76 L 765.61 108.76 L 771.51 108.76 L 777.41 108.76 L 783.31 108.76 L 789.21 108.76 L 795.11 108.76 L 801.01 108.76 L 806.91 108.76 L 812.81 108.76 L 818.71 108.76 L 824.60 108.76 L 830.50 108.76 L 836.40 108.76 L 842.30 108.76 L 848.20 108.76 L 854.10 108.76 L 860.00 108.76" fill="none" stroke="#3fb950" stroke-width="2"/>
    <circle cx="860.00" cy="108.76" r="3" fill="#3fb950"/>
    <text x="40.00" y="235.00" font-size="9" fill="#c9d1d9" text-anchor="middle" transform="rotate(-45 40.00 235.00)">28.08.2025</text><text x="122.59" y="235.00" font-size="9" fill="#c9d1d9" text-anchor="middle" transform="rotate(-45 122.59 235.00)">28.08.2025</text><text x="205.18" y="235.00" font-size="9" fill="#c9d1d9" text-anchor="middle" transform="rotate(-45 205.18 235.00)">30.08.2025</text><text x="287.77" y="235.00" font-size="9" fill="#c9d1d9" text-anchor="middle" transform="rotate(-45 287.77 235.00)">11.09.2025</text><text x="370.36" y="235.00" font-size="9" fill="#c9d1d9" text-anchor="middle" transform="rotate(-45 370.36 235.00)">19.09.2025</text><text x="452.95" y="235.00" font-size="9" fill="#c9d1d9" text-anchor="middle" transform="rotate(-45 452.95 235.00)">03.10.2025</text><text x="535.54" y="235.00" font-size="9" fill="#c9d1d9" text-anchor="middle" transform="rotate(-45 535.54 235.00)">16.10.2025</text><text x="618.13" y="235.00" font-size="9" fill="#c9d1d9" text-anchor="middle" transform="rotate(-45 618.13 235.00)">28.10.2025</text><text x="700.72" y="235.00" font-size="9" fill="#c9d1d9" text-anchor="middle" transform="rotate(-45 700.72 235.00)">11.11.2025</text><text x="783.31" y="235.00" font-size="9" fill="#c9d1d9" text-anchor="middle" transform="rotate(-45 783.31 235.00)">24.11.2025</text>
  </g>
</svg>