<svg xmlns="http://www.w3.org/2000/svg" width="900" height="290" style="font-family: -apple-system, BlinkMacSystemFont, 'Segoe UI', Helvetica, Arial, sans-serif;">
  <rect width="100%" height="100%" fill="white"/>
  <g>
    <line x1="40" y1="220.00" x2="860" y2="220.00" stroke="#e5e7eb"/><text x="32" y="224.00" font-size="10" fill="#111827" text-anchor="end">0</text><line x1="40" y1="175.00" x2="860" y2="175.00" stroke="#e5e7eb"/><text x="32" y="179.00" font-size="10" fill="#111827" text-anchor="end">500</text><line x1="40" y1="130.00" x2="860" y2="130.00" stroke="#e5e7eb"/><text x="32" y="134.00" font-size="10" fill="#111827" text-anchor="end">1k</text><line x1="40" y1="85.00" x2="860" y2="85.00" stroke="#e5e7eb"/><text x="32" y="89.00" font-size="10" fill="#111827" text-anchor="end">1.5k</text><line x1="40" y1="40.00" x2="860" y2="40.00" stroke="#e5e7eb"/><text x="32" y="44.00" font-size="10" fill="#111827" text-anchor="end">2k</text>
    <line x1="40.00" y1="40" x2="40.00" y2="220" stroke="#e5e7eb" opacity="0.5"/><line x1="121.57" y1="40" x2="121.57" y2="220" stroke="#e5e7eb" opacity="0.5"/><line x1="203.14" y1="40" x2="203.14" y2="220" stroke="#e5e7eb" opacity="0.5"/><line x1="284.71" y1="40" x2="284.71" y2="220" stroke="#e5e7eb" opacity="0.5"/><line x1="366.28" y1="40" x2="366.28" y2="220" stroke="#e5e7eb" opacity="0.5"/><line x1="447.85" y1="40" x2="447.85" y2="220" stroke="#e5e7eb" opacity="0.5"/><line x1="529.42" y1="40" x2="529.42" y2="220" stroke="#e5e7eb" opacity="0.5"/><line x1="610.99" y1="40" x2="610.99" y2="220" stroke="#e5e7eb" opacity="0.5"/><line x1="692.57" y1="40" x2="692.57" y2="220" stroke="#e5e7eb" opacity="0.5"/><line x1="774.14" y1="40" x2="774.14" y2="220" stroke="#e5e7eb" opacity="0.5"/><line x1="855.71" y1="40" x2="855.71" y2="220" stroke="#e5e7eb" opacity="0.5"/>
    <line x1="40" y1="220" x2="860" y2="220" stroke="#9ca3af"/>
    <line x1="40" y1="40"   x2="40"   y2="220" stroke="#9ca3af"/>
    <path d="M 40.00 166.63 L 44.29 166.00 L 48.59 166.00 L 52.88 121.18 L 57.17 115.78 L 61.47 115.78 L 65.76 112.00 L 70.05 108.22 L 74.35 108.22 L 78.64 108.22 L 82.93 108.22 L 87.23 108.22 L 91.52 108.22 L 95.81 108.22 L 100.10 108.22 L 104.40 108.22 L 108.69 108.22 L 112.98 108.22 L 117.28 108.22 L 121.57 108.22 L 125.86 108.22 L 130.16 108.22 L 134.45 109.21 L 138.74 109.12 L 143.04 108.76 L 147.33 108.76 L 151.62 108.76 L 155.92 108.76 L 160.21 108.76 L 164.50 108.76 L 168.80 108.76 L 173.09 108.76 L 177.38 108.76 L 181.68 108.76 L 185.97 108.76 L 190.26 108.76 L 194.55 108.76 L 198.85 108.76 L 203.14 108.76 L 207.43 108.76 L 211.73 108.76 L 216.02 108.76 L 220.31 108.76 L 224.61 108.76 L 228.90 108.76 L 233.19 108.76 L 237.49 108.76 L 241.78 108.76 L 246.07 108.76 L 250.37 108.76 L 254.66 108.76 L 258.95 108.76 L 263.25 108.76 L 267.54 108.76 L 271.83 108.76 L 276.13 108.76 L 280.42 108.76 L 284.71 108.76 L 289.01 108.76 L 293.30 108.76 L 297.59 108.76 L 301.88 108.76 L 306.18 108.76 L 310.47 108.76 L 314.76 108.76 L 319.06 108.76 L 323.35 108.76 L 327.64 108.76 L 331.94 108.76 L 336.23 108.76 L 340.52 108.76 L 344.82 108.76 L 349.11 108.76 L 353.40 108.76 L 357.70 108.76 L 361.99 108.76 L 366.28 108.76 L 370.58 108.76 L 374.87 108.76 L 379.16 108.76 L 383.46 108.76 L 387.75 108.76 L 392.04 108.76 L 396.34 108.76 L 400.63 108.76 L 404.92 108.76 L 409.21 108.76 L 413.51 108.76 L 417.80 108.76 L 422.09 108.76 L 426.39 108.76 L 430.68 108.76 L 434.97 108.76 L 439.27 108.76 L 443.56 108.76 L 447.85 108.76 L 452.15 108.76 L 456.44 108.76 L 460.73 108.76 L 465.03 108.76 L 469.32 108.76 L 473.61 108.76 L 477.91 108.76 L 482.20 108.76 L 486.49 108.76 L 490.79 108.76 L 495.08 108.76 L 499.37 108.76 L 503.66 108.76 L 507.96 108.76 L 512.25 108.76 L 516.54 108.76 L 520.84 108.76 L 525.13 108.76 L 529.42 108.76 L 533.72 108.76 L 538.01 108.76 L 542.30 108.76 L 546.60 108.76 L 550.89 108.76 L 555.18 108.76 L 559.48 108.76 L 563.77 108.76 L 568.06 108.76 L 572.36 108.76 L 576.65 108.76 L 580.94 108.76 L 585.24 108.76 L 589.53 108.76 L 593.82 108.76 L 598.12 108.76 L 602.41 108.76 L 606.70 108.76 L 610.99 108.76 L 615.29 108.76 L 619.58 108.76 L 623.87 108.76 L 628.17 108.76 L 632.46 108.76 L 636.75 108.76 L 641.05 108.76 L 645.34 108.76 L 649.63 108.76 L 653.93 108.94 L 658.22 100.39 L 662.51 81.40 L 666.81 81.40 L 671.10 81.40 L 675.39 81.40 L 679.69 81.40 L 683.98 70.78 L 688.27 70.78 L 692.57 70.78 L 696.86 70.78 L 701.15 70.78 L 705.45 70.78 L 709.74 70.78 L 714.03 70.78 L 718.32 70.78 L 722.62 70.78 L 726.91 70.78 L 731.20 70.78 L 735.50 70.78 L 739.79 70.78 L 744.08 70.78 L 748.38 70.78 L 752.67 70.78 L 756.96 70.78 L 761.26 70.78 L 765.55 70.78 L 769.84 70.78 L 774.14 70.78 L 778.43 70.78 L 782.72 70.78 L 787.02 70.78 L 791.31 70.78 L 795.60 70.78 L 799.90 70.78 L 804.19 70.78 L 808.48 70.78 L 812.77 70.78 L 817.07 70.78 L 821.36 70.78 L 825.65 70.78 L 829.95 70.78 L 834.24 70.78 L 838.53 70.78 L 842.83 70.78 L 847.12 70.78 L 851.41 70.78 L 855.71 70.78 L 860.00 70.78" fill="none" stroke="#111827" stroke-width="2"/>
    <circle cx="860.00" cy="70.78" r="3" fill="#111827"/>
    <text x="40.00" y="235.00" font-size="9" fill="#111827" text-anchor="middle" transform="rotate(-45 40.00 235.00)">28.08.2025</text><text x="121.57" y="235.00" font-size="9" fill="#111827" text-anchor="middle" transform="rotate(-45 121.57 235.00)">28.08.2025</text><text x="203.14" y="235.00" font-size="9" fill="#111827" text-anchor="middle" transform="rotate(-45 203.14 235.00)">08.09.2025</text><text x="284.71" y="235.00" font-size="9" fill="#111827" text-anchor="middle" transform="rotate(-45 284.71 235.00)">20.09.2025</text><text x="366.28" y="235.00" font-size="9" fill="#111827" text-anchor="middle" transform="rotate(-45 366.28 235.00)">08.10.2025</text><text x="447.85" y="235.00" font-size="9" fill="#111827" text-anchor="middle" transform="rotate(-45 447.85 235.00)">27.10.2025</text><text x="529.42" y="235.00" font-size="9" fill="#111827" text-anchor="middle" transform="rotate(-45 529.42 235.00)">13.11.2025</text><text x="610.99" y="235.00" font-size="9" fill="#111827" text-anchor="middle" transform="rotate(-45 610.99 235.00)">28.11.2025</text><text x="692.57" y="235.00" font-size="9" fill="#111827" text-anchor="middle" transform="rotate(-45 692.57 235.00)">09.12.2025</text><text x="774.14" y="235.00" font-size="9" fill="#111827" text-anchor="middle" transform="rotate(-45 774.14 235.00)">22.12.2025</text><text x="855.71" y="235.00" font-size="9" fill="#111827" text-anchor="middle" transform="rotate(-45 855.71 235.00)">09.01.2026</text>
  </g>
</svg>