<svg xmlns="http://www.w3.org/2000/svg" width="900" height="290" style="font-family: -apple-system, BlinkMacSystemFont, 'Segoe UI', Helvetica, Arial, sans-serif;">
  <rect width="100%" height="100%" fill="white"/>
  <g>
    <line x1="40" y1="220.00" x2="860" y2="220.00" stroke="#e5e7eb"/><text x="32" y="224.00" font-size="10" fill="#111827" text-anchor="end">0</text><line x1="40" y1="175.00" x2="860" y2="175.00" stroke="#e5e7eb"/><text x="32" y="179.00" font-size="10" fill="#111827" text-anchor="end">500</text><line x1="40" y1="130.00" x2="860" y2="130.00" stroke="#e5e7eb"/><text x="32" y="134.00" font-size="10" fill="#111827" text-anchor="end">1k</text><line x1="40" y1="85.00" x2="860" y2="85.00" stroke="#e5e7eb"/><text x="32" y="89.00" font-size="10" fill="#111827" text-anchor="end">1.5k</text><line x1="40" y1="40.00" x2="860" y2="40.00" stroke="#e5e7eb"/><text x="32" y="44.00" font-size="10" fill="#111827" text-anchor="end">2k</text>
    <line x1="40.00" y1="40" x2="40.00" y2="220" stroke="#e5e7eb" opacity="0.5"/><line x1="121.19" y1="40" x2="121.19" y2="220" stroke="#e5e7eb" opacity="0.5"/><line x1="202.38" y1="40" x2="202.38" y2="220" stroke="#e5e7eb" opacity="0.5"/><line x1="283.56" y1="40" x2="283.56" y2="220" stroke="#e5e7eb" opacity="0.5"/><line x1="364.75" y1="40" x2="364.75" y2="220" stroke="#e5e7eb" opacity="0.5"/><line x1="445.94" y1="40" x2="445.94" y2="220" stroke="#e5e7eb" opacity="0.5"/><line x1="527.13" y1="40" x2="527.13" y2="220" stroke="#e5e7eb" opacity="0.5"/><line x1="608.32" y1="40" x2="608.32" y2="220" stroke="#e5e7eb" opacity="0.5"/><line x1="689.50" y1="40" x2="689.50" y2="220" stroke="#e5e7eb" opacity="0.5"/><line x1="770.69" y1="40" x2="770.69" y2="220" stroke="#e5e7eb" opacity="0.5"/><line x1="851.88" y1="40" x2="851.88" y2="220" stroke="#e5e7eb" opacity="0.5"/>
    <line x1="40" y1="220" x2="860" y2="220" stroke="#9ca3af"/>
    <line x1="40" y1="40"   x2="40"   y2="220" stroke="#9ca3af"/>
    <path d="M 40.00 166.63 L 44.06 166.00 L 48.12 166.00 L 52.18 121.18 L 56.24 115.78 L 60.30 115.78 L 64.36 112.00 L 68.42 108.22 L 72.48 108.22 L 76.53 108.22 L 80.59 108.22 L 84.65 108.22 L 88.71 108.22 L 92.77 108.22 L 96.83 108.22 L 100.89 108.22 L 104.95 108.22 L 109.01 108.22 L 113.07 108.22 L 117.13 108.22 L 121.19 108.22 L 125.25 108.22 L 129.31 109.21 L 133.37 109.12 L 137.43 108.76 L 141.49 108.76 L 145.54 108.76 L 149.60 108.76 L 153.66 108.76 L 157.72 108.76 L 161.78 108.76 L 165.84 108.76 L 169.90 108.76 L 173.96 108.76 L 178.02 108.76 L 182.08 108.76 L 186.14 108.76 L 190.20 108.76 L 194.26 108.76 L 198.32 108.76 L 202.38 108.76 L 206.44 108.76 L 210.50 108.76 L 214.55 108.76 L 218.61 108.76 L 222.67 108.76 L 226.73 108.76 L 230.79 108.76 L 234.85 108.76 L 238.91 108.76 L 242.97 108.76 L 247.03 108.76 L 251.09 108.76 L 255.15 108.76 L 259.21 108.76 L 263.27 108.76 L 267.33 108.76 L 271.39 108.76 L 275.45 108.76 L 279.50 108.76 L 283.56 108.76 L 287.62 108.76 L 291.68 108.76 L 295.74 108.76 L 299.80 108.76 L 303.86 108.76 L 307.92 108.76 L 311.98 108.76 L 316.04 108.76 L 320.10 108.76 L 324.16 108.76 L 328.22 108.76 L 332.28 108.76 L 336.34 108.76 L 340.40 108.76 L 344.46 108.76 L 348.51 108.76 L 352.57 108.76 L 356.63 108.76 L 360.69 108.76 L 364.75 108.76 L 368.81 108.76 L 372.87 108.76 L 376.93 108.76 L 380.99 108.76 L 385.05 108.76 L 389.11 108.76 L 393.17 108.76 L 397.23 108.76 L 401.29 108.76 L 405.35 108.76 L 409.41 108.76 L 413.47 108.76 L 417.52 108.76 L 421.58 108.76 L 425.64 108.76 L 429.70 108.76 L 433.76 108.76 L 437.82 108.76 L 441.88 108.76 L 445.94 108.76 L 450.00 108.76 L 454.06 108.76 L 458.12 108.76 L 462.18 108.76 L 466.24 108.76 L 470.30 108.76 L 474.36 108.76 L 478.42 108.76 L 482.48 108.76 L 486.53 108.76 L 490.59 108.76 L 494.65 108.76 L 498.71 108.76 L 502.77 108.76 L 506.83 108.76 L 510.89 108.76 L 514.95 108.76 L 519.01 108.76 L 523.07 108.76 L 527.13 108.76 L 531.19 108.76 L 535.25 108.76 L 539.31 108.76 L 543.37 108.76 L 547.43 108.76 L 551.49 108.76 L 555.54 108.76 L 559.60 108.76 L 563.66 108.76 L 567.72 108.76 L 571.78 108.76 L 575.84 108.76 L 579.90 108.76 L 583.96 108.76 L 588.02 108.76 L 592.08 108.76 L 596.14 108.76 L 600.20 108.76 L 604.26 108.76 L 608.32 108.76 L 612.38 108.76 L 616.44 108.76 L 620.50 108.94 L 624.55 100.39 L 628.61 81.40 L 632.67 81.40 L 636.73 81.40 L 640.79 81.40 L 644.85 81.40 L 648.91 70.78 L 652.97 70.78 L 657.03 70.78 L 661.09 70.78 L 665.15 70.78 L 669.21 70.78 L 673.27 70.78 L 677.33 70.78 L 681.39 70.78 L 685.45 70.78 L 689.50 70.78 L 693.56 70.78 L 697.62 70.78 L 701.68 70.78 L 705.74 70.78 L 709.80 70.78 L 713.86 70.78 L 717.92 70.78 L 721.98 70.78 L 726.04 70.78 L 730.10 70.78 L 734.16 70.78 L 738.22 70.78 L 742.28 70.78 L 746.34 70.78 L 750.40 70.78 L 754.46 70.78 L 758.51 70.78 L 762.57 70.78 L 766.63 70.78 L 770.69 70.78 L 774.75 70.78 L 778.81 70.78 L 782.87 70.78 L 786.93 70.78 L 790.99 70.78 L 795.05 70.78 L 799.11 70.78 L 803.17 70.78 L 807.23 70.78 L 811.29 70.78 L 815.35 70.78 L 819.41 70.78 L 823.47 70.78 L 827.52 70.78 L 831.58 70.78 L 835.64 70.78 L 839.70 70.78 L 843.76 70.78 L 847.82 70.78 L 851.88 70.78 L 855.94 70.78 L 860.00 70.78" fill="none" stroke="#111827" stroke-width="2"/>
    <circle cx="860.00" cy="70.78" r="3" fill="#111827"/>
    <text x="40.00" y="235.00" font-size="9" fill="#111827" text-anchor="middle" transform="rotate(-45 40.00 235.00)">28.08.2025</text><text x="121.19" y="235.00" font-size="9" fill="#111827" text-anchor="middle" transform="rotate(-45 121.19 235.00)">28.08.2025</text><text x="202.38" y="235.00" font-size="9" fill="#111827" text-anchor="middle" transform="rotate(-45 202.38 235.00)">09.09.2025</text><text x="283.56" y="235.00" font-size="9" fill="#111827" text-anchor="middle" transform="rotate(-45 283.56 235.00)">23.09.2025</text><text x="364.75" y="235.00" font-size="9" fill="#111827" text-anchor="middle" transform="rotate(-45 364.75 235.00)">12.10.2025</text><text x="445.94" y="235.00" font-size="9" fill="#111827" text-anchor="middle" transform="rotate(-45 445.94 235.00)">30.10.2025</text><text x="527.13" y="235.00" font-size="9" fill="#111827" text-anchor="middle" transform="rotate(-45 527.13 235.00)">19.11.2025</text><text x="608.32" y="235.00" font-size="9" fill="#111827" text-anchor="middle" transform="rotate(-45 608.32 235.00)">02.12.2025</text><text x="689.50" y="235.00" font-size="9" fill="#111827" text-anchor="middle" transform="rotate(-45 689.50 235.00)">12.12.2025</text><text x="770.69" y="235.00" font-size="9" fill="#111827" text-anchor="middle" transform="rotate(-45 770.69 235.00)">30.12.2025</text><text x="851.88" y="235.00" font-size="9" fill="#111827" text-anchor="middle" transform="rotate(-45 851.88 235.00)">17.01.2026</text>
  </g>
</svg>