<svg xmlns="http://www.w3.org/2000/svg" width="900" height="290" style="font-family: -apple-system, BlinkMacSystemFont, 'Segoe UI', Helvetica, Arial, sans-serif;">
  <rect width="100%" height="100%" fill="#0d1117"/>
  <g>
    <line x1="40" y1="220.00" x2="860" y2="220.00" stroke="#30363d"/><text x="32" y="224.00" font-size="10" fill="#c9d1d9" text-anchor="end">0</text><line x1="40" y1="175.00" x2="860" y2="175.00" stroke="#30363d"/><text x="32" y="179.00" font-size="10" fill="#c9d1d9" text-anchor="end">500</text><line x1="40" y1="130.00" x2="860" y2="130.00" stroke="#30363d"/><text x="32" y="134.00" font-size="10" fill="#c9d1d9" text-anchor="end">1k</text><line x1="40" y1="85.00" x2="860" y2="85.00" stroke="#30363d"/><text x="32" y="89.00" font-size="10" fill="#c9d1d9" text-anchor="end">1.5k</text><line x1="40" y1="40.00" x2="860" y2="40.00" stroke="#30363d"/><text x="32" y="44.00" font-size="10" fill="#c9d1d9" text-anchor="end">2k</text>
    <line x1="40.00" y1="40" x2="40.00" y2="220" stroke="#30363d" opacity="0.5"/><line x1="112.35" y1="40" x2="112.35" y2="220" stroke="#30363d" opacity="0.5"/><line x1="184.71" y1="40" x2="184.71" y2="220" stroke="#30363d" opacity="0.5"/><line x1="257.06" y1="40" x2="257.06" y2="220" stroke="#30363d" opacity="0.5"/><line x1="329.41" y1="40" x2="329.41" y2="220" stroke="#30363d" opacity="0.5"/><line x1="401.76" y1="40" x2="401.76" y2="220" stroke="#30363d" opacity="0.5"/><line x1="474.12" y1="40" x2="474.12" y2="220" stroke="#30363d" opacity="0.5"/><line x1="546.47" y1="40" x2="546.47" y2="220" stroke="#30363d" opacity="0.5"/><line x1="618.82" y1="40" x2="618.82" y2="220" stroke="#30363d" opacity="0.5"/><line x1="691.18" y1="40" x2="691.18" y2="220" stroke="#30363d" opacity="0.5"/><line x1="763.53" y1="40" x2="763.53" y2="220" stroke="#30363d" opacity="0.5"/><line x1="835.88" y1="40" x2="835.88" y2="220" stroke="#30363d" opacity="0.5"/>
    <line x1="40" y1="220" x2="860" y2="220" stroke="#30363d"/>
    <line x1="40" y1="40"   x2="40"   y2="220" stroke="#30363d"/>
    <path d="M 40.00 166.63 L 64.12 166.00 L 88.24 166.00 L 112.35 121.18 L 136.47 115.78 L 160.59 115.78 L 184.71 112.00 L 208.82 108.22 L 232.94 108.22 L 257.06 108.22 L 281.18 108.22 L 305.29 108.22 L 329.41 108.22 L 353.53 108.22 L 377.65 108.22 L 401.76 108.22 L 425.88 108.22 L 450.00 108.22 L 474.12 108.22 L 498.24 108.22 L 522.35 108.22 L 546.47 108.22 L 570.59 109.21 L 594.71 109.12 L 618.82 108.76 L 642.94 108.76 L 667.06 108.76 L 691.18 108.76 L 715.29 108.76 L 739.41 108.76 L 763.53 108.76 L 787.65 108.76 L 811.76 108.76 L 835.88 108.76 L 860.00 108.76" fill="none" stroke="#3fb950" stroke-width="2"/>
    <circle cx="860.00" cy="108.76" r="3" fill="#3fb950"/>
    <text x="40.00" y="235.00" font-size="9" fill="#c9d1d9" text-anchor="middle" transform="rotate(-45 40.00 235.00)">28.08.2025</text><text x="112.35" y="235.00" font-size="9" fill="#c9d1d9" text-anchor="middle" transform="rotate(-45 112.35 235.00)">28.08.2025</text><text x="184.71" y="235.00" font-size="9" fill="#c9d1d9" text-anchor="middle" transform="rotate(-45 184.71 235.00)">28.08.2025</text><text x="257.06" y="235.00" font-size="9" fill="#c9d1d9" text-anchor="middle" transform="rotate(-45 257.06 235.00)">28.08.2025</text><text x="329.41" y="235.00" font-size="9" fill="#c9d1d9" text-anchor="middle" transform="rotate(-45 329.41 235.00)">28.08.2025</text><text x="401.76" y="235.00" font-size="9" fill="#c9d1d9" text-anchor="middle" transform="rotate(-45 401.76 235.00)">28.08.2025</text><text x="474.12" y="235.00" font-size="9" fill="#c9d1d9" text-anchor="middle" transform="rotate(-45 474.12 235.00)">28.08.2025</text><text x="546.47" y="235.00" font-size="9" fill="#c9d1d9" text-anchor="middle" transform="rotate(-45 546.47 235.00)">28.08.2025</text><text x="618.82" y="235.00" font-size="9" fill="#c9d1d9" text-anchor="middle" transform="rotate(-45 618.82 235.00)">28.08.2025</text><text x="691.18" y="235.00" font-size="9" fill="#c9d1d9" text-anchor="middle" transform="rotate(-45 691.18 235.00)">29.08.2025</text><text x="763.53" y="235.00" font-size="9" fill="#c9d1d9" text-anchor="middle" transform="rotate(-45 763.53 235.00)">01.09.2025</text><text x="835.88" y="235.00" font-size="9" fill="#c9d1d9" text-anchor="middle" transform="rotate(-45 835.88 235.00)">04.09.2025</text>
  </g>
</svg>