<svg xmlns="http://www.w3.org/2000/svg" width="900" height="290" style="font-family: -apple-system, BlinkMacSystemFont, 'Segoe UI', Helvetica, Arial, sans-serif;">
  <rect width="100%" height="100%" fill="#0d1117"/>
  <g>
    <line x1="40" y1="220.00" x2="860" y2="220.00" stroke="#30363d"/><text x="32" y="224.00" font-size="10" fill="#c9d1d9" text-anchor="end">0</text><line x1="40" y1="175.00" x2="860" y2="175.00" stroke="#30363d"/><text x="32" y="179.00" font-size="10" fill="#c9d1d9" text-anchor="end">500</text><line x1="40" y1="130.00" x2="860" y2="130.00" stroke="#30363d"/><text x="32" y="134.00" font-size="10" fill="#c9d1d9" text-anchor="end">1k</text><line x1="40" y1="85.00" x2="860" y2="85.00" stroke="#30363d"/><text x="32" y="89.00" font-size="10" fill="#c9d1d9" text-anchor="end">1.5k</text><line x1="40" y1="40.00" x2="860" y2="40.00" stroke="#30363d"/><text x="32" y="44.00" font-size="10" fill="#c9d1d9" text-anchor="end">2k</text>
    <line x1="40.00" y1="40" x2="40.00" y2="220" stroke="#30363d" opacity="0.5"/><line x1="122.49" y1="40" x2="122.49" y2="220" stroke="#30363d" opacity="0.5"/><line x1="204.97" y1="40" x2="204.97" y2="220" stroke="#30363d" opacity="0.5"/><line x1="287.46" y1="40" x2="287.46" y2="220" stroke="#30363d" opacity="0.5"/><line x1="369.94" y1="40" x2="369.94" y2="220" stroke="#30363d" opacity="0.5"/><line x1="452.43" y1="40" x2="452.43" y2="220" stroke="#30363d" opacity="0.5"/><line x1="534.91" y1="40" x2="534.91" y2="220" stroke="#30363d" opacity="0.5"/><line x1="617.40" y1="40" x2="617.40" y2="220" stroke="#30363d" opacity="0.5"/><line x1="699.88" y1="40" x2="699.88" y2="220" stroke="#30363d" opacity="0.5"/><line x1="782.37" y1="40" x2="782.37" y2="220" stroke="#30363d" opacity="0.5"/>
    <line x1="40" y1="220" x2="860" y2="220" stroke="#30363d"/>
    <line x1="40" y1="40"   x2="40"   y2="220" stroke="#30363d"/>
    <path d="M 40.00 166.63 L 44.85 166.00 L 49.70 166.00 L 54.56 121.18 L 59.41 115.78 L 64.26 115.78 L 69.11 112.00 L 73.96 108.22 L 78.82 108.22 L 83.67 108.22 L 88.52 108.22 L 93.37 108.22 L 98.22 108.22 L 103.08 108.22 L 107.93 108.22 L 112.78 108.22 L 117.63 108.22 L 122.49 108.22 L 127.34 108.22 L 132.19 108.22 L 137.04 108.22 L 141.89 108.22 L 146.75 109.21 L 151.60 109.12 L 156.45 108.76 L 161.30 108.76 L 166.15 108.76 L 171.01 108.76 L 175.86 108.76 L 180.71 108.76 L 185.56 108.76 L 190.41 108.76 L 195.27 108.76 L 200.12 108.76 L 204.97 108.76 L 209.82 108.76 L 214.67 108.76 L 219.53 108.76 L 224.38 108.76 L 229.23 108.76 L 234.08 108.76 L 238.93 108.76 L 243.79 108.76 L 248.64 108.76 L 253.49 108.76 L 258.34 108.76 L 263.20 108.76 L 268.05 108.76 L 272.90 108.76 L 277.75 108.76 L 282.60 108.76 L 287.46 108.76 L 292.31 108.76 L 297.16 108.76 L 302.01 108.76 L 306.86 108.76 L 311.72 108.76 L 316.57 108.76 L 321.42 108.76 L 326.27 108.76 L 331.12 108.76 L 335.98 108.76 L 340.83 108.76 L 345.68 108.76 L 350.53 108.76 L 355.38 108.76 L 360.24 108.76 L 365.09 108.76 L 369.94 108.76 L 374.79 108.76 L 379.64 108.76 L 384.50 108.76 L 389.35 108.76 L 394.20 108.76 L 399.05 108.76 L 403.91 108.76 L 408.76 108.76 L 413.61 108.76 L 418.46 108.76 L 423.31 108.76 L 428.17 108.76 L 433.02 108.76 L 437.87 108.76 L 442.72 108.76 L 447.57 108.76 L 452.43 108.76 L 457.28 108.76 L 462.13 108.76 L 466.98 108.76 L 471.83 108.76 L 476.69 108.76 L 481.54 108.76 L 486.39 108.76 L 491.24 108.76 L 496.09 108.76 L 500.95 108.76 L 505.80 108.76 L 510.65 108.76 L 515.50 108.76 L 520.36 108.76 L 525.21 108.76 L 530.06 108.76 L 534.91 108.76 L 539.76 108.76 L 544.62 108.76 L 549.47 108.76 L 554.32 108.76 L 559.17 108.76 L 564.02 108.76 L 568.88 108.76 L 573.73 108.76 L 578.58 108.76 L 583.43 108.76 L 588.28 108.76 L 593.14 108.76 L 597.99 108.76 L 602.84 108.76 L 607.69 108.76 L 612.54 108.76 L 617.40 108.76 L 622.25 108.76 L 627.10 108.76 L 631.95 108.76 L 636.80 108.76 L 641.66 108.76 L 646.51 108.76 L 651.36 108.76 L 656.21 108.76 L 661.07 108.76 L 665.92 108.76 L 670.77 108.76 L 675.62 108.76 L 680.47 108.76 L 685.33 108.76 L 690.18 108.76 L 695.03 108.76 L 699.88 108.76 L 704.73 108.76 L 709.59 108.76 L 714.44 108.76 L 719.29 108.76 L 724.14 108.76 L 728.99 108.76 L 733.85 108.94 L 738.70 100.39 L 743.55 81.40 L 748.40 81.40 L 753.25 81.40 L 758.11 81.40 L 762.96 81.40 L 767.81 70.78 L 772.66 70.78 L 777.51 70.78 L 782.37 70.78 L 787.22 70.78 L 792.07 70.78 L 796.92 70.78 L 801.78 70.78 L 806.63 70.78 L 811.48 70.78 L 816.33 70.78 L 821.18 70.78 L 826.04 70.78 L 830.89 70.78 L 835.74 70.78 L 840.59 70.78 L 845.44 70.78 L 850.30 70.78 L 855.15 70.78 L 860.00 70.78" fill="none" stroke="#3fb950" stroke-width="2"/>
    <circle cx="860.00" cy="70.78" r="3" fill="#3fb950"/>
    <text x="40.00" y="235.00" font-size="9" fill="#c9d1d9" text-anchor="middle" transform="rotate(-45 40.00 235.00)">28.08.2025</text><text x="122.49" y="235.00" font-size="9" fill="#c9d1d9" text-anchor="middle" transform="rotate(-45 122.49 235.00)">28.08.2025</text><text x="204.97" y="235.00" font-size="9" fill="#c9d1d9" text-anchor="middle" transform="rotate(-45 204.97 235.00)">05.09.2025</text><text x="287.46" y="235.00" font-size="9" fill="#c9d1d9" text-anchor="middle" transform="rotate(-45 287.46 235.00)">15.09.2025</text><text x="369.94" y="235.00" font-size="9" fill="#c9d1d9" text-anchor="middle" transform="rotate(-45 369.94 235.00)">01.10.2025</text><text x="452.43" y="235.00" font-size="9" fill="#c9d1d9" text-anchor="middle" transform="rotate(-45 452.43 235.00)">17.10.2025</text><text x="534.91" y="235.00" font-size="9" fill="#c9d1d9" text-anchor="middle" transform="rotate(-45 534.91 235.00)">01.11.2025</text><text x="617.40" y="235.00" font-size="9" fill="#c9d1d9" text-anchor="middle" transform="rotate(-45 617.40 235.00)">18.11.2025</text><text x="699.88" y="235.00" font-size="9" fill="#c9d1d9" text-anchor="middle" transform="rotate(-45 699.88 235.00)">28.11.2025</text><text x="782.37" y="235.00" font-size="9" fill="#c9d1d9" text-anchor="middle" transform="rotate(-45 782.37 235.00)">10.12.2025</text>
  </g>
</svg>