<svg xmlns="http://www.w3.org/2000/svg" width="900" height="290" style="font-family: -apple-system, BlinkMacSystemFont, 'Segoe UI', Helvetica, Arial, sans-serif;">
  <rect width="100%" height="100%" fill="#0d1117"/>
  <g>
    <line x1="40" y1="220.00" x2="860" y2="220.00" stroke="#30363d"/><text x="32" y="224.00" font-size="10" fill="#c9d1d9" text-anchor="end">0</text><line x1="40" y1="175.00" x2="860" y2="175.00" stroke="#30363d"/><text x="32" y="179.00" font-size="10" fill="#c9d1d9" text-anchor="end">500</text><line x1="40" y1="130.00" x2="860" y2="130.00" stroke="#30363d"/><text x="32" y="134.00" font-size="10" fill="#c9d1d9" text-anchor="end">1k</text><line x1="40" y1="85.00" x2="860" y2="85.00" stroke="#30363d"/><text x="32" y="89.00" font-size="10" fill="#c9d1d9" text-anchor="end">1.5k</text><line x1="40" y1="40.00" x2="860" y2="40.00" stroke="#30363d"/><text x="32" y="44.00" font-size="10" fill="#c9d1d9" text-anchor="end">2k</text>
    <line x1="40.00" y1="40" x2="40.00" y2="220" stroke="#30363d" opacity="0.5"/><line x1="121.65" y1="40" x2="121.65" y2="220" stroke="#30363d" opacity="0.5"/><line x1="203.29" y1="40" x2="203.29" y2="220" stroke="#30363d" opacity="0.5"/><line x1="284.94" y1="40" x2="284.94" y2="220" stroke="#30363d" opacity="0.5"/><line x1="366.58" y1="40" x2="366.58" y2="220" stroke="#30363d" opacity="0.5"/><line x1="448.23" y1="40" x2="448.23" y2="220" stroke="#30363d" opacity="0.5"/><line x1="529.87" y1="40" x2="529.87" y2="220" stroke="#30363d" opacity="0.5"/><line x1="611.52" y1="40" x2="611.52" y2="220" stroke="#30363d" opacity="0.5"/><line x1="693.16" y1="40" x2="693.16" y2="220" stroke="#30363d" opacity="0.5"/><line x1="774.81" y1="40" x2="774.81" y2="220" stroke="#30363d" opacity="0.5"/><line x1="856.45" y1="40" x2="856.45" y2="220" stroke="#30363d" opacity="0.5"/>
    <line x1="40" y1="220" x2="860" y2="220" stroke="#30363d"/>
    <line x1="40" y1="40"   x2="40"   y2="220" stroke="#30363d"/>
    <path d="M 40.00 166.63 L 43.55 166.00 L 47.10 166.00 L 50.65 121.18 L 54.20 115.78 L 57.75 115.78 L 61.30 112.00 L 64.85 108.22 L 68.40 108.22 L 71.95 108.22 L 75.50 108.22 L 79.05 108.22 L 82.60 108.22 L 86.15 108.22 L 89.70 108.22 L 93.25 108.22 L 96.80 108.22 L 100.35 108.22 L 103.90 108.22 L 107.45 108.22 L 111.00 108.22 L 114.55 108.22 L 118.10 109.21 L 121.65 109.12 L 125.19 108.76 L 128.74 108.76 L 132.29 108.76 L 135.84 108.76 L 139.39 108.76 L 142.94 108.76 L 146.49 108.76 L 150.04 108.76 L 153.59 108.76 L 157.14 108.76 L 160.69 108.76 L 164.24 108.76 L 167.79 108.76 L 171.34 108.76 L 174.89 108.76 L 178.44 108.76 L 181.99 108.76 L 185.54 108.76 L 189.09 108.76 L 192.64 108.76 L 196.19 108.76 L 199.74 108.76 L 203.29 108.76 L 206.84 108.76 L 210.39 108.76 L 213.94 108.76 L 217.49 108.76 L 221.04 108.76 L 224.59 108.76 L 228.14 108.76 L 231.69 108.76 L 235.24 108.76 L 238.79 108.76 L 242.34 108.76 L 245.89 108.76 L 249.44 108.76 L 252.99 108.76 L 256.54 108.76 L 260.09 108.76 L 263.64 108.76 L 267.19 108.76 L 270.74 108.76 L 274.29 108.76 L 277.84 108.76 L 281.39 108.76 L 284.94 108.76 L 288.48 108.76 L 292.03 108.76 L 295.58 108.76 L 299.13 108.76 L 302.68 108.76 L 306.23 108.76 L 309.78 108.76 L 313.33 108.76 L 316.88 108.76 L 320.43 108.76 L 323.98 108.76 L 327.53 108.76 L 331.08 108.76 L 334.63 108.76 L 338.18 108.76 L 341.73 108.76 L 345.28 108.76 L 348.83 108.76 L 352.38 108.76 L 355.93 108.76 L 359.48 108.76 L 363.03 108.76 L 366.58 108.76 L 370.13 108.76 L 373.68 108.76 L 377.23 108.76 L 380.78 108.76 L 384.33 108.76 L 387.88 108.76 L 391.43 108.76 L 394.98 108.76 L 398.53 108.76 L 402.08 108.76 L 405.63 108.76 L 409.18 108.76 L 412.73 108.76 L 416.28 108.76 L 419.83 108.76 L 423.38 108.76 L 426.93 108.76 L 430.48 108.76 L 434.03 108.76 L 437.58 108.76 L 441.13 108.76 L 444.68 108.76 L 448.23 108.76 L 451.77 108.76 L 455.32 108.76 L 458.87 108.76 L 462.42 108.76 L 465.97 108.76 L 469.52 108.76 L 473.07 108.76 L 476.62 108.76 L 480.17 108.76 L 483.72 108.76 L 487.27 108.76 L 490.82 108.76 L 494.37 108.76 L 497.92 108.76 L 501.47 108.76 L 505.02 108.76 L 508.57 108.76 L 512.12 108.76 L 515.67 108.76 L 519.22 108.76 L 522.77 108.76 L 526.32 108.76 L 529.87 108.76 L 533.42 108.76 L 536.97 108.76 L 540.52 108.76 L 544.07 108.76 L 547.62 108.94 L 551.17 100.39 L 554.72 81.40 L 558.27 81.40 L 561.82 81.40 L 565.37 81.40 L 568.92 81.40 L 572.47 70.78 L 576.02 70.78 L 579.57 70.78 L 583.12 70.78 L 586.67 70.78 L 590.22 70.78 L 593.77 70.78 L 597.32 70.78 L 600.87 70.78 L 604.42 70.78 L 607.97 70.78 L 611.52 70.78 L 615.06 70.78 L 618.61 70.78 L 622.16 70.78 L 625.71 70.78 L 629.26 70.78 L 632.81 70.78 L 636.36 70.78 L 639.91 70.78 L 643.46 70.78 L 647.01 70.78 L 650.56 70.78 L 654.11 70.78 L 657.66 70.78 L 661.21 70.78 L 664.76 70.78 L 668.31 70.78 L 671.86 70.78 L 675.41 70.78 L 678.96 70.78 L 682.51 70.78 L 686.06 70.78 L 689.61 70.78 L 693.16 70.78 L 696.71 70.78 L 700.26 70.78 L 703.81 70.78 L 707.36 70.78 L 710.91 70.78 L 714.46 70.78 L 718.01 70.78 L 721.56 70.78 L 725.11 70.78 L 728.66 70.78 L 732.21 70.78 L 735.76 70.78 L 739.31 70.78 L 742.86 70.78 L 746.41 70.78 L 749.96 70.78 L 753.51 70.78 L 757.06 70.78 L 760.61 70.78 L 764.16 70.78 L 767.71 70.78 L 771.26 70.78 L 774.81 70.78 L 778.35 70.78 L 781.90 70.78 L 785.45 70.78 L 789.00 70.78 L 792.55 70.78 L 796.10 70.78 L 799.65 70.78 L 803.20 70.78 L 806.75 70.78 L 810.30 70.78 L 813.85 70.78 L 817.40 70.78 L 820.95 70.78 L 824.50 70.78 L 828.05 70.78 L 831.60 70.78 L 835.15 70.78 L 838.70 70.78 L 842.25 70.78 L 845.80 70.78 L 849.35 70.78 L 852.90 70.78 L 856.45 70.78 L 860.00 70.78" fill="none" stroke="#3fb950" stroke-width="2"/>
    <circle cx="860.00" cy="70.78" r="3" fill="#3fb950"/>
    <text x="40.00" y="235.00" font-size="9" fill="#c9d1d9" text-anchor="middle" transform="rotate(-45 40.00 235.00)">28.08.2025</text><text x="121.65" y="235.00" font-size="9" fill="#c9d1d9" text-anchor="middle" transform="rotate(-45 121.65 235.00)">28.08.2025</text><text x="203.29" y="235.00" font-size="9" fill="#c9d1d9" text-anchor="middle" transform="rotate(-45 203.29 235.00)">15.09.2025</text><text x="284.94" y="235.00" font-size="9" fill="#c9d1d9" text-anchor="middle" transform="rotate(-45 284.94 235.00)">02.10.2025</text><text x="366.58" y="235.00" font-size="9" fill="#c9d1d9" text-anchor="middle" transform="rotate(-45 366.58 235.00)">24.10.2025</text><text x="448.23" y="235.00" font-size="9" fill="#c9d1d9" text-anchor="middle" transform="rotate(-45 448.23 235.00)">14.11.2025</text><text x="529.87" y="235.00" font-size="9" fill="#c9d1d9" text-anchor="middle" transform="rotate(-45 529.87 235.00)">30.11.2025</text><text x="611.52" y="235.00" font-size="9" fill="#c9d1d9" text-anchor="middle" transform="rotate(-45 611.52 235.00)">13.12.2025</text><text x="693.16" y="235.00" font-size="9" fill="#c9d1d9" text-anchor="middle" transform="rotate(-45 693.16 235.00)">03.01.2026</text><text x="774.81" y="235.00" font-size="9" fill="#c9d1d9" text-anchor="middle" transform="rotate(-45 774.81 235.00)">24.01.2026</text><text x="856.45" y="235.00" font-size="9" fill="#c9d1d9" text-anchor="middle" transform="rotate(-45 856.45 235.00)">15.02.2026</text>
  </g>
</svg>