<svg xmlns="http://www.w3.org/2000/svg" width="900" height="290" style="font-family: -apple-system, BlinkMacSystemFont, 'Segoe UI', Helvetica, Arial, sans-serif;">
  <rect width="100%" height="100%" fill="#0d1117"/>
  <g>
    <line x1="40" y1="220.00" x2="860" y2="220.00" stroke="#30363d"/><text x="32" y="224.00" font-size="10" fill="#c9d1d9" text-anchor="end">0</text><line x1="40" y1="175.00" x2="860" y2="175.00" stroke="#30363d"/><text x="32" y="179.00" font-size="10" fill="#c9d1d9" text-anchor="end">500</text><line x1="40" y1="130.00" x2="860" y2="130.00" stroke="#30363d"/><text x="32" y="134.00" font-size="10" fill="#c9d1d9" text-anchor="end">1k</text><line x1="40" y1="85.00" x2="860" y2="85.00" stroke="#30363d"/><text x="32" y="89.00" font-size="10" fill="#c9d1d9" text-anchor="end">1.5k</text><line x1="40" y1="40.00" x2="860" y2="40.00" stroke="#30363d"/><text x="32" y="44.00" font-size="10" fill="#c9d1d9" text-anchor="end">2k</text>
    <line x1="40.00" y1="40" x2="40.00" y2="220" stroke="#30363d" opacity="0.5"/><line x1="116.88" y1="40" x2="116.88" y2="220" stroke="#30363d" opacity="0.5"/><line x1="193.75" y1="40" x2="193.75" y2="220" stroke="#30363d" opacity="0.5"/><line x1="270.62" y1="40" x2="270.62" y2="220" stroke="#30363d" opacity="0.5"/><line x1="347.50" y1="40" x2="347.50" y2="220" stroke="#30363d" opacity="0.5"/><line x1="424.38" y1="40" x2="424.38" y2="220" stroke="#30363d" opacity="0.5"/><line x1="501.25" y1="40" x2="501.25" y2="220" stroke="#30363d" opacity="0.5"/><line x1="578.12" y1="40" x2="578.12" y2="220" stroke="#30363d" opacity="0.5"/><line x1="655.00" y1="40" x2="655.00" y2="220" stroke="#30363d" opacity="0.5"/><line x1="731.88" y1="40" x2="731.88" y2="220" stroke="#30363d" opacity="0.5"/><line x1="808.75" y1="40" x2="808.75" y2="220" stroke="#30363d" opacity="0.5"/>
    <line x1="40" y1="220" x2="860" y2="220" stroke="#30363d"/>
    <line x1="40" y1="40"   x2="40"   y2="220" stroke="#30363d"/>
    <path d="M 40.00 166.63 L 48.54 166.00 L 57.08 166.00 L 65.62 121.18 L 74.17 115.78 L 82.71 115.78 L 91.25 112.00 L 99.79 108.22 L 108.33 108.22 L 116.88 108.22 L 125.42 108.22 L 133.96 108.22 L 142.50 108.22 L 151.04 108.22 L 159.58 108.22 L 168.12 108.22 L 176.67 108.22 L 185.21 108.22 L 193.75 108.22 L 202.29 108.22 L 210.83 108.22 L 219.38 108.22 L 227.92 109.21 L 236.46 109.12 L 245.00 108.76 L 253.54 108.76 L 262.08 108.76 L 270.62 108.76 L 279.17 108.76 L 287.71 108.76 L 296.25 108.76 L 304.79 108.76 L 313.33 108.76 L 321.88 108.76 L 330.42 108.76 L 338.96 108.76 L 347.50 108.76 L 356.04 108.76 L 364.58 108.76 L 373.12 108.76 L 381.67 108.76 L 390.21 108.76 L 398.75 108.76 L 407.29 108.76 L 415.83 108.76 L 424.38 108.76 L 432.92 108.76 L 441.46 108.76 L 450.00 108.76 L 458.54 108.76 L 467.08 108.76 L 475.62 108.76 L 484.17 108.76 L 492.71 108.76 L 501.25 108.76 L 509.79 108.76 L 518.33 108.76 L 526.88 108.76 L 535.42 108.76 L 543.96 108.76 L 552.50 108.76 L 561.04 108.76 L 569.58 108.76 L 578.12 108.76 L 586.67 108.76 L 595.21 108.76 L 603.75 108.76 L 612.29 108.76 L 620.83 108.76 L 629.38 108.76 L 637.92 108.76 L 646.46 108.76 L 655.00 108.76 L 663.54 108.76 L 672.08 108.76 L 680.62 108.76 L 689.17 108.76 L 697.71 108.76 L 706.25 108.76 L 714.79 108.76 L 723.33 108.76 L 731.88 108.76 L 740.42 108.76 L 748.96 108.76 L 757.50 108.76 L 766.04 108.76 L 774.58 108.76 L 783.12 108.76 L 791.67 108.76 L 800.21 108.76 L 808.75 108.76 L 817.29 108.76 L 825.83 108.76 L 834.38 108.76 L 842.92 108.76 L 851.46 108.76 L 860.00 108.76" fill="none" stroke="#3fb950" stroke-width="2"/>
    <circle cx="860.00" cy="108.76" r="3" fill="#3fb950"/>
    <text x="40.00" y="235.00" font-size="9" fill="#c9d1d9" text-anchor="middle" transform="rotate(-45 40.00 235.00)">28.08.2025</text><text x="116.88" y="235.00" font-size="9" fill="#c9d1d9" text-anchor="middle" transform="rotate(-45 116.88 235.00)">28.08.2025</text><text x="193.75" y="235.00" font-size="9" fill="#c9d1d9" text-anchor="middle" transform="rotate(-45 193.75 235.00)">28.08.2025</text><text x="270.62" y="235.00" font-size="9" fill="#c9d1d9" text-anchor="middle" transform="rotate(-45 270.62 235.00)">29.08.2025</text><text x="347.50" y="235.00" font-size="9" fill="#c9d1d9" text-anchor="middle" transform="rotate(-45 347.50 235.00)">07.09.2025</text><text x="424.38" y="235.00" font-size="9" fill="#c9d1d9" text-anchor="middle" transform="rotate(-45 424.38 235.00)">14.09.2025</text><text x="501.25" y="235.00" font-size="9" fill="#c9d1d9" text-anchor="middle" transform="rotate(-45 501.25 235.00)">19.09.2025</text><text x="578.12" y="235.00" font-size="9" fill="#c9d1d9" text-anchor="middle" transform="rotate(-45 578.12 235.00)">28.09.2025</text><text x="655.00" y="235.00" font-size="9" fill="#c9d1d9" text-anchor="middle" transform="rotate(-45 655.00 235.00)">07.10.2025</text><text x="731.88" y="235.00" font-size="9" fill="#c9d1d9" text-anchor="middle" transform="rotate(-45 731.88 235.00)">16.10.2025</text><text x="808.75" y="235.00" font-size="9" fill="#c9d1d9" text-anchor="middle" transform="rotate(-45 808.75 235.00)">25.10.2025</text>
  </g>
</svg>