<svg xmlns="http://www.w3.org/2000/svg" width="900" height="290" style="font-family: -apple-system, BlinkMacSystemFont, 'Segoe UI', Helvetica, Arial, sans-serif;">
  <rect width="100%" height="100%" fill="#0d1117"/>
  <g>
    <line x1="40" y1="220.00" x2="860" y2="220.00" stroke="#30363d"/><text x="32" y="224.00" font-size="10" fill="#c9d1d9" text-anchor="end">0</text><line x1="40" y1="175.00" x2="860" y2="175.00" stroke="#30363d"/><text x="32" y="179.00" font-size="10" fill="#c9d1d9" text-anchor="end">500</text><line x1="40" y1="130.00" x2="860" y2="130.00" stroke="#30363d"/><text x="32" y="134.00" font-size="10" fill="#c9d1d9" text-anchor="end">1k</text><line x1="40" y1="85.00" x2="860" y2="85.00" stroke="#30363d"/><text x="32" y="89.00" font-size="10" fill="#c9d1d9" text-anchor="end">1.5k</text><line x1="40" y1="40.00" x2="860" y2="40.00" stroke="#30363d"/><text x="32" y="44.00" font-size="10" fill="#c9d1d9" text-anchor="end">2k</text>
    <line x1="40.00" y1="40" x2="40.00" y2="220" stroke="#30363d" opacity="0.5"/><line x1="119.72" y1="40" x2="119.72" y2="220" stroke="#30363d" opacity="0.5"/><line x1="199.44" y1="40" x2="199.44" y2="220" stroke="#30363d" opacity="0.5"/><line x1="279.17" y1="40" x2="279.17" y2="220" stroke="#30363d" opacity="0.5"/><line x1="358.89" y1="40" x2="358.89" y2="220" stroke="#30363d" opacity="0.5"/><line x1="438.61" y1="40" x2="438.61" y2="220" stroke="#30363d" opacity="0.5"/><line x1="518.33" y1="40" x2="518.33" y2="220" stroke="#30363d" opacity="0.5"/><line x1="598.06" y1="40" x2="598.06" y2="220" stroke="#30363d" opacity="0.5"/><line x1="677.78" y1="40" x2="677.78" y2="220" stroke="#30363d" opacity="0.5"/><line x1="757.50" y1="40" x2="757.50" y2="220" stroke="#30363d" opacity="0.5"/><line x1="837.22" y1="40" x2="837.22" y2="220" stroke="#30363d" opacity="0.5"/>
    <line x1="40" y1="220" x2="860" y2="220" stroke="#30363d"/>
    <line x1="40" y1="40"   x2="40"   y2="220" stroke="#30363d"/>
    <path d="M 40.00 166.63 L 43.80 166.00 L 47.59 166.00 L 51.39 121.18 L 55.19 115.78 L 58.98 115.78 L 62.78 112.00 L 66.57 108.22 L 70.37 108.22 L 74.17 108.22 L 77.96 108.22 L 81.76 108.22 L 85.56 108.22 L 89.35 108.22 L 93.15 108.22 L 96.94 108.22 L 100.74 108.22 L 104.54 108.22 L 108.33 108.22 L 112.13 108.22 L 115.93 108.22 L 119.72 108.22 L 123.52 109.21 L 127.31 109.12 L 131.11 108.76 L 134.91 108.76 L 138.70 108.76 L 142.50 108.76 L 146.30 108.76 L 150.09 108.76 L 153.89 108.76 L 157.69 108.76 L 161.48 108.76 L 165.28 108.76 L 169.07 108.76 L 172.87 108.76 L 176.67 108.76 L 180.46 108.76 L 184.26 108.76 L 188.06 108.76 L 191.85 108.76 L 195.65 108.76 L 199.44 108.76 L 203.24 108.76 L 207.04 108.76 L 210.83 108.76 L 214.63 108.76 L 218.43 108.76 L 222.22 108.76 L 226.02 108.76 L 229.81 108.76 L 233.61 108.76 L 237.41 108.76 L 241.20 108.76 L 245.00 108.76 L 248.80 108.76 L 252.59 108.76 L 256.39 108.76 L 260.19 108.76 L 263.98 108.76 L 267.78 108.76 L 271.57 108.76 L 275.37 108.76 L 279.17 108.76 L 282.96 108.76 L 286.76 108.76 L 290.56 108.76 L 294.35 108.76 L 298.15 108.76 L 301.94 108.76 L 305.74 108.76 L 309.54 108.76 L 313.33 108.76 L 317.13 108.76 L 320.93 108.76 L 324.72 108.76 L 328.52 108.76 L 332.31 108.76 L 336.11 108.76 L 339.91 108.76 L 343.70 108.76 L 347.50 108.76 L 351.30 108.76 L 355.09 108.76 L 358.89 108.76 L 362.69 108.76 L 366.48 108.76 L 370.28 108.76 L 374.07 108.76 L 377.87 108.76 L 381.67 108.76 L 385.46 108.76 L 389.26 108.76 L 393.06 108.76 L 396.85 108.76 L 400.65 108.76 L 404.44 108.76 L 408.24 108.76 L 412.04 108.76 L 415.83 108.76 L 419.63 108.76 L 423.43 108.76 L 427.22 108.76 L 431.02 108.76 L 434.81 108.76 L 438.61 108.76 L 442.41 108.76 L 446.20 108.76 L 450.00 108.76 L 453.80 108.76 L 457.59 108.76 L 461.39 108.76 L 465.19 108.76 L 468.98 108.76 L 472.78 108.76 L 476.57 108.76 L 480.37 108.76 L 484.17 108.76 L 487.96 108.76 L 491.76 108.76 L 495.56 108.76 L 499.35 108.76 L 503.15 108.76 L 506.94 108.76 L 510.74 108.76 L 514.54 108.76 L 518.33 108.76 L 522.13 108.76 L 525.93 108.76 L 529.72 108.76 L 533.52 108.76 L 537.31 108.76 L 541.11 108.76 L 544.91 108.76 L 548.70 108.76 L 552.50 108.76 L 556.30 108.76 L 560.09 108.76 L 563.89 108.76 L 567.69 108.76 L 571.48 108.76 L 575.28 108.76 L 579.07 108.76 L 582.87 108.94 L 586.67 100.39 L 590.46 81.40 L 594.26 81.40 L 598.06 81.40 L 601.85 81.40 L 605.65 81.40 L 609.44 70.78 L 613.24 70.78 L 617.04 70.78 L 620.83 70.78 L 624.63 70.78 L 628.43 70.78 L 632.22 70.78 L 636.02 70.78 L 639.81 70.78 L 643.61 70.78 L 647.41 70.78 L 651.20 70.78 L 655.00 70.78 L 658.80 70.78 L 662.59 70.78 L 666.39 70.78 L 670.19 70.78 L 673.98 70.78 L 677.78 70.78 L 681.57 70.78 L 685.37 70.78 L 689.17 70.78 L 692.96 70.78 L 696.76 70.78 L 700.56 70.78 L 704.35 70.78 L 708.15 70.78 L 711.94 70.78 L 715.74 70.78 L 719.54 70.78 L 723.33 70.78 L 727.13 70.78 L 730.93 70.78 L 734.72 70.78 L 738.52 70.78 L 742.31 70.78 L 746.11 70.78 L 749.91 70.78 L 753.70 70.78 L 757.50 70.78 L 761.30 70.78 L 765.09 70.78 L 768.89 70.78 L 772.69 70.78 L 776.48 70.78 L 780.28 70.78 L 784.07 70.78 L 787.87 70.78 L 791.67 70.78 L 795.46 70.78 L 799.26 70.78 L 803.06 70.78 L 806.85 70.78 L 810.65 70.78 L 814.44 70.78 L 818.24 70.78 L 822.04 70.78 L 825.83 70.78 L 829.63 70.78 L 833.43 70.78 L 837.22 70.78 L 841.02 70.78 L 844.81 70.78 L 848.61 70.78 L 852.41 70.78 L 856.20 70.78 L 860.00 70.78" fill="none" stroke="#3fb950" stroke-width="2"/>
    <circle cx="860.00" cy="70.78" r="3" fill="#3fb950"/>
    <text x="40.00" y="235.00" font-size="9" fill="#c9d1d9" text-anchor="middle" transform="rotate(-45 40.00 235.00)">28.08.2025</text><text x="119.72" y="235.00" font-size="9" fill="#c9d1d9" text-anchor="middle" transform="rotate(-45 119.72 235.00)">28.08.2025</text><text x="199.44" y="235.00" font-size="9" fill="#c9d1d9" text-anchor="middle" transform="rotate(-45 199.44 235.00)">11.09.2025</text><text x="279.17" y="235.00" font-size="9" fill="#c9d1d9" text-anchor="middle" transform="rotate(-45 279.17 235.00)">26.09.2025</text><text x="358.89" y="235.00" font-size="9" fill="#c9d1d9" text-anchor="middle" transform="rotate(-45 358.89 235.00)">16.10.2025</text><text x="438.61" y="235.00" font-size="9" fill="#c9d1d9" text-anchor="middle" transform="rotate(-45 438.61 235.00)">04.11.2025</text><text x="518.33" y="235.00" font-size="9" fill="#c9d1d9" text-anchor="middle" transform="rotate(-45 518.33 235.00)">24.11.2025</text><text x="598.06" y="235.00" font-size="9" fill="#c9d1d9" text-anchor="middle" transform="rotate(-45 598.06 235.00)">05.12.2025</text><text x="677.78" y="235.00" font-size="9" fill="#c9d1d9" text-anchor="middle" transform="rotate(-45 677.78 235.00)">19.12.2025</text><text x="757.50" y="235.00" font-size="9" fill="#c9d1d9" text-anchor="middle" transform="rotate(-45 757.50 235.00)">08.01.2026</text><text x="837.22" y="235.00" font-size="9" fill="#c9d1d9" text-anchor="middle" transform="rotate(-45 837.22 235.00)">27.01.2026</text>
  </g>
</svg>