<svg xmlns="http://www.w3.org/2000/svg" width="900" height="290" style="font-family: -apple-system, BlinkMacSystemFont, 'Segoe UI', Helvetica, Arial, sans-serif;">
  <rect width="100%" height="100%" fill="white"/>
  <g>
    <line x1="40" y1="220.00" x2="860" y2="220.00" stroke="#e5e7eb"/><text x="32" y="224.00" font-size="10" fill="#111827" text-anchor="end">0</text><line x1="40" y1="175.00" x2="860" y2="175.00" stroke="#e5e7eb"/><text x="32" y="179.00" font-size="10" fill="#111827" text-anchor="end">500</text><line x1="40" y1="130.00" x2="860" y2="130.00" stroke="#e5e7eb"/><text x="32" y="134.00" font-size="10" fill="#111827" text-anchor="end">1k</text><line x1="40" y1="85.00" x2="860" y2="85.00" stroke="#e5e7eb"/><text x="32" y="89.00" font-size="10" fill="#111827" text-anchor="end">1.5k</text><line x1="40" y1="40.00" x2="860" y2="40.00" stroke="#e5e7eb"/><text x="32" y="44.00" font-size="10" fill="#111827" text-anchor="end">2k</text>
    <line x1="40.00" y1="40" x2="40.00" y2="220" stroke="#e5e7eb" opacity="0.5"/><line x1="121.42" y1="40" x2="121.42" y2="220" stroke="#e5e7eb" opacity="0.5"/><line x1="202.84" y1="40" x2="202.84" y2="220" stroke="#e5e7eb" opacity="0.5"/><line x1="284.26" y1="40" x2="284.26" y2="220" stroke="#e5e7eb" opacity="0.5"/><line x1="365.67" y1="40" x2="365.67" y2="220" stroke="#e5e7eb" opacity="0.5"/><line x1="447.09" y1="40" x2="447.09" y2="220" stroke="#e5e7eb" opacity="0.5"/><line x1="528.51" y1="40" x2="528.51" y2="220" stroke="#e5e7eb" opacity="0.5"/><line x1="609.93" y1="40" x2="609.93" y2="220" stroke="#e5e7eb" opacity="0.5"/><line x1="691.35" y1="40" x2="691.35" y2="220" stroke="#e5e7eb" opacity="0.5"/><line x1="772.77" y1="40" x2="772.77" y2="220" stroke="#e5e7eb" opacity="0.5"/><line x1="854.18" y1="40" x2="854.18" y2="220" stroke="#e5e7eb" opacity="0.5"/>
    <line x1="40" y1="220" x2="860" y2="220" stroke="#9ca3af"/>
    <line x1="40" y1="40"   x2="40"   y2="220" stroke="#9ca3af"/>
    <path d="M 40.00 166.63 L 45.82 166.00 L 51.63 166.00 L 57.45 121.18 L 63.26 115.78 L 69.08 115.78 L 74.89 112.00 L 80.71 108.22 L 86.52 108.22 L 92.34 108.22 L 98.16 108.22 L 103.97 108.22 L 109.79 108.22 L 115.60 108.22 L 121.42 108.22 L 127.23 108.22 L 133.05 108.22 L 138.87 108.22 L 144.68 108.22 L 150.50 108.22 L 156.31 108.22 L 162.13 108.22 L 167.94 109.21 L 173.76 109.12 L 179.57 108.76 L 185.39 108.76 L 191.21 108.76 L 197.02 108.76 L 202.84 108.76 L 208.65 108.76 L 214.47 108.76 L 220.28 108.76 L 226.10 108.76 L 231.91 108.76 L 237.73 108.76 L 243.55 108.76 L 249.36 108.76 L 255.18 108.76 L 260.99 108.76 L 266.81 108.76 L 272.62 108.76 L 278.44 108.76 L 284.26 108.76 L 290.07 108.76 L 295.89 108.76 L 301.70 108.76 L 307.52 108.76 L 313.33 108.76 L 319.15 108.76 L 324.96 108.76 L 330.78 108.76 L 336.60 108.76 L 342.41 108.76 L 348.23 108.76 L 354.04 108.76 L 359.86 108.76 L 365.67 108.76 L 371.49 108.76 L 377.30 108.76 L 383.12 108.76 L 388.94 108.76 L 394.75 108.76 L 400.57 108.76 L 406.38 108.76 L 412.20 108.76 L 418.01 108.76 L 423.83 108.76 L 429.65 108.76 L 435.46 108.76 L 441.28 108.76 L 447.09 108.76 L 452.91 108.76 L 458.72 108.76 L 464.54 108.76 L 470.35 108.76 L 476.17 108.76 L 481.99 108.76 L 487.80 108.76 L 493.62 108.76 L 499.43 108.76 L 505.25 108.76 L 511.06 108.76 L 516.88 108.76 L 522.70 108.76 L 528.51 108.76 L 534.33 108.76 L 540.14 108.76 L 545.96 108.76 L 551.77 108.76 L 557.59 108.76 L 563.40 108.76 L 569.22 108.76 L 575.04 108.76 L 580.85 108.76 L 586.67 108.76 L 592.48 108.76 L 598.30 108.76 L 604.11 108.76 L 609.93 108.76 L 615.74 108.76 L 621.56 108.76 L 627.38 108.76 L 633.19 108.76 L 639.01 108.76 L 644.82 108.76 L 650.64 108.76 L 656.45 108.76 L 662.27 108.76 L 668.09 108.76 L 673.90 108.76 L 679.72 108.76 L 685.53 108.76 L 691.35 108.76 L 697.16 108.76 L 702.98 108.76 L 708.79 108.76 L 714.61 108.76 L 720.43 108.76 L 726.24 108.76 L 732.06 108.76 L 737.87 108.76 L 743.69 108.76 L 749.50 108.76 L 755.32 108.76 L 761.13 108.76 L 766.95 108.76 L 772.77 108.76 L 778.58 108.76 L 784.40 108.76 L 790.21 108.76 L 796.03 108.76 L 801.84 108.76 L 807.66 108.76 L 813.48 108.76 L 819.29 108.76 L 825.11 108.76 L 830.92 108.76 L 836.74 108.76 L 842.55 108.76 L 848.37 108.76 L 854.18 108.76 L 860.00 108.76" fill="none" stroke="#111827" stroke-width="2"/>
    <circle cx="860.00" cy="108.76" r="3" fill="#111827"/>
    <text x="40.00" y="235.00" font-size="9" fill="#111827" text-anchor="middle" transform="rotate(-45 40.00 235.00)">28.08.2025</text><text x="121.42" y="235.00" font-size="9" fill="#111827" text-anchor="middle" transform="rotate(-45 121.42 235.00)">28.08.2025</text><text x="202.84" y="235.00" font-size="9" fill="#111827" text-anchor="middle" transform="rotate(-45 202.84 235.00)">30.08.2025</text><text x="284.26" y="235.00" font-size="9" fill="#111827" text-anchor="middle" transform="rotate(-45 284.26 235.00)">11.09.2025</text><text x="365.67" y="235.00" font-size="9" fill="#111827" text-anchor="middle" transform="rotate(-45 365.67 235.00)">19.09.2025</text><text x="447.09" y="235.00" font-size="9" fill="#111827" text-anchor="middle" transform="rotate(-45 447.09 235.00)">03.10.2025</text><text x="528.51" y="235.00" font-size="9" fill="#111827" text-anchor="middle" transform="rotate(-45 528.51 235.00)">16.10.2025</text><text x="609.93" y="235.00" font-size="9" fill="#111827" text-anchor="middle" transform="rotate(-45 609.93 235.00)">28.10.2025</text><text x="691.35" y="235.00" font-size="9" fill="#111827" text-anchor="middle" transform="rotate(-45 691.35 235.00)">11.11.2025</text><text x="772.77" y="235.00" font-size="9" fill="#111827" text-anchor="middle" transform="rotate(-45 772.77 235.00)">24.11.2025</text><text x="854.18" y="235.00" font-size="9" fill="#111827" text-anchor="middle" transform="rotate(-45 854.18 235.00)">02.12.2025</text>
  </g>
</svg>