<svg xmlns="http://www.w3.org/2000/svg" width="900" height="290" style="font-family: -apple-system, BlinkMacSystemFont, 'Segoe UI', Helvetica, Arial, sans-serif;">
  <rect width="100%" height="100%" fill="white"/>
  <g>
    <line x1="40" y1="220.00" x2="860" y2="220.00" stroke="#e5e7eb"/><text x="32" y="224.00" font-size="10" fill="#111827" text-anchor="end">0</text><line x1="40" y1="175.00" x2="860" y2="175.00" stroke="#e5e7eb"/><text x="32" y="179.00" font-size="10" fill="#111827" text-anchor="end">500</text><line x1="40" y1="130.00" x2="860" y2="130.00" stroke="#e5e7eb"/><text x="32" y="134.00" font-size="10" fill="#111827" text-anchor="end">1k</text><line x1="40" y1="85.00" x2="860" y2="85.00" stroke="#e5e7eb"/><text x="32" y="89.00" font-size="10" fill="#111827" text-anchor="end">1.5k</text><line x1="40" y1="40.00" x2="860" y2="40.00" stroke="#e5e7eb"/><text x="32" y="44.00" font-size="10" fill="#111827" text-anchor="end">2k</text>
    <line x1="40.00" y1="40" x2="40.00" y2="220" stroke="#e5e7eb" opacity="0.5"/><line x1="121.26" y1="40" x2="121.26" y2="220" stroke="#e5e7eb" opacity="0.5"/><line x1="202.52" y1="40" x2="202.52" y2="220" stroke="#e5e7eb" opacity="0.5"/><line x1="283.78" y1="40" x2="283.78" y2="220" stroke="#e5e7eb" opacity="0.5"/><line x1="365.05" y1="40" x2="365.05" y2="220" stroke="#e5e7eb" opacity="0.5"/><line x1="446.31" y1="40" x2="446.31" y2="220" stroke="#e5e7eb" opacity="0.5"/><line x1="527.57" y1="40" x2="527.57" y2="220" stroke="#e5e7eb" opacity="0.5"/><line x1="608.83" y1="40" x2="608.83" y2="220" stroke="#e5e7eb" opacity="0.5"/><line x1="690.09" y1="40" x2="690.09" y2="220" stroke="#e5e7eb" opacity="0.5"/><line x1="771.35" y1="40" x2="771.35" y2="220" stroke="#e5e7eb" opacity="0.5"/><line x1="852.61" y1="40" x2="852.61" y2="220" stroke="#e5e7eb" opacity="0.5"/>
    <line x1="40" y1="220" x2="860" y2="220" stroke="#9ca3af"/>
    <line x1="40" y1="40"   x2="40"   y2="220" stroke="#9ca3af"/>
    <path d="M 40.00 166.63 L 43.69 166.00 L 47.39 166.00 L 51.08 121.18 L 54.77 115.78 L 58.47 115.78 L 62.16 112.00 L 65.86 108.22 L 69.55 108.22 L 73.24 108.22 L 76.94 108.22 L 80.63 108.22 L 84.32 108.22 L 88.02 108.22 L 91.71 108.22 L 95.41 108.22 L 99.10 108.22 L 102.79 108.22 L 106.49 108.22 L 110.18 108.22 L 113.87 108.22 L 117.57 108.22 L 121.26 109.21 L 124.95 109.12 L 128.65 108.76 L 132.34 108.76 L 136.04 108.76 L 139.73 108.76 L 143.42 108.76 L 147.12 108.76 L 150.81 108.76 L 154.50 108.76 L 158.20 108.76 L 161.89 108.76 L 165.59 108.76 L 169.28 108.76 L 172.97 108.76 L 176.67 108.76 L 180.36 108.76 L 184.05 108.76 L 187.75 108.76 L 191.44 108.76 L 195.14 108.76 L 198.83 108.76 L 202.52 108.76 L 206.22 108.76 L 209.91 108.76 L 213.60 108.76 L 217.30 108.76 L 220.99 108.76 L 224.68 108.76 L 228.38 108.76 L 232.07 108.76 L 235.77 108.76 L 239.46 108.76 L 243.15 108.76 L 246.85 108.76 L 250.54 108.76 L 254.23 108.76 L 257.93 108.76 L 261.62 108.76 L 265.32 108.76 L 269.01 108.76 L 272.70 108.76 L 276.40 108.76 L 280.09 108.76 L 283.78 108.76 L 287.48 108.76 L 291.17 108.76 L 294.86 108.76 L 298.56 108.76 L 302.25 108.76 L 305.95 108.76 L 309.64 108.76 L 313.33 108.76 L 317.03 108.76 L 320.72 108.76 L 324.41 108.76 L 328.11 108.76 L 331.80 108.76 L 335.50 108.76 L 339.19 108.76 L 342.88 108.76 L 346.58 108.76 L 350.27 108.76 L 353.96 108.76 L 357.66 108.76 L 361.35 108.76 L 365.05 108.76 L 368.74 108.76 L 372.43 108.76 L 376.13 108.76 L 379.82 108.76 L 383.51 108.76 L 387.21 108.76 L 390.90 108.76 L 394.59 108.76 L 398.29 108.76 L 401.98 108.76 L 405.68 108.76 L 409.37 108.76 L 413.06 108.76 L 416.76 108.76 L 420.45 108.76 L 424.14 108.76 L 427.84 108.76 L 431.53 108.76 L 435.23 108.76 L 438.92 108.76 L 442.61 108.76 L 446.31 108.76 L 450.00 108.76 L 453.69 108.76 L 457.39 108.76 L 461.08 108.76 L 464.77 108.76 L 468.47 108.76 L 472.16 108.76 L 475.86 108.76 L 479.55 108.76 L 483.24 108.76 L 486.94 108.76 L 490.63 108.76 L 494.32 108.76 L 498.02 108.76 L 501.71 108.76 L 505.41 108.76 L 509.10 108.76 L 512.79 108.76 L 516.49 108.76 L 520.18 108.76 L 523.87 108.76 L 527.57 108.76 L 531.26 108.76 L 534.95 108.76 L 538.65 108.76 L 542.34 108.76 L 546.04 108.76 L 549.73 108.76 L 553.42 108.76 L 557.12 108.76 L 560.81 108.76 L 564.50 108.76 L 568.20 108.94 L 571.89 100.39 L 575.59 81.40 L 579.28 81.40 L 582.97 81.40 L 586.67 81.40 L 590.36 81.40 L 594.05 70.78 L 597.75 70.78 L 601.44 70.78 L 605.14 70.78 L 608.83 70.78 L 612.52 70.78 L 616.22 70.78 L 619.91 70.78 L 623.60 70.78 L 627.30 70.78 L 630.99 70.78 L 634.68 70.78 L 638.38 70.78 L 642.07 70.78 L 645.77 70.78 L 649.46 70.78 L 653.15 70.78 L 656.85 70.78 L 660.54 70.78 L 664.23 70.78 L 667.93 70.78 L 671.62 70.78 L 675.32 70.78 L 679.01 70.78 L 682.70 70.78 L 686.40 70.78 L 690.09 70.78 L 693.78 70.78 L 697.48 70.78 L 701.17 70.78 L 704.86 70.78 L 708.56 70.78 L 712.25 70.78 L 715.95 70.78 L 719.64 70.78 L 723.33 70.78 L 727.03 70.78 L 730.72 70.78 L 734.41 70.78 L 738.11 70.78 L 741.80 70.78 L 745.50 70.78 L 749.19 70.78 L 752.88 70.78 L 756.58 70.78 L 760.27 70.78 L 763.96 70.78 L 767.66 70.78 L 771.35 70.78 L 775.05 70.78 L 778.74 70.78 L 782.43 70.78 L 786.13 70.78 L 789.82 70.78 L 793.51 70.78 L 797.21 70.78 L 800.90 70.78 L 804.59 70.78 L 808.29 70.78 L 811.98 70.78 L 815.68 70.78 L 819.37 70.78 L 823.06 70.78 L 826.76 70.78 L 830.45 70.78 L 834.14 70.78 L 837.84 70.78 L 841.53 70.78 L 845.23 70.78 L 848.92 70.78 L 852.61 70.78 L 856.31 70.78 L 860.00 70.78" fill="none" stroke="#111827" stroke-width="2"/>
    <circle cx="860.00" cy="70.78" r="3" fill="#111827"/>
    <text x="40.00" y="235.00" font-size="9" fill="#111827" text-anchor="middle" transform="rotate(-45 40.00 235.00)">28.08.2025</text><text x="121.26" y="235.00" font-size="9" fill="#111827" text-anchor="middle" transform="rotate(-45 121.26 235.00)">28.08.2025</text><text x="202.52" y="235.00" font-size="9" fill="#111827" text-anchor="middle" transform="rotate(-45 202.52 235.00)">13.09.2025</text><text x="283.78" y="235.00" font-size="9" fill="#111827" text-anchor="middle" transform="rotate(-45 283.78 235.00)">29.09.2025</text><text x="365.05" y="235.00" font-size="9" fill="#111827" text-anchor="middle" transform="rotate(-45 365.05 235.00)">20.10.2025</text><text x="446.31" y="235.00" font-size="9" fill="#111827" text-anchor="middle" transform="rotate(-45 446.31 235.00)">09.11.2025</text><text x="527.57" y="235.00" font-size="9" fill="#111827" text-anchor="middle" transform="rotate(-45 527.57 235.00)">28.11.2025</text><text x="608.83" y="235.00" font-size="9" fill="#111827" text-anchor="middle" transform="rotate(-45 608.83 235.00)">11.12.2025</text><text x="690.09" y="235.00" font-size="9" fill="#111827" text-anchor="middle" transform="rotate(-45 690.09 235.00)">26.12.2025</text><text x="771.35" y="235.00" font-size="9" fill="#111827" text-anchor="middle" transform="rotate(-45 771.35 235.00)">15.01.2026</text><text x="852.61" y="235.00" font-size="9" fill="#111827" text-anchor="middle" transform="rotate(-45 852.61 235.00)">06.02.2026</text>
  </g>
</svg>