<svg xmlns="http://www.w3.org/2000/svg" width="900" height="290" style="font-family: -apple-system, BlinkMacSystemFont, 'Segoe UI', Helvetica, Arial, sans-serif;">
  <rect width="100%" height="100%" fill="#0d1117"/>
  <g>
    <line x1="40" y1="220.00" x2="860" y2="220.00" stroke="#30363d"/><text x="32" y="224.00" font-size="10" fill="#c9d1d9" text-anchor="end">0</text><line x1="40" y1="175.00" x2="860" y2="175.00" stroke="#30363d"/><text x="32" y="179.00" font-size="10" fill="#c9d1d9" text-anchor="end">500</text><line x1="40" y1="130.00" x2="860" y2="130.00" stroke="#30363d"/><text x="32" y="134.00" font-size="10" fill="#c9d1d9" text-anchor="end">1k</text><line x1="40" y1="85.00" x2="860" y2="85.00" stroke="#30363d"/><text x="32" y="89.00" font-size="10" fill="#c9d1d9" text-anchor="end">1.5k</text><line x1="40" y1="40.00" x2="860" y2="40.00" stroke="#30363d"/><text x="32" y="44.00" font-size="10" fill="#c9d1d9" text-anchor="end">2k</text>
    <line x1="40.00" y1="40" x2="40.00" y2="220" stroke="#30363d" opacity="0.5"/><line x1="120.94" y1="40" x2="120.94" y2="220" stroke="#30363d" opacity="0.5"/><line x1="201.89" y1="40" x2="201.89" y2="220" stroke="#30363d" opacity="0.5"/><line x1="282.83" y1="40" x2="282.83" y2="220" stroke="#30363d" opacity="0.5"/><line x1="363.78" y1="40" x2="363.78" y2="220" stroke="#30363d" opacity="0.5"/><line x1="444.72" y1="40" x2="444.72" y2="220" stroke="#30363d" opacity="0.5"/><line x1="525.67" y1="40" x2="525.67" y2="220" stroke="#30363d" opacity="0.5"/><line x1="606.61" y1="40" x2="606.61" y2="220" stroke="#30363d" opacity="0.5"/><line x1="687.55" y1="40" x2="687.55" y2="220" stroke="#30363d" opacity="0.5"/><line x1="768.50" y1="40" x2="768.50" y2="220" stroke="#30363d" opacity="0.5"/><line x1="849.44" y1="40" x2="849.44" y2="220" stroke="#30363d" opacity="0.5"/>
    <line x1="40" y1="220" x2="860" y2="220" stroke="#30363d"/>
    <line x1="40" y1="40"   x2="40"   y2="220" stroke="#30363d"/>
    <path d="M 40.00 166.63 L 43.52 166.00 L 47.04 166.00 L 50.56 121.18 L 54.08 115.78 L 57.60 115.78 L 61.12 112.00 L 64.64 108.22 L 68.15 108.22 L 71.67 108.22 L 75.19 108.22 L 78.71 108.22 L 82.23 108.22 L 85.75 108.22 L 89.27 108.22 L 92.79 108.22 L 96.31 108.22 L 99.83 108.22 L 103.35 108.22 L 106.87 108.22 L 110.39 108.22 L 113.91 108.22 L 117.42 109.21 L 120.94 109.12 L 124.46 108.76 L 127.98 108.76 L 131.50 108.76 L 135.02 108.76 L 138.54 108.76 L 142.06 108.76 L 145.58 108.76 L 149.10 108.76 L 152.62 108.76 L 156.14 108.76 L 159.66 108.76 L 163.18 108.76 L 166.70 108.76 L 170.21 108.76 L 173.73 108.76 L 177.25 108.76 L 180.77 108.76 L 184.29 108.76 L 187.81 108.76 L 191.33 108.76 L 194.85 108.76 L 198.37 108.76 L 201.89 108.76 L 205.41 108.76 L 208.93 108.76 L 212.45 108.76 L 215.97 108.76 L 219.48 108.76 L 223.00 108.76 L 226.52 108.76 L 230.04 108.76 L 233.56 108.76 L 237.08 108.76 L 240.60 108.76 L 244.12 108.76 L 247.64 108.76 L 251.16 108.76 L 254.68 108.76 L 258.20 108.76 L 261.72 108.76 L 265.24 108.76 L 268.76 108.76 L 272.27 108.76 L 275.79 108.76 L 279.31 108.76 L 282.83 108.76 L 286.35 108.76 L 289.87 108.76 L 293.39 108.76 L 296.91 108.76 L 300.43 108.76 L 303.95 108.76 L 307.47 108.76 L 310.99 108.76 L 314.51 108.76 L 318.03 108.76 L 321.55 108.76 L 325.06 108.76 L 328.58 108.76 L 332.10 108.76 L 335.62 108.76 L 339.14 108.76 L 342.66 108.76 L 346.18 108.76 L 349.70 108.76 L 353.22 108.76 L 356.74 108.76 L 360.26 108.76 L 363.78 108.76 L 367.30 108.76 L 370.82 108.76 L 374.33 108.76 L 377.85 108.76 L 381.37 108.76 L 384.89 108.76 L 388.41 108.76 L 391.93 108.76 L 395.45 108.76 L 398.97 108.76 L 402.49 108.76 L 406.01 108.76 L 409.53 108.76 L 413.05 108.76 L 416.57 108.76 L 420.09 108.76 L 423.61 108.76 L 427.12 108.76 L 430.64 108.76 L 434.16 108.76 L 437.68 108.76 L 441.20 108.76 L 444.72 108.76 L 448.24 108.76 L 451.76 108.76 L 455.28 108.76 L 458.80 108.76 L 462.32 108.76 L 465.84 108.76 L 469.36 108.76 L 472.88 108.76 L 476.39 108.76 L 479.91 108.76 L 483.43 108.76 L 486.95 108.76 L 490.47 108.76 L 493.99 108.76 L 497.51 108.76 L 501.03 108.76 L 504.55 108.76 L 508.07 108.76 L 511.59 108.76 L 515.11 108.76 L 518.63 108.76 L 522.15 108.76 L 525.67 108.76 L 529.18 108.76 L 532.70 108.76 L 536.22 108.76 L 539.74 108.76 L 543.26 108.94 L 546.78 100.39 L 550.30 81.40 L 553.82 81.40 L 557.34 81.40 L 560.86 81.40 L 564.38 81.40 L 567.90 70.78 L 571.42 70.78 L 574.94 70.78 L 578.45 70.78 L 581.97 70.78 L 585.49 70.78 L 589.01 70.78 L 592.53 70.78 L 596.05 70.78 L 599.57 70.78 L 603.09 70.78 L 606.61 70.78 L 610.13 70.78 L 613.65 70.78 L 617.17 70.78 L 620.69 70.78 L 624.21 70.78 L 627.73 70.78 L 631.24 70.78 L 634.76 70.78 L 638.28 70.78 L 641.80 70.78 L 645.32 70.78 L 648.84 70.78 L 652.36 70.78 L 655.88 70.78 L 659.40 70.78 L 662.92 70.78 L 666.44 70.78 L 669.96 70.78 L 673.48 70.78 L 677.00 70.78 L 680.52 70.78 L 684.03 70.78 L 687.55 70.78 L 691.07 70.78 L 694.59 70.78 L 698.11 70.78 L 701.63 70.78 L 705.15 70.78 L 708.67 70.78 L 712.19 70.78 L 715.71 70.78 L 719.23 70.78 L 722.75 70.78 L 726.27 70.78 L 729.79 70.78 L 733.30 70.78 L 736.82 70.78 L 740.34 70.78 L 743.86 70.78 L 747.38 70.78 L 750.90 70.78 L 754.42 70.78 L 757.94 70.78 L 761.46 70.78 L 764.98 70.78 L 768.50 70.78 L 772.02 70.78 L 775.54 70.78 L 779.06 70.78 L 782.58 70.78 L 786.09 70.78 L 789.61 70.78 L 793.13 70.78 L 796.65 70.78 L 800.17 70.78 L 803.69 70.78 L 807.21 70.78 L 810.73 70.78 L 814.25 70.78 L 817.77 70.78 L 821.29 70.78 L 824.81 70.78 L 828.33 70.78 L 831.85 70.78 L 835.36 70.78 L 838.88 70.78 L 842.40 70.78 L 845.92 70.78 L 849.44 70.78 L 852.96 70.78 L 856.48 70.78 L 860.00 70.78" fill="none" stroke="#3fb950" stroke-width="2"/>
    <circle cx="860.00" cy="70.78" r="3" fill="#3fb950"/>
    <text x="40.00" y="235.00" font-size="9" fill="#c9d1d9" text-anchor="middle" transform="rotate(-45 40.00 235.00)">28.08.2025</text><text x="120.94" y="235.00" font-size="9" fill="#c9d1d9" text-anchor="middle" transform="rotate(-45 120.94 235.00)">28.08.2025</text><text x="201.89" y="235.00" font-size="9" fill="#c9d1d9" text-anchor="middle" transform="rotate(-45 201.89 235.00)">15.09.2025</text><text x="282.83" y="235.00" font-size="9" fill="#c9d1d9" text-anchor="middle" transform="rotate(-45 282.83 235.00)">02.10.2025</text><text x="363.78" y="235.00" font-size="9" fill="#c9d1d9" text-anchor="middle" transform="rotate(-45 363.78 235.00)">24.10.2025</text><text x="444.72" y="235.00" font-size="9" fill="#c9d1d9" text-anchor="middle" transform="rotate(-45 444.72 235.00)">14.11.2025</text><text x="525.67" y="235.00" font-size="9" fill="#c9d1d9" text-anchor="middle" transform="rotate(-45 525.67 235.00)">30.11.2025</text><text x="606.61" y="235.00" font-size="9" fill="#c9d1d9" text-anchor="middle" transform="rotate(-45 606.61 235.00)">13.12.2025</text><text x="687.55" y="235.00" font-size="9" fill="#c9d1d9" text-anchor="middle" transform="rotate(-45 687.55 235.00)">03.01.2026</text><text x="768.50" y="235.00" font-size="9" fill="#c9d1d9" text-anchor="middle" transform="rotate(-45 768.50 235.00)">24.01.2026</text><text x="849.44" y="235.00" font-size="9" fill="#c9d1d9" text-anchor="middle" transform="rotate(-45 849.44 235.00)">15.02.2026</text>
  </g>
</svg>