<svg xmlns="http://www.w3.org/2000/svg" width="900" height="290" style="font-family: -apple-system, BlinkMacSystemFont, 'Segoe UI', Helvetica, Arial, sans-serif;">
  <rect width="100%" height="100%" fill="#0d1117"/>
  <g>
    <line x1="40" y1="220.00" x2="860" y2="220.00" stroke="#30363d"/><text x="32" y="224.00" font-size="10" fill="#c9d1d9" text-anchor="end">0</text><line x1="40" y1="175.00" x2="860" y2="175.00" stroke="#30363d"/><text x="32" y="179.00" font-size="10" fill="#c9d1d9" text-anchor="end">500</text><line x1="40" y1="130.00" x2="860" y2="130.00" stroke="#30363d"/><text x="32" y="134.00" font-size="10" fill="#c9d1d9" text-anchor="end">1k</text><line x1="40" y1="85.00" x2="860" y2="85.00" stroke="#30363d"/><text x="32" y="89.00" font-size="10" fill="#c9d1d9" text-anchor="end">1.5k</text><line x1="40" y1="40.00" x2="860" y2="40.00" stroke="#30363d"/><text x="32" y="44.00" font-size="10" fill="#c9d1d9" text-anchor="end">2k</text>
    <line x1="40.00" y1="40" x2="40.00" y2="220" stroke="#30363d" opacity="0.5"/><line x1="121.55" y1="40" x2="121.55" y2="220" stroke="#30363d" opacity="0.5"/><line x1="203.09" y1="40" x2="203.09" y2="220" stroke="#30363d" opacity="0.5"/><line x1="284.64" y1="40" x2="284.64" y2="220" stroke="#30363d" opacity="0.5"/><line x1="366.19" y1="40" x2="366.19" y2="220" stroke="#30363d" opacity="0.5"/><line x1="447.73" y1="40" x2="447.73" y2="220" stroke="#30363d" opacity="0.5"/><line x1="529.28" y1="40" x2="529.28" y2="220" stroke="#30363d" opacity="0.5"/><line x1="610.83" y1="40" x2="610.83" y2="220" stroke="#30363d" opacity="0.5"/><line x1="692.38" y1="40" x2="692.38" y2="220" stroke="#30363d" opacity="0.5"/><line x1="773.92" y1="40" x2="773.92" y2="220" stroke="#30363d" opacity="0.5"/><line x1="855.47" y1="40" x2="855.47" y2="220" stroke="#30363d" opacity="0.5"/>
    <line x1="40" y1="220" x2="860" y2="220" stroke="#30363d"/>
    <line x1="40" y1="40"   x2="40"   y2="220" stroke="#30363d"/>
    <path d="M 40.00 166.63 L 44.53 166.00 L 49.06 166.00 L 53.59 121.18 L 58.12 115.78 L 62.65 115.78 L 67.18 112.00 L 71.71 108.22 L 76.24 108.22 L 80.77 108.22 L 85.30 108.22 L 89.83 108.22 L 94.36 108.22 L 98.90 108.22 L 103.43 108.22 L 107.96 108.22 L 112.49 108.22 L 117.02 108.22 L 121.55 108.22 L 126.08 108.22 L 130.61 108.22 L 135.14 108.22 L 139.67 109.21 L 144.20 109.12 L 148.73 108.76 L 153.26 108.76 L 157.79 108.76 L 162.32 108.76 L 166.85 108.76 L 171.38 108.76 L 175.91 108.76 L 180.44 108.76 L 184.97 108.76 L 189.50 108.76 L 194.03 108.76 L 198.56 108.76 L 203.09 108.76 L 207.62 108.76 L 212.15 108.76 L 216.69 108.76 L 221.22 108.76 L 225.75 108.76 L 230.28 108.76 L 234.81 108.76 L 239.34 108.76 L 243.87 108.76 L 248.40 108.76 L 252.93 108.76 L 257.46 108.76 L 261.99 108.76 L 266.52 108.76 L 271.05 108.76 L 275.58 108.76 L 280.11 108.76 L 284.64 108.76 L 289.17 108.76 L 293.70 108.76 L 298.23 108.76 L 302.76 108.76 L 307.29 108.76 L 311.82 108.76 L 316.35 108.76 L 320.88 108.76 L 325.41 108.76 L 329.94 108.76 L 334.48 108.76 L 339.01 108.76 L 343.54 108.76 L 348.07 108.76 L 352.60 108.76 L 357.13 108.76 L 361.66 108.76 L 366.19 108.76 L 370.72 108.76 L 375.25 108.76 L 379.78 108.76 L 384.31 108.76 L 388.84 108.76 L 393.37 108.76 L 397.90 108.76 L 402.43 108.76 L 406.96 108.76 L 411.49 108.76 L 416.02 108.76 L 420.55 108.76 L 425.08 108.76 L 429.61 108.76 L 434.14 108.76 L 438.67 108.76 L 443.20 108.76 L 447.73 108.76 L 452.27 108.76 L 456.80 108.76 L 461.33 108.76 L 465.86 108.76 L 470.39 108.76 L 474.92 108.76 L 479.45 108.76 L 483.98 108.76 L 488.51 108.76 L 493.04 108.76 L 497.57 108.76 L 502.10 108.76 L 506.63 108.76 L 511.16 108.76 L 515.69 108.76 L 520.22 108.76 L 524.75 108.76 L 529.28 108.76 L 533.81 108.76 L 538.34 108.76 L 542.87 108.76 L 547.40 108.76 L 551.93 108.76 L 556.46 108.76 L 560.99 108.76 L 565.52 108.76 L 570.06 108.76 L 574.59 108.76 L 579.12 108.76 L 583.65 108.76 L 588.18 108.76 L 592.71 108.76 L 597.24 108.76 L 601.77 108.76 L 606.30 108.76 L 610.83 108.76 L 615.36 108.76 L 619.89 108.76 L 624.42 108.76 L 628.95 108.76 L 633.48 108.76 L 638.01 108.76 L 642.54 108.76 L 647.07 108.76 L 651.60 108.76 L 656.13 108.76 L 660.66 108.76 L 665.19 108.76 L 669.72 108.76 L 674.25 108.76 L 678.78 108.76 L 683.31 108.76 L 687.85 108.94 L 692.38 100.39 L 696.91 81.40 L 701.44 81.40 L 705.97 81.40 L 710.50 81.40 L 715.03 81.40 L 719.56 70.78 L 724.09 70.78 L 728.62 70.78 L 733.15 70.78 L 737.68 70.78 L 742.21 70.78 L 746.74 70.78 L 751.27 70.78 L 755.80 70.78 L 760.33 70.78 L 764.86 70.78 L 769.39 70.78 L 773.92 70.78 L 778.45 70.78 L 782.98 70.78 L 787.51 70.78 L 792.04 70.78 L 796.57 70.78 L 801.10 70.78 L 805.64 70.78 L 810.17 70.78 L 814.70 70.78 L 819.23 70.78 L 823.76 70.78 L 828.29 70.78 L 832.82 70.78 L 837.35 70.78 L 841.88 70.78 L 846.41 70.78 L 850.94 70.78 L 855.47 70.78 L 860.00 70.78" fill="none" stroke="#3fb950" stroke-width="2"/>
    <circle cx="860.00" cy="70.78" r="3" fill="#3fb950"/>
    <text x="40.00" y="235.00" font-size="9" fill="#c9d1d9" text-anchor="middle" transform="rotate(-45 40.00 235.00)">28.08.2025</text><text x="121.55" y="235.00" font-size="9" fill="#c9d1d9" text-anchor="middle" transform="rotate(-45 121.55 235.00)">28.08.2025</text><text x="203.09" y="235.00" font-size="9" fill="#c9d1d9" text-anchor="middle" transform="rotate(-45 203.09 235.00)">07.09.2025</text><text x="284.64" y="235.00" font-size="9" fill="#c9d1d9" text-anchor="middle" transform="rotate(-45 284.64 235.00)">17.09.2025</text><text x="366.19" y="235.00" font-size="9" fill="#c9d1d9" text-anchor="middle" transform="rotate(-45 366.19 235.00)">05.10.2025</text><text x="447.73" y="235.00" font-size="9" fill="#c9d1d9" text-anchor="middle" transform="rotate(-45 447.73 235.00)">22.10.2025</text><text x="529.28" y="235.00" font-size="9" fill="#c9d1d9" text-anchor="middle" transform="rotate(-45 529.28 235.00)">07.11.2025</text><text x="610.83" y="235.00" font-size="9" fill="#c9d1d9" text-anchor="middle" transform="rotate(-45 610.83 235.00)">24.11.2025</text><text x="692.38" y="235.00" font-size="9" fill="#c9d1d9" text-anchor="middle" transform="rotate(-45 692.38 235.00)">04.12.2025</text><text x="773.92" y="235.00" font-size="9" fill="#c9d1d9" text-anchor="middle" transform="rotate(-45 773.92 235.00)">14.12.2025</text><text x="855.47" y="235.00" font-size="9" fill="#c9d1d9" text-anchor="middle" transform="rotate(-45 855.47 235.00)">30.12.2025</text>
  </g>
</svg>