<svg xmlns="http://www.w3.org/2000/svg" width="900" height="290" style="font-family: -apple-system, BlinkMacSystemFont, 'Segoe UI', Helvetica, Arial, sans-serif;">
  <rect width="100%" height="100%" fill="white"/>
  <g>
    <line x1="40" y1="220.00" x2="860" y2="220.00" stroke="#e5e7eb"/><text x="32" y="224.00" font-size="10" fill="#111827" text-anchor="end">0</text><line x1="40" y1="175.00" x2="860" y2="175.00" stroke="#e5e7eb"/><text x="32" y="179.00" font-size="10" fill="#111827" text-anchor="end">500</text><line x1="40" y1="130.00" x2="860" y2="130.00" stroke="#e5e7eb"/><text x="32" y="134.00" font-size="10" fill="#111827" text-anchor="end">1k</text><line x1="40" y1="85.00" x2="860" y2="85.00" stroke="#e5e7eb"/><text x="32" y="89.00" font-size="10" fill="#111827" text-anchor="end">1.5k</text><line x1="40" y1="40.00" x2="860" y2="40.00" stroke="#e5e7eb"/><text x="32" y="44.00" font-size="10" fill="#111827" text-anchor="end">2k</text>
    <line x1="40.00" y1="40" x2="40.00" y2="220" stroke="#e5e7eb" opacity="0.5"/><line x1="119.35" y1="40" x2="119.35" y2="220" stroke="#e5e7eb" opacity="0.5"/><line x1="198.71" y1="40" x2="198.71" y2="220" stroke="#e5e7eb" opacity="0.5"/><line x1="278.06" y1="40" x2="278.06" y2="220" stroke="#e5e7eb" opacity="0.5"/><line x1="357.42" y1="40" x2="357.42" y2="220" stroke="#e5e7eb" opacity="0.5"/><line x1="436.77" y1="40" x2="436.77" y2="220" stroke="#e5e7eb" opacity="0.5"/><line x1="516.13" y1="40" x2="516.13" y2="220" stroke="#e5e7eb" opacity="0.5"/><line x1="595.48" y1="40" x2="595.48" y2="220" stroke="#e5e7eb" opacity="0.5"/><line x1="674.84" y1="40" x2="674.84" y2="220" stroke="#e5e7eb" opacity="0.5"/><line x1="754.19" y1="40" x2="754.19" y2="220" stroke="#e5e7eb" opacity="0.5"/><line x1="833.55" y1="40" x2="833.55" y2="220" stroke="#e5e7eb" opacity="0.5"/>
    <line x1="40" y1="220" x2="860" y2="220" stroke="#9ca3af"/>
    <line x1="40" y1="40"   x2="40"   y2="220" stroke="#9ca3af"/>
    <path d="M 40.00 166.63 L 44.41 166.00 L 48.82 166.00 L 53.23 121.18 L 57.63 115.78 L 62.04 115.78 L 66.45 112.00 L 70.86 108.22 L 75.27 108.22 L 79.68 108.22 L 84.09 108.22 L 88.49 108.22 L 92.90 108.22 L 97.31 108.22 L 101.72 108.22 L 106.13 108.22 L 110.54 108.22 L 114.95 108.22 L 119.35 108.22 L 123.76 108.22 L 128.17 108.22 L 132.58 108.22 L 136.99 109.21 L 141.40 109.12 L 145.81 108.76 L 150.22 108.76 L 154.62 108.76 L 159.03 108.76 L 163.44 108.76 L 167.85 108.76 L 172.26 108.76 L 176.67 108.76 L 181.08 108.76 L 185.48 108.76 L 189.89 108.76 L 194.30 108.76 L 198.71 108.76 L 203.12 108.76 L 207.53 108.76 L 211.94 108.76 L 216.34 108.76 L 220.75 108.76 L 225.16 108.76 L 229.57 108.76 L 233.98 108.76 L 238.39 108.76 L 242.80 108.76 L 247.20 108.76 L 251.61 108.76 L 256.02 108.76 L 260.43 108.76 L 264.84 108.76 L 269.25 108.76 L 273.66 108.76 L 278.06 108.76 L 282.47 108.76 L 286.88 108.76 L 291.29 108.76 L 295.70 108.76 L 300.11 108.76 L 304.52 108.76 L 308.92 108.76 L 313.33 108.76 L 317.74 108.76 L 322.15 108.76 L 326.56 108.76 L 330.97 108.76 L 335.38 108.76 L 339.78 108.76 L 344.19 108.76 L 348.60 108.76 L 353.01 108.76 L 357.42 108.76 L 361.83 108.76 L 366.24 108.76 L 370.65 108.76 L 375.05 108.76 L 379.46 108.76 L 383.87 108.76 L 388.28 108.76 L 392.69 108.76 L 397.10 108.76 L 401.51 108.76 L 405.91 108.76 L 410.32 108.76 L 414.73 108.76 L 419.14 108.76 L 423.55 108.76 L 427.96 108.76 L 432.37 108.76 L 436.77 108.76 L 441.18 108.76 L 445.59 108.76 L 450.00 108.76 L 454.41 108.76 L 458.82 108.76 L 463.23 108.76 L 467.63 108.76 L 472.04 108.76 L 476.45 108.76 L 480.86 108.76 L 485.27 108.76 L 489.68 108.76 L 494.09 108.76 L 498.49 108.76 L 502.90 108.76 L 507.31 108.76 L 511.72 108.76 L 516.13 108.76 L 520.54 108.76 L 524.95 108.76 L 529.35 108.76 L 533.76 108.76 L 538.17 108.76 L 542.58 108.76 L 546.99 108.76 L 551.40 108.76 L 555.81 108.76 L 560.22 108.76 L 564.62 108.76 L 569.03 108.76 L 573.44 108.76 L 577.85 108.76 L 582.26 108.76 L 586.67 108.76 L 591.08 108.76 L 595.48 108.76 L 599.89 108.76 L 604.30 108.76 L 608.71 108.76 L 613.12 108.76 L 617.53 108.76 L 621.94 108.76 L 626.34 108.76 L 630.75 108.76 L 635.16 108.76 L 639.57 108.76 L 643.98 108.76 L 648.39 108.76 L 652.80 108.76 L 657.20 108.76 L 661.61 108.76 L 666.02 108.76 L 670.43 108.94 L 674.84 100.39 L 679.25 81.40 L 683.66 81.40 L 688.06 81.40 L 692.47 81.40 L 696.88 81.40 L 701.29 70.78 L 705.70 70.78 L 710.11 70.78 L 714.52 70.78 L 718.92 70.78 L 723.33 70.78 L 727.74 70.78 L 732.15 70.78 L 736.56 70.78 L 740.97 70.78 L 745.38 70.78 L 749.78 70.78 L 754.19 70.78 L 758.60 70.78 L 763.01 70.78 L 767.42 70.78 L 771.83 70.78 L 776.24 70.78 L 780.65 70.78 L 785.05 70.78 L 789.46 70.78 L 793.87 70.78 L 798.28 70.78 L 802.69 70.78 L 807.10 70.78 L 811.51 70.78 L 815.91 70.78 L 820.32 70.78 L 824.73 70.78 L 829.14 70.78 L 833.55 70.78 L 837.96 70.78 L 842.37 70.78 L 846.77 70.78 L 851.18 70.78 L 855.59 70.78 L 860.00 70.78" fill="none" stroke="#111827" stroke-width="2"/>
    <circle cx="860.00" cy="70.78" r="3" fill="#111827"/>
    <text x="40.00" y="235.00" font-size="9" fill="#111827" text-anchor="middle" transform="rotate(-45 40.00 235.00)">28.08.2025</text><text x="119.35" y="235.00" font-size="9" fill="#111827" text-anchor="middle" transform="rotate(-45 119.35 235.00)">28.08.2025</text><text x="198.71" y="235.00" font-size="9" fill="#111827" text-anchor="middle" transform="rotate(-45 198.71 235.00)">07.09.2025</text><text x="278.06" y="235.00" font-size="9" fill="#111827" text-anchor="middle" transform="rotate(-45 278.06 235.00)">17.09.2025</text><text x="357.42" y="235.00" font-size="9" fill="#111827" text-anchor="middle" transform="rotate(-45 357.42 235.00)">05.10.2025</text><text x="436.77" y="235.00" font-size="9" fill="#111827" text-anchor="middle" transform="rotate(-45 436.77 235.00)">22.10.2025</text><text x="516.13" y="235.00" font-size="9" fill="#111827" text-anchor="middle" transform="rotate(-45 516.13 235.00)">07.11.2025</text><text x="595.48" y="235.00" font-size="9" fill="#111827" text-anchor="middle" transform="rotate(-45 595.48 235.00)">24.11.2025</text><text x="674.84" y="235.00" font-size="9" fill="#111827" text-anchor="middle" transform="rotate(-45 674.84 235.00)">04.12.2025</text><text x="754.19" y="235.00" font-size="9" fill="#111827" text-anchor="middle" transform="rotate(-45 754.19 235.00)">14.12.2025</text><text x="833.55" y="235.00" font-size="9" fill="#111827" text-anchor="middle" transform="rotate(-45 833.55 235.00)">30.12.2025</text>
  </g>
</svg>