<svg xmlns="http://www.w3.org/2000/svg" width="900" height="290" style="font-family: -apple-system, BlinkMacSystemFont, 'Segoe UI', Helvetica, Arial, sans-serif;">
  <rect width="100%" height="100%" fill="white"/>
  <g>
    <line x1="40" y1="220.00" x2="860" y2="220.00" stroke="#e5e7eb"/><text x="32" y="224.00" font-size="10" fill="#111827" text-anchor="end">0</text><line x1="40" y1="175.00" x2="860" y2="175.00" stroke="#e5e7eb"/><text x="32" y="179.00" font-size="10" fill="#111827" text-anchor="end">500</text><line x1="40" y1="130.00" x2="860" y2="130.00" stroke="#e5e7eb"/><text x="32" y="134.00" font-size="10" fill="#111827" text-anchor="end">1k</text><line x1="40" y1="85.00" x2="860" y2="85.00" stroke="#e5e7eb"/><text x="32" y="89.00" font-size="10" fill="#111827" text-anchor="end">1.5k</text><line x1="40" y1="40.00" x2="860" y2="40.00" stroke="#e5e7eb"/><text x="32" y="44.00" font-size="10" fill="#111827" text-anchor="end">2k</text>
    <line x1="40.00" y1="40" x2="40.00" y2="220" stroke="#e5e7eb" opacity="0.5"/><line x1="119.82" y1="40" x2="119.82" y2="220" stroke="#e5e7eb" opacity="0.5"/><line x1="199.65" y1="40" x2="199.65" y2="220" stroke="#e5e7eb" opacity="0.5"/><line x1="279.47" y1="40" x2="279.47" y2="220" stroke="#e5e7eb" opacity="0.5"/><line x1="359.29" y1="40" x2="359.29" y2="220" stroke="#e5e7eb" opacity="0.5"/><line x1="439.12" y1="40" x2="439.12" y2="220" stroke="#e5e7eb" opacity="0.5"/><line x1="518.94" y1="40" x2="518.94" y2="220" stroke="#e5e7eb" opacity="0.5"/><line x1="598.76" y1="40" x2="598.76" y2="220" stroke="#e5e7eb" opacity="0.5"/><line x1="678.58" y1="40" x2="678.58" y2="220" stroke="#e5e7eb" opacity="0.5"/><line x1="758.41" y1="40" x2="758.41" y2="220" stroke="#e5e7eb" opacity="0.5"/><line x1="838.23" y1="40" x2="838.23" y2="220" stroke="#e5e7eb" opacity="0.5"/>
    <line x1="40" y1="220" x2="860" y2="220" stroke="#9ca3af"/>
    <line x1="40" y1="40"   x2="40"   y2="220" stroke="#9ca3af"/>
    <path d="M 40.00 166.63 L 47.26 166.00 L 54.51 166.00 L 61.77 121.18 L 69.03 115.78 L 76.28 115.78 L 83.54 112.00 L 90.80 108.22 L 98.05 108.22 L 105.31 108.22 L 112.57 108.22 L 119.82 108.22 L 127.08 108.22 L 134.34 108.22 L 141.59 108.22 L 148.85 108.22 L 156.11 108.22 L 163.36 108.22 L 170.62 108.22 L 177.88 108.22 L 185.13 108.22 L 192.39 108.22 L 199.65 109.21 L 206.90 109.12 L 214.16 108.76 L 221.42 108.76 L 228.67 108.76 L 235.93 108.76 L 243.19 108.76 L 250.44 108.76 L 257.70 108.76 L 264.96 108.76 L 272.21 108.76 L 279.47 108.76 L 286.73 108.76 L 293.98 108.76 L 301.24 108.76 L 308.50 108.76 L 315.75 108.76 L 323.01 108.76 L 330.27 108.76 L 337.52 108.76 L 344.78 108.76 L 352.04 108.76 L 359.29 108.76 L 366.55 108.76 L 373.81 108.76 L 381.06 108.76 L 388.32 108.76 L 395.58 108.76 L 402.83 108.76 L 410.09 108.76 L 417.35 108.76 L 424.60 108.76 L 431.86 108.76 L 439.12 108.76 L 446.37 108.76 L 453.63 108.76 L 460.88 108.76 L 468.14 108.76 L 475.40 108.76 L 482.65 108.76 L 489.91 108.76 L 497.17 108.76 L 504.42 108.76 L 511.68 108.76 L 518.94 108.76 L 526.19 108.76 L 533.45 108.76 L 540.71 108.76 L 547.96 108.76 L 555.22 108.76 L 562.48 108.76 L 569.73 108.76 L 576.99 108.76 L 584.25 108.76 L 591.50 108.76 L 598.76 108.76 L 606.02 108.76 L 613.27 108.76 L 620.53 108.76 L 627.79 108.76 L 635.04 108.76 L 642.30 108.76 L 649.56 108.76 L 656.81 108.76 L 664.07 108.76 L 671.33 108.76 L 678.58 108.76 L 685.84 108.76 L 693.10 108.76 L 700.35 108.76 L 707.61 108.76 L 714.87 108.76 L 722.12 108.76 L 729.38 108.76 L 736.64 108.76 L 743.89 108.76 L 751.15 108.76 L 758.41 108.76 L 765.66 108.76 L 772.92 108.76 L 780.18 108.76 L 787.43 108.76 L 794.69 108.76 L 801.95 108.76 L 809.20 108.76 L 816.46 108.76 L 823.72 108.76 L 830.97 108.76 L 838.23 108.76 L 845.49 108.76 L 852.74 108.76 L 860.00 108.76" fill="none" stroke="#111827" stroke-width="2"/>
    <circle cx="860.00" cy="108.76" r="3" fill="#111827"/>
    <text x="40.00" y="235.00" font-size="9" fill="#111827" text-anchor="middle" transform="rotate(-45 40.00 235.00)">28.08.2025</text><text x="119.82" y="235.00" font-size="9" fill="#111827" text-anchor="middle" transform="rotate(-45 119.82 235.00)">28.08.2025</text><text x="199.65" y="235.00" font-size="9" fill="#111827" text-anchor="middle" transform="rotate(-45 199.65 235.00)">28.08.2025</text><text x="279.47" y="235.00" font-size="9" fill="#111827" text-anchor="middle" transform="rotate(-45 279.47 235.00)">04.09.2025</text><text x="359.29" y="235.00" font-size="9" fill="#111827" text-anchor="middle" transform="rotate(-45 359.29 235.00)">13.09.2025</text><text x="439.12" y="235.00" font-size="9" fill="#111827" text-anchor="middle" transform="rotate(-45 439.12 235.00)">20.09.2025</text><text x="518.94" y="235.00" font-size="9" fill="#111827" text-anchor="middle" transform="rotate(-45 518.94 235.00)">01.10.2025</text><text x="598.76" y="235.00" font-size="9" fill="#111827" text-anchor="middle" transform="rotate(-45 598.76 235.00)">12.10.2025</text><text x="678.58" y="235.00" font-size="9" fill="#111827" text-anchor="middle" transform="rotate(-45 678.58 235.00)">23.10.2025</text><text x="758.41" y="235.00" font-size="9" fill="#111827" text-anchor="middle" transform="rotate(-45 758.41 235.00)">03.11.2025</text><text x="838.23" y="235.00" font-size="9" fill="#111827" text-anchor="middle" transform="rotate(-45 838.23 235.00)">14.11.2025</text>
  </g>
</svg>