<svg xmlns="http://www.w3.org/2000/svg" width="900" height="290" style="font-family: -apple-system, BlinkMacSystemFont, 'Segoe UI', Helvetica, Arial, sans-serif;">
  <rect width="100%" height="100%" fill="#0d1117"/>
  <g>
    <line x1="40" y1="220.00" x2="860" y2="220.00" stroke="#30363d"/><text x="32" y="224.00" font-size="10" fill="#c9d1d9" text-anchor="end">0</text><line x1="40" y1="175.00" x2="860" y2="175.00" stroke="#30363d"/><text x="32" y="179.00" font-size="10" fill="#c9d1d9" text-anchor="end">500</text><line x1="40" y1="130.00" x2="860" y2="130.00" stroke="#30363d"/><text x="32" y="134.00" font-size="10" fill="#c9d1d9" text-anchor="end">1k</text><line x1="40" y1="85.00" x2="860" y2="85.00" stroke="#30363d"/><text x="32" y="89.00" font-size="10" fill="#c9d1d9" text-anchor="end">1.5k</text><line x1="40" y1="40.00" x2="860" y2="40.00" stroke="#30363d"/><text x="32" y="44.00" font-size="10" fill="#c9d1d9" text-anchor="end">2k</text>
    <line x1="40.00" y1="40" x2="40.00" y2="220" stroke="#30363d" opacity="0.5"/><line x1="118.76" y1="40" x2="118.76" y2="220" stroke="#30363d" opacity="0.5"/><line x1="197.51" y1="40" x2="197.51" y2="220" stroke="#30363d" opacity="0.5"/><line x1="276.27" y1="40" x2="276.27" y2="220" stroke="#30363d" opacity="0.5"/><line x1="355.03" y1="40" x2="355.03" y2="220" stroke="#30363d" opacity="0.5"/><line x1="433.79" y1="40" x2="433.79" y2="220" stroke="#30363d" opacity="0.5"/><line x1="512.54" y1="40" x2="512.54" y2="220" stroke="#30363d" opacity="0.5"/><line x1="591.30" y1="40" x2="591.30" y2="220" stroke="#30363d" opacity="0.5"/><line x1="670.06" y1="40" x2="670.06" y2="220" stroke="#30363d" opacity="0.5"/><line x1="748.81" y1="40" x2="748.81" y2="220" stroke="#30363d" opacity="0.5"/><line x1="827.57" y1="40" x2="827.57" y2="220" stroke="#30363d" opacity="0.5"/>
    <line x1="40" y1="220" x2="860" y2="220" stroke="#30363d"/>
    <line x1="40" y1="40"   x2="40"   y2="220" stroke="#30363d"/>
    <path d="M 40.00 166.63 L 44.63 166.00 L 49.27 166.00 L 53.90 121.18 L 58.53 115.78 L 63.16 115.78 L 67.80 112.00 L 72.43 108.22 L 77.06 108.22 L 81.69 108.22 L 86.33 108.22 L 90.96 108.22 L 95.59 108.22 L 100.23 108.22 L 104.86 108.22 L 109.49 108.22 L 114.12 108.22 L 118.76 108.22 L 123.39 108.22 L 128.02 108.22 L 132.66 108.22 L 137.29 108.22 L 141.92 109.21 L 146.55 109.12 L 151.19 108.76 L 155.82 108.76 L 160.45 108.76 L 165.08 108.76 L 169.72 108.76 L 174.35 108.76 L 178.98 108.76 L 183.62 108.76 L 188.25 108.76 L 192.88 108.76 L 197.51 108.76 L 202.15 108.76 L 206.78 108.76 L 211.41 108.76 L 216.05 108.76 L 220.68 108.76 L 225.31 108.76 L 229.94 108.76 L 234.58 108.76 L 239.21 108.76 L 243.84 108.76 L 248.47 108.76 L 253.11 108.76 L 257.74 108.76 L 262.37 108.76 L 267.01 108.76 L 271.64 108.76 L 276.27 108.76 L 280.90 108.76 L 285.54 108.76 L 290.17 108.76 L 294.80 108.76 L 299.44 108.76 L 304.07 108.76 L 308.70 108.76 L 313.33 108.76 L 317.97 108.76 L 322.60 108.76 L 327.23 108.76 L 331.86 108.76 L 336.50 108.76 L 341.13 108.76 L 345.76 108.76 L 350.40 108.76 L 355.03 108.76 L 359.66 108.76 L 364.29 108.76 L 368.93 108.76 L 373.56 108.76 L 378.19 108.76 L 382.82 108.76 L 387.46 108.76 L 392.09 108.76 L 396.72 108.76 L 401.36 108.76 L 405.99 108.76 L 410.62 108.76 L 415.25 108.76 L 419.89 108.76 L 424.52 108.76 L 429.15 108.76 L 433.79 108.76 L 438.42 108.76 L 443.05 108.76 L 447.68 108.76 L 452.32 108.76 L 456.95 108.76 L 461.58 108.76 L 466.21 108.76 L 470.85 108.76 L 475.48 108.76 L 480.11 108.76 L 484.75 108.76 L 489.38 108.76 L 494.01 108.76 L 498.64 108.76 L 503.28 108.76 L 507.91 108.76 L 512.54 108.76 L 517.18 108.76 L 521.81 108.76 L 526.44 108.76 L 531.07 108.76 L 535.71 108.76 L 540.34 108.76 L 544.97 108.76 L 549.60 108.76 L 554.24 108.76 L 558.87 108.76 L 563.50 108.76 L 568.14 108.76 L 572.77 108.76 L 577.40 108.76 L 582.03 108.76 L 586.67 108.76 L 591.30 108.76 L 595.93 108.76 L 600.56 108.76 L 605.20 108.76 L 609.83 108.76 L 614.46 108.76 L 619.10 108.76 L 623.73 108.76 L 628.36 108.76 L 632.99 108.76 L 637.63 108.76 L 642.26 108.76 L 646.89 108.76 L 651.53 108.76 L 656.16 108.76 L 660.79 108.76 L 665.42 108.76 L 670.06 108.76 L 674.69 108.76 L 679.32 108.76 L 683.95 108.76 L 688.59 108.76 L 693.22 108.76 L 697.85 108.76 L 702.49 108.94 L 707.12 100.39 L 711.75 81.40 L 716.38 81.40 L 721.02 81.40 L 725.65 81.40 L 730.28 81.40 L 734.92 70.78 L 739.55 70.78 L 744.18 70.78 L 748.81 70.78 L 753.45 70.78 L 758.08 70.78 L 762.71 70.78 L 767.34 70.78 L 771.98 70.78 L 776.61 70.78 L 781.24 70.78 L 785.88 70.78 L 790.51 70.78 L 795.14 70.78 L 799.77 70.78 L 804.41 70.78 L 809.04 70.78 L 813.67 70.78 L 818.31 70.78 L 822.94 70.78 L 827.57 70.78 L 832.20 70.78 L 836.84 70.78 L 841.47 70.78 L 846.10 70.78 L 850.73 70.78 L 855.37 70.78 L 860.00 70.78" fill="none" stroke="#3fb950" stroke-width="2"/>
    <circle cx="860.00" cy="70.78" r="3" fill="#3fb950"/>
    <text x="40.00" y="235.00" font-size="9" fill="#c9d1d9" text-anchor="middle" transform="rotate(-45 40.00 235.00)">28.08.2025</text><text x="118.76" y="235.00" font-size="9" fill="#c9d1d9" text-anchor="middle" transform="rotate(-45 118.76 235.00)">28.08.2025</text><text x="197.51" y="235.00" font-size="9" fill="#c9d1d9" text-anchor="middle" transform="rotate(-45 197.51 235.00)">05.09.2025</text><text x="276.27" y="235.00" font-size="9" fill="#c9d1d9" text-anchor="middle" transform="rotate(-45 276.27 235.00)">15.09.2025</text><text x="355.03" y="235.00" font-size="9" fill="#c9d1d9" text-anchor="middle" transform="rotate(-45 355.03 235.00)">01.10.2025</text><text x="433.79" y="235.00" font-size="9" fill="#c9d1d9" text-anchor="middle" transform="rotate(-45 433.79 235.00)">17.10.2025</text><text x="512.54" y="235.00" font-size="9" fill="#c9d1d9" text-anchor="middle" transform="rotate(-45 512.54 235.00)">01.11.2025</text><text x="591.30" y="235.00" font-size="9" fill="#c9d1d9" text-anchor="middle" transform="rotate(-45 591.30 235.00)">18.11.2025</text><text x="670.06" y="235.00" font-size="9" fill="#c9d1d9" text-anchor="middle" transform="rotate(-45 670.06 235.00)">28.11.2025</text><text x="748.81" y="235.00" font-size="9" fill="#c9d1d9" text-anchor="middle" transform="rotate(-45 748.81 235.00)">10.12.2025</text><text x="827.57" y="235.00" font-size="9" fill="#c9d1d9" text-anchor="middle" transform="rotate(-45 827.57 235.00)">21.12.2025</text>
  </g>
</svg>