<svg xmlns="http://www.w3.org/2000/svg" width="900" height="290" style="font-family: -apple-system, BlinkMacSystemFont, 'Segoe UI', Helvetica, Arial, sans-serif;">
  <rect width="100%" height="100%" fill="#0d1117"/>
  <g>
    <line x1="40" y1="220.00" x2="860" y2="220.00" stroke="#30363d"/><text x="32" y="224.00" font-size="10" fill="#c9d1d9" text-anchor="end">0</text><line x1="40" y1="175.00" x2="860" y2="175.00" stroke="#30363d"/><text x="32" y="179.00" font-size="10" fill="#c9d1d9" text-anchor="end">500</text><line x1="40" y1="130.00" x2="860" y2="130.00" stroke="#30363d"/><text x="32" y="134.00" font-size="10" fill="#c9d1d9" text-anchor="end">1k</text><line x1="40" y1="85.00" x2="860" y2="85.00" stroke="#30363d"/><text x="32" y="89.00" font-size="10" fill="#c9d1d9" text-anchor="end">1.5k</text><line x1="40" y1="40.00" x2="860" y2="40.00" stroke="#30363d"/><text x="32" y="44.00" font-size="10" fill="#c9d1d9" text-anchor="end">2k</text>
    <line x1="40.00" y1="40" x2="40.00" y2="220" stroke="#30363d" opacity="0.5"/><line x1="122.41" y1="40" x2="122.41" y2="220" stroke="#30363d" opacity="0.5"/><line x1="204.82" y1="40" x2="204.82" y2="220" stroke="#30363d" opacity="0.5"/><line x1="287.24" y1="40" x2="287.24" y2="220" stroke="#30363d" opacity="0.5"/><line x1="369.65" y1="40" x2="369.65" y2="220" stroke="#30363d" opacity="0.5"/><line x1="452.06" y1="40" x2="452.06" y2="220" stroke="#30363d" opacity="0.5"/><line x1="534.47" y1="40" x2="534.47" y2="220" stroke="#30363d" opacity="0.5"/><line x1="616.88" y1="40" x2="616.88" y2="220" stroke="#30363d" opacity="0.5"/><line x1="699.30" y1="40" x2="699.30" y2="220" stroke="#30363d" opacity="0.5"/><line x1="781.71" y1="40" x2="781.71" y2="220" stroke="#30363d" opacity="0.5"/>
    <line x1="40" y1="220" x2="860" y2="220" stroke="#30363d"/>
    <line x1="40" y1="40"   x2="40"   y2="220" stroke="#30363d"/>
    <path d="M 40.00 166.63 L 44.12 166.00 L 48.24 166.00 L 52.36 121.18 L 56.48 115.78 L 60.60 115.78 L 64.72 112.00 L 68.84 108.22 L 72.96 108.22 L 77.09 108.22 L 81.21 108.22 L 85.33 108.22 L 89.45 108.22 L 93.57 108.22 L 97.69 108.22 L 101.81 108.22 L 105.93 108.22 L 110.05 108.22 L 114.17 108.22 L 118.29 108.22 L 122.41 108.22 L 126.53 108.22 L 130.65 109.21 L 134.77 109.12 L 138.89 108.76 L 143.02 108.76 L 147.14 108.76 L 151.26 108.76 L 155.38 108.76 L 159.50 108.76 L 163.62 108.76 L 167.74 108.76 L 171.86 108.76 L 175.98 108.76 L 180.10 108.76 L 184.22 108.76 L 188.34 108.76 L 192.46 108.76 L 196.58 108.76 L 200.70 108.76 L 204.82 108.76 L 208.94 108.76 L 213.07 108.76 L 217.19 108.76 L 221.31 108.76 L 225.43 108.76 L 229.55 108.76 L 233.67 108.76 L 237.79 108.76 L 241.91 108.76 L 246.03 108.76 L 250.15 108.76 L 254.27 108.76 L 258.39 108.76 L 262.51 108.76 L 266.63 108.76 L 270.75 108.76 L 274.87 108.76 L 278.99 108.76 L 283.12 108.76 L 287.24 108.76 L 291.36 108.76 L 295.48 108.76 L 299.60 108.76 L 303.72 108.76 L 307.84 108.76 L 311.96 108.76 L 316.08 108.76 L 320.20 108.76 L 324.32 108.76 L 328.44 108.76 L 332.56 108.76 L 336.68 108.76 L 340.80 108.76 L 344.92 108.76 L 349.05 108.76 L 353.17 108.76 L 357.29 108.76 L 361.41 108.76 L 365.53 108.76 L 369.65 108.76 L 373.77 108.76 L 377.89 108.76 L 382.01 108.76 L 386.13 108.76 L 390.25 108.76 L 394.37 108.76 L 398.49 108.76 L 402.61 108.76 L 406.73 108.76 L 410.85 108.76 L 414.97 108.76 L 419.10 108.76 L 423.22 108.76 L 427.34 108.76 L 431.46 108.76 L 435.58 108.76 L 439.70 108.76 L 443.82 108.76 L 447.94 108.76 L 452.06 108.76 L 456.18 108.76 L 460.30 108.76 L 464.42 108.76 L 468.54 108.76 L 472.66 108.76 L 476.78 108.76 L 480.90 108.76 L 485.03 108.76 L 489.15 108.76 L 493.27 108.76 L 497.39 108.76 L 501.51 108.76 L 505.63 108.76 L 509.75 108.76 L 513.87 108.76 L 517.99 108.76 L 522.11 108.76 L 526.23 108.76 L 530.35 108.76 L 534.47 108.76 L 538.59 108.76 L 542.71 108.76 L 546.83 108.76 L 550.95 108.76 L 555.08 108.76 L 559.20 108.76 L 563.32 108.76 L 567.44 108.76 L 571.56 108.76 L 575.68 108.76 L 579.80 108.76 L 583.92 108.76 L 588.04 108.76 L 592.16 108.76 L 596.28 108.76 L 600.40 108.76 L 604.52 108.76 L 608.64 108.76 L 612.76 108.76 L 616.88 108.76 L 621.01 108.76 L 625.13 108.76 L 629.25 108.94 L 633.37 100.39 L 637.49 81.40 L 641.61 81.40 L 645.73 81.40 L 649.85 81.40 L 653.97 81.40 L 658.09 70.78 L 662.21 70.78 L 666.33 70.78 L 670.45 70.78 L 674.57 70.78 L 678.69 70.78 L 682.81 70.78 L 686.93 70.78 L 691.06 70.78 L 695.18 70.78 L 699.30 70.78 L 703.42 70.78 L 707.54 70.78 L 711.66 70.78 L 715.78 70.78 L 719.90 70.78 L 724.02 70.78 L 728.14 70.78 L 732.26 70.78 L 736.38 70.78 L 740.50 70.78 L 744.62 70.78 L 748.74 70.78 L 752.86 70.78 L 756.98 70.78 L 761.11 70.78 L 765.23 70.78 L 769.35 70.78 L 773.47 70.78 L 777.59 70.78 L 781.71 70.78 L 785.83 70.78 L 789.95 70.78 L 794.07 70.78 L 798.19 70.78 L 802.31 70.78 L 806.43 70.78 L 810.55 70.78 L 814.67 70.78 L 818.79 70.78 L 822.91 70.78 L 827.04 70.78 L 831.16 70.78 L 835.28 70.78 L 839.40 70.78 L 843.52 70.78 L 847.64 70.78 L 851.76 70.78 L 855.88 70.78 L 860.00 70.78" fill="none" stroke="#3fb950" stroke-width="2"/>
    <circle cx="860.00" cy="70.78" r="3" fill="#3fb950"/>
    <text x="40.00" y="235.00" font-size="9" fill="#c9d1d9" text-anchor="middle" transform="rotate(-45 40.00 235.00)">28.08.2025</text><text x="122.41" y="235.00" font-size="9" fill="#c9d1d9" text-anchor="middle" transform="rotate(-45 122.41 235.00)">28.08.2025</text><text x="204.82" y="235.00" font-size="9" fill="#c9d1d9" text-anchor="middle" transform="rotate(-45 204.82 235.00)">09.09.2025</text><text x="287.24" y="235.00" font-size="9" fill="#c9d1d9" text-anchor="middle" transform="rotate(-45 287.24 235.00)">23.09.2025</text><text x="369.65" y="235.00" font-size="9" fill="#c9d1d9" text-anchor="middle" transform="rotate(-45 369.65 235.00)">12.10.2025</text><text x="452.06" y="235.00" font-size="9" fill="#c9d1d9" text-anchor="middle" transform="rotate(-45 452.06 235.00)">30.10.2025</text><text x="534.47" y="235.00" font-size="9" fill="#c9d1d9" text-anchor="middle" transform="rotate(-45 534.47 235.00)">19.11.2025</text><text x="616.88" y="235.00" font-size="9" fill="#c9d1d9" text-anchor="middle" transform="rotate(-45 616.88 235.00)">02.12.2025</text><text x="699.30" y="235.00" font-size="9" fill="#c9d1d9" text-anchor="middle" transform="rotate(-45 699.30 235.00)">12.12.2025</text><text x="781.71" y="235.00" font-size="9" fill="#c9d1d9" text-anchor="middle" transform="rotate(-45 781.71 235.00)">30.12.2025</text>
  </g>
</svg>