<svg xmlns="http://www.w3.org/2000/svg" width="900" height="290" style="font-family: -apple-system, BlinkMacSystemFont, 'Segoe UI', Helvetica, Arial, sans-serif;">
  <rect width="100%" height="100%" fill="#0d1117"/>
  <g>
    <line x1="40" y1="220.00" x2="860" y2="220.00" stroke="#30363d"/><text x="32" y="224.00" font-size="10" fill="#c9d1d9" text-anchor="end">0</text><line x1="40" y1="175.00" x2="860" y2="175.00" stroke="#30363d"/><text x="32" y="179.00" font-size="10" fill="#c9d1d9" text-anchor="end">500</text><line x1="40" y1="130.00" x2="860" y2="130.00" stroke="#30363d"/><text x="32" y="134.00" font-size="10" fill="#c9d1d9" text-anchor="end">1k</text><line x1="40" y1="85.00" x2="860" y2="85.00" stroke="#30363d"/><text x="32" y="89.00" font-size="10" fill="#c9d1d9" text-anchor="end">1.5k</text><line x1="40" y1="40.00" x2="860" y2="40.00" stroke="#30363d"/><text x="32" y="44.00" font-size="10" fill="#c9d1d9" text-anchor="end">2k</text>
    <line x1="40.00" y1="40" x2="40.00" y2="220" stroke="#30363d" opacity="0.5"/><line x1="120.66" y1="40" x2="120.66" y2="220" stroke="#30363d" opacity="0.5"/><line x1="201.31" y1="40" x2="201.31" y2="220" stroke="#30363d" opacity="0.5"/><line x1="281.97" y1="40" x2="281.97" y2="220" stroke="#30363d" opacity="0.5"/><line x1="362.62" y1="40" x2="362.62" y2="220" stroke="#30363d" opacity="0.5"/><line x1="443.28" y1="40" x2="443.28" y2="220" stroke="#30363d" opacity="0.5"/><line x1="523.93" y1="40" x2="523.93" y2="220" stroke="#30363d" opacity="0.5"/><line x1="604.59" y1="40" x2="604.59" y2="220" stroke="#30363d" opacity="0.5"/><line x1="685.25" y1="40" x2="685.25" y2="220" stroke="#30363d" opacity="0.5"/><line x1="765.90" y1="40" x2="765.90" y2="220" stroke="#30363d" opacity="0.5"/><line x1="846.56" y1="40" x2="846.56" y2="220" stroke="#30363d" opacity="0.5"/>
    <line x1="40" y1="220" x2="860" y2="220" stroke="#30363d"/>
    <line x1="40" y1="40"   x2="40"   y2="220" stroke="#30363d"/>
    <path d="M 40.00 166.63 L 44.48 166.00 L 48.96 166.00 L 53.44 121.18 L 57.92 115.78 L 62.40 115.78 L 66.89 112.00 L 71.37 108.22 L 75.85 108.22 L 80.33 108.22 L 84.81 108.22 L 89.29 108.22 L 93.77 108.22 L 98.25 108.22 L 102.73 108.22 L 107.21 108.22 L 111.69 108.22 L 116.17 108.22 L 120.66 108.22 L 125.14 108.22 L 129.62 108.22 L 134.10 108.22 L 138.58 109.21 L 143.06 109.12 L 147.54 108.76 L 152.02 108.76 L 156.50 108.76 L 160.98 108.76 L 165.46 108.76 L 169.95 108.76 L 174.43 108.76 L 178.91 108.76 L 183.39 108.76 L 187.87 108.76 L 192.35 108.76 L 196.83 108.76 L 201.31 108.76 L 205.79 108.76 L 210.27 108.76 L 214.75 108.76 L 219.23 108.76 L 223.72 108.76 L 228.20 108.76 L 232.68 108.76 L 237.16 108.76 L 241.64 108.76 L 246.12 108.76 L 250.60 108.76 L 255.08 108.76 L 259.56 108.76 L 264.04 108.76 L 268.52 108.76 L 273.01 108.76 L 277.49 108.76 L 281.97 108.76 L 286.45 108.76 L 290.93 108.76 L 295.41 108.76 L 299.89 108.76 L 304.37 108.76 L 308.85 108.76 L 313.33 108.76 L 317.81 108.76 L 322.30 108.76 L 326.78 108.76 L 331.26 108.76 L 335.74 108.76 L 340.22 108.76 L 344.70 108.76 L 349.18 108.76 L 353.66 108.76 L 358.14 108.76 L 362.62 108.76 L 367.10 108.76 L 371.58 108.76 L 376.07 108.76 L 380.55 108.76 L 385.03 108.76 L 389.51 108.76 L 393.99 108.76 L 398.47 108.76 L 402.95 108.76 L 407.43 108.76 L 411.91 108.76 L 416.39 108.76 L 420.87 108.76 L 425.36 108.76 L 429.84 108.76 L 434.32 108.76 L 438.80 108.76 L 443.28 108.76 L 447.76 108.76 L 452.24 108.76 L 456.72 108.76 L 461.20 108.76 L 465.68 108.76 L 470.16 108.76 L 474.64 108.76 L 479.13 108.76 L 483.61 108.76 L 488.09 108.76 L 492.57 108.76 L 497.05 108.76 L 501.53 108.76 L 506.01 108.76 L 510.49 108.76 L 514.97 108.76 L 519.45 108.76 L 523.93 108.76 L 528.42 108.76 L 532.90 108.76 L 537.38 108.76 L 541.86 108.76 L 546.34 108.76 L 550.82 108.76 L 555.30 108.76 L 559.78 108.76 L 564.26 108.76 L 568.74 108.76 L 573.22 108.76 L 577.70 108.76 L 582.19 108.76 L 586.67 108.76 L 591.15 108.76 L 595.63 108.76 L 600.11 108.76 L 604.59 108.76 L 609.07 108.76 L 613.55 108.76 L 618.03 108.76 L 622.51 108.76 L 626.99 108.76 L 631.48 108.76 L 635.96 108.76 L 640.44 108.76 L 644.92 108.76 L 649.40 108.76 L 653.88 108.76 L 658.36 108.76 L 662.84 108.76 L 667.32 108.76 L 671.80 108.76 L 676.28 108.76 L 680.77 108.94 L 685.25 100.39 L 689.73 81.40 L 694.21 81.40 L 698.69 81.40 L 703.17 81.40 L 707.65 81.40 L 712.13 70.78 L 716.61 70.78 L 721.09 70.78 L 725.57 70.78 L 730.05 70.78 L 734.54 70.78 L 739.02 70.78 L 743.50 70.78 L 747.98 70.78 L 752.46 70.78 L 756.94 70.78 L 761.42 70.78 L 765.90 70.78 L 770.38 70.78 L 774.86 70.78 L 779.34 70.78 L 783.83 70.78 L 788.31 70.78 L 792.79 70.78 L 797.27 70.78 L 801.75 70.78 L 806.23 70.78 L 810.71 70.78 L 815.19 70.78 L 819.67 70.78 L 824.15 70.78 L 828.63 70.78 L 833.11 70.78 L 837.60 70.78 L 842.08 70.78 L 846.56 70.78 L 851.04 70.78 L 855.52 70.78 L 860.00 70.78" fill="none" stroke="#3fb950" stroke-width="2"/>
    <circle cx="860.00" cy="70.78" r="3" fill="#3fb950"/>
    <text x="40.00" y="235.00" font-size="9" fill="#c9d1d9" text-anchor="middle" transform="rotate(-45 40.00 235.00)">28.08.2025</text><text x="120.66" y="235.00" font-size="9" fill="#c9d1d9" text-anchor="middle" transform="rotate(-45 120.66 235.00)">28.08.2025</text><text x="201.31" y="235.00" font-size="9" fill="#c9d1d9" text-anchor="middle" transform="rotate(-45 201.31 235.00)">07.09.2025</text><text x="281.97" y="235.00" font-size="9" fill="#c9d1d9" text-anchor="middle" transform="rotate(-45 281.97 235.00)">17.09.2025</text><text x="362.62" y="235.00" font-size="9" fill="#c9d1d9" text-anchor="middle" transform="rotate(-45 362.62 235.00)">05.10.2025</text><text x="443.28" y="235.00" font-size="9" fill="#c9d1d9" text-anchor="middle" transform="rotate(-45 443.28 235.00)">22.10.2025</text><text x="523.93" y="235.00" font-size="9" fill="#c9d1d9" text-anchor="middle" transform="rotate(-45 523.93 235.00)">07.11.2025</text><text x="604.59" y="235.00" font-size="9" fill="#c9d1d9" text-anchor="middle" transform="rotate(-45 604.59 235.00)">24.11.2025</text><text x="685.25" y="235.00" font-size="9" fill="#c9d1d9" text-anchor="middle" transform="rotate(-45 685.25 235.00)">04.12.2025</text><text x="765.90" y="235.00" font-size="9" fill="#c9d1d9" text-anchor="middle" transform="rotate(-45 765.90 235.00)">14.12.2025</text><text x="846.56" y="235.00" font-size="9" fill="#c9d1d9" text-anchor="middle" transform="rotate(-45 846.56 235.00)">30.12.2025</text>
  </g>
</svg>