<svg xmlns="http://www.w3.org/2000/svg" width="900" height="290" style="font-family: -apple-system, BlinkMacSystemFont, 'Segoe UI', Helvetica, Arial, sans-serif;">
  <rect width="100%" height="100%" fill="white"/>
  <g>
    <line x1="40" y1="220.00" x2="860" y2="220.00" stroke="#e5e7eb"/><text x="32" y="224.00" font-size="10" fill="#111827" text-anchor="end">0</text><line x1="40" y1="175.00" x2="860" y2="175.00" stroke="#e5e7eb"/><text x="32" y="179.00" font-size="10" fill="#111827" text-anchor="end">500</text><line x1="40" y1="130.00" x2="860" y2="130.00" stroke="#e5e7eb"/><text x="32" y="134.00" font-size="10" fill="#111827" text-anchor="end">1k</text><line x1="40" y1="85.00" x2="860" y2="85.00" stroke="#e5e7eb"/><text x="32" y="89.00" font-size="10" fill="#111827" text-anchor="end">1.5k</text><line x1="40" y1="40.00" x2="860" y2="40.00" stroke="#e5e7eb"/><text x="32" y="44.00" font-size="10" fill="#111827" text-anchor="end">2k</text>
    <line x1="40.00" y1="40" x2="40.00" y2="220" stroke="#e5e7eb" opacity="0.5"/><line x1="121.49" y1="40" x2="121.49" y2="220" stroke="#e5e7eb" opacity="0.5"/><line x1="202.98" y1="40" x2="202.98" y2="220" stroke="#e5e7eb" opacity="0.5"/><line x1="284.47" y1="40" x2="284.47" y2="220" stroke="#e5e7eb" opacity="0.5"/><line x1="365.96" y1="40" x2="365.96" y2="220" stroke="#e5e7eb" opacity="0.5"/><line x1="447.45" y1="40" x2="447.45" y2="220" stroke="#e5e7eb" opacity="0.5"/><line x1="528.94" y1="40" x2="528.94" y2="220" stroke="#e5e7eb" opacity="0.5"/><line x1="610.43" y1="40" x2="610.43" y2="220" stroke="#e5e7eb" opacity="0.5"/><line x1="691.93" y1="40" x2="691.93" y2="220" stroke="#e5e7eb" opacity="0.5"/><line x1="773.42" y1="40" x2="773.42" y2="220" stroke="#e5e7eb" opacity="0.5"/><line x1="854.91" y1="40" x2="854.91" y2="220" stroke="#e5e7eb" opacity="0.5"/>
    <line x1="40" y1="220" x2="860" y2="220" stroke="#9ca3af"/>
    <line x1="40" y1="40"   x2="40"   y2="220" stroke="#9ca3af"/>
    <path d="M 40.00 166.63 L 45.09 166.00 L 50.19 166.00 L 55.28 121.18 L 60.37 115.78 L 65.47 115.78 L 70.56 112.00 L 75.65 108.22 L 80.75 108.22 L 85.84 108.22 L 90.93 108.22 L 96.02 108.22 L 101.12 108.22 L 106.21 108.22 L 111.30 108.22 L 116.40 108.22 L 121.49 108.22 L 126.58 108.22 L 131.68 108.22 L 136.77 108.22 L 141.86 108.22 L 146.96 108.22 L 152.05 109.21 L 157.14 109.12 L 162.24 108.76 L 167.33 108.76 L 172.42 108.76 L 177.52 108.76 L 182.61 108.76 L 187.70 108.76 L 192.80 108.76 L 197.89 108.76 L 202.98 108.76 L 208.07 108.76 L 213.17 108.76 L 218.26 108.76 L 223.35 108.76 L 228.45 108.76 L 233.54 108.76 L 238.63 108.76 L 243.73 108.76 L 248.82 108.76 L 253.91 108.76 L 259.01 108.76 L 264.10 108.76 L 269.19 108.76 L 274.29 108.76 L 279.38 108.76 L 284.47 108.76 L 289.57 108.76 L 294.66 108.76 L 299.75 108.76 L 304.84 108.76 L 309.94 108.76 L 315.03 108.76 L 320.12 108.76 L 325.22 108.76 L 330.31 108.76 L 335.40 108.76 L 340.50 108.76 L 345.59 108.76 L 350.68 108.76 L 355.78 108.76 L 360.87 108.76 L 365.96 108.76 L 371.06 108.76 L 376.15 108.76 L 381.24 108.76 L 386.34 108.76 L 391.43 108.76 L 396.52 108.76 L 401.61 108.76 L 406.71 108.76 L 411.80 108.76 L 416.89 108.76 L 421.99 108.76 L 427.08 108.76 L 432.17 108.76 L 437.27 108.76 L 442.36 108.76 L 447.45 108.76 L 452.55 108.76 L 457.64 108.76 L 462.73 108.76 L 467.83 108.76 L 472.92 108.76 L 478.01 108.76 L 483.11 108.76 L 488.20 108.76 L 493.29 108.76 L 498.39 108.76 L 503.48 108.76 L 508.57 108.76 L 513.66 108.76 L 518.76 108.76 L 523.85 108.76 L 528.94 108.76 L 534.04 108.76 L 539.13 108.76 L 544.22 108.76 L 549.32 108.76 L 554.41 108.76 L 559.50 108.76 L 564.60 108.76 L 569.69 108.76 L 574.78 108.76 L 579.88 108.76 L 584.97 108.76 L 590.06 108.76 L 595.16 108.76 L 600.25 108.76 L 605.34 108.76 L 610.43 108.76 L 615.53 108.76 L 620.62 108.76 L 625.71 108.76 L 630.81 108.76 L 635.90 108.76 L 640.99 108.76 L 646.09 108.76 L 651.18 108.76 L 656.27 108.76 L 661.37 108.76 L 666.46 108.76 L 671.55 108.76 L 676.65 108.76 L 681.74 108.76 L 686.83 108.76 L 691.93 108.76 L 697.02 108.76 L 702.11 108.76 L 707.20 108.76 L 712.30 108.76 L 717.39 108.76 L 722.48 108.76 L 727.58 108.76 L 732.67 108.76 L 737.76 108.76 L 742.86 108.76 L 747.95 108.76 L 753.04 108.76 L 758.14 108.76 L 763.23 108.76 L 768.32 108.94 L 773.42 100.39 L 778.51 81.40 L 783.60 81.40 L 788.70 81.40 L 793.79 81.40 L 798.88 81.40 L 803.98 70.78 L 809.07 70.78 L 814.16 70.78 L 819.25 70.78 L 824.35 70.78 L 829.44 70.78 L 834.53 70.78 L 839.63 70.78 L 844.72 70.78 L 849.81 70.78 L 854.91 70.78 L 860.00 70.78" fill="none" stroke="#111827" stroke-width="2"/>
    <circle cx="860.00" cy="70.78" r="3" fill="#111827"/>
    <text x="40.00" y="235.00" font-size="9" fill="#111827" text-anchor="middle" transform="rotate(-45 40.00 235.00)">28.08.2025</text><text x="121.49" y="235.00" font-size="9" fill="#111827" text-anchor="middle" transform="rotate(-45 121.49 235.00)">28.08.2025</text><text x="202.98" y="235.00" font-size="9" fill="#111827" text-anchor="middle" transform="rotate(-45 202.98 235.00)">03.09.2025</text><text x="284.47" y="235.00" font-size="9" fill="#111827" text-anchor="middle" transform="rotate(-45 284.47 235.00)">15.09.2025</text><text x="365.96" y="235.00" font-size="9" fill="#111827" text-anchor="middle" transform="rotate(-45 365.96 235.00)">27.09.2025</text><text x="447.45" y="235.00" font-size="9" fill="#111827" text-anchor="middle" transform="rotate(-45 447.45 235.00)">12.10.2025</text><text x="528.94" y="235.00" font-size="9" fill="#111827" text-anchor="middle" transform="rotate(-45 528.94 235.00)">27.10.2025</text><text x="610.43" y="235.00" font-size="9" fill="#111827" text-anchor="middle" transform="rotate(-45 610.43 235.00)">11.11.2025</text><text x="691.93" y="235.00" font-size="9" fill="#111827" text-anchor="middle" transform="rotate(-45 691.93 235.00)">26.11.2025</text><text x="773.42" y="235.00" font-size="9" fill="#111827" text-anchor="middle" transform="rotate(-45 773.42 235.00)">04.12.2025</text><text x="854.91" y="235.00" font-size="9" fill="#111827" text-anchor="middle" transform="rotate(-45 854.91 235.00)">12.12.2025</text>
  </g>
</svg>