<svg xmlns="http://www.w3.org/2000/svg" width="900" height="290" style="font-family: -apple-system, BlinkMacSystemFont, 'Segoe UI', Helvetica, Arial, sans-serif;">
  <rect width="100%" height="100%" fill="#0d1117"/>
  <g>
    <line x1="40" y1="220.00" x2="860" y2="220.00" stroke="#30363d"/><text x="32" y="224.00" font-size="10" fill="#c9d1d9" text-anchor="end">0</text><line x1="40" y1="175.00" x2="860" y2="175.00" stroke="#30363d"/><text x="32" y="179.00" font-size="10" fill="#c9d1d9" text-anchor="end">500</text><line x1="40" y1="130.00" x2="860" y2="130.00" stroke="#30363d"/><text x="32" y="134.00" font-size="10" fill="#c9d1d9" text-anchor="end">1k</text><line x1="40" y1="85.00" x2="860" y2="85.00" stroke="#30363d"/><text x="32" y="89.00" font-size="10" fill="#c9d1d9" text-anchor="end">1.5k</text><line x1="40" y1="40.00" x2="860" y2="40.00" stroke="#30363d"/><text x="32" y="44.00" font-size="10" fill="#c9d1d9" text-anchor="end">2k</text>
    <line x1="40.00" y1="40" x2="40.00" y2="220" stroke="#30363d" opacity="0.5"/><line x1="121.32" y1="40" x2="121.32" y2="220" stroke="#30363d" opacity="0.5"/><line x1="202.64" y1="40" x2="202.64" y2="220" stroke="#30363d" opacity="0.5"/><line x1="283.97" y1="40" x2="283.97" y2="220" stroke="#30363d" opacity="0.5"/><line x1="365.29" y1="40" x2="365.29" y2="220" stroke="#30363d" opacity="0.5"/><line x1="446.61" y1="40" x2="446.61" y2="220" stroke="#30363d" opacity="0.5"/><line x1="527.93" y1="40" x2="527.93" y2="220" stroke="#30363d" opacity="0.5"/><line x1="609.26" y1="40" x2="609.26" y2="220" stroke="#30363d" opacity="0.5"/><line x1="690.58" y1="40" x2="690.58" y2="220" stroke="#30363d" opacity="0.5"/><line x1="771.90" y1="40" x2="771.90" y2="220" stroke="#30363d" opacity="0.5"/><line x1="853.22" y1="40" x2="853.22" y2="220" stroke="#30363d" opacity="0.5"/>
    <line x1="40" y1="220" x2="860" y2="220" stroke="#30363d"/>
    <line x1="40" y1="40"   x2="40"   y2="220" stroke="#30363d"/>
    <path d="M 40.00 166.63 L 46.78 166.00 L 53.55 166.00 L 60.33 121.18 L 67.11 115.78 L 73.88 115.78 L 80.66 112.00 L 87.44 108.22 L 94.21 108.22 L 100.99 108.22 L 107.77 108.22 L 114.55 108.22 L 121.32 108.22 L 128.10 108.22 L 134.88 108.22 L 141.65 108.22 L 148.43 108.22 L 155.21 108.22 L 161.98 108.22 L 168.76 108.22 L 175.54 108.22 L 182.31 108.22 L 189.09 109.21 L 195.87 109.12 L 202.64 108.76 L 209.42 108.76 L 216.20 108.76 L 222.98 108.76 L 229.75 108.76 L 236.53 108.76 L 243.31 108.76 L 250.08 108.76 L 256.86 108.76 L 263.64 108.76 L 270.41 108.76 L 277.19 108.76 L 283.97 108.76 L 290.74 108.76 L 297.52 108.76 L 304.30 108.76 L 311.07 108.76 L 317.85 108.76 L 324.63 108.76 L 331.40 108.76 L 338.18 108.76 L 344.96 108.76 L 351.74 108.76 L 358.51 108.76 L 365.29 108.76 L 372.07 108.76 L 378.84 108.76 L 385.62 108.76 L 392.40 108.76 L 399.17 108.76 L 405.95 108.76 L 412.73 108.76 L 419.50 108.76 L 426.28 108.76 L 433.06 108.76 L 439.83 108.76 L 446.61 108.76 L 453.39 108.76 L 460.17 108.76 L 466.94 108.76 L 473.72 108.76 L 480.50 108.76 L 487.27 108.76 L 494.05 108.76 L 500.83 108.76 L 507.60 108.76 L 514.38 108.76 L 521.16 108.76 L 527.93 108.76 L 534.71 108.76 L 541.49 108.76 L 548.26 108.76 L 555.04 108.76 L 561.82 108.76 L 568.60 108.76 L 575.37 108.76 L 582.15 108.76 L 588.93 108.76 L 595.70 108.76 L 602.48 108.76 L 609.26 108.76 L 616.03 108.76 L 622.81 108.76 L 629.59 108.76 L 636.36 108.76 L 643.14 108.76 L 649.92 108.76 L 656.69 108.76 L 663.47 108.76 L 670.25 108.76 L 677.02 108.76 L 683.80 108.76 L 690.58 108.76 L 697.36 108.76 L 704.13 108.76 L 710.91 108.76 L 717.69 108.76 L 724.46 108.76 L 731.24 108.76 L 738.02 108.76 L 744.79 108.76 L 751.57 108.76 L 758.35 108.76 L 765.12 108.76 L 771.90 108.76 L 778.68 108.76 L 785.45 108.76 L 792.23 108.76 L 799.01 108.76 L 805.79 108.76 L 812.56 108.76 L 819.34 108.76 L 826.12 108.76 L 832.89 108.76 L 839.67 108.76 L 846.45 108.76 L 853.22 108.76 L 860.00 108.76" fill="none" stroke="#3fb950" stroke-width="2"/>
    <circle cx="860.00" cy="108.76" r="3" fill="#3fb950"/>
    <text x="40.00" y="235.00" font-size="9" fill="#c9d1d9" text-anchor="middle" transform="rotate(-45 40.00 235.00)">28.08.2025</text><text x="121.32" y="235.00" font-size="9" fill="#c9d1d9" text-anchor="middle" transform="rotate(-45 121.32 235.00)">28.08.2025</text><text x="202.64" y="235.00" font-size="9" fill="#c9d1d9" text-anchor="middle" transform="rotate(-45 202.64 235.00)">28.08.2025</text><text x="283.97" y="235.00" font-size="9" fill="#c9d1d9" text-anchor="middle" transform="rotate(-45 283.97 235.00)">07.09.2025</text><text x="365.29" y="235.00" font-size="9" fill="#c9d1d9" text-anchor="middle" transform="rotate(-45 365.29 235.00)">15.09.2025</text><text x="446.61" y="235.00" font-size="9" fill="#c9d1d9" text-anchor="middle" transform="rotate(-45 446.61 235.00)">25.09.2025</text><text x="527.93" y="235.00" font-size="9" fill="#c9d1d9" text-anchor="middle" transform="rotate(-45 527.93 235.00)">07.10.2025</text><text x="609.26" y="235.00" font-size="9" fill="#c9d1d9" text-anchor="middle" transform="rotate(-45 609.26 235.00)">19.10.2025</text><text x="690.58" y="235.00" font-size="9" fill="#c9d1d9" text-anchor="middle" transform="rotate(-45 690.58 235.00)">31.10.2025</text><text x="771.90" y="235.00" font-size="9" fill="#c9d1d9" text-anchor="middle" transform="rotate(-45 771.90 235.00)">12.11.2025</text><text x="853.22" y="235.00" font-size="9" fill="#c9d1d9" text-anchor="middle" transform="rotate(-45 853.22 235.00)">24.11.2025</text>
  </g>
</svg>