<svg xmlns="http://www.w3.org/2000/svg" width="900" height="290" style="font-family: -apple-system, BlinkMacSystemFont, 'Segoe UI', Helvetica, Arial, sans-serif;">
  <rect width="100%" height="100%" fill="white"/>
  <g>
    <line x1="40" y1="220.00" x2="860" y2="220.00" stroke="#e5e7eb"/><text x="32" y="224.00" font-size="10" fill="#111827" text-anchor="end">0</text><line x1="40" y1="175.00" x2="860" y2="175.00" stroke="#e5e7eb"/><text x="32" y="179.00" font-size="10" fill="#111827" text-anchor="end">500</text><line x1="40" y1="130.00" x2="860" y2="130.00" stroke="#e5e7eb"/><text x="32" y="134.00" font-size="10" fill="#111827" text-anchor="end">1k</text><line x1="40" y1="85.00" x2="860" y2="85.00" stroke="#e5e7eb"/><text x="32" y="89.00" font-size="10" fill="#111827" text-anchor="end">1.5k</text><line x1="40" y1="40.00" x2="860" y2="40.00" stroke="#e5e7eb"/><text x="32" y="44.00" font-size="10" fill="#111827" text-anchor="end">2k</text>
    <line x1="40.00" y1="40" x2="40.00" y2="220" stroke="#e5e7eb" opacity="0.5"/><line x1="122.00" y1="40" x2="122.00" y2="220" stroke="#e5e7eb" opacity="0.5"/><line x1="204.00" y1="40" x2="204.00" y2="220" stroke="#e5e7eb" opacity="0.5"/><line x1="286.00" y1="40" x2="286.00" y2="220" stroke="#e5e7eb" opacity="0.5"/><line x1="368.00" y1="40" x2="368.00" y2="220" stroke="#e5e7eb" opacity="0.5"/><line x1="450.00" y1="40" x2="450.00" y2="220" stroke="#e5e7eb" opacity="0.5"/><line x1="532.00" y1="40" x2="532.00" y2="220" stroke="#e5e7eb" opacity="0.5"/><line x1="614.00" y1="40" x2="614.00" y2="220" stroke="#e5e7eb" opacity="0.5"/><line x1="696.00" y1="40" x2="696.00" y2="220" stroke="#e5e7eb" opacity="0.5"/><line x1="778.00" y1="40" x2="778.00" y2="220" stroke="#e5e7eb" opacity="0.5"/><line x1="860.00" y1="40" x2="860.00" y2="220" stroke="#e5e7eb" opacity="0.5"/>
    <line x1="40" y1="220" x2="860" y2="220" stroke="#9ca3af"/>
    <line x1="40" y1="40"   x2="40"   y2="220" stroke="#9ca3af"/>
    <path d="M 40.00 166.63 L 43.90 166.00 L 47.81 166.00 L 51.71 121.18 L 55.62 115.78 L 59.52 115.78 L 63.43 112.00 L 67.33 108.22 L 71.24 108.22 L 75.14 108.22 L 79.05 108.22 L 82.95 108.22 L 86.86 108.22 L 90.76 108.22 L 94.67 108.22 L 98.57 108.22 L 102.48 108.22 L 106.38 108.22 L 110.29 108.22 L 114.19 108.22 L 118.10 108.22 L 122.00 108.22 L 125.90 109.21 L 129.81 109.12 L 133.71 108.76 L 137.62 108.76 L 141.52 108.76 L 145.43 108.76 L 149.33 108.76 L 153.24 108.76 L 157.14 108.76 L 161.05 108.76 L 164.95 108.76 L 168.86 108.76 L 172.76 108.76 L 176.67 108.76 L 180.57 108.76 L 184.48 108.76 L 188.38 108.76 L 192.29 108.76 L 196.19 108.76 L 200.10 108.76 L 204.00 108.76 L 207.90 108.76 L 211.81 108.76 L 215.71 108.76 L 219.62 108.76 L 223.52 108.76 L 227.43 108.76 L 231.33 108.76 L 235.24 108.76 L 239.14 108.76 L 243.05 108.76 L 246.95 108.76 L 250.86 108.76 L 254.76 108.76 L 258.67 108.76 L 262.57 108.76 L 266.48 108.76 L 270.38 108.76 L 274.29 108.76 L 278.19 108.76 L 282.10 108.76 L 286.00 108.76 L 289.90 108.76 L 293.81 108.76 L 297.71 108.76 L 301.62 108.76 L 305.52 108.76 L 309.43 108.76 L 313.33 108.76 L 317.24 108.76 L 321.14 108.76 L 325.05 108.76 L 328.95 108.76 L 332.86 108.76 L 336.76 108.76 L 340.67 108.76 L 344.57 108.76 L 348.48 108.76 L 352.38 108.76 L 356.29 108.76 L 360.19 108.76 L 364.10 108.76 L 368.00 108.76 L 371.90 108.76 L 375.81 108.76 L 379.71 108.76 L 383.62 108.76 L 387.52 108.76 L 391.43 108.76 L 395.33 108.76 L 399.24 108.76 L 403.14 108.76 L 407.05 108.76 L 410.95 108.76 L 414.86 108.76 L 418.76 108.76 L 422.67 108.76 L 426.57 108.76 L 430.48 108.76 L 434.38 108.76 L 438.29 108.76 L 442.19 108.76 L 446.10 108.76 L 450.00 108.76 L 453.90 108.76 L 457.81 108.76 L 461.71 108.76 L 465.62 108.76 L 469.52 108.76 L 473.43 108.76 L 477.33 108.76 L 481.24 108.76 L 485.14 108.76 L 489.05 108.76 L 492.95 108.76 L 496.86 108.76 L 500.76 108.76 L 504.67 108.76 L 508.57 108.76 L 512.48 108.76 L 516.38 108.76 L 520.29 108.76 L 524.19 108.76 L 528.10 108.76 L 532.00 108.76 L 535.90 108.76 L 539.81 108.76 L 543.71 108.76 L 547.62 108.76 L 551.52 108.76 L 555.43 108.76 L 559.33 108.76 L 563.24 108.76 L 567.14 108.76 L 571.05 108.76 L 574.95 108.76 L 578.86 108.76 L 582.76 108.76 L 586.67 108.76 L 590.57 108.76 L 594.48 108.76 L 598.38 108.94 L 602.29 100.39 L 606.19 81.40 L 610.10 81.40 L 614.00 81.40 L 617.90 81.40 L 621.81 81.40 L 625.71 70.78 L 629.62 70.78 L 633.52 70.78 L 637.43 70.78 L 641.33 70.78 L 645.24 70.78 L 649.14 70.78 L 653.05 70.78 L 656.95 70.78 L 660.86 70.78 L 664.76 70.78 L 668.67 70.78 L 672.57 70.78 L 676.48 70.78 L 680.38 70.78 L 684.29 70.78 L 688.19 70.78 L 692.10 70.78 L 696.00 70.78 L 699.90 70.78 L 703.81 70.78 L 707.71 70.78 L 711.62 70.78 L 715.52 70.78 L 719.43 70.78 L 723.33 70.78 L 727.24 70.78 L 731.14 70.78 L 735.05 70.78 L 738.95 70.78 L 742.86 70.78 L 746.76 70.78 L 750.67 70.78 L 754.57 70.78 L 758.48 70.78 L 762.38 70.78 L 766.29 70.78 L 770.19 70.78 L 774.10 70.78 L 778.00 70.78 L 781.90 70.78 L 785.81 70.78 L 789.71 70.78 L 793.62 70.78 L 797.52 70.78 L 801.43 70.78 L 805.33 70.78 L 809.24 70.78 L 813.14 70.78 L 817.05 70.78 L 820.95 70.78 L 824.86 70.78 L 828.76 70.78 L 832.67 70.78 L 836.57 70.78 L 840.48 70.78 L 844.38 70.78 L 848.29 70.78 L 852.19 70.78 L 856.10 70.78 L 860.00 70.78" fill="none" stroke="#111827" stroke-width="2"/>
    <circle cx="860.00" cy="70.78" r="3" fill="#111827"/>
    <text x="40.00" y="235.00" font-size="9" fill="#111827" text-anchor="middle" transform="rotate(-45 40.00 235.00)">28.08.2025</text><text x="122.00" y="235.00" font-size="9" fill="#111827" text-anchor="middle" transform="rotate(-45 122.00 235.00)">28.08.2025</text><text x="204.00" y="235.00" font-size="9" fill="#111827" text-anchor="middle" transform="rotate(-45 204.00 235.00)">11.09.2025</text><text x="286.00" y="235.00" font-size="9" fill="#111827" text-anchor="middle" transform="rotate(-45 286.00 235.00)">26.09.2025</text><text x="368.00" y="235.00" font-size="9" fill="#111827" text-anchor="middle" transform="rotate(-45 368.00 235.00)">16.10.2025</text><text x="450.00" y="235.00" font-size="9" fill="#111827" text-anchor="middle" transform="rotate(-45 450.00 235.00)">04.11.2025</text><text x="532.00" y="235.00" font-size="9" fill="#111827" text-anchor="middle" transform="rotate(-45 532.00 235.00)">24.11.2025</text><text x="614.00" y="235.00" font-size="9" fill="#111827" text-anchor="middle" transform="rotate(-45 614.00 235.00)">05.12.2025</text><text x="696.00" y="235.00" font-size="9" fill="#111827" text-anchor="middle" transform="rotate(-45 696.00 235.00)">19.12.2025</text><text x="778.00" y="235.00" font-size="9" fill="#111827" text-anchor="middle" transform="rotate(-45 778.00 235.00)">08.01.2026</text><text x="860.00" y="235.00" font-size="9" fill="#111827" text-anchor="middle" transform="rotate(-45 860.00 235.00)">27.01.2026</text>
  </g>
</svg>