<svg xmlns="http://www.w3.org/2000/svg" width="900" height="290" style="font-family: -apple-system, BlinkMacSystemFont, 'Segoe UI', Helvetica, Arial, sans-serif;">
  <rect width="100%" height="100%" fill="#0d1117"/>
  <g>
    <line x1="40" y1="220.00" x2="860" y2="220.00" stroke="#30363d"/><text x="32" y="224.00" font-size="10" fill="#c9d1d9" text-anchor="end">0</text><line x1="40" y1="175.00" x2="860" y2="175.00" stroke="#30363d"/><text x="32" y="179.00" font-size="10" fill="#c9d1d9" text-anchor="end">500</text><line x1="40" y1="130.00" x2="860" y2="130.00" stroke="#30363d"/><text x="32" y="134.00" font-size="10" fill="#c9d1d9" text-anchor="end">1k</text><line x1="40" y1="85.00" x2="860" y2="85.00" stroke="#30363d"/><text x="32" y="89.00" font-size="10" fill="#c9d1d9" text-anchor="end">1.5k</text><line x1="40" y1="40.00" x2="860" y2="40.00" stroke="#30363d"/><text x="32" y="44.00" font-size="10" fill="#c9d1d9" text-anchor="end">2k</text>
    <line x1="40.00" y1="40" x2="40.00" y2="220" stroke="#30363d" opacity="0.5"/><line x1="116.28" y1="40" x2="116.28" y2="220" stroke="#30363d" opacity="0.5"/><line x1="192.56" y1="40" x2="192.56" y2="220" stroke="#30363d" opacity="0.5"/><line x1="268.84" y1="40" x2="268.84" y2="220" stroke="#30363d" opacity="0.5"/><line x1="345.12" y1="40" x2="345.12" y2="220" stroke="#30363d" opacity="0.5"/><line x1="421.40" y1="40" x2="421.40" y2="220" stroke="#30363d" opacity="0.5"/><line x1="497.67" y1="40" x2="497.67" y2="220" stroke="#30363d" opacity="0.5"/><line x1="573.95" y1="40" x2="573.95" y2="220" stroke="#30363d" opacity="0.5"/><line x1="650.23" y1="40" x2="650.23" y2="220" stroke="#30363d" opacity="0.5"/><line x1="726.51" y1="40" x2="726.51" y2="220" stroke="#30363d" opacity="0.5"/><line x1="802.79" y1="40" x2="802.79" y2="220" stroke="#30363d" opacity="0.5"/>
    <line x1="40" y1="220" x2="860" y2="220" stroke="#30363d"/>
    <line x1="40" y1="40"   x2="40"   y2="220" stroke="#30363d"/>
    <path d="M 40.00 166.63 L 59.07 166.00 L 78.14 166.00 L 97.21 121.18 L 116.28 115.78 L 135.35 115.78 L 154.42 112.00 L 173.49 108.22 L 192.56 108.22 L 211.63 108.22 L 230.70 108.22 L 249.77 108.22 L 268.84 108.22 L 287.91 108.22 L 306.98 108.22 L 326.05 108.22 L 345.12 108.22 L 364.19 108.22 L 383.26 108.22 L 402.33 108.22 L 421.40 108.22 L 440.47 108.22 L 459.53 109.21 L 478.60 109.12 L 497.67 108.76 L 516.74 108.76 L 535.81 108.76 L 554.88 108.76 L 573.95 108.76 L 593.02 108.76 L 612.09 108.76 L 631.16 108.76 L 650.23 108.76 L 669.30 108.76 L 688.37 108.76 L 707.44 108.76 L 726.51 108.76 L 745.58 108.76 L 764.65 108.76 L 783.72 108.76 L 802.79 108.76 L 821.86 108.76 L 840.93 108.76 L 860.00 108.76" fill="none" stroke="#3fb950" stroke-width="2"/>
    <circle cx="860.00" cy="108.76" r="3" fill="#3fb950"/>
    <text x="40.00" y="235.00" font-size="9" fill="#c9d1d9" text-anchor="middle" transform="rotate(-45 40.00 235.00)">28.08.2025</text><text x="116.28" y="235.00" font-size="9" fill="#c9d1d9" text-anchor="middle" transform="rotate(-45 116.28 235.00)">28.08.2025</text><text x="192.56" y="235.00" font-size="9" fill="#c9d1d9" text-anchor="middle" transform="rotate(-45 192.56 235.00)">28.08.2025</text><text x="268.84" y="235.00" font-size="9" fill="#c9d1d9" text-anchor="middle" transform="rotate(-45 268.84 235.00)">28.08.2025</text><text x="345.12" y="235.00" font-size="9" fill="#c9d1d9" text-anchor="middle" transform="rotate(-45 345.12 235.00)">28.08.2025</text><text x="421.40" y="235.00" font-size="9" fill="#c9d1d9" text-anchor="middle" transform="rotate(-45 421.40 235.00)">28.08.2025</text><text x="497.67" y="235.00" font-size="9" fill="#c9d1d9" text-anchor="middle" transform="rotate(-45 497.67 235.00)">28.08.2025</text><text x="573.95" y="235.00" font-size="9" fill="#c9d1d9" text-anchor="middle" transform="rotate(-45 573.95 235.00)">30.08.2025</text><text x="650.23" y="235.00" font-size="9" fill="#c9d1d9" text-anchor="middle" transform="rotate(-45 650.23 235.00)">03.09.2025</text><text x="726.51" y="235.00" font-size="9" fill="#c9d1d9" text-anchor="middle" transform="rotate(-45 726.51 235.00)">07.09.2025</text><text x="802.79" y="235.00" font-size="9" fill="#c9d1d9" text-anchor="middle" transform="rotate(-45 802.79 235.00)">11.09.2025</text>
  </g>
</svg>