<svg xmlns="http://www.w3.org/2000/svg" width="900" height="290" style="font-family: -apple-system, BlinkMacSystemFont, 'Segoe UI', Helvetica, Arial, sans-serif;">
  <rect width="100%" height="100%" fill="white"/>
  <g>
    <line x1="40" y1="220.00" x2="860" y2="220.00" stroke="#e5e7eb"/><text x="32" y="224.00" font-size="10" fill="#111827" text-anchor="end">0</text><line x1="40" y1="175.00" x2="860" y2="175.00" stroke="#e5e7eb"/><text x="32" y="179.00" font-size="10" fill="#111827" text-anchor="end">500</text><line x1="40" y1="130.00" x2="860" y2="130.00" stroke="#e5e7eb"/><text x="32" y="134.00" font-size="10" fill="#111827" text-anchor="end">1k</text><line x1="40" y1="85.00" x2="860" y2="85.00" stroke="#e5e7eb"/><text x="32" y="89.00" font-size="10" fill="#111827" text-anchor="end">1.5k</text><line x1="40" y1="40.00" x2="860" y2="40.00" stroke="#e5e7eb"/><text x="32" y="44.00" font-size="10" fill="#111827" text-anchor="end">2k</text>
    <line x1="40.00" y1="40" x2="40.00" y2="220" stroke="#e5e7eb" opacity="0.5"/><line x1="108.33" y1="40" x2="108.33" y2="220" stroke="#e5e7eb" opacity="0.5"/><line x1="176.67" y1="40" x2="176.67" y2="220" stroke="#e5e7eb" opacity="0.5"/><line x1="245.00" y1="40" x2="245.00" y2="220" stroke="#e5e7eb" opacity="0.5"/><line x1="313.33" y1="40" x2="313.33" y2="220" stroke="#e5e7eb" opacity="0.5"/><line x1="381.67" y1="40" x2="381.67" y2="220" stroke="#e5e7eb" opacity="0.5"/><line x1="450.00" y1="40" x2="450.00" y2="220" stroke="#e5e7eb" opacity="0.5"/><line x1="518.33" y1="40" x2="518.33" y2="220" stroke="#e5e7eb" opacity="0.5"/><line x1="586.67" y1="40" x2="586.67" y2="220" stroke="#e5e7eb" opacity="0.5"/><line x1="655.00" y1="40" x2="655.00" y2="220" stroke="#e5e7eb" opacity="0.5"/><line x1="723.33" y1="40" x2="723.33" y2="220" stroke="#e5e7eb" opacity="0.5"/><line x1="791.67" y1="40" x2="791.67" y2="220" stroke="#e5e7eb" opacity="0.5"/><line x1="860.00" y1="40" x2="860.00" y2="220" stroke="#e5e7eb" opacity="0.5"/>
    <line x1="40" y1="220" x2="860" y2="220" stroke="#9ca3af"/>
    <line x1="40" y1="40"   x2="40"   y2="220" stroke="#9ca3af"/>
    <path d="M 40.00 166.63 L 62.78 166.00 L 85.56 166.00 L 108.33 121.18 L 131.11 115.78 L 153.89 115.78 L 176.67 112.00 L 199.44 108.22 L 222.22 108.22 L 245.00 108.22 L 267.78 108.22 L 290.56 108.22 L 313.33 108.22 L 336.11 108.22 L 358.89 108.22 L 381.67 108.22 L 404.44 108.22 L 427.22 108.22 L 450.00 108.22 L 472.78 108.22 L 495.56 108.22 L 518.33 108.22 L 541.11 109.21 L 563.89 109.12 L 586.67 108.76 L 609.44 108.76 L 632.22 108.76 L 655.00 108.76 L 677.78 108.76 L 700.56 108.76 L 723.33 108.76 L 746.11 108.76 L 768.89 108.76 L 791.67 108.76 L 814.44 108.76 L 837.22 108.76 L 860.00 108.76" fill="none" stroke="#111827" stroke-width="2"/>
    <circle cx="860.00" cy="108.76" r="3" fill="#111827"/>
    <text x="40.00" y="235.00" font-size="9" fill="#111827" text-anchor="middle" transform="rotate(-45 40.00 235.00)">28.08.2025</text><text x="108.33" y="235.00" font-size="9" fill="#111827" text-anchor="middle" transform="rotate(-45 108.33 235.00)">28.08.2025</text><text x="176.67" y="235.00" font-size="9" fill="#111827" text-anchor="middle" transform="rotate(-45 176.67 235.00)">28.08.2025</text><text x="245.00" y="235.00" font-size="9" fill="#111827" text-anchor="middle" transform="rotate(-45 245.00 235.00)">28.08.2025</text><text x="313.33" y="235.00" font-size="9" fill="#111827" text-anchor="middle" transform="rotate(-45 313.33 235.00)">28.08.2025</text><text x="381.67" y="235.00" font-size="9" fill="#111827" text-anchor="middle" transform="rotate(-45 381.67 235.00)">28.08.2025</text><text x="450.00" y="235.00" font-size="9" fill="#111827" text-anchor="middle" transform="rotate(-45 450.00 235.00)">28.08.2025</text><text x="518.33" y="235.00" font-size="9" fill="#111827" text-anchor="middle" transform="rotate(-45 518.33 235.00)">28.08.2025</text><text x="586.67" y="235.00" font-size="9" fill="#111827" text-anchor="middle" transform="rotate(-45 586.67 235.00)">28.08.2025</text><text x="655.00" y="235.00" font-size="9" fill="#111827" text-anchor="middle" transform="rotate(-45 655.00 235.00)">29.08.2025</text><text x="723.33" y="235.00" font-size="9" fill="#111827" text-anchor="middle" transform="rotate(-45 723.33 235.00)">01.09.2025</text><text x="791.67" y="235.00" font-size="9" fill="#111827" text-anchor="middle" transform="rotate(-45 791.67 235.00)">04.09.2025</text><text x="860.00" y="235.00" font-size="9" fill="#111827" text-anchor="middle" transform="rotate(-45 860.00 235.00)">07.09.2025</text>
  </g>
</svg>