<svg xmlns="http://www.w3.org/2000/svg" width="900" height="290" style="font-family: -apple-system, BlinkMacSystemFont, 'Segoe UI', Helvetica, Arial, sans-serif;">
  <rect width="100%" height="100%" fill="#0d1117"/>
  <g>
    <line x1="40" y1="220.00" x2="860" y2="220.00" stroke="#30363d"/><text x="32" y="224.00" font-size="10" fill="#c9d1d9" text-anchor="end">0</text><line x1="40" y1="175.00" x2="860" y2="175.00" stroke="#30363d"/><text x="32" y="179.00" font-size="10" fill="#c9d1d9" text-anchor="end">500</text><line x1="40" y1="130.00" x2="860" y2="130.00" stroke="#30363d"/><text x="32" y="134.00" font-size="10" fill="#c9d1d9" text-anchor="end">1k</text><line x1="40" y1="85.00" x2="860" y2="85.00" stroke="#30363d"/><text x="32" y="89.00" font-size="10" fill="#c9d1d9" text-anchor="end">1.5k</text><line x1="40" y1="40.00" x2="860" y2="40.00" stroke="#30363d"/><text x="32" y="44.00" font-size="10" fill="#c9d1d9" text-anchor="end">2k</text>
    <line x1="40.00" y1="40" x2="40.00" y2="220" stroke="#30363d" opacity="0.5"/><line x1="118.63" y1="40" x2="118.63" y2="220" stroke="#30363d" opacity="0.5"/><line x1="197.26" y1="40" x2="197.26" y2="220" stroke="#30363d" opacity="0.5"/><line x1="275.89" y1="40" x2="275.89" y2="220" stroke="#30363d" opacity="0.5"/><line x1="354.52" y1="40" x2="354.52" y2="220" stroke="#30363d" opacity="0.5"/><line x1="433.15" y1="40" x2="433.15" y2="220" stroke="#30363d" opacity="0.5"/><line x1="511.78" y1="40" x2="511.78" y2="220" stroke="#30363d" opacity="0.5"/><line x1="590.41" y1="40" x2="590.41" y2="220" stroke="#30363d" opacity="0.5"/><line x1="669.04" y1="40" x2="669.04" y2="220" stroke="#30363d" opacity="0.5"/><line x1="747.67" y1="40" x2="747.67" y2="220" stroke="#30363d" opacity="0.5"/><line x1="826.30" y1="40" x2="826.30" y2="220" stroke="#30363d" opacity="0.5"/>
    <line x1="40" y1="220" x2="860" y2="220" stroke="#30363d"/>
    <line x1="40" y1="40"   x2="40"   y2="220" stroke="#30363d"/>
    <path d="M 40.00 166.63 L 45.62 166.00 L 51.23 166.00 L 56.85 121.18 L 62.47 115.78 L 68.08 115.78 L 73.70 112.00 L 79.32 108.22 L 84.93 108.22 L 90.55 108.22 L 96.16 108.22 L 101.78 108.22 L 107.40 108.22 L 113.01 108.22 L 118.63 108.22 L 124.25 108.22 L 129.86 108.22 L 135.48 108.22 L 141.10 108.22 L 146.71 108.22 L 152.33 108.22 L 157.95 108.22 L 163.56 109.21 L 169.18 109.12 L 174.79 108.76 L 180.41 108.76 L 186.03 108.76 L 191.64 108.76 L 197.26 108.76 L 202.88 108.76 L 208.49 108.76 L 214.11 108.76 L 219.73 108.76 L 225.34 108.76 L 230.96 108.76 L 236.58 108.76 L 242.19 108.76 L 247.81 108.76 L 253.42 108.76 L 259.04 108.76 L 264.66 108.76 L 270.27 108.76 L 275.89 108.76 L 281.51 108.76 L 287.12 108.76 L 292.74 108.76 L 298.36 108.76 L 303.97 108.76 L 309.59 108.76 L 315.21 108.76 L 320.82 108.76 L 326.44 108.76 L 332.05 108.76 L 337.67 108.76 L 343.29 108.76 L 348.90 108.76 L 354.52 108.76 L 360.14 108.76 L 365.75 108.76 L 371.37 108.76 L 376.99 108.76 L 382.60 108.76 L 388.22 108.76 L 393.84 108.76 L 399.45 108.76 L 405.07 108.76 L 410.68 108.76 L 416.30 108.76 L 421.92 108.76 L 427.53 108.76 L 433.15 108.76 L 438.77 108.76 L 444.38 108.76 L 450.00 108.76 L 455.62 108.76 L 461.23 108.76 L 466.85 108.76 L 472.47 108.76 L 478.08 108.76 L 483.70 108.76 L 489.32 108.76 L 494.93 108.76 L 500.55 108.76 L 506.16 108.76 L 511.78 108.76 L 517.40 108.76 L 523.01 108.76 L 528.63 108.76 L 534.25 108.76 L 539.86 108.76 L 545.48 108.76 L 551.10 108.76 L 556.71 108.76 L 562.33 108.76 L 567.95 108.76 L 573.56 108.76 L 579.18 108.76 L 584.79 108.76 L 590.41 108.76 L 596.03 108.76 L 601.64 108.76 L 607.26 108.76 L 612.88 108.76 L 618.49 108.76 L 624.11 108.76 L 629.73 108.76 L 635.34 108.76 L 640.96 108.76 L 646.58 108.76 L 652.19 108.76 L 657.81 108.76 L 663.42 108.76 L 669.04 108.76 L 674.66 108.76 L 680.27 108.76 L 685.89 108.76 L 691.51 108.76 L 697.12 108.76 L 702.74 108.76 L 708.36 108.76 L 713.97 108.76 L 719.59 108.76 L 725.21 108.76 L 730.82 108.76 L 736.44 108.76 L 742.05 108.76 L 747.67 108.76 L 753.29 108.76 L 758.90 108.76 L 764.52 108.76 L 770.14 108.76 L 775.75 108.76 L 781.37 108.76 L 786.99 108.76 L 792.60 108.76 L 798.22 108.76 L 803.84 108.76 L 809.45 108.76 L 815.07 108.76 L 820.68 108.76 L 826.30 108.76 L 831.92 108.76 L 837.53 108.76 L 843.15 108.94 L 848.77 100.39 L 854.38 81.40 L 860.00 81.40" fill="none" stroke="#3fb950" stroke-width="2"/>
    <circle cx="860.00" cy="81.40" r="3" fill="#3fb950"/>
    <text x="40.00" y="235.00" font-size="9" fill="#c9d1d9" text-anchor="middle" transform="rotate(-45 40.00 235.00)">28.08.2025</text><text x="118.63" y="235.00" font-size="9" fill="#c9d1d9" text-anchor="middle" transform="rotate(-45 118.63 235.00)">28.08.2025</text><text x="197.26" y="235.00" font-size="9" fill="#c9d1d9" text-anchor="middle" transform="rotate(-45 197.26 235.00)">30.08.2025</text><text x="275.89" y="235.00" font-size="9" fill="#c9d1d9" text-anchor="middle" transform="rotate(-45 275.89 235.00)">11.09.2025</text><text x="354.52" y="235.00" font-size="9" fill="#c9d1d9" text-anchor="middle" transform="rotate(-45 354.52 235.00)">19.09.2025</text><text x="433.15" y="235.00" font-size="9" fill="#c9d1d9" text-anchor="middle" transform="rotate(-45 433.15 235.00)">03.10.2025</text><text x="511.78" y="235.00" font-size="9" fill="#c9d1d9" text-anchor="middle" transform="rotate(-45 511.78 235.00)">16.10.2025</text><text x="590.41" y="235.00" font-size="9" fill="#c9d1d9" text-anchor="middle" transform="rotate(-45 590.41 235.00)">28.10.2025</text><text x="669.04" y="235.00" font-size="9" fill="#c9d1d9" text-anchor="middle" transform="rotate(-45 669.04 235.00)">11.11.2025</text><text x="747.67" y="235.00" font-size="9" fill="#c9d1d9" text-anchor="middle" transform="rotate(-45 747.67 235.00)">24.11.2025</text><text x="826.30" y="235.00" font-size="9" fill="#c9d1d9" text-anchor="middle" transform="rotate(-45 826.30 235.00)">02.12.2025</text>
  </g>
</svg>