<svg xmlns="http://www.w3.org/2000/svg" width="900" height="290" style="font-family: -apple-system, BlinkMacSystemFont, 'Segoe UI', Helvetica, Arial, sans-serif;">
  <rect width="100%" height="100%" fill="#0d1117"/>
  <g>
    <line x1="40" y1="220.00" x2="860" y2="220.00" stroke="#30363d"/><text x="32" y="224.00" font-size="10" fill="#c9d1d9" text-anchor="end">0</text><line x1="40" y1="175.00" x2="860" y2="175.00" stroke="#30363d"/><text x="32" y="179.00" font-size="10" fill="#c9d1d9" text-anchor="end">500</text><line x1="40" y1="130.00" x2="860" y2="130.00" stroke="#30363d"/><text x="32" y="134.00" font-size="10" fill="#c9d1d9" text-anchor="end">1k</text><line x1="40" y1="85.00" x2="860" y2="85.00" stroke="#30363d"/><text x="32" y="89.00" font-size="10" fill="#c9d1d9" text-anchor="end">1.5k</text><line x1="40" y1="40.00" x2="860" y2="40.00" stroke="#30363d"/><text x="32" y="44.00" font-size="10" fill="#c9d1d9" text-anchor="end">2k</text>
    <line x1="40.00" y1="40" x2="40.00" y2="220" stroke="#30363d" opacity="0.5"/><line x1="117.68" y1="40" x2="117.68" y2="220" stroke="#30363d" opacity="0.5"/><line x1="195.37" y1="40" x2="195.37" y2="220" stroke="#30363d" opacity="0.5"/><line x1="273.05" y1="40" x2="273.05" y2="220" stroke="#30363d" opacity="0.5"/><line x1="350.74" y1="40" x2="350.74" y2="220" stroke="#30363d" opacity="0.5"/><line x1="428.42" y1="40" x2="428.42" y2="220" stroke="#30363d" opacity="0.5"/><line x1="506.11" y1="40" x2="506.11" y2="220" stroke="#30363d" opacity="0.5"/><line x1="583.79" y1="40" x2="583.79" y2="220" stroke="#30363d" opacity="0.5"/><line x1="661.47" y1="40" x2="661.47" y2="220" stroke="#30363d" opacity="0.5"/><line x1="739.16" y1="40" x2="739.16" y2="220" stroke="#30363d" opacity="0.5"/><line x1="816.84" y1="40" x2="816.84" y2="220" stroke="#30363d" opacity="0.5"/>
    <line x1="40" y1="220" x2="860" y2="220" stroke="#30363d"/>
    <line x1="40" y1="40"   x2="40"   y2="220" stroke="#30363d"/>
    <path d="M 40.00 166.63 L 48.63 166.00 L 57.26 166.00 L 65.89 121.18 L 74.53 115.78 L 83.16 115.78 L 91.79 112.00 L 100.42 108.22 L 109.05 108.22 L 117.68 108.22 L 126.32 108.22 L 134.95 108.22 L 143.58 108.22 L 152.21 108.22 L 160.84 108.22 L 169.47 108.22 L 178.11 108.22 L 186.74 108.22 L 195.37 108.22 L 204.00 108.22 L 212.63 108.22 L 221.26 108.22 L 229.89 109.21 L 238.53 109.12 L 247.16 108.76 L 255.79 108.76 L 264.42 108.76 L 273.05 108.76 L 281.68 108.76 L 290.32 108.76 L 298.95 108.76 L 307.58 108.76 L 316.21 108.76 L 324.84 108.76 L 333.47 108.76 L 342.11 108.76 L 350.74 108.76 L 359.37 108.76 L 368.00 108.76 L 376.63 108.76 L 385.26 108.76 L 393.89 108.76 L 402.53 108.76 L 411.16 108.76 L 419.79 108.76 L 428.42 108.76 L 437.05 108.76 L 445.68 108.76 L 454.32 108.76 L 462.95 108.76 L 471.58 108.76 L 480.21 108.76 L 488.84 108.76 L 497.47 108.76 L 506.11 108.76 L 514.74 108.76 L 523.37 108.76 L 532.00 108.76 L 540.63 108.76 L 549.26 108.76 L 557.89 108.76 L 566.53 108.76 L 575.16 108.76 L 583.79 108.76 L 592.42 108.76 L 601.05 108.76 L 609.68 108.76 L 618.32 108.76 L 626.95 108.76 L 635.58 108.76 L 644.21 108.76 L 652.84 108.76 L 661.47 108.76 L 670.11 108.76 L 678.74 108.76 L 687.37 108.76 L 696.00 108.76 L 704.63 108.76 L 713.26 108.76 L 721.89 108.76 L 730.53 108.76 L 739.16 108.76 L 747.79 108.76 L 756.42 108.76 L 765.05 108.76 L 773.68 108.76 L 782.32 108.76 L 790.95 108.76 L 799.58 108.76 L 808.21 108.76 L 816.84 108.76 L 825.47 108.76 L 834.11 108.76 L 842.74 108.76 L 851.37 108.76 L 860.00 108.76" fill="none" stroke="#3fb950" stroke-width="2"/>
    <circle cx="860.00" cy="108.76" r="3" fill="#3fb950"/>
    <text x="40.00" y="235.00" font-size="9" fill="#c9d1d9" text-anchor="middle" transform="rotate(-45 40.00 235.00)">28.08.2025</text><text x="117.68" y="235.00" font-size="9" fill="#c9d1d9" text-anchor="middle" transform="rotate(-45 117.68 235.00)">28.08.2025</text><text x="195.37" y="235.00" font-size="9" fill="#c9d1d9" text-anchor="middle" transform="rotate(-45 195.37 235.00)">28.08.2025</text><text x="273.05" y="235.00" font-size="9" fill="#c9d1d9" text-anchor="middle" transform="rotate(-45 273.05 235.00)">29.08.2025</text><text x="350.74" y="235.00" font-size="9" fill="#c9d1d9" text-anchor="middle" transform="rotate(-45 350.74 235.00)">07.09.2025</text><text x="428.42" y="235.00" font-size="9" fill="#c9d1d9" text-anchor="middle" transform="rotate(-45 428.42 235.00)">14.09.2025</text><text x="506.11" y="235.00" font-size="9" fill="#c9d1d9" text-anchor="middle" transform="rotate(-45 506.11 235.00)">19.09.2025</text><text x="583.79" y="235.00" font-size="9" fill="#c9d1d9" text-anchor="middle" transform="rotate(-45 583.79 235.00)">28.09.2025</text><text x="661.47" y="235.00" font-size="9" fill="#c9d1d9" text-anchor="middle" transform="rotate(-45 661.47 235.00)">07.10.2025</text><text x="739.16" y="235.00" font-size="9" fill="#c9d1d9" text-anchor="middle" transform="rotate(-45 739.16 235.00)">16.10.2025</text><text x="816.84" y="235.00" font-size="9" fill="#c9d1d9" text-anchor="middle" transform="rotate(-45 816.84 235.00)">25.10.2025</text>
  </g>
</svg>