<svg xmlns="http://www.w3.org/2000/svg" width="900" height="290" style="font-family: -apple-system, BlinkMacSystemFont, 'Segoe UI', Helvetica, Arial, sans-serif;">
  <rect width="100%" height="100%" fill="#0d1117"/>
  <g>
    <line x1="40" y1="220.00" x2="860" y2="220.00" stroke="#30363d"/><text x="32" y="224.00" font-size="10" fill="#c9d1d9" text-anchor="end">0</text><line x1="40" y1="175.00" x2="860" y2="175.00" stroke="#30363d"/><text x="32" y="179.00" font-size="10" fill="#c9d1d9" text-anchor="end">500</text><line x1="40" y1="130.00" x2="860" y2="130.00" stroke="#30363d"/><text x="32" y="134.00" font-size="10" fill="#c9d1d9" text-anchor="end">1k</text><line x1="40" y1="85.00" x2="860" y2="85.00" stroke="#30363d"/><text x="32" y="89.00" font-size="10" fill="#c9d1d9" text-anchor="end">1.5k</text><line x1="40" y1="40.00" x2="860" y2="40.00" stroke="#30363d"/><text x="32" y="44.00" font-size="10" fill="#c9d1d9" text-anchor="end">2k</text>
    <line x1="40.00" y1="40" x2="40.00" y2="220" stroke="#30363d" opacity="0.5"/><line x1="119.35" y1="40" x2="119.35" y2="220" stroke="#30363d" opacity="0.5"/><line x1="198.71" y1="40" x2="198.71" y2="220" stroke="#30363d" opacity="0.5"/><line x1="278.06" y1="40" x2="278.06" y2="220" stroke="#30363d" opacity="0.5"/><line x1="357.42" y1="40" x2="357.42" y2="220" stroke="#30363d" opacity="0.5"/><line x1="436.77" y1="40" x2="436.77" y2="220" stroke="#30363d" opacity="0.5"/><line x1="516.13" y1="40" x2="516.13" y2="220" stroke="#30363d" opacity="0.5"/><line x1="595.48" y1="40" x2="595.48" y2="220" stroke="#30363d" opacity="0.5"/><line x1="674.84" y1="40" x2="674.84" y2="220" stroke="#30363d" opacity="0.5"/><line x1="754.19" y1="40" x2="754.19" y2="220" stroke="#30363d" opacity="0.5"/><line x1="833.55" y1="40" x2="833.55" y2="220" stroke="#30363d" opacity="0.5"/>
    <line x1="40" y1="220" x2="860" y2="220" stroke="#30363d"/>
    <line x1="40" y1="40"   x2="40"   y2="220" stroke="#30363d"/>
    <path d="M 40.00 166.63 L 48.82 166.00 L 57.63 166.00 L 66.45 121.18 L 75.27 115.78 L 84.09 115.78 L 92.90 112.00 L 101.72 108.22 L 110.54 108.22 L 119.35 108.22 L 128.17 108.22 L 136.99 108.22 L 145.81 108.22 L 154.62 108.22 L 163.44 108.22 L 172.26 108.22 L 181.08 108.22 L 189.89 108.22 L 198.71 108.22 L 207.53 108.22 L 216.34 108.22 L 225.16 108.22 L 233.98 109.21 L 242.80 109.12 L 251.61 108.76 L 260.43 108.76 L 269.25 108.76 L 278.06 108.76 L 286.88 108.76 L 295.70 108.76 L 304.52 108.76 L 313.33 108.76 L 322.15 108.76 L 330.97 108.76 L 339.78 108.76 L 348.60 108.76 L 357.42 108.76 L 366.24 108.76 L 375.05 108.76 L 383.87 108.76 L 392.69 108.76 L 401.51 108.76 L 410.32 108.76 L 419.14 108.76 L 427.96 108.76 L 436.77 108.76 L 445.59 108.76 L 454.41 108.76 L 463.23 108.76 L 472.04 108.76 L 480.86 108.76 L 489.68 108.76 L 498.49 108.76 L 507.31 108.76 L 516.13 108.76 L 524.95 108.76 L 533.76 108.76 L 542.58 108.76 L 551.40 108.76 L 560.22 108.76 L 569.03 108.76 L 577.85 108.76 L 586.67 108.76 L 595.48 108.76 L 604.30 108.76 L 613.12 108.76 L 621.94 108.76 L 630.75 108.76 L 639.57 108.76 L 648.39 108.76 L 657.20 108.76 L 666.02 108.76 L 674.84 108.76 L 683.66 108.76 L 692.47 108.76 L 701.29 108.76 L 710.11 108.76 L 718.92 108.76 L 727.74 108.76 L 736.56 108.76 L 745.38 108.76 L 754.19 108.76 L 763.01 108.76 L 771.83 108.76 L 780.65 108.76 L 789.46 108.76 L 798.28 108.76 L 807.10 108.76 L 815.91 108.76 L 824.73 108.76 L 833.55 108.76 L 842.37 108.76 L 851.18 108.76 L 860.00 108.76" fill="none" stroke="#3fb950" stroke-width="2"/>
    <circle cx="860.00" cy="108.76" r="3" fill="#3fb950"/>
    <text x="40.00" y="235.00" font-size="9" fill="#c9d1d9" text-anchor="middle" transform="rotate(-45 40.00 235.00)">28.08.2025</text><text x="119.35" y="235.00" font-size="9" fill="#c9d1d9" text-anchor="middle" transform="rotate(-45 119.35 235.00)">28.08.2025</text><text x="198.71" y="235.00" font-size="9" fill="#c9d1d9" text-anchor="middle" transform="rotate(-45 198.71 235.00)">28.08.2025</text><text x="278.06" y="235.00" font-size="9" fill="#c9d1d9" text-anchor="middle" transform="rotate(-45 278.06 235.00)">29.08.2025</text><text x="357.42" y="235.00" font-size="9" fill="#c9d1d9" text-anchor="middle" transform="rotate(-45 357.42 235.00)">07.09.2025</text><text x="436.77" y="235.00" font-size="9" fill="#c9d1d9" text-anchor="middle" transform="rotate(-45 436.77 235.00)">14.09.2025</text><text x="516.13" y="235.00" font-size="9" fill="#c9d1d9" text-anchor="middle" transform="rotate(-45 516.13 235.00)">19.09.2025</text><text x="595.48" y="235.00" font-size="9" fill="#c9d1d9" text-anchor="middle" transform="rotate(-45 595.48 235.00)">28.09.2025</text><text x="674.84" y="235.00" font-size="9" fill="#c9d1d9" text-anchor="middle" transform="rotate(-45 674.84 235.00)">07.10.2025</text><text x="754.19" y="235.00" font-size="9" fill="#c9d1d9" text-anchor="middle" transform="rotate(-45 754.19 235.00)">16.10.2025</text><text x="833.55" y="235.00" font-size="9" fill="#c9d1d9" text-anchor="middle" transform="rotate(-45 833.55 235.00)">25.10.2025</text>
  </g>
</svg>