<svg xmlns="http://www.w3.org/2000/svg" width="900" height="290" style="font-family: -apple-system, BlinkMacSystemFont, 'Segoe UI', Helvetica, Arial, sans-serif;">
  <rect width="100%" height="100%" fill="#0d1117"/>
  <g>
    <line x1="40" y1="220.00" x2="860" y2="220.00" stroke="#30363d"/><text x="32" y="224.00" font-size="10" fill="#c9d1d9" text-anchor="end">0</text><line x1="40" y1="175.00" x2="860" y2="175.00" stroke="#30363d"/><text x="32" y="179.00" font-size="10" fill="#c9d1d9" text-anchor="end">500</text><line x1="40" y1="130.00" x2="860" y2="130.00" stroke="#30363d"/><text x="32" y="134.00" font-size="10" fill="#c9d1d9" text-anchor="end">1k</text><line x1="40" y1="85.00" x2="860" y2="85.00" stroke="#30363d"/><text x="32" y="89.00" font-size="10" fill="#c9d1d9" text-anchor="end">1.5k</text><line x1="40" y1="40.00" x2="860" y2="40.00" stroke="#30363d"/><text x="32" y="44.00" font-size="10" fill="#c9d1d9" text-anchor="end">2k</text>
    <line x1="40.00" y1="40" x2="40.00" y2="220" stroke="#30363d" opacity="0.5"/><line x1="111.93" y1="40" x2="111.93" y2="220" stroke="#30363d" opacity="0.5"/><line x1="183.86" y1="40" x2="183.86" y2="220" stroke="#30363d" opacity="0.5"/><line x1="255.79" y1="40" x2="255.79" y2="220" stroke="#30363d" opacity="0.5"/><line x1="327.72" y1="40" x2="327.72" y2="220" stroke="#30363d" opacity="0.5"/><line x1="399.65" y1="40" x2="399.65" y2="220" stroke="#30363d" opacity="0.5"/><line x1="471.58" y1="40" x2="471.58" y2="220" stroke="#30363d" opacity="0.5"/><line x1="543.51" y1="40" x2="543.51" y2="220" stroke="#30363d" opacity="0.5"/><line x1="615.44" y1="40" x2="615.44" y2="220" stroke="#30363d" opacity="0.5"/><line x1="687.37" y1="40" x2="687.37" y2="220" stroke="#30363d" opacity="0.5"/><line x1="759.30" y1="40" x2="759.30" y2="220" stroke="#30363d" opacity="0.5"/><line x1="831.23" y1="40" x2="831.23" y2="220" stroke="#30363d" opacity="0.5"/>
    <line x1="40" y1="220" x2="860" y2="220" stroke="#30363d"/>
    <line x1="40" y1="40"   x2="40"   y2="220" stroke="#30363d"/>
    <path d="M 40.00 166.63 L 54.39 166.00 L 68.77 166.00 L 83.16 121.18 L 97.54 115.78 L 111.93 115.78 L 126.32 112.00 L 140.70 108.22 L 155.09 108.22 L 169.47 108.22 L 183.86 108.22 L 198.25 108.22 L 212.63 108.22 L 227.02 108.22 L 241.40 108.22 L 255.79 108.22 L 270.18 108.22 L 284.56 108.22 L 298.95 108.22 L 313.33 108.22 L 327.72 108.22 L 342.11 108.22 L 356.49 109.21 L 370.88 109.12 L 385.26 108.76 L 399.65 108.76 L 414.04 108.76 L 428.42 108.76 L 442.81 108.76 L 457.19 108.76 L 471.58 108.76 L 485.96 108.76 L 500.35 108.76 L 514.74 108.76 L 529.12 108.76 L 543.51 108.76 L 557.89 108.76 L 572.28 108.76 L 586.67 108.76 L 601.05 108.76 L 615.44 108.76 L 629.82 108.76 L 644.21 108.76 L 658.60 108.76 L 672.98 108.76 L 687.37 108.76 L 701.75 108.76 L 716.14 108.76 L 730.53 108.76 L 744.91 108.76 L 759.30 108.76 L 773.68 108.76 L 788.07 108.76 L 802.46 108.76 L 816.84 108.76 L 831.23 108.76 L 845.61 108.76 L 860.00 108.76" fill="none" stroke="#3fb950" stroke-width="2"/>
    <circle cx="860.00" cy="108.76" r="3" fill="#3fb950"/>
    <text x="40.00" y="235.00" font-size="9" fill="#c9d1d9" text-anchor="middle" transform="rotate(-45 40.00 235.00)">28.08.2025</text><text x="111.93" y="235.00" font-size="9" fill="#c9d1d9" text-anchor="middle" transform="rotate(-45 111.93 235.00)">28.08.2025</text><text x="183.86" y="235.00" font-size="9" fill="#c9d1d9" text-anchor="middle" transform="rotate(-45 183.86 235.00)">28.08.2025</text><text x="255.79" y="235.00" font-size="9" fill="#c9d1d9" text-anchor="middle" transform="rotate(-45 255.79 235.00)">28.08.2025</text><text x="327.72" y="235.00" font-size="9" fill="#c9d1d9" text-anchor="middle" transform="rotate(-45 327.72 235.00)">28.08.2025</text><text x="399.65" y="235.00" font-size="9" fill="#c9d1d9" text-anchor="middle" transform="rotate(-45 399.65 235.00)">28.08.2025</text><text x="471.58" y="235.00" font-size="9" fill="#c9d1d9" text-anchor="middle" transform="rotate(-45 471.58 235.00)">01.09.2025</text><text x="543.51" y="235.00" font-size="9" fill="#c9d1d9" text-anchor="middle" transform="rotate(-45 543.51 235.00)">06.09.2025</text><text x="615.44" y="235.00" font-size="9" fill="#c9d1d9" text-anchor="middle" transform="rotate(-45 615.44 235.00)">09.09.2025</text><text x="687.37" y="235.00" font-size="9" fill="#c9d1d9" text-anchor="middle" transform="rotate(-45 687.37 235.00)">14.09.2025</text><text x="759.30" y="235.00" font-size="9" fill="#c9d1d9" text-anchor="middle" transform="rotate(-45 759.30 235.00)">15.09.2025</text><text x="831.23" y="235.00" font-size="9" fill="#c9d1d9" text-anchor="middle" transform="rotate(-45 831.23 235.00)">20.09.2025</text>
  </g>
</svg>