<svg xmlns="http://www.w3.org/2000/svg" width="900" height="290" style="font-family: -apple-system, BlinkMacSystemFont, 'Segoe UI', Helvetica, Arial, sans-serif;">
  <rect width="100%" height="100%" fill="#0d1117"/>
  <g>
    <line x1="40" y1="220.00" x2="860" y2="220.00" stroke="#30363d"/><text x="32" y="224.00" font-size="10" fill="#c9d1d9" text-anchor="end">0</text><line x1="40" y1="175.00" x2="860" y2="175.00" stroke="#30363d"/><text x="32" y="179.00" font-size="10" fill="#c9d1d9" text-anchor="end">500</text><line x1="40" y1="130.00" x2="860" y2="130.00" stroke="#30363d"/><text x="32" y="134.00" font-size="10" fill="#c9d1d9" text-anchor="end">1k</text><line x1="40" y1="85.00" x2="860" y2="85.00" stroke="#30363d"/><text x="32" y="89.00" font-size="10" fill="#c9d1d9" text-anchor="end">1.5k</text><line x1="40" y1="40.00" x2="860" y2="40.00" stroke="#30363d"/><text x="32" y="44.00" font-size="10" fill="#c9d1d9" text-anchor="end">2k</text>
    <line x1="40.00" y1="40" x2="40.00" y2="220" stroke="#30363d" opacity="0.5"/><line x1="118.38" y1="40" x2="118.38" y2="220" stroke="#30363d" opacity="0.5"/><line x1="196.76" y1="40" x2="196.76" y2="220" stroke="#30363d" opacity="0.5"/><line x1="275.15" y1="40" x2="275.15" y2="220" stroke="#30363d" opacity="0.5"/><line x1="353.53" y1="40" x2="353.53" y2="220" stroke="#30363d" opacity="0.5"/><line x1="431.91" y1="40" x2="431.91" y2="220" stroke="#30363d" opacity="0.5"/><line x1="510.29" y1="40" x2="510.29" y2="220" stroke="#30363d" opacity="0.5"/><line x1="588.68" y1="40" x2="588.68" y2="220" stroke="#30363d" opacity="0.5"/><line x1="667.06" y1="40" x2="667.06" y2="220" stroke="#30363d" opacity="0.5"/><line x1="745.44" y1="40" x2="745.44" y2="220" stroke="#30363d" opacity="0.5"/><line x1="823.82" y1="40" x2="823.82" y2="220" stroke="#30363d" opacity="0.5"/>
    <line x1="40" y1="220" x2="860" y2="220" stroke="#30363d"/>
    <line x1="40" y1="40"   x2="40"   y2="220" stroke="#30363d"/>
    <path d="M 40.00 166.63 L 46.03 166.00 L 52.06 166.00 L 58.09 121.18 L 64.12 115.78 L 70.15 115.78 L 76.18 112.00 L 82.21 108.22 L 88.24 108.22 L 94.26 108.22 L 100.29 108.22 L 106.32 108.22 L 112.35 108.22 L 118.38 108.22 L 124.41 108.22 L 130.44 108.22 L 136.47 108.22 L 142.50 108.22 L 148.53 108.22 L 154.56 108.22 L 160.59 108.22 L 166.62 108.22 L 172.65 109.21 L 178.68 109.12 L 184.71 108.76 L 190.74 108.76 L 196.76 108.76 L 202.79 108.76 L 208.82 108.76 L 214.85 108.76 L 220.88 108.76 L 226.91 108.76 L 232.94 108.76 L 238.97 108.76 L 245.00 108.76 L 251.03 108.76 L 257.06 108.76 L 263.09 108.76 L 269.12 108.76 L 275.15 108.76 L 281.18 108.76 L 287.21 108.76 L 293.24 108.76 L 299.26 108.76 L 305.29 108.76 L 311.32 108.76 L 317.35 108.76 L 323.38 108.76 L 329.41 108.76 L 335.44 108.76 L 341.47 108.76 L 347.50 108.76 L 353.53 108.76 L 359.56 108.76 L 365.59 108.76 L 371.62 108.76 L 377.65 108.76 L 383.68 108.76 L 389.71 108.76 L 395.74 108.76 L 401.76 108.76 L 407.79 108.76 L 413.82 108.76 L 419.85 108.76 L 425.88 108.76 L 431.91 108.76 L 437.94 108.76 L 443.97 108.76 L 450.00 108.76 L 456.03 108.76 L 462.06 108.76 L 468.09 108.76 L 474.12 108.76 L 480.15 108.76 L 486.18 108.76 L 492.21 108.76 L 498.24 108.76 L 504.26 108.76 L 510.29 108.76 L 516.32 108.76 L 522.35 108.76 L 528.38 108.76 L 534.41 108.76 L 540.44 108.76 L 546.47 108.76 L 552.50 108.76 L 558.53 108.76 L 564.56 108.76 L 570.59 108.76 L 576.62 108.76 L 582.65 108.76 L 588.68 108.76 L 594.71 108.76 L 600.74 108.76 L 606.76 108.76 L 612.79 108.76 L 618.82 108.76 L 624.85 108.76 L 630.88 108.76 L 636.91 108.76 L 642.94 108.76 L 648.97 108.76 L 655.00 108.76 L 661.03 108.76 L 667.06 108.76 L 673.09 108.76 L 679.12 108.76 L 685.15 108.76 L 691.18 108.76 L 697.21 108.76 L 703.24 108.76 L 709.26 108.76 L 715.29 108.76 L 721.32 108.76 L 727.35 108.76 L 733.38 108.76 L 739.41 108.76 L 745.44 108.76 L 751.47 108.76 L 757.50 108.76 L 763.53 108.76 L 769.56 108.76 L 775.59 108.76 L 781.62 108.76 L 787.65 108.76 L 793.68 108.76 L 799.71 108.76 L 805.74 108.76 L 811.76 108.76 L 817.79 108.76 L 823.82 108.76 L 829.85 108.76 L 835.88 108.76 L 841.91 108.76 L 847.94 108.76 L 853.97 108.76 L 860.00 108.76" fill="none" stroke="#3fb950" stroke-width="2"/>
    <circle cx="860.00" cy="108.76" r="3" fill="#3fb950"/>
    <text x="40.00" y="235.00" font-size="9" fill="#c9d1d9" text-anchor="middle" transform="rotate(-45 40.00 235.00)">28.08.2025</text><text x="118.38" y="235.00" font-size="9" fill="#c9d1d9" text-anchor="middle" transform="rotate(-45 118.38 235.00)">28.08.2025</text><text x="196.76" y="235.00" font-size="9" fill="#c9d1d9" text-anchor="middle" transform="rotate(-45 196.76 235.00)">28.08.2025</text><text x="275.15" y="235.00" font-size="9" fill="#c9d1d9" text-anchor="middle" transform="rotate(-45 275.15 235.00)">08.09.2025</text><text x="353.53" y="235.00" font-size="9" fill="#c9d1d9" text-anchor="middle" transform="rotate(-45 353.53 235.00)">15.09.2025</text><text x="431.91" y="235.00" font-size="9" fill="#c9d1d9" text-anchor="middle" transform="rotate(-45 431.91 235.00)">28.09.2025</text><text x="510.29" y="235.00" font-size="9" fill="#c9d1d9" text-anchor="middle" transform="rotate(-45 510.29 235.00)">10.10.2025</text><text x="588.68" y="235.00" font-size="9" fill="#c9d1d9" text-anchor="middle" transform="rotate(-45 588.68 235.00)">23.10.2025</text><text x="667.06" y="235.00" font-size="9" fill="#c9d1d9" text-anchor="middle" transform="rotate(-45 667.06 235.00)">03.11.2025</text><text x="745.44" y="235.00" font-size="9" fill="#c9d1d9" text-anchor="middle" transform="rotate(-45 745.44 235.00)">16.11.2025</text><text x="823.82" y="235.00" font-size="9" fill="#c9d1d9" text-anchor="middle" transform="rotate(-45 823.82 235.00)">28.11.2025</text>
  </g>
</svg>