<svg xmlns="http://www.w3.org/2000/svg" width="900" height="290" style="font-family: -apple-system, BlinkMacSystemFont, 'Segoe UI', Helvetica, Arial, sans-serif;">
  <rect width="100%" height="100%" fill="#0d1117"/>
  <g>
    <line x1="40" y1="220.00" x2="860" y2="220.00" stroke="#30363d"/><text x="32" y="224.00" font-size="10" fill="#c9d1d9" text-anchor="end">0</text><line x1="40" y1="175.00" x2="860" y2="175.00" stroke="#30363d"/><text x="32" y="179.00" font-size="10" fill="#c9d1d9" text-anchor="end">500</text><line x1="40" y1="130.00" x2="860" y2="130.00" stroke="#30363d"/><text x="32" y="134.00" font-size="10" fill="#c9d1d9" text-anchor="end">1k</text><line x1="40" y1="85.00" x2="860" y2="85.00" stroke="#30363d"/><text x="32" y="89.00" font-size="10" fill="#c9d1d9" text-anchor="end">1.5k</text><line x1="40" y1="40.00" x2="860" y2="40.00" stroke="#30363d"/><text x="32" y="44.00" font-size="10" fill="#c9d1d9" text-anchor="end">2k</text>
    <line x1="40.00" y1="40" x2="40.00" y2="220" stroke="#30363d" opacity="0.5"/><line x1="119.23" y1="40" x2="119.23" y2="220" stroke="#30363d" opacity="0.5"/><line x1="198.45" y1="40" x2="198.45" y2="220" stroke="#30363d" opacity="0.5"/><line x1="277.68" y1="40" x2="277.68" y2="220" stroke="#30363d" opacity="0.5"/><line x1="356.91" y1="40" x2="356.91" y2="220" stroke="#30363d" opacity="0.5"/><line x1="436.14" y1="40" x2="436.14" y2="220" stroke="#30363d" opacity="0.5"/><line x1="515.36" y1="40" x2="515.36" y2="220" stroke="#30363d" opacity="0.5"/><line x1="594.59" y1="40" x2="594.59" y2="220" stroke="#30363d" opacity="0.5"/><line x1="673.82" y1="40" x2="673.82" y2="220" stroke="#30363d" opacity="0.5"/><line x1="753.04" y1="40" x2="753.04" y2="220" stroke="#30363d" opacity="0.5"/><line x1="832.27" y1="40" x2="832.27" y2="220" stroke="#30363d" opacity="0.5"/>
    <line x1="40" y1="220" x2="860" y2="220" stroke="#30363d"/>
    <line x1="40" y1="40"   x2="40"   y2="220" stroke="#30363d"/>
    <path d="M 40.00 166.63 L 43.96 166.00 L 47.92 166.00 L 51.88 121.18 L 55.85 115.78 L 59.81 115.78 L 63.77 112.00 L 67.73 108.22 L 71.69 108.22 L 75.65 108.22 L 79.61 108.22 L 83.57 108.22 L 87.54 108.22 L 91.50 108.22 L 95.46 108.22 L 99.42 108.22 L 103.38 108.22 L 107.34 108.22 L 111.30 108.22 L 115.27 108.22 L 119.23 108.22 L 123.19 108.22 L 127.15 109.21 L 131.11 109.12 L 135.07 108.76 L 139.03 108.76 L 143.00 108.76 L 146.96 108.76 L 150.92 108.76 L 154.88 108.76 L 158.84 108.76 L 162.80 108.76 L 166.76 108.76 L 170.72 108.76 L 174.69 108.76 L 178.65 108.76 L 182.61 108.76 L 186.57 108.76 L 190.53 108.76 L 194.49 108.76 L 198.45 108.76 L 202.42 108.76 L 206.38 108.76 L 210.34 108.76 L 214.30 108.76 L 218.26 108.76 L 222.22 108.76 L 226.18 108.76 L 230.14 108.76 L 234.11 108.76 L 238.07 108.76 L 242.03 108.76 L 245.99 108.76 L 249.95 108.76 L 253.91 108.76 L 257.87 108.76 L 261.84 108.76 L 265.80 108.76 L 269.76 108.76 L 273.72 108.76 L 277.68 108.76 L 281.64 108.76 L 285.60 108.76 L 289.57 108.76 L 293.53 108.76 L 297.49 108.76 L 301.45 108.76 L 305.41 108.76 L 309.37 108.76 L 313.33 108.76 L 317.29 108.76 L 321.26 108.76 L 325.22 108.76 L 329.18 108.76 L 333.14 108.76 L 337.10 108.76 L 341.06 108.76 L 345.02 108.76 L 348.99 108.76 L 352.95 108.76 L 356.91 108.76 L 360.87 108.76 L 364.83 108.76 L 368.79 108.76 L 372.75 108.76 L 376.71 108.76 L 380.68 108.76 L 384.64 108.76 L 388.60 108.76 L 392.56 108.76 L 396.52 108.76 L 400.48 108.76 L 404.44 108.76 L 408.41 108.76 L 412.37 108.76 L 416.33 108.76 L 420.29 108.76 L 424.25 108.76 L 428.21 108.76 L 432.17 108.76 L 436.14 108.76 L 440.10 108.76 L 444.06 108.76 L 448.02 108.76 L 451.98 108.76 L 455.94 108.76 L 459.90 108.76 L 463.86 108.76 L 467.83 108.76 L 471.79 108.76 L 475.75 108.76 L 479.71 108.76 L 483.67 108.76 L 487.63 108.76 L 491.59 108.76 L 495.56 108.76 L 499.52 108.76 L 503.48 108.76 L 507.44 108.76 L 511.40 108.76 L 515.36 108.76 L 519.32 108.76 L 523.29 108.76 L 527.25 108.76 L 531.21 108.76 L 535.17 108.76 L 539.13 108.76 L 543.09 108.76 L 547.05 108.76 L 551.01 108.76 L 554.98 108.76 L 558.94 108.76 L 562.90 108.76 L 566.86 108.76 L 570.82 108.76 L 574.78 108.76 L 578.74 108.76 L 582.71 108.76 L 586.67 108.76 L 590.63 108.76 L 594.59 108.76 L 598.55 108.76 L 602.51 108.76 L 606.47 108.94 L 610.43 100.39 L 614.40 81.40 L 618.36 81.40 L 622.32 81.40 L 626.28 81.40 L 630.24 81.40 L 634.20 70.78 L 638.16 70.78 L 642.13 70.78 L 646.09 70.78 L 650.05 70.78 L 654.01 70.78 L 657.97 70.78 L 661.93 70.78 L 665.89 70.78 L 669.86 70.78 L 673.82 70.78 L 677.78 70.78 L 681.74 70.78 L 685.70 70.78 L 689.66 70.78 L 693.62 70.78 L 697.58 70.78 L 701.55 70.78 L 705.51 70.78 L 709.47 70.78 L 713.43 70.78 L 717.39 70.78 L 721.35 70.78 L 725.31 70.78 L 729.28 70.78 L 733.24 70.78 L 737.20 70.78 L 741.16 70.78 L 745.12 70.78 L 749.08 70.78 L 753.04 70.78 L 757.00 70.78 L 760.97 70.78 L 764.93 70.78 L 768.89 70.78 L 772.85 70.78 L 776.81 70.78 L 780.77 70.78 L 784.73 70.78 L 788.70 70.78 L 792.66 70.78 L 796.62 70.78 L 800.58 70.78 L 804.54 70.78 L 808.50 70.78 L 812.46 70.78 L 816.43 70.78 L 820.39 70.78 L 824.35 70.78 L 828.31 70.78 L 832.27 70.78 L 836.23 70.78 L 840.19 70.78 L 844.15 70.78 L 848.12 70.78 L 852.08 70.78 L 856.04 70.78 L 860.00 70.78" fill="none" stroke="#3fb950" stroke-width="2"/>
    <circle cx="860.00" cy="70.78" r="3" fill="#3fb950"/>
    <text x="40.00" y="235.00" font-size="9" fill="#c9d1d9" text-anchor="middle" transform="rotate(-45 40.00 235.00)">28.08.2025</text><text x="119.23" y="235.00" font-size="9" fill="#c9d1d9" text-anchor="middle" transform="rotate(-45 119.23 235.00)">28.08.2025</text><text x="198.45" y="235.00" font-size="9" fill="#c9d1d9" text-anchor="middle" transform="rotate(-45 198.45 235.00)">09.09.2025</text><text x="277.68" y="235.00" font-size="9" fill="#c9d1d9" text-anchor="middle" transform="rotate(-45 277.68 235.00)">23.09.2025</text><text x="356.91" y="235.00" font-size="9" fill="#c9d1d9" text-anchor="middle" transform="rotate(-45 356.91 235.00)">12.10.2025</text><text x="436.14" y="235.00" font-size="9" fill="#c9d1d9" text-anchor="middle" transform="rotate(-45 436.14 235.00)">30.10.2025</text><text x="515.36" y="235.00" font-size="9" fill="#c9d1d9" text-anchor="middle" transform="rotate(-45 515.36 235.00)">19.11.2025</text><text x="594.59" y="235.00" font-size="9" fill="#c9d1d9" text-anchor="middle" transform="rotate(-45 594.59 235.00)">02.12.2025</text><text x="673.82" y="235.00" font-size="9" fill="#c9d1d9" text-anchor="middle" transform="rotate(-45 673.82 235.00)">12.12.2025</text><text x="753.04" y="235.00" font-size="9" fill="#c9d1d9" text-anchor="middle" transform="rotate(-45 753.04 235.00)">30.12.2025</text><text x="832.27" y="235.00" font-size="9" fill="#c9d1d9" text-anchor="middle" transform="rotate(-45 832.27 235.00)">17.01.2026</text>
  </g>
</svg>