<svg xmlns="http://www.w3.org/2000/svg" width="900" height="290" style="font-family: -apple-system, BlinkMacSystemFont, 'Segoe UI', Helvetica, Arial, sans-serif;">
  <rect width="100%" height="100%" fill="white"/>
  <g>
    <line x1="40" y1="220.00" x2="860" y2="220.00" stroke="#e5e7eb"/><text x="32" y="224.00" font-size="10" fill="#111827" text-anchor="end">0</text><line x1="40" y1="175.00" x2="860" y2="175.00" stroke="#e5e7eb"/><text x="32" y="179.00" font-size="10" fill="#111827" text-anchor="end">500</text><line x1="40" y1="130.00" x2="860" y2="130.00" stroke="#e5e7eb"/><text x="32" y="134.00" font-size="10" fill="#111827" text-anchor="end">1k</text><line x1="40" y1="85.00" x2="860" y2="85.00" stroke="#e5e7eb"/><text x="32" y="89.00" font-size="10" fill="#111827" text-anchor="end">1.5k</text><line x1="40" y1="40.00" x2="860" y2="40.00" stroke="#e5e7eb"/><text x="32" y="44.00" font-size="10" fill="#111827" text-anchor="end">2k</text>
    <line x1="40.00" y1="40" x2="40.00" y2="220" stroke="#e5e7eb" opacity="0.5"/><line x1="116.53" y1="40" x2="116.53" y2="220" stroke="#e5e7eb" opacity="0.5"/><line x1="193.07" y1="40" x2="193.07" y2="220" stroke="#e5e7eb" opacity="0.5"/><line x1="269.60" y1="40" x2="269.60" y2="220" stroke="#e5e7eb" opacity="0.5"/><line x1="346.13" y1="40" x2="346.13" y2="220" stroke="#e5e7eb" opacity="0.5"/><line x1="422.67" y1="40" x2="422.67" y2="220" stroke="#e5e7eb" opacity="0.5"/><line x1="499.20" y1="40" x2="499.20" y2="220" stroke="#e5e7eb" opacity="0.5"/><line x1="575.73" y1="40" x2="575.73" y2="220" stroke="#e5e7eb" opacity="0.5"/><line x1="652.27" y1="40" x2="652.27" y2="220" stroke="#e5e7eb" opacity="0.5"/><line x1="728.80" y1="40" x2="728.80" y2="220" stroke="#e5e7eb" opacity="0.5"/><line x1="805.33" y1="40" x2="805.33" y2="220" stroke="#e5e7eb" opacity="0.5"/>
    <line x1="40" y1="220" x2="860" y2="220" stroke="#9ca3af"/>
    <line x1="40" y1="40"   x2="40"   y2="220" stroke="#9ca3af"/>
    <path d="M 40.00 166.63 L 50.93 166.00 L 61.87 166.00 L 72.80 121.18 L 83.73 115.78 L 94.67 115.78 L 105.60 112.00 L 116.53 108.22 L 127.47 108.22 L 138.40 108.22 L 149.33 108.22 L 160.27 108.22 L 171.20 108.22 L 182.13 108.22 L 193.07 108.22 L 204.00 108.22 L 214.93 108.22 L 225.87 108.22 L 236.80 108.22 L 247.73 108.22 L 258.67 108.22 L 269.60 108.22 L 280.53 109.21 L 291.47 109.12 L 302.40 108.76 L 313.33 108.76 L 324.27 108.76 L 335.20 108.76 L 346.13 108.76 L 357.07 108.76 L 368.00 108.76 L 378.93 108.76 L 389.87 108.76 L 400.80 108.76 L 411.73 108.76 L 422.67 108.76 L 433.60 108.76 L 444.53 108.76 L 455.47 108.76 L 466.40 108.76 L 477.33 108.76 L 488.27 108.76 L 499.20 108.76 L 510.13 108.76 L 521.07 108.76 L 532.00 108.76 L 542.93 108.76 L 553.87 108.76 L 564.80 108.76 L 575.73 108.76 L 586.67 108.76 L 597.60 108.76 L 608.53 108.76 L 619.47 108.76 L 630.40 108.76 L 641.33 108.76 L 652.27 108.76 L 663.20 108.76 L 674.13 108.76 L 685.07 108.76 L 696.00 108.76 L 706.93 108.76 L 717.87 108.76 L 728.80 108.76 L 739.73 108.76 L 750.67 108.76 L 761.60 108.76 L 772.53 108.76 L 783.47 108.76 L 794.40 108.76 L 805.33 108.76 L 816.27 108.76 L 827.20 108.76 L 838.13 108.76 L 849.07 108.76 L 860.00 108.76" fill="none" stroke="#111827" stroke-width="2"/>
    <circle cx="860.00" cy="108.76" r="3" fill="#111827"/>
    <text x="40.00" y="235.00" font-size="9" fill="#111827" text-anchor="middle" transform="rotate(-45 40.00 235.00)">28.08.2025</text><text x="116.53" y="235.00" font-size="9" fill="#111827" text-anchor="middle" transform="rotate(-45 116.53 235.00)">28.08.2025</text><text x="193.07" y="235.00" font-size="9" fill="#111827" text-anchor="middle" transform="rotate(-45 193.07 235.00)">28.08.2025</text><text x="269.60" y="235.00" font-size="9" fill="#111827" text-anchor="middle" transform="rotate(-45 269.60 235.00)">28.08.2025</text><text x="346.13" y="235.00" font-size="9" fill="#111827" text-anchor="middle" transform="rotate(-45 346.13 235.00)">30.08.2025</text><text x="422.67" y="235.00" font-size="9" fill="#111827" text-anchor="middle" transform="rotate(-45 422.67 235.00)">06.09.2025</text><text x="499.20" y="235.00" font-size="9" fill="#111827" text-anchor="middle" transform="rotate(-45 499.20 235.00)">11.09.2025</text><text x="575.73" y="235.00" font-size="9" fill="#111827" text-anchor="middle" transform="rotate(-45 575.73 235.00)">15.09.2025</text><text x="652.27" y="235.00" font-size="9" fill="#111827" text-anchor="middle" transform="rotate(-45 652.27 235.00)">21.09.2025</text><text x="728.80" y="235.00" font-size="9" fill="#111827" text-anchor="middle" transform="rotate(-45 728.80 235.00)">28.09.2025</text><text x="805.33" y="235.00" font-size="9" fill="#111827" text-anchor="middle" transform="rotate(-45 805.33 235.00)">05.10.2025</text>
  </g>
</svg>