<svg xmlns="http://www.w3.org/2000/svg" width="900" height="290" style="font-family: -apple-system, BlinkMacSystemFont, 'Segoe UI', Helvetica, Arial, sans-serif;">
  <rect width="100%" height="100%" fill="white"/>
  <g>
    <line x1="40" y1="220.00" x2="860" y2="220.00" stroke="#e5e7eb"/><text x="32" y="224.00" font-size="10" fill="#111827" text-anchor="end">0</text><line x1="40" y1="175.00" x2="860" y2="175.00" stroke="#e5e7eb"/><text x="32" y="179.00" font-size="10" fill="#111827" text-anchor="end">500</text><line x1="40" y1="130.00" x2="860" y2="130.00" stroke="#e5e7eb"/><text x="32" y="134.00" font-size="10" fill="#111827" text-anchor="end">1k</text><line x1="40" y1="85.00" x2="860" y2="85.00" stroke="#e5e7eb"/><text x="32" y="89.00" font-size="10" fill="#111827" text-anchor="end">1.5k</text><line x1="40" y1="40.00" x2="860" y2="40.00" stroke="#e5e7eb"/><text x="32" y="44.00" font-size="10" fill="#111827" text-anchor="end">2k</text>
    <line x1="40.00" y1="40" x2="40.00" y2="220" stroke="#e5e7eb" opacity="0.5"/><line x1="119.72" y1="40" x2="119.72" y2="220" stroke="#e5e7eb" opacity="0.5"/><line x1="199.44" y1="40" x2="199.44" y2="220" stroke="#e5e7eb" opacity="0.5"/><line x1="279.17" y1="40" x2="279.17" y2="220" stroke="#e5e7eb" opacity="0.5"/><line x1="358.89" y1="40" x2="358.89" y2="220" stroke="#e5e7eb" opacity="0.5"/><line x1="438.61" y1="40" x2="438.61" y2="220" stroke="#e5e7eb" opacity="0.5"/><line x1="518.33" y1="40" x2="518.33" y2="220" stroke="#e5e7eb" opacity="0.5"/><line x1="598.06" y1="40" x2="598.06" y2="220" stroke="#e5e7eb" opacity="0.5"/><line x1="677.78" y1="40" x2="677.78" y2="220" stroke="#e5e7eb" opacity="0.5"/><line x1="757.50" y1="40" x2="757.50" y2="220" stroke="#e5e7eb" opacity="0.5"/><line x1="837.22" y1="40" x2="837.22" y2="220" stroke="#e5e7eb" opacity="0.5"/>
    <line x1="40" y1="220" x2="860" y2="220" stroke="#9ca3af"/>
    <line x1="40" y1="40"   x2="40"   y2="220" stroke="#9ca3af"/>
    <path d="M 40.00 166.63 L 51.39 166.00 L 62.78 166.00 L 74.17 121.18 L 85.56 115.78 L 96.94 115.78 L 108.33 112.00 L 119.72 108.22 L 131.11 108.22 L 142.50 108.22 L 153.89 108.22 L 165.28 108.22 L 176.67 108.22 L 188.06 108.22 L 199.44 108.22 L 210.83 108.22 L 222.22 108.22 L 233.61 108.22 L 245.00 108.22 L 256.39 108.22 L 267.78 108.22 L 279.17 108.22 L 290.56 109.21 L 301.94 109.12 L 313.33 108.76 L 324.72 108.76 L 336.11 108.76 L 347.50 108.76 L 358.89 108.76 L 370.28 108.76 L 381.67 108.76 L 393.06 108.76 L 404.44 108.76 L 415.83 108.76 L 427.22 108.76 L 438.61 108.76 L 450.00 108.76 L 461.39 108.76 L 472.78 108.76 L 484.17 108.76 L 495.56 108.76 L 506.94 108.76 L 518.33 108.76 L 529.72 108.76 L 541.11 108.76 L 552.50 108.76 L 563.89 108.76 L 575.28 108.76 L 586.67 108.76 L 598.06 108.76 L 609.44 108.76 L 620.83 108.76 L 632.22 108.76 L 643.61 108.76 L 655.00 108.76 L 666.39 108.76 L 677.78 108.76 L 689.17 108.76 L 700.56 108.76 L 711.94 108.76 L 723.33 108.76 L 734.72 108.76 L 746.11 108.76 L 757.50 108.76 L 768.89 108.76 L 780.28 108.76 L 791.67 108.76 L 803.06 108.76 L 814.44 108.76 L 825.83 108.76 L 837.22 108.76 L 848.61 108.76 L 860.00 108.76" fill="none" stroke="#111827" stroke-width="2"/>
    <circle cx="860.00" cy="108.76" r="3" fill="#111827"/>
    <text x="40.00" y="235.00" font-size="9" fill="#111827" text-anchor="middle" transform="rotate(-45 40.00 235.00)">28.08.2025</text><text x="119.72" y="235.00" font-size="9" fill="#111827" text-anchor="middle" transform="rotate(-45 119.72 235.00)">28.08.2025</text><text x="199.44" y="235.00" font-size="9" fill="#111827" text-anchor="middle" transform="rotate(-45 199.44 235.00)">28.08.2025</text><text x="279.17" y="235.00" font-size="9" fill="#111827" text-anchor="middle" transform="rotate(-45 279.17 235.00)">28.08.2025</text><text x="358.89" y="235.00" font-size="9" fill="#111827" text-anchor="middle" transform="rotate(-45 358.89 235.00)">30.08.2025</text><text x="438.61" y="235.00" font-size="9" fill="#111827" text-anchor="middle" transform="rotate(-45 438.61 235.00)">06.09.2025</text><text x="518.33" y="235.00" font-size="9" fill="#111827" text-anchor="middle" transform="rotate(-45 518.33 235.00)">11.09.2025</text><text x="598.06" y="235.00" font-size="9" fill="#111827" text-anchor="middle" transform="rotate(-45 598.06 235.00)">15.09.2025</text><text x="677.78" y="235.00" font-size="9" fill="#111827" text-anchor="middle" transform="rotate(-45 677.78 235.00)">21.09.2025</text><text x="757.50" y="235.00" font-size="9" fill="#111827" text-anchor="middle" transform="rotate(-45 757.50 235.00)">28.09.2025</text><text x="837.22" y="235.00" font-size="9" fill="#111827" text-anchor="middle" transform="rotate(-45 837.22 235.00)">05.10.2025</text>
  </g>
</svg>