<svg xmlns="http://www.w3.org/2000/svg" width="900" height="290" style="font-family: -apple-system, BlinkMacSystemFont, 'Segoe UI', Helvetica, Arial, sans-serif;">
  <rect width="100%" height="100%" fill="white"/>
  <g>
    <line x1="40" y1="220.00" x2="860" y2="220.00" stroke="#e5e7eb"/><text x="32" y="224.00" font-size="10" fill="#111827" text-anchor="end">0</text><line x1="40" y1="175.00" x2="860" y2="175.00" stroke="#e5e7eb"/><text x="32" y="179.00" font-size="10" fill="#111827" text-anchor="end">500</text><line x1="40" y1="130.00" x2="860" y2="130.00" stroke="#e5e7eb"/><text x="32" y="134.00" font-size="10" fill="#111827" text-anchor="end">1k</text><line x1="40" y1="85.00" x2="860" y2="85.00" stroke="#e5e7eb"/><text x="32" y="89.00" font-size="10" fill="#111827" text-anchor="end">1.5k</text><line x1="40" y1="40.00" x2="860" y2="40.00" stroke="#e5e7eb"/><text x="32" y="44.00" font-size="10" fill="#111827" text-anchor="end">2k</text>
    <line x1="40.00" y1="40" x2="40.00" y2="220" stroke="#e5e7eb" opacity="0.5"/><line x1="123.19" y1="40" x2="123.19" y2="220" stroke="#e5e7eb" opacity="0.5"/><line x1="206.38" y1="40" x2="206.38" y2="220" stroke="#e5e7eb" opacity="0.5"/><line x1="289.57" y1="40" x2="289.57" y2="220" stroke="#e5e7eb" opacity="0.5"/><line x1="372.75" y1="40" x2="372.75" y2="220" stroke="#e5e7eb" opacity="0.5"/><line x1="455.94" y1="40" x2="455.94" y2="220" stroke="#e5e7eb" opacity="0.5"/><line x1="539.13" y1="40" x2="539.13" y2="220" stroke="#e5e7eb" opacity="0.5"/><line x1="622.32" y1="40" x2="622.32" y2="220" stroke="#e5e7eb" opacity="0.5"/><line x1="705.51" y1="40" x2="705.51" y2="220" stroke="#e5e7eb" opacity="0.5"/><line x1="788.70" y1="40" x2="788.70" y2="220" stroke="#e5e7eb" opacity="0.5"/>
    <line x1="40" y1="220" x2="860" y2="220" stroke="#9ca3af"/>
    <line x1="40" y1="40"   x2="40"   y2="220" stroke="#9ca3af"/>
    <path d="M 40.00 166.63 L 51.88 166.00 L 63.77 166.00 L 75.65 121.18 L 87.54 115.78 L 99.42 115.78 L 111.30 112.00 L 123.19 108.22 L 135.07 108.22 L 146.96 108.22 L 158.84 108.22 L 170.72 108.22 L 182.61 108.22 L 194.49 108.22 L 206.38 108.22 L 218.26 108.22 L 230.14 108.22 L 242.03 108.22 L 253.91 108.22 L 265.80 108.22 L 277.68 108.22 L 289.57 108.22 L 301.45 109.21 L 313.33 109.12 L 325.22 108.76 L 337.10 108.76 L 348.99 108.76 L 360.87 108.76 L 372.75 108.76 L 384.64 108.76 L 396.52 108.76 L 408.41 108.76 L 420.29 108.76 L 432.17 108.76 L 444.06 108.76 L 455.94 108.76 L 467.83 108.76 L 479.71 108.76 L 491.59 108.76 L 503.48 108.76 L 515.36 108.76 L 527.25 108.76 L 539.13 108.76 L 551.01 108.76 L 562.90 108.76 L 574.78 108.76 L 586.67 108.76 L 598.55 108.76 L 610.43 108.76 L 622.32 108.76 L 634.20 108.76 L 646.09 108.76 L 657.97 108.76 L 669.86 108.76 L 681.74 108.76 L 693.62 108.76 L 705.51 108.76 L 717.39 108.76 L 729.28 108.76 L 741.16 108.76 L 753.04 108.76 L 764.93 108.76 L 776.81 108.76 L 788.70 108.76 L 800.58 108.76 L 812.46 108.76 L 824.35 108.76 L 836.23 108.76 L 848.12 108.76 L 860.00 108.76" fill="none" stroke="#111827" stroke-width="2"/>
    <circle cx="860.00" cy="108.76" r="3" fill="#111827"/>
    <text x="40.00" y="235.00" font-size="9" fill="#111827" text-anchor="middle" transform="rotate(-45 40.00 235.00)">28.08.2025</text><text x="123.19" y="235.00" font-size="9" fill="#111827" text-anchor="middle" transform="rotate(-45 123.19 235.00)">28.08.2025</text><text x="206.38" y="235.00" font-size="9" fill="#111827" text-anchor="middle" transform="rotate(-45 206.38 235.00)">28.08.2025</text><text x="289.57" y="235.00" font-size="9" fill="#111827" text-anchor="middle" transform="rotate(-45 289.57 235.00)">28.08.2025</text><text x="372.75" y="235.00" font-size="9" fill="#111827" text-anchor="middle" transform="rotate(-45 372.75 235.00)">30.08.2025</text><text x="455.94" y="235.00" font-size="9" fill="#111827" text-anchor="middle" transform="rotate(-45 455.94 235.00)">06.09.2025</text><text x="539.13" y="235.00" font-size="9" fill="#111827" text-anchor="middle" transform="rotate(-45 539.13 235.00)">11.09.2025</text><text x="622.32" y="235.00" font-size="9" fill="#111827" text-anchor="middle" transform="rotate(-45 622.32 235.00)">15.09.2025</text><text x="705.51" y="235.00" font-size="9" fill="#111827" text-anchor="middle" transform="rotate(-45 705.51 235.00)">21.09.2025</text><text x="788.70" y="235.00" font-size="9" fill="#111827" text-anchor="middle" transform="rotate(-45 788.70 235.00)">28.09.2025</text>
  </g>
</svg>