<svg xmlns="http://www.w3.org/2000/svg" width="900" height="290" style="font-family: -apple-system, BlinkMacSystemFont, 'Segoe UI', Helvetica, Arial, sans-serif;">
  <rect width="100%" height="100%" fill="white"/>
  <g>
    <line x1="40" y1="220.00" x2="860" y2="220.00" stroke="#e5e7eb"/><text x="32" y="224.00" font-size="10" fill="#111827" text-anchor="end">0</text><line x1="40" y1="175.00" x2="860" y2="175.00" stroke="#e5e7eb"/><text x="32" y="179.00" font-size="10" fill="#111827" text-anchor="end">500</text><line x1="40" y1="130.00" x2="860" y2="130.00" stroke="#e5e7eb"/><text x="32" y="134.00" font-size="10" fill="#111827" text-anchor="end">1k</text><line x1="40" y1="85.00" x2="860" y2="85.00" stroke="#e5e7eb"/><text x="32" y="89.00" font-size="10" fill="#111827" text-anchor="end">1.5k</text><line x1="40" y1="40.00" x2="860" y2="40.00" stroke="#e5e7eb"/><text x="32" y="44.00" font-size="10" fill="#111827" text-anchor="end">2k</text>
    <line x1="40.00" y1="40" x2="40.00" y2="220" stroke="#e5e7eb" opacity="0.5"/><line x1="122.00" y1="40" x2="122.00" y2="220" stroke="#e5e7eb" opacity="0.5"/><line x1="204.00" y1="40" x2="204.00" y2="220" stroke="#e5e7eb" opacity="0.5"/><line x1="286.00" y1="40" x2="286.00" y2="220" stroke="#e5e7eb" opacity="0.5"/><line x1="368.00" y1="40" x2="368.00" y2="220" stroke="#e5e7eb" opacity="0.5"/><line x1="450.00" y1="40" x2="450.00" y2="220" stroke="#e5e7eb" opacity="0.5"/><line x1="532.00" y1="40" x2="532.00" y2="220" stroke="#e5e7eb" opacity="0.5"/><line x1="614.00" y1="40" x2="614.00" y2="220" stroke="#e5e7eb" opacity="0.5"/><line x1="696.00" y1="40" x2="696.00" y2="220" stroke="#e5e7eb" opacity="0.5"/><line x1="778.00" y1="40" x2="778.00" y2="220" stroke="#e5e7eb" opacity="0.5"/><line x1="860.00" y1="40" x2="860.00" y2="220" stroke="#e5e7eb" opacity="0.5"/>
    <line x1="40" y1="220" x2="860" y2="220" stroke="#9ca3af"/>
    <line x1="40" y1="40"   x2="40"   y2="220" stroke="#9ca3af"/>
    <path d="M 40.00 166.63 L 46.83 166.00 L 53.67 166.00 L 60.50 121.18 L 67.33 115.78 L 74.17 115.78 L 81.00 112.00 L 87.83 108.22 L 94.67 108.22 L 101.50 108.22 L 108.33 108.22 L 115.17 108.22 L 122.00 108.22 L 128.83 108.22 L 135.67 108.22 L 142.50 108.22 L 149.33 108.22 L 156.17 108.22 L 163.00 108.22 L 169.83 108.22 L 176.67 108.22 L 183.50 108.22 L 190.33 109.21 L 197.17 109.12 L 204.00 108.76 L 210.83 108.76 L 217.67 108.76 L 224.50 108.76 L 231.33 108.76 L 238.17 108.76 L 245.00 108.76 L 251.83 108.76 L 258.67 108.76 L 265.50 108.76 L 272.33 108.76 L 279.17 108.76 L 286.00 108.76 L 292.83 108.76 L 299.67 108.76 L 306.50 108.76 L 313.33 108.76 L 320.17 108.76 L 327.00 108.76 L 333.83 108.76 L 340.67 108.76 L 347.50 108.76 L 354.33 108.76 L 361.17 108.76 L 368.00 108.76 L 374.83 108.76 L 381.67 108.76 L 388.50 108.76 L 395.33 108.76 L 402.17 108.76 L 409.00 108.76 L 415.83 108.76 L 422.67 108.76 L 429.50 108.76 L 436.33 108.76 L 443.17 108.76 L 450.00 108.76 L 456.83 108.76 L 463.67 108.76 L 470.50 108.76 L 477.33 108.76 L 484.17 108.76 L 491.00 108.76 L 497.83 108.76 L 504.67 108.76 L 511.50 108.76 L 518.33 108.76 L 525.17 108.76 L 532.00 108.76 L 538.83 108.76 L 545.67 108.76 L 552.50 108.76 L 559.33 108.76 L 566.17 108.76 L 573.00 108.76 L 579.83 108.76 L 586.67 108.76 L 593.50 108.76 L 600.33 108.76 L 607.17 108.76 L 614.00 108.76 L 620.83 108.76 L 627.67 108.76 L 634.50 108.76 L 641.33 108.76 L 648.17 108.76 L 655.00 108.76 L 661.83 108.76 L 668.67 108.76 L 675.50 108.76 L 682.33 108.76 L 689.17 108.76 L 696.00 108.76 L 702.83 108.76 L 709.67 108.76 L 716.50 108.76 L 723.33 108.76 L 730.17 108.76 L 737.00 108.76 L 743.83 108.76 L 750.67 108.76 L 757.50 108.76 L 764.33 108.76 L 771.17 108.76 L 778.00 108.76 L 784.83 108.76 L 791.67 108.76 L 798.50 108.76 L 805.33 108.76 L 812.17 108.76 L 819.00 108.76 L 825.83 108.76 L 832.67 108.76 L 839.50 108.76 L 846.33 108.76 L 853.17 108.76 L 860.00 108.76" fill="none" stroke="#111827" stroke-width="2"/>
    <circle cx="860.00" cy="108.76" r="3" fill="#111827"/>
    <text x="40.00" y="235.00" font-size="9" fill="#111827" text-anchor="middle" transform="rotate(-45 40.00 235.00)">28.08.2025</text><text x="122.00" y="235.00" font-size="9" fill="#111827" text-anchor="middle" transform="rotate(-45 122.00 235.00)">28.08.2025</text><text x="204.00" y="235.00" font-size="9" fill="#111827" text-anchor="middle" transform="rotate(-45 204.00 235.00)">28.08.2025</text><text x="286.00" y="235.00" font-size="9" fill="#111827" text-anchor="middle" transform="rotate(-45 286.00 235.00)">07.09.2025</text><text x="368.00" y="235.00" font-size="9" fill="#111827" text-anchor="middle" transform="rotate(-45 368.00 235.00)">15.09.2025</text><text x="450.00" y="235.00" font-size="9" fill="#111827" text-anchor="middle" transform="rotate(-45 450.00 235.00)">25.09.2025</text><text x="532.00" y="235.00" font-size="9" fill="#111827" text-anchor="middle" transform="rotate(-45 532.00 235.00)">07.10.2025</text><text x="614.00" y="235.00" font-size="9" fill="#111827" text-anchor="middle" transform="rotate(-45 614.00 235.00)">19.10.2025</text><text x="696.00" y="235.00" font-size="9" fill="#111827" text-anchor="middle" transform="rotate(-45 696.00 235.00)">31.10.2025</text><text x="778.00" y="235.00" font-size="9" fill="#111827" text-anchor="middle" transform="rotate(-45 778.00 235.00)">12.11.2025</text><text x="860.00" y="235.00" font-size="9" fill="#111827" text-anchor="middle" transform="rotate(-45 860.00 235.00)">24.11.2025</text>
  </g>
</svg>