<svg xmlns="http://www.w3.org/2000/svg" width="900" height="290" style="font-family: -apple-system, BlinkMacSystemFont, 'Segoe UI', Helvetica, Arial, sans-serif;">
  <rect width="100%" height="100%" fill="white"/>
  <g>
    <line x1="40" y1="220.00" x2="860" y2="220.00" stroke="#e5e7eb"/><text x="32" y="224.00" font-size="10" fill="#111827" text-anchor="end">0</text><line x1="40" y1="175.00" x2="860" y2="175.00" stroke="#e5e7eb"/><text x="32" y="179.00" font-size="10" fill="#111827" text-anchor="end">500</text><line x1="40" y1="130.00" x2="860" y2="130.00" stroke="#e5e7eb"/><text x="32" y="134.00" font-size="10" fill="#111827" text-anchor="end">1k</text><line x1="40" y1="85.00" x2="860" y2="85.00" stroke="#e5e7eb"/><text x="32" y="89.00" font-size="10" fill="#111827" text-anchor="end">1.5k</text><line x1="40" y1="40.00" x2="860" y2="40.00" stroke="#e5e7eb"/><text x="32" y="44.00" font-size="10" fill="#111827" text-anchor="end">2k</text>
    <line x1="40.00" y1="40" x2="40.00" y2="220" stroke="#e5e7eb" opacity="0.5"/><line x1="117.09" y1="40" x2="117.09" y2="220" stroke="#e5e7eb" opacity="0.5"/><line x1="194.19" y1="40" x2="194.19" y2="220" stroke="#e5e7eb" opacity="0.5"/><line x1="271.28" y1="40" x2="271.28" y2="220" stroke="#e5e7eb" opacity="0.5"/><line x1="348.38" y1="40" x2="348.38" y2="220" stroke="#e5e7eb" opacity="0.5"/><line x1="425.47" y1="40" x2="425.47" y2="220" stroke="#e5e7eb" opacity="0.5"/><line x1="502.56" y1="40" x2="502.56" y2="220" stroke="#e5e7eb" opacity="0.5"/><line x1="579.66" y1="40" x2="579.66" y2="220" stroke="#e5e7eb" opacity="0.5"/><line x1="656.75" y1="40" x2="656.75" y2="220" stroke="#e5e7eb" opacity="0.5"/><line x1="733.85" y1="40" x2="733.85" y2="220" stroke="#e5e7eb" opacity="0.5"/><line x1="810.94" y1="40" x2="810.94" y2="220" stroke="#e5e7eb" opacity="0.5"/>
    <line x1="40" y1="220" x2="860" y2="220" stroke="#9ca3af"/>
    <line x1="40" y1="40"   x2="40"   y2="220" stroke="#9ca3af"/>
    <path d="M 40.00 166.63 L 47.01 166.00 L 54.02 166.00 L 61.03 121.18 L 68.03 115.78 L 75.04 115.78 L 82.05 112.00 L 89.06 108.22 L 96.07 108.22 L 103.08 108.22 L 110.09 108.22 L 117.09 108.22 L 124.10 108.22 L 131.11 108.22 L 138.12 108.22 L 145.13 108.22 L 152.14 108.22 L 159.15 108.22 L 166.15 108.22 L 173.16 108.22 L 180.17 108.22 L 187.18 108.22 L 194.19 109.21 L 201.20 109.12 L 208.21 108.76 L 215.21 108.76 L 222.22 108.76 L 229.23 108.76 L 236.24 108.76 L 243.25 108.76 L 250.26 108.76 L 257.26 108.76 L 264.27 108.76 L 271.28 108.76 L 278.29 108.76 L 285.30 108.76 L 292.31 108.76 L 299.32 108.76 L 306.32 108.76 L 313.33 108.76 L 320.34 108.76 L 327.35 108.76 L 334.36 108.76 L 341.37 108.76 L 348.38 108.76 L 355.38 108.76 L 362.39 108.76 L 369.40 108.76 L 376.41 108.76 L 383.42 108.76 L 390.43 108.76 L 397.44 108.76 L 404.44 108.76 L 411.45 108.76 L 418.46 108.76 L 425.47 108.76 L 432.48 108.76 L 439.49 108.76 L 446.50 108.76 L 453.50 108.76 L 460.51 108.76 L 467.52 108.76 L 474.53 108.76 L 481.54 108.76 L 488.55 108.76 L 495.56 108.76 L 502.56 108.76 L 509.57 108.76 L 516.58 108.76 L 523.59 108.76 L 530.60 108.76 L 537.61 108.76 L 544.62 108.76 L 551.62 108.76 L 558.63 108.76 L 565.64 108.76 L 572.65 108.76 L 579.66 108.76 L 586.67 108.76 L 593.68 108.76 L 600.68 108.76 L 607.69 108.76 L 614.70 108.76 L 621.71 108.76 L 628.72 108.76 L 635.73 108.76 L 642.74 108.76 L 649.74 108.76 L 656.75 108.76 L 663.76 108.76 L 670.77 108.76 L 677.78 108.76 L 684.79 108.76 L 691.79 108.76 L 698.80 108.76 L 705.81 108.76 L 712.82 108.76 L 719.83 108.76 L 726.84 108.76 L 733.85 108.76 L 740.85 108.76 L 747.86 108.76 L 754.87 108.76 L 761.88 108.76 L 768.89 108.76 L 775.90 108.76 L 782.91 108.76 L 789.91 108.76 L 796.92 108.76 L 803.93 108.76 L 810.94 108.76 L 817.95 108.76 L 824.96 108.76 L 831.97 108.76 L 838.97 108.76 L 845.98 108.76 L 852.99 108.76 L 860.00 108.76" fill="none" stroke="#111827" stroke-width="2"/>
    <circle cx="860.00" cy="108.76" r="3" fill="#111827"/>
    <text x="40.00" y="235.00" font-size="9" fill="#111827" text-anchor="middle" transform="rotate(-45 40.00 235.00)">28.08.2025</text><text x="117.09" y="235.00" font-size="9" fill="#111827" text-anchor="middle" transform="rotate(-45 117.09 235.00)">28.08.2025</text><text x="194.19" y="235.00" font-size="9" fill="#111827" text-anchor="middle" transform="rotate(-45 194.19 235.00)">28.08.2025</text><text x="271.28" y="235.00" font-size="9" fill="#111827" text-anchor="middle" transform="rotate(-45 271.28 235.00)">04.09.2025</text><text x="348.38" y="235.00" font-size="9" fill="#111827" text-anchor="middle" transform="rotate(-45 348.38 235.00)">13.09.2025</text><text x="425.47" y="235.00" font-size="9" fill="#111827" text-anchor="middle" transform="rotate(-45 425.47 235.00)">20.09.2025</text><text x="502.56" y="235.00" font-size="9" fill="#111827" text-anchor="middle" transform="rotate(-45 502.56 235.00)">01.10.2025</text><text x="579.66" y="235.00" font-size="9" fill="#111827" text-anchor="middle" transform="rotate(-45 579.66 235.00)">12.10.2025</text><text x="656.75" y="235.00" font-size="9" fill="#111827" text-anchor="middle" transform="rotate(-45 656.75 235.00)">23.10.2025</text><text x="733.85" y="235.00" font-size="9" fill="#111827" text-anchor="middle" transform="rotate(-45 733.85 235.00)">03.11.2025</text><text x="810.94" y="235.00" font-size="9" fill="#111827" text-anchor="middle" transform="rotate(-45 810.94 235.00)">14.11.2025</text>
  </g>
</svg>