<svg xmlns="http://www.w3.org/2000/svg" width="900" height="290" style="font-family: -apple-system, BlinkMacSystemFont, 'Segoe UI', Helvetica, Arial, sans-serif;">
  <rect width="100%" height="100%" fill="#0d1117"/>
  <g>
    <line x1="40" y1="220.00" x2="860" y2="220.00" stroke="#30363d"/><text x="32" y="224.00" font-size="10" fill="#c9d1d9" text-anchor="end">0</text><line x1="40" y1="175.00" x2="860" y2="175.00" stroke="#30363d"/><text x="32" y="179.00" font-size="10" fill="#c9d1d9" text-anchor="end">500</text><line x1="40" y1="130.00" x2="860" y2="130.00" stroke="#30363d"/><text x="32" y="134.00" font-size="10" fill="#c9d1d9" text-anchor="end">1k</text><line x1="40" y1="85.00" x2="860" y2="85.00" stroke="#30363d"/><text x="32" y="89.00" font-size="10" fill="#c9d1d9" text-anchor="end">1.5k</text><line x1="40" y1="40.00" x2="860" y2="40.00" stroke="#30363d"/><text x="32" y="44.00" font-size="10" fill="#c9d1d9" text-anchor="end">2k</text>
    <line x1="40.00" y1="40" x2="40.00" y2="220" stroke="#30363d" opacity="0.5"/><line x1="119.92" y1="40" x2="119.92" y2="220" stroke="#30363d" opacity="0.5"/><line x1="199.83" y1="40" x2="199.83" y2="220" stroke="#30363d" opacity="0.5"/><line x1="279.75" y1="40" x2="279.75" y2="220" stroke="#30363d" opacity="0.5"/><line x1="359.66" y1="40" x2="359.66" y2="220" stroke="#30363d" opacity="0.5"/><line x1="439.58" y1="40" x2="439.58" y2="220" stroke="#30363d" opacity="0.5"/><line x1="519.49" y1="40" x2="519.49" y2="220" stroke="#30363d" opacity="0.5"/><line x1="599.41" y1="40" x2="599.41" y2="220" stroke="#30363d" opacity="0.5"/><line x1="679.32" y1="40" x2="679.32" y2="220" stroke="#30363d" opacity="0.5"/><line x1="759.24" y1="40" x2="759.24" y2="220" stroke="#30363d" opacity="0.5"/><line x1="839.15" y1="40" x2="839.15" y2="220" stroke="#30363d" opacity="0.5"/>
    <line x1="40" y1="220" x2="860" y2="220" stroke="#30363d"/>
    <line x1="40" y1="40"   x2="40"   y2="220" stroke="#30363d"/>
    <path d="M 40.00 166.63 L 43.47 166.00 L 46.95 166.00 L 50.42 121.18 L 53.90 115.78 L 57.37 115.78 L 60.85 112.00 L 64.32 108.22 L 67.80 108.22 L 71.27 108.22 L 74.75 108.22 L 78.22 108.22 L 81.69 108.22 L 85.17 108.22 L 88.64 108.22 L 92.12 108.22 L 95.59 108.22 L 99.07 108.22 L 102.54 108.22 L 106.02 108.22 L 109.49 108.22 L 112.97 108.22 L 116.44 109.21 L 119.92 109.12 L 123.39 108.76 L 126.86 108.76 L 130.34 108.76 L 133.81 108.76 L 137.29 108.76 L 140.76 108.76 L 144.24 108.76 L 147.71 108.76 L 151.19 108.76 L 154.66 108.76 L 158.14 108.76 L 161.61 108.76 L 165.08 108.76 L 168.56 108.76 L 172.03 108.76 L 175.51 108.76 L 178.98 108.76 L 182.46 108.76 L 185.93 108.76 L 189.41 108.76 L 192.88 108.76 L 196.36 108.76 L 199.83 108.76 L 203.31 108.76 L 206.78 108.76 L 210.25 108.76 L 213.73 108.76 L 217.20 108.76 L 220.68 108.76 L 224.15 108.76 L 227.63 108.76 L 231.10 108.76 L 234.58 108.76 L 238.05 108.76 L 241.53 108.76 L 245.00 108.76 L 248.47 108.76 L 251.95 108.76 L 255.42 108.76 L 258.90 108.76 L 262.37 108.76 L 265.85 108.76 L 269.32 108.76 L 272.80 108.76 L 276.27 108.76 L 279.75 108.76 L 283.22 108.76 L 286.69 108.76 L 290.17 108.76 L 293.64 108.76 L 297.12 108.76 L 300.59 108.76 L 304.07 108.76 L 307.54 108.76 L 311.02 108.76 L 314.49 108.76 L 317.97 108.76 L 321.44 108.76 L 324.92 108.76 L 328.39 108.76 L 331.86 108.76 L 335.34 108.76 L 338.81 108.76 L 342.29 108.76 L 345.76 108.76 L 349.24 108.76 L 352.71 108.76 L 356.19 108.76 L 359.66 108.76 L 363.14 108.76 L 366.61 108.76 L 370.08 108.76 L 373.56 108.76 L 377.03 108.76 L 380.51 108.76 L 383.98 108.76 L 387.46 108.76 L 390.93 108.76 L 394.41 108.76 L 397.88 108.76 L 401.36 108.76 L 404.83 108.76 L 408.31 108.76 L 411.78 108.76 L 415.25 108.76 L 418.73 108.76 L 422.20 108.76 L 425.68 108.76 L 429.15 108.76 L 432.63 108.76 L 436.10 108.76 L 439.58 108.76 L 443.05 108.76 L 446.53 108.76 L 450.00 108.76 L 453.47 108.76 L 456.95 108.76 L 460.42 108.76 L 463.90 108.76 L 467.37 108.76 L 470.85 108.76 L 474.32 108.76 L 477.80 108.76 L 481.27 108.76 L 484.75 108.76 L 488.22 108.76 L 491.69 108.76 L 495.17 108.76 L 498.64 108.76 L 502.12 108.76 L 505.59 108.76 L 509.07 108.76 L 512.54 108.76 L 516.02 108.76 L 519.49 108.76 L 522.97 108.76 L 526.44 108.76 L 529.92 108.76 L 533.39 108.76 L 536.86 108.94 L 540.34 100.39 L 543.81 81.40 L 547.29 81.40 L 550.76 81.40 L 554.24 81.40 L 557.71 81.40 L 561.19 70.78 L 564.66 70.78 L 568.14 70.78 L 571.61 70.78 L 575.08 70.78 L 578.56 70.78 L 582.03 70.78 L 585.51 70.78 L 588.98 70.78 L 592.46 70.78 L 595.93 70.78 L 599.41 70.78 L 602.88 70.78 L 606.36 70.78 L 609.83 70.78 L 613.31 70.78 L 616.78 70.78 L 620.25 70.78 L 623.73 70.78 L 627.20 70.78 L 630.68 70.78 L 634.15 70.78 L 637.63 70.78 L 641.10 70.78 L 644.58 70.78 L 648.05 70.78 L 651.53 70.78 L 655.00 70.78 L 658.47 70.78 L 661.95 70.78 L 665.42 70.78 L 668.90 70.78 L 672.37 70.78 L 675.85 70.78 L 679.32 70.78 L 682.80 70.78 L 686.27 70.78 L 689.75 70.78 L 693.22 70.78 L 696.69 70.78 L 700.17 70.78 L 703.64 70.78 L 707.12 70.78 L 710.59 70.78 L 714.07 70.78 L 717.54 70.78 L 721.02 70.78 L 724.49 70.78 L 727.97 70.78 L 731.44 70.78 L 734.92 70.78 L 738.39 70.78 L 741.86 70.78 L 745.34 70.78 L 748.81 70.78 L 752.29 70.78 L 755.76 70.78 L 759.24 70.78 L 762.71 70.78 L 766.19 70.78 L 769.66 70.78 L 773.14 70.78 L 776.61 70.78 L 780.08 70.78 L 783.56 70.78 L 787.03 70.78 L 790.51 70.78 L 793.98 70.78 L 797.46 70.78 L 800.93 70.78 L 804.41 70.78 L 807.88 70.78 L 811.36 70.78 L 814.83 70.78 L 818.31 70.78 L 821.78 70.78 L 825.25 70.78 L 828.73 70.78 L 832.20 70.78 L 835.68 70.78 L 839.15 70.78 L 842.63 70.78 L 846.10 70.78 L 849.58 70.78 L 853.05 70.78 L 856.53 70.78 L 860.00 70.78" fill="none" stroke="#3fb950" stroke-width="2"/>
    <circle cx="860.00" cy="70.78" r="3" fill="#3fb950"/>
    <text x="40.00" y="235.00" font-size="9" fill="#c9d1d9" text-anchor="middle" transform="rotate(-45 40.00 235.00)">28.08.2025</text><text x="119.92" y="235.00" font-size="9" fill="#c9d1d9" text-anchor="middle" transform="rotate(-45 119.92 235.00)">28.08.2025</text><text x="199.83" y="235.00" font-size="9" fill="#c9d1d9" text-anchor="middle" transform="rotate(-45 199.83 235.00)">15.09.2025</text><text x="279.75" y="235.00" font-size="9" fill="#c9d1d9" text-anchor="middle" transform="rotate(-45 279.75 235.00)">02.10.2025</text><text x="359.66" y="235.00" font-size="9" fill="#c9d1d9" text-anchor="middle" transform="rotate(-45 359.66 235.00)">24.10.2025</text><text x="439.58" y="235.00" font-size="9" fill="#c9d1d9" text-anchor="middle" transform="rotate(-45 439.58 235.00)">14.11.2025</text><text x="519.49" y="235.00" font-size="9" fill="#c9d1d9" text-anchor="middle" transform="rotate(-45 519.49 235.00)">30.11.2025</text><text x="599.41" y="235.00" font-size="9" fill="#c9d1d9" text-anchor="middle" transform="rotate(-45 599.41 235.00)">13.12.2025</text><text x="679.32" y="235.00" font-size="9" fill="#c9d1d9" text-anchor="middle" transform="rotate(-45 679.32 235.00)">03.01.2026</text><text x="759.24" y="235.00" font-size="9" fill="#c9d1d9" text-anchor="middle" transform="rotate(-45 759.24 235.00)">24.01.2026</text><text x="839.15" y="235.00" font-size="9" fill="#c9d1d9" text-anchor="middle" transform="rotate(-45 839.15 235.00)">15.02.2026</text>
  </g>
</svg>