<svg xmlns="http://www.w3.org/2000/svg" width="900" height="290" style="font-family: -apple-system, BlinkMacSystemFont, 'Segoe UI', Helvetica, Arial, sans-serif;">
  <rect width="100%" height="100%" fill="white"/>
  <g>
    <line x1="40" y1="220.00" x2="860" y2="220.00" stroke="#e5e7eb"/><text x="32" y="224.00" font-size="10" fill="#111827" text-anchor="end">0</text><line x1="40" y1="175.00" x2="860" y2="175.00" stroke="#e5e7eb"/><text x="32" y="179.00" font-size="10" fill="#111827" text-anchor="end">500</text><line x1="40" y1="130.00" x2="860" y2="130.00" stroke="#e5e7eb"/><text x="32" y="134.00" font-size="10" fill="#111827" text-anchor="end">1k</text><line x1="40" y1="85.00" x2="860" y2="85.00" stroke="#e5e7eb"/><text x="32" y="89.00" font-size="10" fill="#111827" text-anchor="end">1.5k</text><line x1="40" y1="40.00" x2="860" y2="40.00" stroke="#e5e7eb"/><text x="32" y="44.00" font-size="10" fill="#111827" text-anchor="end">2k</text>
    <line x1="40.00" y1="40" x2="40.00" y2="220" stroke="#e5e7eb" opacity="0.5"/><line x1="122.39" y1="40" x2="122.39" y2="220" stroke="#e5e7eb" opacity="0.5"/><line x1="204.78" y1="40" x2="204.78" y2="220" stroke="#e5e7eb" opacity="0.5"/><line x1="287.18" y1="40" x2="287.18" y2="220" stroke="#e5e7eb" opacity="0.5"/><line x1="369.57" y1="40" x2="369.57" y2="220" stroke="#e5e7eb" opacity="0.5"/><line x1="451.96" y1="40" x2="451.96" y2="220" stroke="#e5e7eb" opacity="0.5"/><line x1="534.35" y1="40" x2="534.35" y2="220" stroke="#e5e7eb" opacity="0.5"/><line x1="616.75" y1="40" x2="616.75" y2="220" stroke="#e5e7eb" opacity="0.5"/><line x1="699.14" y1="40" x2="699.14" y2="220" stroke="#e5e7eb" opacity="0.5"/><line x1="781.53" y1="40" x2="781.53" y2="220" stroke="#e5e7eb" opacity="0.5"/>
    <line x1="40" y1="220" x2="860" y2="220" stroke="#9ca3af"/>
    <line x1="40" y1="40"   x2="40"   y2="220" stroke="#9ca3af"/>
    <path d="M 40.00 166.63 L 43.92 166.00 L 47.85 166.00 L 51.77 121.18 L 55.69 115.78 L 59.62 115.78 L 63.54 112.00 L 67.46 108.22 L 71.39 108.22 L 75.31 108.22 L 79.23 108.22 L 83.16 108.22 L 87.08 108.22 L 91.00 108.22 L 94.93 108.22 L 98.85 108.22 L 102.78 108.22 L 106.70 108.22 L 110.62 108.22 L 114.55 108.22 L 118.47 108.22 L 122.39 108.22 L 126.32 109.21 L 130.24 109.12 L 134.16 108.76 L 138.09 108.76 L 142.01 108.76 L 145.93 108.76 L 149.86 108.76 L 153.78 108.76 L 157.70 108.76 L 161.63 108.76 L 165.55 108.76 L 169.47 108.76 L 173.40 108.76 L 177.32 108.76 L 181.24 108.76 L 185.17 108.76 L 189.09 108.76 L 193.01 108.76 L 196.94 108.76 L 200.86 108.76 L 204.78 108.76 L 208.71 108.76 L 212.63 108.76 L 216.56 108.76 L 220.48 108.76 L 224.40 108.76 L 228.33 108.76 L 232.25 108.76 L 236.17 108.76 L 240.10 108.76 L 244.02 108.76 L 247.94 108.76 L 251.87 108.76 L 255.79 108.76 L 259.71 108.76 L 263.64 108.76 L 267.56 108.76 L 271.48 108.76 L 275.41 108.76 L 279.33 108.76 L 283.25 108.76 L 287.18 108.76 L 291.10 108.76 L 295.02 108.76 L 298.95 108.76 L 302.87 108.76 L 306.79 108.76 L 310.72 108.76 L 314.64 108.76 L 318.56 108.76 L 322.49 108.76 L 326.41 108.76 L 330.33 108.76 L 334.26 108.76 L 338.18 108.76 L 342.11 108.76 L 346.03 108.76 L 349.95 108.76 L 353.88 108.76 L 357.80 108.76 L 361.72 108.76 L 365.65 108.76 L 369.57 108.76 L 373.49 108.76 L 377.42 108.76 L 381.34 108.76 L 385.26 108.76 L 389.19 108.76 L 393.11 108.76 L 397.03 108.76 L 400.96 108.76 L 404.88 108.76 L 408.80 108.76 L 412.73 108.76 L 416.65 108.76 L 420.57 108.76 L 424.50 108.76 L 428.42 108.76 L 432.34 108.76 L 436.27 108.76 L 440.19 108.76 L 444.11 108.76 L 448.04 108.76 L 451.96 108.76 L 455.89 108.76 L 459.81 108.76 L 463.73 108.76 L 467.66 108.76 L 471.58 108.76 L 475.50 108.76 L 479.43 108.76 L 483.35 108.76 L 487.27 108.76 L 491.20 108.76 L 495.12 108.76 L 499.04 108.76 L 502.97 108.76 L 506.89 108.76 L 510.81 108.76 L 514.74 108.76 L 518.66 108.76 L 522.58 108.76 L 526.51 108.76 L 530.43 108.76 L 534.35 108.76 L 538.28 108.76 L 542.20 108.76 L 546.12 108.76 L 550.05 108.76 L 553.97 108.76 L 557.89 108.76 L 561.82 108.76 L 565.74 108.76 L 569.67 108.76 L 573.59 108.76 L 577.51 108.76 L 581.44 108.76 L 585.36 108.76 L 589.28 108.76 L 593.21 108.76 L 597.13 108.76 L 601.05 108.94 L 604.98 100.39 L 608.90 81.40 L 612.82 81.40 L 616.75 81.40 L 620.67 81.40 L 624.59 81.40 L 628.52 70.78 L 632.44 70.78 L 636.36 70.78 L 640.29 70.78 L 644.21 70.78 L 648.13 70.78 L 652.06 70.78 L 655.98 70.78 L 659.90 70.78 L 663.83 70.78 L 667.75 70.78 L 671.67 70.78 L 675.60 70.78 L 679.52 70.78 L 683.44 70.78 L 687.37 70.78 L 691.29 70.78 L 695.22 70.78 L 699.14 70.78 L 703.06 70.78 L 706.99 70.78 L 710.91 70.78 L 714.83 70.78 L 718.76 70.78 L 722.68 70.78 L 726.60 70.78 L 730.53 70.78 L 734.45 70.78 L 738.37 70.78 L 742.30 70.78 L 746.22 70.78 L 750.14 70.78 L 754.07 70.78 L 757.99 70.78 L 761.91 70.78 L 765.84 70.78 L 769.76 70.78 L 773.68 70.78 L 777.61 70.78 L 781.53 70.78 L 785.45 70.78 L 789.38 70.78 L 793.30 70.78 L 797.22 70.78 L 801.15 70.78 L 805.07 70.78 L 809.00 70.78 L 812.92 70.78 L 816.84 70.78 L 820.77 70.78 L 824.69 70.78 L 828.61 70.78 L 832.54 70.78 L 836.46 70.78 L 840.38 70.78 L 844.31 70.78 L 848.23 70.78 L 852.15 70.78 L 856.08 70.78 L 860.00 70.78" fill="none" stroke="#111827" stroke-width="2"/>
    <circle cx="860.00" cy="70.78" r="3" fill="#111827"/>
    <text x="40.00" y="235.00" font-size="9" fill="#111827" text-anchor="middle" transform="rotate(-45 40.00 235.00)">28.08.2025</text><text x="122.39" y="235.00" font-size="9" fill="#111827" text-anchor="middle" transform="rotate(-45 122.39 235.00)">28.08.2025</text><text x="204.78" y="235.00" font-size="9" fill="#111827" text-anchor="middle" transform="rotate(-45 204.78 235.00)">11.09.2025</text><text x="287.18" y="235.00" font-size="9" fill="#111827" text-anchor="middle" transform="rotate(-45 287.18 235.00)">26.09.2025</text><text x="369.57" y="235.00" font-size="9" fill="#111827" text-anchor="middle" transform="rotate(-45 369.57 235.00)">16.10.2025</text><text x="451.96" y="235.00" font-size="9" fill="#111827" text-anchor="middle" transform="rotate(-45 451.96 235.00)">04.11.2025</text><text x="534.35" y="235.00" font-size="9" fill="#111827" text-anchor="middle" transform="rotate(-45 534.35 235.00)">24.11.2025</text><text x="616.75" y="235.00" font-size="9" fill="#111827" text-anchor="middle" transform="rotate(-45 616.75 235.00)">05.12.2025</text><text x="699.14" y="235.00" font-size="9" fill="#111827" text-anchor="middle" transform="rotate(-45 699.14 235.00)">19.12.2025</text><text x="781.53" y="235.00" font-size="9" fill="#111827" text-anchor="middle" transform="rotate(-45 781.53 235.00)">08.01.2026</text>
  </g>
</svg>