<svg xmlns="http://www.w3.org/2000/svg" width="900" height="290" style="font-family: -apple-system, BlinkMacSystemFont, 'Segoe UI', Helvetica, Arial, sans-serif;">
  <rect width="100%" height="100%" fill="#0d1117"/>
  <g>
    <line x1="40" y1="220.00" x2="860" y2="220.00" stroke="#30363d"/><text x="32" y="224.00" font-size="10" fill="#c9d1d9" text-anchor="end">0</text><line x1="40" y1="175.00" x2="860" y2="175.00" stroke="#30363d"/><text x="32" y="179.00" font-size="10" fill="#c9d1d9" text-anchor="end">500</text><line x1="40" y1="130.00" x2="860" y2="130.00" stroke="#30363d"/><text x="32" y="134.00" font-size="10" fill="#c9d1d9" text-anchor="end">1k</text><line x1="40" y1="85.00" x2="860" y2="85.00" stroke="#30363d"/><text x="32" y="89.00" font-size="10" fill="#c9d1d9" text-anchor="end">1.5k</text><line x1="40" y1="40.00" x2="860" y2="40.00" stroke="#30363d"/><text x="32" y="44.00" font-size="10" fill="#c9d1d9" text-anchor="end">2k</text>
    <line x1="40.00" y1="40" x2="40.00" y2="220" stroke="#30363d" opacity="0.5"/><line x1="121.26" y1="40" x2="121.26" y2="220" stroke="#30363d" opacity="0.5"/><line x1="202.52" y1="40" x2="202.52" y2="220" stroke="#30363d" opacity="0.5"/><line x1="283.78" y1="40" x2="283.78" y2="220" stroke="#30363d" opacity="0.5"/><line x1="365.05" y1="40" x2="365.05" y2="220" stroke="#30363d" opacity="0.5"/><line x1="446.31" y1="40" x2="446.31" y2="220" stroke="#30363d" opacity="0.5"/><line x1="527.57" y1="40" x2="527.57" y2="220" stroke="#30363d" opacity="0.5"/><line x1="608.83" y1="40" x2="608.83" y2="220" stroke="#30363d" opacity="0.5"/><line x1="690.09" y1="40" x2="690.09" y2="220" stroke="#30363d" opacity="0.5"/><line x1="771.35" y1="40" x2="771.35" y2="220" stroke="#30363d" opacity="0.5"/><line x1="852.61" y1="40" x2="852.61" y2="220" stroke="#30363d" opacity="0.5"/>
    <line x1="40" y1="220" x2="860" y2="220" stroke="#30363d"/>
    <line x1="40" y1="40"   x2="40"   y2="220" stroke="#30363d"/>
    <path d="M 40.00 166.63 L 47.39 166.00 L 54.77 166.00 L 62.16 121.18 L 69.55 115.78 L 76.94 115.78 L 84.32 112.00 L 91.71 108.22 L 99.10 108.22 L 106.49 108.22 L 113.87 108.22 L 121.26 108.22 L 128.65 108.22 L 136.04 108.22 L 143.42 108.22 L 150.81 108.22 L 158.20 108.22 L 165.59 108.22 L 172.97 108.22 L 180.36 108.22 L 187.75 108.22 L 195.14 108.22 L 202.52 109.21 L 209.91 109.12 L 217.30 108.76 L 224.68 108.76 L 232.07 108.76 L 239.46 108.76 L 246.85 108.76 L 254.23 108.76 L 261.62 108.76 L 269.01 108.76 L 276.40 108.76 L 283.78 108.76 L 291.17 108.76 L 298.56 108.76 L 305.95 108.76 L 313.33 108.76 L 320.72 108.76 L 328.11 108.76 L 335.50 108.76 L 342.88 108.76 L 350.27 108.76 L 357.66 108.76 L 365.05 108.76 L 372.43 108.76 L 379.82 108.76 L 387.21 108.76 L 394.59 108.76 L 401.98 108.76 L 409.37 108.76 L 416.76 108.76 L 424.14 108.76 L 431.53 108.76 L 438.92 108.76 L 446.31 108.76 L 453.69 108.76 L 461.08 108.76 L 468.47 108.76 L 475.86 108.76 L 483.24 108.76 L 490.63 108.76 L 498.02 108.76 L 505.41 108.76 L 512.79 108.76 L 520.18 108.76 L 527.57 108.76 L 534.95 108.76 L 542.34 108.76 L 549.73 108.76 L 557.12 108.76 L 564.50 108.76 L 571.89 108.76 L 579.28 108.76 L 586.67 108.76 L 594.05 108.76 L 601.44 108.76 L 608.83 108.76 L 616.22 108.76 L 623.60 108.76 L 630.99 108.76 L 638.38 108.76 L 645.77 108.76 L 653.15 108.76 L 660.54 108.76 L 667.93 108.76 L 675.32 108.76 L 682.70 108.76 L 690.09 108.76 L 697.48 108.76 L 704.86 108.76 L 712.25 108.76 L 719.64 108.76 L 727.03 108.76 L 734.41 108.76 L 741.80 108.76 L 749.19 108.76 L 756.58 108.76 L 763.96 108.76 L 771.35 108.76 L 778.74 108.76 L 786.13 108.76 L 793.51 108.76 L 800.90 108.76 L 808.29 108.76 L 815.68 108.76 L 823.06 108.76 L 830.45 108.76 L 837.84 108.76 L 845.23 108.76 L 852.61 108.76 L 860.00 108.76" fill="none" stroke="#3fb950" stroke-width="2"/>
    <circle cx="860.00" cy="108.76" r="3" fill="#3fb950"/>
    <text x="40.00" y="235.00" font-size="9" fill="#c9d1d9" text-anchor="middle" transform="rotate(-45 40.00 235.00)">28.08.2025</text><text x="121.26" y="235.00" font-size="9" fill="#c9d1d9" text-anchor="middle" transform="rotate(-45 121.26 235.00)">28.08.2025</text><text x="202.52" y="235.00" font-size="9" fill="#c9d1d9" text-anchor="middle" transform="rotate(-45 202.52 235.00)">28.08.2025</text><text x="283.78" y="235.00" font-size="9" fill="#c9d1d9" text-anchor="middle" transform="rotate(-45 283.78 235.00)">04.09.2025</text><text x="365.05" y="235.00" font-size="9" fill="#c9d1d9" text-anchor="middle" transform="rotate(-45 365.05 235.00)">13.09.2025</text><text x="446.31" y="235.00" font-size="9" fill="#c9d1d9" text-anchor="middle" transform="rotate(-45 446.31 235.00)">20.09.2025</text><text x="527.57" y="235.00" font-size="9" fill="#c9d1d9" text-anchor="middle" transform="rotate(-45 527.57 235.00)">01.10.2025</text><text x="608.83" y="235.00" font-size="9" fill="#c9d1d9" text-anchor="middle" transform="rotate(-45 608.83 235.00)">12.10.2025</text><text x="690.09" y="235.00" font-size="9" fill="#c9d1d9" text-anchor="middle" transform="rotate(-45 690.09 235.00)">23.10.2025</text><text x="771.35" y="235.00" font-size="9" fill="#c9d1d9" text-anchor="middle" transform="rotate(-45 771.35 235.00)">03.11.2025</text><text x="852.61" y="235.00" font-size="9" fill="#c9d1d9" text-anchor="middle" transform="rotate(-45 852.61 235.00)">14.11.2025</text>
  </g>
</svg>