<svg xmlns="http://www.w3.org/2000/svg" width="900" height="290" style="font-family: -apple-system, BlinkMacSystemFont, 'Segoe UI', Helvetica, Arial, sans-serif;">
  <rect width="100%" height="100%" fill="white"/>
  <g>
    <line x1="40" y1="220.00" x2="860" y2="220.00" stroke="#e5e7eb"/><text x="32" y="224.00" font-size="10" fill="#111827" text-anchor="end">0</text><line x1="40" y1="175.00" x2="860" y2="175.00" stroke="#e5e7eb"/><text x="32" y="179.00" font-size="10" fill="#111827" text-anchor="end">500</text><line x1="40" y1="130.00" x2="860" y2="130.00" stroke="#e5e7eb"/><text x="32" y="134.00" font-size="10" fill="#111827" text-anchor="end">1k</text><line x1="40" y1="85.00" x2="860" y2="85.00" stroke="#e5e7eb"/><text x="32" y="89.00" font-size="10" fill="#111827" text-anchor="end">1.5k</text><line x1="40" y1="40.00" x2="860" y2="40.00" stroke="#e5e7eb"/><text x="32" y="44.00" font-size="10" fill="#111827" text-anchor="end">2k</text>
    <line x1="40.00" y1="40" x2="40.00" y2="220" stroke="#e5e7eb" opacity="0.5"/><line x1="119.20" y1="40" x2="119.20" y2="220" stroke="#e5e7eb" opacity="0.5"/><line x1="198.41" y1="40" x2="198.41" y2="220" stroke="#e5e7eb" opacity="0.5"/><line x1="277.61" y1="40" x2="277.61" y2="220" stroke="#e5e7eb" opacity="0.5"/><line x1="356.82" y1="40" x2="356.82" y2="220" stroke="#e5e7eb" opacity="0.5"/><line x1="436.02" y1="40" x2="436.02" y2="220" stroke="#e5e7eb" opacity="0.5"/><line x1="515.23" y1="40" x2="515.23" y2="220" stroke="#e5e7eb" opacity="0.5"/><line x1="594.43" y1="40" x2="594.43" y2="220" stroke="#e5e7eb" opacity="0.5"/><line x1="673.64" y1="40" x2="673.64" y2="220" stroke="#e5e7eb" opacity="0.5"/><line x1="752.84" y1="40" x2="752.84" y2="220" stroke="#e5e7eb" opacity="0.5"/><line x1="832.05" y1="40" x2="832.05" y2="220" stroke="#e5e7eb" opacity="0.5"/>
    <line x1="40" y1="220" x2="860" y2="220" stroke="#9ca3af"/>
    <line x1="40" y1="40"   x2="40"   y2="220" stroke="#9ca3af"/>
    <path d="M 40.00 166.63 L 44.66 166.00 L 49.32 166.00 L 53.98 121.18 L 58.64 115.78 L 63.30 115.78 L 67.95 112.00 L 72.61 108.22 L 77.27 108.22 L 81.93 108.22 L 86.59 108.22 L 91.25 108.22 L 95.91 108.22 L 100.57 108.22 L 105.23 108.22 L 109.89 108.22 L 114.55 108.22 L 119.20 108.22 L 123.86 108.22 L 128.52 108.22 L 133.18 108.22 L 137.84 108.22 L 142.50 109.21 L 147.16 109.12 L 151.82 108.76 L 156.48 108.76 L 161.14 108.76 L 165.80 108.76 L 170.45 108.76 L 175.11 108.76 L 179.77 108.76 L 184.43 108.76 L 189.09 108.76 L 193.75 108.76 L 198.41 108.76 L 203.07 108.76 L 207.73 108.76 L 212.39 108.76 L 217.05 108.76 L 221.70 108.76 L 226.36 108.76 L 231.02 108.76 L 235.68 108.76 L 240.34 108.76 L 245.00 108.76 L 249.66 108.76 L 254.32 108.76 L 258.98 108.76 L 263.64 108.76 L 268.30 108.76 L 272.95 108.76 L 277.61 108.76 L 282.27 108.76 L 286.93 108.76 L 291.59 108.76 L 296.25 108.76 L 300.91 108.76 L 305.57 108.76 L 310.23 108.76 L 314.89 108.76 L 319.55 108.76 L 324.20 108.76 L 328.86 108.76 L 333.52 108.76 L 338.18 108.76 L 342.84 108.76 L 347.50 108.76 L 352.16 108.76 L 356.82 108.76 L 361.48 108.76 L 366.14 108.76 L 370.80 108.76 L 375.45 108.76 L 380.11 108.76 L 384.77 108.76 L 389.43 108.76 L 394.09 108.76 L 398.75 108.76 L 403.41 108.76 L 408.07 108.76 L 412.73 108.76 L 417.39 108.76 L 422.05 108.76 L 426.70 108.76 L 431.36 108.76 L 436.02 108.76 L 440.68 108.76 L 445.34 108.76 L 450.00 108.76 L 454.66 108.76 L 459.32 108.76 L 463.98 108.76 L 468.64 108.76 L 473.30 108.76 L 477.95 108.76 L 482.61 108.76 L 487.27 108.76 L 491.93 108.76 L 496.59 108.76 L 501.25 108.76 L 505.91 108.76 L 510.57 108.76 L 515.23 108.76 L 519.89 108.76 L 524.55 108.76 L 529.20 108.76 L 533.86 108.76 L 538.52 108.76 L 543.18 108.76 L 547.84 108.76 L 552.50 108.76 L 557.16 108.76 L 561.82 108.76 L 566.48 108.76 L 571.14 108.76 L 575.80 108.76 L 580.45 108.76 L 585.11 108.76 L 589.77 108.76 L 594.43 108.76 L 599.09 108.76 L 603.75 108.76 L 608.41 108.76 L 613.07 108.76 L 617.73 108.76 L 622.39 108.76 L 627.05 108.76 L 631.70 108.76 L 636.36 108.76 L 641.02 108.76 L 645.68 108.76 L 650.34 108.76 L 655.00 108.76 L 659.66 108.76 L 664.32 108.76 L 668.98 108.76 L 673.64 108.76 L 678.30 108.76 L 682.95 108.76 L 687.61 108.76 L 692.27 108.76 L 696.93 108.76 L 701.59 108.76 L 706.25 108.94 L 710.91 100.39 L 715.57 81.40 L 720.23 81.40 L 724.89 81.40 L 729.55 81.40 L 734.20 81.40 L 738.86 70.78 L 743.52 70.78 L 748.18 70.78 L 752.84 70.78 L 757.50 70.78 L 762.16 70.78 L 766.82 70.78 L 771.48 70.78 L 776.14 70.78 L 780.80 70.78 L 785.45 70.78 L 790.11 70.78 L 794.77 70.78 L 799.43 70.78 L 804.09 70.78 L 808.75 70.78 L 813.41 70.78 L 818.07 70.78 L 822.73 70.78 L 827.39 70.78 L 832.05 70.78 L 836.70 70.78 L 841.36 70.78 L 846.02 70.78 L 850.68 70.78 L 855.34 70.78 L 860.00 70.78" fill="none" stroke="#111827" stroke-width="2"/>
    <circle cx="860.00" cy="70.78" r="3" fill="#111827"/>
    <text x="40.00" y="235.00" font-size="9" fill="#111827" text-anchor="middle" transform="rotate(-45 40.00 235.00)">28.08.2025</text><text x="119.20" y="235.00" font-size="9" fill="#111827" text-anchor="middle" transform="rotate(-45 119.20 235.00)">28.08.2025</text><text x="198.41" y="235.00" font-size="9" fill="#111827" text-anchor="middle" transform="rotate(-45 198.41 235.00)">05.09.2025</text><text x="277.61" y="235.00" font-size="9" fill="#111827" text-anchor="middle" transform="rotate(-45 277.61 235.00)">15.09.2025</text><text x="356.82" y="235.00" font-size="9" fill="#111827" text-anchor="middle" transform="rotate(-45 356.82 235.00)">01.10.2025</text><text x="436.02" y="235.00" font-size="9" fill="#111827" text-anchor="middle" transform="rotate(-45 436.02 235.00)">17.10.2025</text><text x="515.23" y="235.00" font-size="9" fill="#111827" text-anchor="middle" transform="rotate(-45 515.23 235.00)">01.11.2025</text><text x="594.43" y="235.00" font-size="9" fill="#111827" text-anchor="middle" transform="rotate(-45 594.43 235.00)">18.11.2025</text><text x="673.64" y="235.00" font-size="9" fill="#111827" text-anchor="middle" transform="rotate(-45 673.64 235.00)">28.11.2025</text><text x="752.84" y="235.00" font-size="9" fill="#111827" text-anchor="middle" transform="rotate(-45 752.84 235.00)">10.12.2025</text><text x="832.05" y="235.00" font-size="9" fill="#111827" text-anchor="middle" transform="rotate(-45 832.05 235.00)">21.12.2025</text>
  </g>
</svg>