<svg xmlns="http://www.w3.org/2000/svg" width="900" height="290" style="font-family: -apple-system, BlinkMacSystemFont, 'Segoe UI', Helvetica, Arial, sans-serif;">
  <rect width="100%" height="100%" fill="white"/>
  <g>
    <line x1="40" y1="220.00" x2="860" y2="220.00" stroke="#e5e7eb"/><text x="32" y="224.00" font-size="10" fill="#111827" text-anchor="end">0</text><line x1="40" y1="175.00" x2="860" y2="175.00" stroke="#e5e7eb"/><text x="32" y="179.00" font-size="10" fill="#111827" text-anchor="end">500</text><line x1="40" y1="130.00" x2="860" y2="130.00" stroke="#e5e7eb"/><text x="32" y="134.00" font-size="10" fill="#111827" text-anchor="end">1k</text><line x1="40" y1="85.00" x2="860" y2="85.00" stroke="#e5e7eb"/><text x="32" y="89.00" font-size="10" fill="#111827" text-anchor="end">1.5k</text><line x1="40" y1="40.00" x2="860" y2="40.00" stroke="#e5e7eb"/><text x="32" y="44.00" font-size="10" fill="#111827" text-anchor="end">2k</text>
    <line x1="40.00" y1="40" x2="40.00" y2="220" stroke="#e5e7eb" opacity="0.5"/><line x1="120.79" y1="40" x2="120.79" y2="220" stroke="#e5e7eb" opacity="0.5"/><line x1="201.58" y1="40" x2="201.58" y2="220" stroke="#e5e7eb" opacity="0.5"/><line x1="282.36" y1="40" x2="282.36" y2="220" stroke="#e5e7eb" opacity="0.5"/><line x1="363.15" y1="40" x2="363.15" y2="220" stroke="#e5e7eb" opacity="0.5"/><line x1="443.94" y1="40" x2="443.94" y2="220" stroke="#e5e7eb" opacity="0.5"/><line x1="524.73" y1="40" x2="524.73" y2="220" stroke="#e5e7eb" opacity="0.5"/><line x1="605.52" y1="40" x2="605.52" y2="220" stroke="#e5e7eb" opacity="0.5"/><line x1="686.31" y1="40" x2="686.31" y2="220" stroke="#e5e7eb" opacity="0.5"/><line x1="767.09" y1="40" x2="767.09" y2="220" stroke="#e5e7eb" opacity="0.5"/><line x1="847.88" y1="40" x2="847.88" y2="220" stroke="#e5e7eb" opacity="0.5"/>
    <line x1="40" y1="220" x2="860" y2="220" stroke="#9ca3af"/>
    <line x1="40" y1="40"   x2="40"   y2="220" stroke="#9ca3af"/>
    <path d="M 40.00 166.63 L 44.04 166.00 L 48.08 166.00 L 52.12 121.18 L 56.16 115.78 L 60.20 115.78 L 64.24 112.00 L 68.28 108.22 L 72.32 108.22 L 76.35 108.22 L 80.39 108.22 L 84.43 108.22 L 88.47 108.22 L 92.51 108.22 L 96.55 108.22 L 100.59 108.22 L 104.63 108.22 L 108.67 108.22 L 112.71 108.22 L 116.75 108.22 L 120.79 108.22 L 124.83 108.22 L 128.87 109.21 L 132.91 109.12 L 136.95 108.76 L 140.99 108.76 L 145.02 108.76 L 149.06 108.76 L 153.10 108.76 L 157.14 108.76 L 161.18 108.76 L 165.22 108.76 L 169.26 108.76 L 173.30 108.76 L 177.34 108.76 L 181.38 108.76 L 185.42 108.76 L 189.46 108.76 L 193.50 108.76 L 197.54 108.76 L 201.58 108.76 L 205.62 108.76 L 209.66 108.76 L 213.69 108.76 L 217.73 108.76 L 221.77 108.76 L 225.81 108.76 L 229.85 108.76 L 233.89 108.76 L 237.93 108.76 L 241.97 108.76 L 246.01 108.76 L 250.05 108.76 L 254.09 108.76 L 258.13 108.76 L 262.17 108.76 L 266.21 108.76 L 270.25 108.76 L 274.29 108.76 L 278.33 108.76 L 282.36 108.76 L 286.40 108.76 L 290.44 108.76 L 294.48 108.76 L 298.52 108.76 L 302.56 108.76 L 306.60 108.76 L 310.64 108.76 L 314.68 108.76 L 318.72 108.76 L 322.76 108.76 L 326.80 108.76 L 330.84 108.76 L 334.88 108.76 L 338.92 108.76 L 342.96 108.76 L 347.00 108.76 L 351.03 108.76 L 355.07 108.76 L 359.11 108.76 L 363.15 108.76 L 367.19 108.76 L 371.23 108.76 L 375.27 108.76 L 379.31 108.76 L 383.35 108.76 L 387.39 108.76 L 391.43 108.76 L 395.47 108.76 L 399.51 108.76 L 403.55 108.76 L 407.59 108.76 L 411.63 108.76 L 415.67 108.76 L 419.70 108.76 L 423.74 108.76 L 427.78 108.76 L 431.82 108.76 L 435.86 108.76 L 439.90 108.76 L 443.94 108.76 L 447.98 108.76 L 452.02 108.76 L 456.06 108.76 L 460.10 108.76 L 464.14 108.76 L 468.18 108.76 L 472.22 108.76 L 476.26 108.76 L 480.30 108.76 L 484.33 108.76 L 488.37 108.76 L 492.41 108.76 L 496.45 108.76 L 500.49 108.76 L 504.53 108.76 L 508.57 108.76 L 512.61 108.76 L 516.65 108.76 L 520.69 108.76 L 524.73 108.76 L 528.77 108.76 L 532.81 108.76 L 536.85 108.76 L 540.89 108.76 L 544.93 108.76 L 548.97 108.76 L 553.00 108.76 L 557.04 108.76 L 561.08 108.76 L 565.12 108.76 L 569.16 108.76 L 573.20 108.76 L 577.24 108.76 L 581.28 108.76 L 585.32 108.76 L 589.36 108.76 L 593.40 108.76 L 597.44 108.76 L 601.48 108.76 L 605.52 108.76 L 609.56 108.76 L 613.60 108.76 L 617.64 108.94 L 621.67 100.39 L 625.71 81.40 L 629.75 81.40 L 633.79 81.40 L 637.83 81.40 L 641.87 81.40 L 645.91 70.78 L 649.95 70.78 L 653.99 70.78 L 658.03 70.78 L 662.07 70.78 L 666.11 70.78 L 670.15 70.78 L 674.19 70.78 L 678.23 70.78 L 682.27 70.78 L 686.31 70.78 L 690.34 70.78 L 694.38 70.78 L 698.42 70.78 L 702.46 70.78 L 706.50 70.78 L 710.54 70.78 L 714.58 70.78 L 718.62 70.78 L 722.66 70.78 L 726.70 70.78 L 730.74 70.78 L 734.78 70.78 L 738.82 70.78 L 742.86 70.78 L 746.90 70.78 L 750.94 70.78 L 754.98 70.78 L 759.01 70.78 L 763.05 70.78 L 767.09 70.78 L 771.13 70.78 L 775.17 70.78 L 779.21 70.78 L 783.25 70.78 L 787.29 70.78 L 791.33 70.78 L 795.37 70.78 L 799.41 70.78 L 803.45 70.78 L 807.49 70.78 L 811.53 70.78 L 815.57 70.78 L 819.61 70.78 L 823.65 70.78 L 827.68 70.78 L 831.72 70.78 L 835.76 70.78 L 839.80 70.78 L 843.84 70.78 L 847.88 70.78 L 851.92 70.78 L 855.96 70.78 L 860.00 70.78" fill="none" stroke="#111827" stroke-width="2"/>
    <circle cx="860.00" cy="70.78" r="3" fill="#111827"/>
    <text x="40.00" y="235.00" font-size="9" fill="#111827" text-anchor="middle" transform="rotate(-45 40.00 235.00)">28.08.2025</text><text x="120.79" y="235.00" font-size="9" fill="#111827" text-anchor="middle" transform="rotate(-45 120.79 235.00)">28.08.2025</text><text x="201.58" y="235.00" font-size="9" fill="#111827" text-anchor="middle" transform="rotate(-45 201.58 235.00)">09.09.2025</text><text x="282.36" y="235.00" font-size="9" fill="#111827" text-anchor="middle" transform="rotate(-45 282.36 235.00)">23.09.2025</text><text x="363.15" y="235.00" font-size="9" fill="#111827" text-anchor="middle" transform="rotate(-45 363.15 235.00)">12.10.2025</text><text x="443.94" y="235.00" font-size="9" fill="#111827" text-anchor="middle" transform="rotate(-45 443.94 235.00)">30.10.2025</text><text x="524.73" y="235.00" font-size="9" fill="#111827" text-anchor="middle" transform="rotate(-45 524.73 235.00)">19.11.2025</text><text x="605.52" y="235.00" font-size="9" fill="#111827" text-anchor="middle" transform="rotate(-45 605.52 235.00)">02.12.2025</text><text x="686.31" y="235.00" font-size="9" fill="#111827" text-anchor="middle" transform="rotate(-45 686.31 235.00)">12.12.2025</text><text x="767.09" y="235.00" font-size="9" fill="#111827" text-anchor="middle" transform="rotate(-45 767.09 235.00)">30.12.2025</text><text x="847.88" y="235.00" font-size="9" fill="#111827" text-anchor="middle" transform="rotate(-45 847.88 235.00)">17.01.2026</text>
  </g>
</svg>