<svg xmlns="http://www.w3.org/2000/svg" width="900" height="290" style="font-family: -apple-system, BlinkMacSystemFont, 'Segoe UI', Helvetica, Arial, sans-serif;">
  <rect width="100%" height="100%" fill="#0d1117"/>
  <g>
    <line x1="40" y1="220.00" x2="860" y2="220.00" stroke="#30363d"/><text x="32" y="224.00" font-size="10" fill="#c9d1d9" text-anchor="end">0</text><line x1="40" y1="175.00" x2="860" y2="175.00" stroke="#30363d"/><text x="32" y="179.00" font-size="10" fill="#c9d1d9" text-anchor="end">500</text><line x1="40" y1="130.00" x2="860" y2="130.00" stroke="#30363d"/><text x="32" y="134.00" font-size="10" fill="#c9d1d9" text-anchor="end">1k</text><line x1="40" y1="85.00" x2="860" y2="85.00" stroke="#30363d"/><text x="32" y="89.00" font-size="10" fill="#c9d1d9" text-anchor="end">1.5k</text><line x1="40" y1="40.00" x2="860" y2="40.00" stroke="#30363d"/><text x="32" y="44.00" font-size="10" fill="#c9d1d9" text-anchor="end">2k</text>
    <line x1="40.00" y1="40" x2="40.00" y2="220" stroke="#30363d" opacity="0.5"/><line x1="122.00" y1="40" x2="122.00" y2="220" stroke="#30363d" opacity="0.5"/><line x1="204.00" y1="40" x2="204.00" y2="220" stroke="#30363d" opacity="0.5"/><line x1="286.00" y1="40" x2="286.00" y2="220" stroke="#30363d" opacity="0.5"/><line x1="368.00" y1="40" x2="368.00" y2="220" stroke="#30363d" opacity="0.5"/><line x1="450.00" y1="40" x2="450.00" y2="220" stroke="#30363d" opacity="0.5"/><line x1="532.00" y1="40" x2="532.00" y2="220" stroke="#30363d" opacity="0.5"/><line x1="614.00" y1="40" x2="614.00" y2="220" stroke="#30363d" opacity="0.5"/><line x1="696.00" y1="40" x2="696.00" y2="220" stroke="#30363d" opacity="0.5"/><line x1="778.00" y1="40" x2="778.00" y2="220" stroke="#30363d" opacity="0.5"/><line x1="860.00" y1="40" x2="860.00" y2="220" stroke="#30363d" opacity="0.5"/>
    <line x1="40" y1="220" x2="860" y2="220" stroke="#30363d"/>
    <line x1="40" y1="40"   x2="40"   y2="220" stroke="#30363d"/>
    <path d="M 40.00 166.63 L 45.47 166.00 L 50.93 166.00 L 56.40 121.18 L 61.87 115.78 L 67.33 115.78 L 72.80 112.00 L 78.27 108.22 L 83.73 108.22 L 89.20 108.22 L 94.67 108.22 L 100.13 108.22 L 105.60 108.22 L 111.07 108.22 L 116.53 108.22 L 122.00 108.22 L 127.47 108.22 L 132.93 108.22 L 138.40 108.22 L 143.87 108.22 L 149.33 108.22 L 154.80 108.22 L 160.27 109.21 L 165.73 109.12 L 171.20 108.76 L 176.67 108.76 L 182.13 108.76 L 187.60 108.76 L 193.07 108.76 L 198.53 108.76 L 204.00 108.76 L 209.47 108.76 L 214.93 108.76 L 220.40 108.76 L 225.87 108.76 L 231.33 108.76 L 236.80 108.76 L 242.27 108.76 L 247.73 108.76 L 253.20 108.76 L 258.67 108.76 L 264.13 108.76 L 269.60 108.76 L 275.07 108.76 L 280.53 108.76 L 286.00 108.76 L 291.47 108.76 L 296.93 108.76 L 302.40 108.76 L 307.87 108.76 L 313.33 108.76 L 318.80 108.76 L 324.27 108.76 L 329.73 108.76 L 335.20 108.76 L 340.67 108.76 L 346.13 108.76 L 351.60 108.76 L 357.07 108.76 L 362.53 108.76 L 368.00 108.76 L 373.47 108.76 L 378.93 108.76 L 384.40 108.76 L 389.87 108.76 L 395.33 108.76 L 400.80 108.76 L 406.27 108.76 L 411.73 108.76 L 417.20 108.76 L 422.67 108.76 L 428.13 108.76 L 433.60 108.76 L 439.07 108.76 L 444.53 108.76 L 450.00 108.76 L 455.47 108.76 L 460.93 108.76 L 466.40 108.76 L 471.87 108.76 L 477.33 108.76 L 482.80 108.76 L 488.27 108.76 L 493.73 108.76 L 499.20 108.76 L 504.67 108.76 L 510.13 108.76 L 515.60 108.76 L 521.07 108.76 L 526.53 108.76 L 532.00 108.76 L 537.47 108.76 L 542.93 108.76 L 548.40 108.76 L 553.87 108.76 L 559.33 108.76 L 564.80 108.76 L 570.27 108.76 L 575.73 108.76 L 581.20 108.76 L 586.67 108.76 L 592.13 108.76 L 597.60 108.76 L 603.07 108.76 L 608.53 108.76 L 614.00 108.76 L 619.47 108.76 L 624.93 108.76 L 630.40 108.76 L 635.87 108.76 L 641.33 108.76 L 646.80 108.76 L 652.27 108.76 L 657.73 108.76 L 663.20 108.76 L 668.67 108.76 L 674.13 108.76 L 679.60 108.76 L 685.07 108.76 L 690.53 108.76 L 696.00 108.76 L 701.47 108.76 L 706.93 108.76 L 712.40 108.76 L 717.87 108.76 L 723.33 108.76 L 728.80 108.76 L 734.27 108.76 L 739.73 108.76 L 745.20 108.76 L 750.67 108.76 L 756.13 108.76 L 761.60 108.76 L 767.07 108.76 L 772.53 108.76 L 778.00 108.76 L 783.47 108.76 L 788.93 108.76 L 794.40 108.76 L 799.87 108.76 L 805.33 108.76 L 810.80 108.76 L 816.27 108.76 L 821.73 108.94 L 827.20 100.39 L 832.67 81.40 L 838.13 81.40 L 843.60 81.40 L 849.07 81.40 L 854.53 81.40 L 860.00 70.78" fill="none" stroke="#3fb950" stroke-width="2"/>
    <circle cx="860.00" cy="70.78" r="3" fill="#3fb950"/>
    <text x="40.00" y="235.00" font-size="9" fill="#c9d1d9" text-anchor="middle" transform="rotate(-45 40.00 235.00)">28.08.2025</text><text x="122.00" y="235.00" font-size="9" fill="#c9d1d9" text-anchor="middle" transform="rotate(-45 122.00 235.00)">28.08.2025</text><text x="204.00" y="235.00" font-size="9" fill="#c9d1d9" text-anchor="middle" transform="rotate(-45 204.00 235.00)">01.09.2025</text><text x="286.00" y="235.00" font-size="9" fill="#c9d1d9" text-anchor="middle" transform="rotate(-45 286.00 235.00)">14.09.2025</text><text x="368.00" y="235.00" font-size="9" fill="#c9d1d9" text-anchor="middle" transform="rotate(-45 368.00 235.00)">23.09.2025</text><text x="450.00" y="235.00" font-size="9" fill="#c9d1d9" text-anchor="middle" transform="rotate(-45 450.00 235.00)">07.10.2025</text><text x="532.00" y="235.00" font-size="9" fill="#c9d1d9" text-anchor="middle" transform="rotate(-45 532.00 235.00)">22.10.2025</text><text x="614.00" y="235.00" font-size="9" fill="#c9d1d9" text-anchor="middle" transform="rotate(-45 614.00 235.00)">04.11.2025</text><text x="696.00" y="235.00" font-size="9" fill="#c9d1d9" text-anchor="middle" transform="rotate(-45 696.00 235.00)">19.11.2025</text><text x="778.00" y="235.00" font-size="9" fill="#c9d1d9" text-anchor="middle" transform="rotate(-45 778.00 235.00)">28.11.2025</text><text x="860.00" y="235.00" font-size="9" fill="#c9d1d9" text-anchor="middle" transform="rotate(-45 860.00 235.00)">07.12.2025</text>
  </g>
</svg>