<svg xmlns="http://www.w3.org/2000/svg" width="900" height="290" style="font-family: -apple-system, BlinkMacSystemFont, 'Segoe UI', Helvetica, Arial, sans-serif;">
  <rect width="100%" height="100%" fill="#0d1117"/>
  <g>
    <line x1="40" y1="220.00" x2="860" y2="220.00" stroke="#30363d"/><text x="32" y="224.00" font-size="10" fill="#c9d1d9" text-anchor="end">0</text><line x1="40" y1="175.00" x2="860" y2="175.00" stroke="#30363d"/><text x="32" y="179.00" font-size="10" fill="#c9d1d9" text-anchor="end">500</text><line x1="40" y1="130.00" x2="860" y2="130.00" stroke="#30363d"/><text x="32" y="134.00" font-size="10" fill="#c9d1d9" text-anchor="end">1k</text><line x1="40" y1="85.00" x2="860" y2="85.00" stroke="#30363d"/><text x="32" y="89.00" font-size="10" fill="#c9d1d9" text-anchor="end">1.5k</text><line x1="40" y1="40.00" x2="860" y2="40.00" stroke="#30363d"/><text x="32" y="44.00" font-size="10" fill="#c9d1d9" text-anchor="end">2k</text>
    <line x1="40.00" y1="40" x2="40.00" y2="220" stroke="#30363d" opacity="0.5"/><line x1="118.51" y1="40" x2="118.51" y2="220" stroke="#30363d" opacity="0.5"/><line x1="197.02" y1="40" x2="197.02" y2="220" stroke="#30363d" opacity="0.5"/><line x1="275.53" y1="40" x2="275.53" y2="220" stroke="#30363d" opacity="0.5"/><line x1="354.04" y1="40" x2="354.04" y2="220" stroke="#30363d" opacity="0.5"/><line x1="432.55" y1="40" x2="432.55" y2="220" stroke="#30363d" opacity="0.5"/><line x1="511.06" y1="40" x2="511.06" y2="220" stroke="#30363d" opacity="0.5"/><line x1="589.57" y1="40" x2="589.57" y2="220" stroke="#30363d" opacity="0.5"/><line x1="668.09" y1="40" x2="668.09" y2="220" stroke="#30363d" opacity="0.5"/><line x1="746.60" y1="40" x2="746.60" y2="220" stroke="#30363d" opacity="0.5"/><line x1="825.11" y1="40" x2="825.11" y2="220" stroke="#30363d" opacity="0.5"/>
    <line x1="40" y1="220" x2="860" y2="220" stroke="#30363d"/>
    <line x1="40" y1="40"   x2="40"   y2="220" stroke="#30363d"/>
    <path d="M 40.00 166.63 L 44.36 166.00 L 48.72 166.00 L 53.09 121.18 L 57.45 115.78 L 61.81 115.78 L 66.17 112.00 L 70.53 108.22 L 74.89 108.22 L 79.26 108.22 L 83.62 108.22 L 87.98 108.22 L 92.34 108.22 L 96.70 108.22 L 101.06 108.22 L 105.43 108.22 L 109.79 108.22 L 114.15 108.22 L 118.51 108.22 L 122.87 108.22 L 127.23 108.22 L 131.60 108.22 L 135.96 109.21 L 140.32 109.12 L 144.68 108.76 L 149.04 108.76 L 153.40 108.76 L 157.77 108.76 L 162.13 108.76 L 166.49 108.76 L 170.85 108.76 L 175.21 108.76 L 179.57 108.76 L 183.94 108.76 L 188.30 108.76 L 192.66 108.76 L 197.02 108.76 L 201.38 108.76 L 205.74 108.76 L 210.11 108.76 L 214.47 108.76 L 218.83 108.76 L 223.19 108.76 L 227.55 108.76 L 231.91 108.76 L 236.28 108.76 L 240.64 108.76 L 245.00 108.76 L 249.36 108.76 L 253.72 108.76 L 258.09 108.76 L 262.45 108.76 L 266.81 108.76 L 271.17 108.76 L 275.53 108.76 L 279.89 108.76 L 284.26 108.76 L 288.62 108.76 L 292.98 108.76 L 297.34 108.76 L 301.70 108.76 L 306.06 108.76 L 310.43 108.76 L 314.79 108.76 L 319.15 108.76 L 323.51 108.76 L 327.87 108.76 L 332.23 108.76 L 336.60 108.76 L 340.96 108.76 L 345.32 108.76 L 349.68 108.76 L 354.04 108.76 L 358.40 108.76 L 362.77 108.76 L 367.13 108.76 L 371.49 108.76 L 375.85 108.76 L 380.21 108.76 L 384.57 108.76 L 388.94 108.76 L 393.30 108.76 L 397.66 108.76 L 402.02 108.76 L 406.38 108.76 L 410.74 108.76 L 415.11 108.76 L 419.47 108.76 L 423.83 108.76 L 428.19 108.76 L 432.55 108.76 L 436.91 108.76 L 441.28 108.76 L 445.64 108.76 L 450.00 108.76 L 454.36 108.76 L 458.72 108.76 L 463.09 108.76 L 467.45 108.76 L 471.81 108.76 L 476.17 108.76 L 480.53 108.76 L 484.89 108.76 L 489.26 108.76 L 493.62 108.76 L 497.98 108.76 L 502.34 108.76 L 506.70 108.76 L 511.06 108.76 L 515.43 108.76 L 519.79 108.76 L 524.15 108.76 L 528.51 108.76 L 532.87 108.76 L 537.23 108.76 L 541.60 108.76 L 545.96 108.76 L 550.32 108.76 L 554.68 108.76 L 559.04 108.76 L 563.40 108.76 L 567.77 108.76 L 572.13 108.76 L 576.49 108.76 L 580.85 108.76 L 585.21 108.76 L 589.57 108.76 L 593.94 108.76 L 598.30 108.76 L 602.66 108.76 L 607.02 108.76 L 611.38 108.76 L 615.74 108.76 L 620.11 108.76 L 624.47 108.76 L 628.83 108.76 L 633.19 108.76 L 637.55 108.76 L 641.91 108.76 L 646.28 108.76 L 650.64 108.76 L 655.00 108.76 L 659.36 108.76 L 663.72 108.94 L 668.09 100.39 L 672.45 81.40 L 676.81 81.40 L 681.17 81.40 L 685.53 81.40 L 689.89 81.40 L 694.26 70.78 L 698.62 70.78 L 702.98 70.78 L 707.34 70.78 L 711.70 70.78 L 716.06 70.78 L 720.43 70.78 L 724.79 70.78 L 729.15 70.78 L 733.51 70.78 L 737.87 70.78 L 742.23 70.78 L 746.60 70.78 L 750.96 70.78 L 755.32 70.78 L 759.68 70.78 L 764.04 70.78 L 768.40 70.78 L 772.77 70.78 L 777.13 70.78 L 781.49 70.78 L 785.85 70.78 L 790.21 70.78 L 794.57 70.78 L 798.94 70.78 L 803.30 70.78 L 807.66 70.78 L 812.02 70.78 L 816.38 70.78 L 820.74 70.78 L 825.11 70.78 L 829.47 70.78 L 833.83 70.78 L 838.19 70.78 L 842.55 70.78 L 846.91 70.78 L 851.28 70.78 L 855.64 70.78 L 860.00 70.78" fill="none" stroke="#3fb950" stroke-width="2"/>
    <circle cx="860.00" cy="70.78" r="3" fill="#3fb950"/>
    <text x="40.00" y="235.00" font-size="9" fill="#c9d1d9" text-anchor="middle" transform="rotate(-45 40.00 235.00)">28.08.2025</text><text x="118.51" y="235.00" font-size="9" fill="#c9d1d9" text-anchor="middle" transform="rotate(-45 118.51 235.00)">28.08.2025</text><text x="197.02" y="235.00" font-size="9" fill="#c9d1d9" text-anchor="middle" transform="rotate(-45 197.02 235.00)">07.09.2025</text><text x="275.53" y="235.00" font-size="9" fill="#c9d1d9" text-anchor="middle" transform="rotate(-45 275.53 235.00)">17.09.2025</text><text x="354.04" y="235.00" font-size="9" fill="#c9d1d9" text-anchor="middle" transform="rotate(-45 354.04 235.00)">05.10.2025</text><text x="432.55" y="235.00" font-size="9" fill="#c9d1d9" text-anchor="middle" transform="rotate(-45 432.55 235.00)">22.10.2025</text><text x="511.06" y="235.00" font-size="9" fill="#c9d1d9" text-anchor="middle" transform="rotate(-45 511.06 235.00)">07.11.2025</text><text x="589.57" y="235.00" font-size="9" fill="#c9d1d9" text-anchor="middle" transform="rotate(-45 589.57 235.00)">24.11.2025</text><text x="668.09" y="235.00" font-size="9" fill="#c9d1d9" text-anchor="middle" transform="rotate(-45 668.09 235.00)">04.12.2025</text><text x="746.60" y="235.00" font-size="9" fill="#c9d1d9" text-anchor="middle" transform="rotate(-45 746.60 235.00)">14.12.2025</text><text x="825.11" y="235.00" font-size="9" fill="#c9d1d9" text-anchor="middle" transform="rotate(-45 825.11 235.00)">30.12.2025</text>
  </g>
</svg>