<svg xmlns="http://www.w3.org/2000/svg" width="900" height="290" style="font-family: -apple-system, BlinkMacSystemFont, 'Segoe UI', Helvetica, Arial, sans-serif;">
  <rect width="100%" height="100%" fill="#0d1117"/>
  <g>
    <line x1="40" y1="220.00" x2="860" y2="220.00" stroke="#30363d"/><text x="32" y="224.00" font-size="10" fill="#c9d1d9" text-anchor="end">0</text><line x1="40" y1="175.00" x2="860" y2="175.00" stroke="#30363d"/><text x="32" y="179.00" font-size="10" fill="#c9d1d9" text-anchor="end">500</text><line x1="40" y1="130.00" x2="860" y2="130.00" stroke="#30363d"/><text x="32" y="134.00" font-size="10" fill="#c9d1d9" text-anchor="end">1k</text><line x1="40" y1="85.00" x2="860" y2="85.00" stroke="#30363d"/><text x="32" y="89.00" font-size="10" fill="#c9d1d9" text-anchor="end">1.5k</text><line x1="40" y1="40.00" x2="860" y2="40.00" stroke="#30363d"/><text x="32" y="44.00" font-size="10" fill="#c9d1d9" text-anchor="end">2k</text>
    <line x1="40.00" y1="40" x2="40.00" y2="220" stroke="#30363d" opacity="0.5"/><line x1="120.60" y1="40" x2="120.60" y2="220" stroke="#30363d" opacity="0.5"/><line x1="201.20" y1="40" x2="201.20" y2="220" stroke="#30363d" opacity="0.5"/><line x1="281.79" y1="40" x2="281.79" y2="220" stroke="#30363d" opacity="0.5"/><line x1="362.39" y1="40" x2="362.39" y2="220" stroke="#30363d" opacity="0.5"/><line x1="442.99" y1="40" x2="442.99" y2="220" stroke="#30363d" opacity="0.5"/><line x1="523.59" y1="40" x2="523.59" y2="220" stroke="#30363d" opacity="0.5"/><line x1="604.19" y1="40" x2="604.19" y2="220" stroke="#30363d" opacity="0.5"/><line x1="684.79" y1="40" x2="684.79" y2="220" stroke="#30363d" opacity="0.5"/><line x1="765.38" y1="40" x2="765.38" y2="220" stroke="#30363d" opacity="0.5"/><line x1="845.98" y1="40" x2="845.98" y2="220" stroke="#30363d" opacity="0.5"/>
    <line x1="40" y1="220" x2="860" y2="220" stroke="#30363d"/>
    <line x1="40" y1="40"   x2="40"   y2="220" stroke="#30363d"/>
    <path d="M 40.00 166.63 L 43.50 166.00 L 47.01 166.00 L 50.51 121.18 L 54.02 115.78 L 57.52 115.78 L 61.03 112.00 L 64.53 108.22 L 68.03 108.22 L 71.54 108.22 L 75.04 108.22 L 78.55 108.22 L 82.05 108.22 L 85.56 108.22 L 89.06 108.22 L 92.56 108.22 L 96.07 108.22 L 99.57 108.22 L 103.08 108.22 L 106.58 108.22 L 110.09 108.22 L 113.59 108.22 L 117.09 109.21 L 120.60 109.12 L 124.10 108.76 L 127.61 108.76 L 131.11 108.76 L 134.62 108.76 L 138.12 108.76 L 141.62 108.76 L 145.13 108.76 L 148.63 108.76 L 152.14 108.76 L 155.64 108.76 L 159.15 108.76 L 162.65 108.76 L 166.15 108.76 L 169.66 108.76 L 173.16 108.76 L 176.67 108.76 L 180.17 108.76 L 183.68 108.76 L 187.18 108.76 L 190.68 108.76 L 194.19 108.76 L 197.69 108.76 L 201.20 108.76 L 204.70 108.76 L 208.21 108.76 L 211.71 108.76 L 215.21 108.76 L 218.72 108.76 L 222.22 108.76 L 225.73 108.76 L 229.23 108.76 L 232.74 108.76 L 236.24 108.76 L 239.74 108.76 L 243.25 108.76 L 246.75 108.76 L 250.26 108.76 L 253.76 108.76 L 257.26 108.76 L 260.77 108.76 L 264.27 108.76 L 267.78 108.76 L 271.28 108.76 L 274.79 108.76 L 278.29 108.76 L 281.79 108.76 L 285.30 108.76 L 288.80 108.76 L 292.31 108.76 L 295.81 108.76 L 299.32 108.76 L 302.82 108.76 L 306.32 108.76 L 309.83 108.76 L 313.33 108.76 L 316.84 108.76 L 320.34 108.76 L 323.85 108.76 L 327.35 108.76 L 330.85 108.76 L 334.36 108.76 L 337.86 108.76 L 341.37 108.76 L 344.87 108.76 L 348.38 108.76 L 351.88 108.76 L 355.38 108.76 L 358.89 108.76 L 362.39 108.76 L 365.90 108.76 L 369.40 108.76 L 372.91 108.76 L 376.41 108.76 L 379.91 108.76 L 383.42 108.76 L 386.92 108.76 L 390.43 108.76 L 393.93 108.76 L 397.44 108.76 L 400.94 108.76 L 404.44 108.76 L 407.95 108.76 L 411.45 108.76 L 414.96 108.76 L 418.46 108.76 L 421.97 108.76 L 425.47 108.76 L 428.97 108.76 L 432.48 108.76 L 435.98 108.76 L 439.49 108.76 L 442.99 108.76 L 446.50 108.76 L 450.00 108.76 L 453.50 108.76 L 457.01 108.76 L 460.51 108.76 L 464.02 108.76 L 467.52 108.76 L 471.03 108.76 L 474.53 108.76 L 478.03 108.76 L 481.54 108.76 L 485.04 108.76 L 488.55 108.76 L 492.05 108.76 L 495.56 108.76 L 499.06 108.76 L 502.56 108.76 L 506.07 108.76 L 509.57 108.76 L 513.08 108.76 L 516.58 108.76 L 520.09 108.76 L 523.59 108.76 L 527.09 108.76 L 530.60 108.76 L 534.10 108.76 L 537.61 108.76 L 541.11 108.94 L 544.62 100.39 L 548.12 81.40 L 551.62 81.40 L 555.13 81.40 L 558.63 81.40 L 562.14 81.40 L 565.64 70.78 L 569.15 70.78 L 572.65 70.78 L 576.15 70.78 L 579.66 70.78 L 583.16 70.78 L 586.67 70.78 L 590.17 70.78 L 593.68 70.78 L 597.18 70.78 L 600.68 70.78 L 604.19 70.78 L 607.69 70.78 L 611.20 70.78 L 614.70 70.78 L 618.21 70.78 L 621.71 70.78 L 625.21 70.78 L 628.72 70.78 L 632.22 70.78 L 635.73 70.78 L 639.23 70.78 L 642.74 70.78 L 646.24 70.78 L 649.74 70.78 L 653.25 70.78 L 656.75 70.78 L 660.26 70.78 L 663.76 70.78 L 667.26 70.78 L 670.77 70.78 L 674.27 70.78 L 677.78 70.78 L 681.28 70.78 L 684.79 70.78 L 688.29 70.78 L 691.79 70.78 L 695.30 70.78 L 698.80 70.78 L 702.31 70.78 L 705.81 70.78 L 709.32 70.78 L 712.82 70.78 L 716.32 70.78 L 719.83 70.78 L 723.33 70.78 L 726.84 70.78 L 730.34 70.78 L 733.85 70.78 L 737.35 70.78 L 740.85 70.78 L 744.36 70.78 L 747.86 70.78 L 751.37 70.78 L 754.87 70.78 L 758.38 70.78 L 761.88 70.78 L 765.38 70.78 L 768.89 70.78 L 772.39 70.78 L 775.90 70.78 L 779.40 70.78 L 782.91 70.78 L 786.41 70.78 L 789.91 70.78 L 793.42 70.78 L 796.92 70.78 L 800.43 70.78 L 803.93 70.78 L 807.44 70.78 L 810.94 70.78 L 814.44 70.78 L 817.95 70.78 L 821.45 70.78 L 824.96 70.78 L 828.46 70.78 L 831.97 70.78 L 835.47 70.78 L 838.97 70.78 L 842.48 70.78 L 845.98 70.78 L 849.49 70.78 L 852.99 70.78 L 856.50 70.78 L 860.00 70.78" fill="none" stroke="#3fb950" stroke-width="2"/>
    <circle cx="860.00" cy="70.78" r="3" fill="#3fb950"/>
    <text x="40.00" y="235.00" font-size="9" fill="#c9d1d9" text-anchor="middle" transform="rotate(-45 40.00 235.00)">28.08.2025</text><text x="120.60" y="235.00" font-size="9" fill="#c9d1d9" text-anchor="middle" transform="rotate(-45 120.60 235.00)">28.08.2025</text><text x="201.20" y="235.00" font-size="9" fill="#c9d1d9" text-anchor="middle" transform="rotate(-45 201.20 235.00)">15.09.2025</text><text x="281.79" y="235.00" font-size="9" fill="#c9d1d9" text-anchor="middle" transform="rotate(-45 281.79 235.00)">02.10.2025</text><text x="362.39" y="235.00" font-size="9" fill="#c9d1d9" text-anchor="middle" transform="rotate(-45 362.39 235.00)">24.10.2025</text><text x="442.99" y="235.00" font-size="9" fill="#c9d1d9" text-anchor="middle" transform="rotate(-45 442.99 235.00)">14.11.2025</text><text x="523.59" y="235.00" font-size="9" fill="#c9d1d9" text-anchor="middle" transform="rotate(-45 523.59 235.00)">30.11.2025</text><text x="604.19" y="235.00" font-size="9" fill="#c9d1d9" text-anchor="middle" transform="rotate(-45 604.19 235.00)">13.12.2025</text><text x="684.79" y="235.00" font-size="9" fill="#c9d1d9" text-anchor="middle" transform="rotate(-45 684.79 235.00)">03.01.2026</text><text x="765.38" y="235.00" font-size="9" fill="#c9d1d9" text-anchor="middle" transform="rotate(-45 765.38 235.00)">24.01.2026</text><text x="845.98" y="235.00" font-size="9" fill="#c9d1d9" text-anchor="middle" transform="rotate(-45 845.98 235.00)">15.02.2026</text>
  </g>
</svg>