<svg xmlns="http://www.w3.org/2000/svg" width="900" height="290" style="font-family: -apple-system, BlinkMacSystemFont, 'Segoe UI', Helvetica, Arial, sans-serif;">
  <rect width="100%" height="100%" fill="white"/>
  <g>
    <line x1="40" y1="220.00" x2="860" y2="220.00" stroke="#e5e7eb"/><text x="32" y="224.00" font-size="10" fill="#111827" text-anchor="end">0</text><line x1="40" y1="175.00" x2="860" y2="175.00" stroke="#e5e7eb"/><text x="32" y="179.00" font-size="10" fill="#111827" text-anchor="end">500</text><line x1="40" y1="130.00" x2="860" y2="130.00" stroke="#e5e7eb"/><text x="32" y="134.00" font-size="10" fill="#111827" text-anchor="end">1k</text><line x1="40" y1="85.00" x2="860" y2="85.00" stroke="#e5e7eb"/><text x="32" y="89.00" font-size="10" fill="#111827" text-anchor="end">1.5k</text><line x1="40" y1="40.00" x2="860" y2="40.00" stroke="#e5e7eb"/><text x="32" y="44.00" font-size="10" fill="#111827" text-anchor="end">2k</text>
    <line x1="40.00" y1="40" x2="40.00" y2="220" stroke="#e5e7eb" opacity="0.5"/><line x1="117.81" y1="40" x2="117.81" y2="220" stroke="#e5e7eb" opacity="0.5"/><line x1="195.62" y1="40" x2="195.62" y2="220" stroke="#e5e7eb" opacity="0.5"/><line x1="273.43" y1="40" x2="273.43" y2="220" stroke="#e5e7eb" opacity="0.5"/><line x1="351.24" y1="40" x2="351.24" y2="220" stroke="#e5e7eb" opacity="0.5"/><line x1="429.05" y1="40" x2="429.05" y2="220" stroke="#e5e7eb" opacity="0.5"/><line x1="506.86" y1="40" x2="506.86" y2="220" stroke="#e5e7eb" opacity="0.5"/><line x1="584.67" y1="40" x2="584.67" y2="220" stroke="#e5e7eb" opacity="0.5"/><line x1="662.48" y1="40" x2="662.48" y2="220" stroke="#e5e7eb" opacity="0.5"/><line x1="740.29" y1="40" x2="740.29" y2="220" stroke="#e5e7eb" opacity="0.5"/><line x1="818.10" y1="40" x2="818.10" y2="220" stroke="#e5e7eb" opacity="0.5"/>
    <line x1="40" y1="220" x2="860" y2="220" stroke="#9ca3af"/>
    <line x1="40" y1="40"   x2="40"   y2="220" stroke="#9ca3af"/>
    <path d="M 40.00 166.63 L 45.99 166.00 L 51.97 166.00 L 57.96 121.18 L 63.94 115.78 L 69.93 115.78 L 75.91 112.00 L 81.90 108.22 L 87.88 108.22 L 93.87 108.22 L 99.85 108.22 L 105.84 108.22 L 111.82 108.22 L 117.81 108.22 L 123.80 108.22 L 129.78 108.22 L 135.77 108.22 L 141.75 108.22 L 147.74 108.22 L 153.72 108.22 L 159.71 108.22 L 165.69 108.22 L 171.68 109.21 L 177.66 109.12 L 183.65 108.76 L 189.64 108.76 L 195.62 108.76 L 201.61 108.76 L 207.59 108.76 L 213.58 108.76 L 219.56 108.76 L 225.55 108.76 L 231.53 108.76 L 237.52 108.76 L 243.50 108.76 L 249.49 108.76 L 255.47 108.76 L 261.46 108.76 L 267.45 108.76 L 273.43 108.76 L 279.42 108.76 L 285.40 108.76 L 291.39 108.76 L 297.37 108.76 L 303.36 108.76 L 309.34 108.76 L 315.33 108.76 L 321.31 108.76 L 327.30 108.76 L 333.28 108.76 L 339.27 108.76 L 345.26 108.76 L 351.24 108.76 L 357.23 108.76 L 363.21 108.76 L 369.20 108.76 L 375.18 108.76 L 381.17 108.76 L 387.15 108.76 L 393.14 108.76 L 399.12 108.76 L 405.11 108.76 L 411.09 108.76 L 417.08 108.76 L 423.07 108.76 L 429.05 108.76 L 435.04 108.76 L 441.02 108.76 L 447.01 108.76 L 452.99 108.76 L 458.98 108.76 L 464.96 108.76 L 470.95 108.76 L 476.93 108.76 L 482.92 108.76 L 488.91 108.76 L 494.89 108.76 L 500.88 108.76 L 506.86 108.76 L 512.85 108.76 L 518.83 108.76 L 524.82 108.76 L 530.80 108.76 L 536.79 108.76 L 542.77 108.76 L 548.76 108.76 L 554.74 108.76 L 560.73 108.76 L 566.72 108.76 L 572.70 108.76 L 578.69 108.76 L 584.67 108.76 L 590.66 108.76 L 596.64 108.76 L 602.63 108.76 L 608.61 108.76 L 614.60 108.76 L 620.58 108.76 L 626.57 108.76 L 632.55 108.76 L 638.54 108.76 L 644.53 108.76 L 650.51 108.76 L 656.50 108.76 L 662.48 108.76 L 668.47 108.76 L 674.45 108.76 L 680.44 108.76 L 686.42 108.76 L 692.41 108.76 L 698.39 108.76 L 704.38 108.76 L 710.36 108.76 L 716.35 108.76 L 722.34 108.76 L 728.32 108.76 L 734.31 108.76 L 740.29 108.76 L 746.28 108.76 L 752.26 108.76 L 758.25 108.76 L 764.23 108.76 L 770.22 108.76 L 776.20 108.76 L 782.19 108.76 L 788.18 108.76 L 794.16 108.76 L 800.15 108.76 L 806.13 108.76 L 812.12 108.76 L 818.10 108.76 L 824.09 108.76 L 830.07 108.76 L 836.06 108.76 L 842.04 108.76 L 848.03 108.76 L 854.01 108.76 L 860.00 108.76" fill="none" stroke="#111827" stroke-width="2"/>
    <circle cx="860.00" cy="108.76" r="3" fill="#111827"/>
    <text x="40.00" y="235.00" font-size="9" fill="#111827" text-anchor="middle" transform="rotate(-45 40.00 235.00)">28.08.2025</text><text x="117.81" y="235.00" font-size="9" fill="#111827" text-anchor="middle" transform="rotate(-45 117.81 235.00)">28.08.2025</text><text x="195.62" y="235.00" font-size="9" fill="#111827" text-anchor="middle" transform="rotate(-45 195.62 235.00)">28.08.2025</text><text x="273.43" y="235.00" font-size="9" fill="#111827" text-anchor="middle" transform="rotate(-45 273.43 235.00)">08.09.2025</text><text x="351.24" y="235.00" font-size="9" fill="#111827" text-anchor="middle" transform="rotate(-45 351.24 235.00)">15.09.2025</text><text x="429.05" y="235.00" font-size="9" fill="#111827" text-anchor="middle" transform="rotate(-45 429.05 235.00)">28.09.2025</text><text x="506.86" y="235.00" font-size="9" fill="#111827" text-anchor="middle" transform="rotate(-45 506.86 235.00)">10.10.2025</text><text x="584.67" y="235.00" font-size="9" fill="#111827" text-anchor="middle" transform="rotate(-45 584.67 235.00)">23.10.2025</text><text x="662.48" y="235.00" font-size="9" fill="#111827" text-anchor="middle" transform="rotate(-45 662.48 235.00)">03.11.2025</text><text x="740.29" y="235.00" font-size="9" fill="#111827" text-anchor="middle" transform="rotate(-45 740.29 235.00)">16.11.2025</text><text x="818.10" y="235.00" font-size="9" fill="#111827" text-anchor="middle" transform="rotate(-45 818.10 235.00)">28.11.2025</text>
  </g>
</svg>