<svg xmlns="http://www.w3.org/2000/svg" width="900" height="290" style="font-family: -apple-system, BlinkMacSystemFont, 'Segoe UI', Helvetica, Arial, sans-serif;">
  <rect width="100%" height="100%" fill="#0d1117"/>
  <g>
    <line x1="40" y1="220.00" x2="860" y2="220.00" stroke="#30363d"/><text x="32" y="224.00" font-size="10" fill="#c9d1d9" text-anchor="end">0</text><line x1="40" y1="175.00" x2="860" y2="175.00" stroke="#30363d"/><text x="32" y="179.00" font-size="10" fill="#c9d1d9" text-anchor="end">500</text><line x1="40" y1="130.00" x2="860" y2="130.00" stroke="#30363d"/><text x="32" y="134.00" font-size="10" fill="#c9d1d9" text-anchor="end">1k</text><line x1="40" y1="85.00" x2="860" y2="85.00" stroke="#30363d"/><text x="32" y="89.00" font-size="10" fill="#c9d1d9" text-anchor="end">1.5k</text><line x1="40" y1="40.00" x2="860" y2="40.00" stroke="#30363d"/><text x="32" y="44.00" font-size="10" fill="#c9d1d9" text-anchor="end">2k</text>
    <line x1="40.00" y1="40" x2="40.00" y2="220" stroke="#30363d" opacity="0.5"/><line x1="120.39" y1="40" x2="120.39" y2="220" stroke="#30363d" opacity="0.5"/><line x1="200.78" y1="40" x2="200.78" y2="220" stroke="#30363d" opacity="0.5"/><line x1="281.18" y1="40" x2="281.18" y2="220" stroke="#30363d" opacity="0.5"/><line x1="361.57" y1="40" x2="361.57" y2="220" stroke="#30363d" opacity="0.5"/><line x1="441.96" y1="40" x2="441.96" y2="220" stroke="#30363d" opacity="0.5"/><line x1="522.35" y1="40" x2="522.35" y2="220" stroke="#30363d" opacity="0.5"/><line x1="602.75" y1="40" x2="602.75" y2="220" stroke="#30363d" opacity="0.5"/><line x1="683.14" y1="40" x2="683.14" y2="220" stroke="#30363d" opacity="0.5"/><line x1="763.53" y1="40" x2="763.53" y2="220" stroke="#30363d" opacity="0.5"/><line x1="843.92" y1="40" x2="843.92" y2="220" stroke="#30363d" opacity="0.5"/>
    <line x1="40" y1="220" x2="860" y2="220" stroke="#30363d"/>
    <line x1="40" y1="40"   x2="40"   y2="220" stroke="#30363d"/>
    <path d="M 40.00 166.63 L 44.02 166.00 L 48.04 166.00 L 52.06 121.18 L 56.08 115.78 L 60.10 115.78 L 64.12 112.00 L 68.14 108.22 L 72.16 108.22 L 76.18 108.22 L 80.20 108.22 L 84.22 108.22 L 88.24 108.22 L 92.25 108.22 L 96.27 108.22 L 100.29 108.22 L 104.31 108.22 L 108.33 108.22 L 112.35 108.22 L 116.37 108.22 L 120.39 108.22 L 124.41 108.22 L 128.43 109.21 L 132.45 109.12 L 136.47 108.76 L 140.49 108.76 L 144.51 108.76 L 148.53 108.76 L 152.55 108.76 L 156.57 108.76 L 160.59 108.76 L 164.61 108.76 L 168.63 108.76 L 172.65 108.76 L 176.67 108.76 L 180.69 108.76 L 184.71 108.76 L 188.73 108.76 L 192.75 108.76 L 196.76 108.76 L 200.78 108.76 L 204.80 108.76 L 208.82 108.76 L 212.84 108.76 L 216.86 108.76 L 220.88 108.76 L 224.90 108.76 L 228.92 108.76 L 232.94 108.76 L 236.96 108.76 L 240.98 108.76 L 245.00 108.76 L 249.02 108.76 L 253.04 108.76 L 257.06 108.76 L 261.08 108.76 L 265.10 108.76 L 269.12 108.76 L 273.14 108.76 L 277.16 108.76 L 281.18 108.76 L 285.20 108.76 L 289.22 108.76 L 293.24 108.76 L 297.25 108.76 L 301.27 108.76 L 305.29 108.76 L 309.31 108.76 L 313.33 108.76 L 317.35 108.76 L 321.37 108.76 L 325.39 108.76 L 329.41 108.76 L 333.43 108.76 L 337.45 108.76 L 341.47 108.76 L 345.49 108.76 L 349.51 108.76 L 353.53 108.76 L 357.55 108.76 L 361.57 108.76 L 365.59 108.76 L 369.61 108.76 L 373.63 108.76 L 377.65 108.76 L 381.67 108.76 L 385.69 108.76 L 389.71 108.76 L 393.73 108.76 L 397.75 108.76 L 401.76 108.76 L 405.78 108.76 L 409.80 108.76 L 413.82 108.76 L 417.84 108.76 L 421.86 108.76 L 425.88 108.76 L 429.90 108.76 L 433.92 108.76 L 437.94 108.76 L 441.96 108.76 L 445.98 108.76 L 450.00 108.76 L 454.02 108.76 L 458.04 108.76 L 462.06 108.76 L 466.08 108.76 L 470.10 108.76 L 474.12 108.76 L 478.14 108.76 L 482.16 108.76 L 486.18 108.76 L 490.20 108.76 L 494.22 108.76 L 498.24 108.76 L 502.25 108.76 L 506.27 108.76 L 510.29 108.76 L 514.31 108.76 L 518.33 108.76 L 522.35 108.76 L 526.37 108.76 L 530.39 108.76 L 534.41 108.76 L 538.43 108.76 L 542.45 108.76 L 546.47 108.76 L 550.49 108.76 L 554.51 108.76 L 558.53 108.76 L 562.55 108.76 L 566.57 108.76 L 570.59 108.76 L 574.61 108.76 L 578.63 108.76 L 582.65 108.76 L 586.67 108.76 L 590.69 108.76 L 594.71 108.76 L 598.73 108.76 L 602.75 108.76 L 606.76 108.76 L 610.78 108.76 L 614.80 108.94 L 618.82 100.39 L 622.84 81.40 L 626.86 81.40 L 630.88 81.40 L 634.90 81.40 L 638.92 81.40 L 642.94 70.78 L 646.96 70.78 L 650.98 70.78 L 655.00 70.78 L 659.02 70.78 L 663.04 70.78 L 667.06 70.78 L 671.08 70.78 L 675.10 70.78 L 679.12 70.78 L 683.14 70.78 L 687.16 70.78 L 691.18 70.78 L 695.20 70.78 L 699.22 70.78 L 703.24 70.78 L 707.25 70.78 L 711.27 70.78 L 715.29 70.78 L 719.31 70.78 L 723.33 70.78 L 727.35 70.78 L 731.37 70.78 L 735.39 70.78 L 739.41 70.78 L 743.43 70.78 L 747.45 70.78 L 751.47 70.78 L 755.49 70.78 L 759.51 70.78 L 763.53 70.78 L 767.55 70.78 L 771.57 70.78 L 775.59 70.78 L 779.61 70.78 L 783.63 70.78 L 787.65 70.78 L 791.67 70.78 L 795.69 70.78 L 799.71 70.78 L 803.73 70.78 L 807.75 70.78 L 811.76 70.78 L 815.78 70.78 L 819.80 70.78 L 823.82 70.78 L 827.84 70.78 L 831.86 70.78 L 835.88 70.78 L 839.90 70.78 L 843.92 70.78 L 847.94 70.78 L 851.96 70.78 L 855.98 70.78 L 860.00 70.78" fill="none" stroke="#3fb950" stroke-width="2"/>
    <circle cx="860.00" cy="70.78" r="3" fill="#3fb950"/>
    <text x="40.00" y="235.00" font-size="9" fill="#c9d1d9" text-anchor="middle" transform="rotate(-45 40.00 235.00)">28.08.2025</text><text x="120.39" y="235.00" font-size="9" fill="#c9d1d9" text-anchor="middle" transform="rotate(-45 120.39 235.00)">28.08.2025</text><text x="200.78" y="235.00" font-size="9" fill="#c9d1d9" text-anchor="middle" transform="rotate(-45 200.78 235.00)">09.09.2025</text><text x="281.18" y="235.00" font-size="9" fill="#c9d1d9" text-anchor="middle" transform="rotate(-45 281.18 235.00)">23.09.2025</text><text x="361.57" y="235.00" font-size="9" fill="#c9d1d9" text-anchor="middle" transform="rotate(-45 361.57 235.00)">12.10.2025</text><text x="441.96" y="235.00" font-size="9" fill="#c9d1d9" text-anchor="middle" transform="rotate(-45 441.96 235.00)">30.10.2025</text><text x="522.35" y="235.00" font-size="9" fill="#c9d1d9" text-anchor="middle" transform="rotate(-45 522.35 235.00)">19.11.2025</text><text x="602.75" y="235.00" font-size="9" fill="#c9d1d9" text-anchor="middle" transform="rotate(-45 602.75 235.00)">02.12.2025</text><text x="683.14" y="235.00" font-size="9" fill="#c9d1d9" text-anchor="middle" transform="rotate(-45 683.14 235.00)">12.12.2025</text><text x="763.53" y="235.00" font-size="9" fill="#c9d1d9" text-anchor="middle" transform="rotate(-45 763.53 235.00)">30.12.2025</text><text x="843.92" y="235.00" font-size="9" fill="#c9d1d9" text-anchor="middle" transform="rotate(-45 843.92 235.00)">17.01.2026</text>
  </g>
</svg>