<svg xmlns="http://www.w3.org/2000/svg" width="900" height="290" style="font-family: -apple-system, BlinkMacSystemFont, 'Segoe UI', Helvetica, Arial, sans-serif;">
  <rect width="100%" height="100%" fill="#0d1117"/>
  <g>
    <line x1="40" y1="220.00" x2="860" y2="220.00" stroke="#30363d"/><text x="32" y="224.00" font-size="10" fill="#c9d1d9" text-anchor="end">0</text><line x1="40" y1="175.00" x2="860" y2="175.00" stroke="#30363d"/><text x="32" y="179.00" font-size="10" fill="#c9d1d9" text-anchor="end">500</text><line x1="40" y1="130.00" x2="860" y2="130.00" stroke="#30363d"/><text x="32" y="134.00" font-size="10" fill="#c9d1d9" text-anchor="end">1k</text><line x1="40" y1="85.00" x2="860" y2="85.00" stroke="#30363d"/><text x="32" y="89.00" font-size="10" fill="#c9d1d9" text-anchor="end">1.5k</text><line x1="40" y1="40.00" x2="860" y2="40.00" stroke="#30363d"/><text x="32" y="44.00" font-size="10" fill="#c9d1d9" text-anchor="end">2k</text>
    <line x1="40.00" y1="40" x2="40.00" y2="220" stroke="#30363d" opacity="0.5"/><line x1="119.12" y1="40" x2="119.12" y2="220" stroke="#30363d" opacity="0.5"/><line x1="198.25" y1="40" x2="198.25" y2="220" stroke="#30363d" opacity="0.5"/><line x1="277.37" y1="40" x2="277.37" y2="220" stroke="#30363d" opacity="0.5"/><line x1="356.49" y1="40" x2="356.49" y2="220" stroke="#30363d" opacity="0.5"/><line x1="435.61" y1="40" x2="435.61" y2="220" stroke="#30363d" opacity="0.5"/><line x1="514.74" y1="40" x2="514.74" y2="220" stroke="#30363d" opacity="0.5"/><line x1="593.86" y1="40" x2="593.86" y2="220" stroke="#30363d" opacity="0.5"/><line x1="672.98" y1="40" x2="672.98" y2="220" stroke="#30363d" opacity="0.5"/><line x1="752.11" y1="40" x2="752.11" y2="220" stroke="#30363d" opacity="0.5"/><line x1="831.23" y1="40" x2="831.23" y2="220" stroke="#30363d" opacity="0.5"/>
    <line x1="40" y1="220" x2="860" y2="220" stroke="#30363d"/>
    <line x1="40" y1="40"   x2="40"   y2="220" stroke="#30363d"/>
    <path d="M 40.00 166.63 L 47.19 166.00 L 54.39 166.00 L 61.58 121.18 L 68.77 115.78 L 75.96 115.78 L 83.16 112.00 L 90.35 108.22 L 97.54 108.22 L 104.74 108.22 L 111.93 108.22 L 119.12 108.22 L 126.32 108.22 L 133.51 108.22 L 140.70 108.22 L 147.89 108.22 L 155.09 108.22 L 162.28 108.22 L 169.47 108.22 L 176.67 108.22 L 183.86 108.22 L 191.05 108.22 L 198.25 109.21 L 205.44 109.12 L 212.63 108.76 L 219.82 108.76 L 227.02 108.76 L 234.21 108.76 L 241.40 108.76 L 248.60 108.76 L 255.79 108.76 L 262.98 108.76 L 270.18 108.76 L 277.37 108.76 L 284.56 108.76 L 291.75 108.76 L 298.95 108.76 L 306.14 108.76 L 313.33 108.76 L 320.53 108.76 L 327.72 108.76 L 334.91 108.76 L 342.11 108.76 L 349.30 108.76 L 356.49 108.76 L 363.68 108.76 L 370.88 108.76 L 378.07 108.76 L 385.26 108.76 L 392.46 108.76 L 399.65 108.76 L 406.84 108.76 L 414.04 108.76 L 421.23 108.76 L 428.42 108.76 L 435.61 108.76 L 442.81 108.76 L 450.00 108.76 L 457.19 108.76 L 464.39 108.76 L 471.58 108.76 L 478.77 108.76 L 485.96 108.76 L 493.16 108.76 L 500.35 108.76 L 507.54 108.76 L 514.74 108.76 L 521.93 108.76 L 529.12 108.76 L 536.32 108.76 L 543.51 108.76 L 550.70 108.76 L 557.89 108.76 L 565.09 108.76 L 572.28 108.76 L 579.47 108.76 L 586.67 108.76 L 593.86 108.76 L 601.05 108.76 L 608.25 108.76 L 615.44 108.76 L 622.63 108.76 L 629.82 108.76 L 637.02 108.76 L 644.21 108.76 L 651.40 108.76 L 658.60 108.76 L 665.79 108.76 L 672.98 108.76 L 680.18 108.76 L 687.37 108.76 L 694.56 108.76 L 701.75 108.76 L 708.95 108.76 L 716.14 108.76 L 723.33 108.76 L 730.53 108.76 L 737.72 108.76 L 744.91 108.76 L 752.11 108.76 L 759.30 108.76 L 766.49 108.76 L 773.68 108.76 L 780.88 108.76 L 788.07 108.76 L 795.26 108.76 L 802.46 108.76 L 809.65 108.76 L 816.84 108.76 L 824.04 108.76 L 831.23 108.76 L 838.42 108.76 L 845.61 108.76 L 852.81 108.76 L 860.00 108.76" fill="none" stroke="#3fb950" stroke-width="2"/>
    <circle cx="860.00" cy="108.76" r="3" fill="#3fb950"/>
    <text x="40.00" y="235.00" font-size="9" fill="#c9d1d9" text-anchor="middle" transform="rotate(-45 40.00 235.00)">28.08.2025</text><text x="119.12" y="235.00" font-size="9" fill="#c9d1d9" text-anchor="middle" transform="rotate(-45 119.12 235.00)">28.08.2025</text><text x="198.25" y="235.00" font-size="9" fill="#c9d1d9" text-anchor="middle" transform="rotate(-45 198.25 235.00)">28.08.2025</text><text x="277.37" y="235.00" font-size="9" fill="#c9d1d9" text-anchor="middle" transform="rotate(-45 277.37 235.00)">04.09.2025</text><text x="356.49" y="235.00" font-size="9" fill="#c9d1d9" text-anchor="middle" transform="rotate(-45 356.49 235.00)">13.09.2025</text><text x="435.61" y="235.00" font-size="9" fill="#c9d1d9" text-anchor="middle" transform="rotate(-45 435.61 235.00)">20.09.2025</text><text x="514.74" y="235.00" font-size="9" fill="#c9d1d9" text-anchor="middle" transform="rotate(-45 514.74 235.00)">01.10.2025</text><text x="593.86" y="235.00" font-size="9" fill="#c9d1d9" text-anchor="middle" transform="rotate(-45 593.86 235.00)">12.10.2025</text><text x="672.98" y="235.00" font-size="9" fill="#c9d1d9" text-anchor="middle" transform="rotate(-45 672.98 235.00)">23.10.2025</text><text x="752.11" y="235.00" font-size="9" fill="#c9d1d9" text-anchor="middle" transform="rotate(-45 752.11 235.00)">03.11.2025</text><text x="831.23" y="235.00" font-size="9" fill="#c9d1d9" text-anchor="middle" transform="rotate(-45 831.23 235.00)">14.11.2025</text>
  </g>
</svg>