<svg xmlns="http://www.w3.org/2000/svg" width="900" height="290" style="font-family: -apple-system, BlinkMacSystemFont, 'Segoe UI', Helvetica, Arial, sans-serif;">
  <rect width="100%" height="100%" fill="white"/>
  <g>
    <line x1="40" y1="220.00" x2="860" y2="220.00" stroke="#e5e7eb"/><text x="32" y="224.00" font-size="10" fill="#111827" text-anchor="end">0</text><line x1="40" y1="175.00" x2="860" y2="175.00" stroke="#e5e7eb"/><text x="32" y="179.00" font-size="10" fill="#111827" text-anchor="end">500</text><line x1="40" y1="130.00" x2="860" y2="130.00" stroke="#e5e7eb"/><text x="32" y="134.00" font-size="10" fill="#111827" text-anchor="end">1k</text><line x1="40" y1="85.00" x2="860" y2="85.00" stroke="#e5e7eb"/><text x="32" y="89.00" font-size="10" fill="#111827" text-anchor="end">1.5k</text><line x1="40" y1="40.00" x2="860" y2="40.00" stroke="#e5e7eb"/><text x="32" y="44.00" font-size="10" fill="#111827" text-anchor="end">2k</text>
    <line x1="40.00" y1="40" x2="40.00" y2="220" stroke="#e5e7eb" opacity="0.5"/><line x1="112.35" y1="40" x2="112.35" y2="220" stroke="#e5e7eb" opacity="0.5"/><line x1="184.71" y1="40" x2="184.71" y2="220" stroke="#e5e7eb" opacity="0.5"/><line x1="257.06" y1="40" x2="257.06" y2="220" stroke="#e5e7eb" opacity="0.5"/><line x1="329.41" y1="40" x2="329.41" y2="220" stroke="#e5e7eb" opacity="0.5"/><line x1="401.76" y1="40" x2="401.76" y2="220" stroke="#e5e7eb" opacity="0.5"/><line x1="474.12" y1="40" x2="474.12" y2="220" stroke="#e5e7eb" opacity="0.5"/><line x1="546.47" y1="40" x2="546.47" y2="220" stroke="#e5e7eb" opacity="0.5"/><line x1="618.82" y1="40" x2="618.82" y2="220" stroke="#e5e7eb" opacity="0.5"/><line x1="691.18" y1="40" x2="691.18" y2="220" stroke="#e5e7eb" opacity="0.5"/><line x1="763.53" y1="40" x2="763.53" y2="220" stroke="#e5e7eb" opacity="0.5"/><line x1="835.88" y1="40" x2="835.88" y2="220" stroke="#e5e7eb" opacity="0.5"/>
    <line x1="40" y1="220" x2="860" y2="220" stroke="#9ca3af"/>
    <line x1="40" y1="40"   x2="40"   y2="220" stroke="#9ca3af"/>
    <path d="M 40.00 166.63 L 52.06 166.00 L 64.12 166.00 L 76.18 121.18 L 88.24 115.78 L 100.29 115.78 L 112.35 112.00 L 124.41 108.22 L 136.47 108.22 L 148.53 108.22 L 160.59 108.22 L 172.65 108.22 L 184.71 108.22 L 196.76 108.22 L 208.82 108.22 L 220.88 108.22 L 232.94 108.22 L 245.00 108.22 L 257.06 108.22 L 269.12 108.22 L 281.18 108.22 L 293.24 108.22 L 305.29 109.21 L 317.35 109.12 L 329.41 108.76 L 341.47 108.76 L 353.53 108.76 L 365.59 108.76 L 377.65 108.76 L 389.71 108.76 L 401.76 108.76 L 413.82 108.76 L 425.88 108.76 L 437.94 108.76 L 450.00 108.76 L 462.06 108.76 L 474.12 108.76 L 486.18 108.76 L 498.24 108.76 L 510.29 108.76 L 522.35 108.76 L 534.41 108.76 L 546.47 108.76 L 558.53 108.76 L 570.59 108.76 L 582.65 108.76 L 594.71 108.76 L 606.76 108.76 L 618.82 108.76 L 630.88 108.76 L 642.94 108.76 L 655.00 108.76 L 667.06 108.76 L 679.12 108.76 L 691.18 108.76 L 703.24 108.76 L 715.29 108.76 L 727.35 108.76 L 739.41 108.76 L 751.47 108.76 L 763.53 108.76 L 775.59 108.76 L 787.65 108.76 L 799.71 108.76 L 811.76 108.76 L 823.82 108.76 L 835.88 108.76 L 847.94 108.76 L 860.00 108.76" fill="none" stroke="#111827" stroke-width="2"/>
    <circle cx="860.00" cy="108.76" r="3" fill="#111827"/>
    <text x="40.00" y="235.00" font-size="9" fill="#111827" text-anchor="middle" transform="rotate(-45 40.00 235.00)">28.08.2025</text><text x="112.35" y="235.00" font-size="9" fill="#111827" text-anchor="middle" transform="rotate(-45 112.35 235.00)">28.08.2025</text><text x="184.71" y="235.00" font-size="9" fill="#111827" text-anchor="middle" transform="rotate(-45 184.71 235.00)">28.08.2025</text><text x="257.06" y="235.00" font-size="9" fill="#111827" text-anchor="middle" transform="rotate(-45 257.06 235.00)">28.08.2025</text><text x="329.41" y="235.00" font-size="9" fill="#111827" text-anchor="middle" transform="rotate(-45 329.41 235.00)">28.08.2025</text><text x="401.76" y="235.00" font-size="9" fill="#111827" text-anchor="middle" transform="rotate(-45 401.76 235.00)">01.09.2025</text><text x="474.12" y="235.00" font-size="9" fill="#111827" text-anchor="middle" transform="rotate(-45 474.12 235.00)">07.09.2025</text><text x="546.47" y="235.00" font-size="9" fill="#111827" text-anchor="middle" transform="rotate(-45 546.47 235.00)">11.09.2025</text><text x="618.82" y="235.00" font-size="9" fill="#111827" text-anchor="middle" transform="rotate(-45 618.82 235.00)">15.09.2025</text><text x="691.18" y="235.00" font-size="9" fill="#111827" text-anchor="middle" transform="rotate(-45 691.18 235.00)">19.09.2025</text><text x="763.53" y="235.00" font-size="9" fill="#111827" text-anchor="middle" transform="rotate(-45 763.53 235.00)">25.09.2025</text><text x="835.88" y="235.00" font-size="9" fill="#111827" text-anchor="middle" transform="rotate(-45 835.88 235.00)">01.10.2025</text>
  </g>
</svg>