<svg xmlns="http://www.w3.org/2000/svg" width="900" height="290" style="font-family: -apple-system, BlinkMacSystemFont, 'Segoe UI', Helvetica, Arial, sans-serif;">
  <rect width="100%" height="100%" fill="#0d1117"/>
  <g>
    <line x1="40" y1="220.00" x2="860" y2="220.00" stroke="#30363d"/><text x="32" y="224.00" font-size="10" fill="#c9d1d9" text-anchor="end">0</text><line x1="40" y1="175.00" x2="860" y2="175.00" stroke="#30363d"/><text x="32" y="179.00" font-size="10" fill="#c9d1d9" text-anchor="end">500</text><line x1="40" y1="130.00" x2="860" y2="130.00" stroke="#30363d"/><text x="32" y="134.00" font-size="10" fill="#c9d1d9" text-anchor="end">1k</text><line x1="40" y1="85.00" x2="860" y2="85.00" stroke="#30363d"/><text x="32" y="89.00" font-size="10" fill="#c9d1d9" text-anchor="end">1.5k</text><line x1="40" y1="40.00" x2="860" y2="40.00" stroke="#30363d"/><text x="32" y="44.00" font-size="10" fill="#c9d1d9" text-anchor="end">2k</text>
    <line x1="40.00" y1="40" x2="40.00" y2="220" stroke="#30363d" opacity="0.5"/><line x1="120.85" y1="40" x2="120.85" y2="220" stroke="#30363d" opacity="0.5"/><line x1="201.69" y1="40" x2="201.69" y2="220" stroke="#30363d" opacity="0.5"/><line x1="282.54" y1="40" x2="282.54" y2="220" stroke="#30363d" opacity="0.5"/><line x1="363.38" y1="40" x2="363.38" y2="220" stroke="#30363d" opacity="0.5"/><line x1="444.23" y1="40" x2="444.23" y2="220" stroke="#30363d" opacity="0.5"/><line x1="525.07" y1="40" x2="525.07" y2="220" stroke="#30363d" opacity="0.5"/><line x1="605.92" y1="40" x2="605.92" y2="220" stroke="#30363d" opacity="0.5"/><line x1="686.76" y1="40" x2="686.76" y2="220" stroke="#30363d" opacity="0.5"/><line x1="767.61" y1="40" x2="767.61" y2="220" stroke="#30363d" opacity="0.5"/><line x1="848.45" y1="40" x2="848.45" y2="220" stroke="#30363d" opacity="0.5"/>
    <line x1="40" y1="220" x2="860" y2="220" stroke="#30363d"/>
    <line x1="40" y1="40"   x2="40"   y2="220" stroke="#30363d"/>
    <path d="M 40.00 166.63 L 51.55 166.00 L 63.10 166.00 L 74.65 121.18 L 86.20 115.78 L 97.75 115.78 L 109.30 112.00 L 120.85 108.22 L 132.39 108.22 L 143.94 108.22 L 155.49 108.22 L 167.04 108.22 L 178.59 108.22 L 190.14 108.22 L 201.69 108.22 L 213.24 108.22 L 224.79 108.22 L 236.34 108.22 L 247.89 108.22 L 259.44 108.22 L 270.99 108.22 L 282.54 108.22 L 294.08 109.21 L 305.63 109.12 L 317.18 108.76 L 328.73 108.76 L 340.28 108.76 L 351.83 108.76 L 363.38 108.76 L 374.93 108.76 L 386.48 108.76 L 398.03 108.76 L 409.58 108.76 L 421.13 108.76 L 432.68 108.76 L 444.23 108.76 L 455.77 108.76 L 467.32 108.76 L 478.87 108.76 L 490.42 108.76 L 501.97 108.76 L 513.52 108.76 L 525.07 108.76 L 536.62 108.76 L 548.17 108.76 L 559.72 108.76 L 571.27 108.76 L 582.82 108.76 L 594.37 108.76 L 605.92 108.76 L 617.46 108.76 L 629.01 108.76 L 640.56 108.76 L 652.11 108.76 L 663.66 108.76 L 675.21 108.76 L 686.76 108.76 L 698.31 108.76 L 709.86 108.76 L 721.41 108.76 L 732.96 108.76 L 744.51 108.76 L 756.06 108.76 L 767.61 108.76 L 779.15 108.76 L 790.70 108.76 L 802.25 108.76 L 813.80 108.76 L 825.35 108.76 L 836.90 108.76 L 848.45 108.76 L 860.00 108.76" fill="none" stroke="#3fb950" stroke-width="2"/>
    <circle cx="860.00" cy="108.76" r="3" fill="#3fb950"/>
    <text x="40.00" y="235.00" font-size="9" fill="#c9d1d9" text-anchor="middle" transform="rotate(-45 40.00 235.00)">28.08.2025</text><text x="120.85" y="235.00" font-size="9" fill="#c9d1d9" text-anchor="middle" transform="rotate(-45 120.85 235.00)">28.08.2025</text><text x="201.69" y="235.00" font-size="9" fill="#c9d1d9" text-anchor="middle" transform="rotate(-45 201.69 235.00)">28.08.2025</text><text x="282.54" y="235.00" font-size="9" fill="#c9d1d9" text-anchor="middle" transform="rotate(-45 282.54 235.00)">28.08.2025</text><text x="363.38" y="235.00" font-size="9" fill="#c9d1d9" text-anchor="middle" transform="rotate(-45 363.38 235.00)">30.08.2025</text><text x="444.23" y="235.00" font-size="9" fill="#c9d1d9" text-anchor="middle" transform="rotate(-45 444.23 235.00)">06.09.2025</text><text x="525.07" y="235.00" font-size="9" fill="#c9d1d9" text-anchor="middle" transform="rotate(-45 525.07 235.00)">11.09.2025</text><text x="605.92" y="235.00" font-size="9" fill="#c9d1d9" text-anchor="middle" transform="rotate(-45 605.92 235.00)">15.09.2025</text><text x="686.76" y="235.00" font-size="9" fill="#c9d1d9" text-anchor="middle" transform="rotate(-45 686.76 235.00)">21.09.2025</text><text x="767.61" y="235.00" font-size="9" fill="#c9d1d9" text-anchor="middle" transform="rotate(-45 767.61 235.00)">28.09.2025</text><text x="848.45" y="235.00" font-size="9" fill="#c9d1d9" text-anchor="middle" transform="rotate(-45 848.45 235.00)">05.10.2025</text>
  </g>
</svg>