<svg xmlns="http://www.w3.org/2000/svg" width="900" height="290" style="font-family: -apple-system, BlinkMacSystemFont, 'Segoe UI', Helvetica, Arial, sans-serif;">
  <rect width="100%" height="100%" fill="white"/>
  <g>
    <line x1="40" y1="220.00" x2="860" y2="220.00" stroke="#e5e7eb"/><text x="32" y="224.00" font-size="10" fill="#111827" text-anchor="end">0</text><line x1="40" y1="175.00" x2="860" y2="175.00" stroke="#e5e7eb"/><text x="32" y="179.00" font-size="10" fill="#111827" text-anchor="end">500</text><line x1="40" y1="130.00" x2="860" y2="130.00" stroke="#e5e7eb"/><text x="32" y="134.00" font-size="10" fill="#111827" text-anchor="end">1k</text><line x1="40" y1="85.00" x2="860" y2="85.00" stroke="#e5e7eb"/><text x="32" y="89.00" font-size="10" fill="#111827" text-anchor="end">1.5k</text><line x1="40" y1="40.00" x2="860" y2="40.00" stroke="#e5e7eb"/><text x="32" y="44.00" font-size="10" fill="#111827" text-anchor="end">2k</text>
    <line x1="40.00" y1="40" x2="40.00" y2="220" stroke="#e5e7eb" opacity="0.5"/><line x1="122.69" y1="40" x2="122.69" y2="220" stroke="#e5e7eb" opacity="0.5"/><line x1="205.38" y1="40" x2="205.38" y2="220" stroke="#e5e7eb" opacity="0.5"/><line x1="288.07" y1="40" x2="288.07" y2="220" stroke="#e5e7eb" opacity="0.5"/><line x1="370.76" y1="40" x2="370.76" y2="220" stroke="#e5e7eb" opacity="0.5"/><line x1="453.45" y1="40" x2="453.45" y2="220" stroke="#e5e7eb" opacity="0.5"/><line x1="536.13" y1="40" x2="536.13" y2="220" stroke="#e5e7eb" opacity="0.5"/><line x1="618.82" y1="40" x2="618.82" y2="220" stroke="#e5e7eb" opacity="0.5"/><line x1="701.51" y1="40" x2="701.51" y2="220" stroke="#e5e7eb" opacity="0.5"/><line x1="784.20" y1="40" x2="784.20" y2="220" stroke="#e5e7eb" opacity="0.5"/>
    <line x1="40" y1="220" x2="860" y2="220" stroke="#9ca3af"/>
    <line x1="40" y1="40"   x2="40"   y2="220" stroke="#9ca3af"/>
    <path d="M 40.00 166.63 L 46.89 166.00 L 53.78 166.00 L 60.67 121.18 L 67.56 115.78 L 74.45 115.78 L 81.34 112.00 L 88.24 108.22 L 95.13 108.22 L 102.02 108.22 L 108.91 108.22 L 115.80 108.22 L 122.69 108.22 L 129.58 108.22 L 136.47 108.22 L 143.36 108.22 L 150.25 108.22 L 157.14 108.22 L 164.03 108.22 L 170.92 108.22 L 177.82 108.22 L 184.71 108.22 L 191.60 109.21 L 198.49 109.12 L 205.38 108.76 L 212.27 108.76 L 219.16 108.76 L 226.05 108.76 L 232.94 108.76 L 239.83 108.76 L 246.72 108.76 L 253.61 108.76 L 260.50 108.76 L 267.39 108.76 L 274.29 108.76 L 281.18 108.76 L 288.07 108.76 L 294.96 108.76 L 301.85 108.76 L 308.74 108.76 L 315.63 108.76 L 322.52 108.76 L 329.41 108.76 L 336.30 108.76 L 343.19 108.76 L 350.08 108.76 L 356.97 108.76 L 363.87 108.76 L 370.76 108.76 L 377.65 108.76 L 384.54 108.76 L 391.43 108.76 L 398.32 108.76 L 405.21 108.76 L 412.10 108.76 L 418.99 108.76 L 425.88 108.76 L 432.77 108.76 L 439.66 108.76 L 446.55 108.76 L 453.45 108.76 L 460.34 108.76 L 467.23 108.76 L 474.12 108.76 L 481.01 108.76 L 487.90 108.76 L 494.79 108.76 L 501.68 108.76 L 508.57 108.76 L 515.46 108.76 L 522.35 108.76 L 529.24 108.76 L 536.13 108.76 L 543.03 108.76 L 549.92 108.76 L 556.81 108.76 L 563.70 108.76 L 570.59 108.76 L 577.48 108.76 L 584.37 108.76 L 591.26 108.76 L 598.15 108.76 L 605.04 108.76 L 611.93 108.76 L 618.82 108.76 L 625.71 108.76 L 632.61 108.76 L 639.50 108.76 L 646.39 108.76 L 653.28 108.76 L 660.17 108.76 L 667.06 108.76 L 673.95 108.76 L 680.84 108.76 L 687.73 108.76 L 694.62 108.76 L 701.51 108.76 L 708.40 108.76 L 715.29 108.76 L 722.18 108.76 L 729.08 108.76 L 735.97 108.76 L 742.86 108.76 L 749.75 108.76 L 756.64 108.76 L 763.53 108.76 L 770.42 108.76 L 777.31 108.76 L 784.20 108.76 L 791.09 108.76 L 797.98 108.76 L 804.87 108.76 L 811.76 108.76 L 818.66 108.76 L 825.55 108.76 L 832.44 108.76 L 839.33 108.76 L 846.22 108.76 L 853.11 108.76 L 860.00 108.76" fill="none" stroke="#111827" stroke-width="2"/>
    <circle cx="860.00" cy="108.76" r="3" fill="#111827"/>
    <text x="40.00" y="235.00" font-size="9" fill="#111827" text-anchor="middle" transform="rotate(-45 40.00 235.00)">28.08.2025</text><text x="122.69" y="235.00" font-size="9" fill="#111827" text-anchor="middle" transform="rotate(-45 122.69 235.00)">28.08.2025</text><text x="205.38" y="235.00" font-size="9" fill="#111827" text-anchor="middle" transform="rotate(-45 205.38 235.00)">28.08.2025</text><text x="288.07" y="235.00" font-size="9" fill="#111827" text-anchor="middle" transform="rotate(-45 288.07 235.00)">07.09.2025</text><text x="370.76" y="235.00" font-size="9" fill="#111827" text-anchor="middle" transform="rotate(-45 370.76 235.00)">15.09.2025</text><text x="453.45" y="235.00" font-size="9" fill="#111827" text-anchor="middle" transform="rotate(-45 453.45 235.00)">25.09.2025</text><text x="536.13" y="235.00" font-size="9" fill="#111827" text-anchor="middle" transform="rotate(-45 536.13 235.00)">07.10.2025</text><text x="618.82" y="235.00" font-size="9" fill="#111827" text-anchor="middle" transform="rotate(-45 618.82 235.00)">19.10.2025</text><text x="701.51" y="235.00" font-size="9" fill="#111827" text-anchor="middle" transform="rotate(-45 701.51 235.00)">31.10.2025</text><text x="784.20" y="235.00" font-size="9" fill="#111827" text-anchor="middle" transform="rotate(-45 784.20 235.00)">12.11.2025</text>
  </g>
</svg>