<svg xmlns="http://www.w3.org/2000/svg" width="900" height="290" style="font-family: -apple-system, BlinkMacSystemFont, 'Segoe UI', Helvetica, Arial, sans-serif;">
  <rect width="100%" height="100%" fill="#0d1117"/>
  <g>
    <line x1="40" y1="220.00" x2="860" y2="220.00" stroke="#30363d"/><text x="32" y="224.00" font-size="10" fill="#c9d1d9" text-anchor="end">0</text><line x1="40" y1="175.00" x2="860" y2="175.00" stroke="#30363d"/><text x="32" y="179.00" font-size="10" fill="#c9d1d9" text-anchor="end">500</text><line x1="40" y1="130.00" x2="860" y2="130.00" stroke="#30363d"/><text x="32" y="134.00" font-size="10" fill="#c9d1d9" text-anchor="end">1k</text><line x1="40" y1="85.00" x2="860" y2="85.00" stroke="#30363d"/><text x="32" y="89.00" font-size="10" fill="#c9d1d9" text-anchor="end">1.5k</text><line x1="40" y1="40.00" x2="860" y2="40.00" stroke="#30363d"/><text x="32" y="44.00" font-size="10" fill="#c9d1d9" text-anchor="end">2k</text>
    <line x1="40.00" y1="40" x2="40.00" y2="220" stroke="#30363d" opacity="0.5"/><line x1="120.90" y1="40" x2="120.90" y2="220" stroke="#30363d" opacity="0.5"/><line x1="201.79" y1="40" x2="201.79" y2="220" stroke="#30363d" opacity="0.5"/><line x1="282.69" y1="40" x2="282.69" y2="220" stroke="#30363d" opacity="0.5"/><line x1="363.59" y1="40" x2="363.59" y2="220" stroke="#30363d" opacity="0.5"/><line x1="444.48" y1="40" x2="444.48" y2="220" stroke="#30363d" opacity="0.5"/><line x1="525.38" y1="40" x2="525.38" y2="220" stroke="#30363d" opacity="0.5"/><line x1="606.28" y1="40" x2="606.28" y2="220" stroke="#30363d" opacity="0.5"/><line x1="687.17" y1="40" x2="687.17" y2="220" stroke="#30363d" opacity="0.5"/><line x1="768.07" y1="40" x2="768.07" y2="220" stroke="#30363d" opacity="0.5"/><line x1="848.97" y1="40" x2="848.97" y2="220" stroke="#30363d" opacity="0.5"/>
    <line x1="40" y1="220" x2="860" y2="220" stroke="#30363d"/>
    <line x1="40" y1="40"   x2="40"   y2="220" stroke="#30363d"/>
    <path d="M 40.00 166.63 L 43.68 166.00 L 47.35 166.00 L 51.03 121.18 L 54.71 115.78 L 58.39 115.78 L 62.06 112.00 L 65.74 108.22 L 69.42 108.22 L 73.09 108.22 L 76.77 108.22 L 80.45 108.22 L 84.13 108.22 L 87.80 108.22 L 91.48 108.22 L 95.16 108.22 L 98.83 108.22 L 102.51 108.22 L 106.19 108.22 L 109.87 108.22 L 113.54 108.22 L 117.22 108.22 L 120.90 109.21 L 124.57 109.12 L 128.25 108.76 L 131.93 108.76 L 135.61 108.76 L 139.28 108.76 L 142.96 108.76 L 146.64 108.76 L 150.31 108.76 L 153.99 108.76 L 157.67 108.76 L 161.35 108.76 L 165.02 108.76 L 168.70 108.76 L 172.38 108.76 L 176.05 108.76 L 179.73 108.76 L 183.41 108.76 L 187.09 108.76 L 190.76 108.76 L 194.44 108.76 L 198.12 108.76 L 201.79 108.76 L 205.47 108.76 L 209.15 108.76 L 212.83 108.76 L 216.50 108.76 L 220.18 108.76 L 223.86 108.76 L 227.53 108.76 L 231.21 108.76 L 234.89 108.76 L 238.57 108.76 L 242.24 108.76 L 245.92 108.76 L 249.60 108.76 L 253.27 108.76 L 256.95 108.76 L 260.63 108.76 L 264.30 108.76 L 267.98 108.76 L 271.66 108.76 L 275.34 108.76 L 279.01 108.76 L 282.69 108.76 L 286.37 108.76 L 290.04 108.76 L 293.72 108.76 L 297.40 108.76 L 301.08 108.76 L 304.75 108.76 L 308.43 108.76 L 312.11 108.76 L 315.78 108.76 L 319.46 108.76 L 323.14 108.76 L 326.82 108.76 L 330.49 108.76 L 334.17 108.76 L 337.85 108.76 L 341.52 108.76 L 345.20 108.76 L 348.88 108.76 L 352.56 108.76 L 356.23 108.76 L 359.91 108.76 L 363.59 108.76 L 367.26 108.76 L 370.94 108.76 L 374.62 108.76 L 378.30 108.76 L 381.97 108.76 L 385.65 108.76 L 389.33 108.76 L 393.00 108.76 L 396.68 108.76 L 400.36 108.76 L 404.04 108.76 L 407.71 108.76 L 411.39 108.76 L 415.07 108.76 L 418.74 108.76 L 422.42 108.76 L 426.10 108.76 L 429.78 108.76 L 433.45 108.76 L 437.13 108.76 L 440.81 108.76 L 444.48 108.76 L 448.16 108.76 L 451.84 108.76 L 455.52 108.76 L 459.19 108.76 L 462.87 108.76 L 466.55 108.76 L 470.22 108.76 L 473.90 108.76 L 477.58 108.76 L 481.26 108.76 L 484.93 108.76 L 488.61 108.76 L 492.29 108.76 L 495.96 108.76 L 499.64 108.76 L 503.32 108.76 L 507.00 108.76 L 510.67 108.76 L 514.35 108.76 L 518.03 108.76 L 521.70 108.76 L 525.38 108.76 L 529.06 108.76 L 532.74 108.76 L 536.41 108.76 L 540.09 108.76 L 543.77 108.76 L 547.44 108.76 L 551.12 108.76 L 554.80 108.76 L 558.48 108.76 L 562.15 108.76 L 565.83 108.94 L 569.51 100.39 L 573.18 81.40 L 576.86 81.40 L 580.54 81.40 L 584.22 81.40 L 587.89 81.40 L 591.57 70.78 L 595.25 70.78 L 598.92 70.78 L 602.60 70.78 L 606.28 70.78 L 609.96 70.78 L 613.63 70.78 L 617.31 70.78 L 620.99 70.78 L 624.66 70.78 L 628.34 70.78 L 632.02 70.78 L 635.70 70.78 L 639.37 70.78 L 643.05 70.78 L 646.73 70.78 L 650.40 70.78 L 654.08 70.78 L 657.76 70.78 L 661.43 70.78 L 665.11 70.78 L 668.79 70.78 L 672.47 70.78 L 676.14 70.78 L 679.82 70.78 L 683.50 70.78 L 687.17 70.78 L 690.85 70.78 L 694.53 70.78 L 698.21 70.78 L 701.88 70.78 L 705.56 70.78 L 709.24 70.78 L 712.91 70.78 L 716.59 70.78 L 720.27 70.78 L 723.95 70.78 L 727.62 70.78 L 731.30 70.78 L 734.98 70.78 L 738.65 70.78 L 742.33 70.78 L 746.01 70.78 L 749.69 70.78 L 753.36 70.78 L 757.04 70.78 L 760.72 70.78 L 764.39 70.78 L 768.07 70.78 L 771.75 70.78 L 775.43 70.78 L 779.10 70.78 L 782.78 70.78 L 786.46 70.78 L 790.13 70.78 L 793.81 70.78 L 797.49 70.78 L 801.17 70.78 L 804.84 70.78 L 808.52 70.78 L 812.20 70.78 L 815.87 70.78 L 819.55 70.78 L 823.23 70.78 L 826.91 70.78 L 830.58 70.78 L 834.26 70.78 L 837.94 70.78 L 841.61 70.78 L 845.29 70.78 L 848.97 70.78 L 852.65 70.78 L 856.32 70.78 L 860.00 70.78" fill="none" stroke="#3fb950" stroke-width="2"/>
    <circle cx="860.00" cy="70.78" r="3" fill="#3fb950"/>
    <text x="40.00" y="235.00" font-size="9" fill="#c9d1d9" text-anchor="middle" transform="rotate(-45 40.00 235.00)">28.08.2025</text><text x="120.90" y="235.00" font-size="9" fill="#c9d1d9" text-anchor="middle" transform="rotate(-45 120.90 235.00)">28.08.2025</text><text x="201.79" y="235.00" font-size="9" fill="#c9d1d9" text-anchor="middle" transform="rotate(-45 201.79 235.00)">13.09.2025</text><text x="282.69" y="235.00" font-size="9" fill="#c9d1d9" text-anchor="middle" transform="rotate(-45 282.69 235.00)">29.09.2025</text><text x="363.59" y="235.00" font-size="9" fill="#c9d1d9" text-anchor="middle" transform="rotate(-45 363.59 235.00)">20.10.2025</text><text x="444.48" y="235.00" font-size="9" fill="#c9d1d9" text-anchor="middle" transform="rotate(-45 444.48 235.00)">09.11.2025</text><text x="525.38" y="235.00" font-size="9" fill="#c9d1d9" text-anchor="middle" transform="rotate(-45 525.38 235.00)">28.11.2025</text><text x="606.28" y="235.00" font-size="9" fill="#c9d1d9" text-anchor="middle" transform="rotate(-45 606.28 235.00)">11.12.2025</text><text x="687.17" y="235.00" font-size="9" fill="#c9d1d9" text-anchor="middle" transform="rotate(-45 687.17 235.00)">26.12.2025</text><text x="768.07" y="235.00" font-size="9" fill="#c9d1d9" text-anchor="middle" transform="rotate(-45 768.07 235.00)">15.01.2026</text><text x="848.97" y="235.00" font-size="9" fill="#c9d1d9" text-anchor="middle" transform="rotate(-45 848.97 235.00)">06.02.2026</text>
  </g>
</svg>