<svg xmlns="http://www.w3.org/2000/svg" width="900" height="290" style="font-family: -apple-system, BlinkMacSystemFont, 'Segoe UI', Helvetica, Arial, sans-serif;">
  <rect width="100%" height="100%" fill="#0d1117"/>
  <g>
    <line x1="40" y1="220.00" x2="860" y2="220.00" stroke="#30363d"/><text x="32" y="224.00" font-size="10" fill="#c9d1d9" text-anchor="end">0</text><line x1="40" y1="175.00" x2="860" y2="175.00" stroke="#30363d"/><text x="32" y="179.00" font-size="10" fill="#c9d1d9" text-anchor="end">500</text><line x1="40" y1="130.00" x2="860" y2="130.00" stroke="#30363d"/><text x="32" y="134.00" font-size="10" fill="#c9d1d9" text-anchor="end">1k</text><line x1="40" y1="85.00" x2="860" y2="85.00" stroke="#30363d"/><text x="32" y="89.00" font-size="10" fill="#c9d1d9" text-anchor="end">1.5k</text><line x1="40" y1="40.00" x2="860" y2="40.00" stroke="#30363d"/><text x="32" y="44.00" font-size="10" fill="#c9d1d9" text-anchor="end">2k</text>
    <line x1="40.00" y1="40" x2="40.00" y2="220" stroke="#30363d" opacity="0.5"/><line x1="122.00" y1="40" x2="122.00" y2="220" stroke="#30363d" opacity="0.5"/><line x1="204.00" y1="40" x2="204.00" y2="220" stroke="#30363d" opacity="0.5"/><line x1="286.00" y1="40" x2="286.00" y2="220" stroke="#30363d" opacity="0.5"/><line x1="368.00" y1="40" x2="368.00" y2="220" stroke="#30363d" opacity="0.5"/><line x1="450.00" y1="40" x2="450.00" y2="220" stroke="#30363d" opacity="0.5"/><line x1="532.00" y1="40" x2="532.00" y2="220" stroke="#30363d" opacity="0.5"/><line x1="614.00" y1="40" x2="614.00" y2="220" stroke="#30363d" opacity="0.5"/><line x1="696.00" y1="40" x2="696.00" y2="220" stroke="#30363d" opacity="0.5"/><line x1="778.00" y1="40" x2="778.00" y2="220" stroke="#30363d" opacity="0.5"/><line x1="860.00" y1="40" x2="860.00" y2="220" stroke="#30363d" opacity="0.5"/>
    <line x1="40" y1="220" x2="860" y2="220" stroke="#30363d"/>
    <line x1="40" y1="40"   x2="40"   y2="220" stroke="#30363d"/>
    <path d="M 40.00 166.63 L 44.56 166.00 L 49.11 166.00 L 53.67 121.18 L 58.22 115.78 L 62.78 115.78 L 67.33 112.00 L 71.89 108.22 L 76.44 108.22 L 81.00 108.22 L 85.56 108.22 L 90.11 108.22 L 94.67 108.22 L 99.22 108.22 L 103.78 108.22 L 108.33 108.22 L 112.89 108.22 L 117.44 108.22 L 122.00 108.22 L 126.56 108.22 L 131.11 108.22 L 135.67 108.22 L 140.22 109.21 L 144.78 109.12 L 149.33 108.76 L 153.89 108.76 L 158.44 108.76 L 163.00 108.76 L 167.56 108.76 L 172.11 108.76 L 176.67 108.76 L 181.22 108.76 L 185.78 108.76 L 190.33 108.76 L 194.89 108.76 L 199.44 108.76 L 204.00 108.76 L 208.56 108.76 L 213.11 108.76 L 217.67 108.76 L 222.22 108.76 L 226.78 108.76 L 231.33 108.76 L 235.89 108.76 L 240.44 108.76 L 245.00 108.76 L 249.56 108.76 L 254.11 108.76 L 258.67 108.76 L 263.22 108.76 L 267.78 108.76 L 272.33 108.76 L 276.89 108.76 L 281.44 108.76 L 286.00 108.76 L 290.56 108.76 L 295.11 108.76 L 299.67 108.76 L 304.22 108.76 L 308.78 108.76 L 313.33 108.76 L 317.89 108.76 L 322.44 108.76 L 327.00 108.76 L 331.56 108.76 L 336.11 108.76 L 340.67 108.76 L 345.22 108.76 L 349.78 108.76 L 354.33 108.76 L 358.89 108.76 L 363.44 108.76 L 368.00 108.76 L 372.56 108.76 L 377.11 108.76 L 381.67 108.76 L 386.22 108.76 L 390.78 108.76 L 395.33 108.76 L 399.89 108.76 L 404.44 108.76 L 409.00 108.76 L 413.56 108.76 L 418.11 108.76 L 422.67 108.76 L 427.22 108.76 L 431.78 108.76 L 436.33 108.76 L 440.89 108.76 L 445.44 108.76 L 450.00 108.76 L 454.56 108.76 L 459.11 108.76 L 463.67 108.76 L 468.22 108.76 L 472.78 108.76 L 477.33 108.76 L 481.89 108.76 L 486.44 108.76 L 491.00 108.76 L 495.56 108.76 L 500.11 108.76 L 504.67 108.76 L 509.22 108.76 L 513.78 108.76 L 518.33 108.76 L 522.89 108.76 L 527.44 108.76 L 532.00 108.76 L 536.56 108.76 L 541.11 108.76 L 545.67 108.76 L 550.22 108.76 L 554.78 108.76 L 559.33 108.76 L 563.89 108.76 L 568.44 108.76 L 573.00 108.76 L 577.56 108.76 L 582.11 108.76 L 586.67 108.76 L 591.22 108.76 L 595.78 108.76 L 600.33 108.76 L 604.89 108.76 L 609.44 108.76 L 614.00 108.76 L 618.56 108.76 L 623.11 108.76 L 627.67 108.76 L 632.22 108.76 L 636.78 108.76 L 641.33 108.76 L 645.89 108.76 L 650.44 108.76 L 655.00 108.76 L 659.56 108.76 L 664.11 108.76 L 668.67 108.76 L 673.22 108.76 L 677.78 108.76 L 682.33 108.76 L 686.89 108.76 L 691.44 108.94 L 696.00 100.39 L 700.56 81.40 L 705.11 81.40 L 709.67 81.40 L 714.22 81.40 L 718.78 81.40 L 723.33 70.78 L 727.89 70.78 L 732.44 70.78 L 737.00 70.78 L 741.56 70.78 L 746.11 70.78 L 750.67 70.78 L 755.22 70.78 L 759.78 70.78 L 764.33 70.78 L 768.89 70.78 L 773.44 70.78 L 778.00 70.78 L 782.56 70.78 L 787.11 70.78 L 791.67 70.78 L 796.22 70.78 L 800.78 70.78 L 805.33 70.78 L 809.89 70.78 L 814.44 70.78 L 819.00 70.78 L 823.56 70.78 L 828.11 70.78 L 832.67 70.78 L 837.22 70.78 L 841.78 70.78 L 846.33 70.78 L 850.89 70.78 L 855.44 70.78 L 860.00 70.78" fill="none" stroke="#3fb950" stroke-width="2"/>
    <circle cx="860.00" cy="70.78" r="3" fill="#3fb950"/>
    <text x="40.00" y="235.00" font-size="9" fill="#c9d1d9" text-anchor="middle" transform="rotate(-45 40.00 235.00)">28.08.2025</text><text x="122.00" y="235.00" font-size="9" fill="#c9d1d9" text-anchor="middle" transform="rotate(-45 122.00 235.00)">28.08.2025</text><text x="204.00" y="235.00" font-size="9" fill="#c9d1d9" text-anchor="middle" transform="rotate(-45 204.00 235.00)">07.09.2025</text><text x="286.00" y="235.00" font-size="9" fill="#c9d1d9" text-anchor="middle" transform="rotate(-45 286.00 235.00)">17.09.2025</text><text x="368.00" y="235.00" font-size="9" fill="#c9d1d9" text-anchor="middle" transform="rotate(-45 368.00 235.00)">05.10.2025</text><text x="450.00" y="235.00" font-size="9" fill="#c9d1d9" text-anchor="middle" transform="rotate(-45 450.00 235.00)">22.10.2025</text><text x="532.00" y="235.00" font-size="9" fill="#c9d1d9" text-anchor="middle" transform="rotate(-45 532.00 235.00)">07.11.2025</text><text x="614.00" y="235.00" font-size="9" fill="#c9d1d9" text-anchor="middle" transform="rotate(-45 614.00 235.00)">24.11.2025</text><text x="696.00" y="235.00" font-size="9" fill="#c9d1d9" text-anchor="middle" transform="rotate(-45 696.00 235.00)">04.12.2025</text><text x="778.00" y="235.00" font-size="9" fill="#c9d1d9" text-anchor="middle" transform="rotate(-45 778.00 235.00)">14.12.2025</text><text x="860.00" y="235.00" font-size="9" fill="#c9d1d9" text-anchor="middle" transform="rotate(-45 860.00 235.00)">30.12.2025</text>
  </g>
</svg>