<svg xmlns="http://www.w3.org/2000/svg" width="900" height="290" style="font-family: -apple-system, BlinkMacSystemFont, 'Segoe UI', Helvetica, Arial, sans-serif;">
  <rect width="100%" height="100%" fill="#0d1117"/>
  <g>
    <line x1="40" y1="220.00" x2="860" y2="220.00" stroke="#30363d"/><text x="32" y="224.00" font-size="10" fill="#c9d1d9" text-anchor="end">0</text><line x1="40" y1="175.00" x2="860" y2="175.00" stroke="#30363d"/><text x="32" y="179.00" font-size="10" fill="#c9d1d9" text-anchor="end">500</text><line x1="40" y1="130.00" x2="860" y2="130.00" stroke="#30363d"/><text x="32" y="134.00" font-size="10" fill="#c9d1d9" text-anchor="end">1k</text><line x1="40" y1="85.00" x2="860" y2="85.00" stroke="#30363d"/><text x="32" y="89.00" font-size="10" fill="#c9d1d9" text-anchor="end">1.5k</text><line x1="40" y1="40.00" x2="860" y2="40.00" stroke="#30363d"/><text x="32" y="44.00" font-size="10" fill="#c9d1d9" text-anchor="end">2k</text>
    <line x1="40.00" y1="40" x2="40.00" y2="220" stroke="#30363d" opacity="0.5"/><line x1="119.09" y1="40" x2="119.09" y2="220" stroke="#30363d" opacity="0.5"/><line x1="198.17" y1="40" x2="198.17" y2="220" stroke="#30363d" opacity="0.5"/><line x1="277.26" y1="40" x2="277.26" y2="220" stroke="#30363d" opacity="0.5"/><line x1="356.35" y1="40" x2="356.35" y2="220" stroke="#30363d" opacity="0.5"/><line x1="435.43" y1="40" x2="435.43" y2="220" stroke="#30363d" opacity="0.5"/><line x1="514.52" y1="40" x2="514.52" y2="220" stroke="#30363d" opacity="0.5"/><line x1="593.60" y1="40" x2="593.60" y2="220" stroke="#30363d" opacity="0.5"/><line x1="672.69" y1="40" x2="672.69" y2="220" stroke="#30363d" opacity="0.5"/><line x1="751.78" y1="40" x2="751.78" y2="220" stroke="#30363d" opacity="0.5"/><line x1="830.86" y1="40" x2="830.86" y2="220" stroke="#30363d" opacity="0.5"/>
    <line x1="40" y1="220" x2="860" y2="220" stroke="#30363d"/>
    <line x1="40" y1="40"   x2="40"   y2="220" stroke="#30363d"/>
    <path d="M 40.00 166.63 L 44.16 166.00 L 48.32 166.00 L 52.49 121.18 L 56.65 115.78 L 60.81 115.78 L 64.97 112.00 L 69.14 108.22 L 73.30 108.22 L 77.46 108.22 L 81.62 108.22 L 85.79 108.22 L 89.95 108.22 L 94.11 108.22 L 98.27 108.22 L 102.44 108.22 L 106.60 108.22 L 110.76 108.22 L 114.92 108.22 L 119.09 108.22 L 123.25 108.22 L 127.41 108.22 L 131.57 109.21 L 135.74 109.12 L 139.90 108.76 L 144.06 108.76 L 148.22 108.76 L 152.39 108.76 L 156.55 108.76 L 160.71 108.76 L 164.87 108.76 L 169.04 108.76 L 173.20 108.76 L 177.36 108.76 L 181.52 108.76 L 185.69 108.76 L 189.85 108.76 L 194.01 108.76 L 198.17 108.76 L 202.34 108.76 L 206.50 108.76 L 210.66 108.76 L 214.82 108.76 L 218.98 108.76 L 223.15 108.76 L 227.31 108.76 L 231.47 108.76 L 235.63 108.76 L 239.80 108.76 L 243.96 108.76 L 248.12 108.76 L 252.28 108.76 L 256.45 108.76 L 260.61 108.76 L 264.77 108.76 L 268.93 108.76 L 273.10 108.76 L 277.26 108.76 L 281.42 108.76 L 285.58 108.76 L 289.75 108.76 L 293.91 108.76 L 298.07 108.76 L 302.23 108.76 L 306.40 108.76 L 310.56 108.76 L 314.72 108.76 L 318.88 108.76 L 323.05 108.76 L 327.21 108.76 L 331.37 108.76 L 335.53 108.76 L 339.70 108.76 L 343.86 108.76 L 348.02 108.76 L 352.18 108.76 L 356.35 108.76 L 360.51 108.76 L 364.67 108.76 L 368.83 108.76 L 372.99 108.76 L 377.16 108.76 L 381.32 108.76 L 385.48 108.76 L 389.64 108.76 L 393.81 108.76 L 397.97 108.76 L 402.13 108.76 L 406.29 108.76 L 410.46 108.76 L 414.62 108.76 L 418.78 108.76 L 422.94 108.76 L 427.11 108.76 L 431.27 108.76 L 435.43 108.76 L 439.59 108.76 L 443.76 108.76 L 447.92 108.76 L 452.08 108.76 L 456.24 108.76 L 460.41 108.76 L 464.57 108.76 L 468.73 108.76 L 472.89 108.76 L 477.06 108.76 L 481.22 108.76 L 485.38 108.76 L 489.54 108.76 L 493.71 108.76 L 497.87 108.76 L 502.03 108.76 L 506.19 108.76 L 510.36 108.76 L 514.52 108.76 L 518.68 108.76 L 522.84 108.76 L 527.01 108.76 L 531.17 108.76 L 535.33 108.76 L 539.49 108.76 L 543.65 108.76 L 547.82 108.76 L 551.98 108.76 L 556.14 108.76 L 560.30 108.76 L 564.47 108.76 L 568.63 108.76 L 572.79 108.76 L 576.95 108.76 L 581.12 108.76 L 585.28 108.76 L 589.44 108.76 L 593.60 108.76 L 597.77 108.76 L 601.93 108.76 L 606.09 108.76 L 610.25 108.76 L 614.42 108.76 L 618.58 108.76 L 622.74 108.76 L 626.90 108.76 L 631.07 108.76 L 635.23 108.94 L 639.39 100.39 L 643.55 81.40 L 647.72 81.40 L 651.88 81.40 L 656.04 81.40 L 660.20 81.40 L 664.37 70.78 L 668.53 70.78 L 672.69 70.78 L 676.85 70.78 L 681.02 70.78 L 685.18 70.78 L 689.34 70.78 L 693.50 70.78 L 697.66 70.78 L 701.83 70.78 L 705.99 70.78 L 710.15 70.78 L 714.31 70.78 L 718.48 70.78 L 722.64 70.78 L 726.80 70.78 L 730.96 70.78 L 735.13 70.78 L 739.29 70.78 L 743.45 70.78 L 747.61 70.78 L 751.78 70.78 L 755.94 70.78 L 760.10 70.78 L 764.26 70.78 L 768.43 70.78 L 772.59 70.78 L 776.75 70.78 L 780.91 70.78 L 785.08 70.78 L 789.24 70.78 L 793.40 70.78 L 797.56 70.78 L 801.73 70.78 L 805.89 70.78 L 810.05 70.78 L 814.21 70.78 L 818.38 70.78 L 822.54 70.78 L 826.70 70.78 L 830.86 70.78 L 835.03 70.78 L 839.19 70.78 L 843.35 70.78 L 847.51 70.78 L 851.68 70.78 L 855.84 70.78 L 860.00 70.78" fill="none" stroke="#3fb950" stroke-width="2"/>
    <circle cx="860.00" cy="70.78" r="3" fill="#3fb950"/>
    <text x="40.00" y="235.00" font-size="9" fill="#c9d1d9" text-anchor="middle" transform="rotate(-45 40.00 235.00)">28.08.2025</text><text x="119.09" y="235.00" font-size="9" fill="#c9d1d9" text-anchor="middle" transform="rotate(-45 119.09 235.00)">28.08.2025</text><text x="198.17" y="235.00" font-size="9" fill="#c9d1d9" text-anchor="middle" transform="rotate(-45 198.17 235.00)">08.09.2025</text><text x="277.26" y="235.00" font-size="9" fill="#c9d1d9" text-anchor="middle" transform="rotate(-45 277.26 235.00)">20.09.2025</text><text x="356.35" y="235.00" font-size="9" fill="#c9d1d9" text-anchor="middle" transform="rotate(-45 356.35 235.00)">08.10.2025</text><text x="435.43" y="235.00" font-size="9" fill="#c9d1d9" text-anchor="middle" transform="rotate(-45 435.43 235.00)">27.10.2025</text><text x="514.52" y="235.00" font-size="9" fill="#c9d1d9" text-anchor="middle" transform="rotate(-45 514.52 235.00)">13.11.2025</text><text x="593.60" y="235.00" font-size="9" fill="#c9d1d9" text-anchor="middle" transform="rotate(-45 593.60 235.00)">28.11.2025</text><text x="672.69" y="235.00" font-size="9" fill="#c9d1d9" text-anchor="middle" transform="rotate(-45 672.69 235.00)">09.12.2025</text><text x="751.78" y="235.00" font-size="9" fill="#c9d1d9" text-anchor="middle" transform="rotate(-45 751.78 235.00)">22.12.2025</text><text x="830.86" y="235.00" font-size="9" fill="#c9d1d9" text-anchor="middle" transform="rotate(-45 830.86 235.00)">09.01.2026</text>
  </g>
</svg>