<svg xmlns="http://www.w3.org/2000/svg" width="900" height="290" style="font-family: -apple-system, BlinkMacSystemFont, 'Segoe UI', Helvetica, Arial, sans-serif;">
  <rect width="100%" height="100%" fill="white"/>
  <g>
    <line x1="40" y1="220.00" x2="860" y2="220.00" stroke="#e5e7eb"/><text x="32" y="224.00" font-size="10" fill="#111827" text-anchor="end">0</text><line x1="40" y1="175.00" x2="860" y2="175.00" stroke="#e5e7eb"/><text x="32" y="179.00" font-size="10" fill="#111827" text-anchor="end">500</text><line x1="40" y1="130.00" x2="860" y2="130.00" stroke="#e5e7eb"/><text x="32" y="134.00" font-size="10" fill="#111827" text-anchor="end">1k</text><line x1="40" y1="85.00" x2="860" y2="85.00" stroke="#e5e7eb"/><text x="32" y="89.00" font-size="10" fill="#111827" text-anchor="end">1.5k</text><line x1="40" y1="40.00" x2="860" y2="40.00" stroke="#e5e7eb"/><text x="32" y="44.00" font-size="10" fill="#111827" text-anchor="end">2k</text>
    <line x1="40.00" y1="40" x2="40.00" y2="220" stroke="#e5e7eb" opacity="0.5"/><line x1="120.47" y1="40" x2="120.47" y2="220" stroke="#e5e7eb" opacity="0.5"/><line x1="200.93" y1="40" x2="200.93" y2="220" stroke="#e5e7eb" opacity="0.5"/><line x1="281.40" y1="40" x2="281.40" y2="220" stroke="#e5e7eb" opacity="0.5"/><line x1="361.87" y1="40" x2="361.87" y2="220" stroke="#e5e7eb" opacity="0.5"/><line x1="442.34" y1="40" x2="442.34" y2="220" stroke="#e5e7eb" opacity="0.5"/><line x1="522.80" y1="40" x2="522.80" y2="220" stroke="#e5e7eb" opacity="0.5"/><line x1="603.27" y1="40" x2="603.27" y2="220" stroke="#e5e7eb" opacity="0.5"/><line x1="683.74" y1="40" x2="683.74" y2="220" stroke="#e5e7eb" opacity="0.5"/><line x1="764.21" y1="40" x2="764.21" y2="220" stroke="#e5e7eb" opacity="0.5"/><line x1="844.67" y1="40" x2="844.67" y2="220" stroke="#e5e7eb" opacity="0.5"/>
    <line x1="40" y1="220" x2="860" y2="220" stroke="#9ca3af"/>
    <line x1="40" y1="40"   x2="40"   y2="220" stroke="#9ca3af"/>
    <path d="M 40.00 166.63 L 43.83 166.00 L 47.66 166.00 L 51.50 121.18 L 55.33 115.78 L 59.16 115.78 L 62.99 112.00 L 66.82 108.22 L 70.65 108.22 L 74.49 108.22 L 78.32 108.22 L 82.15 108.22 L 85.98 108.22 L 89.81 108.22 L 93.64 108.22 L 97.48 108.22 L 101.31 108.22 L 105.14 108.22 L 108.97 108.22 L 112.80 108.22 L 116.64 108.22 L 120.47 108.22 L 124.30 109.21 L 128.13 109.12 L 131.96 108.76 L 135.79 108.76 L 139.63 108.76 L 143.46 108.76 L 147.29 108.76 L 151.12 108.76 L 154.95 108.76 L 158.79 108.76 L 162.62 108.76 L 166.45 108.76 L 170.28 108.76 L 174.11 108.76 L 177.94 108.76 L 181.78 108.76 L 185.61 108.76 L 189.44 108.76 L 193.27 108.76 L 197.10 108.76 L 200.93 108.76 L 204.77 108.76 L 208.60 108.76 L 212.43 108.76 L 216.26 108.76 L 220.09 108.76 L 223.93 108.76 L 227.76 108.76 L 231.59 108.76 L 235.42 108.76 L 239.25 108.76 L 243.08 108.76 L 246.92 108.76 L 250.75 108.76 L 254.58 108.76 L 258.41 108.76 L 262.24 108.76 L 266.07 108.76 L 269.91 108.76 L 273.74 108.76 L 277.57 108.76 L 281.40 108.76 L 285.23 108.76 L 289.07 108.76 L 292.90 108.76 L 296.73 108.76 L 300.56 108.76 L 304.39 108.76 L 308.22 108.76 L 312.06 108.76 L 315.89 108.76 L 319.72 108.76 L 323.55 108.76 L 327.38 108.76 L 331.21 108.76 L 335.05 108.76 L 338.88 108.76 L 342.71 108.76 L 346.54 108.76 L 350.37 108.76 L 354.21 108.76 L 358.04 108.76 L 361.87 108.76 L 365.70 108.76 L 369.53 108.76 L 373.36 108.76 L 377.20 108.76 L 381.03 108.76 L 384.86 108.76 L 388.69 108.76 L 392.52 108.76 L 396.36 108.76 L 400.19 108.76 L 404.02 108.76 L 407.85 108.76 L 411.68 108.76 L 415.51 108.76 L 419.35 108.76 L 423.18 108.76 L 427.01 108.76 L 430.84 108.76 L 434.67 108.76 L 438.50 108.76 L 442.34 108.76 L 446.17 108.76 L 450.00 108.76 L 453.83 108.76 L 457.66 108.76 L 461.50 108.76 L 465.33 108.76 L 469.16 108.76 L 472.99 108.76 L 476.82 108.76 L 480.65 108.76 L 484.49 108.76 L 488.32 108.76 L 492.15 108.76 L 495.98 108.76 L 499.81 108.76 L 503.64 108.76 L 507.48 108.76 L 511.31 108.76 L 515.14 108.76 L 518.97 108.76 L 522.80 108.76 L 526.64 108.76 L 530.47 108.76 L 534.30 108.76 L 538.13 108.76 L 541.96 108.76 L 545.79 108.76 L 549.63 108.76 L 553.46 108.76 L 557.29 108.76 L 561.12 108.76 L 564.95 108.76 L 568.79 108.76 L 572.62 108.76 L 576.45 108.76 L 580.28 108.76 L 584.11 108.76 L 587.94 108.94 L 591.78 100.39 L 595.61 81.40 L 599.44 81.40 L 603.27 81.40 L 607.10 81.40 L 610.93 81.40 L 614.77 70.78 L 618.60 70.78 L 622.43 70.78 L 626.26 70.78 L 630.09 70.78 L 633.93 70.78 L 637.76 70.78 L 641.59 70.78 L 645.42 70.78 L 649.25 70.78 L 653.08 70.78 L 656.92 70.78 L 660.75 70.78 L 664.58 70.78 L 668.41 70.78 L 672.24 70.78 L 676.07 70.78 L 679.91 70.78 L 683.74 70.78 L 687.57 70.78 L 691.40 70.78 L 695.23 70.78 L 699.07 70.78 L 702.90 70.78 L 706.73 70.78 L 710.56 70.78 L 714.39 70.78 L 718.22 70.78 L 722.06 70.78 L 725.89 70.78 L 729.72 70.78 L 733.55 70.78 L 737.38 70.78 L 741.21 70.78 L 745.05 70.78 L 748.88 70.78 L 752.71 70.78 L 756.54 70.78 L 760.37 70.78 L 764.21 70.78 L 768.04 70.78 L 771.87 70.78 L 775.70 70.78 L 779.53 70.78 L 783.36 70.78 L 787.20 70.78 L 791.03 70.78 L 794.86 70.78 L 798.69 70.78 L 802.52 70.78 L 806.36 70.78 L 810.19 70.78 L 814.02 70.78 L 817.85 70.78 L 821.68 70.78 L 825.51 70.78 L 829.35 70.78 L 833.18 70.78 L 837.01 70.78 L 840.84 70.78 L 844.67 70.78 L 848.50 70.78 L 852.34 70.78 L 856.17 70.78 L 860.00 70.78" fill="none" stroke="#111827" stroke-width="2"/>
    <circle cx="860.00" cy="70.78" r="3" fill="#111827"/>
    <text x="40.00" y="235.00" font-size="9" fill="#111827" text-anchor="middle" transform="rotate(-45 40.00 235.00)">28.08.2025</text><text x="120.47" y="235.00" font-size="9" fill="#111827" text-anchor="middle" transform="rotate(-45 120.47 235.00)">28.08.2025</text><text x="200.93" y="235.00" font-size="9" fill="#111827" text-anchor="middle" transform="rotate(-45 200.93 235.00)">11.09.2025</text><text x="281.40" y="235.00" font-size="9" fill="#111827" text-anchor="middle" transform="rotate(-45 281.40 235.00)">26.09.2025</text><text x="361.87" y="235.00" font-size="9" fill="#111827" text-anchor="middle" transform="rotate(-45 361.87 235.00)">16.10.2025</text><text x="442.34" y="235.00" font-size="9" fill="#111827" text-anchor="middle" transform="rotate(-45 442.34 235.00)">04.11.2025</text><text x="522.80" y="235.00" font-size="9" fill="#111827" text-anchor="middle" transform="rotate(-45 522.80 235.00)">24.11.2025</text><text x="603.27" y="235.00" font-size="9" fill="#111827" text-anchor="middle" transform="rotate(-45 603.27 235.00)">05.12.2025</text><text x="683.74" y="235.00" font-size="9" fill="#111827" text-anchor="middle" transform="rotate(-45 683.74 235.00)">19.12.2025</text><text x="764.21" y="235.00" font-size="9" fill="#111827" text-anchor="middle" transform="rotate(-45 764.21 235.00)">08.01.2026</text><text x="844.67" y="235.00" font-size="9" fill="#111827" text-anchor="middle" transform="rotate(-45 844.67 235.00)">27.01.2026</text>
  </g>
</svg>