<svg xmlns="http://www.w3.org/2000/svg" width="900" height="290" style="font-family: -apple-system, BlinkMacSystemFont, 'Segoe UI', Helvetica, Arial, sans-serif;">
  <rect width="100%" height="100%" fill="#0d1117"/>
  <g>
    <line x1="40" y1="220.00" x2="860" y2="220.00" stroke="#30363d"/><text x="32" y="224.00" font-size="10" fill="#c9d1d9" text-anchor="end">0</text><line x1="40" y1="175.00" x2="860" y2="175.00" stroke="#30363d"/><text x="32" y="179.00" font-size="10" fill="#c9d1d9" text-anchor="end">500</text><line x1="40" y1="130.00" x2="860" y2="130.00" stroke="#30363d"/><text x="32" y="134.00" font-size="10" fill="#c9d1d9" text-anchor="end">1k</text><line x1="40" y1="85.00" x2="860" y2="85.00" stroke="#30363d"/><text x="32" y="89.00" font-size="10" fill="#c9d1d9" text-anchor="end">1.5k</text><line x1="40" y1="40.00" x2="860" y2="40.00" stroke="#30363d"/><text x="32" y="44.00" font-size="10" fill="#c9d1d9" text-anchor="end">2k</text>
    <line x1="40.00" y1="40" x2="40.00" y2="220" stroke="#30363d" opacity="0.5"/><line x1="116.64" y1="40" x2="116.64" y2="220" stroke="#30363d" opacity="0.5"/><line x1="193.27" y1="40" x2="193.27" y2="220" stroke="#30363d" opacity="0.5"/><line x1="269.91" y1="40" x2="269.91" y2="220" stroke="#30363d" opacity="0.5"/><line x1="346.54" y1="40" x2="346.54" y2="220" stroke="#30363d" opacity="0.5"/><line x1="423.18" y1="40" x2="423.18" y2="220" stroke="#30363d" opacity="0.5"/><line x1="499.81" y1="40" x2="499.81" y2="220" stroke="#30363d" opacity="0.5"/><line x1="576.45" y1="40" x2="576.45" y2="220" stroke="#30363d" opacity="0.5"/><line x1="653.08" y1="40" x2="653.08" y2="220" stroke="#30363d" opacity="0.5"/><line x1="729.72" y1="40" x2="729.72" y2="220" stroke="#30363d" opacity="0.5"/><line x1="806.36" y1="40" x2="806.36" y2="220" stroke="#30363d" opacity="0.5"/>
    <line x1="40" y1="220" x2="860" y2="220" stroke="#30363d"/>
    <line x1="40" y1="40"   x2="40"   y2="220" stroke="#30363d"/>
    <path d="M 40.00 166.63 L 47.66 166.00 L 55.33 166.00 L 62.99 121.18 L 70.65 115.78 L 78.32 115.78 L 85.98 112.00 L 93.64 108.22 L 101.31 108.22 L 108.97 108.22 L 116.64 108.22 L 124.30 108.22 L 131.96 108.22 L 139.63 108.22 L 147.29 108.22 L 154.95 108.22 L 162.62 108.22 L 170.28 108.22 L 177.94 108.22 L 185.61 108.22 L 193.27 108.22 L 200.93 108.22 L 208.60 109.21 L 216.26 109.12 L 223.93 108.76 L 231.59 108.76 L 239.25 108.76 L 246.92 108.76 L 254.58 108.76 L 262.24 108.76 L 269.91 108.76 L 277.57 108.76 L 285.23 108.76 L 292.90 108.76 L 300.56 108.76 L 308.22 108.76 L 315.89 108.76 L 323.55 108.76 L 331.21 108.76 L 338.88 108.76 L 346.54 108.76 L 354.21 108.76 L 361.87 108.76 L 369.53 108.76 L 377.20 108.76 L 384.86 108.76 L 392.52 108.76 L 400.19 108.76 L 407.85 108.76 L 415.51 108.76 L 423.18 108.76 L 430.84 108.76 L 438.50 108.76 L 446.17 108.76 L 453.83 108.76 L 461.50 108.76 L 469.16 108.76 L 476.82 108.76 L 484.49 108.76 L 492.15 108.76 L 499.81 108.76 L 507.48 108.76 L 515.14 108.76 L 522.80 108.76 L 530.47 108.76 L 538.13 108.76 L 545.79 108.76 L 553.46 108.76 L 561.12 108.76 L 568.79 108.76 L 576.45 108.76 L 584.11 108.76 L 591.78 108.76 L 599.44 108.76 L 607.10 108.76 L 614.77 108.76 L 622.43 108.76 L 630.09 108.76 L 637.76 108.76 L 645.42 108.76 L 653.08 108.76 L 660.75 108.76 L 668.41 108.76 L 676.07 108.76 L 683.74 108.76 L 691.40 108.76 L 699.07 108.76 L 706.73 108.76 L 714.39 108.76 L 722.06 108.76 L 729.72 108.76 L 737.38 108.76 L 745.05 108.76 L 752.71 108.76 L 760.37 108.76 L 768.04 108.76 L 775.70 108.76 L 783.36 108.76 L 791.03 108.76 L 798.69 108.76 L 806.36 108.76 L 814.02 108.76 L 821.68 108.76 L 829.35 108.76 L 837.01 108.76 L 844.67 108.76 L 852.34 108.76 L 860.00 108.76" fill="none" stroke="#3fb950" stroke-width="2"/>
    <circle cx="860.00" cy="108.76" r="3" fill="#3fb950"/>
    <text x="40.00" y="235.00" font-size="9" fill="#c9d1d9" text-anchor="middle" transform="rotate(-45 40.00 235.00)">28.08.2025</text><text x="116.64" y="235.00" font-size="9" fill="#c9d1d9" text-anchor="middle" transform="rotate(-45 116.64 235.00)">28.08.2025</text><text x="193.27" y="235.00" font-size="9" fill="#c9d1d9" text-anchor="middle" transform="rotate(-45 193.27 235.00)">28.08.2025</text><text x="269.91" y="235.00" font-size="9" fill="#c9d1d9" text-anchor="middle" transform="rotate(-45 269.91 235.00)">01.09.2025</text><text x="346.54" y="235.00" font-size="9" fill="#c9d1d9" text-anchor="middle" transform="rotate(-45 346.54 235.00)">09.09.2025</text><text x="423.18" y="235.00" font-size="9" fill="#c9d1d9" text-anchor="middle" transform="rotate(-45 423.18 235.00)">15.09.2025</text><text x="499.81" y="235.00" font-size="9" fill="#c9d1d9" text-anchor="middle" transform="rotate(-45 499.81 235.00)">25.09.2025</text><text x="576.45" y="235.00" font-size="9" fill="#c9d1d9" text-anchor="middle" transform="rotate(-45 576.45 235.00)">05.10.2025</text><text x="653.08" y="235.00" font-size="9" fill="#c9d1d9" text-anchor="middle" transform="rotate(-45 653.08 235.00)">15.10.2025</text><text x="729.72" y="235.00" font-size="9" fill="#c9d1d9" text-anchor="middle" transform="rotate(-45 729.72 235.00)">25.10.2025</text><text x="806.36" y="235.00" font-size="9" fill="#c9d1d9" text-anchor="middle" transform="rotate(-45 806.36 235.00)">04.11.2025</text>
  </g>
</svg>