<svg xmlns="http://www.w3.org/2000/svg" width="900" height="290" style="font-family: -apple-system, BlinkMacSystemFont, 'Segoe UI', Helvetica, Arial, sans-serif;">
  <rect width="100%" height="100%" fill="white"/>
  <g>
    <line x1="40" y1="220.00" x2="860" y2="220.00" stroke="#e5e7eb"/><text x="32" y="224.00" font-size="10" fill="#111827" text-anchor="end">0</text><line x1="40" y1="175.00" x2="860" y2="175.00" stroke="#e5e7eb"/><text x="32" y="179.00" font-size="10" fill="#111827" text-anchor="end">500</text><line x1="40" y1="130.00" x2="860" y2="130.00" stroke="#e5e7eb"/><text x="32" y="134.00" font-size="10" fill="#111827" text-anchor="end">1k</text><line x1="40" y1="85.00" x2="860" y2="85.00" stroke="#e5e7eb"/><text x="32" y="89.00" font-size="10" fill="#111827" text-anchor="end">1.5k</text><line x1="40" y1="40.00" x2="860" y2="40.00" stroke="#e5e7eb"/><text x="32" y="44.00" font-size="10" fill="#111827" text-anchor="end">2k</text>
    <line x1="40.00" y1="40" x2="40.00" y2="220" stroke="#e5e7eb" opacity="0.5"/><line x1="123.39" y1="40" x2="123.39" y2="220" stroke="#e5e7eb" opacity="0.5"/><line x1="206.78" y1="40" x2="206.78" y2="220" stroke="#e5e7eb" opacity="0.5"/><line x1="290.17" y1="40" x2="290.17" y2="220" stroke="#e5e7eb" opacity="0.5"/><line x1="373.56" y1="40" x2="373.56" y2="220" stroke="#e5e7eb" opacity="0.5"/><line x1="456.95" y1="40" x2="456.95" y2="220" stroke="#e5e7eb" opacity="0.5"/><line x1="540.34" y1="40" x2="540.34" y2="220" stroke="#e5e7eb" opacity="0.5"/><line x1="623.73" y1="40" x2="623.73" y2="220" stroke="#e5e7eb" opacity="0.5"/><line x1="707.12" y1="40" x2="707.12" y2="220" stroke="#e5e7eb" opacity="0.5"/><line x1="790.51" y1="40" x2="790.51" y2="220" stroke="#e5e7eb" opacity="0.5"/>
    <line x1="40" y1="220" x2="860" y2="220" stroke="#9ca3af"/>
    <line x1="40" y1="40"   x2="40"   y2="220" stroke="#9ca3af"/>
    <path d="M 40.00 166.63 L 53.90 166.00 L 67.80 166.00 L 81.69 121.18 L 95.59 115.78 L 109.49 115.78 L 123.39 112.00 L 137.29 108.22 L 151.19 108.22 L 165.08 108.22 L 178.98 108.22 L 192.88 108.22 L 206.78 108.22 L 220.68 108.22 L 234.58 108.22 L 248.47 108.22 L 262.37 108.22 L 276.27 108.22 L 290.17 108.22 L 304.07 108.22 L 317.97 108.22 L 331.86 108.22 L 345.76 109.21 L 359.66 109.12 L 373.56 108.76 L 387.46 108.76 L 401.36 108.76 L 415.25 108.76 L 429.15 108.76 L 443.05 108.76 L 456.95 108.76 L 470.85 108.76 L 484.75 108.76 L 498.64 108.76 L 512.54 108.76 L 526.44 108.76 L 540.34 108.76 L 554.24 108.76 L 568.14 108.76 L 582.03 108.76 L 595.93 108.76 L 609.83 108.76 L 623.73 108.76 L 637.63 108.76 L 651.53 108.76 L 665.42 108.76 L 679.32 108.76 L 693.22 108.76 L 707.12 108.76 L 721.02 108.76 L 734.92 108.76 L 748.81 108.76 L 762.71 108.76 L 776.61 108.76 L 790.51 108.76 L 804.41 108.76 L 818.31 108.76 L 832.20 108.76 L 846.10 108.76 L 860.00 108.76" fill="none" stroke="#111827" stroke-width="2"/>
    <circle cx="860.00" cy="108.76" r="3" fill="#111827"/>
    <text x="40.00" y="235.00" font-size="9" fill="#111827" text-anchor="middle" transform="rotate(-45 40.00 235.00)">28.08.2025</text><text x="123.39" y="235.00" font-size="9" fill="#111827" text-anchor="middle" transform="rotate(-45 123.39 235.00)">28.08.2025</text><text x="206.78" y="235.00" font-size="9" fill="#111827" text-anchor="middle" transform="rotate(-45 206.78 235.00)">28.08.2025</text><text x="290.17" y="235.00" font-size="9" fill="#111827" text-anchor="middle" transform="rotate(-45 290.17 235.00)">28.08.2025</text><text x="373.56" y="235.00" font-size="9" fill="#111827" text-anchor="middle" transform="rotate(-45 373.56 235.00)">28.08.2025</text><text x="456.95" y="235.00" font-size="9" fill="#111827" text-anchor="middle" transform="rotate(-45 456.95 235.00)">01.09.2025</text><text x="540.34" y="235.00" font-size="9" fill="#111827" text-anchor="middle" transform="rotate(-45 540.34 235.00)">07.09.2025</text><text x="623.73" y="235.00" font-size="9" fill="#111827" text-anchor="middle" transform="rotate(-45 623.73 235.00)">11.09.2025</text><text x="707.12" y="235.00" font-size="9" fill="#111827" text-anchor="middle" transform="rotate(-45 707.12 235.00)">15.09.2025</text><text x="790.51" y="235.00" font-size="9" fill="#111827" text-anchor="middle" transform="rotate(-45 790.51 235.00)">19.09.2025</text>
  </g>
</svg>