<svg xmlns="http://www.w3.org/2000/svg" width="900" height="290" style="font-family: -apple-system, BlinkMacSystemFont, 'Segoe UI', Helvetica, Arial, sans-serif;">
  <rect width="100%" height="100%" fill="#0d1117"/>
  <g>
    <line x1="40" y1="220.00" x2="860" y2="220.00" stroke="#30363d"/><text x="32" y="224.00" font-size="10" fill="#c9d1d9" text-anchor="end">0</text><line x1="40" y1="175.00" x2="860" y2="175.00" stroke="#30363d"/><text x="32" y="179.00" font-size="10" fill="#c9d1d9" text-anchor="end">500</text><line x1="40" y1="130.00" x2="860" y2="130.00" stroke="#30363d"/><text x="32" y="134.00" font-size="10" fill="#c9d1d9" text-anchor="end">1k</text><line x1="40" y1="85.00" x2="860" y2="85.00" stroke="#30363d"/><text x="32" y="89.00" font-size="10" fill="#c9d1d9" text-anchor="end">1.5k</text><line x1="40" y1="40.00" x2="860" y2="40.00" stroke="#30363d"/><text x="32" y="44.00" font-size="10" fill="#c9d1d9" text-anchor="end">2k</text>
    <line x1="40.00" y1="40" x2="40.00" y2="220" stroke="#30363d" opacity="0.5"/><line x1="122.46" y1="40" x2="122.46" y2="220" stroke="#30363d" opacity="0.5"/><line x1="204.92" y1="40" x2="204.92" y2="220" stroke="#30363d" opacity="0.5"/><line x1="287.37" y1="40" x2="287.37" y2="220" stroke="#30363d" opacity="0.5"/><line x1="369.83" y1="40" x2="369.83" y2="220" stroke="#30363d" opacity="0.5"/><line x1="452.29" y1="40" x2="452.29" y2="220" stroke="#30363d" opacity="0.5"/><line x1="534.75" y1="40" x2="534.75" y2="220" stroke="#30363d" opacity="0.5"/><line x1="617.21" y1="40" x2="617.21" y2="220" stroke="#30363d" opacity="0.5"/><line x1="699.66" y1="40" x2="699.66" y2="220" stroke="#30363d" opacity="0.5"/><line x1="782.12" y1="40" x2="782.12" y2="220" stroke="#30363d" opacity="0.5"/>
    <line x1="40" y1="220" x2="860" y2="220" stroke="#30363d"/>
    <line x1="40" y1="40"   x2="40"   y2="220" stroke="#30363d"/>
    <path d="M 40.00 166.63 L 44.58 166.00 L 49.16 166.00 L 53.74 121.18 L 58.32 115.78 L 62.91 115.78 L 67.49 112.00 L 72.07 108.22 L 76.65 108.22 L 81.23 108.22 L 85.81 108.22 L 90.39 108.22 L 94.97 108.22 L 99.55 108.22 L 104.13 108.22 L 108.72 108.22 L 113.30 108.22 L 117.88 108.22 L 122.46 108.22 L 127.04 108.22 L 131.62 108.22 L 136.20 108.22 L 140.78 109.21 L 145.36 109.12 L 149.94 108.76 L 154.53 108.76 L 159.11 108.76 L 163.69 108.76 L 168.27 108.76 L 172.85 108.76 L 177.43 108.76 L 182.01 108.76 L 186.59 108.76 L 191.17 108.76 L 195.75 108.76 L 200.34 108.76 L 204.92 108.76 L 209.50 108.76 L 214.08 108.76 L 218.66 108.76 L 223.24 108.76 L 227.82 108.76 L 232.40 108.76 L 236.98 108.76 L 241.56 108.76 L 246.15 108.76 L 250.73 108.76 L 255.31 108.76 L 259.89 108.76 L 264.47 108.76 L 269.05 108.76 L 273.63 108.76 L 278.21 108.76 L 282.79 108.76 L 287.37 108.76 L 291.96 108.76 L 296.54 108.76 L 301.12 108.76 L 305.70 108.76 L 310.28 108.76 L 314.86 108.76 L 319.44 108.76 L 324.02 108.76 L 328.60 108.76 L 333.18 108.76 L 337.77 108.76 L 342.35 108.76 L 346.93 108.76 L 351.51 108.76 L 356.09 108.76 L 360.67 108.76 L 365.25 108.76 L 369.83 108.76 L 374.41 108.76 L 378.99 108.76 L 383.58 108.76 L 388.16 108.76 L 392.74 108.76 L 397.32 108.76 L 401.90 108.76 L 406.48 108.76 L 411.06 108.76 L 415.64 108.76 L 420.22 108.76 L 424.80 108.76 L 429.39 108.76 L 433.97 108.76 L 438.55 108.76 L 443.13 108.76 L 447.71 108.76 L 452.29 108.76 L 456.87 108.76 L 461.45 108.76 L 466.03 108.76 L 470.61 108.76 L 475.20 108.76 L 479.78 108.76 L 484.36 108.76 L 488.94 108.76 L 493.52 108.76 L 498.10 108.76 L 502.68 108.76 L 507.26 108.76 L 511.84 108.76 L 516.42 108.76 L 521.01 108.76 L 525.59 108.76 L 530.17 108.76 L 534.75 108.76 L 539.33 108.76 L 543.91 108.76 L 548.49 108.76 L 553.07 108.76 L 557.65 108.76 L 562.23 108.76 L 566.82 108.76 L 571.40 108.76 L 575.98 108.76 L 580.56 108.76 L 585.14 108.76 L 589.72 108.76 L 594.30 108.76 L 598.88 108.76 L 603.46 108.76 L 608.04 108.76 L 612.63 108.76 L 617.21 108.76 L 621.79 108.76 L 626.37 108.76 L 630.95 108.76 L 635.53 108.76 L 640.11 108.76 L 644.69 108.76 L 649.27 108.76 L 653.85 108.76 L 658.44 108.76 L 663.02 108.76 L 667.60 108.76 L 672.18 108.76 L 676.76 108.76 L 681.34 108.76 L 685.92 108.76 L 690.50 108.76 L 695.08 108.94 L 699.66 100.39 L 704.25 81.40 L 708.83 81.40 L 713.41 81.40 L 717.99 81.40 L 722.57 81.40 L 727.15 70.78 L 731.73 70.78 L 736.31 70.78 L 740.89 70.78 L 745.47 70.78 L 750.06 70.78 L 754.64 70.78 L 759.22 70.78 L 763.80 70.78 L 768.38 70.78 L 772.96 70.78 L 777.54 70.78 L 782.12 70.78 L 786.70 70.78 L 791.28 70.78 L 795.87 70.78 L 800.45 70.78 L 805.03 70.78 L 809.61 70.78 L 814.19 70.78 L 818.77 70.78 L 823.35 70.78 L 827.93 70.78 L 832.51 70.78 L 837.09 70.78 L 841.68 70.78 L 846.26 70.78 L 850.84 70.78 L 855.42 70.78 L 860.00 70.78" fill="none" stroke="#3fb950" stroke-width="2"/>
    <circle cx="860.00" cy="70.78" r="3" fill="#3fb950"/>
    <text x="40.00" y="235.00" font-size="9" fill="#c9d1d9" text-anchor="middle" transform="rotate(-45 40.00 235.00)">28.08.2025</text><text x="122.46" y="235.00" font-size="9" fill="#c9d1d9" text-anchor="middle" transform="rotate(-45 122.46 235.00)">28.08.2025</text><text x="204.92" y="235.00" font-size="9" fill="#c9d1d9" text-anchor="middle" transform="rotate(-45 204.92 235.00)">07.09.2025</text><text x="287.37" y="235.00" font-size="9" fill="#c9d1d9" text-anchor="middle" transform="rotate(-45 287.37 235.00)">17.09.2025</text><text x="369.83" y="235.00" font-size="9" fill="#c9d1d9" text-anchor="middle" transform="rotate(-45 369.83 235.00)">05.10.2025</text><text x="452.29" y="235.00" font-size="9" fill="#c9d1d9" text-anchor="middle" transform="rotate(-45 452.29 235.00)">22.10.2025</text><text x="534.75" y="235.00" font-size="9" fill="#c9d1d9" text-anchor="middle" transform="rotate(-45 534.75 235.00)">07.11.2025</text><text x="617.21" y="235.00" font-size="9" fill="#c9d1d9" text-anchor="middle" transform="rotate(-45 617.21 235.00)">24.11.2025</text><text x="699.66" y="235.00" font-size="9" fill="#c9d1d9" text-anchor="middle" transform="rotate(-45 699.66 235.00)">04.12.2025</text><text x="782.12" y="235.00" font-size="9" fill="#c9d1d9" text-anchor="middle" transform="rotate(-45 782.12 235.00)">14.12.2025</text>
  </g>
</svg>