<svg xmlns="http://www.w3.org/2000/svg" width="900" height="290" style="font-family: -apple-system, BlinkMacSystemFont, 'Segoe UI', Helvetica, Arial, sans-serif;">
  <rect width="100%" height="100%" fill="white"/>
  <g>
    <line x1="40" y1="220.00" x2="860" y2="220.00" stroke="#e5e7eb"/><text x="32" y="224.00" font-size="10" fill="#111827" text-anchor="end">0</text><line x1="40" y1="175.00" x2="860" y2="175.00" stroke="#e5e7eb"/><text x="32" y="179.00" font-size="10" fill="#111827" text-anchor="end">500</text><line x1="40" y1="130.00" x2="860" y2="130.00" stroke="#e5e7eb"/><text x="32" y="134.00" font-size="10" fill="#111827" text-anchor="end">1k</text><line x1="40" y1="85.00" x2="860" y2="85.00" stroke="#e5e7eb"/><text x="32" y="89.00" font-size="10" fill="#111827" text-anchor="end">1.5k</text><line x1="40" y1="40.00" x2="860" y2="40.00" stroke="#e5e7eb"/><text x="32" y="44.00" font-size="10" fill="#111827" text-anchor="end">2k</text>
    <line x1="40.00" y1="40" x2="40.00" y2="220" stroke="#e5e7eb" opacity="0.5"/><line x1="118.69" y1="40" x2="118.69" y2="220" stroke="#e5e7eb" opacity="0.5"/><line x1="197.37" y1="40" x2="197.37" y2="220" stroke="#e5e7eb" opacity="0.5"/><line x1="276.06" y1="40" x2="276.06" y2="220" stroke="#e5e7eb" opacity="0.5"/><line x1="354.75" y1="40" x2="354.75" y2="220" stroke="#e5e7eb" opacity="0.5"/><line x1="433.43" y1="40" x2="433.43" y2="220" stroke="#e5e7eb" opacity="0.5"/><line x1="512.12" y1="40" x2="512.12" y2="220" stroke="#e5e7eb" opacity="0.5"/><line x1="590.81" y1="40" x2="590.81" y2="220" stroke="#e5e7eb" opacity="0.5"/><line x1="669.49" y1="40" x2="669.49" y2="220" stroke="#e5e7eb" opacity="0.5"/><line x1="748.18" y1="40" x2="748.18" y2="220" stroke="#e5e7eb" opacity="0.5"/><line x1="826.87" y1="40" x2="826.87" y2="220" stroke="#e5e7eb" opacity="0.5"/>
    <line x1="40" y1="220" x2="860" y2="220" stroke="#9ca3af"/>
    <line x1="40" y1="40"   x2="40"   y2="220" stroke="#9ca3af"/>
    <path d="M 40.00 166.63 L 44.14 166.00 L 48.28 166.00 L 52.42 121.18 L 56.57 115.78 L 60.71 115.78 L 64.85 112.00 L 68.99 108.22 L 73.13 108.22 L 77.27 108.22 L 81.41 108.22 L 85.56 108.22 L 89.70 108.22 L 93.84 108.22 L 97.98 108.22 L 102.12 108.22 L 106.26 108.22 L 110.40 108.22 L 114.55 108.22 L 118.69 108.22 L 122.83 108.22 L 126.97 108.22 L 131.11 109.21 L 135.25 109.12 L 139.39 108.76 L 143.54 108.76 L 147.68 108.76 L 151.82 108.76 L 155.96 108.76 L 160.10 108.76 L 164.24 108.76 L 168.38 108.76 L 172.53 108.76 L 176.67 108.76 L 180.81 108.76 L 184.95 108.76 L 189.09 108.76 L 193.23 108.76 L 197.37 108.76 L 201.52 108.76 L 205.66 108.76 L 209.80 108.76 L 213.94 108.76 L 218.08 108.76 L 222.22 108.76 L 226.36 108.76 L 230.51 108.76 L 234.65 108.76 L 238.79 108.76 L 242.93 108.76 L 247.07 108.76 L 251.21 108.76 L 255.35 108.76 L 259.49 108.76 L 263.64 108.76 L 267.78 108.76 L 271.92 108.76 L 276.06 108.76 L 280.20 108.76 L 284.34 108.76 L 288.48 108.76 L 292.63 108.76 L 296.77 108.76 L 300.91 108.76 L 305.05 108.76 L 309.19 108.76 L 313.33 108.76 L 317.47 108.76 L 321.62 108.76 L 325.76 108.76 L 329.90 108.76 L 334.04 108.76 L 338.18 108.76 L 342.32 108.76 L 346.46 108.76 L 350.61 108.76 L 354.75 108.76 L 358.89 108.76 L 363.03 108.76 L 367.17 108.76 L 371.31 108.76 L 375.45 108.76 L 379.60 108.76 L 383.74 108.76 L 387.88 108.76 L 392.02 108.76 L 396.16 108.76 L 400.30 108.76 L 404.44 108.76 L 408.59 108.76 L 412.73 108.76 L 416.87 108.76 L 421.01 108.76 L 425.15 108.76 L 429.29 108.76 L 433.43 108.76 L 437.58 108.76 L 441.72 108.76 L 445.86 108.76 L 450.00 108.76 L 454.14 108.76 L 458.28 108.76 L 462.42 108.76 L 466.57 108.76 L 470.71 108.76 L 474.85 108.76 L 478.99 108.76 L 483.13 108.76 L 487.27 108.76 L 491.41 108.76 L 495.56 108.76 L 499.70 108.76 L 503.84 108.76 L 507.98 108.76 L 512.12 108.76 L 516.26 108.76 L 520.40 108.76 L 524.55 108.76 L 528.69 108.76 L 532.83 108.76 L 536.97 108.76 L 541.11 108.76 L 545.25 108.76 L 549.39 108.76 L 553.54 108.76 L 557.68 108.76 L 561.82 108.76 L 565.96 108.76 L 570.10 108.76 L 574.24 108.76 L 578.38 108.76 L 582.53 108.76 L 586.67 108.76 L 590.81 108.76 L 594.95 108.76 L 599.09 108.76 L 603.23 108.76 L 607.37 108.76 L 611.52 108.76 L 615.66 108.76 L 619.80 108.76 L 623.94 108.76 L 628.08 108.76 L 632.22 108.94 L 636.36 100.39 L 640.51 81.40 L 644.65 81.40 L 648.79 81.40 L 652.93 81.40 L 657.07 81.40 L 661.21 70.78 L 665.35 70.78 L 669.49 70.78 L 673.64 70.78 L 677.78 70.78 L 681.92 70.78 L 686.06 70.78 L 690.20 70.78 L 694.34 70.78 L 698.48 70.78 L 702.63 70.78 L 706.77 70.78 L 710.91 70.78 L 715.05 70.78 L 719.19 70.78 L 723.33 70.78 L 727.47 70.78 L 731.62 70.78 L 735.76 70.78 L 739.90 70.78 L 744.04 70.78 L 748.18 70.78 L 752.32 70.78 L 756.46 70.78 L 760.61 70.78 L 764.75 70.78 L 768.89 70.78 L 773.03 70.78 L 777.17 70.78 L 781.31 70.78 L 785.45 70.78 L 789.60 70.78 L 793.74 70.78 L 797.88 70.78 L 802.02 70.78 L 806.16 70.78 L 810.30 70.78 L 814.44 70.78 L 818.59 70.78 L 822.73 70.78 L 826.87 70.78 L 831.01 70.78 L 835.15 70.78 L 839.29 70.78 L 843.43 70.78 L 847.58 70.78 L 851.72 70.78 L 855.86 70.78 L 860.00 70.78" fill="none" stroke="#111827" stroke-width="2"/>
    <circle cx="860.00" cy="70.78" r="3" fill="#111827"/>
    <text x="40.00" y="235.00" font-size="9" fill="#111827" text-anchor="middle" transform="rotate(-45 40.00 235.00)">28.08.2025</text><text x="118.69" y="235.00" font-size="9" fill="#111827" text-anchor="middle" transform="rotate(-45 118.69 235.00)">28.08.2025</text><text x="197.37" y="235.00" font-size="9" fill="#111827" text-anchor="middle" transform="rotate(-45 197.37 235.00)">08.09.2025</text><text x="276.06" y="235.00" font-size="9" fill="#111827" text-anchor="middle" transform="rotate(-45 276.06 235.00)">20.09.2025</text><text x="354.75" y="235.00" font-size="9" fill="#111827" text-anchor="middle" transform="rotate(-45 354.75 235.00)">08.10.2025</text><text x="433.43" y="235.00" font-size="9" fill="#111827" text-anchor="middle" transform="rotate(-45 433.43 235.00)">27.10.2025</text><text x="512.12" y="235.00" font-size="9" fill="#111827" text-anchor="middle" transform="rotate(-45 512.12 235.00)">13.11.2025</text><text x="590.81" y="235.00" font-size="9" fill="#111827" text-anchor="middle" transform="rotate(-45 590.81 235.00)">28.11.2025</text><text x="669.49" y="235.00" font-size="9" fill="#111827" text-anchor="middle" transform="rotate(-45 669.49 235.00)">09.12.2025</text><text x="748.18" y="235.00" font-size="9" fill="#111827" text-anchor="middle" transform="rotate(-45 748.18 235.00)">22.12.2025</text><text x="826.87" y="235.00" font-size="9" fill="#111827" text-anchor="middle" transform="rotate(-45 826.87 235.00)">09.01.2026</text>
  </g>
</svg>