<svg xmlns="http://www.w3.org/2000/svg" width="900" height="290" style="font-family: -apple-system, BlinkMacSystemFont, 'Segoe UI', Helvetica, Arial, sans-serif;">
  <rect width="100%" height="100%" fill="#0d1117"/>
  <g>
    <line x1="40" y1="220.00" x2="860" y2="220.00" stroke="#30363d"/><text x="32" y="224.00" font-size="10" fill="#c9d1d9" text-anchor="end">0</text><line x1="40" y1="175.00" x2="860" y2="175.00" stroke="#30363d"/><text x="32" y="179.00" font-size="10" fill="#c9d1d9" text-anchor="end">500</text><line x1="40" y1="130.00" x2="860" y2="130.00" stroke="#30363d"/><text x="32" y="134.00" font-size="10" fill="#c9d1d9" text-anchor="end">1k</text><line x1="40" y1="85.00" x2="860" y2="85.00" stroke="#30363d"/><text x="32" y="89.00" font-size="10" fill="#c9d1d9" text-anchor="end">1.5k</text><line x1="40" y1="40.00" x2="860" y2="40.00" stroke="#30363d"/><text x="32" y="44.00" font-size="10" fill="#c9d1d9" text-anchor="end">2k</text>
    <line x1="40.00" y1="40" x2="40.00" y2="220" stroke="#30363d" opacity="0.5"/><line x1="119.47" y1="40" x2="119.47" y2="220" stroke="#30363d" opacity="0.5"/><line x1="198.94" y1="40" x2="198.94" y2="220" stroke="#30363d" opacity="0.5"/><line x1="278.41" y1="40" x2="278.41" y2="220" stroke="#30363d" opacity="0.5"/><line x1="357.89" y1="40" x2="357.89" y2="220" stroke="#30363d" opacity="0.5"/><line x1="437.36" y1="40" x2="437.36" y2="220" stroke="#30363d" opacity="0.5"/><line x1="516.83" y1="40" x2="516.83" y2="220" stroke="#30363d" opacity="0.5"/><line x1="596.30" y1="40" x2="596.30" y2="220" stroke="#30363d" opacity="0.5"/><line x1="675.77" y1="40" x2="675.77" y2="220" stroke="#30363d" opacity="0.5"/><line x1="755.24" y1="40" x2="755.24" y2="220" stroke="#30363d" opacity="0.5"/><line x1="834.71" y1="40" x2="834.71" y2="220" stroke="#30363d" opacity="0.5"/>
    <line x1="40" y1="220" x2="860" y2="220" stroke="#30363d"/>
    <line x1="40" y1="40"   x2="40"   y2="220" stroke="#30363d"/>
    <path d="M 40.00 166.63 L 43.61 166.00 L 47.22 166.00 L 50.84 121.18 L 54.45 115.78 L 58.06 115.78 L 61.67 112.00 L 65.29 108.22 L 68.90 108.22 L 72.51 108.22 L 76.12 108.22 L 79.74 108.22 L 83.35 108.22 L 86.96 108.22 L 90.57 108.22 L 94.19 108.22 L 97.80 108.22 L 101.41 108.22 L 105.02 108.22 L 108.63 108.22 L 112.25 108.22 L 115.86 108.22 L 119.47 109.21 L 123.08 109.12 L 126.70 108.76 L 130.31 108.76 L 133.92 108.76 L 137.53 108.76 L 141.15 108.76 L 144.76 108.76 L 148.37 108.76 L 151.98 108.76 L 155.59 108.76 L 159.21 108.76 L 162.82 108.76 L 166.43 108.76 L 170.04 108.76 L 173.66 108.76 L 177.27 108.76 L 180.88 108.76 L 184.49 108.76 L 188.11 108.76 L 191.72 108.76 L 195.33 108.76 L 198.94 108.76 L 202.56 108.76 L 206.17 108.76 L 209.78 108.76 L 213.39 108.76 L 217.00 108.76 L 220.62 108.76 L 224.23 108.76 L 227.84 108.76 L 231.45 108.76 L 235.07 108.76 L 238.68 108.76 L 242.29 108.76 L 245.90 108.76 L 249.52 108.76 L 253.13 108.76 L 256.74 108.76 L 260.35 108.76 L 263.96 108.76 L 267.58 108.76 L 271.19 108.76 L 274.80 108.76 L 278.41 108.76 L 282.03 108.76 L 285.64 108.76 L 289.25 108.76 L 292.86 108.76 L 296.48 108.76 L 300.09 108.76 L 303.70 108.76 L 307.31 108.76 L 310.93 108.76 L 314.54 108.76 L 318.15 108.76 L 321.76 108.76 L 325.37 108.76 L 328.99 108.76 L 332.60 108.76 L 336.21 108.76 L 339.82 108.76 L 343.44 108.76 L 347.05 108.76 L 350.66 108.76 L 354.27 108.76 L 357.89 108.76 L 361.50 108.76 L 365.11 108.76 L 368.72 108.76 L 372.33 108.76 L 375.95 108.76 L 379.56 108.76 L 383.17 108.76 L 386.78 108.76 L 390.40 108.76 L 394.01 108.76 L 397.62 108.76 L 401.23 108.76 L 404.85 108.76 L 408.46 108.76 L 412.07 108.76 L 415.68 108.76 L 419.30 108.76 L 422.91 108.76 L 426.52 108.76 L 430.13 108.76 L 433.74 108.76 L 437.36 108.76 L 440.97 108.76 L 444.58 108.76 L 448.19 108.76 L 451.81 108.76 L 455.42 108.76 L 459.03 108.76 L 462.64 108.76 L 466.26 108.76 L 469.87 108.76 L 473.48 108.76 L 477.09 108.76 L 480.70 108.76 L 484.32 108.76 L 487.93 108.76 L 491.54 108.76 L 495.15 108.76 L 498.77 108.76 L 502.38 108.76 L 505.99 108.76 L 509.60 108.76 L 513.22 108.76 L 516.83 108.76 L 520.44 108.76 L 524.05 108.76 L 527.67 108.76 L 531.28 108.76 L 534.89 108.76 L 538.50 108.76 L 542.11 108.76 L 545.73 108.76 L 549.34 108.76 L 552.95 108.76 L 556.56 108.94 L 560.18 100.39 L 563.79 81.40 L 567.40 81.40 L 571.01 81.40 L 574.63 81.40 L 578.24 81.40 L 581.85 70.78 L 585.46 70.78 L 589.07 70.78 L 592.69 70.78 L 596.30 70.78 L 599.91 70.78 L 603.52 70.78 L 607.14 70.78 L 610.75 70.78 L 614.36 70.78 L 617.97 70.78 L 621.59 70.78 L 625.20 70.78 L 628.81 70.78 L 632.42 70.78 L 636.04 70.78 L 639.65 70.78 L 643.26 70.78 L 646.87 70.78 L 650.48 70.78 L 654.10 70.78 L 657.71 70.78 L 661.32 70.78 L 664.93 70.78 L 668.55 70.78 L 672.16 70.78 L 675.77 70.78 L 679.38 70.78 L 683.00 70.78 L 686.61 70.78 L 690.22 70.78 L 693.83 70.78 L 697.44 70.78 L 701.06 70.78 L 704.67 70.78 L 708.28 70.78 L 711.89 70.78 L 715.51 70.78 L 719.12 70.78 L 722.73 70.78 L 726.34 70.78 L 729.96 70.78 L 733.57 70.78 L 737.18 70.78 L 740.79 70.78 L 744.41 70.78 L 748.02 70.78 L 751.63 70.78 L 755.24 70.78 L 758.85 70.78 L 762.47 70.78 L 766.08 70.78 L 769.69 70.78 L 773.30 70.78 L 776.92 70.78 L 780.53 70.78 L 784.14 70.78 L 787.75 70.78 L 791.37 70.78 L 794.98 70.78 L 798.59 70.78 L 802.20 70.78 L 805.81 70.78 L 809.43 70.78 L 813.04 70.78 L 816.65 70.78 L 820.26 70.78 L 823.88 70.78 L 827.49 70.78 L 831.10 70.78 L 834.71 70.78 L 838.33 70.78 L 841.94 70.78 L 845.55 70.78 L 849.16 70.78 L 852.78 70.78 L 856.39 70.78 L 860.00 70.78" fill="none" stroke="#3fb950" stroke-width="2"/>
    <circle cx="860.00" cy="70.78" r="3" fill="#3fb950"/>
    <text x="40.00" y="235.00" font-size="9" fill="#c9d1d9" text-anchor="middle" transform="rotate(-45 40.00 235.00)">28.08.2025</text><text x="119.47" y="235.00" font-size="9" fill="#c9d1d9" text-anchor="middle" transform="rotate(-45 119.47 235.00)">28.08.2025</text><text x="198.94" y="235.00" font-size="9" fill="#c9d1d9" text-anchor="middle" transform="rotate(-45 198.94 235.00)">13.09.2025</text><text x="278.41" y="235.00" font-size="9" fill="#c9d1d9" text-anchor="middle" transform="rotate(-45 278.41 235.00)">29.09.2025</text><text x="357.89" y="235.00" font-size="9" fill="#c9d1d9" text-anchor="middle" transform="rotate(-45 357.89 235.00)">20.10.2025</text><text x="437.36" y="235.00" font-size="9" fill="#c9d1d9" text-anchor="middle" transform="rotate(-45 437.36 235.00)">09.11.2025</text><text x="516.83" y="235.00" font-size="9" fill="#c9d1d9" text-anchor="middle" transform="rotate(-45 516.83 235.00)">28.11.2025</text><text x="596.30" y="235.00" font-size="9" fill="#c9d1d9" text-anchor="middle" transform="rotate(-45 596.30 235.00)">11.12.2025</text><text x="675.77" y="235.00" font-size="9" fill="#c9d1d9" text-anchor="middle" transform="rotate(-45 675.77 235.00)">26.12.2025</text><text x="755.24" y="235.00" font-size="9" fill="#c9d1d9" text-anchor="middle" transform="rotate(-45 755.24 235.00)">15.01.2026</text><text x="834.71" y="235.00" font-size="9" fill="#c9d1d9" text-anchor="middle" transform="rotate(-45 834.71 235.00)">06.02.2026</text>
  </g>
</svg>