<svg xmlns="http://www.w3.org/2000/svg" width="900" height="290" style="font-family: -apple-system, BlinkMacSystemFont, 'Segoe UI', Helvetica, Arial, sans-serif;">
  <rect width="100%" height="100%" fill="white"/>
  <g>
    <line x1="40" y1="220.00" x2="860" y2="220.00" stroke="#e5e7eb"/><text x="32" y="224.00" font-size="10" fill="#111827" text-anchor="end">0</text><line x1="40" y1="175.00" x2="860" y2="175.00" stroke="#e5e7eb"/><text x="32" y="179.00" font-size="10" fill="#111827" text-anchor="end">500</text><line x1="40" y1="130.00" x2="860" y2="130.00" stroke="#e5e7eb"/><text x="32" y="134.00" font-size="10" fill="#111827" text-anchor="end">1k</text><line x1="40" y1="85.00" x2="860" y2="85.00" stroke="#e5e7eb"/><text x="32" y="89.00" font-size="10" fill="#111827" text-anchor="end">1.5k</text><line x1="40" y1="40.00" x2="860" y2="40.00" stroke="#e5e7eb"/><text x="32" y="44.00" font-size="10" fill="#111827" text-anchor="end">2k</text>
    <line x1="40.00" y1="40" x2="40.00" y2="220" stroke="#e5e7eb" opacity="0.5"/><line x1="121.19" y1="40" x2="121.19" y2="220" stroke="#e5e7eb" opacity="0.5"/><line x1="202.38" y1="40" x2="202.38" y2="220" stroke="#e5e7eb" opacity="0.5"/><line x1="283.56" y1="40" x2="283.56" y2="220" stroke="#e5e7eb" opacity="0.5"/><line x1="364.75" y1="40" x2="364.75" y2="220" stroke="#e5e7eb" opacity="0.5"/><line x1="445.94" y1="40" x2="445.94" y2="220" stroke="#e5e7eb" opacity="0.5"/><line x1="527.13" y1="40" x2="527.13" y2="220" stroke="#e5e7eb" opacity="0.5"/><line x1="608.32" y1="40" x2="608.32" y2="220" stroke="#e5e7eb" opacity="0.5"/><line x1="689.50" y1="40" x2="689.50" y2="220" stroke="#e5e7eb" opacity="0.5"/><line x1="770.69" y1="40" x2="770.69" y2="220" stroke="#e5e7eb" opacity="0.5"/><line x1="851.88" y1="40" x2="851.88" y2="220" stroke="#e5e7eb" opacity="0.5"/>
    <line x1="40" y1="220" x2="860" y2="220" stroke="#9ca3af"/>
    <line x1="40" y1="40"   x2="40"   y2="220" stroke="#9ca3af"/>
    <path d="M 40.00 166.63 L 48.12 166.00 L 56.24 166.00 L 64.36 121.18 L 72.48 115.78 L 80.59 115.78 L 88.71 112.00 L 96.83 108.22 L 104.95 108.22 L 113.07 108.22 L 121.19 108.22 L 129.31 108.22 L 137.43 108.22 L 145.54 108.22 L 153.66 108.22 L 161.78 108.22 L 169.90 108.22 L 178.02 108.22 L 186.14 108.22 L 194.26 108.22 L 202.38 108.22 L 210.50 108.22 L 218.61 109.21 L 226.73 109.12 L 234.85 108.76 L 242.97 108.76 L 251.09 108.76 L 259.21 108.76 L 267.33 108.76 L 275.45 108.76 L 283.56 108.76 L 291.68 108.76 L 299.80 108.76 L 307.92 108.76 L 316.04 108.76 L 324.16 108.76 L 332.28 108.76 L 340.40 108.76 L 348.51 108.76 L 356.63 108.76 L 364.75 108.76 L 372.87 108.76 L 380.99 108.76 L 389.11 108.76 L 397.23 108.76 L 405.35 108.76 L 413.47 108.76 L 421.58 108.76 L 429.70 108.76 L 437.82 108.76 L 445.94 108.76 L 454.06 108.76 L 462.18 108.76 L 470.30 108.76 L 478.42 108.76 L 486.53 108.76 L 494.65 108.76 L 502.77 108.76 L 510.89 108.76 L 519.01 108.76 L 527.13 108.76 L 535.25 108.76 L 543.37 108.76 L 551.49 108.76 L 559.60 108.76 L 567.72 108.76 L 575.84 108.76 L 583.96 108.76 L 592.08 108.76 L 600.20 108.76 L 608.32 108.76 L 616.44 108.76 L 624.55 108.76 L 632.67 108.76 L 640.79 108.76 L 648.91 108.76 L 657.03 108.76 L 665.15 108.76 L 673.27 108.76 L 681.39 108.76 L 689.50 108.76 L 697.62 108.76 L 705.74 108.76 L 713.86 108.76 L 721.98 108.76 L 730.10 108.76 L 738.22 108.76 L 746.34 108.76 L 754.46 108.76 L 762.57 108.76 L 770.69 108.76 L 778.81 108.76 L 786.93 108.76 L 795.05 108.76 L 803.17 108.76 L 811.29 108.76 L 819.41 108.76 L 827.52 108.76 L 835.64 108.76 L 843.76 108.76 L 851.88 108.76 L 860.00 108.76" fill="none" stroke="#111827" stroke-width="2"/>
    <circle cx="860.00" cy="108.76" r="3" fill="#111827"/>
    <text x="40.00" y="235.00" font-size="9" fill="#111827" text-anchor="middle" transform="rotate(-45 40.00 235.00)">28.08.2025</text><text x="121.19" y="235.00" font-size="9" fill="#111827" text-anchor="middle" transform="rotate(-45 121.19 235.00)">28.08.2025</text><text x="202.38" y="235.00" font-size="9" fill="#111827" text-anchor="middle" transform="rotate(-45 202.38 235.00)">28.08.2025</text><text x="283.56" y="235.00" font-size="9" fill="#111827" text-anchor="middle" transform="rotate(-45 283.56 235.00)">01.09.2025</text><text x="364.75" y="235.00" font-size="9" fill="#111827" text-anchor="middle" transform="rotate(-45 364.75 235.00)">09.09.2025</text><text x="445.94" y="235.00" font-size="9" fill="#111827" text-anchor="middle" transform="rotate(-45 445.94 235.00)">15.09.2025</text><text x="527.13" y="235.00" font-size="9" fill="#111827" text-anchor="middle" transform="rotate(-45 527.13 235.00)">25.09.2025</text><text x="608.32" y="235.00" font-size="9" fill="#111827" text-anchor="middle" transform="rotate(-45 608.32 235.00)">05.10.2025</text><text x="689.50" y="235.00" font-size="9" fill="#111827" text-anchor="middle" transform="rotate(-45 689.50 235.00)">15.10.2025</text><text x="770.69" y="235.00" font-size="9" fill="#111827" text-anchor="middle" transform="rotate(-45 770.69 235.00)">25.10.2025</text><text x="851.88" y="235.00" font-size="9" fill="#111827" text-anchor="middle" transform="rotate(-45 851.88 235.00)">04.11.2025</text>
  </g>
</svg>