<svg xmlns="http://www.w3.org/2000/svg" width="900" height="290" style="font-family: -apple-system, BlinkMacSystemFont, 'Segoe UI', Helvetica, Arial, sans-serif;">
  <rect width="100%" height="100%" fill="#0d1117"/>
  <g>
    <line x1="40" y1="220.00" x2="860" y2="220.00" stroke="#30363d"/><text x="32" y="224.00" font-size="10" fill="#c9d1d9" text-anchor="end">0</text><line x1="40" y1="175.00" x2="860" y2="175.00" stroke="#30363d"/><text x="32" y="179.00" font-size="10" fill="#c9d1d9" text-anchor="end">500</text><line x1="40" y1="130.00" x2="860" y2="130.00" stroke="#30363d"/><text x="32" y="134.00" font-size="10" fill="#c9d1d9" text-anchor="end">1k</text><line x1="40" y1="85.00" x2="860" y2="85.00" stroke="#30363d"/><text x="32" y="89.00" font-size="10" fill="#c9d1d9" text-anchor="end">1.5k</text><line x1="40" y1="40.00" x2="860" y2="40.00" stroke="#30363d"/><text x="32" y="44.00" font-size="10" fill="#c9d1d9" text-anchor="end">2k</text>
    <line x1="40.00" y1="40" x2="40.00" y2="220" stroke="#30363d" opacity="0.5"/><line x1="115.40" y1="40" x2="115.40" y2="220" stroke="#30363d" opacity="0.5"/><line x1="190.80" y1="40" x2="190.80" y2="220" stroke="#30363d" opacity="0.5"/><line x1="266.21" y1="40" x2="266.21" y2="220" stroke="#30363d" opacity="0.5"/><line x1="341.61" y1="40" x2="341.61" y2="220" stroke="#30363d" opacity="0.5"/><line x1="417.01" y1="40" x2="417.01" y2="220" stroke="#30363d" opacity="0.5"/><line x1="492.41" y1="40" x2="492.41" y2="220" stroke="#30363d" opacity="0.5"/><line x1="567.82" y1="40" x2="567.82" y2="220" stroke="#30363d" opacity="0.5"/><line x1="643.22" y1="40" x2="643.22" y2="220" stroke="#30363d" opacity="0.5"/><line x1="718.62" y1="40" x2="718.62" y2="220" stroke="#30363d" opacity="0.5"/><line x1="794.02" y1="40" x2="794.02" y2="220" stroke="#30363d" opacity="0.5"/>
    <line x1="40" y1="220" x2="860" y2="220" stroke="#30363d"/>
    <line x1="40" y1="40"   x2="40"   y2="220" stroke="#30363d"/>
    <path d="M 40.00 166.63 L 49.43 166.00 L 58.85 166.00 L 68.28 121.18 L 77.70 115.78 L 87.13 115.78 L 96.55 112.00 L 105.98 108.22 L 115.40 108.22 L 124.83 108.22 L 134.25 108.22 L 143.68 108.22 L 153.10 108.22 L 162.53 108.22 L 171.95 108.22 L 181.38 108.22 L 190.80 108.22 L 200.23 108.22 L 209.66 108.22 L 219.08 108.22 L 228.51 108.22 L 237.93 108.22 L 247.36 109.21 L 256.78 109.12 L 266.21 108.76 L 275.63 108.76 L 285.06 108.76 L 294.48 108.76 L 303.91 108.76 L 313.33 108.76 L 322.76 108.76 L 332.18 108.76 L 341.61 108.76 L 351.03 108.76 L 360.46 108.76 L 369.89 108.76 L 379.31 108.76 L 388.74 108.76 L 398.16 108.76 L 407.59 108.76 L 417.01 108.76 L 426.44 108.76 L 435.86 108.76 L 445.29 108.76 L 454.71 108.76 L 464.14 108.76 L 473.56 108.76 L 482.99 108.76 L 492.41 108.76 L 501.84 108.76 L 511.26 108.76 L 520.69 108.76 L 530.11 108.76 L 539.54 108.76 L 548.97 108.76 L 558.39 108.76 L 567.82 108.76 L 577.24 108.76 L 586.67 108.76 L 596.09 108.76 L 605.52 108.76 L 614.94 108.76 L 624.37 108.76 L 633.79 108.76 L 643.22 108.76 L 652.64 108.76 L 662.07 108.76 L 671.49 108.76 L 680.92 108.76 L 690.34 108.76 L 699.77 108.76 L 709.20 108.76 L 718.62 108.76 L 728.05 108.76 L 737.47 108.76 L 746.90 108.76 L 756.32 108.76 L 765.75 108.76 L 775.17 108.76 L 784.60 108.76 L 794.02 108.76 L 803.45 108.76 L 812.87 108.76 L 822.30 108.76 L 831.72 108.76 L 841.15 108.76 L 850.57 108.76 L 860.00 108.76" fill="none" stroke="#3fb950" stroke-width="2"/>
    <circle cx="860.00" cy="108.76" r="3" fill="#3fb950"/>
    <text x="40.00" y="235.00" font-size="9" fill="#c9d1d9" text-anchor="middle" transform="rotate(-45 40.00 235.00)">28.08.2025</text><text x="115.40" y="235.00" font-size="9" fill="#c9d1d9" text-anchor="middle" transform="rotate(-45 115.40 235.00)">28.08.2025</text><text x="190.80" y="235.00" font-size="9" fill="#c9d1d9" text-anchor="middle" transform="rotate(-45 190.80 235.00)">28.08.2025</text><text x="266.21" y="235.00" font-size="9" fill="#c9d1d9" text-anchor="middle" transform="rotate(-45 266.21 235.00)">28.08.2025</text><text x="341.61" y="235.00" font-size="9" fill="#c9d1d9" text-anchor="middle" transform="rotate(-45 341.61 235.00)">03.09.2025</text><text x="417.01" y="235.00" font-size="9" fill="#c9d1d9" text-anchor="middle" transform="rotate(-45 417.01 235.00)">09.09.2025</text><text x="492.41" y="235.00" font-size="9" fill="#c9d1d9" text-anchor="middle" transform="rotate(-45 492.41 235.00)">15.09.2025</text><text x="567.82" y="235.00" font-size="9" fill="#c9d1d9" text-anchor="middle" transform="rotate(-45 567.82 235.00)">21.09.2025</text><text x="643.22" y="235.00" font-size="9" fill="#c9d1d9" text-anchor="middle" transform="rotate(-45 643.22 235.00)">29.09.2025</text><text x="718.62" y="235.00" font-size="9" fill="#c9d1d9" text-anchor="middle" transform="rotate(-45 718.62 235.00)">07.10.2025</text><text x="794.02" y="235.00" font-size="9" fill="#c9d1d9" text-anchor="middle" transform="rotate(-45 794.02 235.00)">15.10.2025</text>
  </g>
</svg>