<svg xmlns="http://www.w3.org/2000/svg" width="900" height="290" style="font-family: -apple-system, BlinkMacSystemFont, 'Segoe UI', Helvetica, Arial, sans-serif;">
  <rect width="100%" height="100%" fill="#0d1117"/>
  <g>
    <line x1="40" y1="220.00" x2="860" y2="220.00" stroke="#30363d"/><text x="32" y="224.00" font-size="10" fill="#c9d1d9" text-anchor="end">0</text><line x1="40" y1="175.00" x2="860" y2="175.00" stroke="#30363d"/><text x="32" y="179.00" font-size="10" fill="#c9d1d9" text-anchor="end">500</text><line x1="40" y1="130.00" x2="860" y2="130.00" stroke="#30363d"/><text x="32" y="134.00" font-size="10" fill="#c9d1d9" text-anchor="end">1k</text><line x1="40" y1="85.00" x2="860" y2="85.00" stroke="#30363d"/><text x="32" y="89.00" font-size="10" fill="#c9d1d9" text-anchor="end">1.5k</text><line x1="40" y1="40.00" x2="860" y2="40.00" stroke="#30363d"/><text x="32" y="44.00" font-size="10" fill="#c9d1d9" text-anchor="end">2k</text>
    <line x1="40.00" y1="40" x2="40.00" y2="220" stroke="#30363d" opacity="0.5"/><line x1="122.00" y1="40" x2="122.00" y2="220" stroke="#30363d" opacity="0.5"/><line x1="204.00" y1="40" x2="204.00" y2="220" stroke="#30363d" opacity="0.5"/><line x1="286.00" y1="40" x2="286.00" y2="220" stroke="#30363d" opacity="0.5"/><line x1="368.00" y1="40" x2="368.00" y2="220" stroke="#30363d" opacity="0.5"/><line x1="450.00" y1="40" x2="450.00" y2="220" stroke="#30363d" opacity="0.5"/><line x1="532.00" y1="40" x2="532.00" y2="220" stroke="#30363d" opacity="0.5"/><line x1="614.00" y1="40" x2="614.00" y2="220" stroke="#30363d" opacity="0.5"/><line x1="696.00" y1="40" x2="696.00" y2="220" stroke="#30363d" opacity="0.5"/><line x1="778.00" y1="40" x2="778.00" y2="220" stroke="#30363d" opacity="0.5"/><line x1="860.00" y1="40" x2="860.00" y2="220" stroke="#30363d" opacity="0.5"/>
    <line x1="40" y1="220" x2="860" y2="220" stroke="#30363d"/>
    <line x1="40" y1="40"   x2="40"   y2="220" stroke="#30363d"/>
    <path d="M 40.00 166.63 L 45.12 166.00 L 50.25 166.00 L 55.38 121.18 L 60.50 115.78 L 65.62 115.78 L 70.75 112.00 L 75.88 108.22 L 81.00 108.22 L 86.12 108.22 L 91.25 108.22 L 96.38 108.22 L 101.50 108.22 L 106.62 108.22 L 111.75 108.22 L 116.88 108.22 L 122.00 108.22 L 127.12 108.22 L 132.25 108.22 L 137.38 108.22 L 142.50 108.22 L 147.62 108.22 L 152.75 109.21 L 157.88 109.12 L 163.00 108.76 L 168.12 108.76 L 173.25 108.76 L 178.38 108.76 L 183.50 108.76 L 188.62 108.76 L 193.75 108.76 L 198.88 108.76 L 204.00 108.76 L 209.12 108.76 L 214.25 108.76 L 219.38 108.76 L 224.50 108.76 L 229.62 108.76 L 234.75 108.76 L 239.88 108.76 L 245.00 108.76 L 250.12 108.76 L 255.25 108.76 L 260.38 108.76 L 265.50 108.76 L 270.62 108.76 L 275.75 108.76 L 280.88 108.76 L 286.00 108.76 L 291.12 108.76 L 296.25 108.76 L 301.38 108.76 L 306.50 108.76 L 311.62 108.76 L 316.75 108.76 L 321.88 108.76 L 327.00 108.76 L 332.12 108.76 L 337.25 108.76 L 342.38 108.76 L 347.50 108.76 L 352.62 108.76 L 357.75 108.76 L 362.88 108.76 L 368.00 108.76 L 373.12 108.76 L 378.25 108.76 L 383.38 108.76 L 388.50 108.76 L 393.62 108.76 L 398.75 108.76 L 403.88 108.76 L 409.00 108.76 L 414.12 108.76 L 419.25 108.76 L 424.38 108.76 L 429.50 108.76 L 434.62 108.76 L 439.75 108.76 L 444.88 108.76 L 450.00 108.76 L 455.12 108.76 L 460.25 108.76 L 465.38 108.76 L 470.50 108.76 L 475.62 108.76 L 480.75 108.76 L 485.88 108.76 L 491.00 108.76 L 496.12 108.76 L 501.25 108.76 L 506.38 108.76 L 511.50 108.76 L 516.62 108.76 L 521.75 108.76 L 526.88 108.76 L 532.00 108.76 L 537.12 108.76 L 542.25 108.76 L 547.38 108.76 L 552.50 108.76 L 557.62 108.76 L 562.75 108.76 L 567.88 108.76 L 573.00 108.76 L 578.12 108.76 L 583.25 108.76 L 588.38 108.76 L 593.50 108.76 L 598.62 108.76 L 603.75 108.76 L 608.88 108.76 L 614.00 108.76 L 619.12 108.76 L 624.25 108.76 L 629.38 108.76 L 634.50 108.76 L 639.62 108.76 L 644.75 108.76 L 649.88 108.76 L 655.00 108.76 L 660.12 108.76 L 665.25 108.76 L 670.38 108.76 L 675.50 108.76 L 680.62 108.76 L 685.75 108.76 L 690.88 108.76 L 696.00 108.76 L 701.12 108.76 L 706.25 108.76 L 711.38 108.76 L 716.50 108.76 L 721.62 108.76 L 726.75 108.76 L 731.88 108.76 L 737.00 108.76 L 742.12 108.76 L 747.25 108.76 L 752.38 108.76 L 757.50 108.76 L 762.62 108.76 L 767.75 108.76 L 772.88 108.94 L 778.00 100.39 L 783.12 81.40 L 788.25 81.40 L 793.38 81.40 L 798.50 81.40 L 803.62 81.40 L 808.75 70.78 L 813.88 70.78 L 819.00 70.78 L 824.12 70.78 L 829.25 70.78 L 834.38 70.78 L 839.50 70.78 L 844.62 70.78 L 849.75 70.78 L 854.88 70.78 L 860.00 70.78" fill="none" stroke="#3fb950" stroke-width="2"/>
    <circle cx="860.00" cy="70.78" r="3" fill="#3fb950"/>
    <text x="40.00" y="235.00" font-size="9" fill="#c9d1d9" text-anchor="middle" transform="rotate(-45 40.00 235.00)">28.08.2025</text><text x="122.00" y="235.00" font-size="9" fill="#c9d1d9" text-anchor="middle" transform="rotate(-45 122.00 235.00)">28.08.2025</text><text x="204.00" y="235.00" font-size="9" fill="#c9d1d9" text-anchor="middle" transform="rotate(-45 204.00 235.00)">03.09.2025</text><text x="286.00" y="235.00" font-size="9" fill="#c9d1d9" text-anchor="middle" transform="rotate(-45 286.00 235.00)">15.09.2025</text><text x="368.00" y="235.00" font-size="9" fill="#c9d1d9" text-anchor="middle" transform="rotate(-45 368.00 235.00)">27.09.2025</text><text x="450.00" y="235.00" font-size="9" fill="#c9d1d9" text-anchor="middle" transform="rotate(-45 450.00 235.00)">12.10.2025</text><text x="532.00" y="235.00" font-size="9" fill="#c9d1d9" text-anchor="middle" transform="rotate(-45 532.00 235.00)">27.10.2025</text><text x="614.00" y="235.00" font-size="9" fill="#c9d1d9" text-anchor="middle" transform="rotate(-45 614.00 235.00)">11.11.2025</text><text x="696.00" y="235.00" font-size="9" fill="#c9d1d9" text-anchor="middle" transform="rotate(-45 696.00 235.00)">26.11.2025</text><text x="778.00" y="235.00" font-size="9" fill="#c9d1d9" text-anchor="middle" transform="rotate(-45 778.00 235.00)">04.12.2025</text><text x="860.00" y="235.00" font-size="9" fill="#c9d1d9" text-anchor="middle" transform="rotate(-45 860.00 235.00)">12.12.2025</text>
  </g>
</svg>