<svg xmlns="http://www.w3.org/2000/svg" width="900" height="290" style="font-family: -apple-system, BlinkMacSystemFont, 'Segoe UI', Helvetica, Arial, sans-serif;">
  <rect width="100%" height="100%" fill="white"/>
  <g>
    <line x1="40" y1="220.00" x2="860" y2="220.00" stroke="#e5e7eb"/><text x="32" y="224.00" font-size="10" fill="#111827" text-anchor="end">0</text><line x1="40" y1="175.00" x2="860" y2="175.00" stroke="#e5e7eb"/><text x="32" y="179.00" font-size="10" fill="#111827" text-anchor="end">500</text><line x1="40" y1="130.00" x2="860" y2="130.00" stroke="#e5e7eb"/><text x="32" y="134.00" font-size="10" fill="#111827" text-anchor="end">1k</text><line x1="40" y1="85.00" x2="860" y2="85.00" stroke="#e5e7eb"/><text x="32" y="89.00" font-size="10" fill="#111827" text-anchor="end">1.5k</text><line x1="40" y1="40.00" x2="860" y2="40.00" stroke="#e5e7eb"/><text x="32" y="44.00" font-size="10" fill="#111827" text-anchor="end">2k</text>
    <line x1="40.00" y1="40" x2="40.00" y2="220" stroke="#e5e7eb" opacity="0.5"/><line x1="122.75" y1="40" x2="122.75" y2="220" stroke="#e5e7eb" opacity="0.5"/><line x1="205.50" y1="40" x2="205.50" y2="220" stroke="#e5e7eb" opacity="0.5"/><line x1="288.26" y1="40" x2="288.26" y2="220" stroke="#e5e7eb" opacity="0.5"/><line x1="371.01" y1="40" x2="371.01" y2="220" stroke="#e5e7eb" opacity="0.5"/><line x1="453.76" y1="40" x2="453.76" y2="220" stroke="#e5e7eb" opacity="0.5"/><line x1="536.51" y1="40" x2="536.51" y2="220" stroke="#e5e7eb" opacity="0.5"/><line x1="619.27" y1="40" x2="619.27" y2="220" stroke="#e5e7eb" opacity="0.5"/><line x1="702.02" y1="40" x2="702.02" y2="220" stroke="#e5e7eb" opacity="0.5"/><line x1="784.77" y1="40" x2="784.77" y2="220" stroke="#e5e7eb" opacity="0.5"/>
    <line x1="40" y1="220" x2="860" y2="220" stroke="#9ca3af"/>
    <line x1="40" y1="40"   x2="40"   y2="220" stroke="#9ca3af"/>
    <path d="M 40.00 166.63 L 47.52 166.00 L 55.05 166.00 L 62.57 121.18 L 70.09 115.78 L 77.61 115.78 L 85.14 112.00 L 92.66 108.22 L 100.18 108.22 L 107.71 108.22 L 115.23 108.22 L 122.75 108.22 L 130.28 108.22 L 137.80 108.22 L 145.32 108.22 L 152.84 108.22 L 160.37 108.22 L 167.89 108.22 L 175.41 108.22 L 182.94 108.22 L 190.46 108.22 L 197.98 108.22 L 205.50 109.21 L 213.03 109.12 L 220.55 108.76 L 228.07 108.76 L 235.60 108.76 L 243.12 108.76 L 250.64 108.76 L 258.17 108.76 L 265.69 108.76 L 273.21 108.76 L 280.73 108.76 L 288.26 108.76 L 295.78 108.76 L 303.30 108.76 L 310.83 108.76 L 318.35 108.76 L 325.87 108.76 L 333.39 108.76 L 340.92 108.76 L 348.44 108.76 L 355.96 108.76 L 363.49 108.76 L 371.01 108.76 L 378.53 108.76 L 386.06 108.76 L 393.58 108.76 L 401.10 108.76 L 408.62 108.76 L 416.15 108.76 L 423.67 108.76 L 431.19 108.76 L 438.72 108.76 L 446.24 108.76 L 453.76 108.76 L 461.28 108.76 L 468.81 108.76 L 476.33 108.76 L 483.85 108.76 L 491.38 108.76 L 498.90 108.76 L 506.42 108.76 L 513.94 108.76 L 521.47 108.76 L 528.99 108.76 L 536.51 108.76 L 544.04 108.76 L 551.56 108.76 L 559.08 108.76 L 566.61 108.76 L 574.13 108.76 L 581.65 108.76 L 589.17 108.76 L 596.70 108.76 L 604.22 108.76 L 611.74 108.76 L 619.27 108.76 L 626.79 108.76 L 634.31 108.76 L 641.83 108.76 L 649.36 108.76 L 656.88 108.76 L 664.40 108.76 L 671.93 108.76 L 679.45 108.76 L 686.97 108.76 L 694.50 108.76 L 702.02 108.76 L 709.54 108.76 L 717.06 108.76 L 724.59 108.76 L 732.11 108.76 L 739.63 108.76 L 747.16 108.76 L 754.68 108.76 L 762.20 108.76 L 769.72 108.76 L 777.25 108.76 L 784.77 108.76 L 792.29 108.76 L 799.82 108.76 L 807.34 108.76 L 814.86 108.76 L 822.39 108.76 L 829.91 108.76 L 837.43 108.76 L 844.95 108.76 L 852.48 108.76 L 860.00 108.76" fill="none" stroke="#111827" stroke-width="2"/>
    <circle cx="860.00" cy="108.76" r="3" fill="#111827"/>
    <text x="40.00" y="235.00" font-size="9" fill="#111827" text-anchor="middle" transform="rotate(-45 40.00 235.00)">28.08.2025</text><text x="122.75" y="235.00" font-size="9" fill="#111827" text-anchor="middle" transform="rotate(-45 122.75 235.00)">28.08.2025</text><text x="205.50" y="235.00" font-size="9" fill="#111827" text-anchor="middle" transform="rotate(-45 205.50 235.00)">28.08.2025</text><text x="288.26" y="235.00" font-size="9" fill="#111827" text-anchor="middle" transform="rotate(-45 288.26 235.00)">04.09.2025</text><text x="371.01" y="235.00" font-size="9" fill="#111827" text-anchor="middle" transform="rotate(-45 371.01 235.00)">13.09.2025</text><text x="453.76" y="235.00" font-size="9" fill="#111827" text-anchor="middle" transform="rotate(-45 453.76 235.00)">20.09.2025</text><text x="536.51" y="235.00" font-size="9" fill="#111827" text-anchor="middle" transform="rotate(-45 536.51 235.00)">01.10.2025</text><text x="619.27" y="235.00" font-size="9" fill="#111827" text-anchor="middle" transform="rotate(-45 619.27 235.00)">12.10.2025</text><text x="702.02" y="235.00" font-size="9" fill="#111827" text-anchor="middle" transform="rotate(-45 702.02 235.00)">23.10.2025</text><text x="784.77" y="235.00" font-size="9" fill="#111827" text-anchor="middle" transform="rotate(-45 784.77 235.00)">03.11.2025</text>
  </g>
</svg>