<svg xmlns="http://www.w3.org/2000/svg" width="900" height="290" style="font-family: -apple-system, BlinkMacSystemFont, 'Segoe UI', Helvetica, Arial, sans-serif;">
  <rect width="100%" height="100%" fill="white"/>
  <g>
    <line x1="40" y1="220.00" x2="860" y2="220.00" stroke="#e5e7eb"/><text x="32" y="224.00" font-size="10" fill="#111827" text-anchor="end">0</text><line x1="40" y1="175.00" x2="860" y2="175.00" stroke="#e5e7eb"/><text x="32" y="179.00" font-size="10" fill="#111827" text-anchor="end">500</text><line x1="40" y1="130.00" x2="860" y2="130.00" stroke="#e5e7eb"/><text x="32" y="134.00" font-size="10" fill="#111827" text-anchor="end">1k</text><line x1="40" y1="85.00" x2="860" y2="85.00" stroke="#e5e7eb"/><text x="32" y="89.00" font-size="10" fill="#111827" text-anchor="end">1.5k</text><line x1="40" y1="40.00" x2="860" y2="40.00" stroke="#e5e7eb"/><text x="32" y="44.00" font-size="10" fill="#111827" text-anchor="end">2k</text>
    <line x1="40.00" y1="40" x2="40.00" y2="220" stroke="#e5e7eb" opacity="0.5"/><line x1="119.49" y1="40" x2="119.49" y2="220" stroke="#e5e7eb" opacity="0.5"/><line x1="198.98" y1="40" x2="198.98" y2="220" stroke="#e5e7eb" opacity="0.5"/><line x1="278.47" y1="40" x2="278.47" y2="220" stroke="#e5e7eb" opacity="0.5"/><line x1="357.96" y1="40" x2="357.96" y2="220" stroke="#e5e7eb" opacity="0.5"/><line x1="437.45" y1="40" x2="437.45" y2="220" stroke="#e5e7eb" opacity="0.5"/><line x1="516.94" y1="40" x2="516.94" y2="220" stroke="#e5e7eb" opacity="0.5"/><line x1="596.43" y1="40" x2="596.43" y2="220" stroke="#e5e7eb" opacity="0.5"/><line x1="675.92" y1="40" x2="675.92" y2="220" stroke="#e5e7eb" opacity="0.5"/><line x1="755.41" y1="40" x2="755.41" y2="220" stroke="#e5e7eb" opacity="0.5"/><line x1="834.90" y1="40" x2="834.90" y2="220" stroke="#e5e7eb" opacity="0.5"/>
    <line x1="40" y1="220" x2="860" y2="220" stroke="#9ca3af"/>
    <line x1="40" y1="40"   x2="40"   y2="220" stroke="#9ca3af"/>
    <path d="M 40.00 166.63 L 44.18 166.00 L 48.37 166.00 L 52.55 121.18 L 56.73 115.78 L 60.92 115.78 L 65.10 112.00 L 69.29 108.22 L 73.47 108.22 L 77.65 108.22 L 81.84 108.22 L 86.02 108.22 L 90.20 108.22 L 94.39 108.22 L 98.57 108.22 L 102.76 108.22 L 106.94 108.22 L 111.12 108.22 L 115.31 108.22 L 119.49 108.22 L 123.67 108.22 L 127.86 108.22 L 132.04 109.21 L 136.22 109.12 L 140.41 108.76 L 144.59 108.76 L 148.78 108.76 L 152.96 108.76 L 157.14 108.76 L 161.33 108.76 L 165.51 108.76 L 169.69 108.76 L 173.88 108.76 L 178.06 108.76 L 182.24 108.76 L 186.43 108.76 L 190.61 108.76 L 194.80 108.76 L 198.98 108.76 L 203.16 108.76 L 207.35 108.76 L 211.53 108.76 L 215.71 108.76 L 219.90 108.76 L 224.08 108.76 L 228.27 108.76 L 232.45 108.76 L 236.63 108.76 L 240.82 108.76 L 245.00 108.76 L 249.18 108.76 L 253.37 108.76 L 257.55 108.76 L 261.73 108.76 L 265.92 108.76 L 270.10 108.76 L 274.29 108.76 L 278.47 108.76 L 282.65 108.76 L 286.84 108.76 L 291.02 108.76 L 295.20 108.76 L 299.39 108.76 L 303.57 108.76 L 307.76 108.76 L 311.94 108.76 L 316.12 108.76 L 320.31 108.76 L 324.49 108.76 L 328.67 108.76 L 332.86 108.76 L 337.04 108.76 L 341.22 108.76 L 345.41 108.76 L 349.59 108.76 L 353.78 108.76 L 357.96 108.76 L 362.14 108.76 L 366.33 108.76 L 370.51 108.76 L 374.69 108.76 L 378.88 108.76 L 383.06 108.76 L 387.24 108.76 L 391.43 108.76 L 395.61 108.76 L 399.80 108.76 L 403.98 108.76 L 408.16 108.76 L 412.35 108.76 L 416.53 108.76 L 420.71 108.76 L 424.90 108.76 L 429.08 108.76 L 433.27 108.76 L 437.45 108.76 L 441.63 108.76 L 445.82 108.76 L 450.00 108.76 L 454.18 108.76 L 458.37 108.76 L 462.55 108.76 L 466.73 108.76 L 470.92 108.76 L 475.10 108.76 L 479.29 108.76 L 483.47 108.76 L 487.65 108.76 L 491.84 108.76 L 496.02 108.76 L 500.20 108.76 L 504.39 108.76 L 508.57 108.76 L 512.76 108.76 L 516.94 108.76 L 521.12 108.76 L 525.31 108.76 L 529.49 108.76 L 533.67 108.76 L 537.86 108.76 L 542.04 108.76 L 546.22 108.76 L 550.41 108.76 L 554.59 108.76 L 558.78 108.76 L 562.96 108.76 L 567.14 108.76 L 571.33 108.76 L 575.51 108.76 L 579.69 108.76 L 583.88 108.76 L 588.06 108.76 L 592.24 108.76 L 596.43 108.76 L 600.61 108.76 L 604.80 108.76 L 608.98 108.76 L 613.16 108.76 L 617.35 108.76 L 621.53 108.76 L 625.71 108.76 L 629.90 108.76 L 634.08 108.76 L 638.27 108.94 L 642.45 100.39 L 646.63 81.40 L 650.82 81.40 L 655.00 81.40 L 659.18 81.40 L 663.37 81.40 L 667.55 70.78 L 671.73 70.78 L 675.92 70.78 L 680.10 70.78 L 684.29 70.78 L 688.47 70.78 L 692.65 70.78 L 696.84 70.78 L 701.02 70.78 L 705.20 70.78 L 709.39 70.78 L 713.57 70.78 L 717.76 70.78 L 721.94 70.78 L 726.12 70.78 L 730.31 70.78 L 734.49 70.78 L 738.67 70.78 L 742.86 70.78 L 747.04 70.78 L 751.22 70.78 L 755.41 70.78 L 759.59 70.78 L 763.78 70.78 L 767.96 70.78 L 772.14 70.78 L 776.33 70.78 L 780.51 70.78 L 784.69 70.78 L 788.88 70.78 L 793.06 70.78 L 797.24 70.78 L 801.43 70.78 L 805.61 70.78 L 809.80 70.78 L 813.98 70.78 L 818.16 70.78 L 822.35 70.78 L 826.53 70.78 L 830.71 70.78 L 834.90 70.78 L 839.08 70.78 L 843.27 70.78 L 847.45 70.78 L 851.63 70.78 L 855.82 70.78 L 860.00 70.78" fill="none" stroke="#111827" stroke-width="2"/>
    <circle cx="860.00" cy="70.78" r="3" fill="#111827"/>
    <text x="40.00" y="235.00" font-size="9" fill="#111827" text-anchor="middle" transform="rotate(-45 40.00 235.00)">28.08.2025</text><text x="119.49" y="235.00" font-size="9" fill="#111827" text-anchor="middle" transform="rotate(-45 119.49 235.00)">28.08.2025</text><text x="198.98" y="235.00" font-size="9" fill="#111827" text-anchor="middle" transform="rotate(-45 198.98 235.00)">08.09.2025</text><text x="278.47" y="235.00" font-size="9" fill="#111827" text-anchor="middle" transform="rotate(-45 278.47 235.00)">20.09.2025</text><text x="357.96" y="235.00" font-size="9" fill="#111827" text-anchor="middle" transform="rotate(-45 357.96 235.00)">08.10.2025</text><text x="437.45" y="235.00" font-size="9" fill="#111827" text-anchor="middle" transform="rotate(-45 437.45 235.00)">27.10.2025</text><text x="516.94" y="235.00" font-size="9" fill="#111827" text-anchor="middle" transform="rotate(-45 516.94 235.00)">13.11.2025</text><text x="596.43" y="235.00" font-size="9" fill="#111827" text-anchor="middle" transform="rotate(-45 596.43 235.00)">28.11.2025</text><text x="675.92" y="235.00" font-size="9" fill="#111827" text-anchor="middle" transform="rotate(-45 675.92 235.00)">09.12.2025</text><text x="755.41" y="235.00" font-size="9" fill="#111827" text-anchor="middle" transform="rotate(-45 755.41 235.00)">22.12.2025</text><text x="834.90" y="235.00" font-size="9" fill="#111827" text-anchor="middle" transform="rotate(-45 834.90 235.00)">09.01.2026</text>
  </g>
</svg>