<svg xmlns="http://www.w3.org/2000/svg" width="900" height="290" style="font-family: -apple-system, BlinkMacSystemFont, 'Segoe UI', Helvetica, Arial, sans-serif;">
  <rect width="100%" height="100%" fill="#0d1117"/>
  <g>
    <line x1="40" y1="220.00" x2="860" y2="220.00" stroke="#30363d"/><text x="32" y="224.00" font-size="10" fill="#c9d1d9" text-anchor="end">0</text><line x1="40" y1="175.00" x2="860" y2="175.00" stroke="#30363d"/><text x="32" y="179.00" font-size="10" fill="#c9d1d9" text-anchor="end">500</text><line x1="40" y1="130.00" x2="860" y2="130.00" stroke="#30363d"/><text x="32" y="134.00" font-size="10" fill="#c9d1d9" text-anchor="end">1k</text><line x1="40" y1="85.00" x2="860" y2="85.00" stroke="#30363d"/><text x="32" y="89.00" font-size="10" fill="#c9d1d9" text-anchor="end">1.5k</text><line x1="40" y1="40.00" x2="860" y2="40.00" stroke="#30363d"/><text x="32" y="44.00" font-size="10" fill="#c9d1d9" text-anchor="end">2k</text>
    <line x1="40.00" y1="40" x2="40.00" y2="220" stroke="#30363d" opacity="0.5"/><line x1="119.82" y1="40" x2="119.82" y2="220" stroke="#30363d" opacity="0.5"/><line x1="199.65" y1="40" x2="199.65" y2="220" stroke="#30363d" opacity="0.5"/><line x1="279.47" y1="40" x2="279.47" y2="220" stroke="#30363d" opacity="0.5"/><line x1="359.29" y1="40" x2="359.29" y2="220" stroke="#30363d" opacity="0.5"/><line x1="439.12" y1="40" x2="439.12" y2="220" stroke="#30363d" opacity="0.5"/><line x1="518.94" y1="40" x2="518.94" y2="220" stroke="#30363d" opacity="0.5"/><line x1="598.76" y1="40" x2="598.76" y2="220" stroke="#30363d" opacity="0.5"/><line x1="678.58" y1="40" x2="678.58" y2="220" stroke="#30363d" opacity="0.5"/><line x1="758.41" y1="40" x2="758.41" y2="220" stroke="#30363d" opacity="0.5"/><line x1="838.23" y1="40" x2="838.23" y2="220" stroke="#30363d" opacity="0.5"/>
    <line x1="40" y1="220" x2="860" y2="220" stroke="#30363d"/>
    <line x1="40" y1="40"   x2="40"   y2="220" stroke="#30363d"/>
    <path d="M 40.00 166.63 L 43.63 166.00 L 47.26 166.00 L 50.88 121.18 L 54.51 115.78 L 58.14 115.78 L 61.77 112.00 L 65.40 108.22 L 69.03 108.22 L 72.65 108.22 L 76.28 108.22 L 79.91 108.22 L 83.54 108.22 L 87.17 108.22 L 90.80 108.22 L 94.42 108.22 L 98.05 108.22 L 101.68 108.22 L 105.31 108.22 L 108.94 108.22 L 112.57 108.22 L 116.19 108.22 L 119.82 109.21 L 123.45 109.12 L 127.08 108.76 L 130.71 108.76 L 134.34 108.76 L 137.96 108.76 L 141.59 108.76 L 145.22 108.76 L 148.85 108.76 L 152.48 108.76 L 156.11 108.76 L 159.73 108.76 L 163.36 108.76 L 166.99 108.76 L 170.62 108.76 L 174.25 108.76 L 177.88 108.76 L 181.50 108.76 L 185.13 108.76 L 188.76 108.76 L 192.39 108.76 L 196.02 108.76 L 199.65 108.76 L 203.27 108.76 L 206.90 108.76 L 210.53 108.76 L 214.16 108.76 L 217.79 108.76 L 221.42 108.76 L 225.04 108.76 L 228.67 108.76 L 232.30 108.76 L 235.93 108.76 L 239.56 108.76 L 243.19 108.76 L 246.81 108.76 L 250.44 108.76 L 254.07 108.76 L 257.70 108.76 L 261.33 108.76 L 264.96 108.76 L 268.58 108.76 L 272.21 108.76 L 275.84 108.76 L 279.47 108.76 L 283.10 108.76 L 286.73 108.76 L 290.35 108.76 L 293.98 108.76 L 297.61 108.76 L 301.24 108.76 L 304.87 108.76 L 308.50 108.76 L 312.12 108.76 L 315.75 108.76 L 319.38 108.76 L 323.01 108.76 L 326.64 108.76 L 330.27 108.76 L 333.89 108.76 L 337.52 108.76 L 341.15 108.76 L 344.78 108.76 L 348.41 108.76 L 352.04 108.76 L 355.66 108.76 L 359.29 108.76 L 362.92 108.76 L 366.55 108.76 L 370.18 108.76 L 373.81 108.76 L 377.43 108.76 L 381.06 108.76 L 384.69 108.76 L 388.32 108.76 L 391.95 108.76 L 395.58 108.76 L 399.20 108.76 L 402.83 108.76 L 406.46 108.76 L 410.09 108.76 L 413.72 108.76 L 417.35 108.76 L 420.97 108.76 L 424.60 108.76 L 428.23 108.76 L 431.86 108.76 L 435.49 108.76 L 439.12 108.76 L 442.74 108.76 L 446.37 108.76 L 450.00 108.76 L 453.63 108.76 L 457.26 108.76 L 460.88 108.76 L 464.51 108.76 L 468.14 108.76 L 471.77 108.76 L 475.40 108.76 L 479.03 108.76 L 482.65 108.76 L 486.28 108.76 L 489.91 108.76 L 493.54 108.76 L 497.17 108.76 L 500.80 108.76 L 504.42 108.76 L 508.05 108.76 L 511.68 108.76 L 515.31 108.76 L 518.94 108.76 L 522.57 108.76 L 526.19 108.76 L 529.82 108.76 L 533.45 108.76 L 537.08 108.76 L 540.71 108.76 L 544.34 108.76 L 547.96 108.76 L 551.59 108.76 L 555.22 108.76 L 558.85 108.94 L 562.48 100.39 L 566.11 81.40 L 569.73 81.40 L 573.36 81.40 L 576.99 81.40 L 580.62 81.40 L 584.25 70.78 L 587.88 70.78 L 591.50 70.78 L 595.13 70.78 L 598.76 70.78 L 602.39 70.78 L 606.02 70.78 L 609.65 70.78 L 613.27 70.78 L 616.90 70.78 L 620.53 70.78 L 624.16 70.78 L 627.79 70.78 L 631.42 70.78 L 635.04 70.78 L 638.67 70.78 L 642.30 70.78 L 645.93 70.78 L 649.56 70.78 L 653.19 70.78 L 656.81 70.78 L 660.44 70.78 L 664.07 70.78 L 667.70 70.78 L 671.33 70.78 L 674.96 70.78 L 678.58 70.78 L 682.21 70.78 L 685.84 70.78 L 689.47 70.78 L 693.10 70.78 L 696.73 70.78 L 700.35 70.78 L 703.98 70.78 L 707.61 70.78 L 711.24 70.78 L 714.87 70.78 L 718.50 70.78 L 722.12 70.78 L 725.75 70.78 L 729.38 70.78 L 733.01 70.78 L 736.64 70.78 L 740.27 70.78 L 743.89 70.78 L 747.52 70.78 L 751.15 70.78 L 754.78 70.78 L 758.41 70.78 L 762.04 70.78 L 765.66 70.78 L 769.29 70.78 L 772.92 70.78 L 776.55 70.78 L 780.18 70.78 L 783.81 70.78 L 787.43 70.78 L 791.06 70.78 L 794.69 70.78 L 798.32 70.78 L 801.95 70.78 L 805.58 70.78 L 809.20 70.78 L 812.83 70.78 L 816.46 70.78 L 820.09 70.78 L 823.72 70.78 L 827.35 70.78 L 830.97 70.78 L 834.60 70.78 L 838.23 70.78 L 841.86 70.78 L 845.49 70.78 L 849.12 70.78 L 852.74 70.78 L 856.37 70.78 L 860.00 70.78" fill="none" stroke="#3fb950" stroke-width="2"/>
    <circle cx="860.00" cy="70.78" r="3" fill="#3fb950"/>
    <text x="40.00" y="235.00" font-size="9" fill="#c9d1d9" text-anchor="middle" transform="rotate(-45 40.00 235.00)">28.08.2025</text><text x="119.82" y="235.00" font-size="9" fill="#c9d1d9" text-anchor="middle" transform="rotate(-45 119.82 235.00)">28.08.2025</text><text x="199.65" y="235.00" font-size="9" fill="#c9d1d9" text-anchor="middle" transform="rotate(-45 199.65 235.00)">13.09.2025</text><text x="279.47" y="235.00" font-size="9" fill="#c9d1d9" text-anchor="middle" transform="rotate(-45 279.47 235.00)">29.09.2025</text><text x="359.29" y="235.00" font-size="9" fill="#c9d1d9" text-anchor="middle" transform="rotate(-45 359.29 235.00)">20.10.2025</text><text x="439.12" y="235.00" font-size="9" fill="#c9d1d9" text-anchor="middle" transform="rotate(-45 439.12 235.00)">09.11.2025</text><text x="518.94" y="235.00" font-size="9" fill="#c9d1d9" text-anchor="middle" transform="rotate(-45 518.94 235.00)">28.11.2025</text><text x="598.76" y="235.00" font-size="9" fill="#c9d1d9" text-anchor="middle" transform="rotate(-45 598.76 235.00)">11.12.2025</text><text x="678.58" y="235.00" font-size="9" fill="#c9d1d9" text-anchor="middle" transform="rotate(-45 678.58 235.00)">26.12.2025</text><text x="758.41" y="235.00" font-size="9" fill="#c9d1d9" text-anchor="middle" transform="rotate(-45 758.41 235.00)">15.01.2026</text><text x="838.23" y="235.00" font-size="9" fill="#c9d1d9" text-anchor="middle" transform="rotate(-45 838.23 235.00)">06.02.2026</text>
  </g>
</svg>