<svg xmlns="http://www.w3.org/2000/svg" width="900" height="290" style="font-family: -apple-system, BlinkMacSystemFont, 'Segoe UI', Helvetica, Arial, sans-serif;">
  <rect width="100%" height="100%" fill="white"/>
  <g>
    <line x1="40" y1="220.00" x2="860" y2="220.00" stroke="#e5e7eb"/><text x="32" y="224.00" font-size="10" fill="#111827" text-anchor="end">0</text><line x1="40" y1="175.00" x2="860" y2="175.00" stroke="#e5e7eb"/><text x="32" y="179.00" font-size="10" fill="#111827" text-anchor="end">500</text><line x1="40" y1="130.00" x2="860" y2="130.00" stroke="#e5e7eb"/><text x="32" y="134.00" font-size="10" fill="#111827" text-anchor="end">1k</text><line x1="40" y1="85.00" x2="860" y2="85.00" stroke="#e5e7eb"/><text x="32" y="89.00" font-size="10" fill="#111827" text-anchor="end">1.5k</text><line x1="40" y1="40.00" x2="860" y2="40.00" stroke="#e5e7eb"/><text x="32" y="44.00" font-size="10" fill="#111827" text-anchor="end">2k</text>
    <line x1="40.00" y1="40" x2="40.00" y2="220" stroke="#e5e7eb" opacity="0.5"/><line x1="98.57" y1="40" x2="98.57" y2="220" stroke="#e5e7eb" opacity="0.5"/><line x1="157.14" y1="40" x2="157.14" y2="220" stroke="#e5e7eb" opacity="0.5"/><line x1="215.71" y1="40" x2="215.71" y2="220" stroke="#e5e7eb" opacity="0.5"/><line x1="274.29" y1="40" x2="274.29" y2="220" stroke="#e5e7eb" opacity="0.5"/><line x1="332.86" y1="40" x2="332.86" y2="220" stroke="#e5e7eb" opacity="0.5"/><line x1="391.43" y1="40" x2="391.43" y2="220" stroke="#e5e7eb" opacity="0.5"/><line x1="450.00" y1="40" x2="450.00" y2="220" stroke="#e5e7eb" opacity="0.5"/><line x1="508.57" y1="40" x2="508.57" y2="220" stroke="#e5e7eb" opacity="0.5"/><line x1="567.14" y1="40" x2="567.14" y2="220" stroke="#e5e7eb" opacity="0.5"/><line x1="625.71" y1="40" x2="625.71" y2="220" stroke="#e5e7eb" opacity="0.5"/><line x1="684.29" y1="40" x2="684.29" y2="220" stroke="#e5e7eb" opacity="0.5"/><line x1="742.86" y1="40" x2="742.86" y2="220" stroke="#e5e7eb" opacity="0.5"/><line x1="801.43" y1="40" x2="801.43" y2="220" stroke="#e5e7eb" opacity="0.5"/><line x1="860.00" y1="40" x2="860.00" y2="220" stroke="#e5e7eb" opacity="0.5"/>
    <line x1="40" y1="220" x2="860" y2="220" stroke="#9ca3af"/>
    <line x1="40" y1="40"   x2="40"   y2="220" stroke="#9ca3af"/>
    <path d="M 40.00 166.63 L 69.29 166.00 L 98.57 166.00 L 127.86 121.18 L 157.14 115.78 L 186.43 115.78 L 215.71 112.00 L 245.00 108.22 L 274.29 108.22 L 303.57 108.22 L 332.86 108.22 L 362.14 108.22 L 391.43 108.22 L 420.71 108.22 L 450.00 108.22 L 479.29 108.22 L 508.57 108.22 L 537.86 108.22 L 567.14 108.22 L 596.43 108.22 L 625.71 108.22 L 655.00 108.22 L 684.29 109.21 L 713.57 109.12 L 742.86 108.76 L 772.14 108.76 L 801.43 108.76 L 830.71 108.76 L 860.00 108.76" fill="none" stroke="#111827" stroke-width="2"/>
    <circle cx="860.00" cy="108.76" r="3" fill="#111827"/>
    <text x="40.00" y="235.00" font-size="9" fill="#111827" text-anchor="middle" transform="rotate(-45 40.00 235.00)">19:07</text><text x="98.57" y="235.00" font-size="9" fill="#111827" text-anchor="middle" transform="rotate(-45 98.57 235.00)">21:14</text><text x="157.14" y="235.00" font-size="9" fill="#111827" text-anchor="middle" transform="rotate(-45 157.14 235.00)">19:49</text><text x="215.71" y="235.00" font-size="9" fill="#111827" text-anchor="middle" transform="rotate(-45 215.71 235.00)">21:20</text><text x="274.29" y="235.00" font-size="9" fill="#111827" text-anchor="middle" transform="rotate(-45 274.29 235.00)">21:28</text><text x="332.86" y="235.00" font-size="9" fill="#111827" text-anchor="middle" transform="rotate(-45 332.86 235.00)">19:31</text><text x="391.43" y="235.00" font-size="9" fill="#111827" text-anchor="middle" transform="rotate(-45 391.43 235.00)">19:31</text><text x="450.00" y="235.00" font-size="9" fill="#111827" text-anchor="middle" transform="rotate(-45 450.00 235.00)">21:33</text><text x="508.57" y="235.00" font-size="9" fill="#111827" text-anchor="middle" transform="rotate(-45 508.57 235.00)">21:33</text><text x="567.14" y="235.00" font-size="9" fill="#111827" text-anchor="middle" transform="rotate(-45 567.14 235.00)">21:34</text><text x="625.71" y="235.00" font-size="9" fill="#111827" text-anchor="middle" transform="rotate(-45 625.71 235.00)">21:36</text><text x="684.29" y="235.00" font-size="9" fill="#111827" text-anchor="middle" transform="rotate(-45 684.29 235.00)">21:52</text><text x="742.86" y="235.00" font-size="9" fill="#111827" text-anchor="middle" transform="rotate(-45 742.86 235.00)">21:52</text><text x="801.43" y="235.00" font-size="9" fill="#111827" text-anchor="middle" transform="rotate(-45 801.43 235.00)">21:52</text><text x="860.00" y="235.00" font-size="9" fill="#111827" text-anchor="middle" transform="rotate(-45 860.00 235.00)">00:44</text>
  </g>
</svg>