<svg xmlns="http://www.w3.org/2000/svg" width="900" height="290" style="font-family: -apple-system, BlinkMacSystemFont, 'Segoe UI', Helvetica, Arial, sans-serif;">
  <rect width="100%" height="100%" fill="white"/>
  <g>
    <line x1="40" y1="220.00" x2="860" y2="220.00" stroke="#e5e7eb"/><text x="32" y="224.00" font-size="10" fill="#111827" text-anchor="end">0</text><line x1="40" y1="175.00" x2="860" y2="175.00" stroke="#e5e7eb"/><text x="32" y="179.00" font-size="10" fill="#111827" text-anchor="end">500</text><line x1="40" y1="130.00" x2="860" y2="130.00" stroke="#e5e7eb"/><text x="32" y="134.00" font-size="10" fill="#111827" text-anchor="end">1k</text><line x1="40" y1="85.00" x2="860" y2="85.00" stroke="#e5e7eb"/><text x="32" y="89.00" font-size="10" fill="#111827" text-anchor="end">1.5k</text><line x1="40" y1="40.00" x2="860" y2="40.00" stroke="#e5e7eb"/><text x="32" y="44.00" font-size="10" fill="#111827" text-anchor="end">2k</text>
    <line x1="40.00" y1="40" x2="40.00" y2="220" stroke="#e5e7eb" opacity="0.5"/><line x1="116.08" y1="40" x2="116.08" y2="220" stroke="#e5e7eb" opacity="0.5"/><line x1="192.16" y1="40" x2="192.16" y2="220" stroke="#e5e7eb" opacity="0.5"/><line x1="268.25" y1="40" x2="268.25" y2="220" stroke="#e5e7eb" opacity="0.5"/><line x1="344.33" y1="40" x2="344.33" y2="220" stroke="#e5e7eb" opacity="0.5"/><line x1="420.41" y1="40" x2="420.41" y2="220" stroke="#e5e7eb" opacity="0.5"/><line x1="496.49" y1="40" x2="496.49" y2="220" stroke="#e5e7eb" opacity="0.5"/><line x1="572.58" y1="40" x2="572.58" y2="220" stroke="#e5e7eb" opacity="0.5"/><line x1="648.66" y1="40" x2="648.66" y2="220" stroke="#e5e7eb" opacity="0.5"/><line x1="724.74" y1="40" x2="724.74" y2="220" stroke="#e5e7eb" opacity="0.5"/><line x1="800.82" y1="40" x2="800.82" y2="220" stroke="#e5e7eb" opacity="0.5"/>
    <line x1="40" y1="220" x2="860" y2="220" stroke="#9ca3af"/>
    <line x1="40" y1="40"   x2="40"   y2="220" stroke="#9ca3af"/>
    <path d="M 40.00 166.63 L 48.45 166.00 L 56.91 166.00 L 65.36 121.18 L 73.81 115.78 L 82.27 115.78 L 90.72 112.00 L 99.18 108.22 L 107.63 108.22 L 116.08 108.22 L 124.54 108.22 L 132.99 108.22 L 141.44 108.22 L 149.90 108.22 L 158.35 108.22 L 166.80 108.22 L 175.26 108.22 L 183.71 108.22 L 192.16 108.22 L 200.62 108.22 L 209.07 108.22 L 217.53 108.22 L 225.98 109.21 L 234.43 109.12 L 242.89 108.76 L 251.34 108.76 L 259.79 108.76 L 268.25 108.76 L 276.70 108.76 L 285.15 108.76 L 293.61 108.76 L 302.06 108.76 L 310.52 108.76 L 318.97 108.76 L 327.42 108.76 L 335.88 108.76 L 344.33 108.76 L 352.78 108.76 L 361.24 108.76 L 369.69 108.76 L 378.14 108.76 L 386.60 108.76 L 395.05 108.76 L 403.51 108.76 L 411.96 108.76 L 420.41 108.76 L 428.87 108.76 L 437.32 108.76 L 445.77 108.76 L 454.23 108.76 L 462.68 108.76 L 471.13 108.76 L 479.59 108.76 L 488.04 108.76 L 496.49 108.76 L 504.95 108.76 L 513.40 108.76 L 521.86 108.76 L 530.31 108.76 L 538.76 108.76 L 547.22 108.76 L 555.67 108.76 L 564.12 108.76 L 572.58 108.76 L 581.03 108.76 L 589.48 108.76 L 597.94 108.76 L 606.39 108.76 L 614.85 108.76 L 623.30 108.76 L 631.75 108.76 L 640.21 108.76 L 648.66 108.76 L 657.11 108.76 L 665.57 108.76 L 674.02 108.76 L 682.47 108.76 L 690.93 108.76 L 699.38 108.76 L 707.84 108.76 L 716.29 108.76 L 724.74 108.76 L 733.20 108.76 L 741.65 108.76 L 750.10 108.76 L 758.56 108.76 L 767.01 108.76 L 775.46 108.76 L 783.92 108.76 L 792.37 108.76 L 800.82 108.76 L 809.28 108.76 L 817.73 108.76 L 826.19 108.76 L 834.64 108.76 L 843.09 108.76 L 851.55 108.76 L 860.00 108.76" fill="none" stroke="#111827" stroke-width="2"/>
    <circle cx="860.00" cy="108.76" r="3" fill="#111827"/>
    <text x="40.00" y="235.00" font-size="9" fill="#111827" text-anchor="middle" transform="rotate(-45 40.00 235.00)">28.08.2025</text><text x="116.08" y="235.00" font-size="9" fill="#111827" text-anchor="middle" transform="rotate(-45 116.08 235.00)">28.08.2025</text><text x="192.16" y="235.00" font-size="9" fill="#111827" text-anchor="middle" transform="rotate(-45 192.16 235.00)">28.08.2025</text><text x="268.25" y="235.00" font-size="9" fill="#111827" text-anchor="middle" transform="rotate(-45 268.25 235.00)">29.08.2025</text><text x="344.33" y="235.00" font-size="9" fill="#111827" text-anchor="middle" transform="rotate(-45 344.33 235.00)">07.09.2025</text><text x="420.41" y="235.00" font-size="9" fill="#111827" text-anchor="middle" transform="rotate(-45 420.41 235.00)">14.09.2025</text><text x="496.49" y="235.00" font-size="9" fill="#111827" text-anchor="middle" transform="rotate(-45 496.49 235.00)">19.09.2025</text><text x="572.58" y="235.00" font-size="9" fill="#111827" text-anchor="middle" transform="rotate(-45 572.58 235.00)">28.09.2025</text><text x="648.66" y="235.00" font-size="9" fill="#111827" text-anchor="middle" transform="rotate(-45 648.66 235.00)">07.10.2025</text><text x="724.74" y="235.00" font-size="9" fill="#111827" text-anchor="middle" transform="rotate(-45 724.74 235.00)">16.10.2025</text><text x="800.82" y="235.00" font-size="9" fill="#111827" text-anchor="middle" transform="rotate(-45 800.82 235.00)">25.10.2025</text>
  </g>
</svg>