<svg xmlns="http://www.w3.org/2000/svg" width="900" height="290" style="font-family: -apple-system, BlinkMacSystemFont, 'Segoe UI', Helvetica, Arial, sans-serif;">
  <rect width="100%" height="100%" fill="#0d1117"/>
  <g>
    <line x1="40" y1="220.00" x2="860" y2="220.00" stroke="#30363d"/><text x="32" y="224.00" font-size="10" fill="#c9d1d9" text-anchor="end">0</text><line x1="40" y1="175.00" x2="860" y2="175.00" stroke="#30363d"/><text x="32" y="179.00" font-size="10" fill="#c9d1d9" text-anchor="end">500</text><line x1="40" y1="130.00" x2="860" y2="130.00" stroke="#30363d"/><text x="32" y="134.00" font-size="10" fill="#c9d1d9" text-anchor="end">1k</text><line x1="40" y1="85.00" x2="860" y2="85.00" stroke="#30363d"/><text x="32" y="89.00" font-size="10" fill="#c9d1d9" text-anchor="end">1.5k</text><line x1="40" y1="40.00" x2="860" y2="40.00" stroke="#30363d"/><text x="32" y="44.00" font-size="10" fill="#c9d1d9" text-anchor="end">2k</text>
    <line x1="40.00" y1="40" x2="40.00" y2="220" stroke="#30363d" opacity="0.5"/><line x1="117.76" y1="40" x2="117.76" y2="220" stroke="#30363d" opacity="0.5"/><line x1="195.52" y1="40" x2="195.52" y2="220" stroke="#30363d" opacity="0.5"/><line x1="273.28" y1="40" x2="273.28" y2="220" stroke="#30363d" opacity="0.5"/><line x1="351.03" y1="40" x2="351.03" y2="220" stroke="#30363d" opacity="0.5"/><line x1="428.79" y1="40" x2="428.79" y2="220" stroke="#30363d" opacity="0.5"/><line x1="506.55" y1="40" x2="506.55" y2="220" stroke="#30363d" opacity="0.5"/><line x1="584.31" y1="40" x2="584.31" y2="220" stroke="#30363d" opacity="0.5"/><line x1="662.07" y1="40" x2="662.07" y2="220" stroke="#30363d" opacity="0.5"/><line x1="739.83" y1="40" x2="739.83" y2="220" stroke="#30363d" opacity="0.5"/><line x1="817.59" y1="40" x2="817.59" y2="220" stroke="#30363d" opacity="0.5"/>
    <line x1="40" y1="220" x2="860" y2="220" stroke="#30363d"/>
    <line x1="40" y1="40"   x2="40"   y2="220" stroke="#30363d"/>
    <path d="M 40.00 166.63 L 47.07 166.00 L 54.14 166.00 L 61.21 121.18 L 68.28 115.78 L 75.34 115.78 L 82.41 112.00 L 89.48 108.22 L 96.55 108.22 L 103.62 108.22 L 110.69 108.22 L 117.76 108.22 L 124.83 108.22 L 131.90 108.22 L 138.97 108.22 L 146.03 108.22 L 153.10 108.22 L 160.17 108.22 L 167.24 108.22 L 174.31 108.22 L 181.38 108.22 L 188.45 108.22 L 195.52 109.21 L 202.59 109.12 L 209.66 108.76 L 216.72 108.76 L 223.79 108.76 L 230.86 108.76 L 237.93 108.76 L 245.00 108.76 L 252.07 108.76 L 259.14 108.76 L 266.21 108.76 L 273.28 108.76 L 280.34 108.76 L 287.41 108.76 L 294.48 108.76 L 301.55 108.76 L 308.62 108.76 L 315.69 108.76 L 322.76 108.76 L 329.83 108.76 L 336.90 108.76 L 343.97 108.76 L 351.03 108.76 L 358.10 108.76 L 365.17 108.76 L 372.24 108.76 L 379.31 108.76 L 386.38 108.76 L 393.45 108.76 L 400.52 108.76 L 407.59 108.76 L 414.66 108.76 L 421.72 108.76 L 428.79 108.76 L 435.86 108.76 L 442.93 108.76 L 450.00 108.76 L 457.07 108.76 L 464.14 108.76 L 471.21 108.76 L 478.28 108.76 L 485.34 108.76 L 492.41 108.76 L 499.48 108.76 L 506.55 108.76 L 513.62 108.76 L 520.69 108.76 L 527.76 108.76 L 534.83 108.76 L 541.90 108.76 L 548.97 108.76 L 556.03 108.76 L 563.10 108.76 L 570.17 108.76 L 577.24 108.76 L 584.31 108.76 L 591.38 108.76 L 598.45 108.76 L 605.52 108.76 L 612.59 108.76 L 619.66 108.76 L 626.72 108.76 L 633.79 108.76 L 640.86 108.76 L 647.93 108.76 L 655.00 108.76 L 662.07 108.76 L 669.14 108.76 L 676.21 108.76 L 683.28 108.76 L 690.34 108.76 L 697.41 108.76 L 704.48 108.76 L 711.55 108.76 L 718.62 108.76 L 725.69 108.76 L 732.76 108.76 L 739.83 108.76 L 746.90 108.76 L 753.97 108.76 L 761.03 108.76 L 768.10 108.76 L 775.17 108.76 L 782.24 108.76 L 789.31 108.76 L 796.38 108.76 L 803.45 108.76 L 810.52 108.76 L 817.59 108.76 L 824.66 108.76 L 831.72 108.76 L 838.79 108.76 L 845.86 108.76 L 852.93 108.76 L 860.00 108.76" fill="none" stroke="#3fb950" stroke-width="2"/>
    <circle cx="860.00" cy="108.76" r="3" fill="#3fb950"/>
    <text x="40.00" y="235.00" font-size="9" fill="#c9d1d9" text-anchor="middle" transform="rotate(-45 40.00 235.00)">28.08.2025</text><text x="117.76" y="235.00" font-size="9" fill="#c9d1d9" text-anchor="middle" transform="rotate(-45 117.76 235.00)">28.08.2025</text><text x="195.52" y="235.00" font-size="9" fill="#c9d1d9" text-anchor="middle" transform="rotate(-45 195.52 235.00)">28.08.2025</text><text x="273.28" y="235.00" font-size="9" fill="#c9d1d9" text-anchor="middle" transform="rotate(-45 273.28 235.00)">04.09.2025</text><text x="351.03" y="235.00" font-size="9" fill="#c9d1d9" text-anchor="middle" transform="rotate(-45 351.03 235.00)">13.09.2025</text><text x="428.79" y="235.00" font-size="9" fill="#c9d1d9" text-anchor="middle" transform="rotate(-45 428.79 235.00)">20.09.2025</text><text x="506.55" y="235.00" font-size="9" fill="#c9d1d9" text-anchor="middle" transform="rotate(-45 506.55 235.00)">01.10.2025</text><text x="584.31" y="235.00" font-size="9" fill="#c9d1d9" text-anchor="middle" transform="rotate(-45 584.31 235.00)">12.10.2025</text><text x="662.07" y="235.00" font-size="9" fill="#c9d1d9" text-anchor="middle" transform="rotate(-45 662.07 235.00)">23.10.2025</text><text x="739.83" y="235.00" font-size="9" fill="#c9d1d9" text-anchor="middle" transform="rotate(-45 739.83 235.00)">03.11.2025</text><text x="817.59" y="235.00" font-size="9" fill="#c9d1d9" text-anchor="middle" transform="rotate(-45 817.59 235.00)">14.11.2025</text>
  </g>
</svg>