<svg xmlns="http://www.w3.org/2000/svg" width="900" height="290" style="font-family: -apple-system, BlinkMacSystemFont, 'Segoe UI', Helvetica, Arial, sans-serif;">
  <rect width="100%" height="100%" fill="#0d1117"/>
  <g>
    <line x1="40" y1="220.00" x2="860" y2="220.00" stroke="#30363d"/><text x="32" y="224.00" font-size="10" fill="#c9d1d9" text-anchor="end">0</text><line x1="40" y1="175.00" x2="860" y2="175.00" stroke="#30363d"/><text x="32" y="179.00" font-size="10" fill="#c9d1d9" text-anchor="end">500</text><line x1="40" y1="130.00" x2="860" y2="130.00" stroke="#30363d"/><text x="32" y="134.00" font-size="10" fill="#c9d1d9" text-anchor="end">1k</text><line x1="40" y1="85.00" x2="860" y2="85.00" stroke="#30363d"/><text x="32" y="89.00" font-size="10" fill="#c9d1d9" text-anchor="end">1.5k</text><line x1="40" y1="40.00" x2="860" y2="40.00" stroke="#30363d"/><text x="32" y="44.00" font-size="10" fill="#c9d1d9" text-anchor="end">2k</text>
    <line x1="40.00" y1="40" x2="40.00" y2="220" stroke="#30363d" opacity="0.5"/><line x1="118.10" y1="40" x2="118.10" y2="220" stroke="#30363d" opacity="0.5"/><line x1="196.19" y1="40" x2="196.19" y2="220" stroke="#30363d" opacity="0.5"/><line x1="274.29" y1="40" x2="274.29" y2="220" stroke="#30363d" opacity="0.5"/><line x1="352.38" y1="40" x2="352.38" y2="220" stroke="#30363d" opacity="0.5"/><line x1="430.48" y1="40" x2="430.48" y2="220" stroke="#30363d" opacity="0.5"/><line x1="508.57" y1="40" x2="508.57" y2="220" stroke="#30363d" opacity="0.5"/><line x1="586.67" y1="40" x2="586.67" y2="220" stroke="#30363d" opacity="0.5"/><line x1="664.76" y1="40" x2="664.76" y2="220" stroke="#30363d" opacity="0.5"/><line x1="742.86" y1="40" x2="742.86" y2="220" stroke="#30363d" opacity="0.5"/><line x1="820.95" y1="40" x2="820.95" y2="220" stroke="#30363d" opacity="0.5"/>
    <line x1="40" y1="220" x2="860" y2="220" stroke="#30363d"/>
    <line x1="40" y1="40"   x2="40"   y2="220" stroke="#30363d"/>
    <path d="M 40.00 166.63 L 53.02 166.00 L 66.03 166.00 L 79.05 121.18 L 92.06 115.78 L 105.08 115.78 L 118.10 112.00 L 131.11 108.22 L 144.13 108.22 L 157.14 108.22 L 170.16 108.22 L 183.17 108.22 L 196.19 108.22 L 209.21 108.22 L 222.22 108.22 L 235.24 108.22 L 248.25 108.22 L 261.27 108.22 L 274.29 108.22 L 287.30 108.22 L 300.32 108.22 L 313.33 108.22 L 326.35 109.21 L 339.37 109.12 L 352.38 108.76 L 365.40 108.76 L 378.41 108.76 L 391.43 108.76 L 404.44 108.76 L 417.46 108.76 L 430.48 108.76 L 443.49 108.76 L 456.51 108.76 L 469.52 108.76 L 482.54 108.76 L 495.56 108.76 L 508.57 108.76 L 521.59 108.76 L 534.60 108.76 L 547.62 108.76 L 560.63 108.76 L 573.65 108.76 L 586.67 108.76 L 599.68 108.76 L 612.70 108.76 L 625.71 108.76 L 638.73 108.76 L 651.75 108.76 L 664.76 108.76 L 677.78 108.76 L 690.79 108.76 L 703.81 108.76 L 716.83 108.76 L 729.84 108.76 L 742.86 108.76 L 755.87 108.76 L 768.89 108.76 L 781.90 108.76 L 794.92 108.76 L 807.94 108.76 L 820.95 108.76 L 833.97 108.76 L 846.98 108.76 L 860.00 108.76" fill="none" stroke="#3fb950" stroke-width="2"/>
    <circle cx="860.00" cy="108.76" r="3" fill="#3fb950"/>
    <text x="40.00" y="235.00" font-size="9" fill="#c9d1d9" text-anchor="middle" transform="rotate(-45 40.00 235.00)">28.08.2025</text><text x="118.10" y="235.00" font-size="9" fill="#c9d1d9" text-anchor="middle" transform="rotate(-45 118.10 235.00)">28.08.2025</text><text x="196.19" y="235.00" font-size="9" fill="#c9d1d9" text-anchor="middle" transform="rotate(-45 196.19 235.00)">28.08.2025</text><text x="274.29" y="235.00" font-size="9" fill="#c9d1d9" text-anchor="middle" transform="rotate(-45 274.29 235.00)">28.08.2025</text><text x="352.38" y="235.00" font-size="9" fill="#c9d1d9" text-anchor="middle" transform="rotate(-45 352.38 235.00)">28.08.2025</text><text x="430.48" y="235.00" font-size="9" fill="#c9d1d9" text-anchor="middle" transform="rotate(-45 430.48 235.00)">01.09.2025</text><text x="508.57" y="235.00" font-size="9" fill="#c9d1d9" text-anchor="middle" transform="rotate(-45 508.57 235.00)">07.09.2025</text><text x="586.67" y="235.00" font-size="9" fill="#c9d1d9" text-anchor="middle" transform="rotate(-45 586.67 235.00)">11.09.2025</text><text x="664.76" y="235.00" font-size="9" fill="#c9d1d9" text-anchor="middle" transform="rotate(-45 664.76 235.00)">15.09.2025</text><text x="742.86" y="235.00" font-size="9" fill="#c9d1d9" text-anchor="middle" transform="rotate(-45 742.86 235.00)">19.09.2025</text><text x="820.95" y="235.00" font-size="9" fill="#c9d1d9" text-anchor="middle" transform="rotate(-45 820.95 235.00)">25.09.2025</text>
  </g>
</svg>