<svg xmlns="http://www.w3.org/2000/svg" width="900" height="290" style="font-family: -apple-system, BlinkMacSystemFont, 'Segoe UI', Helvetica, Arial, sans-serif;">
  <rect width="100%" height="100%" fill="#0d1117"/>
  <g>
    <line x1="40" y1="220.00" x2="860" y2="220.00" stroke="#30363d"/><text x="32" y="224.00" font-size="10" fill="#c9d1d9" text-anchor="end">0</text><line x1="40" y1="175.00" x2="860" y2="175.00" stroke="#30363d"/><text x="32" y="179.00" font-size="10" fill="#c9d1d9" text-anchor="end">500</text><line x1="40" y1="130.00" x2="860" y2="130.00" stroke="#30363d"/><text x="32" y="134.00" font-size="10" fill="#c9d1d9" text-anchor="end">1k</text><line x1="40" y1="85.00" x2="860" y2="85.00" stroke="#30363d"/><text x="32" y="89.00" font-size="10" fill="#c9d1d9" text-anchor="end">1.5k</text><line x1="40" y1="40.00" x2="860" y2="40.00" stroke="#30363d"/><text x="32" y="44.00" font-size="10" fill="#c9d1d9" text-anchor="end">2k</text>
    <line x1="40.00" y1="40" x2="40.00" y2="220" stroke="#30363d" opacity="0.5"/><line x1="120.22" y1="40" x2="120.22" y2="220" stroke="#30363d" opacity="0.5"/><line x1="200.43" y1="40" x2="200.43" y2="220" stroke="#30363d" opacity="0.5"/><line x1="280.65" y1="40" x2="280.65" y2="220" stroke="#30363d" opacity="0.5"/><line x1="360.87" y1="40" x2="360.87" y2="220" stroke="#30363d" opacity="0.5"/><line x1="441.09" y1="40" x2="441.09" y2="220" stroke="#30363d" opacity="0.5"/><line x1="521.30" y1="40" x2="521.30" y2="220" stroke="#30363d" opacity="0.5"/><line x1="601.52" y1="40" x2="601.52" y2="220" stroke="#30363d" opacity="0.5"/><line x1="681.74" y1="40" x2="681.74" y2="220" stroke="#30363d" opacity="0.5"/><line x1="761.96" y1="40" x2="761.96" y2="220" stroke="#30363d" opacity="0.5"/><line x1="842.17" y1="40" x2="842.17" y2="220" stroke="#30363d" opacity="0.5"/>
    <line x1="40" y1="220" x2="860" y2="220" stroke="#30363d"/>
    <line x1="40" y1="40"   x2="40"   y2="220" stroke="#30363d"/>
    <path d="M 40.00 166.63 L 44.46 166.00 L 48.91 166.00 L 53.37 121.18 L 57.83 115.78 L 62.28 115.78 L 66.74 112.00 L 71.20 108.22 L 75.65 108.22 L 80.11 108.22 L 84.57 108.22 L 89.02 108.22 L 93.48 108.22 L 97.93 108.22 L 102.39 108.22 L 106.85 108.22 L 111.30 108.22 L 115.76 108.22 L 120.22 108.22 L 124.67 108.22 L 129.13 108.22 L 133.59 108.22 L 138.04 109.21 L 142.50 109.12 L 146.96 108.76 L 151.41 108.76 L 155.87 108.76 L 160.33 108.76 L 164.78 108.76 L 169.24 108.76 L 173.70 108.76 L 178.15 108.76 L 182.61 108.76 L 187.07 108.76 L 191.52 108.76 L 195.98 108.76 L 200.43 108.76 L 204.89 108.76 L 209.35 108.76 L 213.80 108.76 L 218.26 108.76 L 222.72 108.76 L 227.17 108.76 L 231.63 108.76 L 236.09 108.76 L 240.54 108.76 L 245.00 108.76 L 249.46 108.76 L 253.91 108.76 L 258.37 108.76 L 262.83 108.76 L 267.28 108.76 L 271.74 108.76 L 276.20 108.76 L 280.65 108.76 L 285.11 108.76 L 289.57 108.76 L 294.02 108.76 L 298.48 108.76 L 302.93 108.76 L 307.39 108.76 L 311.85 108.76 L 316.30 108.76 L 320.76 108.76 L 325.22 108.76 L 329.67 108.76 L 334.13 108.76 L 338.59 108.76 L 343.04 108.76 L 347.50 108.76 L 351.96 108.76 L 356.41 108.76 L 360.87 108.76 L 365.33 108.76 L 369.78 108.76 L 374.24 108.76 L 378.70 108.76 L 383.15 108.76 L 387.61 108.76 L 392.07 108.76 L 396.52 108.76 L 400.98 108.76 L 405.43 108.76 L 409.89 108.76 L 414.35 108.76 L 418.80 108.76 L 423.26 108.76 L 427.72 108.76 L 432.17 108.76 L 436.63 108.76 L 441.09 108.76 L 445.54 108.76 L 450.00 108.76 L 454.46 108.76 L 458.91 108.76 L 463.37 108.76 L 467.83 108.76 L 472.28 108.76 L 476.74 108.76 L 481.20 108.76 L 485.65 108.76 L 490.11 108.76 L 494.57 108.76 L 499.02 108.76 L 503.48 108.76 L 507.93 108.76 L 512.39 108.76 L 516.85 108.76 L 521.30 108.76 L 525.76 108.76 L 530.22 108.76 L 534.67 108.76 L 539.13 108.76 L 543.59 108.76 L 548.04 108.76 L 552.50 108.76 L 556.96 108.76 L 561.41 108.76 L 565.87 108.76 L 570.33 108.76 L 574.78 108.76 L 579.24 108.76 L 583.70 108.76 L 588.15 108.76 L 592.61 108.76 L 597.07 108.76 L 601.52 108.76 L 605.98 108.76 L 610.43 108.76 L 614.89 108.76 L 619.35 108.76 L 623.80 108.76 L 628.26 108.76 L 632.72 108.76 L 637.17 108.76 L 641.63 108.76 L 646.09 108.76 L 650.54 108.76 L 655.00 108.76 L 659.46 108.76 L 663.91 108.76 L 668.37 108.76 L 672.83 108.76 L 677.28 108.94 L 681.74 100.39 L 686.20 81.40 L 690.65 81.40 L 695.11 81.40 L 699.57 81.40 L 704.02 81.40 L 708.48 70.78 L 712.93 70.78 L 717.39 70.78 L 721.85 70.78 L 726.30 70.78 L 730.76 70.78 L 735.22 70.78 L 739.67 70.78 L 744.13 70.78 L 748.59 70.78 L 753.04 70.78 L 757.50 70.78 L 761.96 70.78 L 766.41 70.78 L 770.87 70.78 L 775.33 70.78 L 779.78 70.78 L 784.24 70.78 L 788.70 70.78 L 793.15 70.78 L 797.61 70.78 L 802.07 70.78 L 806.52 70.78 L 810.98 70.78 L 815.43 70.78 L 819.89 70.78 L 824.35 70.78 L 828.80 70.78 L 833.26 70.78 L 837.72 70.78 L 842.17 70.78 L 846.63 70.78 L 851.09 70.78 L 855.54 70.78 L 860.00 70.78" fill="none" stroke="#3fb950" stroke-width="2"/>
    <circle cx="860.00" cy="70.78" r="3" fill="#3fb950"/>
    <text x="40.00" y="235.00" font-size="9" fill="#c9d1d9" text-anchor="middle" transform="rotate(-45 40.00 235.00)">28.08.2025</text><text x="120.22" y="235.00" font-size="9" fill="#c9d1d9" text-anchor="middle" transform="rotate(-45 120.22 235.00)">28.08.2025</text><text x="200.43" y="235.00" font-size="9" fill="#c9d1d9" text-anchor="middle" transform="rotate(-45 200.43 235.00)">07.09.2025</text><text x="280.65" y="235.00" font-size="9" fill="#c9d1d9" text-anchor="middle" transform="rotate(-45 280.65 235.00)">17.09.2025</text><text x="360.87" y="235.00" font-size="9" fill="#c9d1d9" text-anchor="middle" transform="rotate(-45 360.87 235.00)">05.10.2025</text><text x="441.09" y="235.00" font-size="9" fill="#c9d1d9" text-anchor="middle" transform="rotate(-45 441.09 235.00)">22.10.2025</text><text x="521.30" y="235.00" font-size="9" fill="#c9d1d9" text-anchor="middle" transform="rotate(-45 521.30 235.00)">07.11.2025</text><text x="601.52" y="235.00" font-size="9" fill="#c9d1d9" text-anchor="middle" transform="rotate(-45 601.52 235.00)">24.11.2025</text><text x="681.74" y="235.00" font-size="9" fill="#c9d1d9" text-anchor="middle" transform="rotate(-45 681.74 235.00)">04.12.2025</text><text x="761.96" y="235.00" font-size="9" fill="#c9d1d9" text-anchor="middle" transform="rotate(-45 761.96 235.00)">14.12.2025</text><text x="842.17" y="235.00" font-size="9" fill="#c9d1d9" text-anchor="middle" transform="rotate(-45 842.17 235.00)">30.12.2025</text>
  </g>
</svg>