<svg xmlns="http://www.w3.org/2000/svg" width="900" height="290" style="font-family: -apple-system, BlinkMacSystemFont, 'Segoe UI', Helvetica, Arial, sans-serif;">
  <rect width="100%" height="100%" fill="#0d1117"/>
  <g>
    <line x1="40" y1="220.00" x2="860" y2="220.00" stroke="#30363d"/><text x="32" y="224.00" font-size="10" fill="#c9d1d9" text-anchor="end">0</text><line x1="40" y1="175.00" x2="860" y2="175.00" stroke="#30363d"/><text x="32" y="179.00" font-size="10" fill="#c9d1d9" text-anchor="end">500</text><line x1="40" y1="130.00" x2="860" y2="130.00" stroke="#30363d"/><text x="32" y="134.00" font-size="10" fill="#c9d1d9" text-anchor="end">1k</text><line x1="40" y1="85.00" x2="860" y2="85.00" stroke="#30363d"/><text x="32" y="89.00" font-size="10" fill="#c9d1d9" text-anchor="end">1.5k</text><line x1="40" y1="40.00" x2="860" y2="40.00" stroke="#30363d"/><text x="32" y="44.00" font-size="10" fill="#c9d1d9" text-anchor="end">2k</text>
    <line x1="40.00" y1="40" x2="40.00" y2="220" stroke="#30363d" opacity="0.5"/><line x1="117.25" y1="40" x2="117.25" y2="220" stroke="#30363d" opacity="0.5"/><line x1="194.49" y1="40" x2="194.49" y2="220" stroke="#30363d" opacity="0.5"/><line x1="271.74" y1="40" x2="271.74" y2="220" stroke="#30363d" opacity="0.5"/><line x1="348.99" y1="40" x2="348.99" y2="220" stroke="#30363d" opacity="0.5"/><line x1="426.23" y1="40" x2="426.23" y2="220" stroke="#30363d" opacity="0.5"/><line x1="503.48" y1="40" x2="503.48" y2="220" stroke="#30363d" opacity="0.5"/><line x1="580.72" y1="40" x2="580.72" y2="220" stroke="#30363d" opacity="0.5"/><line x1="657.97" y1="40" x2="657.97" y2="220" stroke="#30363d" opacity="0.5"/><line x1="735.22" y1="40" x2="735.22" y2="220" stroke="#30363d" opacity="0.5"/><line x1="812.46" y1="40" x2="812.46" y2="220" stroke="#30363d" opacity="0.5"/>
    <line x1="40" y1="220" x2="860" y2="220" stroke="#30363d"/>
    <line x1="40" y1="40"   x2="40"   y2="220" stroke="#30363d"/>
    <path d="M 40.00 166.63 L 45.94 166.00 L 51.88 166.00 L 57.83 121.18 L 63.77 115.78 L 69.71 115.78 L 75.65 112.00 L 81.59 108.22 L 87.54 108.22 L 93.48 108.22 L 99.42 108.22 L 105.36 108.22 L 111.30 108.22 L 117.25 108.22 L 123.19 108.22 L 129.13 108.22 L 135.07 108.22 L 141.01 108.22 L 146.96 108.22 L 152.90 108.22 L 158.84 108.22 L 164.78 108.22 L 170.72 109.21 L 176.67 109.12 L 182.61 108.76 L 188.55 108.76 L 194.49 108.76 L 200.43 108.76 L 206.38 108.76 L 212.32 108.76 L 218.26 108.76 L 224.20 108.76 L 230.14 108.76 L 236.09 108.76 L 242.03 108.76 L 247.97 108.76 L 253.91 108.76 L 259.86 108.76 L 265.80 108.76 L 271.74 108.76 L 277.68 108.76 L 283.62 108.76 L 289.57 108.76 L 295.51 108.76 L 301.45 108.76 L 307.39 108.76 L 313.33 108.76 L 319.28 108.76 L 325.22 108.76 L 331.16 108.76 L 337.10 108.76 L 343.04 108.76 L 348.99 108.76 L 354.93 108.76 L 360.87 108.76 L 366.81 108.76 L 372.75 108.76 L 378.70 108.76 L 384.64 108.76 L 390.58 108.76 L 396.52 108.76 L 402.46 108.76 L 408.41 108.76 L 414.35 108.76 L 420.29 108.76 L 426.23 108.76 L 432.17 108.76 L 438.12 108.76 L 444.06 108.76 L 450.00 108.76 L 455.94 108.76 L 461.88 108.76 L 467.83 108.76 L 473.77 108.76 L 479.71 108.76 L 485.65 108.76 L 491.59 108.76 L 497.54 108.76 L 503.48 108.76 L 509.42 108.76 L 515.36 108.76 L 521.30 108.76 L 527.25 108.76 L 533.19 108.76 L 539.13 108.76 L 545.07 108.76 L 551.01 108.76 L 556.96 108.76 L 562.90 108.76 L 568.84 108.76 L 574.78 108.76 L 580.72 108.76 L 586.67 108.76 L 592.61 108.76 L 598.55 108.76 L 604.49 108.76 L 610.43 108.76 L 616.38 108.76 L 622.32 108.76 L 628.26 108.76 L 634.20 108.76 L 640.14 108.76 L 646.09 108.76 L 652.03 108.76 L 657.97 108.76 L 663.91 108.76 L 669.86 108.76 L 675.80 108.76 L 681.74 108.76 L 687.68 108.76 L 693.62 108.76 L 699.57 108.76 L 705.51 108.76 L 711.45 108.76 L 717.39 108.76 L 723.33 108.76 L 729.28 108.76 L 735.22 108.76 L 741.16 108.76 L 747.10 108.76 L 753.04 108.76 L 758.99 108.76 L 764.93 108.76 L 770.87 108.76 L 776.81 108.76 L 782.75 108.76 L 788.70 108.76 L 794.64 108.76 L 800.58 108.76 L 806.52 108.76 L 812.46 108.76 L 818.41 108.76 L 824.35 108.76 L 830.29 108.76 L 836.23 108.76 L 842.17 108.76 L 848.12 108.76 L 854.06 108.76 L 860.00 108.76" fill="none" stroke="#3fb950" stroke-width="2"/>
    <circle cx="860.00" cy="108.76" r="3" fill="#3fb950"/>
    <text x="40.00" y="235.00" font-size="9" fill="#c9d1d9" text-anchor="middle" transform="rotate(-45 40.00 235.00)">28.08.2025</text><text x="117.25" y="235.00" font-size="9" fill="#c9d1d9" text-anchor="middle" transform="rotate(-45 117.25 235.00)">28.08.2025</text><text x="194.49" y="235.00" font-size="9" fill="#c9d1d9" text-anchor="middle" transform="rotate(-45 194.49 235.00)">28.08.2025</text><text x="271.74" y="235.00" font-size="9" fill="#c9d1d9" text-anchor="middle" transform="rotate(-45 271.74 235.00)">08.09.2025</text><text x="348.99" y="235.00" font-size="9" fill="#c9d1d9" text-anchor="middle" transform="rotate(-45 348.99 235.00)">15.09.2025</text><text x="426.23" y="235.00" font-size="9" fill="#c9d1d9" text-anchor="middle" transform="rotate(-45 426.23 235.00)">28.09.2025</text><text x="503.48" y="235.00" font-size="9" fill="#c9d1d9" text-anchor="middle" transform="rotate(-45 503.48 235.00)">10.10.2025</text><text x="580.72" y="235.00" font-size="9" fill="#c9d1d9" text-anchor="middle" transform="rotate(-45 580.72 235.00)">23.10.2025</text><text x="657.97" y="235.00" font-size="9" fill="#c9d1d9" text-anchor="middle" transform="rotate(-45 657.97 235.00)">03.11.2025</text><text x="735.22" y="235.00" font-size="9" fill="#c9d1d9" text-anchor="middle" transform="rotate(-45 735.22 235.00)">16.11.2025</text><text x="812.46" y="235.00" font-size="9" fill="#c9d1d9" text-anchor="middle" transform="rotate(-45 812.46 235.00)">28.11.2025</text>
  </g>
</svg>