<svg xmlns="http://www.w3.org/2000/svg" width="900" height="290" style="font-family: -apple-system, BlinkMacSystemFont, 'Segoe UI', Helvetica, Arial, sans-serif;">
  <rect width="100%" height="100%" fill="white"/>
  <g>
    <line x1="40" y1="220.00" x2="860" y2="220.00" stroke="#e5e7eb"/><text x="32" y="224.00" font-size="10" fill="#111827" text-anchor="end">0</text><line x1="40" y1="175.00" x2="860" y2="175.00" stroke="#e5e7eb"/><text x="32" y="179.00" font-size="10" fill="#111827" text-anchor="end">500</text><line x1="40" y1="130.00" x2="860" y2="130.00" stroke="#e5e7eb"/><text x="32" y="134.00" font-size="10" fill="#111827" text-anchor="end">1k</text><line x1="40" y1="85.00" x2="860" y2="85.00" stroke="#e5e7eb"/><text x="32" y="89.00" font-size="10" fill="#111827" text-anchor="end">1.5k</text><line x1="40" y1="40.00" x2="860" y2="40.00" stroke="#e5e7eb"/><text x="32" y="44.00" font-size="10" fill="#111827" text-anchor="end">2k</text>
    <line x1="40.00" y1="40" x2="40.00" y2="220" stroke="#e5e7eb" opacity="0.5"/><line x1="120.22" y1="40" x2="120.22" y2="220" stroke="#e5e7eb" opacity="0.5"/><line x1="200.43" y1="40" x2="200.43" y2="220" stroke="#e5e7eb" opacity="0.5"/><line x1="280.65" y1="40" x2="280.65" y2="220" stroke="#e5e7eb" opacity="0.5"/><line x1="360.87" y1="40" x2="360.87" y2="220" stroke="#e5e7eb" opacity="0.5"/><line x1="441.09" y1="40" x2="441.09" y2="220" stroke="#e5e7eb" opacity="0.5"/><line x1="521.30" y1="40" x2="521.30" y2="220" stroke="#e5e7eb" opacity="0.5"/><line x1="601.52" y1="40" x2="601.52" y2="220" stroke="#e5e7eb" opacity="0.5"/><line x1="681.74" y1="40" x2="681.74" y2="220" stroke="#e5e7eb" opacity="0.5"/><line x1="761.96" y1="40" x2="761.96" y2="220" stroke="#e5e7eb" opacity="0.5"/><line x1="842.17" y1="40" x2="842.17" y2="220" stroke="#e5e7eb" opacity="0.5"/>
    <line x1="40" y1="220" x2="860" y2="220" stroke="#9ca3af"/>
    <line x1="40" y1="40"   x2="40"   y2="220" stroke="#9ca3af"/>
    <path d="M 40.00 166.63 L 48.91 166.00 L 57.83 166.00 L 66.74 121.18 L 75.65 115.78 L 84.57 115.78 L 93.48 112.00 L 102.39 108.22 L 111.30 108.22 L 120.22 108.22 L 129.13 108.22 L 138.04 108.22 L 146.96 108.22 L 155.87 108.22 L 164.78 108.22 L 173.70 108.22 L 182.61 108.22 L 191.52 108.22 L 200.43 108.22 L 209.35 108.22 L 218.26 108.22 L 227.17 108.22 L 236.09 109.21 L 245.00 109.12 L 253.91 108.76 L 262.83 108.76 L 271.74 108.76 L 280.65 108.76 L 289.57 108.76 L 298.48 108.76 L 307.39 108.76 L 316.30 108.76 L 325.22 108.76 L 334.13 108.76 L 343.04 108.76 L 351.96 108.76 L 360.87 108.76 L 369.78 108.76 L 378.70 108.76 L 387.61 108.76 L 396.52 108.76 L 405.43 108.76 L 414.35 108.76 L 423.26 108.76 L 432.17 108.76 L 441.09 108.76 L 450.00 108.76 L 458.91 108.76 L 467.83 108.76 L 476.74 108.76 L 485.65 108.76 L 494.57 108.76 L 503.48 108.76 L 512.39 108.76 L 521.30 108.76 L 530.22 108.76 L 539.13 108.76 L 548.04 108.76 L 556.96 108.76 L 565.87 108.76 L 574.78 108.76 L 583.70 108.76 L 592.61 108.76 L 601.52 108.76 L 610.43 108.76 L 619.35 108.76 L 628.26 108.76 L 637.17 108.76 L 646.09 108.76 L 655.00 108.76 L 663.91 108.76 L 672.83 108.76 L 681.74 108.76 L 690.65 108.76 L 699.57 108.76 L 708.48 108.76 L 717.39 108.76 L 726.30 108.76 L 735.22 108.76 L 744.13 108.76 L 753.04 108.76 L 761.96 108.76 L 770.87 108.76 L 779.78 108.76 L 788.70 108.76 L 797.61 108.76 L 806.52 108.76 L 815.43 108.76 L 824.35 108.76 L 833.26 108.76 L 842.17 108.76 L 851.09 108.76 L 860.00 108.76" fill="none" stroke="#111827" stroke-width="2"/>
    <circle cx="860.00" cy="108.76" r="3" fill="#111827"/>
    <text x="40.00" y="235.00" font-size="9" fill="#111827" text-anchor="middle" transform="rotate(-45 40.00 235.00)">28.08.2025</text><text x="120.22" y="235.00" font-size="9" fill="#111827" text-anchor="middle" transform="rotate(-45 120.22 235.00)">28.08.2025</text><text x="200.43" y="235.00" font-size="9" fill="#111827" text-anchor="middle" transform="rotate(-45 200.43 235.00)">28.08.2025</text><text x="280.65" y="235.00" font-size="9" fill="#111827" text-anchor="middle" transform="rotate(-45 280.65 235.00)">29.08.2025</text><text x="360.87" y="235.00" font-size="9" fill="#111827" text-anchor="middle" transform="rotate(-45 360.87 235.00)">07.09.2025</text><text x="441.09" y="235.00" font-size="9" fill="#111827" text-anchor="middle" transform="rotate(-45 441.09 235.00)">14.09.2025</text><text x="521.30" y="235.00" font-size="9" fill="#111827" text-anchor="middle" transform="rotate(-45 521.30 235.00)">19.09.2025</text><text x="601.52" y="235.00" font-size="9" fill="#111827" text-anchor="middle" transform="rotate(-45 601.52 235.00)">28.09.2025</text><text x="681.74" y="235.00" font-size="9" fill="#111827" text-anchor="middle" transform="rotate(-45 681.74 235.00)">07.10.2025</text><text x="761.96" y="235.00" font-size="9" fill="#111827" text-anchor="middle" transform="rotate(-45 761.96 235.00)">16.10.2025</text><text x="842.17" y="235.00" font-size="9" fill="#111827" text-anchor="middle" transform="rotate(-45 842.17 235.00)">25.10.2025</text>
  </g>
</svg>