<svg xmlns="http://www.w3.org/2000/svg" width="900" height="290" style="font-family: -apple-system, BlinkMacSystemFont, 'Segoe UI', Helvetica, Arial, sans-serif;">
  <rect width="100%" height="100%" fill="#0d1117"/>
  <g>
    <line x1="40" y1="220.00" x2="860" y2="220.00" stroke="#30363d"/><text x="32" y="224.00" font-size="10" fill="#c9d1d9" text-anchor="end">0</text><line x1="40" y1="175.00" x2="860" y2="175.00" stroke="#30363d"/><text x="32" y="179.00" font-size="10" fill="#c9d1d9" text-anchor="end">500</text><line x1="40" y1="130.00" x2="860" y2="130.00" stroke="#30363d"/><text x="32" y="134.00" font-size="10" fill="#c9d1d9" text-anchor="end">1k</text><line x1="40" y1="85.00" x2="860" y2="85.00" stroke="#30363d"/><text x="32" y="89.00" font-size="10" fill="#c9d1d9" text-anchor="end">1.5k</text><line x1="40" y1="40.00" x2="860" y2="40.00" stroke="#30363d"/><text x="32" y="44.00" font-size="10" fill="#c9d1d9" text-anchor="end">2k</text>
    <line x1="40.00" y1="40" x2="40.00" y2="220" stroke="#30363d" opacity="0.5"/><line x1="120.39" y1="40" x2="120.39" y2="220" stroke="#30363d" opacity="0.5"/><line x1="200.78" y1="40" x2="200.78" y2="220" stroke="#30363d" opacity="0.5"/><line x1="281.18" y1="40" x2="281.18" y2="220" stroke="#30363d" opacity="0.5"/><line x1="361.57" y1="40" x2="361.57" y2="220" stroke="#30363d" opacity="0.5"/><line x1="441.96" y1="40" x2="441.96" y2="220" stroke="#30363d" opacity="0.5"/><line x1="522.35" y1="40" x2="522.35" y2="220" stroke="#30363d" opacity="0.5"/><line x1="602.75" y1="40" x2="602.75" y2="220" stroke="#30363d" opacity="0.5"/><line x1="683.14" y1="40" x2="683.14" y2="220" stroke="#30363d" opacity="0.5"/><line x1="763.53" y1="40" x2="763.53" y2="220" stroke="#30363d" opacity="0.5"/><line x1="843.92" y1="40" x2="843.92" y2="220" stroke="#30363d" opacity="0.5"/>
    <line x1="40" y1="220" x2="860" y2="220" stroke="#30363d"/>
    <line x1="40" y1="40"   x2="40"   y2="220" stroke="#30363d"/>
    <path d="M 40.00 166.63 L 56.08 166.00 L 72.16 166.00 L 88.24 121.18 L 104.31 115.78 L 120.39 115.78 L 136.47 112.00 L 152.55 108.22 L 168.63 108.22 L 184.71 108.22 L 200.78 108.22 L 216.86 108.22 L 232.94 108.22 L 249.02 108.22 L 265.10 108.22 L 281.18 108.22 L 297.25 108.22 L 313.33 108.22 L 329.41 108.22 L 345.49 108.22 L 361.57 108.22 L 377.65 108.22 L 393.73 109.21 L 409.80 109.12 L 425.88 108.76 L 441.96 108.76 L 458.04 108.76 L 474.12 108.76 L 490.20 108.76 L 506.27 108.76 L 522.35 108.76 L 538.43 108.76 L 554.51 108.76 L 570.59 108.76 L 586.67 108.76 L 602.75 108.76 L 618.82 108.76 L 634.90 108.76 L 650.98 108.76 L 667.06 108.76 L 683.14 108.76 L 699.22 108.76 L 715.29 108.76 L 731.37 108.76 L 747.45 108.76 L 763.53 108.76 L 779.61 108.76 L 795.69 108.76 L 811.76 108.76 L 827.84 108.76 L 843.92 108.76 L 860.00 108.76" fill="none" stroke="#3fb950" stroke-width="2"/>
    <circle cx="860.00" cy="108.76" r="3" fill="#3fb950"/>
    <text x="40.00" y="235.00" font-size="9" fill="#c9d1d9" text-anchor="middle" transform="rotate(-45 40.00 235.00)">28.08.2025</text><text x="120.39" y="235.00" font-size="9" fill="#c9d1d9" text-anchor="middle" transform="rotate(-45 120.39 235.00)">28.08.2025</text><text x="200.78" y="235.00" font-size="9" fill="#c9d1d9" text-anchor="middle" transform="rotate(-45 200.78 235.00)">28.08.2025</text><text x="281.18" y="235.00" font-size="9" fill="#c9d1d9" text-anchor="middle" transform="rotate(-45 281.18 235.00)">28.08.2025</text><text x="361.57" y="235.00" font-size="9" fill="#c9d1d9" text-anchor="middle" transform="rotate(-45 361.57 235.00)">28.08.2025</text><text x="441.96" y="235.00" font-size="9" fill="#c9d1d9" text-anchor="middle" transform="rotate(-45 441.96 235.00)">28.08.2025</text><text x="522.35" y="235.00" font-size="9" fill="#c9d1d9" text-anchor="middle" transform="rotate(-45 522.35 235.00)">01.09.2025</text><text x="602.75" y="235.00" font-size="9" fill="#c9d1d9" text-anchor="middle" transform="rotate(-45 602.75 235.00)">06.09.2025</text><text x="683.14" y="235.00" font-size="9" fill="#c9d1d9" text-anchor="middle" transform="rotate(-45 683.14 235.00)">09.09.2025</text><text x="763.53" y="235.00" font-size="9" fill="#c9d1d9" text-anchor="middle" transform="rotate(-45 763.53 235.00)">14.09.2025</text><text x="843.92" y="235.00" font-size="9" fill="#c9d1d9" text-anchor="middle" transform="rotate(-45 843.92 235.00)">15.09.2025</text>
  </g>
</svg>