<svg xmlns="http://www.w3.org/2000/svg" width="900" height="290" style="font-family: -apple-system, BlinkMacSystemFont, 'Segoe UI', Helvetica, Arial, sans-serif;">
  <rect width="100%" height="100%" fill="white"/>
  <g>
    <line x1="40" y1="220.00" x2="860" y2="220.00" stroke="#e5e7eb"/><text x="32" y="224.00" font-size="10" fill="#111827" text-anchor="end">0</text><line x1="40" y1="175.00" x2="860" y2="175.00" stroke="#e5e7eb"/><text x="32" y="179.00" font-size="10" fill="#111827" text-anchor="end">500</text><line x1="40" y1="130.00" x2="860" y2="130.00" stroke="#e5e7eb"/><text x="32" y="134.00" font-size="10" fill="#111827" text-anchor="end">1k</text><line x1="40" y1="85.00" x2="860" y2="85.00" stroke="#e5e7eb"/><text x="32" y="89.00" font-size="10" fill="#111827" text-anchor="end">1.5k</text><line x1="40" y1="40.00" x2="860" y2="40.00" stroke="#e5e7eb"/><text x="32" y="44.00" font-size="10" fill="#111827" text-anchor="end">2k</text>
    <line x1="40.00" y1="40" x2="40.00" y2="220" stroke="#e5e7eb" opacity="0.5"/><line x1="121.23" y1="40" x2="121.23" y2="220" stroke="#e5e7eb" opacity="0.5"/><line x1="202.45" y1="40" x2="202.45" y2="220" stroke="#e5e7eb" opacity="0.5"/><line x1="283.68" y1="40" x2="283.68" y2="220" stroke="#e5e7eb" opacity="0.5"/><line x1="364.91" y1="40" x2="364.91" y2="220" stroke="#e5e7eb" opacity="0.5"/><line x1="446.13" y1="40" x2="446.13" y2="220" stroke="#e5e7eb" opacity="0.5"/><line x1="527.36" y1="40" x2="527.36" y2="220" stroke="#e5e7eb" opacity="0.5"/><line x1="608.58" y1="40" x2="608.58" y2="220" stroke="#e5e7eb" opacity="0.5"/><line x1="689.81" y1="40" x2="689.81" y2="220" stroke="#e5e7eb" opacity="0.5"/><line x1="771.04" y1="40" x2="771.04" y2="220" stroke="#e5e7eb" opacity="0.5"/><line x1="852.26" y1="40" x2="852.26" y2="220" stroke="#e5e7eb" opacity="0.5"/>
    <line x1="40" y1="220" x2="860" y2="220" stroke="#9ca3af"/>
    <line x1="40" y1="40"   x2="40"   y2="220" stroke="#9ca3af"/>
    <path d="M 40.00 166.63 L 43.87 166.00 L 47.74 166.00 L 51.60 121.18 L 55.47 115.78 L 59.34 115.78 L 63.21 112.00 L 67.08 108.22 L 70.94 108.22 L 74.81 108.22 L 78.68 108.22 L 82.55 108.22 L 86.42 108.22 L 90.28 108.22 L 94.15 108.22 L 98.02 108.22 L 101.89 108.22 L 105.75 108.22 L 109.62 108.22 L 113.49 108.22 L 117.36 108.22 L 121.23 108.22 L 125.09 109.21 L 128.96 109.12 L 132.83 108.76 L 136.70 108.76 L 140.57 108.76 L 144.43 108.76 L 148.30 108.76 L 152.17 108.76 L 156.04 108.76 L 159.91 108.76 L 163.77 108.76 L 167.64 108.76 L 171.51 108.76 L 175.38 108.76 L 179.25 108.76 L 183.11 108.76 L 186.98 108.76 L 190.85 108.76 L 194.72 108.76 L 198.58 108.76 L 202.45 108.76 L 206.32 108.76 L 210.19 108.76 L 214.06 108.76 L 217.92 108.76 L 221.79 108.76 L 225.66 108.76 L 229.53 108.76 L 233.40 108.76 L 237.26 108.76 L 241.13 108.76 L 245.00 108.76 L 248.87 108.76 L 252.74 108.76 L 256.60 108.76 L 260.47 108.76 L 264.34 108.76 L 268.21 108.76 L 272.08 108.76 L 275.94 108.76 L 279.81 108.76 L 283.68 108.76 L 287.55 108.76 L 291.42 108.76 L 295.28 108.76 L 299.15 108.76 L 303.02 108.76 L 306.89 108.76 L 310.75 108.76 L 314.62 108.76 L 318.49 108.76 L 322.36 108.76 L 326.23 108.76 L 330.09 108.76 L 333.96 108.76 L 337.83 108.76 L 341.70 108.76 L 345.57 108.76 L 349.43 108.76 L 353.30 108.76 L 357.17 108.76 L 361.04 108.76 L 364.91 108.76 L 368.77 108.76 L 372.64 108.76 L 376.51 108.76 L 380.38 108.76 L 384.25 108.76 L 388.11 108.76 L 391.98 108.76 L 395.85 108.76 L 399.72 108.76 L 403.58 108.76 L 407.45 108.76 L 411.32 108.76 L 415.19 108.76 L 419.06 108.76 L 422.92 108.76 L 426.79 108.76 L 430.66 108.76 L 434.53 108.76 L 438.40 108.76 L 442.26 108.76 L 446.13 108.76 L 450.00 108.76 L 453.87 108.76 L 457.74 108.76 L 461.60 108.76 L 465.47 108.76 L 469.34 108.76 L 473.21 108.76 L 477.08 108.76 L 480.94 108.76 L 484.81 108.76 L 488.68 108.76 L 492.55 108.76 L 496.42 108.76 L 500.28 108.76 L 504.15 108.76 L 508.02 108.76 L 511.89 108.76 L 515.75 108.76 L 519.62 108.76 L 523.49 108.76 L 527.36 108.76 L 531.23 108.76 L 535.09 108.76 L 538.96 108.76 L 542.83 108.76 L 546.70 108.76 L 550.57 108.76 L 554.43 108.76 L 558.30 108.76 L 562.17 108.76 L 566.04 108.76 L 569.91 108.76 L 573.77 108.76 L 577.64 108.76 L 581.51 108.76 L 585.38 108.76 L 589.25 108.76 L 593.11 108.94 L 596.98 100.39 L 600.85 81.40 L 604.72 81.40 L 608.58 81.40 L 612.45 81.40 L 616.32 81.40 L 620.19 70.78 L 624.06 70.78 L 627.92 70.78 L 631.79 70.78 L 635.66 70.78 L 639.53 70.78 L 643.40 70.78 L 647.26 70.78 L 651.13 70.78 L 655.00 70.78 L 658.87 70.78 L 662.74 70.78 L 666.60 70.78 L 670.47 70.78 L 674.34 70.78 L 678.21 70.78 L 682.08 70.78 L 685.94 70.78 L 689.81 70.78 L 693.68 70.78 L 697.55 70.78 L 701.42 70.78 L 705.28 70.78 L 709.15 70.78 L 713.02 70.78 L 716.89 70.78 L 720.75 70.78 L 724.62 70.78 L 728.49 70.78 L 732.36 70.78 L 736.23 70.78 L 740.09 70.78 L 743.96 70.78 L 747.83 70.78 L 751.70 70.78 L 755.57 70.78 L 759.43 70.78 L 763.30 70.78 L 767.17 70.78 L 771.04 70.78 L 774.91 70.78 L 778.77 70.78 L 782.64 70.78 L 786.51 70.78 L 790.38 70.78 L 794.25 70.78 L 798.11 70.78 L 801.98 70.78 L 805.85 70.78 L 809.72 70.78 L 813.58 70.78 L 817.45 70.78 L 821.32 70.78 L 825.19 70.78 L 829.06 70.78 L 832.92 70.78 L 836.79 70.78 L 840.66 70.78 L 844.53 70.78 L 848.40 70.78 L 852.26 70.78 L 856.13 70.78 L 860.00 70.78" fill="none" stroke="#111827" stroke-width="2"/>
    <circle cx="860.00" cy="70.78" r="3" fill="#111827"/>
    <text x="40.00" y="235.00" font-size="9" fill="#111827" text-anchor="middle" transform="rotate(-45 40.00 235.00)">28.08.2025</text><text x="121.23" y="235.00" font-size="9" fill="#111827" text-anchor="middle" transform="rotate(-45 121.23 235.00)">28.08.2025</text><text x="202.45" y="235.00" font-size="9" fill="#111827" text-anchor="middle" transform="rotate(-45 202.45 235.00)">11.09.2025</text><text x="283.68" y="235.00" font-size="9" fill="#111827" text-anchor="middle" transform="rotate(-45 283.68 235.00)">26.09.2025</text><text x="364.91" y="235.00" font-size="9" fill="#111827" text-anchor="middle" transform="rotate(-45 364.91 235.00)">16.10.2025</text><text x="446.13" y="235.00" font-size="9" fill="#111827" text-anchor="middle" transform="rotate(-45 446.13 235.00)">04.11.2025</text><text x="527.36" y="235.00" font-size="9" fill="#111827" text-anchor="middle" transform="rotate(-45 527.36 235.00)">24.11.2025</text><text x="608.58" y="235.00" font-size="9" fill="#111827" text-anchor="middle" transform="rotate(-45 608.58 235.00)">05.12.2025</text><text x="689.81" y="235.00" font-size="9" fill="#111827" text-anchor="middle" transform="rotate(-45 689.81 235.00)">19.12.2025</text><text x="771.04" y="235.00" font-size="9" fill="#111827" text-anchor="middle" transform="rotate(-45 771.04 235.00)">08.01.2026</text><text x="852.26" y="235.00" font-size="9" fill="#111827" text-anchor="middle" transform="rotate(-45 852.26 235.00)">27.01.2026</text>
  </g>
</svg>