<svg xmlns="http://www.w3.org/2000/svg" width="900" height="290" style="font-family: -apple-system, BlinkMacSystemFont, 'Segoe UI', Helvetica, Arial, sans-serif;">
  <rect width="100%" height="100%" fill="white"/>
  <g>
    <line x1="40" y1="220.00" x2="860" y2="220.00" stroke="#e5e7eb"/><text x="32" y="224.00" font-size="10" fill="#111827" text-anchor="end">0</text><line x1="40" y1="175.00" x2="860" y2="175.00" stroke="#e5e7eb"/><text x="32" y="179.00" font-size="10" fill="#111827" text-anchor="end">500</text><line x1="40" y1="130.00" x2="860" y2="130.00" stroke="#e5e7eb"/><text x="32" y="134.00" font-size="10" fill="#111827" text-anchor="end">1k</text><line x1="40" y1="85.00" x2="860" y2="85.00" stroke="#e5e7eb"/><text x="32" y="89.00" font-size="10" fill="#111827" text-anchor="end">1.5k</text><line x1="40" y1="40.00" x2="860" y2="40.00" stroke="#e5e7eb"/><text x="32" y="44.00" font-size="10" fill="#111827" text-anchor="end">2k</text>
    <line x1="40.00" y1="40" x2="40.00" y2="220" stroke="#e5e7eb" opacity="0.5"/><line x1="117.57" y1="40" x2="117.57" y2="220" stroke="#e5e7eb" opacity="0.5"/><line x1="195.14" y1="40" x2="195.14" y2="220" stroke="#e5e7eb" opacity="0.5"/><line x1="272.70" y1="40" x2="272.70" y2="220" stroke="#e5e7eb" opacity="0.5"/><line x1="350.27" y1="40" x2="350.27" y2="220" stroke="#e5e7eb" opacity="0.5"/><line x1="427.84" y1="40" x2="427.84" y2="220" stroke="#e5e7eb" opacity="0.5"/><line x1="505.41" y1="40" x2="505.41" y2="220" stroke="#e5e7eb" opacity="0.5"/><line x1="582.97" y1="40" x2="582.97" y2="220" stroke="#e5e7eb" opacity="0.5"/><line x1="660.54" y1="40" x2="660.54" y2="220" stroke="#e5e7eb" opacity="0.5"/><line x1="738.11" y1="40" x2="738.11" y2="220" stroke="#e5e7eb" opacity="0.5"/><line x1="815.68" y1="40" x2="815.68" y2="220" stroke="#e5e7eb" opacity="0.5"/>
    <line x1="40" y1="220" x2="860" y2="220" stroke="#9ca3af"/>
    <line x1="40" y1="40"   x2="40"   y2="220" stroke="#9ca3af"/>
    <path d="M 40.00 166.63 L 45.54 166.00 L 51.08 166.00 L 56.62 121.18 L 62.16 115.78 L 67.70 115.78 L 73.24 112.00 L 78.78 108.22 L 84.32 108.22 L 89.86 108.22 L 95.41 108.22 L 100.95 108.22 L 106.49 108.22 L 112.03 108.22 L 117.57 108.22 L 123.11 108.22 L 128.65 108.22 L 134.19 108.22 L 139.73 108.22 L 145.27 108.22 L 150.81 108.22 L 156.35 108.22 L 161.89 109.21 L 167.43 109.12 L 172.97 108.76 L 178.51 108.76 L 184.05 108.76 L 189.59 108.76 L 195.14 108.76 L 200.68 108.76 L 206.22 108.76 L 211.76 108.76 L 217.30 108.76 L 222.84 108.76 L 228.38 108.76 L 233.92 108.76 L 239.46 108.76 L 245.00 108.76 L 250.54 108.76 L 256.08 108.76 L 261.62 108.76 L 267.16 108.76 L 272.70 108.76 L 278.24 108.76 L 283.78 108.76 L 289.32 108.76 L 294.86 108.76 L 300.41 108.76 L 305.95 108.76 L 311.49 108.76 L 317.03 108.76 L 322.57 108.76 L 328.11 108.76 L 333.65 108.76 L 339.19 108.76 L 344.73 108.76 L 350.27 108.76 L 355.81 108.76 L 361.35 108.76 L 366.89 108.76 L 372.43 108.76 L 377.97 108.76 L 383.51 108.76 L 389.05 108.76 L 394.59 108.76 L 400.14 108.76 L 405.68 108.76 L 411.22 108.76 L 416.76 108.76 L 422.30 108.76 L 427.84 108.76 L 433.38 108.76 L 438.92 108.76 L 444.46 108.76 L 450.00 108.76 L 455.54 108.76 L 461.08 108.76 L 466.62 108.76 L 472.16 108.76 L 477.70 108.76 L 483.24 108.76 L 488.78 108.76 L 494.32 108.76 L 499.86 108.76 L 505.41 108.76 L 510.95 108.76 L 516.49 108.76 L 522.03 108.76 L 527.57 108.76 L 533.11 108.76 L 538.65 108.76 L 544.19 108.76 L 549.73 108.76 L 555.27 108.76 L 560.81 108.76 L 566.35 108.76 L 571.89 108.76 L 577.43 108.76 L 582.97 108.76 L 588.51 108.76 L 594.05 108.76 L 599.59 108.76 L 605.14 108.76 L 610.68 108.76 L 616.22 108.76 L 621.76 108.76 L 627.30 108.76 L 632.84 108.76 L 638.38 108.76 L 643.92 108.76 L 649.46 108.76 L 655.00 108.76 L 660.54 108.76 L 666.08 108.76 L 671.62 108.76 L 677.16 108.76 L 682.70 108.76 L 688.24 108.76 L 693.78 108.76 L 699.32 108.76 L 704.86 108.76 L 710.41 108.76 L 715.95 108.76 L 721.49 108.76 L 727.03 108.76 L 732.57 108.76 L 738.11 108.76 L 743.65 108.76 L 749.19 108.76 L 754.73 108.76 L 760.27 108.76 L 765.81 108.76 L 771.35 108.76 L 776.89 108.76 L 782.43 108.76 L 787.97 108.76 L 793.51 108.76 L 799.05 108.76 L 804.59 108.76 L 810.14 108.76 L 815.68 108.76 L 821.22 108.76 L 826.76 108.76 L 832.30 108.94 L 837.84 100.39 L 843.38 81.40 L 848.92 81.40 L 854.46 81.40 L 860.00 81.40" fill="none" stroke="#111827" stroke-width="2"/>
    <circle cx="860.00" cy="81.40" r="3" fill="#111827"/>
    <text x="40.00" y="235.00" font-size="9" fill="#111827" text-anchor="middle" transform="rotate(-45 40.00 235.00)">28.08.2025</text><text x="117.57" y="235.00" font-size="9" fill="#111827" text-anchor="middle" transform="rotate(-45 117.57 235.00)">28.08.2025</text><text x="195.14" y="235.00" font-size="9" fill="#111827" text-anchor="middle" transform="rotate(-45 195.14 235.00)">30.08.2025</text><text x="272.70" y="235.00" font-size="9" fill="#111827" text-anchor="middle" transform="rotate(-45 272.70 235.00)">11.09.2025</text><text x="350.27" y="235.00" font-size="9" fill="#111827" text-anchor="middle" transform="rotate(-45 350.27 235.00)">19.09.2025</text><text x="427.84" y="235.00" font-size="9" fill="#111827" text-anchor="middle" transform="rotate(-45 427.84 235.00)">03.10.2025</text><text x="505.41" y="235.00" font-size="9" fill="#111827" text-anchor="middle" transform="rotate(-45 505.41 235.00)">16.10.2025</text><text x="582.97" y="235.00" font-size="9" fill="#111827" text-anchor="middle" transform="rotate(-45 582.97 235.00)">28.10.2025</text><text x="660.54" y="235.00" font-size="9" fill="#111827" text-anchor="middle" transform="rotate(-45 660.54 235.00)">11.11.2025</text><text x="738.11" y="235.00" font-size="9" fill="#111827" text-anchor="middle" transform="rotate(-45 738.11 235.00)">24.11.2025</text><text x="815.68" y="235.00" font-size="9" fill="#111827" text-anchor="middle" transform="rotate(-45 815.68 235.00)">02.12.2025</text>
  </g>
</svg>