<svg xmlns="http://www.w3.org/2000/svg" width="900" height="290" style="font-family: -apple-system, BlinkMacSystemFont, 'Segoe UI', Helvetica, Arial, sans-serif;">
  <rect width="100%" height="100%" fill="white"/>
  <g>
    <line x1="40" y1="220.00" x2="860" y2="220.00" stroke="#e5e7eb"/><text x="32" y="224.00" font-size="10" fill="#111827" text-anchor="end">0</text><line x1="40" y1="175.00" x2="860" y2="175.00" stroke="#e5e7eb"/><text x="32" y="179.00" font-size="10" fill="#111827" text-anchor="end">500</text><line x1="40" y1="130.00" x2="860" y2="130.00" stroke="#e5e7eb"/><text x="32" y="134.00" font-size="10" fill="#111827" text-anchor="end">1k</text><line x1="40" y1="85.00" x2="860" y2="85.00" stroke="#e5e7eb"/><text x="32" y="89.00" font-size="10" fill="#111827" text-anchor="end">1.5k</text><line x1="40" y1="40.00" x2="860" y2="40.00" stroke="#e5e7eb"/><text x="32" y="44.00" font-size="10" fill="#111827" text-anchor="end">2k</text>
    <line x1="40.00" y1="40" x2="40.00" y2="220" stroke="#e5e7eb" opacity="0.5"/><line x1="118.85" y1="40" x2="118.85" y2="220" stroke="#e5e7eb" opacity="0.5"/><line x1="197.69" y1="40" x2="197.69" y2="220" stroke="#e5e7eb" opacity="0.5"/><line x1="276.54" y1="40" x2="276.54" y2="220" stroke="#e5e7eb" opacity="0.5"/><line x1="355.38" y1="40" x2="355.38" y2="220" stroke="#e5e7eb" opacity="0.5"/><line x1="434.23" y1="40" x2="434.23" y2="220" stroke="#e5e7eb" opacity="0.5"/><line x1="513.08" y1="40" x2="513.08" y2="220" stroke="#e5e7eb" opacity="0.5"/><line x1="591.92" y1="40" x2="591.92" y2="220" stroke="#e5e7eb" opacity="0.5"/><line x1="670.77" y1="40" x2="670.77" y2="220" stroke="#e5e7eb" opacity="0.5"/><line x1="749.62" y1="40" x2="749.62" y2="220" stroke="#e5e7eb" opacity="0.5"/><line x1="828.46" y1="40" x2="828.46" y2="220" stroke="#e5e7eb" opacity="0.5"/>
    <line x1="40" y1="220" x2="860" y2="220" stroke="#9ca3af"/>
    <line x1="40" y1="40"   x2="40"   y2="220" stroke="#9ca3af"/>
    <path d="M 40.00 166.63 L 43.94 166.00 L 47.88 166.00 L 51.83 121.18 L 55.77 115.78 L 59.71 115.78 L 63.65 112.00 L 67.60 108.22 L 71.54 108.22 L 75.48 108.22 L 79.42 108.22 L 83.37 108.22 L 87.31 108.22 L 91.25 108.22 L 95.19 108.22 L 99.13 108.22 L 103.08 108.22 L 107.02 108.22 L 110.96 108.22 L 114.90 108.22 L 118.85 108.22 L 122.79 108.22 L 126.73 109.21 L 130.67 109.12 L 134.62 108.76 L 138.56 108.76 L 142.50 108.76 L 146.44 108.76 L 150.38 108.76 L 154.33 108.76 L 158.27 108.76 L 162.21 108.76 L 166.15 108.76 L 170.10 108.76 L 174.04 108.76 L 177.98 108.76 L 181.92 108.76 L 185.87 108.76 L 189.81 108.76 L 193.75 108.76 L 197.69 108.76 L 201.63 108.76 L 205.58 108.76 L 209.52 108.76 L 213.46 108.76 L 217.40 108.76 L 221.35 108.76 L 225.29 108.76 L 229.23 108.76 L 233.17 108.76 L 237.12 108.76 L 241.06 108.76 L 245.00 108.76 L 248.94 108.76 L 252.88 108.76 L 256.83 108.76 L 260.77 108.76 L 264.71 108.76 L 268.65 108.76 L 272.60 108.76 L 276.54 108.76 L 280.48 108.76 L 284.42 108.76 L 288.37 108.76 L 292.31 108.76 L 296.25 108.76 L 300.19 108.76 L 304.13 108.76 L 308.08 108.76 L 312.02 108.76 L 315.96 108.76 L 319.90 108.76 L 323.85 108.76 L 327.79 108.76 L 331.73 108.76 L 335.67 108.76 L 339.62 108.76 L 343.56 108.76 L 347.50 108.76 L 351.44 108.76 L 355.38 108.76 L 359.33 108.76 L 363.27 108.76 L 367.21 108.76 L 371.15 108.76 L 375.10 108.76 L 379.04 108.76 L 382.98 108.76 L 386.92 108.76 L 390.87 108.76 L 394.81 108.76 L 398.75 108.76 L 402.69 108.76 L 406.63 108.76 L 410.58 108.76 L 414.52 108.76 L 418.46 108.76 L 422.40 108.76 L 426.35 108.76 L 430.29 108.76 L 434.23 108.76 L 438.17 108.76 L 442.12 108.76 L 446.06 108.76 L 450.00 108.76 L 453.94 108.76 L 457.88 108.76 L 461.83 108.76 L 465.77 108.76 L 469.71 108.76 L 473.65 108.76 L 477.60 108.76 L 481.54 108.76 L 485.48 108.76 L 489.42 108.76 L 493.37 108.76 L 497.31 108.76 L 501.25 108.76 L 505.19 108.76 L 509.13 108.76 L 513.08 108.76 L 517.02 108.76 L 520.96 108.76 L 524.90 108.76 L 528.85 108.76 L 532.79 108.76 L 536.73 108.76 L 540.67 108.76 L 544.62 108.76 L 548.56 108.76 L 552.50 108.76 L 556.44 108.76 L 560.38 108.76 L 564.33 108.76 L 568.27 108.76 L 572.21 108.76 L 576.15 108.76 L 580.10 108.76 L 584.04 108.76 L 587.98 108.76 L 591.92 108.76 L 595.87 108.76 L 599.81 108.76 L 603.75 108.94 L 607.69 100.39 L 611.63 81.40 L 615.58 81.40 L 619.52 81.40 L 623.46 81.40 L 627.40 81.40 L 631.35 70.78 L 635.29 70.78 L 639.23 70.78 L 643.17 70.78 L 647.12 70.78 L 651.06 70.78 L 655.00 70.78 L 658.94 70.78 L 662.88 70.78 L 666.83 70.78 L 670.77 70.78 L 674.71 70.78 L 678.65 70.78 L 682.60 70.78 L 686.54 70.78 L 690.48 70.78 L 694.42 70.78 L 698.37 70.78 L 702.31 70.78 L 706.25 70.78 L 710.19 70.78 L 714.13 70.78 L 718.08 70.78 L 722.02 70.78 L 725.96 70.78 L 729.90 70.78 L 733.85 70.78 L 737.79 70.78 L 741.73 70.78 L 745.67 70.78 L 749.62 70.78 L 753.56 70.78 L 757.50 70.78 L 761.44 70.78 L 765.38 70.78 L 769.33 70.78 L 773.27 70.78 L 777.21 70.78 L 781.15 70.78 L 785.10 70.78 L 789.04 70.78 L 792.98 70.78 L 796.92 70.78 L 800.87 70.78 L 804.81 70.78 L 808.75 70.78 L 812.69 70.78 L 816.63 70.78 L 820.58 70.78 L 824.52 70.78 L 828.46 70.78 L 832.40 70.78 L 836.35 70.78 L 840.29 70.78 L 844.23 70.78 L 848.17 70.78 L 852.12 70.78 L 856.06 70.78 L 860.00 70.78" fill="none" stroke="#111827" stroke-width="2"/>
    <circle cx="860.00" cy="70.78" r="3" fill="#111827"/>
    <text x="40.00" y="235.00" font-size="9" fill="#111827" text-anchor="middle" transform="rotate(-45 40.00 235.00)">28.08.2025</text><text x="118.85" y="235.00" font-size="9" fill="#111827" text-anchor="middle" transform="rotate(-45 118.85 235.00)">28.08.2025</text><text x="197.69" y="235.00" font-size="9" fill="#111827" text-anchor="middle" transform="rotate(-45 197.69 235.00)">09.09.2025</text><text x="276.54" y="235.00" font-size="9" fill="#111827" text-anchor="middle" transform="rotate(-45 276.54 235.00)">23.09.2025</text><text x="355.38" y="235.00" font-size="9" fill="#111827" text-anchor="middle" transform="rotate(-45 355.38 235.00)">12.10.2025</text><text x="434.23" y="235.00" font-size="9" fill="#111827" text-anchor="middle" transform="rotate(-45 434.23 235.00)">30.10.2025</text><text x="513.08" y="235.00" font-size="9" fill="#111827" text-anchor="middle" transform="rotate(-45 513.08 235.00)">19.11.2025</text><text x="591.92" y="235.00" font-size="9" fill="#111827" text-anchor="middle" transform="rotate(-45 591.92 235.00)">02.12.2025</text><text x="670.77" y="235.00" font-size="9" fill="#111827" text-anchor="middle" transform="rotate(-45 670.77 235.00)">12.12.2025</text><text x="749.62" y="235.00" font-size="9" fill="#111827" text-anchor="middle" transform="rotate(-45 749.62 235.00)">30.12.2025</text><text x="828.46" y="235.00" font-size="9" fill="#111827" text-anchor="middle" transform="rotate(-45 828.46 235.00)">17.01.2026</text>
  </g>
</svg>