<svg xmlns="http://www.w3.org/2000/svg" width="900" height="290" style="font-family: -apple-system, BlinkMacSystemFont, 'Segoe UI', Helvetica, Arial, sans-serif;">
  <rect width="100%" height="100%" fill="#0d1117"/>
  <g>
    <line x1="40" y1="220.00" x2="860" y2="220.00" stroke="#30363d"/><text x="32" y="224.00" font-size="10" fill="#c9d1d9" text-anchor="end">0</text><line x1="40" y1="175.00" x2="860" y2="175.00" stroke="#30363d"/><text x="32" y="179.00" font-size="10" fill="#c9d1d9" text-anchor="end">500</text><line x1="40" y1="130.00" x2="860" y2="130.00" stroke="#30363d"/><text x="32" y="134.00" font-size="10" fill="#c9d1d9" text-anchor="end">1k</text><line x1="40" y1="85.00" x2="860" y2="85.00" stroke="#30363d"/><text x="32" y="89.00" font-size="10" fill="#c9d1d9" text-anchor="end">1.5k</text><line x1="40" y1="40.00" x2="860" y2="40.00" stroke="#30363d"/><text x="32" y="44.00" font-size="10" fill="#c9d1d9" text-anchor="end">2k</text>
    <line x1="40.00" y1="40" x2="40.00" y2="220" stroke="#30363d" opacity="0.5"/><line x1="122.00" y1="40" x2="122.00" y2="220" stroke="#30363d" opacity="0.5"/><line x1="204.00" y1="40" x2="204.00" y2="220" stroke="#30363d" opacity="0.5"/><line x1="286.00" y1="40" x2="286.00" y2="220" stroke="#30363d" opacity="0.5"/><line x1="368.00" y1="40" x2="368.00" y2="220" stroke="#30363d" opacity="0.5"/><line x1="450.00" y1="40" x2="450.00" y2="220" stroke="#30363d" opacity="0.5"/><line x1="532.00" y1="40" x2="532.00" y2="220" stroke="#30363d" opacity="0.5"/><line x1="614.00" y1="40" x2="614.00" y2="220" stroke="#30363d" opacity="0.5"/><line x1="696.00" y1="40" x2="696.00" y2="220" stroke="#30363d" opacity="0.5"/><line x1="778.00" y1="40" x2="778.00" y2="220" stroke="#30363d" opacity="0.5"/><line x1="860.00" y1="40" x2="860.00" y2="220" stroke="#30363d" opacity="0.5"/>
    <line x1="40" y1="220" x2="860" y2="220" stroke="#30363d"/>
    <line x1="40" y1="40"   x2="40"   y2="220" stroke="#30363d"/>
    <path d="M 40.00 166.63 L 45.86 166.00 L 51.71 166.00 L 57.57 121.18 L 63.43 115.78 L 69.29 115.78 L 75.14 112.00 L 81.00 108.22 L 86.86 108.22 L 92.71 108.22 L 98.57 108.22 L 104.43 108.22 L 110.29 108.22 L 116.14 108.22 L 122.00 108.22 L 127.86 108.22 L 133.71 108.22 L 139.57 108.22 L 145.43 108.22 L 151.29 108.22 L 157.14 108.22 L 163.00 108.22 L 168.86 109.21 L 174.71 109.12 L 180.57 108.76 L 186.43 108.76 L 192.29 108.76 L 198.14 108.76 L 204.00 108.76 L 209.86 108.76 L 215.71 108.76 L 221.57 108.76 L 227.43 108.76 L 233.29 108.76 L 239.14 108.76 L 245.00 108.76 L 250.86 108.76 L 256.71 108.76 L 262.57 108.76 L 268.43 108.76 L 274.29 108.76 L 280.14 108.76 L 286.00 108.76 L 291.86 108.76 L 297.71 108.76 L 303.57 108.76 L 309.43 108.76 L 315.29 108.76 L 321.14 108.76 L 327.00 108.76 L 332.86 108.76 L 338.71 108.76 L 344.57 108.76 L 350.43 108.76 L 356.29 108.76 L 362.14 108.76 L 368.00 108.76 L 373.86 108.76 L 379.71 108.76 L 385.57 108.76 L 391.43 108.76 L 397.29 108.76 L 403.14 108.76 L 409.00 108.76 L 414.86 108.76 L 420.71 108.76 L 426.57 108.76 L 432.43 108.76 L 438.29 108.76 L 444.14 108.76 L 450.00 108.76 L 455.86 108.76 L 461.71 108.76 L 467.57 108.76 L 473.43 108.76 L 479.29 108.76 L 485.14 108.76 L 491.00 108.76 L 496.86 108.76 L 502.71 108.76 L 508.57 108.76 L 514.43 108.76 L 520.29 108.76 L 526.14 108.76 L 532.00 108.76 L 537.86 108.76 L 543.71 108.76 L 549.57 108.76 L 555.43 108.76 L 561.29 108.76 L 567.14 108.76 L 573.00 108.76 L 578.86 108.76 L 584.71 108.76 L 590.57 108.76 L 596.43 108.76 L 602.29 108.76 L 608.14 108.76 L 614.00 108.76 L 619.86 108.76 L 625.71 108.76 L 631.57 108.76 L 637.43 108.76 L 643.29 108.76 L 649.14 108.76 L 655.00 108.76 L 660.86 108.76 L 666.71 108.76 L 672.57 108.76 L 678.43 108.76 L 684.29 108.76 L 690.14 108.76 L 696.00 108.76 L 701.86 108.76 L 707.71 108.76 L 713.57 108.76 L 719.43 108.76 L 725.29 108.76 L 731.14 108.76 L 737.00 108.76 L 742.86 108.76 L 748.71 108.76 L 754.57 108.76 L 760.43 108.76 L 766.29 108.76 L 772.14 108.76 L 778.00 108.76 L 783.86 108.76 L 789.71 108.76 L 795.57 108.76 L 801.43 108.76 L 807.29 108.76 L 813.14 108.76 L 819.00 108.76 L 824.86 108.76 L 830.71 108.76 L 836.57 108.76 L 842.43 108.76 L 848.29 108.76 L 854.14 108.76 L 860.00 108.76" fill="none" stroke="#3fb950" stroke-width="2"/>
    <circle cx="860.00" cy="108.76" r="3" fill="#3fb950"/>
    <text x="40.00" y="235.00" font-size="9" fill="#c9d1d9" text-anchor="middle" transform="rotate(-45 40.00 235.00)">28.08.2025</text><text x="122.00" y="235.00" font-size="9" fill="#c9d1d9" text-anchor="middle" transform="rotate(-45 122.00 235.00)">28.08.2025</text><text x="204.00" y="235.00" font-size="9" fill="#c9d1d9" text-anchor="middle" transform="rotate(-45 204.00 235.00)">30.08.2025</text><text x="286.00" y="235.00" font-size="9" fill="#c9d1d9" text-anchor="middle" transform="rotate(-45 286.00 235.00)">11.09.2025</text><text x="368.00" y="235.00" font-size="9" fill="#c9d1d9" text-anchor="middle" transform="rotate(-45 368.00 235.00)">19.09.2025</text><text x="450.00" y="235.00" font-size="9" fill="#c9d1d9" text-anchor="middle" transform="rotate(-45 450.00 235.00)">03.10.2025</text><text x="532.00" y="235.00" font-size="9" fill="#c9d1d9" text-anchor="middle" transform="rotate(-45 532.00 235.00)">16.10.2025</text><text x="614.00" y="235.00" font-size="9" fill="#c9d1d9" text-anchor="middle" transform="rotate(-45 614.00 235.00)">28.10.2025</text><text x="696.00" y="235.00" font-size="9" fill="#c9d1d9" text-anchor="middle" transform="rotate(-45 696.00 235.00)">11.11.2025</text><text x="778.00" y="235.00" font-size="9" fill="#c9d1d9" text-anchor="middle" transform="rotate(-45 778.00 235.00)">24.11.2025</text><text x="860.00" y="235.00" font-size="9" fill="#c9d1d9" text-anchor="middle" transform="rotate(-45 860.00 235.00)">02.12.2025</text>
  </g>
</svg>