<svg xmlns="http://www.w3.org/2000/svg" width="900" height="290" style="font-family: -apple-system, BlinkMacSystemFont, 'Segoe UI', Helvetica, Arial, sans-serif;">
  <rect width="100%" height="100%" fill="white"/>
  <g>
    <line x1="40" y1="220.00" x2="860" y2="220.00" stroke="#e5e7eb"/><text x="32" y="224.00" font-size="10" fill="#111827" text-anchor="end">0</text><line x1="40" y1="175.00" x2="860" y2="175.00" stroke="#e5e7eb"/><text x="32" y="179.00" font-size="10" fill="#111827" text-anchor="end">500</text><line x1="40" y1="130.00" x2="860" y2="130.00" stroke="#e5e7eb"/><text x="32" y="134.00" font-size="10" fill="#111827" text-anchor="end">1k</text><line x1="40" y1="85.00" x2="860" y2="85.00" stroke="#e5e7eb"/><text x="32" y="89.00" font-size="10" fill="#111827" text-anchor="end">1.5k</text><line x1="40" y1="40.00" x2="860" y2="40.00" stroke="#e5e7eb"/><text x="32" y="44.00" font-size="10" fill="#111827" text-anchor="end">2k</text>
    <line x1="40.00" y1="40" x2="40.00" y2="220" stroke="#e5e7eb" opacity="0.5"/><line x1="121.61" y1="40" x2="121.61" y2="220" stroke="#e5e7eb" opacity="0.5"/><line x1="203.22" y1="40" x2="203.22" y2="220" stroke="#e5e7eb" opacity="0.5"/><line x1="284.83" y1="40" x2="284.83" y2="220" stroke="#e5e7eb" opacity="0.5"/><line x1="366.45" y1="40" x2="366.45" y2="220" stroke="#e5e7eb" opacity="0.5"/><line x1="448.06" y1="40" x2="448.06" y2="220" stroke="#e5e7eb" opacity="0.5"/><line x1="529.67" y1="40" x2="529.67" y2="220" stroke="#e5e7eb" opacity="0.5"/><line x1="611.28" y1="40" x2="611.28" y2="220" stroke="#e5e7eb" opacity="0.5"/><line x1="692.89" y1="40" x2="692.89" y2="220" stroke="#e5e7eb" opacity="0.5"/><line x1="774.50" y1="40" x2="774.50" y2="220" stroke="#e5e7eb" opacity="0.5"/><line x1="856.11" y1="40" x2="856.11" y2="220" stroke="#e5e7eb" opacity="0.5"/>
    <line x1="40" y1="220" x2="860" y2="220" stroke="#9ca3af"/>
    <line x1="40" y1="40"   x2="40"   y2="220" stroke="#9ca3af"/>
    <path d="M 40.00 166.63 L 43.89 166.00 L 47.77 166.00 L 51.66 121.18 L 55.55 115.78 L 59.43 115.78 L 63.32 112.00 L 67.20 108.22 L 71.09 108.22 L 74.98 108.22 L 78.86 108.22 L 82.75 108.22 L 86.64 108.22 L 90.52 108.22 L 94.41 108.22 L 98.29 108.22 L 102.18 108.22 L 106.07 108.22 L 109.95 108.22 L 113.84 108.22 L 117.73 108.22 L 121.61 108.22 L 125.50 109.21 L 129.38 109.12 L 133.27 108.76 L 137.16 108.76 L 141.04 108.76 L 144.93 108.76 L 148.82 108.76 L 152.70 108.76 L 156.59 108.76 L 160.47 108.76 L 164.36 108.76 L 168.25 108.76 L 172.13 108.76 L 176.02 108.76 L 179.91 108.76 L 183.79 108.76 L 187.68 108.76 L 191.56 108.76 L 195.45 108.76 L 199.34 108.76 L 203.22 108.76 L 207.11 108.76 L 211.00 108.76 L 214.88 108.76 L 218.77 108.76 L 222.65 108.76 L 226.54 108.76 L 230.43 108.76 L 234.31 108.76 L 238.20 108.76 L 242.09 108.76 L 245.97 108.76 L 249.86 108.76 L 253.74 108.76 L 257.63 108.76 L 261.52 108.76 L 265.40 108.76 L 269.29 108.76 L 273.18 108.76 L 277.06 108.76 L 280.95 108.76 L 284.83 108.76 L 288.72 108.76 L 292.61 108.76 L 296.49 108.76 L 300.38 108.76 L 304.27 108.76 L 308.15 108.76 L 312.04 108.76 L 315.92 108.76 L 319.81 108.76 L 323.70 108.76 L 327.58 108.76 L 331.47 108.76 L 335.36 108.76 L 339.24 108.76 L 343.13 108.76 L 347.01 108.76 L 350.90 108.76 L 354.79 108.76 L 358.67 108.76 L 362.56 108.76 L 366.45 108.76 L 370.33 108.76 L 374.22 108.76 L 378.10 108.76 L 381.99 108.76 L 385.88 108.76 L 389.76 108.76 L 393.65 108.76 L 397.54 108.76 L 401.42 108.76 L 405.31 108.76 L 409.19 108.76 L 413.08 108.76 L 416.97 108.76 L 420.85 108.76 L 424.74 108.76 L 428.63 108.76 L 432.51 108.76 L 436.40 108.76 L 440.28 108.76 L 444.17 108.76 L 448.06 108.76 L 451.94 108.76 L 455.83 108.76 L 459.72 108.76 L 463.60 108.76 L 467.49 108.76 L 471.37 108.76 L 475.26 108.76 L 479.15 108.76 L 483.03 108.76 L 486.92 108.76 L 490.81 108.76 L 494.69 108.76 L 498.58 108.76 L 502.46 108.76 L 506.35 108.76 L 510.24 108.76 L 514.12 108.76 L 518.01 108.76 L 521.90 108.76 L 525.78 108.76 L 529.67 108.76 L 533.55 108.76 L 537.44 108.76 L 541.33 108.76 L 545.21 108.76 L 549.10 108.76 L 552.99 108.76 L 556.87 108.76 L 560.76 108.76 L 564.64 108.76 L 568.53 108.76 L 572.42 108.76 L 576.30 108.76 L 580.19 108.76 L 584.08 108.76 L 587.96 108.76 L 591.85 108.76 L 595.73 108.94 L 599.62 100.39 L 603.51 81.40 L 607.39 81.40 L 611.28 81.40 L 615.17 81.40 L 619.05 81.40 L 622.94 70.78 L 626.82 70.78 L 630.71 70.78 L 634.60 70.78 L 638.48 70.78 L 642.37 70.78 L 646.26 70.78 L 650.14 70.78 L 654.03 70.78 L 657.91 70.78 L 661.80 70.78 L 665.69 70.78 L 669.57 70.78 L 673.46 70.78 L 677.35 70.78 L 681.23 70.78 L 685.12 70.78 L 689.00 70.78 L 692.89 70.78 L 696.78 70.78 L 700.66 70.78 L 704.55 70.78 L 708.44 70.78 L 712.32 70.78 L 716.21 70.78 L 720.09 70.78 L 723.98 70.78 L 727.87 70.78 L 731.75 70.78 L 735.64 70.78 L 739.53 70.78 L 743.41 70.78 L 747.30 70.78 L 751.18 70.78 L 755.07 70.78 L 758.96 70.78 L 762.84 70.78 L 766.73 70.78 L 770.62 70.78 L 774.50 70.78 L 778.39 70.78 L 782.27 70.78 L 786.16 70.78 L 790.05 70.78 L 793.93 70.78 L 797.82 70.78 L 801.71 70.78 L 805.59 70.78 L 809.48 70.78 L 813.36 70.78 L 817.25 70.78 L 821.14 70.78 L 825.02 70.78 L 828.91 70.78 L 832.80 70.78 L 836.68 70.78 L 840.57 70.78 L 844.45 70.78 L 848.34 70.78 L 852.23 70.78 L 856.11 70.78 L 860.00 70.78" fill="none" stroke="#111827" stroke-width="2"/>
    <circle cx="860.00" cy="70.78" r="3" fill="#111827"/>
    <text x="40.00" y="235.00" font-size="9" fill="#111827" text-anchor="middle" transform="rotate(-45 40.00 235.00)">28.08.2025</text><text x="121.61" y="235.00" font-size="9" fill="#111827" text-anchor="middle" transform="rotate(-45 121.61 235.00)">28.08.2025</text><text x="203.22" y="235.00" font-size="9" fill="#111827" text-anchor="middle" transform="rotate(-45 203.22 235.00)">11.09.2025</text><text x="284.83" y="235.00" font-size="9" fill="#111827" text-anchor="middle" transform="rotate(-45 284.83 235.00)">26.09.2025</text><text x="366.45" y="235.00" font-size="9" fill="#111827" text-anchor="middle" transform="rotate(-45 366.45 235.00)">16.10.2025</text><text x="448.06" y="235.00" font-size="9" fill="#111827" text-anchor="middle" transform="rotate(-45 448.06 235.00)">04.11.2025</text><text x="529.67" y="235.00" font-size="9" fill="#111827" text-anchor="middle" transform="rotate(-45 529.67 235.00)">24.11.2025</text><text x="611.28" y="235.00" font-size="9" fill="#111827" text-anchor="middle" transform="rotate(-45 611.28 235.00)">05.12.2025</text><text x="692.89" y="235.00" font-size="9" fill="#111827" text-anchor="middle" transform="rotate(-45 692.89 235.00)">19.12.2025</text><text x="774.50" y="235.00" font-size="9" fill="#111827" text-anchor="middle" transform="rotate(-45 774.50 235.00)">08.01.2026</text><text x="856.11" y="235.00" font-size="9" fill="#111827" text-anchor="middle" transform="rotate(-45 856.11 235.00)">27.01.2026</text>
  </g>
</svg>