<svg xmlns="http://www.w3.org/2000/svg" width="900" height="290" style="font-family: -apple-system, BlinkMacSystemFont, 'Segoe UI', Helvetica, Arial, sans-serif;">
  <rect width="100%" height="100%" fill="white"/>
  <g>
    <line x1="40" y1="220.00" x2="860" y2="220.00" stroke="#e5e7eb"/><text x="32" y="224.00" font-size="10" fill="#111827" text-anchor="end">0</text><line x1="40" y1="175.00" x2="860" y2="175.00" stroke="#e5e7eb"/><text x="32" y="179.00" font-size="10" fill="#111827" text-anchor="end">500</text><line x1="40" y1="130.00" x2="860" y2="130.00" stroke="#e5e7eb"/><text x="32" y="134.00" font-size="10" fill="#111827" text-anchor="end">1k</text><line x1="40" y1="85.00" x2="860" y2="85.00" stroke="#e5e7eb"/><text x="32" y="89.00" font-size="10" fill="#111827" text-anchor="end">1.5k</text><line x1="40" y1="40.00" x2="860" y2="40.00" stroke="#e5e7eb"/><text x="32" y="44.00" font-size="10" fill="#111827" text-anchor="end">2k</text>
    <line x1="40.00" y1="40" x2="40.00" y2="220" stroke="#e5e7eb" opacity="0.5"/><line x1="119.35" y1="40" x2="119.35" y2="220" stroke="#e5e7eb" opacity="0.5"/><line x1="198.71" y1="40" x2="198.71" y2="220" stroke="#e5e7eb" opacity="0.5"/><line x1="278.06" y1="40" x2="278.06" y2="220" stroke="#e5e7eb" opacity="0.5"/><line x1="357.42" y1="40" x2="357.42" y2="220" stroke="#e5e7eb" opacity="0.5"/><line x1="436.77" y1="40" x2="436.77" y2="220" stroke="#e5e7eb" opacity="0.5"/><line x1="516.13" y1="40" x2="516.13" y2="220" stroke="#e5e7eb" opacity="0.5"/><line x1="595.48" y1="40" x2="595.48" y2="220" stroke="#e5e7eb" opacity="0.5"/><line x1="674.84" y1="40" x2="674.84" y2="220" stroke="#e5e7eb" opacity="0.5"/><line x1="754.19" y1="40" x2="754.19" y2="220" stroke="#e5e7eb" opacity="0.5"/><line x1="833.55" y1="40" x2="833.55" y2="220" stroke="#e5e7eb" opacity="0.5"/>
    <line x1="40" y1="220" x2="860" y2="220" stroke="#9ca3af"/>
    <line x1="40" y1="40"   x2="40"   y2="220" stroke="#9ca3af"/>
    <path d="M 40.00 166.63 L 43.78 166.00 L 47.56 166.00 L 51.34 121.18 L 55.12 115.78 L 58.89 115.78 L 62.67 112.00 L 66.45 108.22 L 70.23 108.22 L 74.01 108.22 L 77.79 108.22 L 81.57 108.22 L 85.35 108.22 L 89.12 108.22 L 92.90 108.22 L 96.68 108.22 L 100.46 108.22 L 104.24 108.22 L 108.02 108.22 L 111.80 108.22 L 115.58 108.22 L 119.35 108.22 L 123.13 109.21 L 126.91 109.12 L 130.69 108.76 L 134.47 108.76 L 138.25 108.76 L 142.03 108.76 L 145.81 108.76 L 149.59 108.76 L 153.36 108.76 L 157.14 108.76 L 160.92 108.76 L 164.70 108.76 L 168.48 108.76 L 172.26 108.76 L 176.04 108.76 L 179.82 108.76 L 183.59 108.76 L 187.37 108.76 L 191.15 108.76 L 194.93 108.76 L 198.71 108.76 L 202.49 108.76 L 206.27 108.76 L 210.05 108.76 L 213.82 108.76 L 217.60 108.76 L 221.38 108.76 L 225.16 108.76 L 228.94 108.76 L 232.72 108.76 L 236.50 108.76 L 240.28 108.76 L 244.06 108.76 L 247.83 108.76 L 251.61 108.76 L 255.39 108.76 L 259.17 108.76 L 262.95 108.76 L 266.73 108.76 L 270.51 108.76 L 274.29 108.76 L 278.06 108.76 L 281.84 108.76 L 285.62 108.76 L 289.40 108.76 L 293.18 108.76 L 296.96 108.76 L 300.74 108.76 L 304.52 108.76 L 308.29 108.76 L 312.07 108.76 L 315.85 108.76 L 319.63 108.76 L 323.41 108.76 L 327.19 108.76 L 330.97 108.76 L 334.75 108.76 L 338.53 108.76 L 342.30 108.76 L 346.08 108.76 L 349.86 108.76 L 353.64 108.76 L 357.42 108.76 L 361.20 108.76 L 364.98 108.76 L 368.76 108.76 L 372.53 108.76 L 376.31 108.76 L 380.09 108.76 L 383.87 108.76 L 387.65 108.76 L 391.43 108.76 L 395.21 108.76 L 398.99 108.76 L 402.76 108.76 L 406.54 108.76 L 410.32 108.76 L 414.10 108.76 L 417.88 108.76 L 421.66 108.76 L 425.44 108.76 L 429.22 108.76 L 433.00 108.76 L 436.77 108.76 L 440.55 108.76 L 444.33 108.76 L 448.11 108.76 L 451.89 108.76 L 455.67 108.76 L 459.45 108.76 L 463.23 108.76 L 467.00 108.76 L 470.78 108.76 L 474.56 108.76 L 478.34 108.76 L 482.12 108.76 L 485.90 108.76 L 489.68 108.76 L 493.46 108.76 L 497.24 108.76 L 501.01 108.76 L 504.79 108.76 L 508.57 108.76 L 512.35 108.76 L 516.13 108.76 L 519.91 108.76 L 523.69 108.76 L 527.47 108.76 L 531.24 108.76 L 535.02 108.76 L 538.80 108.76 L 542.58 108.76 L 546.36 108.76 L 550.14 108.76 L 553.92 108.76 L 557.70 108.76 L 561.47 108.76 L 565.25 108.76 L 569.03 108.76 L 572.81 108.76 L 576.59 108.76 L 580.37 108.94 L 584.15 100.39 L 587.93 81.40 L 591.71 81.40 L 595.48 81.40 L 599.26 81.40 L 603.04 81.40 L 606.82 70.78 L 610.60 70.78 L 614.38 70.78 L 618.16 70.78 L 621.94 70.78 L 625.71 70.78 L 629.49 70.78 L 633.27 70.78 L 637.05 70.78 L 640.83 70.78 L 644.61 70.78 L 648.39 70.78 L 652.17 70.78 L 655.94 70.78 L 659.72 70.78 L 663.50 70.78 L 667.28 70.78 L 671.06 70.78 L 674.84 70.78 L 678.62 70.78 L 682.40 70.78 L 686.18 70.78 L 689.95 70.78 L 693.73 70.78 L 697.51 70.78 L 701.29 70.78 L 705.07 70.78 L 708.85 70.78 L 712.63 70.78 L 716.41 70.78 L 720.18 70.78 L 723.96 70.78 L 727.74 70.78 L 731.52 70.78 L 735.30 70.78 L 739.08 70.78 L 742.86 70.78 L 746.64 70.78 L 750.41 70.78 L 754.19 70.78 L 757.97 70.78 L 761.75 70.78 L 765.53 70.78 L 769.31 70.78 L 773.09 70.78 L 776.87 70.78 L 780.65 70.78 L 784.42 70.78 L 788.20 70.78 L 791.98 70.78 L 795.76 70.78 L 799.54 70.78 L 803.32 70.78 L 807.10 70.78 L 810.88 70.78 L 814.65 70.78 L 818.43 70.78 L 822.21 70.78 L 825.99 70.78 L 829.77 70.78 L 833.55 70.78 L 837.33 70.78 L 841.11 70.78 L 844.88 70.78 L 848.66 70.78 L 852.44 70.78 L 856.22 70.78 L 860.00 70.78" fill="none" stroke="#111827" stroke-width="2"/>
    <circle cx="860.00" cy="70.78" r="3" fill="#111827"/>
    <text x="40.00" y="235.00" font-size="9" fill="#111827" text-anchor="middle" transform="rotate(-45 40.00 235.00)">28.08.2025</text><text x="119.35" y="235.00" font-size="9" fill="#111827" text-anchor="middle" transform="rotate(-45 119.35 235.00)">28.08.2025</text><text x="198.71" y="235.00" font-size="9" fill="#111827" text-anchor="middle" transform="rotate(-45 198.71 235.00)">11.09.2025</text><text x="278.06" y="235.00" font-size="9" fill="#111827" text-anchor="middle" transform="rotate(-45 278.06 235.00)">26.09.2025</text><text x="357.42" y="235.00" font-size="9" fill="#111827" text-anchor="middle" transform="rotate(-45 357.42 235.00)">16.10.2025</text><text x="436.77" y="235.00" font-size="9" fill="#111827" text-anchor="middle" transform="rotate(-45 436.77 235.00)">04.11.2025</text><text x="516.13" y="235.00" font-size="9" fill="#111827" text-anchor="middle" transform="rotate(-45 516.13 235.00)">24.11.2025</text><text x="595.48" y="235.00" font-size="9" fill="#111827" text-anchor="middle" transform="rotate(-45 595.48 235.00)">05.12.2025</text><text x="674.84" y="235.00" font-size="9" fill="#111827" text-anchor="middle" transform="rotate(-45 674.84 235.00)">19.12.2025</text><text x="754.19" y="235.00" font-size="9" fill="#111827" text-anchor="middle" transform="rotate(-45 754.19 235.00)">08.01.2026</text><text x="833.55" y="235.00" font-size="9" fill="#111827" text-anchor="middle" transform="rotate(-45 833.55 235.00)">27.01.2026</text>
  </g>
</svg>