<svg xmlns="http://www.w3.org/2000/svg" width="900" height="290" style="font-family: -apple-system, BlinkMacSystemFont, 'Segoe UI', Helvetica, Arial, sans-serif;">
  <rect width="100%" height="100%" fill="white"/>
  <g>
    <line x1="40" y1="220.00" x2="860" y2="220.00" stroke="#e5e7eb"/><text x="32" y="224.00" font-size="10" fill="#111827" text-anchor="end">0</text><line x1="40" y1="175.00" x2="860" y2="175.00" stroke="#e5e7eb"/><text x="32" y="179.00" font-size="10" fill="#111827" text-anchor="end">500</text><line x1="40" y1="130.00" x2="860" y2="130.00" stroke="#e5e7eb"/><text x="32" y="134.00" font-size="10" fill="#111827" text-anchor="end">1k</text><line x1="40" y1="85.00" x2="860" y2="85.00" stroke="#e5e7eb"/><text x="32" y="89.00" font-size="10" fill="#111827" text-anchor="end">1.5k</text><line x1="40" y1="40.00" x2="860" y2="40.00" stroke="#e5e7eb"/><text x="32" y="44.00" font-size="10" fill="#111827" text-anchor="end">2k</text>
    <line x1="40.00" y1="40" x2="40.00" y2="220" stroke="#e5e7eb" opacity="0.5"/><line x1="122.37" y1="40" x2="122.37" y2="220" stroke="#e5e7eb" opacity="0.5"/><line x1="204.75" y1="40" x2="204.75" y2="220" stroke="#e5e7eb" opacity="0.5"/><line x1="287.12" y1="40" x2="287.12" y2="220" stroke="#e5e7eb" opacity="0.5"/><line x1="369.50" y1="40" x2="369.50" y2="220" stroke="#e5e7eb" opacity="0.5"/><line x1="451.87" y1="40" x2="451.87" y2="220" stroke="#e5e7eb" opacity="0.5"/><line x1="534.25" y1="40" x2="534.25" y2="220" stroke="#e5e7eb" opacity="0.5"/><line x1="616.62" y1="40" x2="616.62" y2="220" stroke="#e5e7eb" opacity="0.5"/><line x1="699.00" y1="40" x2="699.00" y2="220" stroke="#e5e7eb" opacity="0.5"/><line x1="781.37" y1="40" x2="781.37" y2="220" stroke="#e5e7eb" opacity="0.5"/>
    <line x1="40" y1="220" x2="860" y2="220" stroke="#9ca3af"/>
    <line x1="40" y1="40"   x2="40"   y2="220" stroke="#9ca3af"/>
    <path d="M 40.00 166.63 L 43.74 166.00 L 47.49 166.00 L 51.23 121.18 L 54.98 115.78 L 58.72 115.78 L 62.47 112.00 L 66.21 108.22 L 69.95 108.22 L 73.70 108.22 L 77.44 108.22 L 81.19 108.22 L 84.93 108.22 L 88.68 108.22 L 92.42 108.22 L 96.16 108.22 L 99.91 108.22 L 103.65 108.22 L 107.40 108.22 L 111.14 108.22 L 114.89 108.22 L 118.63 108.22 L 122.37 109.21 L 126.12 109.12 L 129.86 108.76 L 133.61 108.76 L 137.35 108.76 L 141.10 108.76 L 144.84 108.76 L 148.58 108.76 L 152.33 108.76 L 156.07 108.76 L 159.82 108.76 L 163.56 108.76 L 167.31 108.76 L 171.05 108.76 L 174.79 108.76 L 178.54 108.76 L 182.28 108.76 L 186.03 108.76 L 189.77 108.76 L 193.52 108.76 L 197.26 108.76 L 201.00 108.76 L 204.75 108.76 L 208.49 108.76 L 212.24 108.76 L 215.98 108.76 L 219.73 108.76 L 223.47 108.76 L 227.21 108.76 L 230.96 108.76 L 234.70 108.76 L 238.45 108.76 L 242.19 108.76 L 245.94 108.76 L 249.68 108.76 L 253.42 108.76 L 257.17 108.76 L 260.91 108.76 L 264.66 108.76 L 268.40 108.76 L 272.15 108.76 L 275.89 108.76 L 279.63 108.76 L 283.38 108.76 L 287.12 108.76 L 290.87 108.76 L 294.61 108.76 L 298.36 108.76 L 302.10 108.76 L 305.84 108.76 L 309.59 108.76 L 313.33 108.76 L 317.08 108.76 L 320.82 108.76 L 324.57 108.76 L 328.31 108.76 L 332.05 108.76 L 335.80 108.76 L 339.54 108.76 L 343.29 108.76 L 347.03 108.76 L 350.78 108.76 L 354.52 108.76 L 358.26 108.76 L 362.01 108.76 L 365.75 108.76 L 369.50 108.76 L 373.24 108.76 L 376.99 108.76 L 380.73 108.76 L 384.47 108.76 L 388.22 108.76 L 391.96 108.76 L 395.71 108.76 L 399.45 108.76 L 403.20 108.76 L 406.94 108.76 L 410.68 108.76 L 414.43 108.76 L 418.17 108.76 L 421.92 108.76 L 425.66 108.76 L 429.41 108.76 L 433.15 108.76 L 436.89 108.76 L 440.64 108.76 L 444.38 108.76 L 448.13 108.76 L 451.87 108.76 L 455.62 108.76 L 459.36 108.76 L 463.11 108.76 L 466.85 108.76 L 470.59 108.76 L 474.34 108.76 L 478.08 108.76 L 481.83 108.76 L 485.57 108.76 L 489.32 108.76 L 493.06 108.76 L 496.80 108.76 L 500.55 108.76 L 504.29 108.76 L 508.04 108.76 L 511.78 108.76 L 515.53 108.76 L 519.27 108.76 L 523.01 108.76 L 526.76 108.76 L 530.50 108.76 L 534.25 108.76 L 537.99 108.76 L 541.74 108.76 L 545.48 108.76 L 549.22 108.76 L 552.97 108.76 L 556.71 108.76 L 560.46 108.76 L 564.20 108.76 L 567.95 108.76 L 571.69 108.76 L 575.43 108.94 L 579.18 100.39 L 582.92 81.40 L 586.67 81.40 L 590.41 81.40 L 594.16 81.40 L 597.90 81.40 L 601.64 70.78 L 605.39 70.78 L 609.13 70.78 L 612.88 70.78 L 616.62 70.78 L 620.37 70.78 L 624.11 70.78 L 627.85 70.78 L 631.60 70.78 L 635.34 70.78 L 639.09 70.78 L 642.83 70.78 L 646.58 70.78 L 650.32 70.78 L 654.06 70.78 L 657.81 70.78 L 661.55 70.78 L 665.30 70.78 L 669.04 70.78 L 672.79 70.78 L 676.53 70.78 L 680.27 70.78 L 684.02 70.78 L 687.76 70.78 L 691.51 70.78 L 695.25 70.78 L 699.00 70.78 L 702.74 70.78 L 706.48 70.78 L 710.23 70.78 L 713.97 70.78 L 717.72 70.78 L 721.46 70.78 L 725.21 70.78 L 728.95 70.78 L 732.69 70.78 L 736.44 70.78 L 740.18 70.78 L 743.93 70.78 L 747.67 70.78 L 751.42 70.78 L 755.16 70.78 L 758.90 70.78 L 762.65 70.78 L 766.39 70.78 L 770.14 70.78 L 773.88 70.78 L 777.63 70.78 L 781.37 70.78 L 785.11 70.78 L 788.86 70.78 L 792.60 70.78 L 796.35 70.78 L 800.09 70.78 L 803.84 70.78 L 807.58 70.78 L 811.32 70.78 L 815.07 70.78 L 818.81 70.78 L 822.56 70.78 L 826.30 70.78 L 830.05 70.78 L 833.79 70.78 L 837.53 70.78 L 841.28 70.78 L 845.02 70.78 L 848.77 70.78 L 852.51 70.78 L 856.26 70.78 L 860.00 70.78" fill="none" stroke="#111827" stroke-width="2"/>
    <circle cx="860.00" cy="70.78" r="3" fill="#111827"/>
    <text x="40.00" y="235.00" font-size="9" fill="#111827" text-anchor="middle" transform="rotate(-45 40.00 235.00)">28.08.2025</text><text x="122.37" y="235.00" font-size="9" fill="#111827" text-anchor="middle" transform="rotate(-45 122.37 235.00)">28.08.2025</text><text x="204.75" y="235.00" font-size="9" fill="#111827" text-anchor="middle" transform="rotate(-45 204.75 235.00)">13.09.2025</text><text x="287.12" y="235.00" font-size="9" fill="#111827" text-anchor="middle" transform="rotate(-45 287.12 235.00)">29.09.2025</text><text x="369.50" y="235.00" font-size="9" fill="#111827" text-anchor="middle" transform="rotate(-45 369.50 235.00)">20.10.2025</text><text x="451.87" y="235.00" font-size="9" fill="#111827" text-anchor="middle" transform="rotate(-45 451.87 235.00)">09.11.2025</text><text x="534.25" y="235.00" font-size="9" fill="#111827" text-anchor="middle" transform="rotate(-45 534.25 235.00)">28.11.2025</text><text x="616.62" y="235.00" font-size="9" fill="#111827" text-anchor="middle" transform="rotate(-45 616.62 235.00)">11.12.2025</text><text x="699.00" y="235.00" font-size="9" fill="#111827" text-anchor="middle" transform="rotate(-45 699.00 235.00)">26.12.2025</text><text x="781.37" y="235.00" font-size="9" fill="#111827" text-anchor="middle" transform="rotate(-45 781.37 235.00)">15.01.2026</text>
  </g>
</svg>