<svg xmlns="http://www.w3.org/2000/svg" width="900" height="290" style="font-family: -apple-system, BlinkMacSystemFont, 'Segoe UI', Helvetica, Arial, sans-serif;">
  <rect width="100%" height="100%" fill="#0d1117"/>
  <g>
    <line x1="40" y1="220.00" x2="860" y2="220.00" stroke="#30363d"/><text x="32" y="224.00" font-size="10" fill="#c9d1d9" text-anchor="end">0</text><line x1="40" y1="175.00" x2="860" y2="175.00" stroke="#30363d"/><text x="32" y="179.00" font-size="10" fill="#c9d1d9" text-anchor="end">500</text><line x1="40" y1="130.00" x2="860" y2="130.00" stroke="#30363d"/><text x="32" y="134.00" font-size="10" fill="#c9d1d9" text-anchor="end">1k</text><line x1="40" y1="85.00" x2="860" y2="85.00" stroke="#30363d"/><text x="32" y="89.00" font-size="10" fill="#c9d1d9" text-anchor="end">1.5k</text><line x1="40" y1="40.00" x2="860" y2="40.00" stroke="#30363d"/><text x="32" y="44.00" font-size="10" fill="#c9d1d9" text-anchor="end">2k</text>
    <line x1="40.00" y1="40" x2="40.00" y2="220" stroke="#30363d" opacity="0.5"/><line x1="120.18" y1="40" x2="120.18" y2="220" stroke="#30363d" opacity="0.5"/><line x1="200.36" y1="40" x2="200.36" y2="220" stroke="#30363d" opacity="0.5"/><line x1="280.53" y1="40" x2="280.53" y2="220" stroke="#30363d" opacity="0.5"/><line x1="360.71" y1="40" x2="360.71" y2="220" stroke="#30363d" opacity="0.5"/><line x1="440.89" y1="40" x2="440.89" y2="220" stroke="#30363d" opacity="0.5"/><line x1="521.07" y1="40" x2="521.07" y2="220" stroke="#30363d" opacity="0.5"/><line x1="601.24" y1="40" x2="601.24" y2="220" stroke="#30363d" opacity="0.5"/><line x1="681.42" y1="40" x2="681.42" y2="220" stroke="#30363d" opacity="0.5"/><line x1="761.60" y1="40" x2="761.60" y2="220" stroke="#30363d" opacity="0.5"/><line x1="841.78" y1="40" x2="841.78" y2="220" stroke="#30363d" opacity="0.5"/>
    <line x1="40" y1="220" x2="860" y2="220" stroke="#30363d"/>
    <line x1="40" y1="40"   x2="40"   y2="220" stroke="#30363d"/>
    <path d="M 40.00 166.63 L 43.64 166.00 L 47.29 166.00 L 50.93 121.18 L 54.58 115.78 L 58.22 115.78 L 61.87 112.00 L 65.51 108.22 L 69.16 108.22 L 72.80 108.22 L 76.44 108.22 L 80.09 108.22 L 83.73 108.22 L 87.38 108.22 L 91.02 108.22 L 94.67 108.22 L 98.31 108.22 L 101.96 108.22 L 105.60 108.22 L 109.24 108.22 L 112.89 108.22 L 116.53 108.22 L 120.18 109.21 L 123.82 109.12 L 127.47 108.76 L 131.11 108.76 L 134.76 108.76 L 138.40 108.76 L 142.04 108.76 L 145.69 108.76 L 149.33 108.76 L 152.98 108.76 L 156.62 108.76 L 160.27 108.76 L 163.91 108.76 L 167.56 108.76 L 171.20 108.76 L 174.84 108.76 L 178.49 108.76 L 182.13 108.76 L 185.78 108.76 L 189.42 108.76 L 193.07 108.76 L 196.71 108.76 L 200.36 108.76 L 204.00 108.76 L 207.64 108.76 L 211.29 108.76 L 214.93 108.76 L 218.58 108.76 L 222.22 108.76 L 225.87 108.76 L 229.51 108.76 L 233.16 108.76 L 236.80 108.76 L 240.44 108.76 L 244.09 108.76 L 247.73 108.76 L 251.38 108.76 L 255.02 108.76 L 258.67 108.76 L 262.31 108.76 L 265.96 108.76 L 269.60 108.76 L 273.24 108.76 L 276.89 108.76 L 280.53 108.76 L 284.18 108.76 L 287.82 108.76 L 291.47 108.76 L 295.11 108.76 L 298.76 108.76 L 302.40 108.76 L 306.04 108.76 L 309.69 108.76 L 313.33 108.76 L 316.98 108.76 L 320.62 108.76 L 324.27 108.76 L 327.91 108.76 L 331.56 108.76 L 335.20 108.76 L 338.84 108.76 L 342.49 108.76 L 346.13 108.76 L 349.78 108.76 L 353.42 108.76 L 357.07 108.76 L 360.71 108.76 L 364.36 108.76 L 368.00 108.76 L 371.64 108.76 L 375.29 108.76 L 378.93 108.76 L 382.58 108.76 L 386.22 108.76 L 389.87 108.76 L 393.51 108.76 L 397.16 108.76 L 400.80 108.76 L 404.44 108.76 L 408.09 108.76 L 411.73 108.76 L 415.38 108.76 L 419.02 108.76 L 422.67 108.76 L 426.31 108.76 L 429.96 108.76 L 433.60 108.76 L 437.24 108.76 L 440.89 108.76 L 444.53 108.76 L 448.18 108.76 L 451.82 108.76 L 455.47 108.76 L 459.11 108.76 L 462.76 108.76 L 466.40 108.76 L 470.04 108.76 L 473.69 108.76 L 477.33 108.76 L 480.98 108.76 L 484.62 108.76 L 488.27 108.76 L 491.91 108.76 L 495.56 108.76 L 499.20 108.76 L 502.84 108.76 L 506.49 108.76 L 510.13 108.76 L 513.78 108.76 L 517.42 108.76 L 521.07 108.76 L 524.71 108.76 L 528.36 108.76 L 532.00 108.76 L 535.64 108.76 L 539.29 108.76 L 542.93 108.76 L 546.58 108.76 L 550.22 108.76 L 553.87 108.76 L 557.51 108.76 L 561.16 108.94 L 564.80 100.39 L 568.44 81.40 L 572.09 81.40 L 575.73 81.40 L 579.38 81.40 L 583.02 81.40 L 586.67 70.78 L 590.31 70.78 L 593.96 70.78 L 597.60 70.78 L 601.24 70.78 L 604.89 70.78 L 608.53 70.78 L 612.18 70.78 L 615.82 70.78 L 619.47 70.78 L 623.11 70.78 L 626.76 70.78 L 630.40 70.78 L 634.04 70.78 L 637.69 70.78 L 641.33 70.78 L 644.98 70.78 L 648.62 70.78 L 652.27 70.78 L 655.91 70.78 L 659.56 70.78 L 663.20 70.78 L 666.84 70.78 L 670.49 70.78 L 674.13 70.78 L 677.78 70.78 L 681.42 70.78 L 685.07 70.78 L 688.71 70.78 L 692.36 70.78 L 696.00 70.78 L 699.64 70.78 L 703.29 70.78 L 706.93 70.78 L 710.58 70.78 L 714.22 70.78 L 717.87 70.78 L 721.51 70.78 L 725.16 70.78 L 728.80 70.78 L 732.44 70.78 L 736.09 70.78 L 739.73 70.78 L 743.38 70.78 L 747.02 70.78 L 750.67 70.78 L 754.31 70.78 L 757.96 70.78 L 761.60 70.78 L 765.24 70.78 L 768.89 70.78 L 772.53 70.78 L 776.18 70.78 L 779.82 70.78 L 783.47 70.78 L 787.11 70.78 L 790.76 70.78 L 794.40 70.78 L 798.04 70.78 L 801.69 70.78 L 805.33 70.78 L 808.98 70.78 L 812.62 70.78 L 816.27 70.78 L 819.91 70.78 L 823.56 70.78 L 827.20 70.78 L 830.84 70.78 L 834.49 70.78 L 838.13 70.78 L 841.78 70.78 L 845.42 70.78 L 849.07 70.78 L 852.71 70.78 L 856.36 70.78 L 860.00 70.78" fill="none" stroke="#3fb950" stroke-width="2"/>
    <circle cx="860.00" cy="70.78" r="3" fill="#3fb950"/>
    <text x="40.00" y="235.00" font-size="9" fill="#c9d1d9" text-anchor="middle" transform="rotate(-45 40.00 235.00)">28.08.2025</text><text x="120.18" y="235.00" font-size="9" fill="#c9d1d9" text-anchor="middle" transform="rotate(-45 120.18 235.00)">28.08.2025</text><text x="200.36" y="235.00" font-size="9" fill="#c9d1d9" text-anchor="middle" transform="rotate(-45 200.36 235.00)">13.09.2025</text><text x="280.53" y="235.00" font-size="9" fill="#c9d1d9" text-anchor="middle" transform="rotate(-45 280.53 235.00)">29.09.2025</text><text x="360.71" y="235.00" font-size="9" fill="#c9d1d9" text-anchor="middle" transform="rotate(-45 360.71 235.00)">20.10.2025</text><text x="440.89" y="235.00" font-size="9" fill="#c9d1d9" text-anchor="middle" transform="rotate(-45 440.89 235.00)">09.11.2025</text><text x="521.07" y="235.00" font-size="9" fill="#c9d1d9" text-anchor="middle" transform="rotate(-45 521.07 235.00)">28.11.2025</text><text x="601.24" y="235.00" font-size="9" fill="#c9d1d9" text-anchor="middle" transform="rotate(-45 601.24 235.00)">11.12.2025</text><text x="681.42" y="235.00" font-size="9" fill="#c9d1d9" text-anchor="middle" transform="rotate(-45 681.42 235.00)">26.12.2025</text><text x="761.60" y="235.00" font-size="9" fill="#c9d1d9" text-anchor="middle" transform="rotate(-45 761.60 235.00)">15.01.2026</text><text x="841.78" y="235.00" font-size="9" fill="#c9d1d9" text-anchor="middle" transform="rotate(-45 841.78 235.00)">06.02.2026</text>
  </g>
</svg>