<svg xmlns="http://www.w3.org/2000/svg" width="900" height="290" style="font-family: -apple-system, BlinkMacSystemFont, 'Segoe UI', Helvetica, Arial, sans-serif;">
  <rect width="100%" height="100%" fill="#0d1117"/>
  <g>
    <line x1="40" y1="220.00" x2="860" y2="220.00" stroke="#30363d"/><text x="32" y="224.00" font-size="10" fill="#c9d1d9" text-anchor="end">0</text><line x1="40" y1="175.00" x2="860" y2="175.00" stroke="#30363d"/><text x="32" y="179.00" font-size="10" fill="#c9d1d9" text-anchor="end">500</text><line x1="40" y1="130.00" x2="860" y2="130.00" stroke="#30363d"/><text x="32" y="134.00" font-size="10" fill="#c9d1d9" text-anchor="end">1k</text><line x1="40" y1="85.00" x2="860" y2="85.00" stroke="#30363d"/><text x="32" y="89.00" font-size="10" fill="#c9d1d9" text-anchor="end">1.5k</text><line x1="40" y1="40.00" x2="860" y2="40.00" stroke="#30363d"/><text x="32" y="44.00" font-size="10" fill="#c9d1d9" text-anchor="end">2k</text>
    <line x1="40.00" y1="40" x2="40.00" y2="220" stroke="#30363d" opacity="0.5"/><line x1="120.09" y1="40" x2="120.09" y2="220" stroke="#30363d" opacity="0.5"/><line x1="200.19" y1="40" x2="200.19" y2="220" stroke="#30363d" opacity="0.5"/><line x1="280.28" y1="40" x2="280.28" y2="220" stroke="#30363d" opacity="0.5"/><line x1="360.37" y1="40" x2="360.37" y2="220" stroke="#30363d" opacity="0.5"/><line x1="440.47" y1="40" x2="440.47" y2="220" stroke="#30363d" opacity="0.5"/><line x1="520.56" y1="40" x2="520.56" y2="220" stroke="#30363d" opacity="0.5"/><line x1="600.65" y1="40" x2="600.65" y2="220" stroke="#30363d" opacity="0.5"/><line x1="680.74" y1="40" x2="680.74" y2="220" stroke="#30363d" opacity="0.5"/><line x1="760.84" y1="40" x2="760.84" y2="220" stroke="#30363d" opacity="0.5"/><line x1="840.93" y1="40" x2="840.93" y2="220" stroke="#30363d" opacity="0.5"/>
    <line x1="40" y1="220" x2="860" y2="220" stroke="#30363d"/>
    <line x1="40" y1="40"   x2="40"   y2="220" stroke="#30363d"/>
    <path d="M 40.00 166.63 L 43.81 166.00 L 47.63 166.00 L 51.44 121.18 L 55.26 115.78 L 59.07 115.78 L 62.88 112.00 L 66.70 108.22 L 70.51 108.22 L 74.33 108.22 L 78.14 108.22 L 81.95 108.22 L 85.77 108.22 L 89.58 108.22 L 93.40 108.22 L 97.21 108.22 L 101.02 108.22 L 104.84 108.22 L 108.65 108.22 L 112.47 108.22 L 116.28 108.22 L 120.09 108.22 L 123.91 109.21 L 127.72 109.12 L 131.53 108.76 L 135.35 108.76 L 139.16 108.76 L 142.98 108.76 L 146.79 108.76 L 150.60 108.76 L 154.42 108.76 L 158.23 108.76 L 162.05 108.76 L 165.86 108.76 L 169.67 108.76 L 173.49 108.76 L 177.30 108.76 L 181.12 108.76 L 184.93 108.76 L 188.74 108.76 L 192.56 108.76 L 196.37 108.76 L 200.19 108.76 L 204.00 108.76 L 207.81 108.76 L 211.63 108.76 L 215.44 108.76 L 219.26 108.76 L 223.07 108.76 L 226.88 108.76 L 230.70 108.76 L 234.51 108.76 L 238.33 108.76 L 242.14 108.76 L 245.95 108.76 L 249.77 108.76 L 253.58 108.76 L 257.40 108.76 L 261.21 108.76 L 265.02 108.76 L 268.84 108.76 L 272.65 108.76 L 276.47 108.76 L 280.28 108.76 L 284.09 108.76 L 287.91 108.76 L 291.72 108.76 L 295.53 108.76 L 299.35 108.76 L 303.16 108.76 L 306.98 108.76 L 310.79 108.76 L 314.60 108.76 L 318.42 108.76 L 322.23 108.76 L 326.05 108.76 L 329.86 108.76 L 333.67 108.76 L 337.49 108.76 L 341.30 108.76 L 345.12 108.76 L 348.93 108.76 L 352.74 108.76 L 356.56 108.76 L 360.37 108.76 L 364.19 108.76 L 368.00 108.76 L 371.81 108.76 L 375.63 108.76 L 379.44 108.76 L 383.26 108.76 L 387.07 108.76 L 390.88 108.76 L 394.70 108.76 L 398.51 108.76 L 402.33 108.76 L 406.14 108.76 L 409.95 108.76 L 413.77 108.76 L 417.58 108.76 L 421.40 108.76 L 425.21 108.76 L 429.02 108.76 L 432.84 108.76 L 436.65 108.76 L 440.47 108.76 L 444.28 108.76 L 448.09 108.76 L 451.91 108.76 L 455.72 108.76 L 459.53 108.76 L 463.35 108.76 L 467.16 108.76 L 470.98 108.76 L 474.79 108.76 L 478.60 108.76 L 482.42 108.76 L 486.23 108.76 L 490.05 108.76 L 493.86 108.76 L 497.67 108.76 L 501.49 108.76 L 505.30 108.76 L 509.12 108.76 L 512.93 108.76 L 516.74 108.76 L 520.56 108.76 L 524.37 108.76 L 528.19 108.76 L 532.00 108.76 L 535.81 108.76 L 539.63 108.76 L 543.44 108.76 L 547.26 108.76 L 551.07 108.76 L 554.88 108.76 L 558.70 108.76 L 562.51 108.76 L 566.33 108.76 L 570.14 108.76 L 573.95 108.76 L 577.77 108.76 L 581.58 108.76 L 585.40 108.94 L 589.21 100.39 L 593.02 81.40 L 596.84 81.40 L 600.65 81.40 L 604.47 81.40 L 608.28 81.40 L 612.09 70.78 L 615.91 70.78 L 619.72 70.78 L 623.53 70.78 L 627.35 70.78 L 631.16 70.78 L 634.98 70.78 L 638.79 70.78 L 642.60 70.78 L 646.42 70.78 L 650.23 70.78 L 654.05 70.78 L 657.86 70.78 L 661.67 70.78 L 665.49 70.78 L 669.30 70.78 L 673.12 70.78 L 676.93 70.78 L 680.74 70.78 L 684.56 70.78 L 688.37 70.78 L 692.19 70.78 L 696.00 70.78 L 699.81 70.78 L 703.63 70.78 L 707.44 70.78 L 711.26 70.78 L 715.07 70.78 L 718.88 70.78 L 722.70 70.78 L 726.51 70.78 L 730.33 70.78 L 734.14 70.78 L 737.95 70.78 L 741.77 70.78 L 745.58 70.78 L 749.40 70.78 L 753.21 70.78 L 757.02 70.78 L 760.84 70.78 L 764.65 70.78 L 768.47 70.78 L 772.28 70.78 L 776.09 70.78 L 779.91 70.78 L 783.72 70.78 L 787.53 70.78 L 791.35 70.78 L 795.16 70.78 L 798.98 70.78 L 802.79 70.78 L 806.60 70.78 L 810.42 70.78 L 814.23 70.78 L 818.05 70.78 L 821.86 70.78 L 825.67 70.78 L 829.49 70.78 L 833.30 70.78 L 837.12 70.78 L 840.93 70.78 L 844.74 70.78 L 848.56 70.78 L 852.37 70.78 L 856.19 70.78 L 860.00 70.78" fill="none" stroke="#3fb950" stroke-width="2"/>
    <circle cx="860.00" cy="70.78" r="3" fill="#3fb950"/>
    <text x="40.00" y="235.00" font-size="9" fill="#c9d1d9" text-anchor="middle" transform="rotate(-45 40.00 235.00)">28.08.2025</text><text x="120.09" y="235.00" font-size="9" fill="#c9d1d9" text-anchor="middle" transform="rotate(-45 120.09 235.00)">28.08.2025</text><text x="200.19" y="235.00" font-size="9" fill="#c9d1d9" text-anchor="middle" transform="rotate(-45 200.19 235.00)">11.09.2025</text><text x="280.28" y="235.00" font-size="9" fill="#c9d1d9" text-anchor="middle" transform="rotate(-45 280.28 235.00)">26.09.2025</text><text x="360.37" y="235.00" font-size="9" fill="#c9d1d9" text-anchor="middle" transform="rotate(-45 360.37 235.00)">16.10.2025</text><text x="440.47" y="235.00" font-size="9" fill="#c9d1d9" text-anchor="middle" transform="rotate(-45 440.47 235.00)">04.11.2025</text><text x="520.56" y="235.00" font-size="9" fill="#c9d1d9" text-anchor="middle" transform="rotate(-45 520.56 235.00)">24.11.2025</text><text x="600.65" y="235.00" font-size="9" fill="#c9d1d9" text-anchor="middle" transform="rotate(-45 600.65 235.00)">05.12.2025</text><text x="680.74" y="235.00" font-size="9" fill="#c9d1d9" text-anchor="middle" transform="rotate(-45 680.74 235.00)">19.12.2025</text><text x="760.84" y="235.00" font-size="9" fill="#c9d1d9" text-anchor="middle" transform="rotate(-45 760.84 235.00)">08.01.2026</text><text x="840.93" y="235.00" font-size="9" fill="#c9d1d9" text-anchor="middle" transform="rotate(-45 840.93 235.00)">27.01.2026</text>
  </g>
</svg>