<svg xmlns="http://www.w3.org/2000/svg" width="900" height="290" style="font-family: -apple-system, BlinkMacSystemFont, 'Segoe UI', Helvetica, Arial, sans-serif;">
  <rect width="100%" height="100%" fill="white"/>
  <g>
    <line x1="40" y1="220.00" x2="860" y2="220.00" stroke="#e5e7eb"/><text x="32" y="224.00" font-size="10" fill="#111827" text-anchor="end">0</text><line x1="40" y1="175.00" x2="860" y2="175.00" stroke="#e5e7eb"/><text x="32" y="179.00" font-size="10" fill="#111827" text-anchor="end">500</text><line x1="40" y1="130.00" x2="860" y2="130.00" stroke="#e5e7eb"/><text x="32" y="134.00" font-size="10" fill="#111827" text-anchor="end">1k</text><line x1="40" y1="85.00" x2="860" y2="85.00" stroke="#e5e7eb"/><text x="32" y="89.00" font-size="10" fill="#111827" text-anchor="end">1.5k</text><line x1="40" y1="40.00" x2="860" y2="40.00" stroke="#e5e7eb"/><text x="32" y="44.00" font-size="10" fill="#111827" text-anchor="end">2k</text>
    <line x1="40.00" y1="40" x2="40.00" y2="220" stroke="#e5e7eb" opacity="0.5"/><line x1="104.74" y1="40" x2="104.74" y2="220" stroke="#e5e7eb" opacity="0.5"/><line x1="169.47" y1="40" x2="169.47" y2="220" stroke="#e5e7eb" opacity="0.5"/><line x1="234.21" y1="40" x2="234.21" y2="220" stroke="#e5e7eb" opacity="0.5"/><line x1="298.95" y1="40" x2="298.95" y2="220" stroke="#e5e7eb" opacity="0.5"/><line x1="363.68" y1="40" x2="363.68" y2="220" stroke="#e5e7eb" opacity="0.5"/><line x1="428.42" y1="40" x2="428.42" y2="220" stroke="#e5e7eb" opacity="0.5"/><line x1="493.16" y1="40" x2="493.16" y2="220" stroke="#e5e7eb" opacity="0.5"/><line x1="557.89" y1="40" x2="557.89" y2="220" stroke="#e5e7eb" opacity="0.5"/><line x1="622.63" y1="40" x2="622.63" y2="220" stroke="#e5e7eb" opacity="0.5"/><line x1="687.37" y1="40" x2="687.37" y2="220" stroke="#e5e7eb" opacity="0.5"/><line x1="752.11" y1="40" x2="752.11" y2="220" stroke="#e5e7eb" opacity="0.5"/><line x1="816.84" y1="40" x2="816.84" y2="220" stroke="#e5e7eb" opacity="0.5"/>
    <line x1="40" y1="220" x2="860" y2="220" stroke="#9ca3af"/>
    <line x1="40" y1="40"   x2="40"   y2="220" stroke="#9ca3af"/>
    <path d="M 40.00 166.63 L 61.58 166.00 L 83.16 166.00 L 104.74 121.18 L 126.32 115.78 L 147.89 115.78 L 169.47 112.00 L 191.05 108.22 L 212.63 108.22 L 234.21 108.22 L 255.79 108.22 L 277.37 108.22 L 298.95 108.22 L 320.53 108.22 L 342.11 108.22 L 363.68 108.22 L 385.26 108.22 L 406.84 108.22 L 428.42 108.22 L 450.00 108.22 L 471.58 108.22 L 493.16 108.22 L 514.74 109.21 L 536.32 109.12 L 557.89 108.76 L 579.47 108.76 L 601.05 108.76 L 622.63 108.76 L 644.21 108.76 L 665.79 108.76 L 687.37 108.76 L 708.95 108.76 L 730.53 108.76 L 752.11 108.76 L 773.68 108.76 L 795.26 108.76 L 816.84 108.76 L 838.42 108.76 L 860.00 108.76" fill="none" stroke="#111827" stroke-width="2"/>
    <circle cx="860.00" cy="108.76" r="3" fill="#111827"/>
    <text x="40.00" y="235.00" font-size="9" fill="#111827" text-anchor="middle" transform="rotate(-45 40.00 235.00)">28.08.2025</text><text x="104.74" y="235.00" font-size="9" fill="#111827" text-anchor="middle" transform="rotate(-45 104.74 235.00)">28.08.2025</text><text x="169.47" y="235.00" font-size="9" fill="#111827" text-anchor="middle" transform="rotate(-45 169.47 235.00)">28.08.2025</text><text x="234.21" y="235.00" font-size="9" fill="#111827" text-anchor="middle" transform="rotate(-45 234.21 235.00)">28.08.2025</text><text x="298.95" y="235.00" font-size="9" fill="#111827" text-anchor="middle" transform="rotate(-45 298.95 235.00)">28.08.2025</text><text x="363.68" y="235.00" font-size="9" fill="#111827" text-anchor="middle" transform="rotate(-45 363.68 235.00)">28.08.2025</text><text x="428.42" y="235.00" font-size="9" fill="#111827" text-anchor="middle" transform="rotate(-45 428.42 235.00)">28.08.2025</text><text x="493.16" y="235.00" font-size="9" fill="#111827" text-anchor="middle" transform="rotate(-45 493.16 235.00)">28.08.2025</text><text x="557.89" y="235.00" font-size="9" fill="#111827" text-anchor="middle" transform="rotate(-45 557.89 235.00)">28.08.2025</text><text x="622.63" y="235.00" font-size="9" fill="#111827" text-anchor="middle" transform="rotate(-45 622.63 235.00)">29.08.2025</text><text x="687.37" y="235.00" font-size="9" fill="#111827" text-anchor="middle" transform="rotate(-45 687.37 235.00)">01.09.2025</text><text x="752.11" y="235.00" font-size="9" fill="#111827" text-anchor="middle" transform="rotate(-45 752.11 235.00)">04.09.2025</text><text x="816.84" y="235.00" font-size="9" fill="#111827" text-anchor="middle" transform="rotate(-45 816.84 235.00)">07.09.2025</text>
  </g>
</svg>