<svg xmlns="http://www.w3.org/2000/svg" width="900" height="290" style="font-family: -apple-system, BlinkMacSystemFont, 'Segoe UI', Helvetica, Arial, sans-serif;">
  <rect width="100%" height="100%" fill="#0d1117"/>
  <g>
    <line x1="40" y1="220.00" x2="860" y2="220.00" stroke="#30363d"/><text x="32" y="224.00" font-size="10" fill="#c9d1d9" text-anchor="end">0</text><line x1="40" y1="175.00" x2="860" y2="175.00" stroke="#30363d"/><text x="32" y="179.00" font-size="10" fill="#c9d1d9" text-anchor="end">500</text><line x1="40" y1="130.00" x2="860" y2="130.00" stroke="#30363d"/><text x="32" y="134.00" font-size="10" fill="#c9d1d9" text-anchor="end">1k</text><line x1="40" y1="85.00" x2="860" y2="85.00" stroke="#30363d"/><text x="32" y="89.00" font-size="10" fill="#c9d1d9" text-anchor="end">1.5k</text><line x1="40" y1="40.00" x2="860" y2="40.00" stroke="#30363d"/><text x="32" y="44.00" font-size="10" fill="#c9d1d9" text-anchor="end">2k</text>
    <line x1="40.00" y1="40" x2="40.00" y2="220" stroke="#30363d" opacity="0.5"/><line x1="122.00" y1="40" x2="122.00" y2="220" stroke="#30363d" opacity="0.5"/><line x1="204.00" y1="40" x2="204.00" y2="220" stroke="#30363d" opacity="0.5"/><line x1="286.00" y1="40" x2="286.00" y2="220" stroke="#30363d" opacity="0.5"/><line x1="368.00" y1="40" x2="368.00" y2="220" stroke="#30363d" opacity="0.5"/><line x1="450.00" y1="40" x2="450.00" y2="220" stroke="#30363d" opacity="0.5"/><line x1="532.00" y1="40" x2="532.00" y2="220" stroke="#30363d" opacity="0.5"/><line x1="614.00" y1="40" x2="614.00" y2="220" stroke="#30363d" opacity="0.5"/><line x1="696.00" y1="40" x2="696.00" y2="220" stroke="#30363d" opacity="0.5"/><line x1="778.00" y1="40" x2="778.00" y2="220" stroke="#30363d" opacity="0.5"/><line x1="860.00" y1="40" x2="860.00" y2="220" stroke="#30363d" opacity="0.5"/>
    <line x1="40" y1="220" x2="860" y2="220" stroke="#30363d"/>
    <line x1="40" y1="40"   x2="40"   y2="220" stroke="#30363d"/>
    <path d="M 40.00 166.63 L 44.10 166.00 L 48.20 166.00 L 52.30 121.18 L 56.40 115.78 L 60.50 115.78 L 64.60 112.00 L 68.70 108.22 L 72.80 108.22 L 76.90 108.22 L 81.00 108.22 L 85.10 108.22 L 89.20 108.22 L 93.30 108.22 L 97.40 108.22 L 101.50 108.22 L 105.60 108.22 L 109.70 108.22 L 113.80 108.22 L 117.90 108.22 L 122.00 108.22 L 126.10 108.22 L 130.20 109.21 L 134.30 109.12 L 138.40 108.76 L 142.50 108.76 L 146.60 108.76 L 150.70 108.76 L 154.80 108.76 L 158.90 108.76 L 163.00 108.76 L 167.10 108.76 L 171.20 108.76 L 175.30 108.76 L 179.40 108.76 L 183.50 108.76 L 187.60 108.76 L 191.70 108.76 L 195.80 108.76 L 199.90 108.76 L 204.00 108.76 L 208.10 108.76 L 212.20 108.76 L 216.30 108.76 L 220.40 108.76 L 224.50 108.76 L 228.60 108.76 L 232.70 108.76 L 236.80 108.76 L 240.90 108.76 L 245.00 108.76 L 249.10 108.76 L 253.20 108.76 L 257.30 108.76 L 261.40 108.76 L 265.50 108.76 L 269.60 108.76 L 273.70 108.76 L 277.80 108.76 L 281.90 108.76 L 286.00 108.76 L 290.10 108.76 L 294.20 108.76 L 298.30 108.76 L 302.40 108.76 L 306.50 108.76 L 310.60 108.76 L 314.70 108.76 L 318.80 108.76 L 322.90 108.76 L 327.00 108.76 L 331.10 108.76 L 335.20 108.76 L 339.30 108.76 L 343.40 108.76 L 347.50 108.76 L 351.60 108.76 L 355.70 108.76 L 359.80 108.76 L 363.90 108.76 L 368.00 108.76 L 372.10 108.76 L 376.20 108.76 L 380.30 108.76 L 384.40 108.76 L 388.50 108.76 L 392.60 108.76 L 396.70 108.76 L 400.80 108.76 L 404.90 108.76 L 409.00 108.76 L 413.10 108.76 L 417.20 108.76 L 421.30 108.76 L 425.40 108.76 L 429.50 108.76 L 433.60 108.76 L 437.70 108.76 L 441.80 108.76 L 445.90 108.76 L 450.00 108.76 L 454.10 108.76 L 458.20 108.76 L 462.30 108.76 L 466.40 108.76 L 470.50 108.76 L 474.60 108.76 L 478.70 108.76 L 482.80 108.76 L 486.90 108.76 L 491.00 108.76 L 495.10 108.76 L 499.20 108.76 L 503.30 108.76 L 507.40 108.76 L 511.50 108.76 L 515.60 108.76 L 519.70 108.76 L 523.80 108.76 L 527.90 108.76 L 532.00 108.76 L 536.10 108.76 L 540.20 108.76 L 544.30 108.76 L 548.40 108.76 L 552.50 108.76 L 556.60 108.76 L 560.70 108.76 L 564.80 108.76 L 568.90 108.76 L 573.00 108.76 L 577.10 108.76 L 581.20 108.76 L 585.30 108.76 L 589.40 108.76 L 593.50 108.76 L 597.60 108.76 L 601.70 108.76 L 605.80 108.76 L 609.90 108.76 L 614.00 108.76 L 618.10 108.76 L 622.20 108.76 L 626.30 108.94 L 630.40 100.39 L 634.50 81.40 L 638.60 81.40 L 642.70 81.40 L 646.80 81.40 L 650.90 81.40 L 655.00 70.78 L 659.10 70.78 L 663.20 70.78 L 667.30 70.78 L 671.40 70.78 L 675.50 70.78 L 679.60 70.78 L 683.70 70.78 L 687.80 70.78 L 691.90 70.78 L 696.00 70.78 L 700.10 70.78 L 704.20 70.78 L 708.30 70.78 L 712.40 70.78 L 716.50 70.78 L 720.60 70.78 L 724.70 70.78 L 728.80 70.78 L 732.90 70.78 L 737.00 70.78 L 741.10 70.78 L 745.20 70.78 L 749.30 70.78 L 753.40 70.78 L 757.50 70.78 L 761.60 70.78 L 765.70 70.78 L 769.80 70.78 L 773.90 70.78 L 778.00 70.78 L 782.10 70.78 L 786.20 70.78 L 790.30 70.78 L 794.40 70.78 L 798.50 70.78 L 802.60 70.78 L 806.70 70.78 L 810.80 70.78 L 814.90 70.78 L 819.00 70.78 L 823.10 70.78 L 827.20 70.78 L 831.30 70.78 L 835.40 70.78 L 839.50 70.78 L 843.60 70.78 L 847.70 70.78 L 851.80 70.78 L 855.90 70.78 L 860.00 70.78" fill="none" stroke="#3fb950" stroke-width="2"/>
    <circle cx="860.00" cy="70.78" r="3" fill="#3fb950"/>
    <text x="40.00" y="235.00" font-size="9" fill="#c9d1d9" text-anchor="middle" transform="rotate(-45 40.00 235.00)">28.08.2025</text><text x="122.00" y="235.00" font-size="9" fill="#c9d1d9" text-anchor="middle" transform="rotate(-45 122.00 235.00)">28.08.2025</text><text x="204.00" y="235.00" font-size="9" fill="#c9d1d9" text-anchor="middle" transform="rotate(-45 204.00 235.00)">09.09.2025</text><text x="286.00" y="235.00" font-size="9" fill="#c9d1d9" text-anchor="middle" transform="rotate(-45 286.00 235.00)">23.09.2025</text><text x="368.00" y="235.00" font-size="9" fill="#c9d1d9" text-anchor="middle" transform="rotate(-45 368.00 235.00)">12.10.2025</text><text x="450.00" y="235.00" font-size="9" fill="#c9d1d9" text-anchor="middle" transform="rotate(-45 450.00 235.00)">30.10.2025</text><text x="532.00" y="235.00" font-size="9" fill="#c9d1d9" text-anchor="middle" transform="rotate(-45 532.00 235.00)">19.11.2025</text><text x="614.00" y="235.00" font-size="9" fill="#c9d1d9" text-anchor="middle" transform="rotate(-45 614.00 235.00)">02.12.2025</text><text x="696.00" y="235.00" font-size="9" fill="#c9d1d9" text-anchor="middle" transform="rotate(-45 696.00 235.00)">12.12.2025</text><text x="778.00" y="235.00" font-size="9" fill="#c9d1d9" text-anchor="middle" transform="rotate(-45 778.00 235.00)">30.12.2025</text><text x="860.00" y="235.00" font-size="9" fill="#c9d1d9" text-anchor="middle" transform="rotate(-45 860.00 235.00)">17.01.2026</text>
  </g>
</svg>