<svg xmlns="http://www.w3.org/2000/svg" width="900" height="290" style="font-family: -apple-system, BlinkMacSystemFont, 'Segoe UI', Helvetica, Arial, sans-serif;">
  <rect width="100%" height="100%" fill="white"/>
  <g>
    <line x1="40" y1="220.00" x2="860" y2="220.00" stroke="#e5e7eb"/><text x="32" y="224.00" font-size="10" fill="#111827" text-anchor="end">0</text><line x1="40" y1="175.00" x2="860" y2="175.00" stroke="#e5e7eb"/><text x="32" y="179.00" font-size="10" fill="#111827" text-anchor="end">500</text><line x1="40" y1="130.00" x2="860" y2="130.00" stroke="#e5e7eb"/><text x="32" y="134.00" font-size="10" fill="#111827" text-anchor="end">1k</text><line x1="40" y1="85.00" x2="860" y2="85.00" stroke="#e5e7eb"/><text x="32" y="89.00" font-size="10" fill="#111827" text-anchor="end">1.5k</text><line x1="40" y1="40.00" x2="860" y2="40.00" stroke="#e5e7eb"/><text x="32" y="44.00" font-size="10" fill="#111827" text-anchor="end">2k</text>
    <line x1="40.00" y1="40" x2="40.00" y2="220" stroke="#e5e7eb" opacity="0.5"/><line x1="120.26" y1="40" x2="120.26" y2="220" stroke="#e5e7eb" opacity="0.5"/><line x1="200.51" y1="40" x2="200.51" y2="220" stroke="#e5e7eb" opacity="0.5"/><line x1="280.77" y1="40" x2="280.77" y2="220" stroke="#e5e7eb" opacity="0.5"/><line x1="361.02" y1="40" x2="361.02" y2="220" stroke="#e5e7eb" opacity="0.5"/><line x1="441.28" y1="40" x2="441.28" y2="220" stroke="#e5e7eb" opacity="0.5"/><line x1="521.53" y1="40" x2="521.53" y2="220" stroke="#e5e7eb" opacity="0.5"/><line x1="601.79" y1="40" x2="601.79" y2="220" stroke="#e5e7eb" opacity="0.5"/><line x1="682.04" y1="40" x2="682.04" y2="220" stroke="#e5e7eb" opacity="0.5"/><line x1="762.30" y1="40" x2="762.30" y2="220" stroke="#e5e7eb" opacity="0.5"/><line x1="842.55" y1="40" x2="842.55" y2="220" stroke="#e5e7eb" opacity="0.5"/>
    <line x1="40" y1="220" x2="860" y2="220" stroke="#9ca3af"/>
    <line x1="40" y1="40"   x2="40"   y2="220" stroke="#9ca3af"/>
    <path d="M 40.00 166.63 L 43.49 166.00 L 46.98 166.00 L 50.47 121.18 L 53.96 115.78 L 57.45 115.78 L 60.94 112.00 L 64.43 108.22 L 67.91 108.22 L 71.40 108.22 L 74.89 108.22 L 78.38 108.22 L 81.87 108.22 L 85.36 108.22 L 88.85 108.22 L 92.34 108.22 L 95.83 108.22 L 99.32 108.22 L 102.81 108.22 L 106.30 108.22 L 109.79 108.22 L 113.28 108.22 L 116.77 109.21 L 120.26 109.12 L 123.74 108.76 L 127.23 108.76 L 130.72 108.76 L 134.21 108.76 L 137.70 108.76 L 141.19 108.76 L 144.68 108.76 L 148.17 108.76 L 151.66 108.76 L 155.15 108.76 L 158.64 108.76 L 162.13 108.76 L 165.62 108.76 L 169.11 108.76 L 172.60 108.76 L 176.09 108.76 L 179.57 108.76 L 183.06 108.76 L 186.55 108.76 L 190.04 108.76 L 193.53 108.76 L 197.02 108.76 L 200.51 108.76 L 204.00 108.76 L 207.49 108.76 L 210.98 108.76 L 214.47 108.76 L 217.96 108.76 L 221.45 108.76 L 224.94 108.76 L 228.43 108.76 L 231.91 108.76 L 235.40 108.76 L 238.89 108.76 L 242.38 108.76 L 245.87 108.76 L 249.36 108.76 L 252.85 108.76 L 256.34 108.76 L 259.83 108.76 L 263.32 108.76 L 266.81 108.76 L 270.30 108.76 L 273.79 108.76 L 277.28 108.76 L 280.77 108.76 L 284.26 108.76 L 287.74 108.76 L 291.23 108.76 L 294.72 108.76 L 298.21 108.76 L 301.70 108.76 L 305.19 108.76 L 308.68 108.76 L 312.17 108.76 L 315.66 108.76 L 319.15 108.76 L 322.64 108.76 L 326.13 108.76 L 329.62 108.76 L 333.11 108.76 L 336.60 108.76 L 340.09 108.76 L 343.57 108.76 L 347.06 108.76 L 350.55 108.76 L 354.04 108.76 L 357.53 108.76 L 361.02 108.76 L 364.51 108.76 L 368.00 108.76 L 371.49 108.76 L 374.98 108.76 L 378.47 108.76 L 381.96 108.76 L 385.45 108.76 L 388.94 108.76 L 392.43 108.76 L 395.91 108.76 L 399.40 108.76 L 402.89 108.76 L 406.38 108.76 L 409.87 108.76 L 413.36 108.76 L 416.85 108.76 L 420.34 108.76 L 423.83 108.76 L 427.32 108.76 L 430.81 108.76 L 434.30 108.76 L 437.79 108.76 L 441.28 108.76 L 444.77 108.76 L 448.26 108.76 L 451.74 108.76 L 455.23 108.76 L 458.72 108.76 L 462.21 108.76 L 465.70 108.76 L 469.19 108.76 L 472.68 108.76 L 476.17 108.76 L 479.66 108.76 L 483.15 108.76 L 486.64 108.76 L 490.13 108.76 L 493.62 108.76 L 497.11 108.76 L 500.60 108.76 L 504.09 108.76 L 507.57 108.76 L 511.06 108.76 L 514.55 108.76 L 518.04 108.76 L 521.53 108.76 L 525.02 108.76 L 528.51 108.76 L 532.00 108.76 L 535.49 108.76 L 538.98 108.94 L 542.47 100.39 L 545.96 81.40 L 549.45 81.40 L 552.94 81.40 L 556.43 81.40 L 559.91 81.40 L 563.40 70.78 L 566.89 70.78 L 570.38 70.78 L 573.87 70.78 L 577.36 70.78 L 580.85 70.78 L 584.34 70.78 L 587.83 70.78 L 591.32 70.78 L 594.81 70.78 L 598.30 70.78 L 601.79 70.78 L 605.28 70.78 L 608.77 70.78 L 612.26 70.78 L 615.74 70.78 L 619.23 70.78 L 622.72 70.78 L 626.21 70.78 L 629.70 70.78 L 633.19 70.78 L 636.68 70.78 L 640.17 70.78 L 643.66 70.78 L 647.15 70.78 L 650.64 70.78 L 654.13 70.78 L 657.62 70.78 L 661.11 70.78 L 664.60 70.78 L 668.09 70.78 L 671.57 70.78 L 675.06 70.78 L 678.55 70.78 L 682.04 70.78 L 685.53 70.78 L 689.02 70.78 L 692.51 70.78 L 696.00 70.78 L 699.49 70.78 L 702.98 70.78 L 706.47 70.78 L 709.96 70.78 L 713.45 70.78 L 716.94 70.78 L 720.43 70.78 L 723.91 70.78 L 727.40 70.78 L 730.89 70.78 L 734.38 70.78 L 737.87 70.78 L 741.36 70.78 L 744.85 70.78 L 748.34 70.78 L 751.83 70.78 L 755.32 70.78 L 758.81 70.78 L 762.30 70.78 L 765.79 70.78 L 769.28 70.78 L 772.77 70.78 L 776.26 70.78 L 779.74 70.78 L 783.23 70.78 L 786.72 70.78 L 790.21 70.78 L 793.70 70.78 L 797.19 70.78 L 800.68 70.78 L 804.17 70.78 L 807.66 70.78 L 811.15 70.78 L 814.64 70.78 L 818.13 70.78 L 821.62 70.78 L 825.11 70.78 L 828.60 70.78 L 832.09 70.78 L 835.57 70.78 L 839.06 70.78 L 842.55 70.78 L 846.04 70.78 L 849.53 70.78 L 853.02 70.78 L 856.51 70.78 L 860.00 70.78" fill="none" stroke="#111827" stroke-width="2"/>
    <circle cx="860.00" cy="70.78" r="3" fill="#111827"/>
    <text x="40.00" y="235.00" font-size="9" fill="#111827" text-anchor="middle" transform="rotate(-45 40.00 235.00)">28.08.2025</text><text x="120.26" y="235.00" font-size="9" fill="#111827" text-anchor="middle" transform="rotate(-45 120.26 235.00)">28.08.2025</text><text x="200.51" y="235.00" font-size="9" fill="#111827" text-anchor="middle" transform="rotate(-45 200.51 235.00)">15.09.2025</text><text x="280.77" y="235.00" font-size="9" fill="#111827" text-anchor="middle" transform="rotate(-45 280.77 235.00)">02.10.2025</text><text x="361.02" y="235.00" font-size="9" fill="#111827" text-anchor="middle" transform="rotate(-45 361.02 235.00)">24.10.2025</text><text x="441.28" y="235.00" font-size="9" fill="#111827" text-anchor="middle" transform="rotate(-45 441.28 235.00)">14.11.2025</text><text x="521.53" y="235.00" font-size="9" fill="#111827" text-anchor="middle" transform="rotate(-45 521.53 235.00)">30.11.2025</text><text x="601.79" y="235.00" font-size="9" fill="#111827" text-anchor="middle" transform="rotate(-45 601.79 235.00)">13.12.2025</text><text x="682.04" y="235.00" font-size="9" fill="#111827" text-anchor="middle" transform="rotate(-45 682.04 235.00)">03.01.2026</text><text x="762.30" y="235.00" font-size="9" fill="#111827" text-anchor="middle" transform="rotate(-45 762.30 235.00)">24.01.2026</text><text x="842.55" y="235.00" font-size="9" fill="#111827" text-anchor="middle" transform="rotate(-45 842.55 235.00)">15.02.2026</text>
  </g>
</svg>