<svg xmlns="http://www.w3.org/2000/svg" width="900" height="290" style="font-family: -apple-system, BlinkMacSystemFont, 'Segoe UI', Helvetica, Arial, sans-serif;">
  <rect width="100%" height="100%" fill="white"/>
  <g>
    <line x1="40" y1="220.00" x2="860" y2="220.00" stroke="#e5e7eb"/><text x="32" y="224.00" font-size="10" fill="#111827" text-anchor="end">0</text><line x1="40" y1="175.00" x2="860" y2="175.00" stroke="#e5e7eb"/><text x="32" y="179.00" font-size="10" fill="#111827" text-anchor="end">500</text><line x1="40" y1="130.00" x2="860" y2="130.00" stroke="#e5e7eb"/><text x="32" y="134.00" font-size="10" fill="#111827" text-anchor="end">1k</text><line x1="40" y1="85.00" x2="860" y2="85.00" stroke="#e5e7eb"/><text x="32" y="89.00" font-size="10" fill="#111827" text-anchor="end">1.5k</text><line x1="40" y1="40.00" x2="860" y2="40.00" stroke="#e5e7eb"/><text x="32" y="44.00" font-size="10" fill="#111827" text-anchor="end">2k</text>
    <line x1="40.00" y1="40" x2="40.00" y2="220" stroke="#e5e7eb" opacity="0.5"/><line x1="118.31" y1="40" x2="118.31" y2="220" stroke="#e5e7eb" opacity="0.5"/><line x1="196.63" y1="40" x2="196.63" y2="220" stroke="#e5e7eb" opacity="0.5"/><line x1="274.94" y1="40" x2="274.94" y2="220" stroke="#e5e7eb" opacity="0.5"/><line x1="353.26" y1="40" x2="353.26" y2="220" stroke="#e5e7eb" opacity="0.5"/><line x1="431.57" y1="40" x2="431.57" y2="220" stroke="#e5e7eb" opacity="0.5"/><line x1="509.89" y1="40" x2="509.89" y2="220" stroke="#e5e7eb" opacity="0.5"/><line x1="588.20" y1="40" x2="588.20" y2="220" stroke="#e5e7eb" opacity="0.5"/><line x1="666.52" y1="40" x2="666.52" y2="220" stroke="#e5e7eb" opacity="0.5"/><line x1="744.83" y1="40" x2="744.83" y2="220" stroke="#e5e7eb" opacity="0.5"/><line x1="823.15" y1="40" x2="823.15" y2="220" stroke="#e5e7eb" opacity="0.5"/>
    <line x1="40" y1="220" x2="860" y2="220" stroke="#9ca3af"/>
    <line x1="40" y1="40"   x2="40"   y2="220" stroke="#9ca3af"/>
    <path d="M 40.00 166.63 L 44.61 166.00 L 49.21 166.00 L 53.82 121.18 L 58.43 115.78 L 63.03 115.78 L 67.64 112.00 L 72.25 108.22 L 76.85 108.22 L 81.46 108.22 L 86.07 108.22 L 90.67 108.22 L 95.28 108.22 L 99.89 108.22 L 104.49 108.22 L 109.10 108.22 L 113.71 108.22 L 118.31 108.22 L 122.92 108.22 L 127.53 108.22 L 132.13 108.22 L 136.74 108.22 L 141.35 109.21 L 145.96 109.12 L 150.56 108.76 L 155.17 108.76 L 159.78 108.76 L 164.38 108.76 L 168.99 108.76 L 173.60 108.76 L 178.20 108.76 L 182.81 108.76 L 187.42 108.76 L 192.02 108.76 L 196.63 108.76 L 201.24 108.76 L 205.84 108.76 L 210.45 108.76 L 215.06 108.76 L 219.66 108.76 L 224.27 108.76 L 228.88 108.76 L 233.48 108.76 L 238.09 108.76 L 242.70 108.76 L 247.30 108.76 L 251.91 108.76 L 256.52 108.76 L 261.12 108.76 L 265.73 108.76 L 270.34 108.76 L 274.94 108.76 L 279.55 108.76 L 284.16 108.76 L 288.76 108.76 L 293.37 108.76 L 297.98 108.76 L 302.58 108.76 L 307.19 108.76 L 311.80 108.76 L 316.40 108.76 L 321.01 108.76 L 325.62 108.76 L 330.22 108.76 L 334.83 108.76 L 339.44 108.76 L 344.04 108.76 L 348.65 108.76 L 353.26 108.76 L 357.87 108.76 L 362.47 108.76 L 367.08 108.76 L 371.69 108.76 L 376.29 108.76 L 380.90 108.76 L 385.51 108.76 L 390.11 108.76 L 394.72 108.76 L 399.33 108.76 L 403.93 108.76 L 408.54 108.76 L 413.15 108.76 L 417.75 108.76 L 422.36 108.76 L 426.97 108.76 L 431.57 108.76 L 436.18 108.76 L 440.79 108.76 L 445.39 108.76 L 450.00 108.76 L 454.61 108.76 L 459.21 108.76 L 463.82 108.76 L 468.43 108.76 L 473.03 108.76 L 477.64 108.76 L 482.25 108.76 L 486.85 108.76 L 491.46 108.76 L 496.07 108.76 L 500.67 108.76 L 505.28 108.76 L 509.89 108.76 L 514.49 108.76 L 519.10 108.76 L 523.71 108.76 L 528.31 108.76 L 532.92 108.76 L 537.53 108.76 L 542.13 108.76 L 546.74 108.76 L 551.35 108.76 L 555.96 108.76 L 560.56 108.76 L 565.17 108.76 L 569.78 108.76 L 574.38 108.76 L 578.99 108.76 L 583.60 108.76 L 588.20 108.76 L 592.81 108.76 L 597.42 108.76 L 602.02 108.76 L 606.63 108.76 L 611.24 108.76 L 615.84 108.76 L 620.45 108.76 L 625.06 108.76 L 629.66 108.76 L 634.27 108.76 L 638.88 108.76 L 643.48 108.76 L 648.09 108.76 L 652.70 108.76 L 657.30 108.76 L 661.91 108.76 L 666.52 108.76 L 671.12 108.76 L 675.73 108.76 L 680.34 108.76 L 684.94 108.76 L 689.55 108.76 L 694.16 108.76 L 698.76 108.94 L 703.37 100.39 L 707.98 81.40 L 712.58 81.40 L 717.19 81.40 L 721.80 81.40 L 726.40 81.40 L 731.01 70.78 L 735.62 70.78 L 740.22 70.78 L 744.83 70.78 L 749.44 70.78 L 754.04 70.78 L 758.65 70.78 L 763.26 70.78 L 767.87 70.78 L 772.47 70.78 L 777.08 70.78 L 781.69 70.78 L 786.29 70.78 L 790.90 70.78 L 795.51 70.78 L 800.11 70.78 L 804.72 70.78 L 809.33 70.78 L 813.93 70.78 L 818.54 70.78 L 823.15 70.78 L 827.75 70.78 L 832.36 70.78 L 836.97 70.78 L 841.57 70.78 L 846.18 70.78 L 850.79 70.78 L 855.39 70.78 L 860.00 70.78" fill="none" stroke="#111827" stroke-width="2"/>
    <circle cx="860.00" cy="70.78" r="3" fill="#111827"/>
    <text x="40.00" y="235.00" font-size="9" fill="#111827" text-anchor="middle" transform="rotate(-45 40.00 235.00)">28.08.2025</text><text x="118.31" y="235.00" font-size="9" fill="#111827" text-anchor="middle" transform="rotate(-45 118.31 235.00)">28.08.2025</text><text x="196.63" y="235.00" font-size="9" fill="#111827" text-anchor="middle" transform="rotate(-45 196.63 235.00)">05.09.2025</text><text x="274.94" y="235.00" font-size="9" fill="#111827" text-anchor="middle" transform="rotate(-45 274.94 235.00)">15.09.2025</text><text x="353.26" y="235.00" font-size="9" fill="#111827" text-anchor="middle" transform="rotate(-45 353.26 235.00)">01.10.2025</text><text x="431.57" y="235.00" font-size="9" fill="#111827" text-anchor="middle" transform="rotate(-45 431.57 235.00)">17.10.2025</text><text x="509.89" y="235.00" font-size="9" fill="#111827" text-anchor="middle" transform="rotate(-45 509.89 235.00)">01.11.2025</text><text x="588.20" y="235.00" font-size="9" fill="#111827" text-anchor="middle" transform="rotate(-45 588.20 235.00)">18.11.2025</text><text x="666.52" y="235.00" font-size="9" fill="#111827" text-anchor="middle" transform="rotate(-45 666.52 235.00)">28.11.2025</text><text x="744.83" y="235.00" font-size="9" fill="#111827" text-anchor="middle" transform="rotate(-45 744.83 235.00)">10.12.2025</text><text x="823.15" y="235.00" font-size="9" fill="#111827" text-anchor="middle" transform="rotate(-45 823.15 235.00)">21.12.2025</text>
  </g>
</svg>