<svg xmlns="http://www.w3.org/2000/svg" width="900" height="290" style="font-family: -apple-system, BlinkMacSystemFont, 'Segoe UI', Helvetica, Arial, sans-serif;">
  <rect width="100%" height="100%" fill="white"/>
  <g>
    <line x1="40" y1="220.00" x2="860" y2="220.00" stroke="#e5e7eb"/><text x="32" y="224.00" font-size="10" fill="#111827" text-anchor="end">0</text><line x1="40" y1="175.00" x2="860" y2="175.00" stroke="#e5e7eb"/><text x="32" y="179.00" font-size="10" fill="#111827" text-anchor="end">500</text><line x1="40" y1="130.00" x2="860" y2="130.00" stroke="#e5e7eb"/><text x="32" y="134.00" font-size="10" fill="#111827" text-anchor="end">1k</text><line x1="40" y1="85.00" x2="860" y2="85.00" stroke="#e5e7eb"/><text x="32" y="89.00" font-size="10" fill="#111827" text-anchor="end">1.5k</text><line x1="40" y1="40.00" x2="860" y2="40.00" stroke="#e5e7eb"/><text x="32" y="44.00" font-size="10" fill="#111827" text-anchor="end">2k</text>
    <line x1="40.00" y1="40" x2="40.00" y2="220" stroke="#e5e7eb" opacity="0.5"/><line x1="120.00" y1="40" x2="120.00" y2="220" stroke="#e5e7eb" opacity="0.5"/><line x1="200.00" y1="40" x2="200.00" y2="220" stroke="#e5e7eb" opacity="0.5"/><line x1="280.00" y1="40" x2="280.00" y2="220" stroke="#e5e7eb" opacity="0.5"/><line x1="360.00" y1="40" x2="360.00" y2="220" stroke="#e5e7eb" opacity="0.5"/><line x1="440.00" y1="40" x2="440.00" y2="220" stroke="#e5e7eb" opacity="0.5"/><line x1="520.00" y1="40" x2="520.00" y2="220" stroke="#e5e7eb" opacity="0.5"/><line x1="600.00" y1="40" x2="600.00" y2="220" stroke="#e5e7eb" opacity="0.5"/><line x1="680.00" y1="40" x2="680.00" y2="220" stroke="#e5e7eb" opacity="0.5"/><line x1="760.00" y1="40" x2="760.00" y2="220" stroke="#e5e7eb" opacity="0.5"/><line x1="840.00" y1="40" x2="840.00" y2="220" stroke="#e5e7eb" opacity="0.5"/>
    <line x1="40" y1="220" x2="860" y2="220" stroke="#9ca3af"/>
    <line x1="40" y1="40"   x2="40"   y2="220" stroke="#9ca3af"/>
    <path d="M 40.00 166.63 L 46.67 166.00 L 53.33 166.00 L 60.00 121.18 L 66.67 115.78 L 73.33 115.78 L 80.00 112.00 L 86.67 108.22 L 93.33 108.22 L 100.00 108.22 L 106.67 108.22 L 113.33 108.22 L 120.00 108.22 L 126.67 108.22 L 133.33 108.22 L 140.00 108.22 L 146.67 108.22 L 153.33 108.22 L 160.00 108.22 L 166.67 108.22 L 173.33 108.22 L 180.00 108.22 L 186.67 109.21 L 193.33 109.12 L 200.00 108.76 L 206.67 108.76 L 213.33 108.76 L 220.00 108.76 L 226.67 108.76 L 233.33 108.76 L 240.00 108.76 L 246.67 108.76 L 253.33 108.76 L 260.00 108.76 L 266.67 108.76 L 273.33 108.76 L 280.00 108.76 L 286.67 108.76 L 293.33 108.76 L 300.00 108.76 L 306.67 108.76 L 313.33 108.76 L 320.00 108.76 L 326.67 108.76 L 333.33 108.76 L 340.00 108.76 L 346.67 108.76 L 353.33 108.76 L 360.00 108.76 L 366.67 108.76 L 373.33 108.76 L 380.00 108.76 L 386.67 108.76 L 393.33 108.76 L 400.00 108.76 L 406.67 108.76 L 413.33 108.76 L 420.00 108.76 L 426.67 108.76 L 433.33 108.76 L 440.00 108.76 L 446.67 108.76 L 453.33 108.76 L 460.00 108.76 L 466.67 108.76 L 473.33 108.76 L 480.00 108.76 L 486.67 108.76 L 493.33 108.76 L 500.00 108.76 L 506.67 108.76 L 513.33 108.76 L 520.00 108.76 L 526.67 108.76 L 533.33 108.76 L 540.00 108.76 L 546.67 108.76 L 553.33 108.76 L 560.00 108.76 L 566.67 108.76 L 573.33 108.76 L 580.00 108.76 L 586.67 108.76 L 593.33 108.76 L 600.00 108.76 L 606.67 108.76 L 613.33 108.76 L 620.00 108.76 L 626.67 108.76 L 633.33 108.76 L 640.00 108.76 L 646.67 108.76 L 653.33 108.76 L 660.00 108.76 L 666.67 108.76 L 673.33 108.76 L 680.00 108.76 L 686.67 108.76 L 693.33 108.76 L 700.00 108.76 L 706.67 108.76 L 713.33 108.76 L 720.00 108.76 L 726.67 108.76 L 733.33 108.76 L 740.00 108.76 L 746.67 108.76 L 753.33 108.76 L 760.00 108.76 L 766.67 108.76 L 773.33 108.76 L 780.00 108.76 L 786.67 108.76 L 793.33 108.76 L 800.00 108.76 L 806.67 108.76 L 813.33 108.76 L 820.00 108.76 L 826.67 108.76 L 833.33 108.76 L 840.00 108.76 L 846.67 108.76 L 853.33 108.76 L 860.00 108.76" fill="none" stroke="#111827" stroke-width="2"/>
    <circle cx="860.00" cy="108.76" r="3" fill="#111827"/>
    <text x="40.00" y="235.00" font-size="9" fill="#111827" text-anchor="middle" transform="rotate(-45 40.00 235.00)">28.08.2025</text><text x="120.00" y="235.00" font-size="9" fill="#111827" text-anchor="middle" transform="rotate(-45 120.00 235.00)">28.08.2025</text><text x="200.00" y="235.00" font-size="9" fill="#111827" text-anchor="middle" transform="rotate(-45 200.00 235.00)">28.08.2025</text><text x="280.00" y="235.00" font-size="9" fill="#111827" text-anchor="middle" transform="rotate(-45 280.00 235.00)">07.09.2025</text><text x="360.00" y="235.00" font-size="9" fill="#111827" text-anchor="middle" transform="rotate(-45 360.00 235.00)">15.09.2025</text><text x="440.00" y="235.00" font-size="9" fill="#111827" text-anchor="middle" transform="rotate(-45 440.00 235.00)">25.09.2025</text><text x="520.00" y="235.00" font-size="9" fill="#111827" text-anchor="middle" transform="rotate(-45 520.00 235.00)">07.10.2025</text><text x="600.00" y="235.00" font-size="9" fill="#111827" text-anchor="middle" transform="rotate(-45 600.00 235.00)">19.10.2025</text><text x="680.00" y="235.00" font-size="9" fill="#111827" text-anchor="middle" transform="rotate(-45 680.00 235.00)">31.10.2025</text><text x="760.00" y="235.00" font-size="9" fill="#111827" text-anchor="middle" transform="rotate(-45 760.00 235.00)">12.11.2025</text><text x="840.00" y="235.00" font-size="9" fill="#111827" text-anchor="middle" transform="rotate(-45 840.00 235.00)">24.11.2025</text>
  </g>
</svg>