<svg xmlns="http://www.w3.org/2000/svg" width="900" height="290" style="font-family: -apple-system, BlinkMacSystemFont, 'Segoe UI', Helvetica, Arial, sans-serif;">
  <rect width="100%" height="100%" fill="#0d1117"/>
  <g>
    <line x1="40" y1="220.00" x2="860" y2="220.00" stroke="#30363d"/><text x="32" y="224.00" font-size="10" fill="#c9d1d9" text-anchor="end">0</text><line x1="40" y1="175.00" x2="860" y2="175.00" stroke="#30363d"/><text x="32" y="179.00" font-size="10" fill="#c9d1d9" text-anchor="end">500</text><line x1="40" y1="130.00" x2="860" y2="130.00" stroke="#30363d"/><text x="32" y="134.00" font-size="10" fill="#c9d1d9" text-anchor="end">1k</text><line x1="40" y1="85.00" x2="860" y2="85.00" stroke="#30363d"/><text x="32" y="89.00" font-size="10" fill="#c9d1d9" text-anchor="end">1.5k</text><line x1="40" y1="40.00" x2="860" y2="40.00" stroke="#30363d"/><text x="32" y="44.00" font-size="10" fill="#c9d1d9" text-anchor="end">2k</text>
    <line x1="40.00" y1="40" x2="40.00" y2="220" stroke="#30363d" opacity="0.5"/><line x1="120.66" y1="40" x2="120.66" y2="220" stroke="#30363d" opacity="0.5"/><line x1="201.31" y1="40" x2="201.31" y2="220" stroke="#30363d" opacity="0.5"/><line x1="281.97" y1="40" x2="281.97" y2="220" stroke="#30363d" opacity="0.5"/><line x1="362.62" y1="40" x2="362.62" y2="220" stroke="#30363d" opacity="0.5"/><line x1="443.28" y1="40" x2="443.28" y2="220" stroke="#30363d" opacity="0.5"/><line x1="523.93" y1="40" x2="523.93" y2="220" stroke="#30363d" opacity="0.5"/><line x1="604.59" y1="40" x2="604.59" y2="220" stroke="#30363d" opacity="0.5"/><line x1="685.25" y1="40" x2="685.25" y2="220" stroke="#30363d" opacity="0.5"/><line x1="765.90" y1="40" x2="765.90" y2="220" stroke="#30363d" opacity="0.5"/><line x1="846.56" y1="40" x2="846.56" y2="220" stroke="#30363d" opacity="0.5"/>
    <line x1="40" y1="220" x2="860" y2="220" stroke="#30363d"/>
    <line x1="40" y1="40"   x2="40"   y2="220" stroke="#30363d"/>
    <path d="M 40.00 166.63 L 46.72 166.00 L 53.44 166.00 L 60.16 121.18 L 66.89 115.78 L 73.61 115.78 L 80.33 112.00 L 87.05 108.22 L 93.77 108.22 L 100.49 108.22 L 107.21 108.22 L 113.93 108.22 L 120.66 108.22 L 127.38 108.22 L 134.10 108.22 L 140.82 108.22 L 147.54 108.22 L 154.26 108.22 L 160.98 108.22 L 167.70 108.22 L 174.43 108.22 L 181.15 108.22 L 187.87 109.21 L 194.59 109.12 L 201.31 108.76 L 208.03 108.76 L 214.75 108.76 L 221.48 108.76 L 228.20 108.76 L 234.92 108.76 L 241.64 108.76 L 248.36 108.76 L 255.08 108.76 L 261.80 108.76 L 268.52 108.76 L 275.25 108.76 L 281.97 108.76 L 288.69 108.76 L 295.41 108.76 L 302.13 108.76 L 308.85 108.76 L 315.57 108.76 L 322.30 108.76 L 329.02 108.76 L 335.74 108.76 L 342.46 108.76 L 349.18 108.76 L 355.90 108.76 L 362.62 108.76 L 369.34 108.76 L 376.07 108.76 L 382.79 108.76 L 389.51 108.76 L 396.23 108.76 L 402.95 108.76 L 409.67 108.76 L 416.39 108.76 L 423.11 108.76 L 429.84 108.76 L 436.56 108.76 L 443.28 108.76 L 450.00 108.76 L 456.72 108.76 L 463.44 108.76 L 470.16 108.76 L 476.89 108.76 L 483.61 108.76 L 490.33 108.76 L 497.05 108.76 L 503.77 108.76 L 510.49 108.76 L 517.21 108.76 L 523.93 108.76 L 530.66 108.76 L 537.38 108.76 L 544.10 108.76 L 550.82 108.76 L 557.54 108.76 L 564.26 108.76 L 570.98 108.76 L 577.70 108.76 L 584.43 108.76 L 591.15 108.76 L 597.87 108.76 L 604.59 108.76 L 611.31 108.76 L 618.03 108.76 L 624.75 108.76 L 631.48 108.76 L 638.20 108.76 L 644.92 108.76 L 651.64 108.76 L 658.36 108.76 L 665.08 108.76 L 671.80 108.76 L 678.52 108.76 L 685.25 108.76 L 691.97 108.76 L 698.69 108.76 L 705.41 108.76 L 712.13 108.76 L 718.85 108.76 L 725.57 108.76 L 732.30 108.76 L 739.02 108.76 L 745.74 108.76 L 752.46 108.76 L 759.18 108.76 L 765.90 108.76 L 772.62 108.76 L 779.34 108.76 L 786.07 108.76 L 792.79 108.76 L 799.51 108.76 L 806.23 108.76 L 812.95 108.76 L 819.67 108.76 L 826.39 108.76 L 833.11 108.76 L 839.84 108.76 L 846.56 108.76 L 853.28 108.76 L 860.00 108.76" fill="none" stroke="#3fb950" stroke-width="2"/>
    <circle cx="860.00" cy="108.76" r="3" fill="#3fb950"/>
    <text x="40.00" y="235.00" font-size="9" fill="#c9d1d9" text-anchor="middle" transform="rotate(-45 40.00 235.00)">28.08.2025</text><text x="120.66" y="235.00" font-size="9" fill="#c9d1d9" text-anchor="middle" transform="rotate(-45 120.66 235.00)">28.08.2025</text><text x="201.31" y="235.00" font-size="9" fill="#c9d1d9" text-anchor="middle" transform="rotate(-45 201.31 235.00)">28.08.2025</text><text x="281.97" y="235.00" font-size="9" fill="#c9d1d9" text-anchor="middle" transform="rotate(-45 281.97 235.00)">07.09.2025</text><text x="362.62" y="235.00" font-size="9" fill="#c9d1d9" text-anchor="middle" transform="rotate(-45 362.62 235.00)">15.09.2025</text><text x="443.28" y="235.00" font-size="9" fill="#c9d1d9" text-anchor="middle" transform="rotate(-45 443.28 235.00)">25.09.2025</text><text x="523.93" y="235.00" font-size="9" fill="#c9d1d9" text-anchor="middle" transform="rotate(-45 523.93 235.00)">07.10.2025</text><text x="604.59" y="235.00" font-size="9" fill="#c9d1d9" text-anchor="middle" transform="rotate(-45 604.59 235.00)">19.10.2025</text><text x="685.25" y="235.00" font-size="9" fill="#c9d1d9" text-anchor="middle" transform="rotate(-45 685.25 235.00)">31.10.2025</text><text x="765.90" y="235.00" font-size="9" fill="#c9d1d9" text-anchor="middle" transform="rotate(-45 765.90 235.00)">12.11.2025</text><text x="846.56" y="235.00" font-size="9" fill="#c9d1d9" text-anchor="middle" transform="rotate(-45 846.56 235.00)">24.11.2025</text>
  </g>
</svg>