<svg xmlns="http://www.w3.org/2000/svg" width="900" height="290" style="font-family: -apple-system, BlinkMacSystemFont, 'Segoe UI', Helvetica, Arial, sans-serif;">
  <rect width="100%" height="100%" fill="white"/>
  <g>
    <line x1="40" y1="220.00" x2="860" y2="220.00" stroke="#e5e7eb"/><text x="32" y="224.00" font-size="10" fill="#111827" text-anchor="end">0</text><line x1="40" y1="175.00" x2="860" y2="175.00" stroke="#e5e7eb"/><text x="32" y="179.00" font-size="10" fill="#111827" text-anchor="end">500</text><line x1="40" y1="130.00" x2="860" y2="130.00" stroke="#e5e7eb"/><text x="32" y="134.00" font-size="10" fill="#111827" text-anchor="end">1k</text><line x1="40" y1="85.00" x2="860" y2="85.00" stroke="#e5e7eb"/><text x="32" y="89.00" font-size="10" fill="#111827" text-anchor="end">1.5k</text><line x1="40" y1="40.00" x2="860" y2="40.00" stroke="#e5e7eb"/><text x="32" y="44.00" font-size="10" fill="#111827" text-anchor="end">2k</text>
    <line x1="40.00" y1="40" x2="40.00" y2="220" stroke="#e5e7eb" opacity="0.5"/><line x1="121.59" y1="40" x2="121.59" y2="220" stroke="#e5e7eb" opacity="0.5"/><line x1="203.18" y1="40" x2="203.18" y2="220" stroke="#e5e7eb" opacity="0.5"/><line x1="284.78" y1="40" x2="284.78" y2="220" stroke="#e5e7eb" opacity="0.5"/><line x1="366.37" y1="40" x2="366.37" y2="220" stroke="#e5e7eb" opacity="0.5"/><line x1="447.96" y1="40" x2="447.96" y2="220" stroke="#e5e7eb" opacity="0.5"/><line x1="529.55" y1="40" x2="529.55" y2="220" stroke="#e5e7eb" opacity="0.5"/><line x1="611.14" y1="40" x2="611.14" y2="220" stroke="#e5e7eb" opacity="0.5"/><line x1="692.74" y1="40" x2="692.74" y2="220" stroke="#e5e7eb" opacity="0.5"/><line x1="774.33" y1="40" x2="774.33" y2="220" stroke="#e5e7eb" opacity="0.5"/><line x1="855.92" y1="40" x2="855.92" y2="220" stroke="#e5e7eb" opacity="0.5"/>
    <line x1="40" y1="220" x2="860" y2="220" stroke="#9ca3af"/>
    <line x1="40" y1="40"   x2="40"   y2="220" stroke="#9ca3af"/>
    <path d="M 40.00 166.63 L 44.08 166.00 L 48.16 166.00 L 52.24 121.18 L 56.32 115.78 L 60.40 115.78 L 64.48 112.00 L 68.56 108.22 L 72.64 108.22 L 76.72 108.22 L 80.80 108.22 L 84.88 108.22 L 88.96 108.22 L 93.03 108.22 L 97.11 108.22 L 101.19 108.22 L 105.27 108.22 L 109.35 108.22 L 113.43 108.22 L 117.51 108.22 L 121.59 108.22 L 125.67 108.22 L 129.75 109.21 L 133.83 109.12 L 137.91 108.76 L 141.99 108.76 L 146.07 108.76 L 150.15 108.76 L 154.23 108.76 L 158.31 108.76 L 162.39 108.76 L 166.47 108.76 L 170.55 108.76 L 174.63 108.76 L 178.71 108.76 L 182.79 108.76 L 186.87 108.76 L 190.95 108.76 L 195.02 108.76 L 199.10 108.76 L 203.18 108.76 L 207.26 108.76 L 211.34 108.76 L 215.42 108.76 L 219.50 108.76 L 223.58 108.76 L 227.66 108.76 L 231.74 108.76 L 235.82 108.76 L 239.90 108.76 L 243.98 108.76 L 248.06 108.76 L 252.14 108.76 L 256.22 108.76 L 260.30 108.76 L 264.38 108.76 L 268.46 108.76 L 272.54 108.76 L 276.62 108.76 L 280.70 108.76 L 284.78 108.76 L 288.86 108.76 L 292.94 108.76 L 297.01 108.76 L 301.09 108.76 L 305.17 108.76 L 309.25 108.76 L 313.33 108.76 L 317.41 108.76 L 321.49 108.76 L 325.57 108.76 L 329.65 108.76 L 333.73 108.76 L 337.81 108.76 L 341.89 108.76 L 345.97 108.76 L 350.05 108.76 L 354.13 108.76 L 358.21 108.76 L 362.29 108.76 L 366.37 108.76 L 370.45 108.76 L 374.53 108.76 L 378.61 108.76 L 382.69 108.76 L 386.77 108.76 L 390.85 108.76 L 394.93 108.76 L 399.00 108.76 L 403.08 108.76 L 407.16 108.76 L 411.24 108.76 L 415.32 108.76 L 419.40 108.76 L 423.48 108.76 L 427.56 108.76 L 431.64 108.76 L 435.72 108.76 L 439.80 108.76 L 443.88 108.76 L 447.96 108.76 L 452.04 108.76 L 456.12 108.76 L 460.20 108.76 L 464.28 108.76 L 468.36 108.76 L 472.44 108.76 L 476.52 108.76 L 480.60 108.76 L 484.68 108.76 L 488.76 108.76 L 492.84 108.76 L 496.92 108.76 L 501.00 108.76 L 505.07 108.76 L 509.15 108.76 L 513.23 108.76 L 517.31 108.76 L 521.39 108.76 L 525.47 108.76 L 529.55 108.76 L 533.63 108.76 L 537.71 108.76 L 541.79 108.76 L 545.87 108.76 L 549.95 108.76 L 554.03 108.76 L 558.11 108.76 L 562.19 108.76 L 566.27 108.76 L 570.35 108.76 L 574.43 108.76 L 578.51 108.76 L 582.59 108.76 L 586.67 108.76 L 590.75 108.76 L 594.83 108.76 L 598.91 108.76 L 602.99 108.76 L 607.06 108.76 L 611.14 108.76 L 615.22 108.76 L 619.30 108.76 L 623.38 108.94 L 627.46 100.39 L 631.54 81.40 L 635.62 81.40 L 639.70 81.40 L 643.78 81.40 L 647.86 81.40 L 651.94 70.78 L 656.02 70.78 L 660.10 70.78 L 664.18 70.78 L 668.26 70.78 L 672.34 70.78 L 676.42 70.78 L 680.50 70.78 L 684.58 70.78 L 688.66 70.78 L 692.74 70.78 L 696.82 70.78 L 700.90 70.78 L 704.98 70.78 L 709.05 70.78 L 713.13 70.78 L 717.21 70.78 L 721.29 70.78 L 725.37 70.78 L 729.45 70.78 L 733.53 70.78 L 737.61 70.78 L 741.69 70.78 L 745.77 70.78 L 749.85 70.78 L 753.93 70.78 L 758.01 70.78 L 762.09 70.78 L 766.17 70.78 L 770.25 70.78 L 774.33 70.78 L 778.41 70.78 L 782.49 70.78 L 786.57 70.78 L 790.65 70.78 L 794.73 70.78 L 798.81 70.78 L 802.89 70.78 L 806.97 70.78 L 811.04 70.78 L 815.12 70.78 L 819.20 70.78 L 823.28 70.78 L 827.36 70.78 L 831.44 70.78 L 835.52 70.78 L 839.60 70.78 L 843.68 70.78 L 847.76 70.78 L 851.84 70.78 L 855.92 70.78 L 860.00 70.78" fill="none" stroke="#111827" stroke-width="2"/>
    <circle cx="860.00" cy="70.78" r="3" fill="#111827"/>
    <text x="40.00" y="235.00" font-size="9" fill="#111827" text-anchor="middle" transform="rotate(-45 40.00 235.00)">28.08.2025</text><text x="121.59" y="235.00" font-size="9" fill="#111827" text-anchor="middle" transform="rotate(-45 121.59 235.00)">28.08.2025</text><text x="203.18" y="235.00" font-size="9" fill="#111827" text-anchor="middle" transform="rotate(-45 203.18 235.00)">09.09.2025</text><text x="284.78" y="235.00" font-size="9" fill="#111827" text-anchor="middle" transform="rotate(-45 284.78 235.00)">23.09.2025</text><text x="366.37" y="235.00" font-size="9" fill="#111827" text-anchor="middle" transform="rotate(-45 366.37 235.00)">12.10.2025</text><text x="447.96" y="235.00" font-size="9" fill="#111827" text-anchor="middle" transform="rotate(-45 447.96 235.00)">30.10.2025</text><text x="529.55" y="235.00" font-size="9" fill="#111827" text-anchor="middle" transform="rotate(-45 529.55 235.00)">19.11.2025</text><text x="611.14" y="235.00" font-size="9" fill="#111827" text-anchor="middle" transform="rotate(-45 611.14 235.00)">02.12.2025</text><text x="692.74" y="235.00" font-size="9" fill="#111827" text-anchor="middle" transform="rotate(-45 692.74 235.00)">12.12.2025</text><text x="774.33" y="235.00" font-size="9" fill="#111827" text-anchor="middle" transform="rotate(-45 774.33 235.00)">30.12.2025</text><text x="855.92" y="235.00" font-size="9" fill="#111827" text-anchor="middle" transform="rotate(-45 855.92 235.00)">17.01.2026</text>
  </g>
</svg>