<svg xmlns="http://www.w3.org/2000/svg" width="900" height="290" style="font-family: -apple-system, BlinkMacSystemFont, 'Segoe UI', Helvetica, Arial, sans-serif;">
  <rect width="100%" height="100%" fill="#0d1117"/>
  <g>
    <line x1="40" y1="220.00" x2="860" y2="220.00" stroke="#30363d"/><text x="32" y="224.00" font-size="10" fill="#c9d1d9" text-anchor="end">0</text><line x1="40" y1="175.00" x2="860" y2="175.00" stroke="#30363d"/><text x="32" y="179.00" font-size="10" fill="#c9d1d9" text-anchor="end">500</text><line x1="40" y1="130.00" x2="860" y2="130.00" stroke="#30363d"/><text x="32" y="134.00" font-size="10" fill="#c9d1d9" text-anchor="end">1k</text><line x1="40" y1="85.00" x2="860" y2="85.00" stroke="#30363d"/><text x="32" y="89.00" font-size="10" fill="#c9d1d9" text-anchor="end">1.5k</text><line x1="40" y1="40.00" x2="860" y2="40.00" stroke="#30363d"/><text x="32" y="44.00" font-size="10" fill="#c9d1d9" text-anchor="end">2k</text>
    <line x1="40.00" y1="40" x2="40.00" y2="220" stroke="#30363d" opacity="0.5"/><line x1="116.44" y1="40" x2="116.44" y2="220" stroke="#30363d" opacity="0.5"/><line x1="192.88" y1="40" x2="192.88" y2="220" stroke="#30363d" opacity="0.5"/><line x1="269.32" y1="40" x2="269.32" y2="220" stroke="#30363d" opacity="0.5"/><line x1="345.76" y1="40" x2="345.76" y2="220" stroke="#30363d" opacity="0.5"/><line x1="422.20" y1="40" x2="422.20" y2="220" stroke="#30363d" opacity="0.5"/><line x1="498.64" y1="40" x2="498.64" y2="220" stroke="#30363d" opacity="0.5"/><line x1="575.08" y1="40" x2="575.08" y2="220" stroke="#30363d" opacity="0.5"/><line x1="651.53" y1="40" x2="651.53" y2="220" stroke="#30363d" opacity="0.5"/><line x1="727.97" y1="40" x2="727.97" y2="220" stroke="#30363d" opacity="0.5"/><line x1="804.41" y1="40" x2="804.41" y2="220" stroke="#30363d" opacity="0.5"/>
    <line x1="40" y1="220" x2="860" y2="220" stroke="#30363d"/>
    <line x1="40" y1="40"   x2="40"   y2="220" stroke="#30363d"/>
    <path d="M 40.00 166.63 L 46.95 166.00 L 53.90 166.00 L 60.85 121.18 L 67.80 115.78 L 74.75 115.78 L 81.69 112.00 L 88.64 108.22 L 95.59 108.22 L 102.54 108.22 L 109.49 108.22 L 116.44 108.22 L 123.39 108.22 L 130.34 108.22 L 137.29 108.22 L 144.24 108.22 L 151.19 108.22 L 158.14 108.22 L 165.08 108.22 L 172.03 108.22 L 178.98 108.22 L 185.93 108.22 L 192.88 109.21 L 199.83 109.12 L 206.78 108.76 L 213.73 108.76 L 220.68 108.76 L 227.63 108.76 L 234.58 108.76 L 241.53 108.76 L 248.47 108.76 L 255.42 108.76 L 262.37 108.76 L 269.32 108.76 L 276.27 108.76 L 283.22 108.76 L 290.17 108.76 L 297.12 108.76 L 304.07 108.76 L 311.02 108.76 L 317.97 108.76 L 324.92 108.76 L 331.86 108.76 L 338.81 108.76 L 345.76 108.76 L 352.71 108.76 L 359.66 108.76 L 366.61 108.76 L 373.56 108.76 L 380.51 108.76 L 387.46 108.76 L 394.41 108.76 L 401.36 108.76 L 408.31 108.76 L 415.25 108.76 L 422.20 108.76 L 429.15 108.76 L 436.10 108.76 L 443.05 108.76 L 450.00 108.76 L 456.95 108.76 L 463.90 108.76 L 470.85 108.76 L 477.80 108.76 L 484.75 108.76 L 491.69 108.76 L 498.64 108.76 L 505.59 108.76 L 512.54 108.76 L 519.49 108.76 L 526.44 108.76 L 533.39 108.76 L 540.34 108.76 L 547.29 108.76 L 554.24 108.76 L 561.19 108.76 L 568.14 108.76 L 575.08 108.76 L 582.03 108.76 L 588.98 108.76 L 595.93 108.76 L 602.88 108.76 L 609.83 108.76 L 616.78 108.76 L 623.73 108.76 L 630.68 108.76 L 637.63 108.76 L 644.58 108.76 L 651.53 108.76 L 658.47 108.76 L 665.42 108.76 L 672.37 108.76 L 679.32 108.76 L 686.27 108.76 L 693.22 108.76 L 700.17 108.76 L 707.12 108.76 L 714.07 108.76 L 721.02 108.76 L 727.97 108.76 L 734.92 108.76 L 741.86 108.76 L 748.81 108.76 L 755.76 108.76 L 762.71 108.76 L 769.66 108.76 L 776.61 108.76 L 783.56 108.76 L 790.51 108.76 L 797.46 108.76 L 804.41 108.76 L 811.36 108.76 L 818.31 108.76 L 825.25 108.76 L 832.20 108.76 L 839.15 108.76 L 846.10 108.76 L 853.05 108.76 L 860.00 108.76" fill="none" stroke="#3fb950" stroke-width="2"/>
    <circle cx="860.00" cy="108.76" r="3" fill="#3fb950"/>
    <text x="40.00" y="235.00" font-size="9" fill="#c9d1d9" text-anchor="middle" transform="rotate(-45 40.00 235.00)">28.08.2025</text><text x="116.44" y="235.00" font-size="9" fill="#c9d1d9" text-anchor="middle" transform="rotate(-45 116.44 235.00)">28.08.2025</text><text x="192.88" y="235.00" font-size="9" fill="#c9d1d9" text-anchor="middle" transform="rotate(-45 192.88 235.00)">28.08.2025</text><text x="269.32" y="235.00" font-size="9" fill="#c9d1d9" text-anchor="middle" transform="rotate(-45 269.32 235.00)">04.09.2025</text><text x="345.76" y="235.00" font-size="9" fill="#c9d1d9" text-anchor="middle" transform="rotate(-45 345.76 235.00)">13.09.2025</text><text x="422.20" y="235.00" font-size="9" fill="#c9d1d9" text-anchor="middle" transform="rotate(-45 422.20 235.00)">20.09.2025</text><text x="498.64" y="235.00" font-size="9" fill="#c9d1d9" text-anchor="middle" transform="rotate(-45 498.64 235.00)">01.10.2025</text><text x="575.08" y="235.00" font-size="9" fill="#c9d1d9" text-anchor="middle" transform="rotate(-45 575.08 235.00)">12.10.2025</text><text x="651.53" y="235.00" font-size="9" fill="#c9d1d9" text-anchor="middle" transform="rotate(-45 651.53 235.00)">23.10.2025</text><text x="727.97" y="235.00" font-size="9" fill="#c9d1d9" text-anchor="middle" transform="rotate(-45 727.97 235.00)">03.11.2025</text><text x="804.41" y="235.00" font-size="9" fill="#c9d1d9" text-anchor="middle" transform="rotate(-45 804.41 235.00)">14.11.2025</text>
  </g>
</svg>