<svg xmlns="http://www.w3.org/2000/svg" width="900" height="290" style="font-family: -apple-system, BlinkMacSystemFont, 'Segoe UI', Helvetica, Arial, sans-serif;">
  <rect width="100%" height="100%" fill="#0d1117"/>
  <g>
    <line x1="40" y1="220.00" x2="860" y2="220.00" stroke="#30363d"/><text x="32" y="224.00" font-size="10" fill="#c9d1d9" text-anchor="end">0</text><line x1="40" y1="175.00" x2="860" y2="175.00" stroke="#30363d"/><text x="32" y="179.00" font-size="10" fill="#c9d1d9" text-anchor="end">500</text><line x1="40" y1="130.00" x2="860" y2="130.00" stroke="#30363d"/><text x="32" y="134.00" font-size="10" fill="#c9d1d9" text-anchor="end">1k</text><line x1="40" y1="85.00" x2="860" y2="85.00" stroke="#30363d"/><text x="32" y="89.00" font-size="10" fill="#c9d1d9" text-anchor="end">1.5k</text><line x1="40" y1="40.00" x2="860" y2="40.00" stroke="#30363d"/><text x="32" y="44.00" font-size="10" fill="#c9d1d9" text-anchor="end">2k</text>
    <line x1="40.00" y1="40" x2="40.00" y2="220" stroke="#30363d" opacity="0.5"/><line x1="120.49" y1="40" x2="120.49" y2="220" stroke="#30363d" opacity="0.5"/><line x1="200.98" y1="40" x2="200.98" y2="220" stroke="#30363d" opacity="0.5"/><line x1="281.47" y1="40" x2="281.47" y2="220" stroke="#30363d" opacity="0.5"/><line x1="361.96" y1="40" x2="361.96" y2="220" stroke="#30363d" opacity="0.5"/><line x1="442.45" y1="40" x2="442.45" y2="220" stroke="#30363d" opacity="0.5"/><line x1="522.94" y1="40" x2="522.94" y2="220" stroke="#30363d" opacity="0.5"/><line x1="603.44" y1="40" x2="603.44" y2="220" stroke="#30363d" opacity="0.5"/><line x1="683.93" y1="40" x2="683.93" y2="220" stroke="#30363d" opacity="0.5"/><line x1="764.42" y1="40" x2="764.42" y2="220" stroke="#30363d" opacity="0.5"/><line x1="844.91" y1="40" x2="844.91" y2="220" stroke="#30363d" opacity="0.5"/>
    <line x1="40" y1="220" x2="860" y2="220" stroke="#30363d"/>
    <line x1="40" y1="40"   x2="40"   y2="220" stroke="#30363d"/>
    <path d="M 40.00 166.63 L 45.03 166.00 L 50.06 166.00 L 55.09 121.18 L 60.12 115.78 L 65.15 115.78 L 70.18 112.00 L 75.21 108.22 L 80.25 108.22 L 85.28 108.22 L 90.31 108.22 L 95.34 108.22 L 100.37 108.22 L 105.40 108.22 L 110.43 108.22 L 115.46 108.22 L 120.49 108.22 L 125.52 108.22 L 130.55 108.22 L 135.58 108.22 L 140.61 108.22 L 145.64 108.22 L 150.67 109.21 L 155.71 109.12 L 160.74 108.76 L 165.77 108.76 L 170.80 108.76 L 175.83 108.76 L 180.86 108.76 L 185.89 108.76 L 190.92 108.76 L 195.95 108.76 L 200.98 108.76 L 206.01 108.76 L 211.04 108.76 L 216.07 108.76 L 221.10 108.76 L 226.13 108.76 L 231.17 108.76 L 236.20 108.76 L 241.23 108.76 L 246.26 108.76 L 251.29 108.76 L 256.32 108.76 L 261.35 108.76 L 266.38 108.76 L 271.41 108.76 L 276.44 108.76 L 281.47 108.76 L 286.50 108.76 L 291.53 108.76 L 296.56 108.76 L 301.60 108.76 L 306.63 108.76 L 311.66 108.76 L 316.69 108.76 L 321.72 108.76 L 326.75 108.76 L 331.78 108.76 L 336.81 108.76 L 341.84 108.76 L 346.87 108.76 L 351.90 108.76 L 356.93 108.76 L 361.96 108.76 L 366.99 108.76 L 372.02 108.76 L 377.06 108.76 L 382.09 108.76 L 387.12 108.76 L 392.15 108.76 L 397.18 108.76 L 402.21 108.76 L 407.24 108.76 L 412.27 108.76 L 417.30 108.76 L 422.33 108.76 L 427.36 108.76 L 432.39 108.76 L 437.42 108.76 L 442.45 108.76 L 447.48 108.76 L 452.52 108.76 L 457.55 108.76 L 462.58 108.76 L 467.61 108.76 L 472.64 108.76 L 477.67 108.76 L 482.70 108.76 L 487.73 108.76 L 492.76 108.76 L 497.79 108.76 L 502.82 108.76 L 507.85 108.76 L 512.88 108.76 L 517.91 108.76 L 522.94 108.76 L 527.98 108.76 L 533.01 108.76 L 538.04 108.76 L 543.07 108.76 L 548.10 108.76 L 553.13 108.76 L 558.16 108.76 L 563.19 108.76 L 568.22 108.76 L 573.25 108.76 L 578.28 108.76 L 583.31 108.76 L 588.34 108.76 L 593.37 108.76 L 598.40 108.76 L 603.44 108.76 L 608.47 108.76 L 613.50 108.76 L 618.53 108.76 L 623.56 108.76 L 628.59 108.76 L 633.62 108.76 L 638.65 108.76 L 643.68 108.76 L 648.71 108.76 L 653.74 108.76 L 658.77 108.76 L 663.80 108.76 L 668.83 108.76 L 673.87 108.76 L 678.90 108.76 L 683.93 108.76 L 688.96 108.76 L 693.99 108.76 L 699.02 108.76 L 704.05 108.76 L 709.08 108.76 L 714.11 108.76 L 719.14 108.76 L 724.17 108.76 L 729.20 108.76 L 734.23 108.76 L 739.26 108.76 L 744.29 108.76 L 749.33 108.76 L 754.36 108.76 L 759.39 108.94 L 764.42 100.39 L 769.45 81.40 L 774.48 81.40 L 779.51 81.40 L 784.54 81.40 L 789.57 81.40 L 794.60 70.78 L 799.63 70.78 L 804.66 70.78 L 809.69 70.78 L 814.72 70.78 L 819.75 70.78 L 824.79 70.78 L 829.82 70.78 L 834.85 70.78 L 839.88 70.78 L 844.91 70.78 L 849.94 70.78 L 854.97 70.78 L 860.00 70.78" fill="none" stroke="#3fb950" stroke-width="2"/>
    <circle cx="860.00" cy="70.78" r="3" fill="#3fb950"/>
    <text x="40.00" y="235.00" font-size="9" fill="#c9d1d9" text-anchor="middle" transform="rotate(-45 40.00 235.00)">28.08.2025</text><text x="120.49" y="235.00" font-size="9" fill="#c9d1d9" text-anchor="middle" transform="rotate(-45 120.49 235.00)">28.08.2025</text><text x="200.98" y="235.00" font-size="9" fill="#c9d1d9" text-anchor="middle" transform="rotate(-45 200.98 235.00)">03.09.2025</text><text x="281.47" y="235.00" font-size="9" fill="#c9d1d9" text-anchor="middle" transform="rotate(-45 281.47 235.00)">15.09.2025</text><text x="361.96" y="235.00" font-size="9" fill="#c9d1d9" text-anchor="middle" transform="rotate(-45 361.96 235.00)">27.09.2025</text><text x="442.45" y="235.00" font-size="9" fill="#c9d1d9" text-anchor="middle" transform="rotate(-45 442.45 235.00)">12.10.2025</text><text x="522.94" y="235.00" font-size="9" fill="#c9d1d9" text-anchor="middle" transform="rotate(-45 522.94 235.00)">27.10.2025</text><text x="603.44" y="235.00" font-size="9" fill="#c9d1d9" text-anchor="middle" transform="rotate(-45 603.44 235.00)">11.11.2025</text><text x="683.93" y="235.00" font-size="9" fill="#c9d1d9" text-anchor="middle" transform="rotate(-45 683.93 235.00)">26.11.2025</text><text x="764.42" y="235.00" font-size="9" fill="#c9d1d9" text-anchor="middle" transform="rotate(-45 764.42 235.00)">04.12.2025</text><text x="844.91" y="235.00" font-size="9" fill="#c9d1d9" text-anchor="middle" transform="rotate(-45 844.91 235.00)">12.12.2025</text>
  </g>
</svg>