<svg xmlns="http://www.w3.org/2000/svg" width="900" height="290" style="font-family: -apple-system, BlinkMacSystemFont, 'Segoe UI', Helvetica, Arial, sans-serif;">
  <rect width="100%" height="100%" fill="#0d1117"/>
  <g>
    <line x1="40" y1="220.00" x2="860" y2="220.00" stroke="#30363d"/><text x="32" y="224.00" font-size="10" fill="#c9d1d9" text-anchor="end">0</text><line x1="40" y1="175.00" x2="860" y2="175.00" stroke="#30363d"/><text x="32" y="179.00" font-size="10" fill="#c9d1d9" text-anchor="end">500</text><line x1="40" y1="130.00" x2="860" y2="130.00" stroke="#30363d"/><text x="32" y="134.00" font-size="10" fill="#c9d1d9" text-anchor="end">1k</text><line x1="40" y1="85.00" x2="860" y2="85.00" stroke="#30363d"/><text x="32" y="89.00" font-size="10" fill="#c9d1d9" text-anchor="end">1.5k</text><line x1="40" y1="40.00" x2="860" y2="40.00" stroke="#30363d"/><text x="32" y="44.00" font-size="10" fill="#c9d1d9" text-anchor="end">2k</text>
    <line x1="40.00" y1="40" x2="40.00" y2="220" stroke="#30363d" opacity="0.5"/><line x1="115.31" y1="40" x2="115.31" y2="220" stroke="#30363d" opacity="0.5"/><line x1="190.61" y1="40" x2="190.61" y2="220" stroke="#30363d" opacity="0.5"/><line x1="265.92" y1="40" x2="265.92" y2="220" stroke="#30363d" opacity="0.5"/><line x1="341.22" y1="40" x2="341.22" y2="220" stroke="#30363d" opacity="0.5"/><line x1="416.53" y1="40" x2="416.53" y2="220" stroke="#30363d" opacity="0.5"/><line x1="491.84" y1="40" x2="491.84" y2="220" stroke="#30363d" opacity="0.5"/><line x1="567.14" y1="40" x2="567.14" y2="220" stroke="#30363d" opacity="0.5"/><line x1="642.45" y1="40" x2="642.45" y2="220" stroke="#30363d" opacity="0.5"/><line x1="717.76" y1="40" x2="717.76" y2="220" stroke="#30363d" opacity="0.5"/><line x1="793.06" y1="40" x2="793.06" y2="220" stroke="#30363d" opacity="0.5"/>
    <line x1="40" y1="220" x2="860" y2="220" stroke="#30363d"/>
    <line x1="40" y1="40"   x2="40"   y2="220" stroke="#30363d"/>
    <path d="M 40.00 166.63 L 48.37 166.00 L 56.73 166.00 L 65.10 121.18 L 73.47 115.78 L 81.84 115.78 L 90.20 112.00 L 98.57 108.22 L 106.94 108.22 L 115.31 108.22 L 123.67 108.22 L 132.04 108.22 L 140.41 108.22 L 148.78 108.22 L 157.14 108.22 L 165.51 108.22 L 173.88 108.22 L 182.24 108.22 L 190.61 108.22 L 198.98 108.22 L 207.35 108.22 L 215.71 108.22 L 224.08 109.21 L 232.45 109.12 L 240.82 108.76 L 249.18 108.76 L 257.55 108.76 L 265.92 108.76 L 274.29 108.76 L 282.65 108.76 L 291.02 108.76 L 299.39 108.76 L 307.76 108.76 L 316.12 108.76 L 324.49 108.76 L 332.86 108.76 L 341.22 108.76 L 349.59 108.76 L 357.96 108.76 L 366.33 108.76 L 374.69 108.76 L 383.06 108.76 L 391.43 108.76 L 399.80 108.76 L 408.16 108.76 L 416.53 108.76 L 424.90 108.76 L 433.27 108.76 L 441.63 108.76 L 450.00 108.76 L 458.37 108.76 L 466.73 108.76 L 475.10 108.76 L 483.47 108.76 L 491.84 108.76 L 500.20 108.76 L 508.57 108.76 L 516.94 108.76 L 525.31 108.76 L 533.67 108.76 L 542.04 108.76 L 550.41 108.76 L 558.78 108.76 L 567.14 108.76 L 575.51 108.76 L 583.88 108.76 L 592.24 108.76 L 600.61 108.76 L 608.98 108.76 L 617.35 108.76 L 625.71 108.76 L 634.08 108.76 L 642.45 108.76 L 650.82 108.76 L 659.18 108.76 L 667.55 108.76 L 675.92 108.76 L 684.29 108.76 L 692.65 108.76 L 701.02 108.76 L 709.39 108.76 L 717.76 108.76 L 726.12 108.76 L 734.49 108.76 L 742.86 108.76 L 751.22 108.76 L 759.59 108.76 L 767.96 108.76 L 776.33 108.76 L 784.69 108.76 L 793.06 108.76 L 801.43 108.76 L 809.80 108.76 L 818.16 108.76 L 826.53 108.76 L 834.90 108.76 L 843.27 108.76 L 851.63 108.76 L 860.00 108.76" fill="none" stroke="#3fb950" stroke-width="2"/>
    <circle cx="860.00" cy="108.76" r="3" fill="#3fb950"/>
    <text x="40.00" y="235.00" font-size="9" fill="#c9d1d9" text-anchor="middle" transform="rotate(-45 40.00 235.00)">28.08.2025</text><text x="115.31" y="235.00" font-size="9" fill="#c9d1d9" text-anchor="middle" transform="rotate(-45 115.31 235.00)">28.08.2025</text><text x="190.61" y="235.00" font-size="9" fill="#c9d1d9" text-anchor="middle" transform="rotate(-45 190.61 235.00)">28.08.2025</text><text x="265.92" y="235.00" font-size="9" fill="#c9d1d9" text-anchor="middle" transform="rotate(-45 265.92 235.00)">29.08.2025</text><text x="341.22" y="235.00" font-size="9" fill="#c9d1d9" text-anchor="middle" transform="rotate(-45 341.22 235.00)">07.09.2025</text><text x="416.53" y="235.00" font-size="9" fill="#c9d1d9" text-anchor="middle" transform="rotate(-45 416.53 235.00)">14.09.2025</text><text x="491.84" y="235.00" font-size="9" fill="#c9d1d9" text-anchor="middle" transform="rotate(-45 491.84 235.00)">19.09.2025</text><text x="567.14" y="235.00" font-size="9" fill="#c9d1d9" text-anchor="middle" transform="rotate(-45 567.14 235.00)">28.09.2025</text><text x="642.45" y="235.00" font-size="9" fill="#c9d1d9" text-anchor="middle" transform="rotate(-45 642.45 235.00)">07.10.2025</text><text x="717.76" y="235.00" font-size="9" fill="#c9d1d9" text-anchor="middle" transform="rotate(-45 717.76 235.00)">16.10.2025</text><text x="793.06" y="235.00" font-size="9" fill="#c9d1d9" text-anchor="middle" transform="rotate(-45 793.06 235.00)">25.10.2025</text>
  </g>
</svg>