<svg xmlns="http://www.w3.org/2000/svg" width="900" height="290" style="font-family: -apple-system, BlinkMacSystemFont, 'Segoe UI', Helvetica, Arial, sans-serif;">
  <rect width="100%" height="100%" fill="#0d1117"/>
  <g>
    <line x1="40" y1="220.00" x2="860" y2="220.00" stroke="#30363d"/><text x="32" y="224.00" font-size="10" fill="#c9d1d9" text-anchor="end">0</text><line x1="40" y1="175.00" x2="860" y2="175.00" stroke="#30363d"/><text x="32" y="179.00" font-size="10" fill="#c9d1d9" text-anchor="end">500</text><line x1="40" y1="130.00" x2="860" y2="130.00" stroke="#30363d"/><text x="32" y="134.00" font-size="10" fill="#c9d1d9" text-anchor="end">1k</text><line x1="40" y1="85.00" x2="860" y2="85.00" stroke="#30363d"/><text x="32" y="89.00" font-size="10" fill="#c9d1d9" text-anchor="end">1.5k</text><line x1="40" y1="40.00" x2="860" y2="40.00" stroke="#30363d"/><text x="32" y="44.00" font-size="10" fill="#c9d1d9" text-anchor="end">2k</text>
    <line x1="40.00" y1="40" x2="40.00" y2="220" stroke="#30363d" opacity="0.5"/><line x1="118.93" y1="40" x2="118.93" y2="220" stroke="#30363d" opacity="0.5"/><line x1="197.86" y1="40" x2="197.86" y2="220" stroke="#30363d" opacity="0.5"/><line x1="276.79" y1="40" x2="276.79" y2="220" stroke="#30363d" opacity="0.5"/><line x1="355.72" y1="40" x2="355.72" y2="220" stroke="#30363d" opacity="0.5"/><line x1="434.65" y1="40" x2="434.65" y2="220" stroke="#30363d" opacity="0.5"/><line x1="513.58" y1="40" x2="513.58" y2="220" stroke="#30363d" opacity="0.5"/><line x1="592.51" y1="40" x2="592.51" y2="220" stroke="#30363d" opacity="0.5"/><line x1="671.44" y1="40" x2="671.44" y2="220" stroke="#30363d" opacity="0.5"/><line x1="750.37" y1="40" x2="750.37" y2="220" stroke="#30363d" opacity="0.5"/><line x1="829.30" y1="40" x2="829.30" y2="220" stroke="#30363d" opacity="0.5"/>
    <line x1="40" y1="220" x2="860" y2="220" stroke="#30363d"/>
    <line x1="40" y1="40"   x2="40"   y2="220" stroke="#30363d"/>
    <path d="M 40.00 166.63 L 44.39 166.00 L 48.77 166.00 L 53.16 121.18 L 57.54 115.78 L 61.93 115.78 L 66.31 112.00 L 70.70 108.22 L 75.08 108.22 L 79.47 108.22 L 83.85 108.22 L 88.24 108.22 L 92.62 108.22 L 97.01 108.22 L 101.39 108.22 L 105.78 108.22 L 110.16 108.22 L 114.55 108.22 L 118.93 108.22 L 123.32 108.22 L 127.70 108.22 L 132.09 108.22 L 136.47 109.21 L 140.86 109.12 L 145.24 108.76 L 149.63 108.76 L 154.01 108.76 L 158.40 108.76 L 162.78 108.76 L 167.17 108.76 L 171.55 108.76 L 175.94 108.76 L 180.32 108.76 L 184.71 108.76 L 189.09 108.76 L 193.48 108.76 L 197.86 108.76 L 202.25 108.76 L 206.63 108.76 L 211.02 108.76 L 215.40 108.76 L 219.79 108.76 L 224.17 108.76 L 228.56 108.76 L 232.94 108.76 L 237.33 108.76 L 241.71 108.76 L 246.10 108.76 L 250.48 108.76 L 254.87 108.76 L 259.25 108.76 L 263.64 108.76 L 268.02 108.76 L 272.41 108.76 L 276.79 108.76 L 281.18 108.76 L 285.56 108.76 L 289.95 108.76 L 294.33 108.76 L 298.72 108.76 L 303.10 108.76 L 307.49 108.76 L 311.87 108.76 L 316.26 108.76 L 320.64 108.76 L 325.03 108.76 L 329.41 108.76 L 333.80 108.76 L 338.18 108.76 L 342.57 108.76 L 346.95 108.76 L 351.34 108.76 L 355.72 108.76 L 360.11 108.76 L 364.49 108.76 L 368.88 108.76 L 373.26 108.76 L 377.65 108.76 L 382.03 108.76 L 386.42 108.76 L 390.80 108.76 L 395.19 108.76 L 399.57 108.76 L 403.96 108.76 L 408.34 108.76 L 412.73 108.76 L 417.11 108.76 L 421.50 108.76 L 425.88 108.76 L 430.27 108.76 L 434.65 108.76 L 439.04 108.76 L 443.42 108.76 L 447.81 108.76 L 452.19 108.76 L 456.58 108.76 L 460.96 108.76 L 465.35 108.76 L 469.73 108.76 L 474.12 108.76 L 478.50 108.76 L 482.89 108.76 L 487.27 108.76 L 491.66 108.76 L 496.04 108.76 L 500.43 108.76 L 504.81 108.76 L 509.20 108.76 L 513.58 108.76 L 517.97 108.76 L 522.35 108.76 L 526.74 108.76 L 531.12 108.76 L 535.51 108.76 L 539.89 108.76 L 544.28 108.76 L 548.66 108.76 L 553.05 108.76 L 557.43 108.76 L 561.82 108.76 L 566.20 108.76 L 570.59 108.76 L 574.97 108.76 L 579.36 108.76 L 583.74 108.76 L 588.13 108.76 L 592.51 108.76 L 596.90 108.76 L 601.28 108.76 L 605.67 108.76 L 610.05 108.76 L 614.44 108.76 L 618.82 108.76 L 623.21 108.76 L 627.59 108.76 L 631.98 108.76 L 636.36 108.76 L 640.75 108.76 L 645.13 108.76 L 649.52 108.76 L 653.90 108.76 L 658.29 108.76 L 662.67 108.76 L 667.06 108.94 L 671.44 100.39 L 675.83 81.40 L 680.21 81.40 L 684.60 81.40 L 688.98 81.40 L 693.37 81.40 L 697.75 70.78 L 702.14 70.78 L 706.52 70.78 L 710.91 70.78 L 715.29 70.78 L 719.68 70.78 L 724.06 70.78 L 728.45 70.78 L 732.83 70.78 L 737.22 70.78 L 741.60 70.78 L 745.99 70.78 L 750.37 70.78 L 754.76 70.78 L 759.14 70.78 L 763.53 70.78 L 767.91 70.78 L 772.30 70.78 L 776.68 70.78 L 781.07 70.78 L 785.45 70.78 L 789.84 70.78 L 794.22 70.78 L 798.61 70.78 L 802.99 70.78 L 807.38 70.78 L 811.76 70.78 L 816.15 70.78 L 820.53 70.78 L 824.92 70.78 L 829.30 70.78 L 833.69 70.78 L 838.07 70.78 L 842.46 70.78 L 846.84 70.78 L 851.23 70.78 L 855.61 70.78 L 860.00 70.78" fill="none" stroke="#3fb950" stroke-width="2"/>
    <circle cx="860.00" cy="70.78" r="3" fill="#3fb950"/>
    <text x="40.00" y="235.00" font-size="9" fill="#c9d1d9" text-anchor="middle" transform="rotate(-45 40.00 235.00)">28.08.2025</text><text x="118.93" y="235.00" font-size="9" fill="#c9d1d9" text-anchor="middle" transform="rotate(-45 118.93 235.00)">28.08.2025</text><text x="197.86" y="235.00" font-size="9" fill="#c9d1d9" text-anchor="middle" transform="rotate(-45 197.86 235.00)">07.09.2025</text><text x="276.79" y="235.00" font-size="9" fill="#c9d1d9" text-anchor="middle" transform="rotate(-45 276.79 235.00)">17.09.2025</text><text x="355.72" y="235.00" font-size="9" fill="#c9d1d9" text-anchor="middle" transform="rotate(-45 355.72 235.00)">05.10.2025</text><text x="434.65" y="235.00" font-size="9" fill="#c9d1d9" text-anchor="middle" transform="rotate(-45 434.65 235.00)">22.10.2025</text><text x="513.58" y="235.00" font-size="9" fill="#c9d1d9" text-anchor="middle" transform="rotate(-45 513.58 235.00)">07.11.2025</text><text x="592.51" y="235.00" font-size="9" fill="#c9d1d9" text-anchor="middle" transform="rotate(-45 592.51 235.00)">24.11.2025</text><text x="671.44" y="235.00" font-size="9" fill="#c9d1d9" text-anchor="middle" transform="rotate(-45 671.44 235.00)">04.12.2025</text><text x="750.37" y="235.00" font-size="9" fill="#c9d1d9" text-anchor="middle" transform="rotate(-45 750.37 235.00)">14.12.2025</text><text x="829.30" y="235.00" font-size="9" fill="#c9d1d9" text-anchor="middle" transform="rotate(-45 829.30 235.00)">30.12.2025</text>
  </g>
</svg>