<svg xmlns="http://www.w3.org/2000/svg" width="900" height="290" style="font-family: -apple-system, BlinkMacSystemFont, 'Segoe UI', Helvetica, Arial, sans-serif;">
  <rect width="100%" height="100%" fill="white"/>
  <g>
    <line x1="40" y1="220.00" x2="860" y2="220.00" stroke="#e5e7eb"/><text x="32" y="224.00" font-size="10" fill="#111827" text-anchor="end">0</text><line x1="40" y1="175.00" x2="860" y2="175.00" stroke="#e5e7eb"/><text x="32" y="179.00" font-size="10" fill="#111827" text-anchor="end">500</text><line x1="40" y1="130.00" x2="860" y2="130.00" stroke="#e5e7eb"/><text x="32" y="134.00" font-size="10" fill="#111827" text-anchor="end">1k</text><line x1="40" y1="85.00" x2="860" y2="85.00" stroke="#e5e7eb"/><text x="32" y="89.00" font-size="10" fill="#111827" text-anchor="end">1.5k</text><line x1="40" y1="40.00" x2="860" y2="40.00" stroke="#e5e7eb"/><text x="32" y="44.00" font-size="10" fill="#111827" text-anchor="end">2k</text>
    <line x1="40.00" y1="40" x2="40.00" y2="220" stroke="#e5e7eb" opacity="0.5"/><line x1="122.52" y1="40" x2="122.52" y2="220" stroke="#e5e7eb" opacity="0.5"/><line x1="205.03" y1="40" x2="205.03" y2="220" stroke="#e5e7eb" opacity="0.5"/><line x1="287.55" y1="40" x2="287.55" y2="220" stroke="#e5e7eb" opacity="0.5"/><line x1="370.06" y1="40" x2="370.06" y2="220" stroke="#e5e7eb" opacity="0.5"/><line x1="452.58" y1="40" x2="452.58" y2="220" stroke="#e5e7eb" opacity="0.5"/><line x1="535.09" y1="40" x2="535.09" y2="220" stroke="#e5e7eb" opacity="0.5"/><line x1="617.61" y1="40" x2="617.61" y2="220" stroke="#e5e7eb" opacity="0.5"/><line x1="700.13" y1="40" x2="700.13" y2="220" stroke="#e5e7eb" opacity="0.5"/><line x1="782.64" y1="40" x2="782.64" y2="220" stroke="#e5e7eb" opacity="0.5"/>
    <line x1="40" y1="220" x2="860" y2="220" stroke="#9ca3af"/>
    <line x1="40" y1="40"   x2="40"   y2="220" stroke="#9ca3af"/>
    <path d="M 40.00 166.63 L 45.16 166.00 L 50.31 166.00 L 55.47 121.18 L 60.63 115.78 L 65.79 115.78 L 70.94 112.00 L 76.10 108.22 L 81.26 108.22 L 86.42 108.22 L 91.57 108.22 L 96.73 108.22 L 101.89 108.22 L 107.04 108.22 L 112.20 108.22 L 117.36 108.22 L 122.52 108.22 L 127.67 108.22 L 132.83 108.22 L 137.99 108.22 L 143.14 108.22 L 148.30 108.22 L 153.46 109.21 L 158.62 109.12 L 163.77 108.76 L 168.93 108.76 L 174.09 108.76 L 179.25 108.76 L 184.40 108.76 L 189.56 108.76 L 194.72 108.76 L 199.87 108.76 L 205.03 108.76 L 210.19 108.76 L 215.35 108.76 L 220.50 108.76 L 225.66 108.76 L 230.82 108.76 L 235.97 108.76 L 241.13 108.76 L 246.29 108.76 L 251.45 108.76 L 256.60 108.76 L 261.76 108.76 L 266.92 108.76 L 272.08 108.76 L 277.23 108.76 L 282.39 108.76 L 287.55 108.76 L 292.70 108.76 L 297.86 108.76 L 303.02 108.76 L 308.18 108.76 L 313.33 108.76 L 318.49 108.76 L 323.65 108.76 L 328.81 108.76 L 333.96 108.76 L 339.12 108.76 L 344.28 108.76 L 349.43 108.76 L 354.59 108.76 L 359.75 108.76 L 364.91 108.76 L 370.06 108.76 L 375.22 108.76 L 380.38 108.76 L 385.53 108.76 L 390.69 108.76 L 395.85 108.76 L 401.01 108.76 L 406.16 108.76 L 411.32 108.76 L 416.48 108.76 L 421.64 108.76 L 426.79 108.76 L 431.95 108.76 L 437.11 108.76 L 442.26 108.76 L 447.42 108.76 L 452.58 108.76 L 457.74 108.76 L 462.89 108.76 L 468.05 108.76 L 473.21 108.76 L 478.36 108.76 L 483.52 108.76 L 488.68 108.76 L 493.84 108.76 L 498.99 108.76 L 504.15 108.76 L 509.31 108.76 L 514.47 108.76 L 519.62 108.76 L 524.78 108.76 L 529.94 108.76 L 535.09 108.76 L 540.25 108.76 L 545.41 108.76 L 550.57 108.76 L 555.72 108.76 L 560.88 108.76 L 566.04 108.76 L 571.19 108.76 L 576.35 108.76 L 581.51 108.76 L 586.67 108.76 L 591.82 108.76 L 596.98 108.76 L 602.14 108.76 L 607.30 108.76 L 612.45 108.76 L 617.61 108.76 L 622.77 108.76 L 627.92 108.76 L 633.08 108.76 L 638.24 108.76 L 643.40 108.76 L 648.55 108.76 L 653.71 108.76 L 658.87 108.76 L 664.03 108.76 L 669.18 108.76 L 674.34 108.76 L 679.50 108.76 L 684.65 108.76 L 689.81 108.76 L 694.97 108.76 L 700.13 108.76 L 705.28 108.76 L 710.44 108.76 L 715.60 108.76 L 720.75 108.76 L 725.91 108.76 L 731.07 108.76 L 736.23 108.76 L 741.38 108.76 L 746.54 108.76 L 751.70 108.76 L 756.86 108.76 L 762.01 108.76 L 767.17 108.76 L 772.33 108.76 L 777.48 108.94 L 782.64 100.39 L 787.80 81.40 L 792.96 81.40 L 798.11 81.40 L 803.27 81.40 L 808.43 81.40 L 813.58 70.78 L 818.74 70.78 L 823.90 70.78 L 829.06 70.78 L 834.21 70.78 L 839.37 70.78 L 844.53 70.78 L 849.69 70.78 L 854.84 70.78 L 860.00 70.78" fill="none" stroke="#111827" stroke-width="2"/>
    <circle cx="860.00" cy="70.78" r="3" fill="#111827"/>
    <text x="40.00" y="235.00" font-size="9" fill="#111827" text-anchor="middle" transform="rotate(-45 40.00 235.00)">28.08.2025</text><text x="122.52" y="235.00" font-size="9" fill="#111827" text-anchor="middle" transform="rotate(-45 122.52 235.00)">28.08.2025</text><text x="205.03" y="235.00" font-size="9" fill="#111827" text-anchor="middle" transform="rotate(-45 205.03 235.00)">03.09.2025</text><text x="287.55" y="235.00" font-size="9" fill="#111827" text-anchor="middle" transform="rotate(-45 287.55 235.00)">15.09.2025</text><text x="370.06" y="235.00" font-size="9" fill="#111827" text-anchor="middle" transform="rotate(-45 370.06 235.00)">27.09.2025</text><text x="452.58" y="235.00" font-size="9" fill="#111827" text-anchor="middle" transform="rotate(-45 452.58 235.00)">12.10.2025</text><text x="535.09" y="235.00" font-size="9" fill="#111827" text-anchor="middle" transform="rotate(-45 535.09 235.00)">27.10.2025</text><text x="617.61" y="235.00" font-size="9" fill="#111827" text-anchor="middle" transform="rotate(-45 617.61 235.00)">11.11.2025</text><text x="700.13" y="235.00" font-size="9" fill="#111827" text-anchor="middle" transform="rotate(-45 700.13 235.00)">26.11.2025</text><text x="782.64" y="235.00" font-size="9" fill="#111827" text-anchor="middle" transform="rotate(-45 782.64 235.00)">04.12.2025</text>
  </g>
</svg>