<svg xmlns="http://www.w3.org/2000/svg" width="900" height="290" style="font-family: -apple-system, BlinkMacSystemFont, 'Segoe UI', Helvetica, Arial, sans-serif;">
  <rect width="100%" height="100%" fill="white"/>
  <g>
    <line x1="40" y1="220.00" x2="860" y2="220.00" stroke="#e5e7eb"/><text x="32" y="224.00" font-size="10" fill="#111827" text-anchor="end">0</text><line x1="40" y1="175.00" x2="860" y2="175.00" stroke="#e5e7eb"/><text x="32" y="179.00" font-size="10" fill="#111827" text-anchor="end">500</text><line x1="40" y1="130.00" x2="860" y2="130.00" stroke="#e5e7eb"/><text x="32" y="134.00" font-size="10" fill="#111827" text-anchor="end">1k</text><line x1="40" y1="85.00" x2="860" y2="85.00" stroke="#e5e7eb"/><text x="32" y="89.00" font-size="10" fill="#111827" text-anchor="end">1.5k</text><line x1="40" y1="40.00" x2="860" y2="40.00" stroke="#e5e7eb"/><text x="32" y="44.00" font-size="10" fill="#111827" text-anchor="end">2k</text>
    <line x1="40.00" y1="40" x2="40.00" y2="220" stroke="#e5e7eb" opacity="0.5"/><line x1="119.04" y1="40" x2="119.04" y2="220" stroke="#e5e7eb" opacity="0.5"/><line x1="198.07" y1="40" x2="198.07" y2="220" stroke="#e5e7eb" opacity="0.5"/><line x1="277.11" y1="40" x2="277.11" y2="220" stroke="#e5e7eb" opacity="0.5"/><line x1="356.14" y1="40" x2="356.14" y2="220" stroke="#e5e7eb" opacity="0.5"/><line x1="435.18" y1="40" x2="435.18" y2="220" stroke="#e5e7eb" opacity="0.5"/><line x1="514.22" y1="40" x2="514.22" y2="220" stroke="#e5e7eb" opacity="0.5"/><line x1="593.25" y1="40" x2="593.25" y2="220" stroke="#e5e7eb" opacity="0.5"/><line x1="672.29" y1="40" x2="672.29" y2="220" stroke="#e5e7eb" opacity="0.5"/><line x1="751.33" y1="40" x2="751.33" y2="220" stroke="#e5e7eb" opacity="0.5"/><line x1="830.36" y1="40" x2="830.36" y2="220" stroke="#e5e7eb" opacity="0.5"/>
    <line x1="40" y1="220" x2="860" y2="220" stroke="#9ca3af"/>
    <line x1="40" y1="40"   x2="40"   y2="220" stroke="#9ca3af"/>
    <path d="M 40.00 166.63 L 49.88 166.00 L 59.76 166.00 L 69.64 121.18 L 79.52 115.78 L 89.40 115.78 L 99.28 112.00 L 109.16 108.22 L 119.04 108.22 L 128.92 108.22 L 138.80 108.22 L 148.67 108.22 L 158.55 108.22 L 168.43 108.22 L 178.31 108.22 L 188.19 108.22 L 198.07 108.22 L 207.95 108.22 L 217.83 108.22 L 227.71 108.22 L 237.59 108.22 L 247.47 108.22 L 257.35 109.21 L 267.23 109.12 L 277.11 108.76 L 286.99 108.76 L 296.87 108.76 L 306.75 108.76 L 316.63 108.76 L 326.51 108.76 L 336.39 108.76 L 346.27 108.76 L 356.14 108.76 L 366.02 108.76 L 375.90 108.76 L 385.78 108.76 L 395.66 108.76 L 405.54 108.76 L 415.42 108.76 L 425.30 108.76 L 435.18 108.76 L 445.06 108.76 L 454.94 108.76 L 464.82 108.76 L 474.70 108.76 L 484.58 108.76 L 494.46 108.76 L 504.34 108.76 L 514.22 108.76 L 524.10 108.76 L 533.98 108.76 L 543.86 108.76 L 553.73 108.76 L 563.61 108.76 L 573.49 108.76 L 583.37 108.76 L 593.25 108.76 L 603.13 108.76 L 613.01 108.76 L 622.89 108.76 L 632.77 108.76 L 642.65 108.76 L 652.53 108.76 L 662.41 108.76 L 672.29 108.76 L 682.17 108.76 L 692.05 108.76 L 701.93 108.76 L 711.81 108.76 L 721.69 108.76 L 731.57 108.76 L 741.45 108.76 L 751.33 108.76 L 761.20 108.76 L 771.08 108.76 L 780.96 108.76 L 790.84 108.76 L 800.72 108.76 L 810.60 108.76 L 820.48 108.76 L 830.36 108.76 L 840.24 108.76 L 850.12 108.76 L 860.00 108.76" fill="none" stroke="#111827" stroke-width="2"/>
    <circle cx="860.00" cy="108.76" r="3" fill="#111827"/>
    <text x="40.00" y="235.00" font-size="9" fill="#111827" text-anchor="middle" transform="rotate(-45 40.00 235.00)">28.08.2025</text><text x="119.04" y="235.00" font-size="9" fill="#111827" text-anchor="middle" transform="rotate(-45 119.04 235.00)">28.08.2025</text><text x="198.07" y="235.00" font-size="9" fill="#111827" text-anchor="middle" transform="rotate(-45 198.07 235.00)">28.08.2025</text><text x="277.11" y="235.00" font-size="9" fill="#111827" text-anchor="middle" transform="rotate(-45 277.11 235.00)">28.08.2025</text><text x="356.14" y="235.00" font-size="9" fill="#111827" text-anchor="middle" transform="rotate(-45 356.14 235.00)">03.09.2025</text><text x="435.18" y="235.00" font-size="9" fill="#111827" text-anchor="middle" transform="rotate(-45 435.18 235.00)">09.09.2025</text><text x="514.22" y="235.00" font-size="9" fill="#111827" text-anchor="middle" transform="rotate(-45 514.22 235.00)">15.09.2025</text><text x="593.25" y="235.00" font-size="9" fill="#111827" text-anchor="middle" transform="rotate(-45 593.25 235.00)">21.09.2025</text><text x="672.29" y="235.00" font-size="9" fill="#111827" text-anchor="middle" transform="rotate(-45 672.29 235.00)">29.09.2025</text><text x="751.33" y="235.00" font-size="9" fill="#111827" text-anchor="middle" transform="rotate(-45 751.33 235.00)">07.10.2025</text><text x="830.36" y="235.00" font-size="9" fill="#111827" text-anchor="middle" transform="rotate(-45 830.36 235.00)">15.10.2025</text>
  </g>
</svg>