<svg xmlns="http://www.w3.org/2000/svg" width="900" height="290" style="font-family: -apple-system, BlinkMacSystemFont, 'Segoe UI', Helvetica, Arial, sans-serif;">
  <rect width="100%" height="100%" fill="#0d1117"/>
  <g>
    <line x1="40" y1="220.00" x2="860" y2="220.00" stroke="#30363d"/><text x="32" y="224.00" font-size="10" fill="#c9d1d9" text-anchor="end">0</text><line x1="40" y1="175.00" x2="860" y2="175.00" stroke="#30363d"/><text x="32" y="179.00" font-size="10" fill="#c9d1d9" text-anchor="end">500</text><line x1="40" y1="130.00" x2="860" y2="130.00" stroke="#30363d"/><text x="32" y="134.00" font-size="10" fill="#c9d1d9" text-anchor="end">1k</text><line x1="40" y1="85.00" x2="860" y2="85.00" stroke="#30363d"/><text x="32" y="89.00" font-size="10" fill="#c9d1d9" text-anchor="end">1.5k</text><line x1="40" y1="40.00" x2="860" y2="40.00" stroke="#30363d"/><text x="32" y="44.00" font-size="10" fill="#c9d1d9" text-anchor="end">2k</text>
    <line x1="40.00" y1="40" x2="40.00" y2="220" stroke="#30363d" opacity="0.5"/><line x1="122.00" y1="40" x2="122.00" y2="220" stroke="#30363d" opacity="0.5"/><line x1="204.00" y1="40" x2="204.00" y2="220" stroke="#30363d" opacity="0.5"/><line x1="286.00" y1="40" x2="286.00" y2="220" stroke="#30363d" opacity="0.5"/><line x1="368.00" y1="40" x2="368.00" y2="220" stroke="#30363d" opacity="0.5"/><line x1="450.00" y1="40" x2="450.00" y2="220" stroke="#30363d" opacity="0.5"/><line x1="532.00" y1="40" x2="532.00" y2="220" stroke="#30363d" opacity="0.5"/><line x1="614.00" y1="40" x2="614.00" y2="220" stroke="#30363d" opacity="0.5"/><line x1="696.00" y1="40" x2="696.00" y2="220" stroke="#30363d" opacity="0.5"/><line x1="778.00" y1="40" x2="778.00" y2="220" stroke="#30363d" opacity="0.5"/><line x1="860.00" y1="40" x2="860.00" y2="220" stroke="#30363d" opacity="0.5"/>
    <line x1="40" y1="220" x2="860" y2="220" stroke="#30363d"/>
    <line x1="40" y1="40"   x2="40"   y2="220" stroke="#30363d"/>
    <path d="M 40.00 166.63 L 44.82 166.00 L 49.65 166.00 L 54.47 121.18 L 59.29 115.78 L 64.12 115.78 L 68.94 112.00 L 73.76 108.22 L 78.59 108.22 L 83.41 108.22 L 88.24 108.22 L 93.06 108.22 L 97.88 108.22 L 102.71 108.22 L 107.53 108.22 L 112.35 108.22 L 117.18 108.22 L 122.00 108.22 L 126.82 108.22 L 131.65 108.22 L 136.47 108.22 L 141.29 108.22 L 146.12 109.21 L 150.94 109.12 L 155.76 108.76 L 160.59 108.76 L 165.41 108.76 L 170.24 108.76 L 175.06 108.76 L 179.88 108.76 L 184.71 108.76 L 189.53 108.76 L 194.35 108.76 L 199.18 108.76 L 204.00 108.76 L 208.82 108.76 L 213.65 108.76 L 218.47 108.76 L 223.29 108.76 L 228.12 108.76 L 232.94 108.76 L 237.76 108.76 L 242.59 108.76 L 247.41 108.76 L 252.24 108.76 L 257.06 108.76 L 261.88 108.76 L 266.71 108.76 L 271.53 108.76 L 276.35 108.76 L 281.18 108.76 L 286.00 108.76 L 290.82 108.76 L 295.65 108.76 L 300.47 108.76 L 305.29 108.76 L 310.12 108.76 L 314.94 108.76 L 319.76 108.76 L 324.59 108.76 L 329.41 108.76 L 334.24 108.76 L 339.06 108.76 L 343.88 108.76 L 348.71 108.76 L 353.53 108.76 L 358.35 108.76 L 363.18 108.76 L 368.00 108.76 L 372.82 108.76 L 377.65 108.76 L 382.47 108.76 L 387.29 108.76 L 392.12 108.76 L 396.94 108.76 L 401.76 108.76 L 406.59 108.76 L 411.41 108.76 L 416.24 108.76 L 421.06 108.76 L 425.88 108.76 L 430.71 108.76 L 435.53 108.76 L 440.35 108.76 L 445.18 108.76 L 450.00 108.76 L 454.82 108.76 L 459.65 108.76 L 464.47 108.76 L 469.29 108.76 L 474.12 108.76 L 478.94 108.76 L 483.76 108.76 L 488.59 108.76 L 493.41 108.76 L 498.24 108.76 L 503.06 108.76 L 507.88 108.76 L 512.71 108.76 L 517.53 108.76 L 522.35 108.76 L 527.18 108.76 L 532.00 108.76 L 536.82 108.76 L 541.65 108.76 L 546.47 108.76 L 551.29 108.76 L 556.12 108.76 L 560.94 108.76 L 565.76 108.76 L 570.59 108.76 L 575.41 108.76 L 580.24 108.76 L 585.06 108.76 L 589.88 108.76 L 594.71 108.76 L 599.53 108.76 L 604.35 108.76 L 609.18 108.76 L 614.00 108.76 L 618.82 108.76 L 623.65 108.76 L 628.47 108.76 L 633.29 108.76 L 638.12 108.76 L 642.94 108.76 L 647.76 108.76 L 652.59 108.76 L 657.41 108.76 L 662.24 108.76 L 667.06 108.76 L 671.88 108.76 L 676.71 108.76 L 681.53 108.76 L 686.35 108.76 L 691.18 108.76 L 696.00 108.76 L 700.82 108.76 L 705.65 108.76 L 710.47 108.76 L 715.29 108.76 L 720.12 108.76 L 724.94 108.76 L 729.76 108.94 L 734.59 100.39 L 739.41 81.40 L 744.24 81.40 L 749.06 81.40 L 753.88 81.40 L 758.71 81.40 L 763.53 70.78 L 768.35 70.78 L 773.18 70.78 L 778.00 70.78 L 782.82 70.78 L 787.65 70.78 L 792.47 70.78 L 797.29 70.78 L 802.12 70.78 L 806.94 70.78 L 811.76 70.78 L 816.59 70.78 L 821.41 70.78 L 826.24 70.78 L 831.06 70.78 L 835.88 70.78 L 840.71 70.78 L 845.53 70.78 L 850.35 70.78 L 855.18 70.78 L 860.00 70.78" fill="none" stroke="#3fb950" stroke-width="2"/>
    <circle cx="860.00" cy="70.78" r="3" fill="#3fb950"/>
    <text x="40.00" y="235.00" font-size="9" fill="#c9d1d9" text-anchor="middle" transform="rotate(-45 40.00 235.00)">28.08.2025</text><text x="122.00" y="235.00" font-size="9" fill="#c9d1d9" text-anchor="middle" transform="rotate(-45 122.00 235.00)">28.08.2025</text><text x="204.00" y="235.00" font-size="9" fill="#c9d1d9" text-anchor="middle" transform="rotate(-45 204.00 235.00)">05.09.2025</text><text x="286.00" y="235.00" font-size="9" fill="#c9d1d9" text-anchor="middle" transform="rotate(-45 286.00 235.00)">15.09.2025</text><text x="368.00" y="235.00" font-size="9" fill="#c9d1d9" text-anchor="middle" transform="rotate(-45 368.00 235.00)">01.10.2025</text><text x="450.00" y="235.00" font-size="9" fill="#c9d1d9" text-anchor="middle" transform="rotate(-45 450.00 235.00)">17.10.2025</text><text x="532.00" y="235.00" font-size="9" fill="#c9d1d9" text-anchor="middle" transform="rotate(-45 532.00 235.00)">01.11.2025</text><text x="614.00" y="235.00" font-size="9" fill="#c9d1d9" text-anchor="middle" transform="rotate(-45 614.00 235.00)">18.11.2025</text><text x="696.00" y="235.00" font-size="9" fill="#c9d1d9" text-anchor="middle" transform="rotate(-45 696.00 235.00)">28.11.2025</text><text x="778.00" y="235.00" font-size="9" fill="#c9d1d9" text-anchor="middle" transform="rotate(-45 778.00 235.00)">10.12.2025</text><text x="860.00" y="235.00" font-size="9" fill="#c9d1d9" text-anchor="middle" transform="rotate(-45 860.00 235.00)">21.12.2025</text>
  </g>
</svg>