<svg xmlns="http://www.w3.org/2000/svg" width="900" height="290" style="font-family: -apple-system, BlinkMacSystemFont, 'Segoe UI', Helvetica, Arial, sans-serif;">
  <rect width="100%" height="100%" fill="#0d1117"/>
  <g>
    <line x1="40" y1="220.00" x2="860" y2="220.00" stroke="#30363d"/><text x="32" y="224.00" font-size="10" fill="#c9d1d9" text-anchor="end">0</text><line x1="40" y1="175.00" x2="860" y2="175.00" stroke="#30363d"/><text x="32" y="179.00" font-size="10" fill="#c9d1d9" text-anchor="end">500</text><line x1="40" y1="130.00" x2="860" y2="130.00" stroke="#30363d"/><text x="32" y="134.00" font-size="10" fill="#c9d1d9" text-anchor="end">1k</text><line x1="40" y1="85.00" x2="860" y2="85.00" stroke="#30363d"/><text x="32" y="89.00" font-size="10" fill="#c9d1d9" text-anchor="end">1.5k</text><line x1="40" y1="40.00" x2="860" y2="40.00" stroke="#30363d"/><text x="32" y="44.00" font-size="10" fill="#c9d1d9" text-anchor="end">2k</text>
    <line x1="40.00" y1="40" x2="40.00" y2="220" stroke="#30363d" opacity="0.5"/><line x1="121.10" y1="40" x2="121.10" y2="220" stroke="#30363d" opacity="0.5"/><line x1="202.20" y1="40" x2="202.20" y2="220" stroke="#30363d" opacity="0.5"/><line x1="283.30" y1="40" x2="283.30" y2="220" stroke="#30363d" opacity="0.5"/><line x1="364.40" y1="40" x2="364.40" y2="220" stroke="#30363d" opacity="0.5"/><line x1="445.49" y1="40" x2="445.49" y2="220" stroke="#30363d" opacity="0.5"/><line x1="526.59" y1="40" x2="526.59" y2="220" stroke="#30363d" opacity="0.5"/><line x1="607.69" y1="40" x2="607.69" y2="220" stroke="#30363d" opacity="0.5"/><line x1="688.79" y1="40" x2="688.79" y2="220" stroke="#30363d" opacity="0.5"/><line x1="769.89" y1="40" x2="769.89" y2="220" stroke="#30363d" opacity="0.5"/><line x1="850.99" y1="40" x2="850.99" y2="220" stroke="#30363d" opacity="0.5"/>
    <line x1="40" y1="220" x2="860" y2="220" stroke="#30363d"/>
    <line x1="40" y1="40"   x2="40"   y2="220" stroke="#30363d"/>
    <path d="M 40.00 166.63 L 49.01 166.00 L 58.02 166.00 L 67.03 121.18 L 76.04 115.78 L 85.05 115.78 L 94.07 112.00 L 103.08 108.22 L 112.09 108.22 L 121.10 108.22 L 130.11 108.22 L 139.12 108.22 L 148.13 108.22 L 157.14 108.22 L 166.15 108.22 L 175.16 108.22 L 184.18 108.22 L 193.19 108.22 L 202.20 108.22 L 211.21 108.22 L 220.22 108.22 L 229.23 108.22 L 238.24 109.21 L 247.25 109.12 L 256.26 108.76 L 265.27 108.76 L 274.29 108.76 L 283.30 108.76 L 292.31 108.76 L 301.32 108.76 L 310.33 108.76 L 319.34 108.76 L 328.35 108.76 L 337.36 108.76 L 346.37 108.76 L 355.38 108.76 L 364.40 108.76 L 373.41 108.76 L 382.42 108.76 L 391.43 108.76 L 400.44 108.76 L 409.45 108.76 L 418.46 108.76 L 427.47 108.76 L 436.48 108.76 L 445.49 108.76 L 454.51 108.76 L 463.52 108.76 L 472.53 108.76 L 481.54 108.76 L 490.55 108.76 L 499.56 108.76 L 508.57 108.76 L 517.58 108.76 L 526.59 108.76 L 535.60 108.76 L 544.62 108.76 L 553.63 108.76 L 562.64 108.76 L 571.65 108.76 L 580.66 108.76 L 589.67 108.76 L 598.68 108.76 L 607.69 108.76 L 616.70 108.76 L 625.71 108.76 L 634.73 108.76 L 643.74 108.76 L 652.75 108.76 L 661.76 108.76 L 670.77 108.76 L 679.78 108.76 L 688.79 108.76 L 697.80 108.76 L 706.81 108.76 L 715.82 108.76 L 724.84 108.76 L 733.85 108.76 L 742.86 108.76 L 751.87 108.76 L 760.88 108.76 L 769.89 108.76 L 778.90 108.76 L 787.91 108.76 L 796.92 108.76 L 805.93 108.76 L 814.95 108.76 L 823.96 108.76 L 832.97 108.76 L 841.98 108.76 L 850.99 108.76 L 860.00 108.76" fill="none" stroke="#3fb950" stroke-width="2"/>
    <circle cx="860.00" cy="108.76" r="3" fill="#3fb950"/>
    <text x="40.00" y="235.00" font-size="9" fill="#c9d1d9" text-anchor="middle" transform="rotate(-45 40.00 235.00)">28.08.2025</text><text x="121.10" y="235.00" font-size="9" fill="#c9d1d9" text-anchor="middle" transform="rotate(-45 121.10 235.00)">28.08.2025</text><text x="202.20" y="235.00" font-size="9" fill="#c9d1d9" text-anchor="middle" transform="rotate(-45 202.20 235.00)">28.08.2025</text><text x="283.30" y="235.00" font-size="9" fill="#c9d1d9" text-anchor="middle" transform="rotate(-45 283.30 235.00)">29.08.2025</text><text x="364.40" y="235.00" font-size="9" fill="#c9d1d9" text-anchor="middle" transform="rotate(-45 364.40 235.00)">07.09.2025</text><text x="445.49" y="235.00" font-size="9" fill="#c9d1d9" text-anchor="middle" transform="rotate(-45 445.49 235.00)">14.09.2025</text><text x="526.59" y="235.00" font-size="9" fill="#c9d1d9" text-anchor="middle" transform="rotate(-45 526.59 235.00)">19.09.2025</text><text x="607.69" y="235.00" font-size="9" fill="#c9d1d9" text-anchor="middle" transform="rotate(-45 607.69 235.00)">28.09.2025</text><text x="688.79" y="235.00" font-size="9" fill="#c9d1d9" text-anchor="middle" transform="rotate(-45 688.79 235.00)">07.10.2025</text><text x="769.89" y="235.00" font-size="9" fill="#c9d1d9" text-anchor="middle" transform="rotate(-45 769.89 235.00)">16.10.2025</text><text x="850.99" y="235.00" font-size="9" fill="#c9d1d9" text-anchor="middle" transform="rotate(-45 850.99 235.00)">25.10.2025</text>
  </g>
</svg>