<svg xmlns="http://www.w3.org/2000/svg" width="900" height="290" style="font-family: -apple-system, BlinkMacSystemFont, 'Segoe UI', Helvetica, Arial, sans-serif;">
  <rect width="100%" height="100%" fill="#0d1117"/>
  <g>
    <line x1="40" y1="220.00" x2="860" y2="220.00" stroke="#30363d"/><text x="32" y="224.00" font-size="10" fill="#c9d1d9" text-anchor="end">0</text><line x1="40" y1="175.00" x2="860" y2="175.00" stroke="#30363d"/><text x="32" y="179.00" font-size="10" fill="#c9d1d9" text-anchor="end">500</text><line x1="40" y1="130.00" x2="860" y2="130.00" stroke="#30363d"/><text x="32" y="134.00" font-size="10" fill="#c9d1d9" text-anchor="end">1k</text><line x1="40" y1="85.00" x2="860" y2="85.00" stroke="#30363d"/><text x="32" y="89.00" font-size="10" fill="#c9d1d9" text-anchor="end">1.5k</text><line x1="40" y1="40.00" x2="860" y2="40.00" stroke="#30363d"/><text x="32" y="44.00" font-size="10" fill="#c9d1d9" text-anchor="end">2k</text>
    <line x1="40.00" y1="40" x2="40.00" y2="220" stroke="#30363d" opacity="0.5"/><line x1="121.52" y1="40" x2="121.52" y2="220" stroke="#30363d" opacity="0.5"/><line x1="203.04" y1="40" x2="203.04" y2="220" stroke="#30363d" opacity="0.5"/><line x1="284.56" y1="40" x2="284.56" y2="220" stroke="#30363d" opacity="0.5"/><line x1="366.08" y1="40" x2="366.08" y2="220" stroke="#30363d" opacity="0.5"/><line x1="447.60" y1="40" x2="447.60" y2="220" stroke="#30363d" opacity="0.5"/><line x1="529.12" y1="40" x2="529.12" y2="220" stroke="#30363d" opacity="0.5"/><line x1="610.64" y1="40" x2="610.64" y2="220" stroke="#30363d" opacity="0.5"/><line x1="692.16" y1="40" x2="692.16" y2="220" stroke="#30363d" opacity="0.5"/><line x1="773.68" y1="40" x2="773.68" y2="220" stroke="#30363d" opacity="0.5"/><line x1="855.20" y1="40" x2="855.20" y2="220" stroke="#30363d" opacity="0.5"/>
    <line x1="40" y1="220" x2="860" y2="220" stroke="#30363d"/>
    <line x1="40" y1="40"   x2="40"   y2="220" stroke="#30363d"/>
    <path d="M 40.00 166.63 L 44.80 166.00 L 49.59 166.00 L 54.39 121.18 L 59.18 115.78 L 63.98 115.78 L 68.77 112.00 L 73.57 108.22 L 78.36 108.22 L 83.16 108.22 L 87.95 108.22 L 92.75 108.22 L 97.54 108.22 L 102.34 108.22 L 107.13 108.22 L 111.93 108.22 L 116.73 108.22 L 121.52 108.22 L 126.32 108.22 L 131.11 108.22 L 135.91 108.22 L 140.70 108.22 L 145.50 109.21 L 150.29 109.12 L 155.09 108.76 L 159.88 108.76 L 164.68 108.76 L 169.47 108.76 L 174.27 108.76 L 179.06 108.76 L 183.86 108.76 L 188.65 108.76 L 193.45 108.76 L 198.25 108.76 L 203.04 108.76 L 207.84 108.76 L 212.63 108.76 L 217.43 108.76 L 222.22 108.76 L 227.02 108.76 L 231.81 108.76 L 236.61 108.76 L 241.40 108.76 L 246.20 108.76 L 250.99 108.76 L 255.79 108.76 L 260.58 108.76 L 265.38 108.76 L 270.18 108.76 L 274.97 108.76 L 279.77 108.76 L 284.56 108.76 L 289.36 108.76 L 294.15 108.76 L 298.95 108.76 L 303.74 108.76 L 308.54 108.76 L 313.33 108.76 L 318.13 108.76 L 322.92 108.76 L 327.72 108.76 L 332.51 108.76 L 337.31 108.76 L 342.11 108.76 L 346.90 108.76 L 351.70 108.76 L 356.49 108.76 L 361.29 108.76 L 366.08 108.76 L 370.88 108.76 L 375.67 108.76 L 380.47 108.76 L 385.26 108.76 L 390.06 108.76 L 394.85 108.76 L 399.65 108.76 L 404.44 108.76 L 409.24 108.76 L 414.04 108.76 L 418.83 108.76 L 423.63 108.76 L 428.42 108.76 L 433.22 108.76 L 438.01 108.76 L 442.81 108.76 L 447.60 108.76 L 452.40 108.76 L 457.19 108.76 L 461.99 108.76 L 466.78 108.76 L 471.58 108.76 L 476.37 108.76 L 481.17 108.76 L 485.96 108.76 L 490.76 108.76 L 495.56 108.76 L 500.35 108.76 L 505.15 108.76 L 509.94 108.76 L 514.74 108.76 L 519.53 108.76 L 524.33 108.76 L 529.12 108.76 L 533.92 108.76 L 538.71 108.76 L 543.51 108.76 L 548.30 108.76 L 553.10 108.76 L 557.89 108.76 L 562.69 108.76 L 567.49 108.76 L 572.28 108.76 L 577.08 108.76 L 581.87 108.76 L 586.67 108.76 L 591.46 108.76 L 596.26 108.76 L 601.05 108.76 L 605.85 108.76 L 610.64 108.76 L 615.44 108.76 L 620.23 108.76 L 625.03 108.76 L 629.82 108.76 L 634.62 108.76 L 639.42 108.76 L 644.21 108.76 L 649.01 108.76 L 653.80 108.76 L 658.60 108.76 L 663.39 108.76 L 668.19 108.76 L 672.98 108.76 L 677.78 108.76 L 682.57 108.76 L 687.37 108.76 L 692.16 108.76 L 696.96 108.76 L 701.75 108.76 L 706.55 108.76 L 711.35 108.76 L 716.14 108.76 L 720.94 108.76 L 725.73 108.94 L 730.53 100.39 L 735.32 81.40 L 740.12 81.40 L 744.91 81.40 L 749.71 81.40 L 754.50 81.40 L 759.30 70.78 L 764.09 70.78 L 768.89 70.78 L 773.68 70.78 L 778.48 70.78 L 783.27 70.78 L 788.07 70.78 L 792.87 70.78 L 797.66 70.78 L 802.46 70.78 L 807.25 70.78 L 812.05 70.78 L 816.84 70.78 L 821.64 70.78 L 826.43 70.78 L 831.23 70.78 L 836.02 70.78 L 840.82 70.78 L 845.61 70.78 L 850.41 70.78 L 855.20 70.78 L 860.00 70.78" fill="none" stroke="#3fb950" stroke-width="2"/>
    <circle cx="860.00" cy="70.78" r="3" fill="#3fb950"/>
    <text x="40.00" y="235.00" font-size="9" fill="#c9d1d9" text-anchor="middle" transform="rotate(-45 40.00 235.00)">28.08.2025</text><text x="121.52" y="235.00" font-size="9" fill="#c9d1d9" text-anchor="middle" transform="rotate(-45 121.52 235.00)">28.08.2025</text><text x="203.04" y="235.00" font-size="9" fill="#c9d1d9" text-anchor="middle" transform="rotate(-45 203.04 235.00)">05.09.2025</text><text x="284.56" y="235.00" font-size="9" fill="#c9d1d9" text-anchor="middle" transform="rotate(-45 284.56 235.00)">15.09.2025</text><text x="366.08" y="235.00" font-size="9" fill="#c9d1d9" text-anchor="middle" transform="rotate(-45 366.08 235.00)">01.10.2025</text><text x="447.60" y="235.00" font-size="9" fill="#c9d1d9" text-anchor="middle" transform="rotate(-45 447.60 235.00)">17.10.2025</text><text x="529.12" y="235.00" font-size="9" fill="#c9d1d9" text-anchor="middle" transform="rotate(-45 529.12 235.00)">01.11.2025</text><text x="610.64" y="235.00" font-size="9" fill="#c9d1d9" text-anchor="middle" transform="rotate(-45 610.64 235.00)">18.11.2025</text><text x="692.16" y="235.00" font-size="9" fill="#c9d1d9" text-anchor="middle" transform="rotate(-45 692.16 235.00)">28.11.2025</text><text x="773.68" y="235.00" font-size="9" fill="#c9d1d9" text-anchor="middle" transform="rotate(-45 773.68 235.00)">10.12.2025</text><text x="855.20" y="235.00" font-size="9" fill="#c9d1d9" text-anchor="middle" transform="rotate(-45 855.20 235.00)">21.12.2025</text>
  </g>
</svg>