<svg xmlns="http://www.w3.org/2000/svg" width="900" height="290" style="font-family: -apple-system, BlinkMacSystemFont, 'Segoe UI', Helvetica, Arial, sans-serif;">
  <rect width="100%" height="100%" fill="white"/>
  <g>
    <line x1="40" y1="220.00" x2="860" y2="220.00" stroke="#e5e7eb"/><text x="32" y="224.00" font-size="10" fill="#111827" text-anchor="end">0</text><line x1="40" y1="175.00" x2="860" y2="175.00" stroke="#e5e7eb"/><text x="32" y="179.00" font-size="10" fill="#111827" text-anchor="end">500</text><line x1="40" y1="130.00" x2="860" y2="130.00" stroke="#e5e7eb"/><text x="32" y="134.00" font-size="10" fill="#111827" text-anchor="end">1k</text><line x1="40" y1="85.00" x2="860" y2="85.00" stroke="#e5e7eb"/><text x="32" y="89.00" font-size="10" fill="#111827" text-anchor="end">1.5k</text><line x1="40" y1="40.00" x2="860" y2="40.00" stroke="#e5e7eb"/><text x="32" y="44.00" font-size="10" fill="#111827" text-anchor="end">2k</text>
    <line x1="40.00" y1="40" x2="40.00" y2="220" stroke="#e5e7eb" opacity="0.5"/><line x1="117.36" y1="40" x2="117.36" y2="220" stroke="#e5e7eb" opacity="0.5"/><line x1="194.72" y1="40" x2="194.72" y2="220" stroke="#e5e7eb" opacity="0.5"/><line x1="272.08" y1="40" x2="272.08" y2="220" stroke="#e5e7eb" opacity="0.5"/><line x1="349.43" y1="40" x2="349.43" y2="220" stroke="#e5e7eb" opacity="0.5"/><line x1="426.79" y1="40" x2="426.79" y2="220" stroke="#e5e7eb" opacity="0.5"/><line x1="504.15" y1="40" x2="504.15" y2="220" stroke="#e5e7eb" opacity="0.5"/><line x1="581.51" y1="40" x2="581.51" y2="220" stroke="#e5e7eb" opacity="0.5"/><line x1="658.87" y1="40" x2="658.87" y2="220" stroke="#e5e7eb" opacity="0.5"/><line x1="736.23" y1="40" x2="736.23" y2="220" stroke="#e5e7eb" opacity="0.5"/><line x1="813.58" y1="40" x2="813.58" y2="220" stroke="#e5e7eb" opacity="0.5"/>
    <line x1="40" y1="220" x2="860" y2="220" stroke="#9ca3af"/>
    <line x1="40" y1="40"   x2="40"   y2="220" stroke="#9ca3af"/>
    <path d="M 40.00 166.63 L 55.47 166.00 L 70.94 166.00 L 86.42 121.18 L 101.89 115.78 L 117.36 115.78 L 132.83 112.00 L 148.30 108.22 L 163.77 108.22 L 179.25 108.22 L 194.72 108.22 L 210.19 108.22 L 225.66 108.22 L 241.13 108.22 L 256.60 108.22 L 272.08 108.22 L 287.55 108.22 L 303.02 108.22 L 318.49 108.22 L 333.96 108.22 L 349.43 108.22 L 364.91 108.22 L 380.38 109.21 L 395.85 109.12 L 411.32 108.76 L 426.79 108.76 L 442.26 108.76 L 457.74 108.76 L 473.21 108.76 L 488.68 108.76 L 504.15 108.76 L 519.62 108.76 L 535.09 108.76 L 550.57 108.76 L 566.04 108.76 L 581.51 108.76 L 596.98 108.76 L 612.45 108.76 L 627.92 108.76 L 643.40 108.76 L 658.87 108.76 L 674.34 108.76 L 689.81 108.76 L 705.28 108.76 L 720.75 108.76 L 736.23 108.76 L 751.70 108.76 L 767.17 108.76 L 782.64 108.76 L 798.11 108.76 L 813.58 108.76 L 829.06 108.76 L 844.53 108.76 L 860.00 108.76" fill="none" stroke="#111827" stroke-width="2"/>
    <circle cx="860.00" cy="108.76" r="3" fill="#111827"/>
    <text x="40.00" y="235.00" font-size="9" fill="#111827" text-anchor="middle" transform="rotate(-45 40.00 235.00)">28.08.2025</text><text x="117.36" y="235.00" font-size="9" fill="#111827" text-anchor="middle" transform="rotate(-45 117.36 235.00)">28.08.2025</text><text x="194.72" y="235.00" font-size="9" fill="#111827" text-anchor="middle" transform="rotate(-45 194.72 235.00)">28.08.2025</text><text x="272.08" y="235.00" font-size="9" fill="#111827" text-anchor="middle" transform="rotate(-45 272.08 235.00)">28.08.2025</text><text x="349.43" y="235.00" font-size="9" fill="#111827" text-anchor="middle" transform="rotate(-45 349.43 235.00)">28.08.2025</text><text x="426.79" y="235.00" font-size="9" fill="#111827" text-anchor="middle" transform="rotate(-45 426.79 235.00)">28.08.2025</text><text x="504.15" y="235.00" font-size="9" fill="#111827" text-anchor="middle" transform="rotate(-45 504.15 235.00)">01.09.2025</text><text x="581.51" y="235.00" font-size="9" fill="#111827" text-anchor="middle" transform="rotate(-45 581.51 235.00)">06.09.2025</text><text x="658.87" y="235.00" font-size="9" fill="#111827" text-anchor="middle" transform="rotate(-45 658.87 235.00)">09.09.2025</text><text x="736.23" y="235.00" font-size="9" fill="#111827" text-anchor="middle" transform="rotate(-45 736.23 235.00)">14.09.2025</text><text x="813.58" y="235.00" font-size="9" fill="#111827" text-anchor="middle" transform="rotate(-45 813.58 235.00)">15.09.2025</text>
  </g>
</svg>