<svg xmlns="http://www.w3.org/2000/svg" width="900" height="290" style="font-family: -apple-system, BlinkMacSystemFont, 'Segoe UI', Helvetica, Arial, sans-serif;">
  <rect width="100%" height="100%" fill="white"/>
  <g>
    <line x1="40" y1="220.00" x2="860" y2="220.00" stroke="#e5e7eb"/><text x="32" y="224.00" font-size="10" fill="#111827" text-anchor="end">0</text><line x1="40" y1="175.00" x2="860" y2="175.00" stroke="#e5e7eb"/><text x="32" y="179.00" font-size="10" fill="#111827" text-anchor="end">500</text><line x1="40" y1="130.00" x2="860" y2="130.00" stroke="#e5e7eb"/><text x="32" y="134.00" font-size="10" fill="#111827" text-anchor="end">1k</text><line x1="40" y1="85.00" x2="860" y2="85.00" stroke="#e5e7eb"/><text x="32" y="89.00" font-size="10" fill="#111827" text-anchor="end">1.5k</text><line x1="40" y1="40.00" x2="860" y2="40.00" stroke="#e5e7eb"/><text x="32" y="44.00" font-size="10" fill="#111827" text-anchor="end">2k</text>
    <line x1="40.00" y1="40" x2="40.00" y2="220" stroke="#e5e7eb" opacity="0.5"/><line x1="121.15" y1="40" x2="121.15" y2="220" stroke="#e5e7eb" opacity="0.5"/><line x1="202.29" y1="40" x2="202.29" y2="220" stroke="#e5e7eb" opacity="0.5"/><line x1="283.44" y1="40" x2="283.44" y2="220" stroke="#e5e7eb" opacity="0.5"/><line x1="364.58" y1="40" x2="364.58" y2="220" stroke="#e5e7eb" opacity="0.5"/><line x1="445.73" y1="40" x2="445.73" y2="220" stroke="#e5e7eb" opacity="0.5"/><line x1="526.88" y1="40" x2="526.88" y2="220" stroke="#e5e7eb" opacity="0.5"/><line x1="608.02" y1="40" x2="608.02" y2="220" stroke="#e5e7eb" opacity="0.5"/><line x1="689.17" y1="40" x2="689.17" y2="220" stroke="#e5e7eb" opacity="0.5"/><line x1="770.31" y1="40" x2="770.31" y2="220" stroke="#e5e7eb" opacity="0.5"/><line x1="851.46" y1="40" x2="851.46" y2="220" stroke="#e5e7eb" opacity="0.5"/>
    <line x1="40" y1="220" x2="860" y2="220" stroke="#9ca3af"/>
    <line x1="40" y1="40"   x2="40"   y2="220" stroke="#9ca3af"/>
    <path d="M 40.00 166.63 L 44.27 166.00 L 48.54 166.00 L 52.81 121.18 L 57.08 115.78 L 61.35 115.78 L 65.62 112.00 L 69.90 108.22 L 74.17 108.22 L 78.44 108.22 L 82.71 108.22 L 86.98 108.22 L 91.25 108.22 L 95.52 108.22 L 99.79 108.22 L 104.06 108.22 L 108.33 108.22 L 112.60 108.22 L 116.88 108.22 L 121.15 108.22 L 125.42 108.22 L 129.69 108.22 L 133.96 109.21 L 138.23 109.12 L 142.50 108.76 L 146.77 108.76 L 151.04 108.76 L 155.31 108.76 L 159.58 108.76 L 163.85 108.76 L 168.12 108.76 L 172.40 108.76 L 176.67 108.76 L 180.94 108.76 L 185.21 108.76 L 189.48 108.76 L 193.75 108.76 L 198.02 108.76 L 202.29 108.76 L 206.56 108.76 L 210.83 108.76 L 215.10 108.76 L 219.38 108.76 L 223.65 108.76 L 227.92 108.76 L 232.19 108.76 L 236.46 108.76 L 240.73 108.76 L 245.00 108.76 L 249.27 108.76 L 253.54 108.76 L 257.81 108.76 L 262.08 108.76 L 266.35 108.76 L 270.62 108.76 L 274.90 108.76 L 279.17 108.76 L 283.44 108.76 L 287.71 108.76 L 291.98 108.76 L 296.25 108.76 L 300.52 108.76 L 304.79 108.76 L 309.06 108.76 L 313.33 108.76 L 317.60 108.76 L 321.88 108.76 L 326.15 108.76 L 330.42 108.76 L 334.69 108.76 L 338.96 108.76 L 343.23 108.76 L 347.50 108.76 L 351.77 108.76 L 356.04 108.76 L 360.31 108.76 L 364.58 108.76 L 368.85 108.76 L 373.12 108.76 L 377.40 108.76 L 381.67 108.76 L 385.94 108.76 L 390.21 108.76 L 394.48 108.76 L 398.75 108.76 L 403.02 108.76 L 407.29 108.76 L 411.56 108.76 L 415.83 108.76 L 420.10 108.76 L 424.38 108.76 L 428.65 108.76 L 432.92 108.76 L 437.19 108.76 L 441.46 108.76 L 445.73 108.76 L 450.00 108.76 L 454.27 108.76 L 458.54 108.76 L 462.81 108.76 L 467.08 108.76 L 471.35 108.76 L 475.62 108.76 L 479.90 108.76 L 484.17 108.76 L 488.44 108.76 L 492.71 108.76 L 496.98 108.76 L 501.25 108.76 L 505.52 108.76 L 509.79 108.76 L 514.06 108.76 L 518.33 108.76 L 522.60 108.76 L 526.88 108.76 L 531.15 108.76 L 535.42 108.76 L 539.69 108.76 L 543.96 108.76 L 548.23 108.76 L 552.50 108.76 L 556.77 108.76 L 561.04 108.76 L 565.31 108.76 L 569.58 108.76 L 573.85 108.76 L 578.12 108.76 L 582.40 108.76 L 586.67 108.76 L 590.94 108.76 L 595.21 108.76 L 599.48 108.76 L 603.75 108.76 L 608.02 108.76 L 612.29 108.76 L 616.56 108.76 L 620.83 108.76 L 625.10 108.76 L 629.38 108.76 L 633.65 108.76 L 637.92 108.76 L 642.19 108.76 L 646.46 108.76 L 650.73 108.94 L 655.00 100.39 L 659.27 81.40 L 663.54 81.40 L 667.81 81.40 L 672.08 81.40 L 676.35 81.40 L 680.62 70.78 L 684.90 70.78 L 689.17 70.78 L 693.44 70.78 L 697.71 70.78 L 701.98 70.78 L 706.25 70.78 L 710.52 70.78 L 714.79 70.78 L 719.06 70.78 L 723.33 70.78 L 727.60 70.78 L 731.88 70.78 L 736.15 70.78 L 740.42 70.78 L 744.69 70.78 L 748.96 70.78 L 753.23 70.78 L 757.50 70.78 L 761.77 70.78 L 766.04 70.78 L 770.31 70.78 L 774.58 70.78 L 778.85 70.78 L 783.12 70.78 L 787.40 70.78 L 791.67 70.78 L 795.94 70.78 L 800.21 70.78 L 804.48 70.78 L 808.75 70.78 L 813.02 70.78 L 817.29 70.78 L 821.56 70.78 L 825.83 70.78 L 830.10 70.78 L 834.38 70.78 L 838.65 70.78 L 842.92 70.78 L 847.19 70.78 L 851.46 70.78 L 855.73 70.78 L 860.00 70.78" fill="none" stroke="#111827" stroke-width="2"/>
    <circle cx="860.00" cy="70.78" r="3" fill="#111827"/>
    <text x="40.00" y="235.00" font-size="9" fill="#111827" text-anchor="middle" transform="rotate(-45 40.00 235.00)">28.08.2025</text><text x="121.15" y="235.00" font-size="9" fill="#111827" text-anchor="middle" transform="rotate(-45 121.15 235.00)">28.08.2025</text><text x="202.29" y="235.00" font-size="9" fill="#111827" text-anchor="middle" transform="rotate(-45 202.29 235.00)">08.09.2025</text><text x="283.44" y="235.00" font-size="9" fill="#111827" text-anchor="middle" transform="rotate(-45 283.44 235.00)">20.09.2025</text><text x="364.58" y="235.00" font-size="9" fill="#111827" text-anchor="middle" transform="rotate(-45 364.58 235.00)">08.10.2025</text><text x="445.73" y="235.00" font-size="9" fill="#111827" text-anchor="middle" transform="rotate(-45 445.73 235.00)">27.10.2025</text><text x="526.88" y="235.00" font-size="9" fill="#111827" text-anchor="middle" transform="rotate(-45 526.88 235.00)">13.11.2025</text><text x="608.02" y="235.00" font-size="9" fill="#111827" text-anchor="middle" transform="rotate(-45 608.02 235.00)">28.11.2025</text><text x="689.17" y="235.00" font-size="9" fill="#111827" text-anchor="middle" transform="rotate(-45 689.17 235.00)">09.12.2025</text><text x="770.31" y="235.00" font-size="9" fill="#111827" text-anchor="middle" transform="rotate(-45 770.31 235.00)">22.12.2025</text><text x="851.46" y="235.00" font-size="9" fill="#111827" text-anchor="middle" transform="rotate(-45 851.46 235.00)">09.01.2026</text>
  </g>
</svg>