<svg xmlns="http://www.w3.org/2000/svg" width="900" height="290" style="font-family: -apple-system, BlinkMacSystemFont, 'Segoe UI', Helvetica, Arial, sans-serif;">
  <rect width="100%" height="100%" fill="#0d1117"/>
  <g>
    <line x1="40" y1="220.00" x2="860" y2="220.00" stroke="#30363d"/><text x="32" y="224.00" font-size="10" fill="#c9d1d9" text-anchor="end">0</text><line x1="40" y1="175.00" x2="860" y2="175.00" stroke="#30363d"/><text x="32" y="179.00" font-size="10" fill="#c9d1d9" text-anchor="end">500</text><line x1="40" y1="130.00" x2="860" y2="130.00" stroke="#30363d"/><text x="32" y="134.00" font-size="10" fill="#c9d1d9" text-anchor="end">1k</text><line x1="40" y1="85.00" x2="860" y2="85.00" stroke="#30363d"/><text x="32" y="89.00" font-size="10" fill="#c9d1d9" text-anchor="end">1.5k</text><line x1="40" y1="40.00" x2="860" y2="40.00" stroke="#30363d"/><text x="32" y="44.00" font-size="10" fill="#c9d1d9" text-anchor="end">2k</text>
    <line x1="40.00" y1="40" x2="40.00" y2="220" stroke="#30363d" opacity="0.5"/><line x1="120.58" y1="40" x2="120.58" y2="220" stroke="#30363d" opacity="0.5"/><line x1="201.16" y1="40" x2="201.16" y2="220" stroke="#30363d" opacity="0.5"/><line x1="281.73" y1="40" x2="281.73" y2="220" stroke="#30363d" opacity="0.5"/><line x1="362.31" y1="40" x2="362.31" y2="220" stroke="#30363d" opacity="0.5"/><line x1="442.89" y1="40" x2="442.89" y2="220" stroke="#30363d" opacity="0.5"/><line x1="523.47" y1="40" x2="523.47" y2="220" stroke="#30363d" opacity="0.5"/><line x1="604.05" y1="40" x2="604.05" y2="220" stroke="#30363d" opacity="0.5"/><line x1="684.62" y1="40" x2="684.62" y2="220" stroke="#30363d" opacity="0.5"/><line x1="765.20" y1="40" x2="765.20" y2="220" stroke="#30363d" opacity="0.5"/><line x1="845.78" y1="40" x2="845.78" y2="220" stroke="#30363d" opacity="0.5"/>
    <line x1="40" y1="220" x2="860" y2="220" stroke="#30363d"/>
    <line x1="40" y1="40"   x2="40"   y2="220" stroke="#30363d"/>
    <path d="M 40.00 166.63 L 44.74 166.00 L 49.48 166.00 L 54.22 121.18 L 58.96 115.78 L 63.70 115.78 L 68.44 112.00 L 73.18 108.22 L 77.92 108.22 L 82.66 108.22 L 87.40 108.22 L 92.14 108.22 L 96.88 108.22 L 101.62 108.22 L 106.36 108.22 L 111.10 108.22 L 115.84 108.22 L 120.58 108.22 L 125.32 108.22 L 130.06 108.22 L 134.80 108.22 L 139.54 108.22 L 144.28 109.21 L 149.02 109.12 L 153.76 108.76 L 158.50 108.76 L 163.24 108.76 L 167.98 108.76 L 172.72 108.76 L 177.46 108.76 L 182.20 108.76 L 186.94 108.76 L 191.68 108.76 L 196.42 108.76 L 201.16 108.76 L 205.90 108.76 L 210.64 108.76 L 215.38 108.76 L 220.12 108.76 L 224.86 108.76 L 229.60 108.76 L 234.34 108.76 L 239.08 108.76 L 243.82 108.76 L 248.55 108.76 L 253.29 108.76 L 258.03 108.76 L 262.77 108.76 L 267.51 108.76 L 272.25 108.76 L 276.99 108.76 L 281.73 108.76 L 286.47 108.76 L 291.21 108.76 L 295.95 108.76 L 300.69 108.76 L 305.43 108.76 L 310.17 108.76 L 314.91 108.76 L 319.65 108.76 L 324.39 108.76 L 329.13 108.76 L 333.87 108.76 L 338.61 108.76 L 343.35 108.76 L 348.09 108.76 L 352.83 108.76 L 357.57 108.76 L 362.31 108.76 L 367.05 108.76 L 371.79 108.76 L 376.53 108.76 L 381.27 108.76 L 386.01 108.76 L 390.75 108.76 L 395.49 108.76 L 400.23 108.76 L 404.97 108.76 L 409.71 108.76 L 414.45 108.76 L 419.19 108.76 L 423.93 108.76 L 428.67 108.76 L 433.41 108.76 L 438.15 108.76 L 442.89 108.76 L 447.63 108.76 L 452.37 108.76 L 457.11 108.76 L 461.85 108.76 L 466.59 108.76 L 471.33 108.76 L 476.07 108.76 L 480.81 108.76 L 485.55 108.76 L 490.29 108.76 L 495.03 108.76 L 499.77 108.76 L 504.51 108.76 L 509.25 108.76 L 513.99 108.76 L 518.73 108.76 L 523.47 108.76 L 528.21 108.76 L 532.95 108.76 L 537.69 108.76 L 542.43 108.76 L 547.17 108.76 L 551.91 108.76 L 556.65 108.76 L 561.39 108.76 L 566.13 108.76 L 570.87 108.76 L 575.61 108.76 L 580.35 108.76 L 585.09 108.76 L 589.83 108.76 L 594.57 108.76 L 599.31 108.76 L 604.05 108.76 L 608.79 108.76 L 613.53 108.76 L 618.27 108.76 L 623.01 108.76 L 627.75 108.76 L 632.49 108.76 L 637.23 108.76 L 641.97 108.76 L 646.71 108.76 L 651.45 108.76 L 656.18 108.76 L 660.92 108.76 L 665.66 108.76 L 670.40 108.76 L 675.14 108.76 L 679.88 108.76 L 684.62 108.76 L 689.36 108.76 L 694.10 108.76 L 698.84 108.76 L 703.58 108.76 L 708.32 108.76 L 713.06 108.76 L 717.80 108.94 L 722.54 100.39 L 727.28 81.40 L 732.02 81.40 L 736.76 81.40 L 741.50 81.40 L 746.24 81.40 L 750.98 70.78 L 755.72 70.78 L 760.46 70.78 L 765.20 70.78 L 769.94 70.78 L 774.68 70.78 L 779.42 70.78 L 784.16 70.78 L 788.90 70.78 L 793.64 70.78 L 798.38 70.78 L 803.12 70.78 L 807.86 70.78 L 812.60 70.78 L 817.34 70.78 L 822.08 70.78 L 826.82 70.78 L 831.56 70.78 L 836.30 70.78 L 841.04 70.78 L 845.78 70.78 L 850.52 70.78 L 855.26 70.78 L 860.00 70.78" fill="none" stroke="#3fb950" stroke-width="2"/>
    <circle cx="860.00" cy="70.78" r="3" fill="#3fb950"/>
    <text x="40.00" y="235.00" font-size="9" fill="#c9d1d9" text-anchor="middle" transform="rotate(-45 40.00 235.00)">28.08.2025</text><text x="120.58" y="235.00" font-size="9" fill="#c9d1d9" text-anchor="middle" transform="rotate(-45 120.58 235.00)">28.08.2025</text><text x="201.16" y="235.00" font-size="9" fill="#c9d1d9" text-anchor="middle" transform="rotate(-45 201.16 235.00)">05.09.2025</text><text x="281.73" y="235.00" font-size="9" fill="#c9d1d9" text-anchor="middle" transform="rotate(-45 281.73 235.00)">15.09.2025</text><text x="362.31" y="235.00" font-size="9" fill="#c9d1d9" text-anchor="middle" transform="rotate(-45 362.31 235.00)">01.10.2025</text><text x="442.89" y="235.00" font-size="9" fill="#c9d1d9" text-anchor="middle" transform="rotate(-45 442.89 235.00)">17.10.2025</text><text x="523.47" y="235.00" font-size="9" fill="#c9d1d9" text-anchor="middle" transform="rotate(-45 523.47 235.00)">01.11.2025</text><text x="604.05" y="235.00" font-size="9" fill="#c9d1d9" text-anchor="middle" transform="rotate(-45 604.05 235.00)">18.11.2025</text><text x="684.62" y="235.00" font-size="9" fill="#c9d1d9" text-anchor="middle" transform="rotate(-45 684.62 235.00)">28.11.2025</text><text x="765.20" y="235.00" font-size="9" fill="#c9d1d9" text-anchor="middle" transform="rotate(-45 765.20 235.00)">10.12.2025</text><text x="845.78" y="235.00" font-size="9" fill="#c9d1d9" text-anchor="middle" transform="rotate(-45 845.78 235.00)">21.12.2025</text>
  </g>
</svg>