<svg xmlns="http://www.w3.org/2000/svg" width="900" height="290" style="font-family: -apple-system, BlinkMacSystemFont, 'Segoe UI', Helvetica, Arial, sans-serif;">
  <rect width="100%" height="100%" fill="white"/>
  <g>
    <line x1="40" y1="220.00" x2="860" y2="220.00" stroke="#e5e7eb"/><text x="32" y="224.00" font-size="10" fill="#111827" text-anchor="end">0</text><line x1="40" y1="175.00" x2="860" y2="175.00" stroke="#e5e7eb"/><text x="32" y="179.00" font-size="10" fill="#111827" text-anchor="end">500</text><line x1="40" y1="130.00" x2="860" y2="130.00" stroke="#e5e7eb"/><text x="32" y="134.00" font-size="10" fill="#111827" text-anchor="end">1k</text><line x1="40" y1="85.00" x2="860" y2="85.00" stroke="#e5e7eb"/><text x="32" y="89.00" font-size="10" fill="#111827" text-anchor="end">1.5k</text><line x1="40" y1="40.00" x2="860" y2="40.00" stroke="#e5e7eb"/><text x="32" y="44.00" font-size="10" fill="#111827" text-anchor="end">2k</text>
    <line x1="40.00" y1="40" x2="40.00" y2="220" stroke="#e5e7eb" opacity="0.5"/><line x1="120.99" y1="40" x2="120.99" y2="220" stroke="#e5e7eb" opacity="0.5"/><line x1="201.98" y1="40" x2="201.98" y2="220" stroke="#e5e7eb" opacity="0.5"/><line x1="282.96" y1="40" x2="282.96" y2="220" stroke="#e5e7eb" opacity="0.5"/><line x1="363.95" y1="40" x2="363.95" y2="220" stroke="#e5e7eb" opacity="0.5"/><line x1="444.94" y1="40" x2="444.94" y2="220" stroke="#e5e7eb" opacity="0.5"/><line x1="525.93" y1="40" x2="525.93" y2="220" stroke="#e5e7eb" opacity="0.5"/><line x1="606.91" y1="40" x2="606.91" y2="220" stroke="#e5e7eb" opacity="0.5"/><line x1="687.90" y1="40" x2="687.90" y2="220" stroke="#e5e7eb" opacity="0.5"/><line x1="768.89" y1="40" x2="768.89" y2="220" stroke="#e5e7eb" opacity="0.5"/><line x1="849.88" y1="40" x2="849.88" y2="220" stroke="#e5e7eb" opacity="0.5"/>
    <line x1="40" y1="220" x2="860" y2="220" stroke="#9ca3af"/>
    <line x1="40" y1="40"   x2="40"   y2="220" stroke="#9ca3af"/>
    <path d="M 40.00 166.63 L 50.12 166.00 L 60.25 166.00 L 70.37 121.18 L 80.49 115.78 L 90.62 115.78 L 100.74 112.00 L 110.86 108.22 L 120.99 108.22 L 131.11 108.22 L 141.23 108.22 L 151.36 108.22 L 161.48 108.22 L 171.60 108.22 L 181.73 108.22 L 191.85 108.22 L 201.98 108.22 L 212.10 108.22 L 222.22 108.22 L 232.35 108.22 L 242.47 108.22 L 252.59 108.22 L 262.72 109.21 L 272.84 109.12 L 282.96 108.76 L 293.09 108.76 L 303.21 108.76 L 313.33 108.76 L 323.46 108.76 L 333.58 108.76 L 343.70 108.76 L 353.83 108.76 L 363.95 108.76 L 374.07 108.76 L 384.20 108.76 L 394.32 108.76 L 404.44 108.76 L 414.57 108.76 L 424.69 108.76 L 434.81 108.76 L 444.94 108.76 L 455.06 108.76 L 465.19 108.76 L 475.31 108.76 L 485.43 108.76 L 495.56 108.76 L 505.68 108.76 L 515.80 108.76 L 525.93 108.76 L 536.05 108.76 L 546.17 108.76 L 556.30 108.76 L 566.42 108.76 L 576.54 108.76 L 586.67 108.76 L 596.79 108.76 L 606.91 108.76 L 617.04 108.76 L 627.16 108.76 L 637.28 108.76 L 647.41 108.76 L 657.53 108.76 L 667.65 108.76 L 677.78 108.76 L 687.90 108.76 L 698.02 108.76 L 708.15 108.76 L 718.27 108.76 L 728.40 108.76 L 738.52 108.76 L 748.64 108.76 L 758.77 108.76 L 768.89 108.76 L 779.01 108.76 L 789.14 108.76 L 799.26 108.76 L 809.38 108.76 L 819.51 108.76 L 829.63 108.76 L 839.75 108.76 L 849.88 108.76 L 860.00 108.76" fill="none" stroke="#111827" stroke-width="2"/>
    <circle cx="860.00" cy="108.76" r="3" fill="#111827"/>
    <text x="40.00" y="235.00" font-size="9" fill="#111827" text-anchor="middle" transform="rotate(-45 40.00 235.00)">28.08.2025</text><text x="120.99" y="235.00" font-size="9" fill="#111827" text-anchor="middle" transform="rotate(-45 120.99 235.00)">28.08.2025</text><text x="201.98" y="235.00" font-size="9" fill="#111827" text-anchor="middle" transform="rotate(-45 201.98 235.00)">28.08.2025</text><text x="282.96" y="235.00" font-size="9" fill="#111827" text-anchor="middle" transform="rotate(-45 282.96 235.00)">28.08.2025</text><text x="363.95" y="235.00" font-size="9" fill="#111827" text-anchor="middle" transform="rotate(-45 363.95 235.00)">03.09.2025</text><text x="444.94" y="235.00" font-size="9" fill="#111827" text-anchor="middle" transform="rotate(-45 444.94 235.00)">09.09.2025</text><text x="525.93" y="235.00" font-size="9" fill="#111827" text-anchor="middle" transform="rotate(-45 525.93 235.00)">15.09.2025</text><text x="606.91" y="235.00" font-size="9" fill="#111827" text-anchor="middle" transform="rotate(-45 606.91 235.00)">21.09.2025</text><text x="687.90" y="235.00" font-size="9" fill="#111827" text-anchor="middle" transform="rotate(-45 687.90 235.00)">29.09.2025</text><text x="768.89" y="235.00" font-size="9" fill="#111827" text-anchor="middle" transform="rotate(-45 768.89 235.00)">07.10.2025</text><text x="849.88" y="235.00" font-size="9" fill="#111827" text-anchor="middle" transform="rotate(-45 849.88 235.00)">15.10.2025</text>
  </g>
</svg>