<svg xmlns="http://www.w3.org/2000/svg" width="900" height="290" style="font-family: -apple-system, BlinkMacSystemFont, 'Segoe UI', Helvetica, Arial, sans-serif;">
  <rect width="100%" height="100%" fill="#0d1117"/>
  <g>
    <line x1="40" y1="220.00" x2="860" y2="220.00" stroke="#30363d"/><text x="32" y="224.00" font-size="10" fill="#c9d1d9" text-anchor="end">0</text><line x1="40" y1="175.00" x2="860" y2="175.00" stroke="#30363d"/><text x="32" y="179.00" font-size="10" fill="#c9d1d9" text-anchor="end">500</text><line x1="40" y1="130.00" x2="860" y2="130.00" stroke="#30363d"/><text x="32" y="134.00" font-size="10" fill="#c9d1d9" text-anchor="end">1k</text><line x1="40" y1="85.00" x2="860" y2="85.00" stroke="#30363d"/><text x="32" y="89.00" font-size="10" fill="#c9d1d9" text-anchor="end">1.5k</text><line x1="40" y1="40.00" x2="860" y2="40.00" stroke="#30363d"/><text x="32" y="44.00" font-size="10" fill="#c9d1d9" text-anchor="end">2k</text>
    <line x1="40.00" y1="40" x2="40.00" y2="220" stroke="#30363d" opacity="0.5"/><line x1="116.28" y1="40" x2="116.28" y2="220" stroke="#30363d" opacity="0.5"/><line x1="192.56" y1="40" x2="192.56" y2="220" stroke="#30363d" opacity="0.5"/><line x1="268.84" y1="40" x2="268.84" y2="220" stroke="#30363d" opacity="0.5"/><line x1="345.12" y1="40" x2="345.12" y2="220" stroke="#30363d" opacity="0.5"/><line x1="421.40" y1="40" x2="421.40" y2="220" stroke="#30363d" opacity="0.5"/><line x1="497.67" y1="40" x2="497.67" y2="220" stroke="#30363d" opacity="0.5"/><line x1="573.95" y1="40" x2="573.95" y2="220" stroke="#30363d" opacity="0.5"/><line x1="650.23" y1="40" x2="650.23" y2="220" stroke="#30363d" opacity="0.5"/><line x1="726.51" y1="40" x2="726.51" y2="220" stroke="#30363d" opacity="0.5"/><line x1="802.79" y1="40" x2="802.79" y2="220" stroke="#30363d" opacity="0.5"/>
    <line x1="40" y1="220" x2="860" y2="220" stroke="#30363d"/>
    <line x1="40" y1="40"   x2="40"   y2="220" stroke="#30363d"/>
    <path d="M 40.00 166.63 L 49.53 166.00 L 59.07 166.00 L 68.60 121.18 L 78.14 115.78 L 87.67 115.78 L 97.21 112.00 L 106.74 108.22 L 116.28 108.22 L 125.81 108.22 L 135.35 108.22 L 144.88 108.22 L 154.42 108.22 L 163.95 108.22 L 173.49 108.22 L 183.02 108.22 L 192.56 108.22 L 202.09 108.22 L 211.63 108.22 L 221.16 108.22 L 230.70 108.22 L 240.23 108.22 L 249.77 109.21 L 259.30 109.12 L 268.84 108.76 L 278.37 108.76 L 287.91 108.76 L 297.44 108.76 L 306.98 108.76 L 316.51 108.76 L 326.05 108.76 L 335.58 108.76 L 345.12 108.76 L 354.65 108.76 L 364.19 108.76 L 373.72 108.76 L 383.26 108.76 L 392.79 108.76 L 402.33 108.76 L 411.86 108.76 L 421.40 108.76 L 430.93 108.76 L 440.47 108.76 L 450.00 108.76 L 459.53 108.76 L 469.07 108.76 L 478.60 108.76 L 488.14 108.76 L 497.67 108.76 L 507.21 108.76 L 516.74 108.76 L 526.28 108.76 L 535.81 108.76 L 545.35 108.76 L 554.88 108.76 L 564.42 108.76 L 573.95 108.76 L 583.49 108.76 L 593.02 108.76 L 602.56 108.76 L 612.09 108.76 L 621.63 108.76 L 631.16 108.76 L 640.70 108.76 L 650.23 108.76 L 659.77 108.76 L 669.30 108.76 L 678.84 108.76 L 688.37 108.76 L 697.91 108.76 L 707.44 108.76 L 716.98 108.76 L 726.51 108.76 L 736.05 108.76 L 745.58 108.76 L 755.12 108.76 L 764.65 108.76 L 774.19 108.76 L 783.72 108.76 L 793.26 108.76 L 802.79 108.76 L 812.33 108.76 L 821.86 108.76 L 831.40 108.76 L 840.93 108.76 L 850.47 108.76 L 860.00 108.76" fill="none" stroke="#3fb950" stroke-width="2"/>
    <circle cx="860.00" cy="108.76" r="3" fill="#3fb950"/>
    <text x="40.00" y="235.00" font-size="9" fill="#c9d1d9" text-anchor="middle" transform="rotate(-45 40.00 235.00)">28.08.2025</text><text x="116.28" y="235.00" font-size="9" fill="#c9d1d9" text-anchor="middle" transform="rotate(-45 116.28 235.00)">28.08.2025</text><text x="192.56" y="235.00" font-size="9" fill="#c9d1d9" text-anchor="middle" transform="rotate(-45 192.56 235.00)">28.08.2025</text><text x="268.84" y="235.00" font-size="9" fill="#c9d1d9" text-anchor="middle" transform="rotate(-45 268.84 235.00)">28.08.2025</text><text x="345.12" y="235.00" font-size="9" fill="#c9d1d9" text-anchor="middle" transform="rotate(-45 345.12 235.00)">03.09.2025</text><text x="421.40" y="235.00" font-size="9" fill="#c9d1d9" text-anchor="middle" transform="rotate(-45 421.40 235.00)">09.09.2025</text><text x="497.67" y="235.00" font-size="9" fill="#c9d1d9" text-anchor="middle" transform="rotate(-45 497.67 235.00)">15.09.2025</text><text x="573.95" y="235.00" font-size="9" fill="#c9d1d9" text-anchor="middle" transform="rotate(-45 573.95 235.00)">21.09.2025</text><text x="650.23" y="235.00" font-size="9" fill="#c9d1d9" text-anchor="middle" transform="rotate(-45 650.23 235.00)">29.09.2025</text><text x="726.51" y="235.00" font-size="9" fill="#c9d1d9" text-anchor="middle" transform="rotate(-45 726.51 235.00)">07.10.2025</text><text x="802.79" y="235.00" font-size="9" fill="#c9d1d9" text-anchor="middle" transform="rotate(-45 802.79 235.00)">15.10.2025</text>
  </g>
</svg>