<svg xmlns="http://www.w3.org/2000/svg" width="900" height="290" style="font-family: -apple-system, BlinkMacSystemFont, 'Segoe UI', Helvetica, Arial, sans-serif;">
  <rect width="100%" height="100%" fill="#0d1117"/>
  <g>
    <line x1="40" y1="220.00" x2="860" y2="220.00" stroke="#30363d"/><text x="32" y="224.00" font-size="10" fill="#c9d1d9" text-anchor="end">0</text><line x1="40" y1="175.00" x2="860" y2="175.00" stroke="#30363d"/><text x="32" y="179.00" font-size="10" fill="#c9d1d9" text-anchor="end">500</text><line x1="40" y1="130.00" x2="860" y2="130.00" stroke="#30363d"/><text x="32" y="134.00" font-size="10" fill="#c9d1d9" text-anchor="end">1k</text><line x1="40" y1="85.00" x2="860" y2="85.00" stroke="#30363d"/><text x="32" y="89.00" font-size="10" fill="#c9d1d9" text-anchor="end">1.5k</text><line x1="40" y1="40.00" x2="860" y2="40.00" stroke="#30363d"/><text x="32" y="44.00" font-size="10" fill="#c9d1d9" text-anchor="end">2k</text>
    <line x1="40.00" y1="40" x2="40.00" y2="220" stroke="#30363d" opacity="0.5"/><line x1="121.46" y1="40" x2="121.46" y2="220" stroke="#30363d" opacity="0.5"/><line x1="202.91" y1="40" x2="202.91" y2="220" stroke="#30363d" opacity="0.5"/><line x1="284.37" y1="40" x2="284.37" y2="220" stroke="#30363d" opacity="0.5"/><line x1="365.83" y1="40" x2="365.83" y2="220" stroke="#30363d" opacity="0.5"/><line x1="447.28" y1="40" x2="447.28" y2="220" stroke="#30363d" opacity="0.5"/><line x1="528.74" y1="40" x2="528.74" y2="220" stroke="#30363d" opacity="0.5"/><line x1="610.20" y1="40" x2="610.20" y2="220" stroke="#30363d" opacity="0.5"/><line x1="691.66" y1="40" x2="691.66" y2="220" stroke="#30363d" opacity="0.5"/><line x1="773.11" y1="40" x2="773.11" y2="220" stroke="#30363d" opacity="0.5"/><line x1="854.57" y1="40" x2="854.57" y2="220" stroke="#30363d" opacity="0.5"/>
    <line x1="40" y1="220" x2="860" y2="220" stroke="#30363d"/>
    <line x1="40" y1="40"   x2="40"   y2="220" stroke="#30363d"/>
    <path d="M 40.00 166.63 L 45.43 166.00 L 50.86 166.00 L 56.29 121.18 L 61.72 115.78 L 67.15 115.78 L 72.58 112.00 L 78.01 108.22 L 83.44 108.22 L 88.87 108.22 L 94.30 108.22 L 99.74 108.22 L 105.17 108.22 L 110.60 108.22 L 116.03 108.22 L 121.46 108.22 L 126.89 108.22 L 132.32 108.22 L 137.75 108.22 L 143.18 108.22 L 148.61 108.22 L 154.04 108.22 L 159.47 109.21 L 164.90 109.12 L 170.33 108.76 L 175.76 108.76 L 181.19 108.76 L 186.62 108.76 L 192.05 108.76 L 197.48 108.76 L 202.91 108.76 L 208.34 108.76 L 213.77 108.76 L 219.21 108.76 L 224.64 108.76 L 230.07 108.76 L 235.50 108.76 L 240.93 108.76 L 246.36 108.76 L 251.79 108.76 L 257.22 108.76 L 262.65 108.76 L 268.08 108.76 L 273.51 108.76 L 278.94 108.76 L 284.37 108.76 L 289.80 108.76 L 295.23 108.76 L 300.66 108.76 L 306.09 108.76 L 311.52 108.76 L 316.95 108.76 L 322.38 108.76 L 327.81 108.76 L 333.25 108.76 L 338.68 108.76 L 344.11 108.76 L 349.54 108.76 L 354.97 108.76 L 360.40 108.76 L 365.83 108.76 L 371.26 108.76 L 376.69 108.76 L 382.12 108.76 L 387.55 108.76 L 392.98 108.76 L 398.41 108.76 L 403.84 108.76 L 409.27 108.76 L 414.70 108.76 L 420.13 108.76 L 425.56 108.76 L 430.99 108.76 L 436.42 108.76 L 441.85 108.76 L 447.28 108.76 L 452.72 108.76 L 458.15 108.76 L 463.58 108.76 L 469.01 108.76 L 474.44 108.76 L 479.87 108.76 L 485.30 108.76 L 490.73 108.76 L 496.16 108.76 L 501.59 108.76 L 507.02 108.76 L 512.45 108.76 L 517.88 108.76 L 523.31 108.76 L 528.74 108.76 L 534.17 108.76 L 539.60 108.76 L 545.03 108.76 L 550.46 108.76 L 555.89 108.76 L 561.32 108.76 L 566.75 108.76 L 572.19 108.76 L 577.62 108.76 L 583.05 108.76 L 588.48 108.76 L 593.91 108.76 L 599.34 108.76 L 604.77 108.76 L 610.20 108.76 L 615.63 108.76 L 621.06 108.76 L 626.49 108.76 L 631.92 108.76 L 637.35 108.76 L 642.78 108.76 L 648.21 108.76 L 653.64 108.76 L 659.07 108.76 L 664.50 108.76 L 669.93 108.76 L 675.36 108.76 L 680.79 108.76 L 686.23 108.76 L 691.66 108.76 L 697.09 108.76 L 702.52 108.76 L 707.95 108.76 L 713.38 108.76 L 718.81 108.76 L 724.24 108.76 L 729.67 108.76 L 735.10 108.76 L 740.53 108.76 L 745.96 108.76 L 751.39 108.76 L 756.82 108.76 L 762.25 108.76 L 767.68 108.76 L 773.11 108.76 L 778.54 108.76 L 783.97 108.76 L 789.40 108.76 L 794.83 108.76 L 800.26 108.76 L 805.70 108.76 L 811.13 108.76 L 816.56 108.94 L 821.99 100.39 L 827.42 81.40 L 832.85 81.40 L 838.28 81.40 L 843.71 81.40 L 849.14 81.40 L 854.57 70.78 L 860.00 70.78" fill="none" stroke="#3fb950" stroke-width="2"/>
    <circle cx="860.00" cy="70.78" r="3" fill="#3fb950"/>
    <text x="40.00" y="235.00" font-size="9" fill="#c9d1d9" text-anchor="middle" transform="rotate(-45 40.00 235.00)">28.08.2025</text><text x="121.46" y="235.00" font-size="9" fill="#c9d1d9" text-anchor="middle" transform="rotate(-45 121.46 235.00)">28.08.2025</text><text x="202.91" y="235.00" font-size="9" fill="#c9d1d9" text-anchor="middle" transform="rotate(-45 202.91 235.00)">01.09.2025</text><text x="284.37" y="235.00" font-size="9" fill="#c9d1d9" text-anchor="middle" transform="rotate(-45 284.37 235.00)">14.09.2025</text><text x="365.83" y="235.00" font-size="9" fill="#c9d1d9" text-anchor="middle" transform="rotate(-45 365.83 235.00)">23.09.2025</text><text x="447.28" y="235.00" font-size="9" fill="#c9d1d9" text-anchor="middle" transform="rotate(-45 447.28 235.00)">07.10.2025</text><text x="528.74" y="235.00" font-size="9" fill="#c9d1d9" text-anchor="middle" transform="rotate(-45 528.74 235.00)">22.10.2025</text><text x="610.20" y="235.00" font-size="9" fill="#c9d1d9" text-anchor="middle" transform="rotate(-45 610.20 235.00)">04.11.2025</text><text x="691.66" y="235.00" font-size="9" fill="#c9d1d9" text-anchor="middle" transform="rotate(-45 691.66 235.00)">19.11.2025</text><text x="773.11" y="235.00" font-size="9" fill="#c9d1d9" text-anchor="middle" transform="rotate(-45 773.11 235.00)">28.11.2025</text><text x="854.57" y="235.00" font-size="9" fill="#c9d1d9" text-anchor="middle" transform="rotate(-45 854.57 235.00)">07.12.2025</text>
  </g>
</svg>