<svg xmlns="http://www.w3.org/2000/svg" width="900" height="290" style="font-family: -apple-system, BlinkMacSystemFont, 'Segoe UI', Helvetica, Arial, sans-serif;">
  <rect width="100%" height="100%" fill="white"/>
  <g>
    <line x1="40" y1="220.00" x2="860" y2="220.00" stroke="#e5e7eb"/><text x="32" y="224.00" font-size="10" fill="#111827" text-anchor="end">0</text><line x1="40" y1="175.00" x2="860" y2="175.00" stroke="#e5e7eb"/><text x="32" y="179.00" font-size="10" fill="#111827" text-anchor="end">500</text><line x1="40" y1="130.00" x2="860" y2="130.00" stroke="#e5e7eb"/><text x="32" y="134.00" font-size="10" fill="#111827" text-anchor="end">1k</text><line x1="40" y1="85.00" x2="860" y2="85.00" stroke="#e5e7eb"/><text x="32" y="89.00" font-size="10" fill="#111827" text-anchor="end">1.5k</text><line x1="40" y1="40.00" x2="860" y2="40.00" stroke="#e5e7eb"/><text x="32" y="44.00" font-size="10" fill="#111827" text-anchor="end">2k</text>
    <line x1="40.00" y1="40" x2="40.00" y2="220" stroke="#e5e7eb" opacity="0.5"/><line x1="122.43" y1="40" x2="122.43" y2="220" stroke="#e5e7eb" opacity="0.5"/><line x1="204.87" y1="40" x2="204.87" y2="220" stroke="#e5e7eb" opacity="0.5"/><line x1="287.30" y1="40" x2="287.30" y2="220" stroke="#e5e7eb" opacity="0.5"/><line x1="369.74" y1="40" x2="369.74" y2="220" stroke="#e5e7eb" opacity="0.5"/><line x1="452.17" y1="40" x2="452.17" y2="220" stroke="#e5e7eb" opacity="0.5"/><line x1="534.60" y1="40" x2="534.60" y2="220" stroke="#e5e7eb" opacity="0.5"/><line x1="617.04" y1="40" x2="617.04" y2="220" stroke="#e5e7eb" opacity="0.5"/><line x1="699.47" y1="40" x2="699.47" y2="220" stroke="#e5e7eb" opacity="0.5"/><line x1="781.90" y1="40" x2="781.90" y2="220" stroke="#e5e7eb" opacity="0.5"/>
    <line x1="40" y1="220" x2="860" y2="220" stroke="#9ca3af"/>
    <line x1="40" y1="40"   x2="40"   y2="220" stroke="#9ca3af"/>
    <path d="M 40.00 166.63 L 44.34 166.00 L 48.68 166.00 L 53.02 121.18 L 57.35 115.78 L 61.69 115.78 L 66.03 112.00 L 70.37 108.22 L 74.71 108.22 L 79.05 108.22 L 83.39 108.22 L 87.72 108.22 L 92.06 108.22 L 96.40 108.22 L 100.74 108.22 L 105.08 108.22 L 109.42 108.22 L 113.76 108.22 L 118.10 108.22 L 122.43 108.22 L 126.77 108.22 L 131.11 108.22 L 135.45 109.21 L 139.79 109.12 L 144.13 108.76 L 148.47 108.76 L 152.80 108.76 L 157.14 108.76 L 161.48 108.76 L 165.82 108.76 L 170.16 108.76 L 174.50 108.76 L 178.84 108.76 L 183.17 108.76 L 187.51 108.76 L 191.85 108.76 L 196.19 108.76 L 200.53 108.76 L 204.87 108.76 L 209.21 108.76 L 213.54 108.76 L 217.88 108.76 L 222.22 108.76 L 226.56 108.76 L 230.90 108.76 L 235.24 108.76 L 239.58 108.76 L 243.92 108.76 L 248.25 108.76 L 252.59 108.76 L 256.93 108.76 L 261.27 108.76 L 265.61 108.76 L 269.95 108.76 L 274.29 108.76 L 278.62 108.76 L 282.96 108.76 L 287.30 108.76 L 291.64 108.76 L 295.98 108.76 L 300.32 108.76 L 304.66 108.76 L 308.99 108.76 L 313.33 108.76 L 317.67 108.76 L 322.01 108.76 L 326.35 108.76 L 330.69 108.76 L 335.03 108.76 L 339.37 108.76 L 343.70 108.76 L 348.04 108.76 L 352.38 108.76 L 356.72 108.76 L 361.06 108.76 L 365.40 108.76 L 369.74 108.76 L 374.07 108.76 L 378.41 108.76 L 382.75 108.76 L 387.09 108.76 L 391.43 108.76 L 395.77 108.76 L 400.11 108.76 L 404.44 108.76 L 408.78 108.76 L 413.12 108.76 L 417.46 108.76 L 421.80 108.76 L 426.14 108.76 L 430.48 108.76 L 434.81 108.76 L 439.15 108.76 L 443.49 108.76 L 447.83 108.76 L 452.17 108.76 L 456.51 108.76 L 460.85 108.76 L 465.19 108.76 L 469.52 108.76 L 473.86 108.76 L 478.20 108.76 L 482.54 108.76 L 486.88 108.76 L 491.22 108.76 L 495.56 108.76 L 499.89 108.76 L 504.23 108.76 L 508.57 108.76 L 512.91 108.76 L 517.25 108.76 L 521.59 108.76 L 525.93 108.76 L 530.26 108.76 L 534.60 108.76 L 538.94 108.76 L 543.28 108.76 L 547.62 108.76 L 551.96 108.76 L 556.30 108.76 L 560.63 108.76 L 564.97 108.76 L 569.31 108.76 L 573.65 108.76 L 577.99 108.76 L 582.33 108.76 L 586.67 108.76 L 591.01 108.76 L 595.34 108.76 L 599.68 108.76 L 604.02 108.76 L 608.36 108.76 L 612.70 108.76 L 617.04 108.76 L 621.38 108.76 L 625.71 108.76 L 630.05 108.76 L 634.39 108.76 L 638.73 108.76 L 643.07 108.76 L 647.41 108.76 L 651.75 108.76 L 656.08 108.76 L 660.42 108.94 L 664.76 100.39 L 669.10 81.40 L 673.44 81.40 L 677.78 81.40 L 682.12 81.40 L 686.46 81.40 L 690.79 70.78 L 695.13 70.78 L 699.47 70.78 L 703.81 70.78 L 708.15 70.78 L 712.49 70.78 L 716.83 70.78 L 721.16 70.78 L 725.50 70.78 L 729.84 70.78 L 734.18 70.78 L 738.52 70.78 L 742.86 70.78 L 747.20 70.78 L 751.53 70.78 L 755.87 70.78 L 760.21 70.78 L 764.55 70.78 L 768.89 70.78 L 773.23 70.78 L 777.57 70.78 L 781.90 70.78 L 786.24 70.78 L 790.58 70.78 L 794.92 70.78 L 799.26 70.78 L 803.60 70.78 L 807.94 70.78 L 812.28 70.78 L 816.61 70.78 L 820.95 70.78 L 825.29 70.78 L 829.63 70.78 L 833.97 70.78 L 838.31 70.78 L 842.65 70.78 L 846.98 70.78 L 851.32 70.78 L 855.66 70.78 L 860.00 70.78" fill="none" stroke="#111827" stroke-width="2"/>
    <circle cx="860.00" cy="70.78" r="3" fill="#111827"/>
    <text x="40.00" y="235.00" font-size="9" fill="#111827" text-anchor="middle" transform="rotate(-45 40.00 235.00)">28.08.2025</text><text x="122.43" y="235.00" font-size="9" fill="#111827" text-anchor="middle" transform="rotate(-45 122.43 235.00)">28.08.2025</text><text x="204.87" y="235.00" font-size="9" fill="#111827" text-anchor="middle" transform="rotate(-45 204.87 235.00)">08.09.2025</text><text x="287.30" y="235.00" font-size="9" fill="#111827" text-anchor="middle" transform="rotate(-45 287.30 235.00)">20.09.2025</text><text x="369.74" y="235.00" font-size="9" fill="#111827" text-anchor="middle" transform="rotate(-45 369.74 235.00)">08.10.2025</text><text x="452.17" y="235.00" font-size="9" fill="#111827" text-anchor="middle" transform="rotate(-45 452.17 235.00)">27.10.2025</text><text x="534.60" y="235.00" font-size="9" fill="#111827" text-anchor="middle" transform="rotate(-45 534.60 235.00)">13.11.2025</text><text x="617.04" y="235.00" font-size="9" fill="#111827" text-anchor="middle" transform="rotate(-45 617.04 235.00)">28.11.2025</text><text x="699.47" y="235.00" font-size="9" fill="#111827" text-anchor="middle" transform="rotate(-45 699.47 235.00)">09.12.2025</text><text x="781.90" y="235.00" font-size="9" fill="#111827" text-anchor="middle" transform="rotate(-45 781.90 235.00)">22.12.2025</text>
  </g>
</svg>