<svg xmlns="http://www.w3.org/2000/svg" width="900" height="290" style="font-family: -apple-system, BlinkMacSystemFont, 'Segoe UI', Helvetica, Arial, sans-serif;">
  <rect width="100%" height="100%" fill="white"/>
  <g>
    <line x1="40" y1="220.00" x2="860" y2="220.00" stroke="#e5e7eb"/><text x="32" y="224.00" font-size="10" fill="#111827" text-anchor="end">0</text><line x1="40" y1="175.00" x2="860" y2="175.00" stroke="#e5e7eb"/><text x="32" y="179.00" font-size="10" fill="#111827" text-anchor="end">500</text><line x1="40" y1="130.00" x2="860" y2="130.00" stroke="#e5e7eb"/><text x="32" y="134.00" font-size="10" fill="#111827" text-anchor="end">1k</text><line x1="40" y1="85.00" x2="860" y2="85.00" stroke="#e5e7eb"/><text x="32" y="89.00" font-size="10" fill="#111827" text-anchor="end">1.5k</text><line x1="40" y1="40.00" x2="860" y2="40.00" stroke="#e5e7eb"/><text x="32" y="44.00" font-size="10" fill="#111827" text-anchor="end">2k</text>
    <line x1="40.00" y1="40" x2="40.00" y2="220" stroke="#e5e7eb" opacity="0.5"/><line x1="120.73" y1="40" x2="120.73" y2="220" stroke="#e5e7eb" opacity="0.5"/><line x1="201.45" y1="40" x2="201.45" y2="220" stroke="#e5e7eb" opacity="0.5"/><line x1="282.18" y1="40" x2="282.18" y2="220" stroke="#e5e7eb" opacity="0.5"/><line x1="362.90" y1="40" x2="362.90" y2="220" stroke="#e5e7eb" opacity="0.5"/><line x1="443.63" y1="40" x2="443.63" y2="220" stroke="#e5e7eb" opacity="0.5"/><line x1="524.35" y1="40" x2="524.35" y2="220" stroke="#e5e7eb" opacity="0.5"/><line x1="605.08" y1="40" x2="605.08" y2="220" stroke="#e5e7eb" opacity="0.5"/><line x1="685.80" y1="40" x2="685.80" y2="220" stroke="#e5e7eb" opacity="0.5"/><line x1="766.53" y1="40" x2="766.53" y2="220" stroke="#e5e7eb" opacity="0.5"/><line x1="847.25" y1="40" x2="847.25" y2="220" stroke="#e5e7eb" opacity="0.5"/>
    <line x1="40" y1="220" x2="860" y2="220" stroke="#9ca3af"/>
    <line x1="40" y1="40"   x2="40"   y2="220" stroke="#9ca3af"/>
    <path d="M 40.00 166.63 L 44.25 166.00 L 48.50 166.00 L 52.75 121.18 L 56.99 115.78 L 61.24 115.78 L 65.49 112.00 L 69.74 108.22 L 73.99 108.22 L 78.24 108.22 L 82.49 108.22 L 86.74 108.22 L 90.98 108.22 L 95.23 108.22 L 99.48 108.22 L 103.73 108.22 L 107.98 108.22 L 112.23 108.22 L 116.48 108.22 L 120.73 108.22 L 124.97 108.22 L 129.22 108.22 L 133.47 109.21 L 137.72 109.12 L 141.97 108.76 L 146.22 108.76 L 150.47 108.76 L 154.72 108.76 L 158.96 108.76 L 163.21 108.76 L 167.46 108.76 L 171.71 108.76 L 175.96 108.76 L 180.21 108.76 L 184.46 108.76 L 188.70 108.76 L 192.95 108.76 L 197.20 108.76 L 201.45 108.76 L 205.70 108.76 L 209.95 108.76 L 214.20 108.76 L 218.45 108.76 L 222.69 108.76 L 226.94 108.76 L 231.19 108.76 L 235.44 108.76 L 239.69 108.76 L 243.94 108.76 L 248.19 108.76 L 252.44 108.76 L 256.68 108.76 L 260.93 108.76 L 265.18 108.76 L 269.43 108.76 L 273.68 108.76 L 277.93 108.76 L 282.18 108.76 L 286.42 108.76 L 290.67 108.76 L 294.92 108.76 L 299.17 108.76 L 303.42 108.76 L 307.67 108.76 L 311.92 108.76 L 316.17 108.76 L 320.41 108.76 L 324.66 108.76 L 328.91 108.76 L 333.16 108.76 L 337.41 108.76 L 341.66 108.76 L 345.91 108.76 L 350.16 108.76 L 354.40 108.76 L 358.65 108.76 L 362.90 108.76 L 367.15 108.76 L 371.40 108.76 L 375.65 108.76 L 379.90 108.76 L 384.15 108.76 L 388.39 108.76 L 392.64 108.76 L 396.89 108.76 L 401.14 108.76 L 405.39 108.76 L 409.64 108.76 L 413.89 108.76 L 418.13 108.76 L 422.38 108.76 L 426.63 108.76 L 430.88 108.76 L 435.13 108.76 L 439.38 108.76 L 443.63 108.76 L 447.88 108.76 L 452.12 108.76 L 456.37 108.76 L 460.62 108.76 L 464.87 108.76 L 469.12 108.76 L 473.37 108.76 L 477.62 108.76 L 481.87 108.76 L 486.11 108.76 L 490.36 108.76 L 494.61 108.76 L 498.86 108.76 L 503.11 108.76 L 507.36 108.76 L 511.61 108.76 L 515.85 108.76 L 520.10 108.76 L 524.35 108.76 L 528.60 108.76 L 532.85 108.76 L 537.10 108.76 L 541.35 108.76 L 545.60 108.76 L 549.84 108.76 L 554.09 108.76 L 558.34 108.76 L 562.59 108.76 L 566.84 108.76 L 571.09 108.76 L 575.34 108.76 L 579.59 108.76 L 583.83 108.76 L 588.08 108.76 L 592.33 108.76 L 596.58 108.76 L 600.83 108.76 L 605.08 108.76 L 609.33 108.76 L 613.58 108.76 L 617.82 108.76 L 622.07 108.76 L 626.32 108.76 L 630.57 108.76 L 634.82 108.76 L 639.07 108.76 L 643.32 108.76 L 647.56 108.94 L 651.81 100.39 L 656.06 81.40 L 660.31 81.40 L 664.56 81.40 L 668.81 81.40 L 673.06 81.40 L 677.31 70.78 L 681.55 70.78 L 685.80 70.78 L 690.05 70.78 L 694.30 70.78 L 698.55 70.78 L 702.80 70.78 L 707.05 70.78 L 711.30 70.78 L 715.54 70.78 L 719.79 70.78 L 724.04 70.78 L 728.29 70.78 L 732.54 70.78 L 736.79 70.78 L 741.04 70.78 L 745.28 70.78 L 749.53 70.78 L 753.78 70.78 L 758.03 70.78 L 762.28 70.78 L 766.53 70.78 L 770.78 70.78 L 775.03 70.78 L 779.27 70.78 L 783.52 70.78 L 787.77 70.78 L 792.02 70.78 L 796.27 70.78 L 800.52 70.78 L 804.77 70.78 L 809.02 70.78 L 813.26 70.78 L 817.51 70.78 L 821.76 70.78 L 826.01 70.78 L 830.26 70.78 L 834.51 70.78 L 838.76 70.78 L 843.01 70.78 L 847.25 70.78 L 851.50 70.78 L 855.75 70.78 L 860.00 70.78" fill="none" stroke="#111827" stroke-width="2"/>
    <circle cx="860.00" cy="70.78" r="3" fill="#111827"/>
    <text x="40.00" y="235.00" font-size="9" fill="#111827" text-anchor="middle" transform="rotate(-45 40.00 235.00)">28.08.2025</text><text x="120.73" y="235.00" font-size="9" fill="#111827" text-anchor="middle" transform="rotate(-45 120.73 235.00)">28.08.2025</text><text x="201.45" y="235.00" font-size="9" fill="#111827" text-anchor="middle" transform="rotate(-45 201.45 235.00)">08.09.2025</text><text x="282.18" y="235.00" font-size="9" fill="#111827" text-anchor="middle" transform="rotate(-45 282.18 235.00)">20.09.2025</text><text x="362.90" y="235.00" font-size="9" fill="#111827" text-anchor="middle" transform="rotate(-45 362.90 235.00)">08.10.2025</text><text x="443.63" y="235.00" font-size="9" fill="#111827" text-anchor="middle" transform="rotate(-45 443.63 235.00)">27.10.2025</text><text x="524.35" y="235.00" font-size="9" fill="#111827" text-anchor="middle" transform="rotate(-45 524.35 235.00)">13.11.2025</text><text x="605.08" y="235.00" font-size="9" fill="#111827" text-anchor="middle" transform="rotate(-45 605.08 235.00)">28.11.2025</text><text x="685.80" y="235.00" font-size="9" fill="#111827" text-anchor="middle" transform="rotate(-45 685.80 235.00)">09.12.2025</text><text x="766.53" y="235.00" font-size="9" fill="#111827" text-anchor="middle" transform="rotate(-45 766.53 235.00)">22.12.2025</text><text x="847.25" y="235.00" font-size="9" fill="#111827" text-anchor="middle" transform="rotate(-45 847.25 235.00)">09.01.2026</text>
  </g>
</svg>