<svg xmlns="http://www.w3.org/2000/svg" width="900" height="290" style="font-family: -apple-system, BlinkMacSystemFont, 'Segoe UI', Helvetica, Arial, sans-serif;">
  <rect width="100%" height="100%" fill="#0d1117"/>
  <g>
    <line x1="40" y1="220.00" x2="860" y2="220.00" stroke="#30363d"/><text x="32" y="224.00" font-size="10" fill="#c9d1d9" text-anchor="end">0</text><line x1="40" y1="175.00" x2="860" y2="175.00" stroke="#30363d"/><text x="32" y="179.00" font-size="10" fill="#c9d1d9" text-anchor="end">500</text><line x1="40" y1="130.00" x2="860" y2="130.00" stroke="#30363d"/><text x="32" y="134.00" font-size="10" fill="#c9d1d9" text-anchor="end">1k</text><line x1="40" y1="85.00" x2="860" y2="85.00" stroke="#30363d"/><text x="32" y="89.00" font-size="10" fill="#c9d1d9" text-anchor="end">1.5k</text><line x1="40" y1="40.00" x2="860" y2="40.00" stroke="#30363d"/><text x="32" y="44.00" font-size="10" fill="#c9d1d9" text-anchor="end">2k</text>
    <line x1="40.00" y1="40" x2="40.00" y2="220" stroke="#30363d" opacity="0.5"/><line x1="122.00" y1="40" x2="122.00" y2="220" stroke="#30363d" opacity="0.5"/><line x1="204.00" y1="40" x2="204.00" y2="220" stroke="#30363d" opacity="0.5"/><line x1="286.00" y1="40" x2="286.00" y2="220" stroke="#30363d" opacity="0.5"/><line x1="368.00" y1="40" x2="368.00" y2="220" stroke="#30363d" opacity="0.5"/><line x1="450.00" y1="40" x2="450.00" y2="220" stroke="#30363d" opacity="0.5"/><line x1="532.00" y1="40" x2="532.00" y2="220" stroke="#30363d" opacity="0.5"/><line x1="614.00" y1="40" x2="614.00" y2="220" stroke="#30363d" opacity="0.5"/><line x1="696.00" y1="40" x2="696.00" y2="220" stroke="#30363d" opacity="0.5"/><line x1="778.00" y1="40" x2="778.00" y2="220" stroke="#30363d" opacity="0.5"/><line x1="860.00" y1="40" x2="860.00" y2="220" stroke="#30363d" opacity="0.5"/>
    <line x1="40" y1="220" x2="860" y2="220" stroke="#30363d"/>
    <line x1="40" y1="40"   x2="40"   y2="220" stroke="#30363d"/>
    <path d="M 40.00 166.63 L 43.57 166.00 L 47.13 166.00 L 50.70 121.18 L 54.26 115.78 L 57.83 115.78 L 61.39 112.00 L 64.96 108.22 L 68.52 108.22 L 72.09 108.22 L 75.65 108.22 L 79.22 108.22 L 82.78 108.22 L 86.35 108.22 L 89.91 108.22 L 93.48 108.22 L 97.04 108.22 L 100.61 108.22 L 104.17 108.22 L 107.74 108.22 L 111.30 108.22 L 114.87 108.22 L 118.43 109.21 L 122.00 109.12 L 125.57 108.76 L 129.13 108.76 L 132.70 108.76 L 136.26 108.76 L 139.83 108.76 L 143.39 108.76 L 146.96 108.76 L 150.52 108.76 L 154.09 108.76 L 157.65 108.76 L 161.22 108.76 L 164.78 108.76 L 168.35 108.76 L 171.91 108.76 L 175.48 108.76 L 179.04 108.76 L 182.61 108.76 L 186.17 108.76 L 189.74 108.76 L 193.30 108.76 L 196.87 108.76 L 200.43 108.76 L 204.00 108.76 L 207.57 108.76 L 211.13 108.76 L 214.70 108.76 L 218.26 108.76 L 221.83 108.76 L 225.39 108.76 L 228.96 108.76 L 232.52 108.76 L 236.09 108.76 L 239.65 108.76 L 243.22 108.76 L 246.78 108.76 L 250.35 108.76 L 253.91 108.76 L 257.48 108.76 L 261.04 108.76 L 264.61 108.76 L 268.17 108.76 L 271.74 108.76 L 275.30 108.76 L 278.87 108.76 L 282.43 108.76 L 286.00 108.76 L 289.57 108.76 L 293.13 108.76 L 296.70 108.76 L 300.26 108.76 L 303.83 108.76 L 307.39 108.76 L 310.96 108.76 L 314.52 108.76 L 318.09 108.76 L 321.65 108.76 L 325.22 108.76 L 328.78 108.76 L 332.35 108.76 L 335.91 108.76 L 339.48 108.76 L 343.04 108.76 L 346.61 108.76 L 350.17 108.76 L 353.74 108.76 L 357.30 108.76 L 360.87 108.76 L 364.43 108.76 L 368.00 108.76 L 371.57 108.76 L 375.13 108.76 L 378.70 108.76 L 382.26 108.76 L 385.83 108.76 L 389.39 108.76 L 392.96 108.76 L 396.52 108.76 L 400.09 108.76 L 403.65 108.76 L 407.22 108.76 L 410.78 108.76 L 414.35 108.76 L 417.91 108.76 L 421.48 108.76 L 425.04 108.76 L 428.61 108.76 L 432.17 108.76 L 435.74 108.76 L 439.30 108.76 L 442.87 108.76 L 446.43 108.76 L 450.00 108.76 L 453.57 108.76 L 457.13 108.76 L 460.70 108.76 L 464.26 108.76 L 467.83 108.76 L 471.39 108.76 L 474.96 108.76 L 478.52 108.76 L 482.09 108.76 L 485.65 108.76 L 489.22 108.76 L 492.78 108.76 L 496.35 108.76 L 499.91 108.76 L 503.48 108.76 L 507.04 108.76 L 510.61 108.76 L 514.17 108.76 L 517.74 108.76 L 521.30 108.76 L 524.87 108.76 L 528.43 108.76 L 532.00 108.76 L 535.57 108.76 L 539.13 108.76 L 542.70 108.76 L 546.26 108.76 L 549.83 108.94 L 553.39 100.39 L 556.96 81.40 L 560.52 81.40 L 564.09 81.40 L 567.65 81.40 L 571.22 81.40 L 574.78 70.78 L 578.35 70.78 L 581.91 70.78 L 585.48 70.78 L 589.04 70.78 L 592.61 70.78 L 596.17 70.78 L 599.74 70.78 L 603.30 70.78 L 606.87 70.78 L 610.43 70.78 L 614.00 70.78 L 617.57 70.78 L 621.13 70.78 L 624.70 70.78 L 628.26 70.78 L 631.83 70.78 L 635.39 70.78 L 638.96 70.78 L 642.52 70.78 L 646.09 70.78 L 649.65 70.78 L 653.22 70.78 L 656.78 70.78 L 660.35 70.78 L 663.91 70.78 L 667.48 70.78 L 671.04 70.78 L 674.61 70.78 L 678.17 70.78 L 681.74 70.78 L 685.30 70.78 L 688.87 70.78 L 692.43 70.78 L 696.00 70.78 L 699.57 70.78 L 703.13 70.78 L 706.70 70.78 L 710.26 70.78 L 713.83 70.78 L 717.39 70.78 L 720.96 70.78 L 724.52 70.78 L 728.09 70.78 L 731.65 70.78 L 735.22 70.78 L 738.78 70.78 L 742.35 70.78 L 745.91 70.78 L 749.48 70.78 L 753.04 70.78 L 756.61 70.78 L 760.17 70.78 L 763.74 70.78 L 767.30 70.78 L 770.87 70.78 L 774.43 70.78 L 778.00 70.78 L 781.57 70.78 L 785.13 70.78 L 788.70 70.78 L 792.26 70.78 L 795.83 70.78 L 799.39 70.78 L 802.96 70.78 L 806.52 70.78 L 810.09 70.78 L 813.65 70.78 L 817.22 70.78 L 820.78 70.78 L 824.35 70.78 L 827.91 70.78 L 831.48 70.78 L 835.04 70.78 L 838.61 70.78 L 842.17 70.78 L 845.74 70.78 L 849.30 70.78 L 852.87 70.78 L 856.43 70.78 L 860.00 70.78" fill="none" stroke="#3fb950" stroke-width="2"/>
    <circle cx="860.00" cy="70.78" r="3" fill="#3fb950"/>
    <text x="40.00" y="235.00" font-size="9" fill="#c9d1d9" text-anchor="middle" transform="rotate(-45 40.00 235.00)">28.08.2025</text><text x="122.00" y="235.00" font-size="9" fill="#c9d1d9" text-anchor="middle" transform="rotate(-45 122.00 235.00)">28.08.2025</text><text x="204.00" y="235.00" font-size="9" fill="#c9d1d9" text-anchor="middle" transform="rotate(-45 204.00 235.00)">15.09.2025</text><text x="286.00" y="235.00" font-size="9" fill="#c9d1d9" text-anchor="middle" transform="rotate(-45 286.00 235.00)">02.10.2025</text><text x="368.00" y="235.00" font-size="9" fill="#c9d1d9" text-anchor="middle" transform="rotate(-45 368.00 235.00)">24.10.2025</text><text x="450.00" y="235.00" font-size="9" fill="#c9d1d9" text-anchor="middle" transform="rotate(-45 450.00 235.00)">14.11.2025</text><text x="532.00" y="235.00" font-size="9" fill="#c9d1d9" text-anchor="middle" transform="rotate(-45 532.00 235.00)">30.11.2025</text><text x="614.00" y="235.00" font-size="9" fill="#c9d1d9" text-anchor="middle" transform="rotate(-45 614.00 235.00)">13.12.2025</text><text x="696.00" y="235.00" font-size="9" fill="#c9d1d9" text-anchor="middle" transform="rotate(-45 696.00 235.00)">03.01.2026</text><text x="778.00" y="235.00" font-size="9" fill="#c9d1d9" text-anchor="middle" transform="rotate(-45 778.00 235.00)">24.01.2026</text><text x="860.00" y="235.00" font-size="9" fill="#c9d1d9" text-anchor="middle" transform="rotate(-45 860.00 235.00)">15.02.2026</text>
  </g>
</svg>