<svg xmlns="http://www.w3.org/2000/svg" width="900" height="290" style="font-family: -apple-system, BlinkMacSystemFont, 'Segoe UI', Helvetica, Arial, sans-serif;">
  <rect width="100%" height="100%" fill="#0d1117"/>
  <g>
    <line x1="40" y1="220.00" x2="860" y2="220.00" stroke="#30363d"/><text x="32" y="224.00" font-size="10" fill="#c9d1d9" text-anchor="end">0</text><line x1="40" y1="175.00" x2="860" y2="175.00" stroke="#30363d"/><text x="32" y="179.00" font-size="10" fill="#c9d1d9" text-anchor="end">500</text><line x1="40" y1="130.00" x2="860" y2="130.00" stroke="#30363d"/><text x="32" y="134.00" font-size="10" fill="#c9d1d9" text-anchor="end">1k</text><line x1="40" y1="85.00" x2="860" y2="85.00" stroke="#30363d"/><text x="32" y="89.00" font-size="10" fill="#c9d1d9" text-anchor="end">1.5k</text><line x1="40" y1="40.00" x2="860" y2="40.00" stroke="#30363d"/><text x="32" y="44.00" font-size="10" fill="#c9d1d9" text-anchor="end">2k</text>
    <line x1="40.00" y1="40" x2="40.00" y2="220" stroke="#30363d" opacity="0.5"/><line x1="119.66" y1="40" x2="119.66" y2="220" stroke="#30363d" opacity="0.5"/><line x1="199.31" y1="40" x2="199.31" y2="220" stroke="#30363d" opacity="0.5"/><line x1="278.97" y1="40" x2="278.97" y2="220" stroke="#30363d" opacity="0.5"/><line x1="358.63" y1="40" x2="358.63" y2="220" stroke="#30363d" opacity="0.5"/><line x1="438.29" y1="40" x2="438.29" y2="220" stroke="#30363d" opacity="0.5"/><line x1="517.94" y1="40" x2="517.94" y2="220" stroke="#30363d" opacity="0.5"/><line x1="597.60" y1="40" x2="597.60" y2="220" stroke="#30363d" opacity="0.5"/><line x1="677.26" y1="40" x2="677.26" y2="220" stroke="#30363d" opacity="0.5"/><line x1="756.91" y1="40" x2="756.91" y2="220" stroke="#30363d" opacity="0.5"/><line x1="836.57" y1="40" x2="836.57" y2="220" stroke="#30363d" opacity="0.5"/>
    <line x1="40" y1="220" x2="860" y2="220" stroke="#30363d"/>
    <line x1="40" y1="40"   x2="40"   y2="220" stroke="#30363d"/>
    <path d="M 40.00 166.63 L 44.69 166.00 L 49.37 166.00 L 54.06 121.18 L 58.74 115.78 L 63.43 115.78 L 68.11 112.00 L 72.80 108.22 L 77.49 108.22 L 82.17 108.22 L 86.86 108.22 L 91.54 108.22 L 96.23 108.22 L 100.91 108.22 L 105.60 108.22 L 110.29 108.22 L 114.97 108.22 L 119.66 108.22 L 124.34 108.22 L 129.03 108.22 L 133.71 108.22 L 138.40 108.22 L 143.09 109.21 L 147.77 109.12 L 152.46 108.76 L 157.14 108.76 L 161.83 108.76 L 166.51 108.76 L 171.20 108.76 L 175.89 108.76 L 180.57 108.76 L 185.26 108.76 L 189.94 108.76 L 194.63 108.76 L 199.31 108.76 L 204.00 108.76 L 208.69 108.76 L 213.37 108.76 L 218.06 108.76 L 222.74 108.76 L 227.43 108.76 L 232.11 108.76 L 236.80 108.76 L 241.49 108.76 L 246.17 108.76 L 250.86 108.76 L 255.54 108.76 L 260.23 108.76 L 264.91 108.76 L 269.60 108.76 L 274.29 108.76 L 278.97 108.76 L 283.66 108.76 L 288.34 108.76 L 293.03 108.76 L 297.71 108.76 L 302.40 108.76 L 307.09 108.76 L 311.77 108.76 L 316.46 108.76 L 321.14 108.76 L 325.83 108.76 L 330.51 108.76 L 335.20 108.76 L 339.89 108.76 L 344.57 108.76 L 349.26 108.76 L 353.94 108.76 L 358.63 108.76 L 363.31 108.76 L 368.00 108.76 L 372.69 108.76 L 377.37 108.76 L 382.06 108.76 L 386.74 108.76 L 391.43 108.76 L 396.11 108.76 L 400.80 108.76 L 405.49 108.76 L 410.17 108.76 L 414.86 108.76 L 419.54 108.76 L 424.23 108.76 L 428.91 108.76 L 433.60 108.76 L 438.29 108.76 L 442.97 108.76 L 447.66 108.76 L 452.34 108.76 L 457.03 108.76 L 461.71 108.76 L 466.40 108.76 L 471.09 108.76 L 475.77 108.76 L 480.46 108.76 L 485.14 108.76 L 489.83 108.76 L 494.51 108.76 L 499.20 108.76 L 503.89 108.76 L 508.57 108.76 L 513.26 108.76 L 517.94 108.76 L 522.63 108.76 L 527.31 108.76 L 532.00 108.76 L 536.69 108.76 L 541.37 108.76 L 546.06 108.76 L 550.74 108.76 L 555.43 108.76 L 560.11 108.76 L 564.80 108.76 L 569.49 108.76 L 574.17 108.76 L 578.86 108.76 L 583.54 108.76 L 588.23 108.76 L 592.91 108.76 L 597.60 108.76 L 602.29 108.76 L 606.97 108.76 L 611.66 108.76 L 616.34 108.76 L 621.03 108.76 L 625.71 108.76 L 630.40 108.76 L 635.09 108.76 L 639.77 108.76 L 644.46 108.76 L 649.14 108.76 L 653.83 108.76 L 658.51 108.76 L 663.20 108.76 L 667.89 108.76 L 672.57 108.76 L 677.26 108.76 L 681.94 108.76 L 686.63 108.76 L 691.31 108.76 L 696.00 108.76 L 700.69 108.76 L 705.37 108.76 L 710.06 108.94 L 714.74 100.39 L 719.43 81.40 L 724.11 81.40 L 728.80 81.40 L 733.49 81.40 L 738.17 81.40 L 742.86 70.78 L 747.54 70.78 L 752.23 70.78 L 756.91 70.78 L 761.60 70.78 L 766.29 70.78 L 770.97 70.78 L 775.66 70.78 L 780.34 70.78 L 785.03 70.78 L 789.71 70.78 L 794.40 70.78 L 799.09 70.78 L 803.77 70.78 L 808.46 70.78 L 813.14 70.78 L 817.83 70.78 L 822.51 70.78 L 827.20 70.78 L 831.89 70.78 L 836.57 70.78 L 841.26 70.78 L 845.94 70.78 L 850.63 70.78 L 855.31 70.78 L 860.00 70.78" fill="none" stroke="#3fb950" stroke-width="2"/>
    <circle cx="860.00" cy="70.78" r="3" fill="#3fb950"/>
    <text x="40.00" y="235.00" font-size="9" fill="#c9d1d9" text-anchor="middle" transform="rotate(-45 40.00 235.00)">28.08.2025</text><text x="119.66" y="235.00" font-size="9" fill="#c9d1d9" text-anchor="middle" transform="rotate(-45 119.66 235.00)">28.08.2025</text><text x="199.31" y="235.00" font-size="9" fill="#c9d1d9" text-anchor="middle" transform="rotate(-45 199.31 235.00)">05.09.2025</text><text x="278.97" y="235.00" font-size="9" fill="#c9d1d9" text-anchor="middle" transform="rotate(-45 278.97 235.00)">15.09.2025</text><text x="358.63" y="235.00" font-size="9" fill="#c9d1d9" text-anchor="middle" transform="rotate(-45 358.63 235.00)">01.10.2025</text><text x="438.29" y="235.00" font-size="9" fill="#c9d1d9" text-anchor="middle" transform="rotate(-45 438.29 235.00)">17.10.2025</text><text x="517.94" y="235.00" font-size="9" fill="#c9d1d9" text-anchor="middle" transform="rotate(-45 517.94 235.00)">01.11.2025</text><text x="597.60" y="235.00" font-size="9" fill="#c9d1d9" text-anchor="middle" transform="rotate(-45 597.60 235.00)">18.11.2025</text><text x="677.26" y="235.00" font-size="9" fill="#c9d1d9" text-anchor="middle" transform="rotate(-45 677.26 235.00)">28.11.2025</text><text x="756.91" y="235.00" font-size="9" fill="#c9d1d9" text-anchor="middle" transform="rotate(-45 756.91 235.00)">10.12.2025</text><text x="836.57" y="235.00" font-size="9" fill="#c9d1d9" text-anchor="middle" transform="rotate(-45 836.57 235.00)">21.12.2025</text>
  </g>
</svg>