<svg xmlns="http://www.w3.org/2000/svg" width="900" height="290" style="font-family: -apple-system, BlinkMacSystemFont, 'Segoe UI', Helvetica, Arial, sans-serif;">
  <rect width="100%" height="100%" fill="#0d1117"/>
  <g>
    <line x1="40" y1="220.00" x2="860" y2="220.00" stroke="#30363d"/><text x="32" y="224.00" font-size="10" fill="#c9d1d9" text-anchor="end">0</text><line x1="40" y1="175.00" x2="860" y2="175.00" stroke="#30363d"/><text x="32" y="179.00" font-size="10" fill="#c9d1d9" text-anchor="end">500</text><line x1="40" y1="130.00" x2="860" y2="130.00" stroke="#30363d"/><text x="32" y="134.00" font-size="10" fill="#c9d1d9" text-anchor="end">1k</text><line x1="40" y1="85.00" x2="860" y2="85.00" stroke="#30363d"/><text x="32" y="89.00" font-size="10" fill="#c9d1d9" text-anchor="end">1.5k</text><line x1="40" y1="40.00" x2="860" y2="40.00" stroke="#30363d"/><text x="32" y="44.00" font-size="10" fill="#c9d1d9" text-anchor="end">2k</text>
    <line x1="40.00" y1="40" x2="40.00" y2="220" stroke="#30363d" opacity="0.5"/><line x1="121.29" y1="40" x2="121.29" y2="220" stroke="#30363d" opacity="0.5"/><line x1="202.59" y1="40" x2="202.59" y2="220" stroke="#30363d" opacity="0.5"/><line x1="283.88" y1="40" x2="283.88" y2="220" stroke="#30363d" opacity="0.5"/><line x1="365.17" y1="40" x2="365.17" y2="220" stroke="#30363d" opacity="0.5"/><line x1="446.47" y1="40" x2="446.47" y2="220" stroke="#30363d" opacity="0.5"/><line x1="527.76" y1="40" x2="527.76" y2="220" stroke="#30363d" opacity="0.5"/><line x1="609.05" y1="40" x2="609.05" y2="220" stroke="#30363d" opacity="0.5"/><line x1="690.34" y1="40" x2="690.34" y2="220" stroke="#30363d" opacity="0.5"/><line x1="771.64" y1="40" x2="771.64" y2="220" stroke="#30363d" opacity="0.5"/><line x1="852.93" y1="40" x2="852.93" y2="220" stroke="#30363d" opacity="0.5"/>
    <line x1="40" y1="220" x2="860" y2="220" stroke="#30363d"/>
    <line x1="40" y1="40"   x2="40"   y2="220" stroke="#30363d"/>
    <path d="M 40.00 166.63 L 43.53 166.00 L 47.07 166.00 L 50.60 121.18 L 54.14 115.78 L 57.67 115.78 L 61.21 112.00 L 64.74 108.22 L 68.28 108.22 L 71.81 108.22 L 75.34 108.22 L 78.88 108.22 L 82.41 108.22 L 85.95 108.22 L 89.48 108.22 L 93.02 108.22 L 96.55 108.22 L 100.09 108.22 L 103.62 108.22 L 107.16 108.22 L 110.69 108.22 L 114.22 108.22 L 117.76 109.21 L 121.29 109.12 L 124.83 108.76 L 128.36 108.76 L 131.90 108.76 L 135.43 108.76 L 138.97 108.76 L 142.50 108.76 L 146.03 108.76 L 149.57 108.76 L 153.10 108.76 L 156.64 108.76 L 160.17 108.76 L 163.71 108.76 L 167.24 108.76 L 170.78 108.76 L 174.31 108.76 L 177.84 108.76 L 181.38 108.76 L 184.91 108.76 L 188.45 108.76 L 191.98 108.76 L 195.52 108.76 L 199.05 108.76 L 202.59 108.76 L 206.12 108.76 L 209.66 108.76 L 213.19 108.76 L 216.72 108.76 L 220.26 108.76 L 223.79 108.76 L 227.33 108.76 L 230.86 108.76 L 234.40 108.76 L 237.93 108.76 L 241.47 108.76 L 245.00 108.76 L 248.53 108.76 L 252.07 108.76 L 255.60 108.76 L 259.14 108.76 L 262.67 108.76 L 266.21 108.76 L 269.74 108.76 L 273.28 108.76 L 276.81 108.76 L 280.34 108.76 L 283.88 108.76 L 287.41 108.76 L 290.95 108.76 L 294.48 108.76 L 298.02 108.76 L 301.55 108.76 L 305.09 108.76 L 308.62 108.76 L 312.16 108.76 L 315.69 108.76 L 319.22 108.76 L 322.76 108.76 L 326.29 108.76 L 329.83 108.76 L 333.36 108.76 L 336.90 108.76 L 340.43 108.76 L 343.97 108.76 L 347.50 108.76 L 351.03 108.76 L 354.57 108.76 L 358.10 108.76 L 361.64 108.76 L 365.17 108.76 L 368.71 108.76 L 372.24 108.76 L 375.78 108.76 L 379.31 108.76 L 382.84 108.76 L 386.38 108.76 L 389.91 108.76 L 393.45 108.76 L 396.98 108.76 L 400.52 108.76 L 404.05 108.76 L 407.59 108.76 L 411.12 108.76 L 414.66 108.76 L 418.19 108.76 L 421.72 108.76 L 425.26 108.76 L 428.79 108.76 L 432.33 108.76 L 435.86 108.76 L 439.40 108.76 L 442.93 108.76 L 446.47 108.76 L 450.00 108.76 L 453.53 108.76 L 457.07 108.76 L 460.60 108.76 L 464.14 108.76 L 467.67 108.76 L 471.21 108.76 L 474.74 108.76 L 478.28 108.76 L 481.81 108.76 L 485.34 108.76 L 488.88 108.76 L 492.41 108.76 L 495.95 108.76 L 499.48 108.76 L 503.02 108.76 L 506.55 108.76 L 510.09 108.76 L 513.62 108.76 L 517.16 108.76 L 520.69 108.76 L 524.22 108.76 L 527.76 108.76 L 531.29 108.76 L 534.83 108.76 L 538.36 108.76 L 541.90 108.76 L 545.43 108.94 L 548.97 100.39 L 552.50 81.40 L 556.03 81.40 L 559.57 81.40 L 563.10 81.40 L 566.64 81.40 L 570.17 70.78 L 573.71 70.78 L 577.24 70.78 L 580.78 70.78 L 584.31 70.78 L 587.84 70.78 L 591.38 70.78 L 594.91 70.78 L 598.45 70.78 L 601.98 70.78 L 605.52 70.78 L 609.05 70.78 L 612.59 70.78 L 616.12 70.78 L 619.66 70.78 L 623.19 70.78 L 626.72 70.78 L 630.26 70.78 L 633.79 70.78 L 637.33 70.78 L 640.86 70.78 L 644.40 70.78 L 647.93 70.78 L 651.47 70.78 L 655.00 70.78 L 658.53 70.78 L 662.07 70.78 L 665.60 70.78 L 669.14 70.78 L 672.67 70.78 L 676.21 70.78 L 679.74 70.78 L 683.28 70.78 L 686.81 70.78 L 690.34 70.78 L 693.88 70.78 L 697.41 70.78 L 700.95 70.78 L 704.48 70.78 L 708.02 70.78 L 711.55 70.78 L 715.09 70.78 L 718.62 70.78 L 722.16 70.78 L 725.69 70.78 L 729.22 70.78 L 732.76 70.78 L 736.29 70.78 L 739.83 70.78 L 743.36 70.78 L 746.90 70.78 L 750.43 70.78 L 753.97 70.78 L 757.50 70.78 L 761.03 70.78 L 764.57 70.78 L 768.10 70.78 L 771.64 70.78 L 775.17 70.78 L 778.71 70.78 L 782.24 70.78 L 785.78 70.78 L 789.31 70.78 L 792.84 70.78 L 796.38 70.78 L 799.91 70.78 L 803.45 70.78 L 806.98 70.78 L 810.52 70.78 L 814.05 70.78 L 817.59 70.78 L 821.12 70.78 L 824.66 70.78 L 828.19 70.78 L 831.72 70.78 L 835.26 70.78 L 838.79 70.78 L 842.33 70.78 L 845.86 70.78 L 849.40 70.78 L 852.93 70.78 L 856.47 70.78 L 860.00 70.78" fill="none" stroke="#3fb950" stroke-width="2"/>
    <circle cx="860.00" cy="70.78" r="3" fill="#3fb950"/>
    <text x="40.00" y="235.00" font-size="9" fill="#c9d1d9" text-anchor="middle" transform="rotate(-45 40.00 235.00)">28.08.2025</text><text x="121.29" y="235.00" font-size="9" fill="#c9d1d9" text-anchor="middle" transform="rotate(-45 121.29 235.00)">28.08.2025</text><text x="202.59" y="235.00" font-size="9" fill="#c9d1d9" text-anchor="middle" transform="rotate(-45 202.59 235.00)">15.09.2025</text><text x="283.88" y="235.00" font-size="9" fill="#c9d1d9" text-anchor="middle" transform="rotate(-45 283.88 235.00)">02.10.2025</text><text x="365.17" y="235.00" font-size="9" fill="#c9d1d9" text-anchor="middle" transform="rotate(-45 365.17 235.00)">24.10.2025</text><text x="446.47" y="235.00" font-size="9" fill="#c9d1d9" text-anchor="middle" transform="rotate(-45 446.47 235.00)">14.11.2025</text><text x="527.76" y="235.00" font-size="9" fill="#c9d1d9" text-anchor="middle" transform="rotate(-45 527.76 235.00)">30.11.2025</text><text x="609.05" y="235.00" font-size="9" fill="#c9d1d9" text-anchor="middle" transform="rotate(-45 609.05 235.00)">13.12.2025</text><text x="690.34" y="235.00" font-size="9" fill="#c9d1d9" text-anchor="middle" transform="rotate(-45 690.34 235.00)">03.01.2026</text><text x="771.64" y="235.00" font-size="9" fill="#c9d1d9" text-anchor="middle" transform="rotate(-45 771.64 235.00)">24.01.2026</text><text x="852.93" y="235.00" font-size="9" fill="#c9d1d9" text-anchor="middle" transform="rotate(-45 852.93 235.00)">15.02.2026</text>
  </g>
</svg>