<svg xmlns="http://www.w3.org/2000/svg" width="900" height="290" style="font-family: -apple-system, BlinkMacSystemFont, 'Segoe UI', Helvetica, Arial, sans-serif;">
  <rect width="100%" height="100%" fill="#0d1117"/>
  <g>
    <line x1="40" y1="220.00" x2="860" y2="220.00" stroke="#30363d"/><text x="32" y="224.00" font-size="10" fill="#c9d1d9" text-anchor="end">0</text><line x1="40" y1="175.00" x2="860" y2="175.00" stroke="#30363d"/><text x="32" y="179.00" font-size="10" fill="#c9d1d9" text-anchor="end">500</text><line x1="40" y1="130.00" x2="860" y2="130.00" stroke="#30363d"/><text x="32" y="134.00" font-size="10" fill="#c9d1d9" text-anchor="end">1k</text><line x1="40" y1="85.00" x2="860" y2="85.00" stroke="#30363d"/><text x="32" y="89.00" font-size="10" fill="#c9d1d9" text-anchor="end">1.5k</text><line x1="40" y1="40.00" x2="860" y2="40.00" stroke="#30363d"/><text x="32" y="44.00" font-size="10" fill="#c9d1d9" text-anchor="end">2k</text>
    <line x1="40.00" y1="40" x2="40.00" y2="220" stroke="#30363d" opacity="0.5"/><line x1="119.61" y1="40" x2="119.61" y2="220" stroke="#30363d" opacity="0.5"/><line x1="199.22" y1="40" x2="199.22" y2="220" stroke="#30363d" opacity="0.5"/><line x1="278.83" y1="40" x2="278.83" y2="220" stroke="#30363d" opacity="0.5"/><line x1="358.45" y1="40" x2="358.45" y2="220" stroke="#30363d" opacity="0.5"/><line x1="438.06" y1="40" x2="438.06" y2="220" stroke="#30363d" opacity="0.5"/><line x1="517.67" y1="40" x2="517.67" y2="220" stroke="#30363d" opacity="0.5"/><line x1="597.28" y1="40" x2="597.28" y2="220" stroke="#30363d" opacity="0.5"/><line x1="676.89" y1="40" x2="676.89" y2="220" stroke="#30363d" opacity="0.5"/><line x1="756.50" y1="40" x2="756.50" y2="220" stroke="#30363d" opacity="0.5"/><line x1="836.12" y1="40" x2="836.12" y2="220" stroke="#30363d" opacity="0.5"/>
    <line x1="40" y1="220" x2="860" y2="220" stroke="#30363d"/>
    <line x1="40" y1="40"   x2="40"   y2="220" stroke="#30363d"/>
    <path d="M 40.00 166.63 L 47.96 166.00 L 55.92 166.00 L 63.88 121.18 L 71.84 115.78 L 79.81 115.78 L 87.77 112.00 L 95.73 108.22 L 103.69 108.22 L 111.65 108.22 L 119.61 108.22 L 127.57 108.22 L 135.53 108.22 L 143.50 108.22 L 151.46 108.22 L 159.42 108.22 L 167.38 108.22 L 175.34 108.22 L 183.30 108.22 L 191.26 108.22 L 199.22 108.22 L 207.18 108.22 L 215.15 109.21 L 223.11 109.12 L 231.07 108.76 L 239.03 108.76 L 246.99 108.76 L 254.95 108.76 L 262.91 108.76 L 270.87 108.76 L 278.83 108.76 L 286.80 108.76 L 294.76 108.76 L 302.72 108.76 L 310.68 108.76 L 318.64 108.76 L 326.60 108.76 L 334.56 108.76 L 342.52 108.76 L 350.49 108.76 L 358.45 108.76 L 366.41 108.76 L 374.37 108.76 L 382.33 108.76 L 390.29 108.76 L 398.25 108.76 L 406.21 108.76 L 414.17 108.76 L 422.14 108.76 L 430.10 108.76 L 438.06 108.76 L 446.02 108.76 L 453.98 108.76 L 461.94 108.76 L 469.90 108.76 L 477.86 108.76 L 485.83 108.76 L 493.79 108.76 L 501.75 108.76 L 509.71 108.76 L 517.67 108.76 L 525.63 108.76 L 533.59 108.76 L 541.55 108.76 L 549.51 108.76 L 557.48 108.76 L 565.44 108.76 L 573.40 108.76 L 581.36 108.76 L 589.32 108.76 L 597.28 108.76 L 605.24 108.76 L 613.20 108.76 L 621.17 108.76 L 629.13 108.76 L 637.09 108.76 L 645.05 108.76 L 653.01 108.76 L 660.97 108.76 L 668.93 108.76 L 676.89 108.76 L 684.85 108.76 L 692.82 108.76 L 700.78 108.76 L 708.74 108.76 L 716.70 108.76 L 724.66 108.76 L 732.62 108.76 L 740.58 108.76 L 748.54 108.76 L 756.50 108.76 L 764.47 108.76 L 772.43 108.76 L 780.39 108.76 L 788.35 108.76 L 796.31 108.76 L 804.27 108.76 L 812.23 108.76 L 820.19 108.76 L 828.16 108.76 L 836.12 108.76 L 844.08 108.76 L 852.04 108.76 L 860.00 108.76" fill="none" stroke="#3fb950" stroke-width="2"/>
    <circle cx="860.00" cy="108.76" r="3" fill="#3fb950"/>
    <text x="40.00" y="235.00" font-size="9" fill="#c9d1d9" text-anchor="middle" transform="rotate(-45 40.00 235.00)">28.08.2025</text><text x="119.61" y="235.00" font-size="9" fill="#c9d1d9" text-anchor="middle" transform="rotate(-45 119.61 235.00)">28.08.2025</text><text x="199.22" y="235.00" font-size="9" fill="#c9d1d9" text-anchor="middle" transform="rotate(-45 199.22 235.00)">28.08.2025</text><text x="278.83" y="235.00" font-size="9" fill="#c9d1d9" text-anchor="middle" transform="rotate(-45 278.83 235.00)">01.09.2025</text><text x="358.45" y="235.00" font-size="9" fill="#c9d1d9" text-anchor="middle" transform="rotate(-45 358.45 235.00)">09.09.2025</text><text x="438.06" y="235.00" font-size="9" fill="#c9d1d9" text-anchor="middle" transform="rotate(-45 438.06 235.00)">15.09.2025</text><text x="517.67" y="235.00" font-size="9" fill="#c9d1d9" text-anchor="middle" transform="rotate(-45 517.67 235.00)">25.09.2025</text><text x="597.28" y="235.00" font-size="9" fill="#c9d1d9" text-anchor="middle" transform="rotate(-45 597.28 235.00)">05.10.2025</text><text x="676.89" y="235.00" font-size="9" fill="#c9d1d9" text-anchor="middle" transform="rotate(-45 676.89 235.00)">15.10.2025</text><text x="756.50" y="235.00" font-size="9" fill="#c9d1d9" text-anchor="middle" transform="rotate(-45 756.50 235.00)">25.10.2025</text><text x="836.12" y="235.00" font-size="9" fill="#c9d1d9" text-anchor="middle" transform="rotate(-45 836.12 235.00)">04.11.2025</text>
  </g>
</svg>