<svg xmlns="http://www.w3.org/2000/svg" width="900" height="290" style="font-family: -apple-system, BlinkMacSystemFont, 'Segoe UI', Helvetica, Arial, sans-serif;">
  <rect width="100%" height="100%" fill="white"/>
  <g>
    <line x1="40" y1="220.00" x2="860" y2="220.00" stroke="#e5e7eb"/><text x="32" y="224.00" font-size="10" fill="#111827" text-anchor="end">0</text><line x1="40" y1="175.00" x2="860" y2="175.00" stroke="#e5e7eb"/><text x="32" y="179.00" font-size="10" fill="#111827" text-anchor="end">500</text><line x1="40" y1="130.00" x2="860" y2="130.00" stroke="#e5e7eb"/><text x="32" y="134.00" font-size="10" fill="#111827" text-anchor="end">1k</text><line x1="40" y1="85.00" x2="860" y2="85.00" stroke="#e5e7eb"/><text x="32" y="89.00" font-size="10" fill="#111827" text-anchor="end">1.5k</text><line x1="40" y1="40.00" x2="860" y2="40.00" stroke="#e5e7eb"/><text x="32" y="44.00" font-size="10" fill="#111827" text-anchor="end">2k</text>
    <line x1="40.00" y1="40" x2="40.00" y2="220" stroke="#e5e7eb" opacity="0.5"/><line x1="118.10" y1="40" x2="118.10" y2="220" stroke="#e5e7eb" opacity="0.5"/><line x1="196.19" y1="40" x2="196.19" y2="220" stroke="#e5e7eb" opacity="0.5"/><line x1="274.29" y1="40" x2="274.29" y2="220" stroke="#e5e7eb" opacity="0.5"/><line x1="352.38" y1="40" x2="352.38" y2="220" stroke="#e5e7eb" opacity="0.5"/><line x1="430.48" y1="40" x2="430.48" y2="220" stroke="#e5e7eb" opacity="0.5"/><line x1="508.57" y1="40" x2="508.57" y2="220" stroke="#e5e7eb" opacity="0.5"/><line x1="586.67" y1="40" x2="586.67" y2="220" stroke="#e5e7eb" opacity="0.5"/><line x1="664.76" y1="40" x2="664.76" y2="220" stroke="#e5e7eb" opacity="0.5"/><line x1="742.86" y1="40" x2="742.86" y2="220" stroke="#e5e7eb" opacity="0.5"/><line x1="820.95" y1="40" x2="820.95" y2="220" stroke="#e5e7eb" opacity="0.5"/>
    <line x1="40" y1="220" x2="860" y2="220" stroke="#9ca3af"/>
    <line x1="40" y1="40"   x2="40"   y2="220" stroke="#9ca3af"/>
    <path d="M 40.00 166.63 L 47.81 166.00 L 55.62 166.00 L 63.43 121.18 L 71.24 115.78 L 79.05 115.78 L 86.86 112.00 L 94.67 108.22 L 102.48 108.22 L 110.29 108.22 L 118.10 108.22 L 125.90 108.22 L 133.71 108.22 L 141.52 108.22 L 149.33 108.22 L 157.14 108.22 L 164.95 108.22 L 172.76 108.22 L 180.57 108.22 L 188.38 108.22 L 196.19 108.22 L 204.00 108.22 L 211.81 109.21 L 219.62 109.12 L 227.43 108.76 L 235.24 108.76 L 243.05 108.76 L 250.86 108.76 L 258.67 108.76 L 266.48 108.76 L 274.29 108.76 L 282.10 108.76 L 289.90 108.76 L 297.71 108.76 L 305.52 108.76 L 313.33 108.76 L 321.14 108.76 L 328.95 108.76 L 336.76 108.76 L 344.57 108.76 L 352.38 108.76 L 360.19 108.76 L 368.00 108.76 L 375.81 108.76 L 383.62 108.76 L 391.43 108.76 L 399.24 108.76 L 407.05 108.76 L 414.86 108.76 L 422.67 108.76 L 430.48 108.76 L 438.29 108.76 L 446.10 108.76 L 453.90 108.76 L 461.71 108.76 L 469.52 108.76 L 477.33 108.76 L 485.14 108.76 L 492.95 108.76 L 500.76 108.76 L 508.57 108.76 L 516.38 108.76 L 524.19 108.76 L 532.00 108.76 L 539.81 108.76 L 547.62 108.76 L 555.43 108.76 L 563.24 108.76 L 571.05 108.76 L 578.86 108.76 L 586.67 108.76 L 594.48 108.76 L 602.29 108.76 L 610.10 108.76 L 617.90 108.76 L 625.71 108.76 L 633.52 108.76 L 641.33 108.76 L 649.14 108.76 L 656.95 108.76 L 664.76 108.76 L 672.57 108.76 L 680.38 108.76 L 688.19 108.76 L 696.00 108.76 L 703.81 108.76 L 711.62 108.76 L 719.43 108.76 L 727.24 108.76 L 735.05 108.76 L 742.86 108.76 L 750.67 108.76 L 758.48 108.76 L 766.29 108.76 L 774.10 108.76 L 781.90 108.76 L 789.71 108.76 L 797.52 108.76 L 805.33 108.76 L 813.14 108.76 L 820.95 108.76 L 828.76 108.76 L 836.57 108.76 L 844.38 108.76 L 852.19 108.76 L 860.00 108.76" fill="none" stroke="#111827" stroke-width="2"/>
    <circle cx="860.00" cy="108.76" r="3" fill="#111827"/>
    <text x="40.00" y="235.00" font-size="9" fill="#111827" text-anchor="middle" transform="rotate(-45 40.00 235.00)">28.08.2025</text><text x="118.10" y="235.00" font-size="9" fill="#111827" text-anchor="middle" transform="rotate(-45 118.10 235.00)">28.08.2025</text><text x="196.19" y="235.00" font-size="9" fill="#111827" text-anchor="middle" transform="rotate(-45 196.19 235.00)">28.08.2025</text><text x="274.29" y="235.00" font-size="9" fill="#111827" text-anchor="middle" transform="rotate(-45 274.29 235.00)">01.09.2025</text><text x="352.38" y="235.00" font-size="9" fill="#111827" text-anchor="middle" transform="rotate(-45 352.38 235.00)">09.09.2025</text><text x="430.48" y="235.00" font-size="9" fill="#111827" text-anchor="middle" transform="rotate(-45 430.48 235.00)">15.09.2025</text><text x="508.57" y="235.00" font-size="9" fill="#111827" text-anchor="middle" transform="rotate(-45 508.57 235.00)">25.09.2025</text><text x="586.67" y="235.00" font-size="9" fill="#111827" text-anchor="middle" transform="rotate(-45 586.67 235.00)">05.10.2025</text><text x="664.76" y="235.00" font-size="9" fill="#111827" text-anchor="middle" transform="rotate(-45 664.76 235.00)">15.10.2025</text><text x="742.86" y="235.00" font-size="9" fill="#111827" text-anchor="middle" transform="rotate(-45 742.86 235.00)">25.10.2025</text><text x="820.95" y="235.00" font-size="9" fill="#111827" text-anchor="middle" transform="rotate(-45 820.95 235.00)">04.11.2025</text>
  </g>
</svg>