<svg xmlns="http://www.w3.org/2000/svg" width="900" height="290" style="font-family: -apple-system, BlinkMacSystemFont, 'Segoe UI', Helvetica, Arial, sans-serif;">
  <rect width="100%" height="100%" fill="white"/>
  <g>
    <line x1="40" y1="220.00" x2="860" y2="220.00" stroke="#e5e7eb"/><text x="32" y="224.00" font-size="10" fill="#111827" text-anchor="end">0</text><line x1="40" y1="175.00" x2="860" y2="175.00" stroke="#e5e7eb"/><text x="32" y="179.00" font-size="10" fill="#111827" text-anchor="end">500</text><line x1="40" y1="130.00" x2="860" y2="130.00" stroke="#e5e7eb"/><text x="32" y="134.00" font-size="10" fill="#111827" text-anchor="end">1k</text><line x1="40" y1="85.00" x2="860" y2="85.00" stroke="#e5e7eb"/><text x="32" y="89.00" font-size="10" fill="#111827" text-anchor="end">1.5k</text><line x1="40" y1="40.00" x2="860" y2="40.00" stroke="#e5e7eb"/><text x="32" y="44.00" font-size="10" fill="#111827" text-anchor="end">2k</text>
    <line x1="40.00" y1="40" x2="40.00" y2="220" stroke="#e5e7eb" opacity="0.5"/><line x1="121.10" y1="40" x2="121.10" y2="220" stroke="#e5e7eb" opacity="0.5"/><line x1="202.20" y1="40" x2="202.20" y2="220" stroke="#e5e7eb" opacity="0.5"/><line x1="283.30" y1="40" x2="283.30" y2="220" stroke="#e5e7eb" opacity="0.5"/><line x1="364.40" y1="40" x2="364.40" y2="220" stroke="#e5e7eb" opacity="0.5"/><line x1="445.49" y1="40" x2="445.49" y2="220" stroke="#e5e7eb" opacity="0.5"/><line x1="526.59" y1="40" x2="526.59" y2="220" stroke="#e5e7eb" opacity="0.5"/><line x1="607.69" y1="40" x2="607.69" y2="220" stroke="#e5e7eb" opacity="0.5"/><line x1="688.79" y1="40" x2="688.79" y2="220" stroke="#e5e7eb" opacity="0.5"/><line x1="769.89" y1="40" x2="769.89" y2="220" stroke="#e5e7eb" opacity="0.5"/><line x1="850.99" y1="40" x2="850.99" y2="220" stroke="#e5e7eb" opacity="0.5"/>
    <line x1="40" y1="220" x2="860" y2="220" stroke="#9ca3af"/>
    <line x1="40" y1="40"   x2="40"   y2="220" stroke="#9ca3af"/>
    <path d="M 40.00 166.63 L 44.51 166.00 L 49.01 166.00 L 53.52 121.18 L 58.02 115.78 L 62.53 115.78 L 67.03 112.00 L 71.54 108.22 L 76.04 108.22 L 80.55 108.22 L 85.05 108.22 L 89.56 108.22 L 94.07 108.22 L 98.57 108.22 L 103.08 108.22 L 107.58 108.22 L 112.09 108.22 L 116.59 108.22 L 121.10 108.22 L 125.60 108.22 L 130.11 108.22 L 134.62 108.22 L 139.12 109.21 L 143.63 109.12 L 148.13 108.76 L 152.64 108.76 L 157.14 108.76 L 161.65 108.76 L 166.15 108.76 L 170.66 108.76 L 175.16 108.76 L 179.67 108.76 L 184.18 108.76 L 188.68 108.76 L 193.19 108.76 L 197.69 108.76 L 202.20 108.76 L 206.70 108.76 L 211.21 108.76 L 215.71 108.76 L 220.22 108.76 L 224.73 108.76 L 229.23 108.76 L 233.74 108.76 L 238.24 108.76 L 242.75 108.76 L 247.25 108.76 L 251.76 108.76 L 256.26 108.76 L 260.77 108.76 L 265.27 108.76 L 269.78 108.76 L 274.29 108.76 L 278.79 108.76 L 283.30 108.76 L 287.80 108.76 L 292.31 108.76 L 296.81 108.76 L 301.32 108.76 L 305.82 108.76 L 310.33 108.76 L 314.84 108.76 L 319.34 108.76 L 323.85 108.76 L 328.35 108.76 L 332.86 108.76 L 337.36 108.76 L 341.87 108.76 L 346.37 108.76 L 350.88 108.76 L 355.38 108.76 L 359.89 108.76 L 364.40 108.76 L 368.90 108.76 L 373.41 108.76 L 377.91 108.76 L 382.42 108.76 L 386.92 108.76 L 391.43 108.76 L 395.93 108.76 L 400.44 108.76 L 404.95 108.76 L 409.45 108.76 L 413.96 108.76 L 418.46 108.76 L 422.97 108.76 L 427.47 108.76 L 431.98 108.76 L 436.48 108.76 L 440.99 108.76 L 445.49 108.76 L 450.00 108.76 L 454.51 108.76 L 459.01 108.76 L 463.52 108.76 L 468.02 108.76 L 472.53 108.76 L 477.03 108.76 L 481.54 108.76 L 486.04 108.76 L 490.55 108.76 L 495.05 108.76 L 499.56 108.76 L 504.07 108.76 L 508.57 108.76 L 513.08 108.76 L 517.58 108.76 L 522.09 108.76 L 526.59 108.76 L 531.10 108.76 L 535.60 108.76 L 540.11 108.76 L 544.62 108.76 L 549.12 108.76 L 553.63 108.76 L 558.13 108.76 L 562.64 108.76 L 567.14 108.76 L 571.65 108.76 L 576.15 108.76 L 580.66 108.76 L 585.16 108.76 L 589.67 108.76 L 594.18 108.76 L 598.68 108.76 L 603.19 108.76 L 607.69 108.76 L 612.20 108.76 L 616.70 108.76 L 621.21 108.76 L 625.71 108.76 L 630.22 108.76 L 634.73 108.76 L 639.23 108.76 L 643.74 108.76 L 648.24 108.76 L 652.75 108.76 L 657.25 108.76 L 661.76 108.76 L 666.26 108.76 L 670.77 108.76 L 675.27 108.76 L 679.78 108.76 L 684.29 108.94 L 688.79 100.39 L 693.30 81.40 L 697.80 81.40 L 702.31 81.40 L 706.81 81.40 L 711.32 81.40 L 715.82 70.78 L 720.33 70.78 L 724.84 70.78 L 729.34 70.78 L 733.85 70.78 L 738.35 70.78 L 742.86 70.78 L 747.36 70.78 L 751.87 70.78 L 756.37 70.78 L 760.88 70.78 L 765.38 70.78 L 769.89 70.78 L 774.40 70.78 L 778.90 70.78 L 783.41 70.78 L 787.91 70.78 L 792.42 70.78 L 796.92 70.78 L 801.43 70.78 L 805.93 70.78 L 810.44 70.78 L 814.95 70.78 L 819.45 70.78 L 823.96 70.78 L 828.46 70.78 L 832.97 70.78 L 837.47 70.78 L 841.98 70.78 L 846.48 70.78 L 850.99 70.78 L 855.49 70.78 L 860.00 70.78" fill="none" stroke="#111827" stroke-width="2"/>
    <circle cx="860.00" cy="70.78" r="3" fill="#111827"/>
    <text x="40.00" y="235.00" font-size="9" fill="#111827" text-anchor="middle" transform="rotate(-45 40.00 235.00)">28.08.2025</text><text x="121.10" y="235.00" font-size="9" fill="#111827" text-anchor="middle" transform="rotate(-45 121.10 235.00)">28.08.2025</text><text x="202.20" y="235.00" font-size="9" fill="#111827" text-anchor="middle" transform="rotate(-45 202.20 235.00)">07.09.2025</text><text x="283.30" y="235.00" font-size="9" fill="#111827" text-anchor="middle" transform="rotate(-45 283.30 235.00)">17.09.2025</text><text x="364.40" y="235.00" font-size="9" fill="#111827" text-anchor="middle" transform="rotate(-45 364.40 235.00)">05.10.2025</text><text x="445.49" y="235.00" font-size="9" fill="#111827" text-anchor="middle" transform="rotate(-45 445.49 235.00)">22.10.2025</text><text x="526.59" y="235.00" font-size="9" fill="#111827" text-anchor="middle" transform="rotate(-45 526.59 235.00)">07.11.2025</text><text x="607.69" y="235.00" font-size="9" fill="#111827" text-anchor="middle" transform="rotate(-45 607.69 235.00)">24.11.2025</text><text x="688.79" y="235.00" font-size="9" fill="#111827" text-anchor="middle" transform="rotate(-45 688.79 235.00)">04.12.2025</text><text x="769.89" y="235.00" font-size="9" fill="#111827" text-anchor="middle" transform="rotate(-45 769.89 235.00)">14.12.2025</text><text x="850.99" y="235.00" font-size="9" fill="#111827" text-anchor="middle" transform="rotate(-45 850.99 235.00)">30.12.2025</text>
  </g>
</svg>