<svg xmlns="http://www.w3.org/2000/svg" width="900" height="290" style="font-family: -apple-system, BlinkMacSystemFont, 'Segoe UI', Helvetica, Arial, sans-serif;">
  <rect width="100%" height="100%" fill="white"/>
  <g>
    <line x1="40" y1="220.00" x2="860" y2="220.00" stroke="#e5e7eb"/><text x="32" y="224.00" font-size="10" fill="#111827" text-anchor="end">0</text><line x1="40" y1="175.00" x2="860" y2="175.00" stroke="#e5e7eb"/><text x="32" y="179.00" font-size="10" fill="#111827" text-anchor="end">500</text><line x1="40" y1="130.00" x2="860" y2="130.00" stroke="#e5e7eb"/><text x="32" y="134.00" font-size="10" fill="#111827" text-anchor="end">1k</text><line x1="40" y1="85.00" x2="860" y2="85.00" stroke="#e5e7eb"/><text x="32" y="89.00" font-size="10" fill="#111827" text-anchor="end">1.5k</text><line x1="40" y1="40.00" x2="860" y2="40.00" stroke="#e5e7eb"/><text x="32" y="44.00" font-size="10" fill="#111827" text-anchor="end">2k</text>
    <line x1="40.00" y1="40" x2="40.00" y2="220" stroke="#e5e7eb" opacity="0.5"/><line x1="120.00" y1="40" x2="120.00" y2="220" stroke="#e5e7eb" opacity="0.5"/><line x1="200.00" y1="40" x2="200.00" y2="220" stroke="#e5e7eb" opacity="0.5"/><line x1="280.00" y1="40" x2="280.00" y2="220" stroke="#e5e7eb" opacity="0.5"/><line x1="360.00" y1="40" x2="360.00" y2="220" stroke="#e5e7eb" opacity="0.5"/><line x1="440.00" y1="40" x2="440.00" y2="220" stroke="#e5e7eb" opacity="0.5"/><line x1="520.00" y1="40" x2="520.00" y2="220" stroke="#e5e7eb" opacity="0.5"/><line x1="600.00" y1="40" x2="600.00" y2="220" stroke="#e5e7eb" opacity="0.5"/><line x1="680.00" y1="40" x2="680.00" y2="220" stroke="#e5e7eb" opacity="0.5"/><line x1="760.00" y1="40" x2="760.00" y2="220" stroke="#e5e7eb" opacity="0.5"/><line x1="840.00" y1="40" x2="840.00" y2="220" stroke="#e5e7eb" opacity="0.5"/>
    <line x1="40" y1="220" x2="860" y2="220" stroke="#9ca3af"/>
    <line x1="40" y1="40"   x2="40"   y2="220" stroke="#9ca3af"/>
    <path d="M 40.00 166.63 L 44.00 166.00 L 48.00 166.00 L 52.00 121.18 L 56.00 115.78 L 60.00 115.78 L 64.00 112.00 L 68.00 108.22 L 72.00 108.22 L 76.00 108.22 L 80.00 108.22 L 84.00 108.22 L 88.00 108.22 L 92.00 108.22 L 96.00 108.22 L 100.00 108.22 L 104.00 108.22 L 108.00 108.22 L 112.00 108.22 L 116.00 108.22 L 120.00 108.22 L 124.00 108.22 L 128.00 109.21 L 132.00 109.12 L 136.00 108.76 L 140.00 108.76 L 144.00 108.76 L 148.00 108.76 L 152.00 108.76 L 156.00 108.76 L 160.00 108.76 L 164.00 108.76 L 168.00 108.76 L 172.00 108.76 L 176.00 108.76 L 180.00 108.76 L 184.00 108.76 L 188.00 108.76 L 192.00 108.76 L 196.00 108.76 L 200.00 108.76 L 204.00 108.76 L 208.00 108.76 L 212.00 108.76 L 216.00 108.76 L 220.00 108.76 L 224.00 108.76 L 228.00 108.76 L 232.00 108.76 L 236.00 108.76 L 240.00 108.76 L 244.00 108.76 L 248.00 108.76 L 252.00 108.76 L 256.00 108.76 L 260.00 108.76 L 264.00 108.76 L 268.00 108.76 L 272.00 108.76 L 276.00 108.76 L 280.00 108.76 L 284.00 108.76 L 288.00 108.76 L 292.00 108.76 L 296.00 108.76 L 300.00 108.76 L 304.00 108.76 L 308.00 108.76 L 312.00 108.76 L 316.00 108.76 L 320.00 108.76 L 324.00 108.76 L 328.00 108.76 L 332.00 108.76 L 336.00 108.76 L 340.00 108.76 L 344.00 108.76 L 348.00 108.76 L 352.00 108.76 L 356.00 108.76 L 360.00 108.76 L 364.00 108.76 L 368.00 108.76 L 372.00 108.76 L 376.00 108.76 L 380.00 108.76 L 384.00 108.76 L 388.00 108.76 L 392.00 108.76 L 396.00 108.76 L 400.00 108.76 L 404.00 108.76 L 408.00 108.76 L 412.00 108.76 L 416.00 108.76 L 420.00 108.76 L 424.00 108.76 L 428.00 108.76 L 432.00 108.76 L 436.00 108.76 L 440.00 108.76 L 444.00 108.76 L 448.00 108.76 L 452.00 108.76 L 456.00 108.76 L 460.00 108.76 L 464.00 108.76 L 468.00 108.76 L 472.00 108.76 L 476.00 108.76 L 480.00 108.76 L 484.00 108.76 L 488.00 108.76 L 492.00 108.76 L 496.00 108.76 L 500.00 108.76 L 504.00 108.76 L 508.00 108.76 L 512.00 108.76 L 516.00 108.76 L 520.00 108.76 L 524.00 108.76 L 528.00 108.76 L 532.00 108.76 L 536.00 108.76 L 540.00 108.76 L 544.00 108.76 L 548.00 108.76 L 552.00 108.76 L 556.00 108.76 L 560.00 108.76 L 564.00 108.76 L 568.00 108.76 L 572.00 108.76 L 576.00 108.76 L 580.00 108.76 L 584.00 108.76 L 588.00 108.76 L 592.00 108.76 L 596.00 108.76 L 600.00 108.76 L 604.00 108.76 L 608.00 108.76 L 612.00 108.94 L 616.00 100.39 L 620.00 81.40 L 624.00 81.40 L 628.00 81.40 L 632.00 81.40 L 636.00 81.40 L 640.00 70.78 L 644.00 70.78 L 648.00 70.78 L 652.00 70.78 L 656.00 70.78 L 660.00 70.78 L 664.00 70.78 L 668.00 70.78 L 672.00 70.78 L 676.00 70.78 L 680.00 70.78 L 684.00 70.78 L 688.00 70.78 L 692.00 70.78 L 696.00 70.78 L 700.00 70.78 L 704.00 70.78 L 708.00 70.78 L 712.00 70.78 L 716.00 70.78 L 720.00 70.78 L 724.00 70.78 L 728.00 70.78 L 732.00 70.78 L 736.00 70.78 L 740.00 70.78 L 744.00 70.78 L 748.00 70.78 L 752.00 70.78 L 756.00 70.78 L 760.00 70.78 L 764.00 70.78 L 768.00 70.78 L 772.00 70.78 L 776.00 70.78 L 780.00 70.78 L 784.00 70.78 L 788.00 70.78 L 792.00 70.78 L 796.00 70.78 L 800.00 70.78 L 804.00 70.78 L 808.00 70.78 L 812.00 70.78 L 816.00 70.78 L 820.00 70.78 L 824.00 70.78 L 828.00 70.78 L 832.00 70.78 L 836.00 70.78 L 840.00 70.78 L 844.00 70.78 L 848.00 70.78 L 852.00 70.78 L 856.00 70.78 L 860.00 70.78" fill="none" stroke="#111827" stroke-width="2"/>
    <circle cx="860.00" cy="70.78" r="3" fill="#111827"/>
    <text x="40.00" y="235.00" font-size="9" fill="#111827" text-anchor="middle" transform="rotate(-45 40.00 235.00)">28.08.2025</text><text x="120.00" y="235.00" font-size="9" fill="#111827" text-anchor="middle" transform="rotate(-45 120.00 235.00)">28.08.2025</text><text x="200.00" y="235.00" font-size="9" fill="#111827" text-anchor="middle" transform="rotate(-45 200.00 235.00)">09.09.2025</text><text x="280.00" y="235.00" font-size="9" fill="#111827" text-anchor="middle" transform="rotate(-45 280.00 235.00)">23.09.2025</text><text x="360.00" y="235.00" font-size="9" fill="#111827" text-anchor="middle" transform="rotate(-45 360.00 235.00)">12.10.2025</text><text x="440.00" y="235.00" font-size="9" fill="#111827" text-anchor="middle" transform="rotate(-45 440.00 235.00)">30.10.2025</text><text x="520.00" y="235.00" font-size="9" fill="#111827" text-anchor="middle" transform="rotate(-45 520.00 235.00)">19.11.2025</text><text x="600.00" y="235.00" font-size="9" fill="#111827" text-anchor="middle" transform="rotate(-45 600.00 235.00)">02.12.2025</text><text x="680.00" y="235.00" font-size="9" fill="#111827" text-anchor="middle" transform="rotate(-45 680.00 235.00)">12.12.2025</text><text x="760.00" y="235.00" font-size="9" fill="#111827" text-anchor="middle" transform="rotate(-45 760.00 235.00)">30.12.2025</text><text x="840.00" y="235.00" font-size="9" fill="#111827" text-anchor="middle" transform="rotate(-45 840.00 235.00)">17.01.2026</text>
  </g>
</svg>