<svg xmlns="http://www.w3.org/2000/svg" width="900" height="290" style="font-family: -apple-system, BlinkMacSystemFont, 'Segoe UI', Helvetica, Arial, sans-serif;">
  <rect width="100%" height="100%" fill="white"/>
  <g>
    <line x1="40" y1="220.00" x2="860" y2="220.00" stroke="#e5e7eb"/><text x="32" y="224.00" font-size="10" fill="#111827" text-anchor="end">0</text><line x1="40" y1="175.00" x2="860" y2="175.00" stroke="#e5e7eb"/><text x="32" y="179.00" font-size="10" fill="#111827" text-anchor="end">500</text><line x1="40" y1="130.00" x2="860" y2="130.00" stroke="#e5e7eb"/><text x="32" y="134.00" font-size="10" fill="#111827" text-anchor="end">1k</text><line x1="40" y1="85.00" x2="860" y2="85.00" stroke="#e5e7eb"/><text x="32" y="89.00" font-size="10" fill="#111827" text-anchor="end">1.5k</text><line x1="40" y1="40.00" x2="860" y2="40.00" stroke="#e5e7eb"/><text x="32" y="44.00" font-size="10" fill="#111827" text-anchor="end">2k</text>
    <line x1="40.00" y1="40" x2="40.00" y2="220" stroke="#e5e7eb" opacity="0.5"/><line x1="121.63" y1="40" x2="121.63" y2="220" stroke="#e5e7eb" opacity="0.5"/><line x1="203.26" y1="40" x2="203.26" y2="220" stroke="#e5e7eb" opacity="0.5"/><line x1="284.89" y1="40" x2="284.89" y2="220" stroke="#e5e7eb" opacity="0.5"/><line x1="366.52" y1="40" x2="366.52" y2="220" stroke="#e5e7eb" opacity="0.5"/><line x1="448.14" y1="40" x2="448.14" y2="220" stroke="#e5e7eb" opacity="0.5"/><line x1="529.77" y1="40" x2="529.77" y2="220" stroke="#e5e7eb" opacity="0.5"/><line x1="611.40" y1="40" x2="611.40" y2="220" stroke="#e5e7eb" opacity="0.5"/><line x1="693.03" y1="40" x2="693.03" y2="220" stroke="#e5e7eb" opacity="0.5"/><line x1="774.66" y1="40" x2="774.66" y2="220" stroke="#e5e7eb" opacity="0.5"/><line x1="856.29" y1="40" x2="856.29" y2="220" stroke="#e5e7eb" opacity="0.5"/>
    <line x1="40" y1="220" x2="860" y2="220" stroke="#9ca3af"/>
    <line x1="40" y1="40"   x2="40"   y2="220" stroke="#9ca3af"/>
    <path d="M 40.00 166.63 L 43.71 166.00 L 47.42 166.00 L 51.13 121.18 L 54.84 115.78 L 58.55 115.78 L 62.26 112.00 L 65.97 108.22 L 69.68 108.22 L 73.39 108.22 L 77.10 108.22 L 80.81 108.22 L 84.52 108.22 L 88.24 108.22 L 91.95 108.22 L 95.66 108.22 L 99.37 108.22 L 103.08 108.22 L 106.79 108.22 L 110.50 108.22 L 114.21 108.22 L 117.92 108.22 L 121.63 109.21 L 125.34 109.12 L 129.05 108.76 L 132.76 108.76 L 136.47 108.76 L 140.18 108.76 L 143.89 108.76 L 147.60 108.76 L 151.31 108.76 L 155.02 108.76 L 158.73 108.76 L 162.44 108.76 L 166.15 108.76 L 169.86 108.76 L 173.57 108.76 L 177.29 108.76 L 181.00 108.76 L 184.71 108.76 L 188.42 108.76 L 192.13 108.76 L 195.84 108.76 L 199.55 108.76 L 203.26 108.76 L 206.97 108.76 L 210.68 108.76 L 214.39 108.76 L 218.10 108.76 L 221.81 108.76 L 225.52 108.76 L 229.23 108.76 L 232.94 108.76 L 236.65 108.76 L 240.36 108.76 L 244.07 108.76 L 247.78 108.76 L 251.49 108.76 L 255.20 108.76 L 258.91 108.76 L 262.62 108.76 L 266.33 108.76 L 270.05 108.76 L 273.76 108.76 L 277.47 108.76 L 281.18 108.76 L 284.89 108.76 L 288.60 108.76 L 292.31 108.76 L 296.02 108.76 L 299.73 108.76 L 303.44 108.76 L 307.15 108.76 L 310.86 108.76 L 314.57 108.76 L 318.28 108.76 L 321.99 108.76 L 325.70 108.76 L 329.41 108.76 L 333.12 108.76 L 336.83 108.76 L 340.54 108.76 L 344.25 108.76 L 347.96 108.76 L 351.67 108.76 L 355.38 108.76 L 359.10 108.76 L 362.81 108.76 L 366.52 108.76 L 370.23 108.76 L 373.94 108.76 L 377.65 108.76 L 381.36 108.76 L 385.07 108.76 L 388.78 108.76 L 392.49 108.76 L 396.20 108.76 L 399.91 108.76 L 403.62 108.76 L 407.33 108.76 L 411.04 108.76 L 414.75 108.76 L 418.46 108.76 L 422.17 108.76 L 425.88 108.76 L 429.59 108.76 L 433.30 108.76 L 437.01 108.76 L 440.72 108.76 L 444.43 108.76 L 448.14 108.76 L 451.86 108.76 L 455.57 108.76 L 459.28 108.76 L 462.99 108.76 L 466.70 108.76 L 470.41 108.76 L 474.12 108.76 L 477.83 108.76 L 481.54 108.76 L 485.25 108.76 L 488.96 108.76 L 492.67 108.76 L 496.38 108.76 L 500.09 108.76 L 503.80 108.76 L 507.51 108.76 L 511.22 108.76 L 514.93 108.76 L 518.64 108.76 L 522.35 108.76 L 526.06 108.76 L 529.77 108.76 L 533.48 108.76 L 537.19 108.76 L 540.90 108.76 L 544.62 108.76 L 548.33 108.76 L 552.04 108.76 L 555.75 108.76 L 559.46 108.76 L 563.17 108.76 L 566.88 108.76 L 570.59 108.94 L 574.30 100.39 L 578.01 81.40 L 581.72 81.40 L 585.43 81.40 L 589.14 81.40 L 592.85 81.40 L 596.56 70.78 L 600.27 70.78 L 603.98 70.78 L 607.69 70.78 L 611.40 70.78 L 615.11 70.78 L 618.82 70.78 L 622.53 70.78 L 626.24 70.78 L 629.95 70.78 L 633.67 70.78 L 637.38 70.78 L 641.09 70.78 L 644.80 70.78 L 648.51 70.78 L 652.22 70.78 L 655.93 70.78 L 659.64 70.78 L 663.35 70.78 L 667.06 70.78 L 670.77 70.78 L 674.48 70.78 L 678.19 70.78 L 681.90 70.78 L 685.61 70.78 L 689.32 70.78 L 693.03 70.78 L 696.74 70.78 L 700.45 70.78 L 704.16 70.78 L 707.87 70.78 L 711.58 70.78 L 715.29 70.78 L 719.00 70.78 L 722.71 70.78 L 726.43 70.78 L 730.14 70.78 L 733.85 70.78 L 737.56 70.78 L 741.27 70.78 L 744.98 70.78 L 748.69 70.78 L 752.40 70.78 L 756.11 70.78 L 759.82 70.78 L 763.53 70.78 L 767.24 70.78 L 770.95 70.78 L 774.66 70.78 L 778.37 70.78 L 782.08 70.78 L 785.79 70.78 L 789.50 70.78 L 793.21 70.78 L 796.92 70.78 L 800.63 70.78 L 804.34 70.78 L 808.05 70.78 L 811.76 70.78 L 815.48 70.78 L 819.19 70.78 L 822.90 70.78 L 826.61 70.78 L 830.32 70.78 L 834.03 70.78 L 837.74 70.78 L 841.45 70.78 L 845.16 70.78 L 848.87 70.78 L 852.58 70.78 L 856.29 70.78 L 860.00 70.78" fill="none" stroke="#111827" stroke-width="2"/>
    <circle cx="860.00" cy="70.78" r="3" fill="#111827"/>
    <text x="40.00" y="235.00" font-size="9" fill="#111827" text-anchor="middle" transform="rotate(-45 40.00 235.00)">28.08.2025</text><text x="121.63" y="235.00" font-size="9" fill="#111827" text-anchor="middle" transform="rotate(-45 121.63 235.00)">28.08.2025</text><text x="203.26" y="235.00" font-size="9" fill="#111827" text-anchor="middle" transform="rotate(-45 203.26 235.00)">13.09.2025</text><text x="284.89" y="235.00" font-size="9" fill="#111827" text-anchor="middle" transform="rotate(-45 284.89 235.00)">29.09.2025</text><text x="366.52" y="235.00" font-size="9" fill="#111827" text-anchor="middle" transform="rotate(-45 366.52 235.00)">20.10.2025</text><text x="448.14" y="235.00" font-size="9" fill="#111827" text-anchor="middle" transform="rotate(-45 448.14 235.00)">09.11.2025</text><text x="529.77" y="235.00" font-size="9" fill="#111827" text-anchor="middle" transform="rotate(-45 529.77 235.00)">28.11.2025</text><text x="611.40" y="235.00" font-size="9" fill="#111827" text-anchor="middle" transform="rotate(-45 611.40 235.00)">11.12.2025</text><text x="693.03" y="235.00" font-size="9" fill="#111827" text-anchor="middle" transform="rotate(-45 693.03 235.00)">26.12.2025</text><text x="774.66" y="235.00" font-size="9" fill="#111827" text-anchor="middle" transform="rotate(-45 774.66 235.00)">15.01.2026</text><text x="856.29" y="235.00" font-size="9" fill="#111827" text-anchor="middle" transform="rotate(-45 856.29 235.00)">06.02.2026</text>
  </g>
</svg>