<svg xmlns="http://www.w3.org/2000/svg" width="900" height="290" style="font-family: -apple-system, BlinkMacSystemFont, 'Segoe UI', Helvetica, Arial, sans-serif;">
  <rect width="100%" height="100%" fill="white"/>
  <g>
    <line x1="40" y1="220.00" x2="860" y2="220.00" stroke="#e5e7eb"/><text x="32" y="224.00" font-size="10" fill="#111827" text-anchor="end">0</text><line x1="40" y1="175.00" x2="860" y2="175.00" stroke="#e5e7eb"/><text x="32" y="179.00" font-size="10" fill="#111827" text-anchor="end">500</text><line x1="40" y1="130.00" x2="860" y2="130.00" stroke="#e5e7eb"/><text x="32" y="134.00" font-size="10" fill="#111827" text-anchor="end">1k</text><line x1="40" y1="85.00" x2="860" y2="85.00" stroke="#e5e7eb"/><text x="32" y="89.00" font-size="10" fill="#111827" text-anchor="end">1.5k</text><line x1="40" y1="40.00" x2="860" y2="40.00" stroke="#e5e7eb"/><text x="32" y="44.00" font-size="10" fill="#111827" text-anchor="end">2k</text>
    <line x1="40.00" y1="40" x2="40.00" y2="220" stroke="#e5e7eb" opacity="0.5"/><line x1="119.78" y1="40" x2="119.78" y2="220" stroke="#e5e7eb" opacity="0.5"/><line x1="199.57" y1="40" x2="199.57" y2="220" stroke="#e5e7eb" opacity="0.5"/><line x1="279.35" y1="40" x2="279.35" y2="220" stroke="#e5e7eb" opacity="0.5"/><line x1="359.14" y1="40" x2="359.14" y2="220" stroke="#e5e7eb" opacity="0.5"/><line x1="438.92" y1="40" x2="438.92" y2="220" stroke="#e5e7eb" opacity="0.5"/><line x1="518.70" y1="40" x2="518.70" y2="220" stroke="#e5e7eb" opacity="0.5"/><line x1="598.49" y1="40" x2="598.49" y2="220" stroke="#e5e7eb" opacity="0.5"/><line x1="678.27" y1="40" x2="678.27" y2="220" stroke="#e5e7eb" opacity="0.5"/><line x1="758.05" y1="40" x2="758.05" y2="220" stroke="#e5e7eb" opacity="0.5"/><line x1="837.84" y1="40" x2="837.84" y2="220" stroke="#e5e7eb" opacity="0.5"/>
    <line x1="40" y1="220" x2="860" y2="220" stroke="#9ca3af"/>
    <line x1="40" y1="40"   x2="40"   y2="220" stroke="#9ca3af"/>
    <path d="M 40.00 166.63 L 44.43 166.00 L 48.86 166.00 L 53.30 121.18 L 57.73 115.78 L 62.16 115.78 L 66.59 112.00 L 71.03 108.22 L 75.46 108.22 L 79.89 108.22 L 84.32 108.22 L 88.76 108.22 L 93.19 108.22 L 97.62 108.22 L 102.05 108.22 L 106.49 108.22 L 110.92 108.22 L 115.35 108.22 L 119.78 108.22 L 124.22 108.22 L 128.65 108.22 L 133.08 108.22 L 137.51 109.21 L 141.95 109.12 L 146.38 108.76 L 150.81 108.76 L 155.24 108.76 L 159.68 108.76 L 164.11 108.76 L 168.54 108.76 L 172.97 108.76 L 177.41 108.76 L 181.84 108.76 L 186.27 108.76 L 190.70 108.76 L 195.14 108.76 L 199.57 108.76 L 204.00 108.76 L 208.43 108.76 L 212.86 108.76 L 217.30 108.76 L 221.73 108.76 L 226.16 108.76 L 230.59 108.76 L 235.03 108.76 L 239.46 108.76 L 243.89 108.76 L 248.32 108.76 L 252.76 108.76 L 257.19 108.76 L 261.62 108.76 L 266.05 108.76 L 270.49 108.76 L 274.92 108.76 L 279.35 108.76 L 283.78 108.76 L 288.22 108.76 L 292.65 108.76 L 297.08 108.76 L 301.51 108.76 L 305.95 108.76 L 310.38 108.76 L 314.81 108.76 L 319.24 108.76 L 323.68 108.76 L 328.11 108.76 L 332.54 108.76 L 336.97 108.76 L 341.41 108.76 L 345.84 108.76 L 350.27 108.76 L 354.70 108.76 L 359.14 108.76 L 363.57 108.76 L 368.00 108.76 L 372.43 108.76 L 376.86 108.76 L 381.30 108.76 L 385.73 108.76 L 390.16 108.76 L 394.59 108.76 L 399.03 108.76 L 403.46 108.76 L 407.89 108.76 L 412.32 108.76 L 416.76 108.76 L 421.19 108.76 L 425.62 108.76 L 430.05 108.76 L 434.49 108.76 L 438.92 108.76 L 443.35 108.76 L 447.78 108.76 L 452.22 108.76 L 456.65 108.76 L 461.08 108.76 L 465.51 108.76 L 469.95 108.76 L 474.38 108.76 L 478.81 108.76 L 483.24 108.76 L 487.68 108.76 L 492.11 108.76 L 496.54 108.76 L 500.97 108.76 L 505.41 108.76 L 509.84 108.76 L 514.27 108.76 L 518.70 108.76 L 523.14 108.76 L 527.57 108.76 L 532.00 108.76 L 536.43 108.76 L 540.86 108.76 L 545.30 108.76 L 549.73 108.76 L 554.16 108.76 L 558.59 108.76 L 563.03 108.76 L 567.46 108.76 L 571.89 108.76 L 576.32 108.76 L 580.76 108.76 L 585.19 108.76 L 589.62 108.76 L 594.05 108.76 L 598.49 108.76 L 602.92 108.76 L 607.35 108.76 L 611.78 108.76 L 616.22 108.76 L 620.65 108.76 L 625.08 108.76 L 629.51 108.76 L 633.95 108.76 L 638.38 108.76 L 642.81 108.76 L 647.24 108.76 L 651.68 108.76 L 656.11 108.76 L 660.54 108.76 L 664.97 108.76 L 669.41 108.76 L 673.84 108.94 L 678.27 100.39 L 682.70 81.40 L 687.14 81.40 L 691.57 81.40 L 696.00 81.40 L 700.43 81.40 L 704.86 70.78 L 709.30 70.78 L 713.73 70.78 L 718.16 70.78 L 722.59 70.78 L 727.03 70.78 L 731.46 70.78 L 735.89 70.78 L 740.32 70.78 L 744.76 70.78 L 749.19 70.78 L 753.62 70.78 L 758.05 70.78 L 762.49 70.78 L 766.92 70.78 L 771.35 70.78 L 775.78 70.78 L 780.22 70.78 L 784.65 70.78 L 789.08 70.78 L 793.51 70.78 L 797.95 70.78 L 802.38 70.78 L 806.81 70.78 L 811.24 70.78 L 815.68 70.78 L 820.11 70.78 L 824.54 70.78 L 828.97 70.78 L 833.41 70.78 L 837.84 70.78 L 842.27 70.78 L 846.70 70.78 L 851.14 70.78 L 855.57 70.78 L 860.00 70.78" fill="none" stroke="#111827" stroke-width="2"/>
    <circle cx="860.00" cy="70.78" r="3" fill="#111827"/>
    <text x="40.00" y="235.00" font-size="9" fill="#111827" text-anchor="middle" transform="rotate(-45 40.00 235.00)">28.08.2025</text><text x="119.78" y="235.00" font-size="9" fill="#111827" text-anchor="middle" transform="rotate(-45 119.78 235.00)">28.08.2025</text><text x="199.57" y="235.00" font-size="9" fill="#111827" text-anchor="middle" transform="rotate(-45 199.57 235.00)">07.09.2025</text><text x="279.35" y="235.00" font-size="9" fill="#111827" text-anchor="middle" transform="rotate(-45 279.35 235.00)">17.09.2025</text><text x="359.14" y="235.00" font-size="9" fill="#111827" text-anchor="middle" transform="rotate(-45 359.14 235.00)">05.10.2025</text><text x="438.92" y="235.00" font-size="9" fill="#111827" text-anchor="middle" transform="rotate(-45 438.92 235.00)">22.10.2025</text><text x="518.70" y="235.00" font-size="9" fill="#111827" text-anchor="middle" transform="rotate(-45 518.70 235.00)">07.11.2025</text><text x="598.49" y="235.00" font-size="9" fill="#111827" text-anchor="middle" transform="rotate(-45 598.49 235.00)">24.11.2025</text><text x="678.27" y="235.00" font-size="9" fill="#111827" text-anchor="middle" transform="rotate(-45 678.27 235.00)">04.12.2025</text><text x="758.05" y="235.00" font-size="9" fill="#111827" text-anchor="middle" transform="rotate(-45 758.05 235.00)">14.12.2025</text><text x="837.84" y="235.00" font-size="9" fill="#111827" text-anchor="middle" transform="rotate(-45 837.84 235.00)">30.12.2025</text>
  </g>
</svg>