<svg xmlns="http://www.w3.org/2000/svg" width="900" height="290" style="font-family: -apple-system, BlinkMacSystemFont, 'Segoe UI', Helvetica, Arial, sans-serif;">
  <rect width="100%" height="100%" fill="#0d1117"/>
  <g>
    <line x1="40" y1="220.00" x2="860" y2="220.00" stroke="#30363d"/><text x="32" y="224.00" font-size="10" fill="#c9d1d9" text-anchor="end">0</text><line x1="40" y1="175.00" x2="860" y2="175.00" stroke="#30363d"/><text x="32" y="179.00" font-size="10" fill="#c9d1d9" text-anchor="end">500</text><line x1="40" y1="130.00" x2="860" y2="130.00" stroke="#30363d"/><text x="32" y="134.00" font-size="10" fill="#c9d1d9" text-anchor="end">1k</text><line x1="40" y1="85.00" x2="860" y2="85.00" stroke="#30363d"/><text x="32" y="89.00" font-size="10" fill="#c9d1d9" text-anchor="end">1.5k</text><line x1="40" y1="40.00" x2="860" y2="40.00" stroke="#30363d"/><text x="32" y="44.00" font-size="10" fill="#c9d1d9" text-anchor="end">2k</text>
    <line x1="40.00" y1="40" x2="40.00" y2="220" stroke="#30363d" opacity="0.5"/><line x1="120.11" y1="40" x2="120.11" y2="220" stroke="#30363d" opacity="0.5"/><line x1="200.23" y1="40" x2="200.23" y2="220" stroke="#30363d" opacity="0.5"/><line x1="280.34" y1="40" x2="280.34" y2="220" stroke="#30363d" opacity="0.5"/><line x1="360.46" y1="40" x2="360.46" y2="220" stroke="#30363d" opacity="0.5"/><line x1="440.57" y1="40" x2="440.57" y2="220" stroke="#30363d" opacity="0.5"/><line x1="520.69" y1="40" x2="520.69" y2="220" stroke="#30363d" opacity="0.5"/><line x1="600.80" y1="40" x2="600.80" y2="220" stroke="#30363d" opacity="0.5"/><line x1="680.92" y1="40" x2="680.92" y2="220" stroke="#30363d" opacity="0.5"/><line x1="761.03" y1="40" x2="761.03" y2="220" stroke="#30363d" opacity="0.5"/><line x1="841.15" y1="40" x2="841.15" y2="220" stroke="#30363d" opacity="0.5"/>
    <line x1="40" y1="220" x2="860" y2="220" stroke="#30363d"/>
    <line x1="40" y1="40"   x2="40"   y2="220" stroke="#30363d"/>
    <path d="M 40.00 166.63 L 44.71 166.00 L 49.43 166.00 L 54.14 121.18 L 58.85 115.78 L 63.56 115.78 L 68.28 112.00 L 72.99 108.22 L 77.70 108.22 L 82.41 108.22 L 87.13 108.22 L 91.84 108.22 L 96.55 108.22 L 101.26 108.22 L 105.98 108.22 L 110.69 108.22 L 115.40 108.22 L 120.11 108.22 L 124.83 108.22 L 129.54 108.22 L 134.25 108.22 L 138.97 108.22 L 143.68 109.21 L 148.39 109.12 L 153.10 108.76 L 157.82 108.76 L 162.53 108.76 L 167.24 108.76 L 171.95 108.76 L 176.67 108.76 L 181.38 108.76 L 186.09 108.76 L 190.80 108.76 L 195.52 108.76 L 200.23 108.76 L 204.94 108.76 L 209.66 108.76 L 214.37 108.76 L 219.08 108.76 L 223.79 108.76 L 228.51 108.76 L 233.22 108.76 L 237.93 108.76 L 242.64 108.76 L 247.36 108.76 L 252.07 108.76 L 256.78 108.76 L 261.49 108.76 L 266.21 108.76 L 270.92 108.76 L 275.63 108.76 L 280.34 108.76 L 285.06 108.76 L 289.77 108.76 L 294.48 108.76 L 299.20 108.76 L 303.91 108.76 L 308.62 108.76 L 313.33 108.76 L 318.05 108.76 L 322.76 108.76 L 327.47 108.76 L 332.18 108.76 L 336.90 108.76 L 341.61 108.76 L 346.32 108.76 L 351.03 108.76 L 355.75 108.76 L 360.46 108.76 L 365.17 108.76 L 369.89 108.76 L 374.60 108.76 L 379.31 108.76 L 384.02 108.76 L 388.74 108.76 L 393.45 108.76 L 398.16 108.76 L 402.87 108.76 L 407.59 108.76 L 412.30 108.76 L 417.01 108.76 L 421.72 108.76 L 426.44 108.76 L 431.15 108.76 L 435.86 108.76 L 440.57 108.76 L 445.29 108.76 L 450.00 108.76 L 454.71 108.76 L 459.43 108.76 L 464.14 108.76 L 468.85 108.76 L 473.56 108.76 L 478.28 108.76 L 482.99 108.76 L 487.70 108.76 L 492.41 108.76 L 497.13 108.76 L 501.84 108.76 L 506.55 108.76 L 511.26 108.76 L 515.98 108.76 L 520.69 108.76 L 525.40 108.76 L 530.11 108.76 L 534.83 108.76 L 539.54 108.76 L 544.25 108.76 L 548.97 108.76 L 553.68 108.76 L 558.39 108.76 L 563.10 108.76 L 567.82 108.76 L 572.53 108.76 L 577.24 108.76 L 581.95 108.76 L 586.67 108.76 L 591.38 108.76 L 596.09 108.76 L 600.80 108.76 L 605.52 108.76 L 610.23 108.76 L 614.94 108.76 L 619.66 108.76 L 624.37 108.76 L 629.08 108.76 L 633.79 108.76 L 638.51 108.76 L 643.22 108.76 L 647.93 108.76 L 652.64 108.76 L 657.36 108.76 L 662.07 108.76 L 666.78 108.76 L 671.49 108.76 L 676.21 108.76 L 680.92 108.76 L 685.63 108.76 L 690.34 108.76 L 695.06 108.76 L 699.77 108.76 L 704.48 108.76 L 709.20 108.76 L 713.91 108.94 L 718.62 100.39 L 723.33 81.40 L 728.05 81.40 L 732.76 81.40 L 737.47 81.40 L 742.18 81.40 L 746.90 70.78 L 751.61 70.78 L 756.32 70.78 L 761.03 70.78 L 765.75 70.78 L 770.46 70.78 L 775.17 70.78 L 779.89 70.78 L 784.60 70.78 L 789.31 70.78 L 794.02 70.78 L 798.74 70.78 L 803.45 70.78 L 808.16 70.78 L 812.87 70.78 L 817.59 70.78 L 822.30 70.78 L 827.01 70.78 L 831.72 70.78 L 836.44 70.78 L 841.15 70.78 L 845.86 70.78 L 850.57 70.78 L 855.29 70.78 L 860.00 70.78" fill="none" stroke="#3fb950" stroke-width="2"/>
    <circle cx="860.00" cy="70.78" r="3" fill="#3fb950"/>
    <text x="40.00" y="235.00" font-size="9" fill="#c9d1d9" text-anchor="middle" transform="rotate(-45 40.00 235.00)">28.08.2025</text><text x="120.11" y="235.00" font-size="9" fill="#c9d1d9" text-anchor="middle" transform="rotate(-45 120.11 235.00)">28.08.2025</text><text x="200.23" y="235.00" font-size="9" fill="#c9d1d9" text-anchor="middle" transform="rotate(-45 200.23 235.00)">05.09.2025</text><text x="280.34" y="235.00" font-size="9" fill="#c9d1d9" text-anchor="middle" transform="rotate(-45 280.34 235.00)">15.09.2025</text><text x="360.46" y="235.00" font-size="9" fill="#c9d1d9" text-anchor="middle" transform="rotate(-45 360.46 235.00)">01.10.2025</text><text x="440.57" y="235.00" font-size="9" fill="#c9d1d9" text-anchor="middle" transform="rotate(-45 440.57 235.00)">17.10.2025</text><text x="520.69" y="235.00" font-size="9" fill="#c9d1d9" text-anchor="middle" transform="rotate(-45 520.69 235.00)">01.11.2025</text><text x="600.80" y="235.00" font-size="9" fill="#c9d1d9" text-anchor="middle" transform="rotate(-45 600.80 235.00)">18.11.2025</text><text x="680.92" y="235.00" font-size="9" fill="#c9d1d9" text-anchor="middle" transform="rotate(-45 680.92 235.00)">28.11.2025</text><text x="761.03" y="235.00" font-size="9" fill="#c9d1d9" text-anchor="middle" transform="rotate(-45 761.03 235.00)">10.12.2025</text><text x="841.15" y="235.00" font-size="9" fill="#c9d1d9" text-anchor="middle" transform="rotate(-45 841.15 235.00)">21.12.2025</text>
  </g>
</svg>