<svg xmlns="http://www.w3.org/2000/svg" width="900" height="290" style="font-family: -apple-system, BlinkMacSystemFont, 'Segoe UI', Helvetica, Arial, sans-serif;">
  <rect width="100%" height="100%" fill="#0d1117"/>
  <g>
    <line x1="40" y1="220.00" x2="860" y2="220.00" stroke="#30363d"/><text x="32" y="224.00" font-size="10" fill="#c9d1d9" text-anchor="end">0</text><line x1="40" y1="175.00" x2="860" y2="175.00" stroke="#30363d"/><text x="32" y="179.00" font-size="10" fill="#c9d1d9" text-anchor="end">500</text><line x1="40" y1="130.00" x2="860" y2="130.00" stroke="#30363d"/><text x="32" y="134.00" font-size="10" fill="#c9d1d9" text-anchor="end">1k</text><line x1="40" y1="85.00" x2="860" y2="85.00" stroke="#30363d"/><text x="32" y="89.00" font-size="10" fill="#c9d1d9" text-anchor="end">1.5k</text><line x1="40" y1="40.00" x2="860" y2="40.00" stroke="#30363d"/><text x="32" y="44.00" font-size="10" fill="#c9d1d9" text-anchor="end">2k</text>
    <line x1="40.00" y1="40" x2="40.00" y2="220" stroke="#30363d" opacity="0.5"/><line x1="123.04" y1="40" x2="123.04" y2="220" stroke="#30363d" opacity="0.5"/><line x1="206.08" y1="40" x2="206.08" y2="220" stroke="#30363d" opacity="0.5"/><line x1="289.11" y1="40" x2="289.11" y2="220" stroke="#30363d" opacity="0.5"/><line x1="372.15" y1="40" x2="372.15" y2="220" stroke="#30363d" opacity="0.5"/><line x1="455.19" y1="40" x2="455.19" y2="220" stroke="#30363d" opacity="0.5"/><line x1="538.23" y1="40" x2="538.23" y2="220" stroke="#30363d" opacity="0.5"/><line x1="621.27" y1="40" x2="621.27" y2="220" stroke="#30363d" opacity="0.5"/><line x1="704.30" y1="40" x2="704.30" y2="220" stroke="#30363d" opacity="0.5"/><line x1="787.34" y1="40" x2="787.34" y2="220" stroke="#30363d" opacity="0.5"/>
    <line x1="40" y1="220" x2="860" y2="220" stroke="#30363d"/>
    <line x1="40" y1="40"   x2="40"   y2="220" stroke="#30363d"/>
    <path d="M 40.00 166.63 L 50.38 166.00 L 60.76 166.00 L 71.14 121.18 L 81.52 115.78 L 91.90 115.78 L 102.28 112.00 L 112.66 108.22 L 123.04 108.22 L 133.42 108.22 L 143.80 108.22 L 154.18 108.22 L 164.56 108.22 L 174.94 108.22 L 185.32 108.22 L 195.70 108.22 L 206.08 108.22 L 216.46 108.22 L 226.84 108.22 L 237.22 108.22 L 247.59 108.22 L 257.97 108.22 L 268.35 109.21 L 278.73 109.12 L 289.11 108.76 L 299.49 108.76 L 309.87 108.76 L 320.25 108.76 L 330.63 108.76 L 341.01 108.76 L 351.39 108.76 L 361.77 108.76 L 372.15 108.76 L 382.53 108.76 L 392.91 108.76 L 403.29 108.76 L 413.67 108.76 L 424.05 108.76 L 434.43 108.76 L 444.81 108.76 L 455.19 108.76 L 465.57 108.76 L 475.95 108.76 L 486.33 108.76 L 496.71 108.76 L 507.09 108.76 L 517.47 108.76 L 527.85 108.76 L 538.23 108.76 L 548.61 108.76 L 558.99 108.76 L 569.37 108.76 L 579.75 108.76 L 590.13 108.76 L 600.51 108.76 L 610.89 108.76 L 621.27 108.76 L 631.65 108.76 L 642.03 108.76 L 652.41 108.76 L 662.78 108.76 L 673.16 108.76 L 683.54 108.76 L 693.92 108.76 L 704.30 108.76 L 714.68 108.76 L 725.06 108.76 L 735.44 108.76 L 745.82 108.76 L 756.20 108.76 L 766.58 108.76 L 776.96 108.76 L 787.34 108.76 L 797.72 108.76 L 808.10 108.76 L 818.48 108.76 L 828.86 108.76 L 839.24 108.76 L 849.62 108.76 L 860.00 108.76" fill="none" stroke="#3fb950" stroke-width="2"/>
    <circle cx="860.00" cy="108.76" r="3" fill="#3fb950"/>
    <text x="40.00" y="235.00" font-size="9" fill="#c9d1d9" text-anchor="middle" transform="rotate(-45 40.00 235.00)">28.08.2025</text><text x="123.04" y="235.00" font-size="9" fill="#c9d1d9" text-anchor="middle" transform="rotate(-45 123.04 235.00)">28.08.2025</text><text x="206.08" y="235.00" font-size="9" fill="#c9d1d9" text-anchor="middle" transform="rotate(-45 206.08 235.00)">28.08.2025</text><text x="289.11" y="235.00" font-size="9" fill="#c9d1d9" text-anchor="middle" transform="rotate(-45 289.11 235.00)">28.08.2025</text><text x="372.15" y="235.00" font-size="9" fill="#c9d1d9" text-anchor="middle" transform="rotate(-45 372.15 235.00)">03.09.2025</text><text x="455.19" y="235.00" font-size="9" fill="#c9d1d9" text-anchor="middle" transform="rotate(-45 455.19 235.00)">09.09.2025</text><text x="538.23" y="235.00" font-size="9" fill="#c9d1d9" text-anchor="middle" transform="rotate(-45 538.23 235.00)">15.09.2025</text><text x="621.27" y="235.00" font-size="9" fill="#c9d1d9" text-anchor="middle" transform="rotate(-45 621.27 235.00)">21.09.2025</text><text x="704.30" y="235.00" font-size="9" fill="#c9d1d9" text-anchor="middle" transform="rotate(-45 704.30 235.00)">29.09.2025</text><text x="787.34" y="235.00" font-size="9" fill="#c9d1d9" text-anchor="middle" transform="rotate(-45 787.34 235.00)">07.10.2025</text>
  </g>
</svg>