<svg xmlns="http://www.w3.org/2000/svg" width="900" height="290" style="font-family: -apple-system, BlinkMacSystemFont, 'Segoe UI', Helvetica, Arial, sans-serif;">
  <rect width="100%" height="100%" fill="white"/>
  <g>
    <line x1="40" y1="220.00" x2="860" y2="220.00" stroke="#e5e7eb"/><text x="32" y="224.00" font-size="10" fill="#111827" text-anchor="end">0</text><line x1="40" y1="175.00" x2="860" y2="175.00" stroke="#e5e7eb"/><text x="32" y="179.00" font-size="10" fill="#111827" text-anchor="end">500</text><line x1="40" y1="130.00" x2="860" y2="130.00" stroke="#e5e7eb"/><text x="32" y="134.00" font-size="10" fill="#111827" text-anchor="end">1k</text><line x1="40" y1="85.00" x2="860" y2="85.00" stroke="#e5e7eb"/><text x="32" y="89.00" font-size="10" fill="#111827" text-anchor="end">1.5k</text><line x1="40" y1="40.00" x2="860" y2="40.00" stroke="#e5e7eb"/><text x="32" y="44.00" font-size="10" fill="#111827" text-anchor="end">2k</text>
    <line x1="40.00" y1="40" x2="40.00" y2="220" stroke="#e5e7eb" opacity="0.5"/><line x1="122.36" y1="40" x2="122.36" y2="220" stroke="#e5e7eb" opacity="0.5"/><line x1="204.72" y1="40" x2="204.72" y2="220" stroke="#e5e7eb" opacity="0.5"/><line x1="287.07" y1="40" x2="287.07" y2="220" stroke="#e5e7eb" opacity="0.5"/><line x1="369.43" y1="40" x2="369.43" y2="220" stroke="#e5e7eb" opacity="0.5"/><line x1="451.79" y1="40" x2="451.79" y2="220" stroke="#e5e7eb" opacity="0.5"/><line x1="534.15" y1="40" x2="534.15" y2="220" stroke="#e5e7eb" opacity="0.5"/><line x1="616.51" y1="40" x2="616.51" y2="220" stroke="#e5e7eb" opacity="0.5"/><line x1="698.86" y1="40" x2="698.86" y2="220" stroke="#e5e7eb" opacity="0.5"/><line x1="781.22" y1="40" x2="781.22" y2="220" stroke="#e5e7eb" opacity="0.5"/>
    <line x1="40" y1="220" x2="860" y2="220" stroke="#9ca3af"/>
    <line x1="40" y1="40"   x2="40"   y2="220" stroke="#9ca3af"/>
    <path d="M 40.00 166.63 L 43.58 166.00 L 47.16 166.00 L 50.74 121.18 L 54.32 115.78 L 57.90 115.78 L 61.48 112.00 L 65.07 108.22 L 68.65 108.22 L 72.23 108.22 L 75.81 108.22 L 79.39 108.22 L 82.97 108.22 L 86.55 108.22 L 90.13 108.22 L 93.71 108.22 L 97.29 108.22 L 100.87 108.22 L 104.45 108.22 L 108.03 108.22 L 111.62 108.22 L 115.20 108.22 L 118.78 109.21 L 122.36 109.12 L 125.94 108.76 L 129.52 108.76 L 133.10 108.76 L 136.68 108.76 L 140.26 108.76 L 143.84 108.76 L 147.42 108.76 L 151.00 108.76 L 154.59 108.76 L 158.17 108.76 L 161.75 108.76 L 165.33 108.76 L 168.91 108.76 L 172.49 108.76 L 176.07 108.76 L 179.65 108.76 L 183.23 108.76 L 186.81 108.76 L 190.39 108.76 L 193.97 108.76 L 197.55 108.76 L 201.14 108.76 L 204.72 108.76 L 208.30 108.76 L 211.88 108.76 L 215.46 108.76 L 219.04 108.76 L 222.62 108.76 L 226.20 108.76 L 229.78 108.76 L 233.36 108.76 L 236.94 108.76 L 240.52 108.76 L 244.10 108.76 L 247.69 108.76 L 251.27 108.76 L 254.85 108.76 L 258.43 108.76 L 262.01 108.76 L 265.59 108.76 L 269.17 108.76 L 272.75 108.76 L 276.33 108.76 L 279.91 108.76 L 283.49 108.76 L 287.07 108.76 L 290.66 108.76 L 294.24 108.76 L 297.82 108.76 L 301.40 108.76 L 304.98 108.76 L 308.56 108.76 L 312.14 108.76 L 315.72 108.76 L 319.30 108.76 L 322.88 108.76 L 326.46 108.76 L 330.04 108.76 L 333.62 108.76 L 337.21 108.76 L 340.79 108.76 L 344.37 108.76 L 347.95 108.76 L 351.53 108.76 L 355.11 108.76 L 358.69 108.76 L 362.27 108.76 L 365.85 108.76 L 369.43 108.76 L 373.01 108.76 L 376.59 108.76 L 380.17 108.76 L 383.76 108.76 L 387.34 108.76 L 390.92 108.76 L 394.50 108.76 L 398.08 108.76 L 401.66 108.76 L 405.24 108.76 L 408.82 108.76 L 412.40 108.76 L 415.98 108.76 L 419.56 108.76 L 423.14 108.76 L 426.72 108.76 L 430.31 108.76 L 433.89 108.76 L 437.47 108.76 L 441.05 108.76 L 444.63 108.76 L 448.21 108.76 L 451.79 108.76 L 455.37 108.76 L 458.95 108.76 L 462.53 108.76 L 466.11 108.76 L 469.69 108.76 L 473.28 108.76 L 476.86 108.76 L 480.44 108.76 L 484.02 108.76 L 487.60 108.76 L 491.18 108.76 L 494.76 108.76 L 498.34 108.76 L 501.92 108.76 L 505.50 108.76 L 509.08 108.76 L 512.66 108.76 L 516.24 108.76 L 519.83 108.76 L 523.41 108.76 L 526.99 108.76 L 530.57 108.76 L 534.15 108.76 L 537.73 108.76 L 541.31 108.76 L 544.89 108.76 L 548.47 108.76 L 552.05 108.94 L 555.63 100.39 L 559.21 81.40 L 562.79 81.40 L 566.38 81.40 L 569.96 81.40 L 573.54 81.40 L 577.12 70.78 L 580.70 70.78 L 584.28 70.78 L 587.86 70.78 L 591.44 70.78 L 595.02 70.78 L 598.60 70.78 L 602.18 70.78 L 605.76 70.78 L 609.34 70.78 L 612.93 70.78 L 616.51 70.78 L 620.09 70.78 L 623.67 70.78 L 627.25 70.78 L 630.83 70.78 L 634.41 70.78 L 637.99 70.78 L 641.57 70.78 L 645.15 70.78 L 648.73 70.78 L 652.31 70.78 L 655.90 70.78 L 659.48 70.78 L 663.06 70.78 L 666.64 70.78 L 670.22 70.78 L 673.80 70.78 L 677.38 70.78 L 680.96 70.78 L 684.54 70.78 L 688.12 70.78 L 691.70 70.78 L 695.28 70.78 L 698.86 70.78 L 702.45 70.78 L 706.03 70.78 L 709.61 70.78 L 713.19 70.78 L 716.77 70.78 L 720.35 70.78 L 723.93 70.78 L 727.51 70.78 L 731.09 70.78 L 734.67 70.78 L 738.25 70.78 L 741.83 70.78 L 745.41 70.78 L 749.00 70.78 L 752.58 70.78 L 756.16 70.78 L 759.74 70.78 L 763.32 70.78 L 766.90 70.78 L 770.48 70.78 L 774.06 70.78 L 777.64 70.78 L 781.22 70.78 L 784.80 70.78 L 788.38 70.78 L 791.97 70.78 L 795.55 70.78 L 799.13 70.78 L 802.71 70.78 L 806.29 70.78 L 809.87 70.78 L 813.45 70.78 L 817.03 70.78 L 820.61 70.78 L 824.19 70.78 L 827.77 70.78 L 831.35 70.78 L 834.93 70.78 L 838.52 70.78 L 842.10 70.78 L 845.68 70.78 L 849.26 70.78 L 852.84 70.78 L 856.42 70.78 L 860.00 70.78" fill="none" stroke="#111827" stroke-width="2"/>
    <circle cx="860.00" cy="70.78" r="3" fill="#111827"/>
    <text x="40.00" y="235.00" font-size="9" fill="#111827" text-anchor="middle" transform="rotate(-45 40.00 235.00)">28.08.2025</text><text x="122.36" y="235.00" font-size="9" fill="#111827" text-anchor="middle" transform="rotate(-45 122.36 235.00)">28.08.2025</text><text x="204.72" y="235.00" font-size="9" fill="#111827" text-anchor="middle" transform="rotate(-45 204.72 235.00)">15.09.2025</text><text x="287.07" y="235.00" font-size="9" fill="#111827" text-anchor="middle" transform="rotate(-45 287.07 235.00)">02.10.2025</text><text x="369.43" y="235.00" font-size="9" fill="#111827" text-anchor="middle" transform="rotate(-45 369.43 235.00)">24.10.2025</text><text x="451.79" y="235.00" font-size="9" fill="#111827" text-anchor="middle" transform="rotate(-45 451.79 235.00)">14.11.2025</text><text x="534.15" y="235.00" font-size="9" fill="#111827" text-anchor="middle" transform="rotate(-45 534.15 235.00)">30.11.2025</text><text x="616.51" y="235.00" font-size="9" fill="#111827" text-anchor="middle" transform="rotate(-45 616.51 235.00)">13.12.2025</text><text x="698.86" y="235.00" font-size="9" fill="#111827" text-anchor="middle" transform="rotate(-45 698.86 235.00)">03.01.2026</text><text x="781.22" y="235.00" font-size="9" fill="#111827" text-anchor="middle" transform="rotate(-45 781.22 235.00)">24.01.2026</text>
  </g>
</svg>