<svg xmlns="http://www.w3.org/2000/svg" width="900" height="290" style="font-family: -apple-system, BlinkMacSystemFont, 'Segoe UI', Helvetica, Arial, sans-serif;">
  <rect width="100%" height="100%" fill="#0d1117"/>
  <g>
    <line x1="40" y1="220.00" x2="860" y2="220.00" stroke="#30363d"/><text x="32" y="224.00" font-size="10" fill="#c9d1d9" text-anchor="end">0</text><line x1="40" y1="175.00" x2="860" y2="175.00" stroke="#30363d"/><text x="32" y="179.00" font-size="10" fill="#c9d1d9" text-anchor="end">500</text><line x1="40" y1="130.00" x2="860" y2="130.00" stroke="#30363d"/><text x="32" y="134.00" font-size="10" fill="#c9d1d9" text-anchor="end">1k</text><line x1="40" y1="85.00" x2="860" y2="85.00" stroke="#30363d"/><text x="32" y="89.00" font-size="10" fill="#c9d1d9" text-anchor="end">1.5k</text><line x1="40" y1="40.00" x2="860" y2="40.00" stroke="#30363d"/><text x="32" y="44.00" font-size="10" fill="#c9d1d9" text-anchor="end">2k</text>
    <line x1="40.00" y1="40" x2="40.00" y2="220" stroke="#30363d" opacity="0.5"/><line x1="122.83" y1="40" x2="122.83" y2="220" stroke="#30363d" opacity="0.5"/><line x1="205.66" y1="40" x2="205.66" y2="220" stroke="#30363d" opacity="0.5"/><line x1="288.48" y1="40" x2="288.48" y2="220" stroke="#30363d" opacity="0.5"/><line x1="371.31" y1="40" x2="371.31" y2="220" stroke="#30363d" opacity="0.5"/><line x1="454.14" y1="40" x2="454.14" y2="220" stroke="#30363d" opacity="0.5"/><line x1="536.97" y1="40" x2="536.97" y2="220" stroke="#30363d" opacity="0.5"/><line x1="619.80" y1="40" x2="619.80" y2="220" stroke="#30363d" opacity="0.5"/><line x1="702.63" y1="40" x2="702.63" y2="220" stroke="#30363d" opacity="0.5"/><line x1="785.45" y1="40" x2="785.45" y2="220" stroke="#30363d" opacity="0.5"/>
    <line x1="40" y1="220" x2="860" y2="220" stroke="#30363d"/>
    <line x1="40" y1="40"   x2="40"   y2="220" stroke="#30363d"/>
    <path d="M 40.00 166.63 L 48.28 166.00 L 56.57 166.00 L 64.85 121.18 L 73.13 115.78 L 81.41 115.78 L 89.70 112.00 L 97.98 108.22 L 106.26 108.22 L 114.55 108.22 L 122.83 108.22 L 131.11 108.22 L 139.39 108.22 L 147.68 108.22 L 155.96 108.22 L 164.24 108.22 L 172.53 108.22 L 180.81 108.22 L 189.09 108.22 L 197.37 108.22 L 205.66 108.22 L 213.94 108.22 L 222.22 109.21 L 230.51 109.12 L 238.79 108.76 L 247.07 108.76 L 255.35 108.76 L 263.64 108.76 L 271.92 108.76 L 280.20 108.76 L 288.48 108.76 L 296.77 108.76 L 305.05 108.76 L 313.33 108.76 L 321.62 108.76 L 329.90 108.76 L 338.18 108.76 L 346.46 108.76 L 354.75 108.76 L 363.03 108.76 L 371.31 108.76 L 379.60 108.76 L 387.88 108.76 L 396.16 108.76 L 404.44 108.76 L 412.73 108.76 L 421.01 108.76 L 429.29 108.76 L 437.58 108.76 L 445.86 108.76 L 454.14 108.76 L 462.42 108.76 L 470.71 108.76 L 478.99 108.76 L 487.27 108.76 L 495.56 108.76 L 503.84 108.76 L 512.12 108.76 L 520.40 108.76 L 528.69 108.76 L 536.97 108.76 L 545.25 108.76 L 553.54 108.76 L 561.82 108.76 L 570.10 108.76 L 578.38 108.76 L 586.67 108.76 L 594.95 108.76 L 603.23 108.76 L 611.52 108.76 L 619.80 108.76 L 628.08 108.76 L 636.36 108.76 L 644.65 108.76 L 652.93 108.76 L 661.21 108.76 L 669.49 108.76 L 677.78 108.76 L 686.06 108.76 L 694.34 108.76 L 702.63 108.76 L 710.91 108.76 L 719.19 108.76 L 727.47 108.76 L 735.76 108.76 L 744.04 108.76 L 752.32 108.76 L 760.61 108.76 L 768.89 108.76 L 777.17 108.76 L 785.45 108.76 L 793.74 108.76 L 802.02 108.76 L 810.30 108.76 L 818.59 108.76 L 826.87 108.76 L 835.15 108.76 L 843.43 108.76 L 851.72 108.76 L 860.00 108.76" fill="none" stroke="#3fb950" stroke-width="2"/>
    <circle cx="860.00" cy="108.76" r="3" fill="#3fb950"/>
    <text x="40.00" y="235.00" font-size="9" fill="#c9d1d9" text-anchor="middle" transform="rotate(-45 40.00 235.00)">28.08.2025</text><text x="122.83" y="235.00" font-size="9" fill="#c9d1d9" text-anchor="middle" transform="rotate(-45 122.83 235.00)">28.08.2025</text><text x="205.66" y="235.00" font-size="9" fill="#c9d1d9" text-anchor="middle" transform="rotate(-45 205.66 235.00)">28.08.2025</text><text x="288.48" y="235.00" font-size="9" fill="#c9d1d9" text-anchor="middle" transform="rotate(-45 288.48 235.00)">01.09.2025</text><text x="371.31" y="235.00" font-size="9" fill="#c9d1d9" text-anchor="middle" transform="rotate(-45 371.31 235.00)">09.09.2025</text><text x="454.14" y="235.00" font-size="9" fill="#c9d1d9" text-anchor="middle" transform="rotate(-45 454.14 235.00)">15.09.2025</text><text x="536.97" y="235.00" font-size="9" fill="#c9d1d9" text-anchor="middle" transform="rotate(-45 536.97 235.00)">25.09.2025</text><text x="619.80" y="235.00" font-size="9" fill="#c9d1d9" text-anchor="middle" transform="rotate(-45 619.80 235.00)">05.10.2025</text><text x="702.63" y="235.00" font-size="9" fill="#c9d1d9" text-anchor="middle" transform="rotate(-45 702.63 235.00)">15.10.2025</text><text x="785.45" y="235.00" font-size="9" fill="#c9d1d9" text-anchor="middle" transform="rotate(-45 785.45 235.00)">25.10.2025</text>
  </g>
</svg>