<svg xmlns="http://www.w3.org/2000/svg" width="900" height="290" style="font-family: -apple-system, BlinkMacSystemFont, 'Segoe UI', Helvetica, Arial, sans-serif;">
  <rect width="100%" height="100%" fill="#0d1117"/>
  <g>
    <line x1="40" y1="220.00" x2="860" y2="220.00" stroke="#30363d"/><text x="32" y="224.00" font-size="10" fill="#c9d1d9" text-anchor="end">0</text><line x1="40" y1="175.00" x2="860" y2="175.00" stroke="#30363d"/><text x="32" y="179.00" font-size="10" fill="#c9d1d9" text-anchor="end">500</text><line x1="40" y1="130.00" x2="860" y2="130.00" stroke="#30363d"/><text x="32" y="134.00" font-size="10" fill="#c9d1d9" text-anchor="end">1k</text><line x1="40" y1="85.00" x2="860" y2="85.00" stroke="#30363d"/><text x="32" y="89.00" font-size="10" fill="#c9d1d9" text-anchor="end">1.5k</text><line x1="40" y1="40.00" x2="860" y2="40.00" stroke="#30363d"/><text x="32" y="44.00" font-size="10" fill="#c9d1d9" text-anchor="end">2k</text>
    <line x1="40.00" y1="40" x2="40.00" y2="220" stroke="#30363d" opacity="0.5"/><line x1="114.55" y1="40" x2="114.55" y2="220" stroke="#30363d" opacity="0.5"/><line x1="189.09" y1="40" x2="189.09" y2="220" stroke="#30363d" opacity="0.5"/><line x1="263.64" y1="40" x2="263.64" y2="220" stroke="#30363d" opacity="0.5"/><line x1="338.18" y1="40" x2="338.18" y2="220" stroke="#30363d" opacity="0.5"/><line x1="412.73" y1="40" x2="412.73" y2="220" stroke="#30363d" opacity="0.5"/><line x1="487.27" y1="40" x2="487.27" y2="220" stroke="#30363d" opacity="0.5"/><line x1="561.82" y1="40" x2="561.82" y2="220" stroke="#30363d" opacity="0.5"/><line x1="636.36" y1="40" x2="636.36" y2="220" stroke="#30363d" opacity="0.5"/><line x1="710.91" y1="40" x2="710.91" y2="220" stroke="#30363d" opacity="0.5"/><line x1="785.45" y1="40" x2="785.45" y2="220" stroke="#30363d" opacity="0.5"/><line x1="860.00" y1="40" x2="860.00" y2="220" stroke="#30363d" opacity="0.5"/>
    <line x1="40" y1="220" x2="860" y2="220" stroke="#30363d"/>
    <line x1="40" y1="40"   x2="40"   y2="220" stroke="#30363d"/>
    <path d="M 40.00 166.63 L 50.65 166.00 L 61.30 166.00 L 71.95 121.18 L 82.60 115.78 L 93.25 115.78 L 103.90 112.00 L 114.55 108.22 L 125.19 108.22 L 135.84 108.22 L 146.49 108.22 L 157.14 108.22 L 167.79 108.22 L 178.44 108.22 L 189.09 108.22 L 199.74 108.22 L 210.39 108.22 L 221.04 108.22 L 231.69 108.22 L 242.34 108.22 L 252.99 108.22 L 263.64 108.22 L 274.29 109.21 L 284.94 109.12 L 295.58 108.76 L 306.23 108.76 L 316.88 108.76 L 327.53 108.76 L 338.18 108.76 L 348.83 108.76 L 359.48 108.76 L 370.13 108.76 L 380.78 108.76 L 391.43 108.76 L 402.08 108.76 L 412.73 108.76 L 423.38 108.76 L 434.03 108.76 L 444.68 108.76 L 455.32 108.76 L 465.97 108.76 L 476.62 108.76 L 487.27 108.76 L 497.92 108.76 L 508.57 108.76 L 519.22 108.76 L 529.87 108.76 L 540.52 108.76 L 551.17 108.76 L 561.82 108.76 L 572.47 108.76 L 583.12 108.76 L 593.77 108.76 L 604.42 108.76 L 615.06 108.76 L 625.71 108.76 L 636.36 108.76 L 647.01 108.76 L 657.66 108.76 L 668.31 108.76 L 678.96 108.76 L 689.61 108.76 L 700.26 108.76 L 710.91 108.76 L 721.56 108.76 L 732.21 108.76 L 742.86 108.76 L 753.51 108.76 L 764.16 108.76 L 774.81 108.76 L 785.45 108.76 L 796.10 108.76 L 806.75 108.76 L 817.40 108.76 L 828.05 108.76 L 838.70 108.76 L 849.35 108.76 L 860.00 108.76" fill="none" stroke="#3fb950" stroke-width="2"/>
    <circle cx="860.00" cy="108.76" r="3" fill="#3fb950"/>
    <text x="40.00" y="235.00" font-size="9" fill="#c9d1d9" text-anchor="middle" transform="rotate(-45 40.00 235.00)">28.08.2025</text><text x="114.55" y="235.00" font-size="9" fill="#c9d1d9" text-anchor="middle" transform="rotate(-45 114.55 235.00)">28.08.2025</text><text x="189.09" y="235.00" font-size="9" fill="#c9d1d9" text-anchor="middle" transform="rotate(-45 189.09 235.00)">28.08.2025</text><text x="263.64" y="235.00" font-size="9" fill="#c9d1d9" text-anchor="middle" transform="rotate(-45 263.64 235.00)">28.08.2025</text><text x="338.18" y="235.00" font-size="9" fill="#c9d1d9" text-anchor="middle" transform="rotate(-45 338.18 235.00)">30.08.2025</text><text x="412.73" y="235.00" font-size="9" fill="#c9d1d9" text-anchor="middle" transform="rotate(-45 412.73 235.00)">06.09.2025</text><text x="487.27" y="235.00" font-size="9" fill="#c9d1d9" text-anchor="middle" transform="rotate(-45 487.27 235.00)">11.09.2025</text><text x="561.82" y="235.00" font-size="9" fill="#c9d1d9" text-anchor="middle" transform="rotate(-45 561.82 235.00)">15.09.2025</text><text x="636.36" y="235.00" font-size="9" fill="#c9d1d9" text-anchor="middle" transform="rotate(-45 636.36 235.00)">21.09.2025</text><text x="710.91" y="235.00" font-size="9" fill="#c9d1d9" text-anchor="middle" transform="rotate(-45 710.91 235.00)">28.09.2025</text><text x="785.45" y="235.00" font-size="9" fill="#c9d1d9" text-anchor="middle" transform="rotate(-45 785.45 235.00)">05.10.2025</text><text x="860.00" y="235.00" font-size="9" fill="#c9d1d9" text-anchor="middle" transform="rotate(-45 860.00 235.00)">12.10.2025</text>
  </g>
</svg>