<svg xmlns="http://www.w3.org/2000/svg" width="900" height="290" style="font-family: -apple-system, BlinkMacSystemFont, 'Segoe UI', Helvetica, Arial, sans-serif;">
  <rect width="100%" height="100%" fill="white"/>
  <g>
    <line x1="40" y1="220.00" x2="860" y2="220.00" stroke="#e5e7eb"/><text x="32" y="224.00" font-size="10" fill="#111827" text-anchor="end">0</text><line x1="40" y1="175.00" x2="860" y2="175.00" stroke="#e5e7eb"/><text x="32" y="179.00" font-size="10" fill="#111827" text-anchor="end">500</text><line x1="40" y1="130.00" x2="860" y2="130.00" stroke="#e5e7eb"/><text x="32" y="134.00" font-size="10" fill="#111827" text-anchor="end">1k</text><line x1="40" y1="85.00" x2="860" y2="85.00" stroke="#e5e7eb"/><text x="32" y="89.00" font-size="10" fill="#111827" text-anchor="end">1.5k</text><line x1="40" y1="40.00" x2="860" y2="40.00" stroke="#e5e7eb"/><text x="32" y="44.00" font-size="10" fill="#111827" text-anchor="end">2k</text>
    <line x1="40.00" y1="40" x2="40.00" y2="220" stroke="#e5e7eb" opacity="0.5"/><line x1="122.92" y1="40" x2="122.92" y2="220" stroke="#e5e7eb" opacity="0.5"/><line x1="205.84" y1="40" x2="205.84" y2="220" stroke="#e5e7eb" opacity="0.5"/><line x1="288.76" y1="40" x2="288.76" y2="220" stroke="#e5e7eb" opacity="0.5"/><line x1="371.69" y1="40" x2="371.69" y2="220" stroke="#e5e7eb" opacity="0.5"/><line x1="454.61" y1="40" x2="454.61" y2="220" stroke="#e5e7eb" opacity="0.5"/><line x1="537.53" y1="40" x2="537.53" y2="220" stroke="#e5e7eb" opacity="0.5"/><line x1="620.45" y1="40" x2="620.45" y2="220" stroke="#e5e7eb" opacity="0.5"/><line x1="703.37" y1="40" x2="703.37" y2="220" stroke="#e5e7eb" opacity="0.5"/><line x1="786.29" y1="40" x2="786.29" y2="220" stroke="#e5e7eb" opacity="0.5"/>
    <line x1="40" y1="220" x2="860" y2="220" stroke="#9ca3af"/>
    <line x1="40" y1="40"   x2="40"   y2="220" stroke="#9ca3af"/>
    <path d="M 40.00 166.63 L 49.21 166.00 L 58.43 166.00 L 67.64 121.18 L 76.85 115.78 L 86.07 115.78 L 95.28 112.00 L 104.49 108.22 L 113.71 108.22 L 122.92 108.22 L 132.13 108.22 L 141.35 108.22 L 150.56 108.22 L 159.78 108.22 L 168.99 108.22 L 178.20 108.22 L 187.42 108.22 L 196.63 108.22 L 205.84 108.22 L 215.06 108.22 L 224.27 108.22 L 233.48 108.22 L 242.70 109.21 L 251.91 109.12 L 261.12 108.76 L 270.34 108.76 L 279.55 108.76 L 288.76 108.76 L 297.98 108.76 L 307.19 108.76 L 316.40 108.76 L 325.62 108.76 L 334.83 108.76 L 344.04 108.76 L 353.26 108.76 L 362.47 108.76 L 371.69 108.76 L 380.90 108.76 L 390.11 108.76 L 399.33 108.76 L 408.54 108.76 L 417.75 108.76 L 426.97 108.76 L 436.18 108.76 L 445.39 108.76 L 454.61 108.76 L 463.82 108.76 L 473.03 108.76 L 482.25 108.76 L 491.46 108.76 L 500.67 108.76 L 509.89 108.76 L 519.10 108.76 L 528.31 108.76 L 537.53 108.76 L 546.74 108.76 L 555.96 108.76 L 565.17 108.76 L 574.38 108.76 L 583.60 108.76 L 592.81 108.76 L 602.02 108.76 L 611.24 108.76 L 620.45 108.76 L 629.66 108.76 L 638.88 108.76 L 648.09 108.76 L 657.30 108.76 L 666.52 108.76 L 675.73 108.76 L 684.94 108.76 L 694.16 108.76 L 703.37 108.76 L 712.58 108.76 L 721.80 108.76 L 731.01 108.76 L 740.22 108.76 L 749.44 108.76 L 758.65 108.76 L 767.87 108.76 L 777.08 108.76 L 786.29 108.76 L 795.51 108.76 L 804.72 108.76 L 813.93 108.76 L 823.15 108.76 L 832.36 108.76 L 841.57 108.76 L 850.79 108.76 L 860.00 108.76" fill="none" stroke="#111827" stroke-width="2"/>
    <circle cx="860.00" cy="108.76" r="3" fill="#111827"/>
    <text x="40.00" y="235.00" font-size="9" fill="#111827" text-anchor="middle" transform="rotate(-45 40.00 235.00)">28.08.2025</text><text x="122.92" y="235.00" font-size="9" fill="#111827" text-anchor="middle" transform="rotate(-45 122.92 235.00)">28.08.2025</text><text x="205.84" y="235.00" font-size="9" fill="#111827" text-anchor="middle" transform="rotate(-45 205.84 235.00)">28.08.2025</text><text x="288.76" y="235.00" font-size="9" fill="#111827" text-anchor="middle" transform="rotate(-45 288.76 235.00)">29.08.2025</text><text x="371.69" y="235.00" font-size="9" fill="#111827" text-anchor="middle" transform="rotate(-45 371.69 235.00)">07.09.2025</text><text x="454.61" y="235.00" font-size="9" fill="#111827" text-anchor="middle" transform="rotate(-45 454.61 235.00)">14.09.2025</text><text x="537.53" y="235.00" font-size="9" fill="#111827" text-anchor="middle" transform="rotate(-45 537.53 235.00)">19.09.2025</text><text x="620.45" y="235.00" font-size="9" fill="#111827" text-anchor="middle" transform="rotate(-45 620.45 235.00)">28.09.2025</text><text x="703.37" y="235.00" font-size="9" fill="#111827" text-anchor="middle" transform="rotate(-45 703.37 235.00)">07.10.2025</text><text x="786.29" y="235.00" font-size="9" fill="#111827" text-anchor="middle" transform="rotate(-45 786.29 235.00)">16.10.2025</text>
  </g>
</svg>