<svg xmlns="http://www.w3.org/2000/svg" width="900" height="290" style="font-family: -apple-system, BlinkMacSystemFont, 'Segoe UI', Helvetica, Arial, sans-serif;">
  <rect width="100%" height="100%" fill="white"/>
  <g>
    <line x1="40" y1="220.00" x2="860" y2="220.00" stroke="#e5e7eb"/><text x="32" y="224.00" font-size="10" fill="#111827" text-anchor="end">0</text><line x1="40" y1="175.00" x2="860" y2="175.00" stroke="#e5e7eb"/><text x="32" y="179.00" font-size="10" fill="#111827" text-anchor="end">500</text><line x1="40" y1="130.00" x2="860" y2="130.00" stroke="#e5e7eb"/><text x="32" y="134.00" font-size="10" fill="#111827" text-anchor="end">1k</text><line x1="40" y1="85.00" x2="860" y2="85.00" stroke="#e5e7eb"/><text x="32" y="89.00" font-size="10" fill="#111827" text-anchor="end">1.5k</text><line x1="40" y1="40.00" x2="860" y2="40.00" stroke="#e5e7eb"/><text x="32" y="44.00" font-size="10" fill="#111827" text-anchor="end">2k</text>
    <line x1="40.00" y1="40" x2="40.00" y2="220" stroke="#e5e7eb" opacity="0.5"/><line x1="115.53" y1="40" x2="115.53" y2="220" stroke="#e5e7eb" opacity="0.5"/><line x1="191.05" y1="40" x2="191.05" y2="220" stroke="#e5e7eb" opacity="0.5"/><line x1="266.58" y1="40" x2="266.58" y2="220" stroke="#e5e7eb" opacity="0.5"/><line x1="342.11" y1="40" x2="342.11" y2="220" stroke="#e5e7eb" opacity="0.5"/><line x1="417.63" y1="40" x2="417.63" y2="220" stroke="#e5e7eb" opacity="0.5"/><line x1="493.16" y1="40" x2="493.16" y2="220" stroke="#e5e7eb" opacity="0.5"/><line x1="568.68" y1="40" x2="568.68" y2="220" stroke="#e5e7eb" opacity="0.5"/><line x1="644.21" y1="40" x2="644.21" y2="220" stroke="#e5e7eb" opacity="0.5"/><line x1="719.74" y1="40" x2="719.74" y2="220" stroke="#e5e7eb" opacity="0.5"/><line x1="795.26" y1="40" x2="795.26" y2="220" stroke="#e5e7eb" opacity="0.5"/>
    <line x1="40" y1="220" x2="860" y2="220" stroke="#9ca3af"/>
    <line x1="40" y1="40"   x2="40"   y2="220" stroke="#9ca3af"/>
    <path d="M 40.00 166.63 L 50.79 166.00 L 61.58 166.00 L 72.37 121.18 L 83.16 115.78 L 93.95 115.78 L 104.74 112.00 L 115.53 108.22 L 126.32 108.22 L 137.11 108.22 L 147.89 108.22 L 158.68 108.22 L 169.47 108.22 L 180.26 108.22 L 191.05 108.22 L 201.84 108.22 L 212.63 108.22 L 223.42 108.22 L 234.21 108.22 L 245.00 108.22 L 255.79 108.22 L 266.58 108.22 L 277.37 109.21 L 288.16 109.12 L 298.95 108.76 L 309.74 108.76 L 320.53 108.76 L 331.32 108.76 L 342.11 108.76 L 352.89 108.76 L 363.68 108.76 L 374.47 108.76 L 385.26 108.76 L 396.05 108.76 L 406.84 108.76 L 417.63 108.76 L 428.42 108.76 L 439.21 108.76 L 450.00 108.76 L 460.79 108.76 L 471.58 108.76 L 482.37 108.76 L 493.16 108.76 L 503.95 108.76 L 514.74 108.76 L 525.53 108.76 L 536.32 108.76 L 547.11 108.76 L 557.89 108.76 L 568.68 108.76 L 579.47 108.76 L 590.26 108.76 L 601.05 108.76 L 611.84 108.76 L 622.63 108.76 L 633.42 108.76 L 644.21 108.76 L 655.00 108.76 L 665.79 108.76 L 676.58 108.76 L 687.37 108.76 L 698.16 108.76 L 708.95 108.76 L 719.74 108.76 L 730.53 108.76 L 741.32 108.76 L 752.11 108.76 L 762.89 108.76 L 773.68 108.76 L 784.47 108.76 L 795.26 108.76 L 806.05 108.76 L 816.84 108.76 L 827.63 108.76 L 838.42 108.76 L 849.21 108.76 L 860.00 108.76" fill="none" stroke="#111827" stroke-width="2"/>
    <circle cx="860.00" cy="108.76" r="3" fill="#111827"/>
    <text x="40.00" y="235.00" font-size="9" fill="#111827" text-anchor="middle" transform="rotate(-45 40.00 235.00)">28.08.2025</text><text x="115.53" y="235.00" font-size="9" fill="#111827" text-anchor="middle" transform="rotate(-45 115.53 235.00)">28.08.2025</text><text x="191.05" y="235.00" font-size="9" fill="#111827" text-anchor="middle" transform="rotate(-45 191.05 235.00)">28.08.2025</text><text x="266.58" y="235.00" font-size="9" fill="#111827" text-anchor="middle" transform="rotate(-45 266.58 235.00)">28.08.2025</text><text x="342.11" y="235.00" font-size="9" fill="#111827" text-anchor="middle" transform="rotate(-45 342.11 235.00)">30.08.2025</text><text x="417.63" y="235.00" font-size="9" fill="#111827" text-anchor="middle" transform="rotate(-45 417.63 235.00)">06.09.2025</text><text x="493.16" y="235.00" font-size="9" fill="#111827" text-anchor="middle" transform="rotate(-45 493.16 235.00)">11.09.2025</text><text x="568.68" y="235.00" font-size="9" fill="#111827" text-anchor="middle" transform="rotate(-45 568.68 235.00)">15.09.2025</text><text x="644.21" y="235.00" font-size="9" fill="#111827" text-anchor="middle" transform="rotate(-45 644.21 235.00)">21.09.2025</text><text x="719.74" y="235.00" font-size="9" fill="#111827" text-anchor="middle" transform="rotate(-45 719.74 235.00)">28.09.2025</text><text x="795.26" y="235.00" font-size="9" fill="#111827" text-anchor="middle" transform="rotate(-45 795.26 235.00)">05.10.2025</text>
  </g>
</svg>