<svg xmlns="http://www.w3.org/2000/svg" width="900" height="290" style="font-family: -apple-system, BlinkMacSystemFont, 'Segoe UI', Helvetica, Arial, sans-serif;">
  <rect width="100%" height="100%" fill="white"/>
  <g>
    <line x1="40" y1="220.00" x2="860" y2="220.00" stroke="#e5e7eb"/><text x="32" y="224.00" font-size="10" fill="#111827" text-anchor="end">0</text><line x1="40" y1="175.00" x2="860" y2="175.00" stroke="#e5e7eb"/><text x="32" y="179.00" font-size="10" fill="#111827" text-anchor="end">500</text><line x1="40" y1="130.00" x2="860" y2="130.00" stroke="#e5e7eb"/><text x="32" y="134.00" font-size="10" fill="#111827" text-anchor="end">1k</text><line x1="40" y1="85.00" x2="860" y2="85.00" stroke="#e5e7eb"/><text x="32" y="89.00" font-size="10" fill="#111827" text-anchor="end">1.5k</text><line x1="40" y1="40.00" x2="860" y2="40.00" stroke="#e5e7eb"/><text x="32" y="44.00" font-size="10" fill="#111827" text-anchor="end">2k</text>
    <line x1="40.00" y1="40" x2="40.00" y2="220" stroke="#e5e7eb" opacity="0.5"/><line x1="118.10" y1="40" x2="118.10" y2="220" stroke="#e5e7eb" opacity="0.5"/><line x1="196.19" y1="40" x2="196.19" y2="220" stroke="#e5e7eb" opacity="0.5"/><line x1="274.29" y1="40" x2="274.29" y2="220" stroke="#e5e7eb" opacity="0.5"/><line x1="352.38" y1="40" x2="352.38" y2="220" stroke="#e5e7eb" opacity="0.5"/><line x1="430.48" y1="40" x2="430.48" y2="220" stroke="#e5e7eb" opacity="0.5"/><line x1="508.57" y1="40" x2="508.57" y2="220" stroke="#e5e7eb" opacity="0.5"/><line x1="586.67" y1="40" x2="586.67" y2="220" stroke="#e5e7eb" opacity="0.5"/><line x1="664.76" y1="40" x2="664.76" y2="220" stroke="#e5e7eb" opacity="0.5"/><line x1="742.86" y1="40" x2="742.86" y2="220" stroke="#e5e7eb" opacity="0.5"/><line x1="820.95" y1="40" x2="820.95" y2="220" stroke="#e5e7eb" opacity="0.5"/>
    <line x1="40" y1="220" x2="860" y2="220" stroke="#9ca3af"/>
    <line x1="40" y1="40"   x2="40"   y2="220" stroke="#9ca3af"/>
    <path d="M 40.00 166.63 L 49.76 166.00 L 59.52 166.00 L 69.29 121.18 L 79.05 115.78 L 88.81 115.78 L 98.57 112.00 L 108.33 108.22 L 118.10 108.22 L 127.86 108.22 L 137.62 108.22 L 147.38 108.22 L 157.14 108.22 L 166.90 108.22 L 176.67 108.22 L 186.43 108.22 L 196.19 108.22 L 205.95 108.22 L 215.71 108.22 L 225.48 108.22 L 235.24 108.22 L 245.00 108.22 L 254.76 109.21 L 264.52 109.12 L 274.29 108.76 L 284.05 108.76 L 293.81 108.76 L 303.57 108.76 L 313.33 108.76 L 323.10 108.76 L 332.86 108.76 L 342.62 108.76 L 352.38 108.76 L 362.14 108.76 L 371.90 108.76 L 381.67 108.76 L 391.43 108.76 L 401.19 108.76 L 410.95 108.76 L 420.71 108.76 L 430.48 108.76 L 440.24 108.76 L 450.00 108.76 L 459.76 108.76 L 469.52 108.76 L 479.29 108.76 L 489.05 108.76 L 498.81 108.76 L 508.57 108.76 L 518.33 108.76 L 528.10 108.76 L 537.86 108.76 L 547.62 108.76 L 557.38 108.76 L 567.14 108.76 L 576.90 108.76 L 586.67 108.76 L 596.43 108.76 L 606.19 108.76 L 615.95 108.76 L 625.71 108.76 L 635.48 108.76 L 645.24 108.76 L 655.00 108.76 L 664.76 108.76 L 674.52 108.76 L 684.29 108.76 L 694.05 108.76 L 703.81 108.76 L 713.57 108.76 L 723.33 108.76 L 733.10 108.76 L 742.86 108.76 L 752.62 108.76 L 762.38 108.76 L 772.14 108.76 L 781.90 108.76 L 791.67 108.76 L 801.43 108.76 L 811.19 108.76 L 820.95 108.76 L 830.71 108.76 L 840.48 108.76 L 850.24 108.76 L 860.00 108.76" fill="none" stroke="#111827" stroke-width="2"/>
    <circle cx="860.00" cy="108.76" r="3" fill="#111827"/>
    <text x="40.00" y="235.00" font-size="9" fill="#111827" text-anchor="middle" transform="rotate(-45 40.00 235.00)">28.08.2025</text><text x="118.10" y="235.00" font-size="9" fill="#111827" text-anchor="middle" transform="rotate(-45 118.10 235.00)">28.08.2025</text><text x="196.19" y="235.00" font-size="9" fill="#111827" text-anchor="middle" transform="rotate(-45 196.19 235.00)">28.08.2025</text><text x="274.29" y="235.00" font-size="9" fill="#111827" text-anchor="middle" transform="rotate(-45 274.29 235.00)">28.08.2025</text><text x="352.38" y="235.00" font-size="9" fill="#111827" text-anchor="middle" transform="rotate(-45 352.38 235.00)">03.09.2025</text><text x="430.48" y="235.00" font-size="9" fill="#111827" text-anchor="middle" transform="rotate(-45 430.48 235.00)">09.09.2025</text><text x="508.57" y="235.00" font-size="9" fill="#111827" text-anchor="middle" transform="rotate(-45 508.57 235.00)">15.09.2025</text><text x="586.67" y="235.00" font-size="9" fill="#111827" text-anchor="middle" transform="rotate(-45 586.67 235.00)">21.09.2025</text><text x="664.76" y="235.00" font-size="9" fill="#111827" text-anchor="middle" transform="rotate(-45 664.76 235.00)">29.09.2025</text><text x="742.86" y="235.00" font-size="9" fill="#111827" text-anchor="middle" transform="rotate(-45 742.86 235.00)">07.10.2025</text><text x="820.95" y="235.00" font-size="9" fill="#111827" text-anchor="middle" transform="rotate(-45 820.95 235.00)">15.10.2025</text>
  </g>
</svg>