<svg xmlns="http://www.w3.org/2000/svg" width="900" height="290" style="font-family: -apple-system, BlinkMacSystemFont, 'Segoe UI', Helvetica, Arial, sans-serif;">
  <rect width="100%" height="100%" fill="white"/>
  <g>
    <line x1="40" y1="220.00" x2="860" y2="220.00" stroke="#e5e7eb"/><text x="32" y="224.00" font-size="10" fill="#111827" text-anchor="end">0</text><line x1="40" y1="175.00" x2="860" y2="175.00" stroke="#e5e7eb"/><text x="32" y="179.00" font-size="10" fill="#111827" text-anchor="end">500</text><line x1="40" y1="130.00" x2="860" y2="130.00" stroke="#e5e7eb"/><text x="32" y="134.00" font-size="10" fill="#111827" text-anchor="end">1k</text><line x1="40" y1="85.00" x2="860" y2="85.00" stroke="#e5e7eb"/><text x="32" y="89.00" font-size="10" fill="#111827" text-anchor="end">1.5k</text><line x1="40" y1="40.00" x2="860" y2="40.00" stroke="#e5e7eb"/><text x="32" y="44.00" font-size="10" fill="#111827" text-anchor="end">2k</text>
    <line x1="40.00" y1="40" x2="40.00" y2="220" stroke="#e5e7eb" opacity="0.5"/><line x1="122.00" y1="40" x2="122.00" y2="220" stroke="#e5e7eb" opacity="0.5"/><line x1="204.00" y1="40" x2="204.00" y2="220" stroke="#e5e7eb" opacity="0.5"/><line x1="286.00" y1="40" x2="286.00" y2="220" stroke="#e5e7eb" opacity="0.5"/><line x1="368.00" y1="40" x2="368.00" y2="220" stroke="#e5e7eb" opacity="0.5"/><line x1="450.00" y1="40" x2="450.00" y2="220" stroke="#e5e7eb" opacity="0.5"/><line x1="532.00" y1="40" x2="532.00" y2="220" stroke="#e5e7eb" opacity="0.5"/><line x1="614.00" y1="40" x2="614.00" y2="220" stroke="#e5e7eb" opacity="0.5"/><line x1="696.00" y1="40" x2="696.00" y2="220" stroke="#e5e7eb" opacity="0.5"/><line x1="778.00" y1="40" x2="778.00" y2="220" stroke="#e5e7eb" opacity="0.5"/><line x1="860.00" y1="40" x2="860.00" y2="220" stroke="#e5e7eb" opacity="0.5"/>
    <line x1="40" y1="220" x2="860" y2="220" stroke="#9ca3af"/>
    <line x1="40" y1="40"   x2="40"   y2="220" stroke="#9ca3af"/>
    <path d="M 40.00 166.63 L 44.32 166.00 L 48.63 166.00 L 52.95 121.18 L 57.26 115.78 L 61.58 115.78 L 65.89 112.00 L 70.21 108.22 L 74.53 108.22 L 78.84 108.22 L 83.16 108.22 L 87.47 108.22 L 91.79 108.22 L 96.11 108.22 L 100.42 108.22 L 104.74 108.22 L 109.05 108.22 L 113.37 108.22 L 117.68 108.22 L 122.00 108.22 L 126.32 108.22 L 130.63 108.22 L 134.95 109.21 L 139.26 109.12 L 143.58 108.76 L 147.89 108.76 L 152.21 108.76 L 156.53 108.76 L 160.84 108.76 L 165.16 108.76 L 169.47 108.76 L 173.79 108.76 L 178.11 108.76 L 182.42 108.76 L 186.74 108.76 L 191.05 108.76 L 195.37 108.76 L 199.68 108.76 L 204.00 108.76 L 208.32 108.76 L 212.63 108.76 L 216.95 108.76 L 221.26 108.76 L 225.58 108.76 L 229.89 108.76 L 234.21 108.76 L 238.53 108.76 L 242.84 108.76 L 247.16 108.76 L 251.47 108.76 L 255.79 108.76 L 260.11 108.76 L 264.42 108.76 L 268.74 108.76 L 273.05 108.76 L 277.37 108.76 L 281.68 108.76 L 286.00 108.76 L 290.32 108.76 L 294.63 108.76 L 298.95 108.76 L 303.26 108.76 L 307.58 108.76 L 311.89 108.76 L 316.21 108.76 L 320.53 108.76 L 324.84 108.76 L 329.16 108.76 L 333.47 108.76 L 337.79 108.76 L 342.11 108.76 L 346.42 108.76 L 350.74 108.76 L 355.05 108.76 L 359.37 108.76 L 363.68 108.76 L 368.00 108.76 L 372.32 108.76 L 376.63 108.76 L 380.95 108.76 L 385.26 108.76 L 389.58 108.76 L 393.89 108.76 L 398.21 108.76 L 402.53 108.76 L 406.84 108.76 L 411.16 108.76 L 415.47 108.76 L 419.79 108.76 L 424.11 108.76 L 428.42 108.76 L 432.74 108.76 L 437.05 108.76 L 441.37 108.76 L 445.68 108.76 L 450.00 108.76 L 454.32 108.76 L 458.63 108.76 L 462.95 108.76 L 467.26 108.76 L 471.58 108.76 L 475.89 108.76 L 480.21 108.76 L 484.53 108.76 L 488.84 108.76 L 493.16 108.76 L 497.47 108.76 L 501.79 108.76 L 506.11 108.76 L 510.42 108.76 L 514.74 108.76 L 519.05 108.76 L 523.37 108.76 L 527.68 108.76 L 532.00 108.76 L 536.32 108.76 L 540.63 108.76 L 544.95 108.76 L 549.26 108.76 L 553.58 108.76 L 557.89 108.76 L 562.21 108.76 L 566.53 108.76 L 570.84 108.76 L 575.16 108.76 L 579.47 108.76 L 583.79 108.76 L 588.11 108.76 L 592.42 108.76 L 596.74 108.76 L 601.05 108.76 L 605.37 108.76 L 609.68 108.76 L 614.00 108.76 L 618.32 108.76 L 622.63 108.76 L 626.95 108.76 L 631.26 108.76 L 635.58 108.76 L 639.89 108.76 L 644.21 108.76 L 648.53 108.76 L 652.84 108.76 L 657.16 108.94 L 661.47 100.39 L 665.79 81.40 L 670.11 81.40 L 674.42 81.40 L 678.74 81.40 L 683.05 81.40 L 687.37 70.78 L 691.68 70.78 L 696.00 70.78 L 700.32 70.78 L 704.63 70.78 L 708.95 70.78 L 713.26 70.78 L 717.58 70.78 L 721.89 70.78 L 726.21 70.78 L 730.53 70.78 L 734.84 70.78 L 739.16 70.78 L 743.47 70.78 L 747.79 70.78 L 752.11 70.78 L 756.42 70.78 L 760.74 70.78 L 765.05 70.78 L 769.37 70.78 L 773.68 70.78 L 778.00 70.78 L 782.32 70.78 L 786.63 70.78 L 790.95 70.78 L 795.26 70.78 L 799.58 70.78 L 803.89 70.78 L 808.21 70.78 L 812.53 70.78 L 816.84 70.78 L 821.16 70.78 L 825.47 70.78 L 829.79 70.78 L 834.11 70.78 L 838.42 70.78 L 842.74 70.78 L 847.05 70.78 L 851.37 70.78 L 855.68 70.78 L 860.00 70.78" fill="none" stroke="#111827" stroke-width="2"/>
    <circle cx="860.00" cy="70.78" r="3" fill="#111827"/>
    <text x="40.00" y="235.00" font-size="9" fill="#111827" text-anchor="middle" transform="rotate(-45 40.00 235.00)">28.08.2025</text><text x="122.00" y="235.00" font-size="9" fill="#111827" text-anchor="middle" transform="rotate(-45 122.00 235.00)">28.08.2025</text><text x="204.00" y="235.00" font-size="9" fill="#111827" text-anchor="middle" transform="rotate(-45 204.00 235.00)">08.09.2025</text><text x="286.00" y="235.00" font-size="9" fill="#111827" text-anchor="middle" transform="rotate(-45 286.00 235.00)">20.09.2025</text><text x="368.00" y="235.00" font-size="9" fill="#111827" text-anchor="middle" transform="rotate(-45 368.00 235.00)">08.10.2025</text><text x="450.00" y="235.00" font-size="9" fill="#111827" text-anchor="middle" transform="rotate(-45 450.00 235.00)">27.10.2025</text><text x="532.00" y="235.00" font-size="9" fill="#111827" text-anchor="middle" transform="rotate(-45 532.00 235.00)">13.11.2025</text><text x="614.00" y="235.00" font-size="9" fill="#111827" text-anchor="middle" transform="rotate(-45 614.00 235.00)">28.11.2025</text><text x="696.00" y="235.00" font-size="9" fill="#111827" text-anchor="middle" transform="rotate(-45 696.00 235.00)">09.12.2025</text><text x="778.00" y="235.00" font-size="9" fill="#111827" text-anchor="middle" transform="rotate(-45 778.00 235.00)">22.12.2025</text><text x="860.00" y="235.00" font-size="9" fill="#111827" text-anchor="middle" transform="rotate(-45 860.00 235.00)">09.01.2026</text>
  </g>
</svg>