<svg xmlns="http://www.w3.org/2000/svg" width="900" height="290" style="font-family: -apple-system, BlinkMacSystemFont, 'Segoe UI', Helvetica, Arial, sans-serif;">
  <rect width="100%" height="100%" fill="white"/>
  <g>
    <line x1="40" y1="220.00" x2="860" y2="220.00" stroke="#e5e7eb"/><text x="32" y="224.00" font-size="10" fill="#111827" text-anchor="end">0</text><line x1="40" y1="175.00" x2="860" y2="175.00" stroke="#e5e7eb"/><text x="32" y="179.00" font-size="10" fill="#111827" text-anchor="end">500</text><line x1="40" y1="130.00" x2="860" y2="130.00" stroke="#e5e7eb"/><text x="32" y="134.00" font-size="10" fill="#111827" text-anchor="end">1k</text><line x1="40" y1="85.00" x2="860" y2="85.00" stroke="#e5e7eb"/><text x="32" y="89.00" font-size="10" fill="#111827" text-anchor="end">1.5k</text><line x1="40" y1="40.00" x2="860" y2="40.00" stroke="#e5e7eb"/><text x="32" y="44.00" font-size="10" fill="#111827" text-anchor="end">2k</text>
    <line x1="40.00" y1="40" x2="40.00" y2="220" stroke="#e5e7eb" opacity="0.5"/><line x1="120.85" y1="40" x2="120.85" y2="220" stroke="#e5e7eb" opacity="0.5"/><line x1="201.69" y1="40" x2="201.69" y2="220" stroke="#e5e7eb" opacity="0.5"/><line x1="282.54" y1="40" x2="282.54" y2="220" stroke="#e5e7eb" opacity="0.5"/><line x1="363.38" y1="40" x2="363.38" y2="220" stroke="#e5e7eb" opacity="0.5"/><line x1="444.23" y1="40" x2="444.23" y2="220" stroke="#e5e7eb" opacity="0.5"/><line x1="525.07" y1="40" x2="525.07" y2="220" stroke="#e5e7eb" opacity="0.5"/><line x1="605.92" y1="40" x2="605.92" y2="220" stroke="#e5e7eb" opacity="0.5"/><line x1="686.76" y1="40" x2="686.76" y2="220" stroke="#e5e7eb" opacity="0.5"/><line x1="767.61" y1="40" x2="767.61" y2="220" stroke="#e5e7eb" opacity="0.5"/><line x1="848.45" y1="40" x2="848.45" y2="220" stroke="#e5e7eb" opacity="0.5"/>
    <line x1="40" y1="220" x2="860" y2="220" stroke="#9ca3af"/>
    <line x1="40" y1="40"   x2="40"   y2="220" stroke="#9ca3af"/>
    <path d="M 40.00 166.63 L 43.85 166.00 L 47.70 166.00 L 51.55 121.18 L 55.40 115.78 L 59.25 115.78 L 63.10 112.00 L 66.95 108.22 L 70.80 108.22 L 74.65 108.22 L 78.50 108.22 L 82.35 108.22 L 86.20 108.22 L 90.05 108.22 L 93.90 108.22 L 97.75 108.22 L 101.60 108.22 L 105.45 108.22 L 109.30 108.22 L 113.15 108.22 L 117.00 108.22 L 120.85 108.22 L 124.69 109.21 L 128.54 109.12 L 132.39 108.76 L 136.24 108.76 L 140.09 108.76 L 143.94 108.76 L 147.79 108.76 L 151.64 108.76 L 155.49 108.76 L 159.34 108.76 L 163.19 108.76 L 167.04 108.76 L 170.89 108.76 L 174.74 108.76 L 178.59 108.76 L 182.44 108.76 L 186.29 108.76 L 190.14 108.76 L 193.99 108.76 L 197.84 108.76 L 201.69 108.76 L 205.54 108.76 L 209.39 108.76 L 213.24 108.76 L 217.09 108.76 L 220.94 108.76 L 224.79 108.76 L 228.64 108.76 L 232.49 108.76 L 236.34 108.76 L 240.19 108.76 L 244.04 108.76 L 247.89 108.76 L 251.74 108.76 L 255.59 108.76 L 259.44 108.76 L 263.29 108.76 L 267.14 108.76 L 270.99 108.76 L 274.84 108.76 L 278.69 108.76 L 282.54 108.76 L 286.38 108.76 L 290.23 108.76 L 294.08 108.76 L 297.93 108.76 L 301.78 108.76 L 305.63 108.76 L 309.48 108.76 L 313.33 108.76 L 317.18 108.76 L 321.03 108.76 L 324.88 108.76 L 328.73 108.76 L 332.58 108.76 L 336.43 108.76 L 340.28 108.76 L 344.13 108.76 L 347.98 108.76 L 351.83 108.76 L 355.68 108.76 L 359.53 108.76 L 363.38 108.76 L 367.23 108.76 L 371.08 108.76 L 374.93 108.76 L 378.78 108.76 L 382.63 108.76 L 386.48 108.76 L 390.33 108.76 L 394.18 108.76 L 398.03 108.76 L 401.88 108.76 L 405.73 108.76 L 409.58 108.76 L 413.43 108.76 L 417.28 108.76 L 421.13 108.76 L 424.98 108.76 L 428.83 108.76 L 432.68 108.76 L 436.53 108.76 L 440.38 108.76 L 444.23 108.76 L 448.08 108.76 L 451.92 108.76 L 455.77 108.76 L 459.62 108.76 L 463.47 108.76 L 467.32 108.76 L 471.17 108.76 L 475.02 108.76 L 478.87 108.76 L 482.72 108.76 L 486.57 108.76 L 490.42 108.76 L 494.27 108.76 L 498.12 108.76 L 501.97 108.76 L 505.82 108.76 L 509.67 108.76 L 513.52 108.76 L 517.37 108.76 L 521.22 108.76 L 525.07 108.76 L 528.92 108.76 L 532.77 108.76 L 536.62 108.76 L 540.47 108.76 L 544.32 108.76 L 548.17 108.76 L 552.02 108.76 L 555.87 108.76 L 559.72 108.76 L 563.57 108.76 L 567.42 108.76 L 571.27 108.76 L 575.12 108.76 L 578.97 108.76 L 582.82 108.76 L 586.67 108.76 L 590.52 108.94 L 594.37 100.39 L 598.22 81.40 L 602.07 81.40 L 605.92 81.40 L 609.77 81.40 L 613.62 81.40 L 617.46 70.78 L 621.31 70.78 L 625.16 70.78 L 629.01 70.78 L 632.86 70.78 L 636.71 70.78 L 640.56 70.78 L 644.41 70.78 L 648.26 70.78 L 652.11 70.78 L 655.96 70.78 L 659.81 70.78 L 663.66 70.78 L 667.51 70.78 L 671.36 70.78 L 675.21 70.78 L 679.06 70.78 L 682.91 70.78 L 686.76 70.78 L 690.61 70.78 L 694.46 70.78 L 698.31 70.78 L 702.16 70.78 L 706.01 70.78 L 709.86 70.78 L 713.71 70.78 L 717.56 70.78 L 721.41 70.78 L 725.26 70.78 L 729.11 70.78 L 732.96 70.78 L 736.81 70.78 L 740.66 70.78 L 744.51 70.78 L 748.36 70.78 L 752.21 70.78 L 756.06 70.78 L 759.91 70.78 L 763.76 70.78 L 767.61 70.78 L 771.46 70.78 L 775.31 70.78 L 779.15 70.78 L 783.00 70.78 L 786.85 70.78 L 790.70 70.78 L 794.55 70.78 L 798.40 70.78 L 802.25 70.78 L 806.10 70.78 L 809.95 70.78 L 813.80 70.78 L 817.65 70.78 L 821.50 70.78 L 825.35 70.78 L 829.20 70.78 L 833.05 70.78 L 836.90 70.78 L 840.75 70.78 L 844.60 70.78 L 848.45 70.78 L 852.30 70.78 L 856.15 70.78 L 860.00 70.78" fill="none" stroke="#111827" stroke-width="2"/>
    <circle cx="860.00" cy="70.78" r="3" fill="#111827"/>
    <text x="40.00" y="235.00" font-size="9" fill="#111827" text-anchor="middle" transform="rotate(-45 40.00 235.00)">28.08.2025</text><text x="120.85" y="235.00" font-size="9" fill="#111827" text-anchor="middle" transform="rotate(-45 120.85 235.00)">28.08.2025</text><text x="201.69" y="235.00" font-size="9" fill="#111827" text-anchor="middle" transform="rotate(-45 201.69 235.00)">11.09.2025</text><text x="282.54" y="235.00" font-size="9" fill="#111827" text-anchor="middle" transform="rotate(-45 282.54 235.00)">26.09.2025</text><text x="363.38" y="235.00" font-size="9" fill="#111827" text-anchor="middle" transform="rotate(-45 363.38 235.00)">16.10.2025</text><text x="444.23" y="235.00" font-size="9" fill="#111827" text-anchor="middle" transform="rotate(-45 444.23 235.00)">04.11.2025</text><text x="525.07" y="235.00" font-size="9" fill="#111827" text-anchor="middle" transform="rotate(-45 525.07 235.00)">24.11.2025</text><text x="605.92" y="235.00" font-size="9" fill="#111827" text-anchor="middle" transform="rotate(-45 605.92 235.00)">05.12.2025</text><text x="686.76" y="235.00" font-size="9" fill="#111827" text-anchor="middle" transform="rotate(-45 686.76 235.00)">19.12.2025</text><text x="767.61" y="235.00" font-size="9" fill="#111827" text-anchor="middle" transform="rotate(-45 767.61 235.00)">08.01.2026</text><text x="848.45" y="235.00" font-size="9" fill="#111827" text-anchor="middle" transform="rotate(-45 848.45 235.00)">27.01.2026</text>
  </g>
</svg>