<svg xmlns="http://www.w3.org/2000/svg" width="900" height="290" style="font-family: -apple-system, BlinkMacSystemFont, 'Segoe UI', Helvetica, Arial, sans-serif;">
  <rect width="100%" height="100%" fill="#0d1117"/>
  <g>
    <line x1="40" y1="220.00" x2="860" y2="220.00" stroke="#30363d"/><text x="32" y="224.00" font-size="10" fill="#c9d1d9" text-anchor="end">0</text><line x1="40" y1="175.00" x2="860" y2="175.00" stroke="#30363d"/><text x="32" y="179.00" font-size="10" fill="#c9d1d9" text-anchor="end">500</text><line x1="40" y1="130.00" x2="860" y2="130.00" stroke="#30363d"/><text x="32" y="134.00" font-size="10" fill="#c9d1d9" text-anchor="end">1k</text><line x1="40" y1="85.00" x2="860" y2="85.00" stroke="#30363d"/><text x="32" y="89.00" font-size="10" fill="#c9d1d9" text-anchor="end">1.5k</text><line x1="40" y1="40.00" x2="860" y2="40.00" stroke="#30363d"/><text x="32" y="44.00" font-size="10" fill="#c9d1d9" text-anchor="end">2k</text>
    <line x1="40.00" y1="40" x2="40.00" y2="220" stroke="#30363d" opacity="0.5"/><line x1="113.43" y1="40" x2="113.43" y2="220" stroke="#30363d" opacity="0.5"/><line x1="186.87" y1="40" x2="186.87" y2="220" stroke="#30363d" opacity="0.5"/><line x1="260.30" y1="40" x2="260.30" y2="220" stroke="#30363d" opacity="0.5"/><line x1="333.73" y1="40" x2="333.73" y2="220" stroke="#30363d" opacity="0.5"/><line x1="407.16" y1="40" x2="407.16" y2="220" stroke="#30363d" opacity="0.5"/><line x1="480.60" y1="40" x2="480.60" y2="220" stroke="#30363d" opacity="0.5"/><line x1="554.03" y1="40" x2="554.03" y2="220" stroke="#30363d" opacity="0.5"/><line x1="627.46" y1="40" x2="627.46" y2="220" stroke="#30363d" opacity="0.5"/><line x1="700.90" y1="40" x2="700.90" y2="220" stroke="#30363d" opacity="0.5"/><line x1="774.33" y1="40" x2="774.33" y2="220" stroke="#30363d" opacity="0.5"/><line x1="847.76" y1="40" x2="847.76" y2="220" stroke="#30363d" opacity="0.5"/>
    <line x1="40" y1="220" x2="860" y2="220" stroke="#30363d"/>
    <line x1="40" y1="40"   x2="40"   y2="220" stroke="#30363d"/>
    <path d="M 40.00 166.63 L 52.24 166.00 L 64.48 166.00 L 76.72 121.18 L 88.96 115.78 L 101.19 115.78 L 113.43 112.00 L 125.67 108.22 L 137.91 108.22 L 150.15 108.22 L 162.39 108.22 L 174.63 108.22 L 186.87 108.22 L 199.10 108.22 L 211.34 108.22 L 223.58 108.22 L 235.82 108.22 L 248.06 108.22 L 260.30 108.22 L 272.54 108.22 L 284.78 108.22 L 297.01 108.22 L 309.25 109.21 L 321.49 109.12 L 333.73 108.76 L 345.97 108.76 L 358.21 108.76 L 370.45 108.76 L 382.69 108.76 L 394.93 108.76 L 407.16 108.76 L 419.40 108.76 L 431.64 108.76 L 443.88 108.76 L 456.12 108.76 L 468.36 108.76 L 480.60 108.76 L 492.84 108.76 L 505.07 108.76 L 517.31 108.76 L 529.55 108.76 L 541.79 108.76 L 554.03 108.76 L 566.27 108.76 L 578.51 108.76 L 590.75 108.76 L 602.99 108.76 L 615.22 108.76 L 627.46 108.76 L 639.70 108.76 L 651.94 108.76 L 664.18 108.76 L 676.42 108.76 L 688.66 108.76 L 700.90 108.76 L 713.13 108.76 L 725.37 108.76 L 737.61 108.76 L 749.85 108.76 L 762.09 108.76 L 774.33 108.76 L 786.57 108.76 L 798.81 108.76 L 811.04 108.76 L 823.28 108.76 L 835.52 108.76 L 847.76 108.76 L 860.00 108.76" fill="none" stroke="#3fb950" stroke-width="2"/>
    <circle cx="860.00" cy="108.76" r="3" fill="#3fb950"/>
    <text x="40.00" y="235.00" font-size="9" fill="#c9d1d9" text-anchor="middle" transform="rotate(-45 40.00 235.00)">28.08.2025</text><text x="113.43" y="235.00" font-size="9" fill="#c9d1d9" text-anchor="middle" transform="rotate(-45 113.43 235.00)">28.08.2025</text><text x="186.87" y="235.00" font-size="9" fill="#c9d1d9" text-anchor="middle" transform="rotate(-45 186.87 235.00)">28.08.2025</text><text x="260.30" y="235.00" font-size="9" fill="#c9d1d9" text-anchor="middle" transform="rotate(-45 260.30 235.00)">28.08.2025</text><text x="333.73" y="235.00" font-size="9" fill="#c9d1d9" text-anchor="middle" transform="rotate(-45 333.73 235.00)">28.08.2025</text><text x="407.16" y="235.00" font-size="9" fill="#c9d1d9" text-anchor="middle" transform="rotate(-45 407.16 235.00)">01.09.2025</text><text x="480.60" y="235.00" font-size="9" fill="#c9d1d9" text-anchor="middle" transform="rotate(-45 480.60 235.00)">07.09.2025</text><text x="554.03" y="235.00" font-size="9" fill="#c9d1d9" text-anchor="middle" transform="rotate(-45 554.03 235.00)">11.09.2025</text><text x="627.46" y="235.00" font-size="9" fill="#c9d1d9" text-anchor="middle" transform="rotate(-45 627.46 235.00)">15.09.2025</text><text x="700.90" y="235.00" font-size="9" fill="#c9d1d9" text-anchor="middle" transform="rotate(-45 700.90 235.00)">19.09.2025</text><text x="774.33" y="235.00" font-size="9" fill="#c9d1d9" text-anchor="middle" transform="rotate(-45 774.33 235.00)">25.09.2025</text><text x="847.76" y="235.00" font-size="9" fill="#c9d1d9" text-anchor="middle" transform="rotate(-45 847.76 235.00)">01.10.2025</text>
  </g>
</svg>