<svg xmlns="http://www.w3.org/2000/svg" width="900" height="290" style="font-family: -apple-system, BlinkMacSystemFont, 'Segoe UI', Helvetica, Arial, sans-serif;">
  <rect width="100%" height="100%" fill="#0d1117"/>
  <g>
    <line x1="40" y1="220.00" x2="860" y2="220.00" stroke="#30363d"/><text x="32" y="224.00" font-size="10" fill="#c9d1d9" text-anchor="end">0</text><line x1="40" y1="175.00" x2="860" y2="175.00" stroke="#30363d"/><text x="32" y="179.00" font-size="10" fill="#c9d1d9" text-anchor="end">500</text><line x1="40" y1="130.00" x2="860" y2="130.00" stroke="#30363d"/><text x="32" y="134.00" font-size="10" fill="#c9d1d9" text-anchor="end">1k</text><line x1="40" y1="85.00" x2="860" y2="85.00" stroke="#30363d"/><text x="32" y="89.00" font-size="10" fill="#c9d1d9" text-anchor="end">1.5k</text><line x1="40" y1="40.00" x2="860" y2="40.00" stroke="#30363d"/><text x="32" y="44.00" font-size="10" fill="#c9d1d9" text-anchor="end">2k</text>
    <line x1="40.00" y1="40" x2="40.00" y2="220" stroke="#30363d" opacity="0.5"/><line x1="114.55" y1="40" x2="114.55" y2="220" stroke="#30363d" opacity="0.5"/><line x1="189.09" y1="40" x2="189.09" y2="220" stroke="#30363d" opacity="0.5"/><line x1="263.64" y1="40" x2="263.64" y2="220" stroke="#30363d" opacity="0.5"/><line x1="338.18" y1="40" x2="338.18" y2="220" stroke="#30363d" opacity="0.5"/><line x1="412.73" y1="40" x2="412.73" y2="220" stroke="#30363d" opacity="0.5"/><line x1="487.27" y1="40" x2="487.27" y2="220" stroke="#30363d" opacity="0.5"/><line x1="561.82" y1="40" x2="561.82" y2="220" stroke="#30363d" opacity="0.5"/><line x1="636.36" y1="40" x2="636.36" y2="220" stroke="#30363d" opacity="0.5"/><line x1="710.91" y1="40" x2="710.91" y2="220" stroke="#30363d" opacity="0.5"/><line x1="785.45" y1="40" x2="785.45" y2="220" stroke="#30363d" opacity="0.5"/><line x1="860.00" y1="40" x2="860.00" y2="220" stroke="#30363d" opacity="0.5"/>
    <line x1="40" y1="220" x2="860" y2="220" stroke="#30363d"/>
    <line x1="40" y1="40"   x2="40"   y2="220" stroke="#30363d"/>
    <path d="M 40.00 166.63 L 49.32 166.00 L 58.64 166.00 L 67.95 121.18 L 77.27 115.78 L 86.59 115.78 L 95.91 112.00 L 105.23 108.22 L 114.55 108.22 L 123.86 108.22 L 133.18 108.22 L 142.50 108.22 L 151.82 108.22 L 161.14 108.22 L 170.45 108.22 L 179.77 108.22 L 189.09 108.22 L 198.41 108.22 L 207.73 108.22 L 217.05 108.22 L 226.36 108.22 L 235.68 108.22 L 245.00 109.21 L 254.32 109.12 L 263.64 108.76 L 272.95 108.76 L 282.27 108.76 L 291.59 108.76 L 300.91 108.76 L 310.23 108.76 L 319.55 108.76 L 328.86 108.76 L 338.18 108.76 L 347.50 108.76 L 356.82 108.76 L 366.14 108.76 L 375.45 108.76 L 384.77 108.76 L 394.09 108.76 L 403.41 108.76 L 412.73 108.76 L 422.05 108.76 L 431.36 108.76 L 440.68 108.76 L 450.00 108.76 L 459.32 108.76 L 468.64 108.76 L 477.95 108.76 L 487.27 108.76 L 496.59 108.76 L 505.91 108.76 L 515.23 108.76 L 524.55 108.76 L 533.86 108.76 L 543.18 108.76 L 552.50 108.76 L 561.82 108.76 L 571.14 108.76 L 580.45 108.76 L 589.77 108.76 L 599.09 108.76 L 608.41 108.76 L 617.73 108.76 L 627.05 108.76 L 636.36 108.76 L 645.68 108.76 L 655.00 108.76 L 664.32 108.76 L 673.64 108.76 L 682.95 108.76 L 692.27 108.76 L 701.59 108.76 L 710.91 108.76 L 720.23 108.76 L 729.55 108.76 L 738.86 108.76 L 748.18 108.76 L 757.50 108.76 L 766.82 108.76 L 776.14 108.76 L 785.45 108.76 L 794.77 108.76 L 804.09 108.76 L 813.41 108.76 L 822.73 108.76 L 832.05 108.76 L 841.36 108.76 L 850.68 108.76 L 860.00 108.76" fill="none" stroke="#3fb950" stroke-width="2"/>
    <circle cx="860.00" cy="108.76" r="3" fill="#3fb950"/>
    <text x="40.00" y="235.00" font-size="9" fill="#c9d1d9" text-anchor="middle" transform="rotate(-45 40.00 235.00)">28.08.2025</text><text x="114.55" y="235.00" font-size="9" fill="#c9d1d9" text-anchor="middle" transform="rotate(-45 114.55 235.00)">28.08.2025</text><text x="189.09" y="235.00" font-size="9" fill="#c9d1d9" text-anchor="middle" transform="rotate(-45 189.09 235.00)">28.08.2025</text><text x="263.64" y="235.00" font-size="9" fill="#c9d1d9" text-anchor="middle" transform="rotate(-45 263.64 235.00)">28.08.2025</text><text x="338.18" y="235.00" font-size="9" fill="#c9d1d9" text-anchor="middle" transform="rotate(-45 338.18 235.00)">03.09.2025</text><text x="412.73" y="235.00" font-size="9" fill="#c9d1d9" text-anchor="middle" transform="rotate(-45 412.73 235.00)">09.09.2025</text><text x="487.27" y="235.00" font-size="9" fill="#c9d1d9" text-anchor="middle" transform="rotate(-45 487.27 235.00)">15.09.2025</text><text x="561.82" y="235.00" font-size="9" fill="#c9d1d9" text-anchor="middle" transform="rotate(-45 561.82 235.00)">21.09.2025</text><text x="636.36" y="235.00" font-size="9" fill="#c9d1d9" text-anchor="middle" transform="rotate(-45 636.36 235.00)">29.09.2025</text><text x="710.91" y="235.00" font-size="9" fill="#c9d1d9" text-anchor="middle" transform="rotate(-45 710.91 235.00)">07.10.2025</text><text x="785.45" y="235.00" font-size="9" fill="#c9d1d9" text-anchor="middle" transform="rotate(-45 785.45 235.00)">15.10.2025</text><text x="860.00" y="235.00" font-size="9" fill="#c9d1d9" text-anchor="middle" transform="rotate(-45 860.00 235.00)">23.10.2025</text>
  </g>
</svg>