<svg xmlns="http://www.w3.org/2000/svg" width="900" height="290" style="font-family: -apple-system, BlinkMacSystemFont, 'Segoe UI', Helvetica, Arial, sans-serif;">
  <rect width="100%" height="100%" fill="white"/>
  <g>
    <line x1="40" y1="220.00" x2="860" y2="220.00" stroke="#e5e7eb"/><text x="32" y="224.00" font-size="10" fill="#111827" text-anchor="end">0</text><line x1="40" y1="175.00" x2="860" y2="175.00" stroke="#e5e7eb"/><text x="32" y="179.00" font-size="10" fill="#111827" text-anchor="end">500</text><line x1="40" y1="130.00" x2="860" y2="130.00" stroke="#e5e7eb"/><text x="32" y="134.00" font-size="10" fill="#111827" text-anchor="end">1k</text><line x1="40" y1="85.00" x2="860" y2="85.00" stroke="#e5e7eb"/><text x="32" y="89.00" font-size="10" fill="#111827" text-anchor="end">1.5k</text><line x1="40" y1="40.00" x2="860" y2="40.00" stroke="#e5e7eb"/><text x="32" y="44.00" font-size="10" fill="#111827" text-anchor="end">2k</text>
    <line x1="40.00" y1="40" x2="40.00" y2="220" stroke="#e5e7eb" opacity="0.5"/><line x1="119.12" y1="40" x2="119.12" y2="220" stroke="#e5e7eb" opacity="0.5"/><line x1="198.25" y1="40" x2="198.25" y2="220" stroke="#e5e7eb" opacity="0.5"/><line x1="277.37" y1="40" x2="277.37" y2="220" stroke="#e5e7eb" opacity="0.5"/><line x1="356.49" y1="40" x2="356.49" y2="220" stroke="#e5e7eb" opacity="0.5"/><line x1="435.61" y1="40" x2="435.61" y2="220" stroke="#e5e7eb" opacity="0.5"/><line x1="514.74" y1="40" x2="514.74" y2="220" stroke="#e5e7eb" opacity="0.5"/><line x1="593.86" y1="40" x2="593.86" y2="220" stroke="#e5e7eb" opacity="0.5"/><line x1="672.98" y1="40" x2="672.98" y2="220" stroke="#e5e7eb" opacity="0.5"/><line x1="752.11" y1="40" x2="752.11" y2="220" stroke="#e5e7eb" opacity="0.5"/><line x1="831.23" y1="40" x2="831.23" y2="220" stroke="#e5e7eb" opacity="0.5"/>
    <line x1="40" y1="220" x2="860" y2="220" stroke="#9ca3af"/>
    <line x1="40" y1="40"   x2="40"   y2="220" stroke="#9ca3af"/>
    <path d="M 40.00 166.63 L 43.60 166.00 L 47.19 166.00 L 50.79 121.18 L 54.39 115.78 L 57.98 115.78 L 61.58 112.00 L 65.18 108.22 L 68.77 108.22 L 72.37 108.22 L 75.96 108.22 L 79.56 108.22 L 83.16 108.22 L 86.75 108.22 L 90.35 108.22 L 93.95 108.22 L 97.54 108.22 L 101.14 108.22 L 104.74 108.22 L 108.33 108.22 L 111.93 108.22 L 115.53 108.22 L 119.12 109.21 L 122.72 109.12 L 126.32 108.76 L 129.91 108.76 L 133.51 108.76 L 137.11 108.76 L 140.70 108.76 L 144.30 108.76 L 147.89 108.76 L 151.49 108.76 L 155.09 108.76 L 158.68 108.76 L 162.28 108.76 L 165.88 108.76 L 169.47 108.76 L 173.07 108.76 L 176.67 108.76 L 180.26 108.76 L 183.86 108.76 L 187.46 108.76 L 191.05 108.76 L 194.65 108.76 L 198.25 108.76 L 201.84 108.76 L 205.44 108.76 L 209.04 108.76 L 212.63 108.76 L 216.23 108.76 L 219.82 108.76 L 223.42 108.76 L 227.02 108.76 L 230.61 108.76 L 234.21 108.76 L 237.81 108.76 L 241.40 108.76 L 245.00 108.76 L 248.60 108.76 L 252.19 108.76 L 255.79 108.76 L 259.39 108.76 L 262.98 108.76 L 266.58 108.76 L 270.18 108.76 L 273.77 108.76 L 277.37 108.76 L 280.96 108.76 L 284.56 108.76 L 288.16 108.76 L 291.75 108.76 L 295.35 108.76 L 298.95 108.76 L 302.54 108.76 L 306.14 108.76 L 309.74 108.76 L 313.33 108.76 L 316.93 108.76 L 320.53 108.76 L 324.12 108.76 L 327.72 108.76 L 331.32 108.76 L 334.91 108.76 L 338.51 108.76 L 342.11 108.76 L 345.70 108.76 L 349.30 108.76 L 352.89 108.76 L 356.49 108.76 L 360.09 108.76 L 363.68 108.76 L 367.28 108.76 L 370.88 108.76 L 374.47 108.76 L 378.07 108.76 L 381.67 108.76 L 385.26 108.76 L 388.86 108.76 L 392.46 108.76 L 396.05 108.76 L 399.65 108.76 L 403.25 108.76 L 406.84 108.76 L 410.44 108.76 L 414.04 108.76 L 417.63 108.76 L 421.23 108.76 L 424.82 108.76 L 428.42 108.76 L 432.02 108.76 L 435.61 108.76 L 439.21 108.76 L 442.81 108.76 L 446.40 108.76 L 450.00 108.76 L 453.60 108.76 L 457.19 108.76 L 460.79 108.76 L 464.39 108.76 L 467.98 108.76 L 471.58 108.76 L 475.18 108.76 L 478.77 108.76 L 482.37 108.76 L 485.96 108.76 L 489.56 108.76 L 493.16 108.76 L 496.75 108.76 L 500.35 108.76 L 503.95 108.76 L 507.54 108.76 L 511.14 108.76 L 514.74 108.76 L 518.33 108.76 L 521.93 108.76 L 525.53 108.76 L 529.12 108.76 L 532.72 108.76 L 536.32 108.76 L 539.91 108.76 L 543.51 108.76 L 547.11 108.76 L 550.70 108.76 L 554.30 108.94 L 557.89 100.39 L 561.49 81.40 L 565.09 81.40 L 568.68 81.40 L 572.28 81.40 L 575.88 81.40 L 579.47 70.78 L 583.07 70.78 L 586.67 70.78 L 590.26 70.78 L 593.86 70.78 L 597.46 70.78 L 601.05 70.78 L 604.65 70.78 L 608.25 70.78 L 611.84 70.78 L 615.44 70.78 L 619.04 70.78 L 622.63 70.78 L 626.23 70.78 L 629.82 70.78 L 633.42 70.78 L 637.02 70.78 L 640.61 70.78 L 644.21 70.78 L 647.81 70.78 L 651.40 70.78 L 655.00 70.78 L 658.60 70.78 L 662.19 70.78 L 665.79 70.78 L 669.39 70.78 L 672.98 70.78 L 676.58 70.78 L 680.18 70.78 L 683.77 70.78 L 687.37 70.78 L 690.96 70.78 L 694.56 70.78 L 698.16 70.78 L 701.75 70.78 L 705.35 70.78 L 708.95 70.78 L 712.54 70.78 L 716.14 70.78 L 719.74 70.78 L 723.33 70.78 L 726.93 70.78 L 730.53 70.78 L 734.12 70.78 L 737.72 70.78 L 741.32 70.78 L 744.91 70.78 L 748.51 70.78 L 752.11 70.78 L 755.70 70.78 L 759.30 70.78 L 762.89 70.78 L 766.49 70.78 L 770.09 70.78 L 773.68 70.78 L 777.28 70.78 L 780.88 70.78 L 784.47 70.78 L 788.07 70.78 L 791.67 70.78 L 795.26 70.78 L 798.86 70.78 L 802.46 70.78 L 806.05 70.78 L 809.65 70.78 L 813.25 70.78 L 816.84 70.78 L 820.44 70.78 L 824.04 70.78 L 827.63 70.78 L 831.23 70.78 L 834.82 70.78 L 838.42 70.78 L 842.02 70.78 L 845.61 70.78 L 849.21 70.78 L 852.81 70.78 L 856.40 70.78 L 860.00 70.78" fill="none" stroke="#111827" stroke-width="2"/>
    <circle cx="860.00" cy="70.78" r="3" fill="#111827"/>
    <text x="40.00" y="235.00" font-size="9" fill="#111827" text-anchor="middle" transform="rotate(-45 40.00 235.00)">28.08.2025</text><text x="119.12" y="235.00" font-size="9" fill="#111827" text-anchor="middle" transform="rotate(-45 119.12 235.00)">28.08.2025</text><text x="198.25" y="235.00" font-size="9" fill="#111827" text-anchor="middle" transform="rotate(-45 198.25 235.00)">13.09.2025</text><text x="277.37" y="235.00" font-size="9" fill="#111827" text-anchor="middle" transform="rotate(-45 277.37 235.00)">29.09.2025</text><text x="356.49" y="235.00" font-size="9" fill="#111827" text-anchor="middle" transform="rotate(-45 356.49 235.00)">20.10.2025</text><text x="435.61" y="235.00" font-size="9" fill="#111827" text-anchor="middle" transform="rotate(-45 435.61 235.00)">09.11.2025</text><text x="514.74" y="235.00" font-size="9" fill="#111827" text-anchor="middle" transform="rotate(-45 514.74 235.00)">28.11.2025</text><text x="593.86" y="235.00" font-size="9" fill="#111827" text-anchor="middle" transform="rotate(-45 593.86 235.00)">11.12.2025</text><text x="672.98" y="235.00" font-size="9" fill="#111827" text-anchor="middle" transform="rotate(-45 672.98 235.00)">26.12.2025</text><text x="752.11" y="235.00" font-size="9" fill="#111827" text-anchor="middle" transform="rotate(-45 752.11 235.00)">15.01.2026</text><text x="831.23" y="235.00" font-size="9" fill="#111827" text-anchor="middle" transform="rotate(-45 831.23 235.00)">06.02.2026</text>
  </g>
</svg>